# Source-author permission confirmed by the user on 2026-07-25.
# Normalized to metres and Z-up; source UVs/material assignments retained.
# Blender 4.2.0
# www.blender.org
mtllib rv_mod_cit_grand_facade.mtl
o rv_mod_cit_grand_facade
v -11.949923 -4.889806 16.010506
v 12.050077 -4.869289 16.010506
v -11.949923 -0.894211 16.010506
v 12.050077 -0.873694 16.010506
v -1.899351 4.889806 16.010506
v 2.064474 4.880251 16.010506
v -11.949923 2.999316 16.010506
v -10.148881 3.676516 16.010506
v -10.148881 -0.217011 2.010505
v -1.899351 0.996279 2.010505
v -10.148881 3.676516 2.010505
v -1.899351 4.889806 2.010505
v -10.148881 3.676516 14.010506
v -1.899351 4.889806 14.010506
v -10.148881 -0.217011 14.010506
v -1.899351 0.996279 14.010506
v -1.899351 4.889806 0.010506
v 2.064474 4.880251 0.010506
v -10.148881 3.676516 0.010506
v 10.249036 3.676516 0.010506
v -11.949923 2.999316 0.010506
v 12.050077 3.019833 0.010506
v 2.064474 0.986725 2.010505
v 10.249036 -0.217011 2.010505
v 2.064474 4.880251 2.010505
v 10.249036 3.676516 2.010505
v 2.064474 4.880251 14.010506
v 10.249036 3.676516 14.010506
v 2.064474 0.986725 14.010506
v 10.249036 -0.217011 14.010506
v 10.249036 3.676516 16.010506
v 12.050077 3.019833 16.010506
v 0.050077 4.889806 0.010506
v 2.064474 4.880251 14.010506
v 10.249036 3.676516 14.010506
v 2.064474 4.880251 0.010506
v 0.050077 4.889806 0.010506
v 10.249036 3.676516 0.010506
v 12.050077 3.019833 0.010506
v -1.899351 4.889806 0.010506
v -10.148881 3.676516 0.010506
v -11.949923 2.999316 0.010506
v 2.064474 4.880251 16.010506
v 10.249036 3.676516 16.010506
v 12.050077 3.019833 16.010506
v 2.064474 4.880251 14.010506
v 2.064474 0.986725 14.010506
v 2.064474 0.986725 14.010506
v 10.249036 -0.217011 14.010506
v 10.249036 -0.217011 14.010506
v 10.249036 3.676516 14.010506
v 2.064474 0.986725 2.010505
v 2.064474 4.880251 2.010505
v 2.064474 4.880251 2.010505
v 10.249036 3.676516 2.010505
v 10.249036 3.676516 2.010505
v 10.249036 -0.217011 2.010505
v 10.249036 -0.217011 2.010505
v 2.064474 0.986725 2.010505
v -10.148881 3.676516 14.010506
v -10.148881 -0.217011 14.010506
v -10.148881 -0.217011 14.010506
v -1.899351 0.996279 14.010506
v -1.899351 0.996279 14.010506
v -1.899351 4.889806 14.010506
v -1.899351 4.889806 14.010506
v -10.148881 3.676516 14.010506
v -10.148881 -0.217011 2.010505
v -10.148881 3.676516 2.010505
v -10.148881 3.676516 2.010505
v -1.899351 4.889806 2.010505
v -1.899351 4.889806 2.010505
v -1.899351 0.996279 2.010505
v -1.899351 0.996279 2.010505
v -10.148881 -0.217011 2.010505
v -11.949923 2.999316 16.010506
v -10.148881 3.676516 16.010506
v -1.899351 4.889806 16.010506
v -1.899351 4.889806 16.010506
v 2.064474 4.880251 16.010506
v -1.899351 4.889806 16.010506
v -1.899351 4.889806 16.010506
v -1.899351 4.889806 16.010506
v -1.899351 4.889806 16.010506
v 2.064474 4.880251 16.010506
v 2.064474 4.880251 16.010506
v 2.064474 4.880251 16.010506
v -11.949923 2.999316 16.010506
v -10.148881 3.676516 16.010506
v -10.148881 3.676516 16.010506
v -10.148881 -0.217011 2.010505
v -10.148881 -0.217011 2.010505
v -1.899351 0.996279 2.010505
v -1.899351 0.996279 2.010505
v -10.148881 3.676516 2.010505
v -10.148881 3.676516 2.010505
v -1.899351 4.889806 2.010505
v -1.899351 4.889806 2.010505
v -10.148881 3.676516 14.010506
v -10.148881 3.676516 14.010506
v -1.899351 4.889806 14.010506
v -1.899351 4.889806 14.010506
v -10.148881 -0.217011 14.010506
v -10.148881 -0.217011 14.010506
v -1.899351 0.996279 14.010506
v -1.899351 0.996279 14.010506
v -1.899351 4.889806 0.010506
v -1.899351 4.889806 0.010506
v -1.899351 4.889806 0.010506
v 2.064474 4.880251 0.010506
v 2.064474 4.880251 0.010506
v 2.064474 4.880251 0.010506
v -10.148881 3.676516 0.010506
v -10.148881 3.676516 0.010506
v -10.148881 3.676516 0.010506
v 10.249036 3.676516 0.010506
v 10.249036 3.676516 0.010506
v 10.249036 3.676516 0.010506
v -11.949923 2.999316 0.010506
v 12.050077 3.019833 0.010506
v 2.064474 0.986725 2.010505
v 2.064474 0.986725 2.010505
v 10.249036 -0.217011 2.010505
v 10.249036 -0.217011 2.010505
v 2.064474 4.880251 2.010505
v 2.064474 4.880251 2.010505
v 10.249036 3.676516 2.010505
v 10.249036 3.676516 2.010505
v 2.064474 4.880251 14.010506
v 2.064474 4.880251 14.010506
v 10.249036 3.676516 14.010506
v 10.249036 3.676516 14.010506
v 2.064474 0.986725 14.010506
v 2.064474 0.986725 14.010506
v 10.249036 -0.217011 14.010506
v 10.249036 -0.217011 14.010506
v 10.249036 3.676516 16.010506
v 10.249036 3.676516 16.010506
v 12.050077 3.019833 16.010506
v 0.050077 4.889806 0.010506
v 0.050077 4.889806 0.010506
v 2.064474 4.880251 16.010506
v -12.174351 2.999316 2.000000
v -12.174351 2.999316 14.000000
v -11.949923 2.999316 2.010505
v -11.949923 2.999316 14.010506
v -11.949923 2.999316 14.010506
v -10.148881 3.676516 14.010506
v -11.949923 2.999316 2.010505
v -10.148881 3.676516 2.010505
v -10.148881 3.676516 14.010506
v -10.148881 -0.217011 14.010506
v -10.148881 3.676516 2.010505
v -10.148881 -0.217011 2.010505
v -1.899351 0.996279 2.010505
v -1.899351 0.996279 14.010506
v -1.899351 4.889806 2.010505
v -1.899351 4.889806 14.010506
v -1.899351 4.889806 2.010505
v -1.899351 4.889806 14.010506
v 0.050077 4.889806 2.010505
v 0.050077 4.889806 14.010506
v 2.064474 4.880251 2.010505
v 2.064474 4.880251 14.010506
v 2.064474 0.986725 2.010505
v 2.064474 4.880251 2.010505
v 2.064474 0.986725 14.010506
v 2.064474 4.880251 14.010506
v 10.249036 3.676516 14.010506
v 10.249036 3.676516 2.010505
v 10.249036 -0.217011 14.010506
v 10.249036 -0.217011 2.010505
v 10.249036 3.676516 14.010506
v 12.050077 3.019833 14.010506
v 10.249036 3.676516 2.010505
v 12.050077 3.019833 2.010505
v 12.050077 3.019833 2.010505
v 12.050077 3.019833 14.010506
v 12.174351 3.019833 2.010505
v 12.174351 3.019833 14.010506
v -11.949923 2.999316 2.010505
v -12.174351 2.999316 2.000000
v -11.949923 2.999316 14.010506
v -10.148881 3.676516 14.010506
v 12.050077 3.019833 2.010505
v 12.174351 3.019833 2.010505
v 12.174351 3.019833 14.010506
v 12.050077 3.019833 14.010506
v 10.249036 3.676516 2.010505
v 12.050077 3.019833 2.010505
v 12.050077 3.019833 14.010506
v 10.249036 3.676516 14.010506
v 10.249036 -0.217011 14.010506
v 10.249036 -0.217011 2.010505
v 2.064474 0.986725 2.010505
v 2.064474 0.986725 14.010506
v 0.050077 4.889806 2.010505
v 2.064474 4.880251 2.010505
v -1.899351 4.889806 2.010505
v 2.064474 4.880251 14.010506
v 0.050077 4.889806 14.010506
v -1.899351 4.889806 14.010506
v -1.899351 0.996279 14.010506
v -1.899351 0.996279 2.010505
v -10.148881 -0.217011 2.010505
v -10.148881 -0.217011 14.010506
v -11.949923 2.999316 2.010505
v -10.148881 3.676516 2.010505
v -11.949923 2.999316 14.010506
v -12.174351 2.999316 14.000000
v -12.174351 2.999316 2.000000
v -12.174351 2.999316 14.000000
v -11.949923 2.999316 2.010505
v -11.949923 2.999316 2.010505
v -11.949923 2.999316 14.010506
v -11.949923 2.999316 14.010506
v -11.949923 2.999316 14.010506
v -11.949923 2.999316 14.010506
v -10.148881 3.676516 14.010506
v -10.148881 3.676516 14.010506
v -11.949923 2.999316 2.010505
v -11.949923 2.999316 2.010505
v -10.148881 3.676516 2.010505
v -10.148881 3.676516 2.010505
v -10.148881 3.676516 14.010506
v -10.148881 -0.217011 14.010506
v -10.148881 3.676516 2.010505
v -10.148881 -0.217011 2.010505
v -1.899351 0.996279 14.010506
v -1.899351 0.996279 14.010506
v -1.899351 4.889806 2.010505
v -1.899351 4.889806 2.010505
v -1.899351 4.889806 2.010505
v -1.899351 4.889806 2.010505
v -1.899351 4.889806 14.010506
v -1.899351 4.889806 14.010506
v -1.899351 4.889806 14.010506
v 0.050077 4.889806 2.010505
v 0.050077 4.889806 2.010505
v 0.050077 4.889806 2.010505
v 0.050077 4.889806 2.010505
v 0.050077 4.889806 14.010506
v 0.050077 4.889806 14.010506
v 0.050077 4.889806 14.010506
v 2.064474 4.880251 2.010505
v 2.064474 4.880251 2.010505
v 2.064474 4.880251 14.010506
v 2.064474 4.880251 14.010506
v 2.064474 4.880251 14.010506
v 2.064474 0.986725 2.010505
v 2.064474 0.986725 14.010506
v 10.249036 3.676516 14.010506
v 10.249036 3.676516 2.010505
v 10.249036 -0.217011 14.010506
v 10.249036 -0.217011 14.010506
v 10.249036 3.676516 14.010506
v 10.249036 3.676516 14.010506
v 12.050077 3.019833 14.010506
v 12.050077 3.019833 14.010506
v 12.050077 3.019833 14.010506
v 10.249036 3.676516 2.010505
v 10.249036 3.676516 2.010505
v 10.249036 3.676516 2.010505
v 12.050077 3.019833 2.010505
v 12.050077 3.019833 2.010505
v 12.050077 3.019833 2.010505
v 12.050077 3.019833 2.010505
v 12.050077 3.019833 2.010505
v 12.050077 3.019833 2.010505
v 12.050077 3.019833 14.010506
v 12.050077 3.019833 14.010506
v 12.050077 3.019833 14.010506
v 12.174351 3.019833 2.010505
v 12.174351 3.019833 14.010506
v 12.174351 3.019833 2.010505
v 12.050077 3.019833 2.010505
v 10.249036 3.676516 14.010506
v 10.249036 -0.217011 2.010505
v 2.064474 4.880251 2.010505
v 0.050077 4.889806 14.010506
v 0.050077 4.889806 14.010506
v -1.899351 0.996279 2.010505
v -10.148881 -0.217011 2.010505
v -10.148881 -0.217011 14.010506
v -1.899351 0.996279 2.010505
v -1.899351 0.996279 14.010506
v 2.064474 0.986725 2.010505
v 2.064474 0.986725 14.010506
v 10.249036 -0.217011 2.010505
v 10.249036 -0.217011 14.010506
v 2.064474 4.880251 16.010506
v 0.050077 4.889806 16.010506
v -1.899351 4.889806 16.010506
v -1.899351 4.889806 16.010506
v 0.050077 4.889806 16.010506
v 2.064474 4.880251 16.010506
v 0.050077 4.889806 16.010506
v 0.050077 4.889806 16.010506
v 0.050077 4.889806 16.010506
v -1.899351 4.889806 16.010506
v 2.064474 4.880251 16.010506
v -12.174351 2.999316 16.000000
v -11.949923 2.999316 16.010506
v -12.174351 2.999316 14.000000
v -11.949923 2.999316 14.010506
v -12.174351 2.999316 0.000000
v -12.174351 2.999316 2.000000
v -11.949923 2.999316 0.010506
v -11.949923 2.999316 2.010505
v -11.949923 2.999316 14.010506
v -11.949923 2.999316 16.010506
v -10.148881 3.676516 14.010506
v -10.148881 3.676516 16.010506
v -1.899351 4.889806 14.010506
v -1.899351 4.889806 16.010506
v 0.050077 4.889806 14.010506
v 0.050077 4.889806 16.010506
v 2.064474 4.880251 14.010506
v 2.064474 4.880251 16.010506
v 10.249036 3.676516 14.010506
v 10.249036 3.676516 16.010506
v 12.050077 3.019833 14.010506
v 12.050077 3.019833 16.010506
v -11.949923 2.999316 0.010506
v -11.949923 2.999316 2.010505
v -10.148881 3.676516 0.010506
v -10.148881 3.676516 2.010505
v -1.899351 4.889806 0.010506
v -1.899351 4.889806 2.010505
v 0.050077 4.889806 0.010506
v 0.050077 4.889806 2.010505
v 2.064474 4.880251 0.010506
v 2.064474 4.880251 2.010505
v 10.249036 3.676516 0.010506
v 10.249036 3.676516 2.010505
v 12.050077 3.019833 0.010506
v 12.050077 3.019833 2.010505
v 12.050077 3.019833 14.010506
v 12.050077 3.019833 16.010506
v 12.174351 3.019833 14.010506
v 12.174351 3.019833 16.010506
v 12.050077 3.019833 0.010506
v 12.050077 3.019833 2.010505
v 12.174351 3.019833 0.010506
v 12.174351 3.019833 2.010505
vn -0.0000 -0.0000 1.0000
vn -0.0000 -0.0000 -1.0000
vn -0.0930 0.0137 0.9956
vn 0.3285 -0.1963 -0.9239
vn 0.3528 -0.1481 -0.9239
vn -0.3528 0.1481 -0.9239
vn -0.0698 0.0103 0.9975
vn 0.2820 -0.2587 -0.9239
vn -0.0954 0.0348 0.9948
vn 0.3535 -0.1464 -0.9239
vn -0.0728 -0.0000 0.9973
vn 0.3711 -0.0934 -0.9239
vn -0.1053 -0.0155 0.9943
vn 0.3824 -0.0126 -0.9239
vn 0.1674 0.0629 0.9839
vn 0.1004 -0.0148 0.9948
vn -0.1634 0.0596 0.9848
vn 0.1464 0.3535 -0.9239
vn -0.1464 -0.3535 -0.9239
vn -0.3285 0.1963 -0.9239
vn 0.1340 -0.0197 0.9908
vn -0.3711 0.0934 -0.9239
vn -0.1404 -0.0206 0.9899
vn 0.0961 0.0141 0.9953
vn 0.0997 0.0375 0.9943
vn 0.0721 0.0106 0.9973
vn -0.0000 1.0000 -0.0000
vn -0.1787 0.9839 -0.0000
vn -0.1790 0.9838 -0.0000
vn -0.2846 0.9586 -0.0000
vn -0.2846 0.9587 -0.0000
vn 1.0000 -0.0000 -0.0000
vn -1.0000 -0.0000 -0.0000
vn -0.0486 0.9988 -0.0000
vn 0.0023 1.0000 -0.0000
vn 0.0025 1.0000 -0.0000
vn 0.0024 1.0000 -0.0000
vn 0.0517 0.9987 -0.0000
vn 0.2782 0.9605 -0.0000
vn 0.1741 0.9847 -0.0000
vn 0.1738 0.9848 -0.0000
vn -0.1822 -0.0000 0.9833
vn -0.3734 0.1546 -0.9147
vn 0.0664 0.0249 0.9975
vn -0.0000 -0.0000 -0.0000
vn 1.0000 0.0001 -0.0000
vn 0.1739 -0.0000 0.9848
vn -0.9395 0.3426 -0.0000
vn -0.9395 0.3425 -0.0000
vn -1.0000 0.0048 -0.0000
vn 1.0000 -0.0046 -0.0000
vn 1.0000 -0.0048 -0.0000
vn -1.0000 0.0046 -0.0000
vn -0.0485 -0.0000 0.9988
vn -0.1455 0.9894 -0.0000
vn 0.1455 0.9894 -0.0000
vn -0.0000 0.6963 0.7177
vn -0.1789 0.9839 -0.0000
vn -0.2489 0.6619 0.7071
vn -0.1788 0.9839 -0.0002
vn -0.2845 0.9587 -0.0000
vn -0.2502 0.9682 -0.0000
vn -0.0729 0.9973 -0.0000
vn 0.0518 0.9987 -0.0000
vn 0.0753 0.9972 -0.0000
vn 0.2781 0.9605 -0.0000
vn 0.2453 0.9694 -0.0000
vn 0.1739 0.9848 -0.0000
vn 0.2422 0.6643 0.7071
vn -0.0000 0.7071 0.7071
vn 0.1740 0.9848 -0.0002
vt 2.025665 1.365608
vt -1.025665 1.362999
vt 2.029715 0.854359
vt -1.027124 0.854359
vt 0.746881 0.117217
vt 0.241261 0.118436
vt 2.031065 0.358365
vt 1.799179 0.271983
vt 1.166651 0.917983
vt -0.166347 0.721934
vt 1.166651 0.288849
vt -0.166347 0.092800
vt 1.166651 0.721934
vt -0.166347 0.917983
vt 1.166651 0.092800
vt -0.166347 0.288849
vt 0.742026 0.613645
vt 0.251877 0.612464
vt 1.762127 0.463615
vt -0.760190 0.463615
vt 1.984836 0.379875
vt -0.982899 0.382412
vt 1.166651 0.724431
vt -0.166347 0.920480
vt 1.166651 0.090303
vt -0.166347 0.286352
vt 1.166651 0.920480
vt -0.166347 0.724431
vt 1.166651 0.286352
vt -0.166347 0.090303
vt -0.802750 0.271983
vt -1.027610 0.355748
vt 0.500968 0.649098
vt 0.236613 0.292603
vt -0.831120 0.292603
vt 0.244634 0.292603
vt 0.499380 0.292603
vt -0.790411 0.292603
vt -1.013340 0.292603
vt 0.745911 0.292603
vt 1.789171 0.292603
vt 2.019066 0.292603
vt 0.236613 0.545589
vt -0.831120 0.545589
vt -1.061089 0.545589
vt 0.357544 1.000000
vt 0.033084 1.000000
vt 1.000893 2.088532
vt -0.000894 2.088532
vt 0.033084 0.000000
vt 0.357544 0.000000
vt 0.244634 0.545589
vt -0.790411 0.545589
vt -0.000894 -0.002614
vt 1.000893 -0.002614
vt -0.000894 2.088532
vt 0.753722 0.292603
vt 1.829930 0.292603
vt 1.789171 0.545589
vt 0.745911 0.545589
vt -0.000894 -0.002614
vt 2.067085 0.545589
vt 1.829930 0.545589
vt 0.753722 0.545589
vt 0.376629 1.000000
vt 1.000000 0.811395
vt 0.504223 0.000000
vt 0.504223 0.999125
vt 0.495778 0.000875
vt 0.495778 1.000000
vt 0.208104 1.000000
vt -0.006019 1.000000
vt 0.208104 0.000000
vt -0.006019 0.000000
vt 0.376629 0.000000
vt 0.010007 0.000000
vt 0.010007 1.000000
vt 0.503025 0.000000
vt 0.503025 1.000000
vt 0.496972 0.000000
vt 0.496972 1.000000
vt 0.474774 0.545589
vt 0.525227 0.545589
vt 2.067085 0.292603
vt 0.489953 0.545589
vt 0.510048 0.545589
vt 0.495628 0.292603
vt 0.504373 0.292603
vt -1.013340 0.545589
vt -1.061089 0.292603
vt 0.499380 0.545589
vt 0.499405 0.292603
vt 2.019066 0.545589
vt 0.474774 0.292603
vt 0.525227 0.292603
vt 0.499405 0.545589
vt 0.504373 0.545589
vt 0.495628 0.545589
vt 0.489953 0.292603
vt 0.510048 0.292603
s 0
usemtl material5
f 1/1/1 2/2/1 3/3/1
f 4/4/1 3/3/1 2/2/1
f 3/3/1 4/4/1 5/5/1
f 6/6/1 5/5/1 4/4/1
f 7/7/1 3/3/1 8/8/1
f 81/5/1 8/8/1 3/3/1
f 9/9/1 10/10/1 11/11/1
f 12/12/1 11/11/1 10/10/1
f 13/13/2 14/14/2 15/15/2
f 16/16/2 15/15/2 14/14/2
f 17/17/2 18/18/2 19/19/2
f 20/20/2 19/19/2 18/18/2
f 113/19/2 116/20/2 21/21/2
f 22/22/2 21/21/2 116/20/2
f 23/23/1 24/24/1 25/25/1
f 26/26/1 25/25/1 24/24/1
f 27/27/2 28/28/2 29/29/2
f 30/30/2 29/29/2 28/28/2
f 85/6/1 4/4/1 31/31/1
f 32/32/1 31/31/1 4/4/1
f 110/18/2 107/17/2 33/33/2
s 1
f 129/27/1 34/34/3 131/28/4
f 35/35/1 131/28/4 34/34/3
f 36/36/1 111/18/5 37/37/6
f 140/33/1 37/37/6 111/18/5
f 38/38/1 117/20/4 36/36/7
f 112/18/1 36/36/7 117/20/4
f 39/39/1 120/22/8 38/38/9
f 118/20/1 38/38/9 120/22/8
f 37/37/1 141/33/10 40/40/11
f 108/17/1 40/40/11 141/33/10
f 40/40/1 109/17/12 41/41/13
f 114/19/1 41/41/13 109/17/12
f 41/41/1 115/19/14 42/42/15
f 119/21/1 42/42/15 115/19/14
f 43/43/1 86/6/1 44/44/16
f 137/31/1 44/44/16 86/6/1
f 44/44/1 138/31/1 45/45/17
f 139/32/1 45/45/17 138/31/1
f 46/46/1 130/27/18 47/47/19
f 133/29/1 47/47/19 130/27/18
f 48/48/1 134/29/20 49/49/4
f 135/30/1 49/49/4 134/29/20
f 50/50/1 136/30/19 51/51/18
f 132/28/1 51/51/18 136/30/19
f 52/50/1 121/23/1 53/51/18
f 125/25/1 53/51/18 121/23/1
f 54/52/1 126/25/1 55/53/21
f 127/26/1 55/53/21 126/25/1
f 56/46/1 128/26/1 57/47/19
f 123/24/1 57/47/19 128/26/1
f 58/54/1 124/24/1 59/55/20
f 122/23/1 59/55/20 124/24/1
f 60/46/1 99/13/18 61/47/19
f 103/15/1 61/47/19 99/13/18
f 62/48/1 104/15/22 63/56/12
f 105/16/1 63/56/12 104/15/22
f 64/50/1 106/16/19 65/51/18
f 101/14/1 65/51/18 106/16/19
f 66/57/1 102/14/12 67/58/23
f 100/13/1 67/58/23 102/14/12
f 68/50/1 91/9/1 69/51/18
f 95/11/1 69/51/18 91/9/1
f 70/59/1 96/11/1 71/60/24
f 97/12/1 71/60/24 96/11/1
f 72/46/1 98/12/1 73/47/19
f 93/10/1 73/47/19 98/12/1
f 74/61/1 94/10/1 75/55/22
f 92/9/1 75/55/22 94/10/1
f 76/62/1 88/7/1 77/63/25
f 89/8/1 77/63/25 88/7/1
f 77/63/1 90/8/1 78/64/26
f 82/5/1 78/64/26 90/8/1
s 0
f 79/65/1 83/5/1 80/66/1
f 87/6/1 142/66/1 84/5/1
s 1
usemtl material6
f 143/67/27 144/68/27 145/69/28
f 146/70/28 145/69/28 144/68/27
f 147/71/29 148/72/30 149/73/29
f 150/74/31 149/73/29 148/72/30
s 0
f 151/46/32 152/47/32 153/51/32
f 154/50/32 153/51/32 152/47/32
f 155/47/33 156/50/33 157/46/33
f 158/51/33 157/46/33 156/50/33
s 1
f 159/75/34 160/65/34 161/76/35
f 162/77/35 161/76/35 160/65/34
f 238/76/36 242/77/37 163/75/38
f 164/65/38 163/75/38 242/77/37
s 0
f 165/50/32 166/51/32 167/47/32
f 168/46/32 167/47/32 166/51/32
f 169/51/33 170/46/33 171/50/33
f 172/47/33 171/50/33 170/46/33
s 1
f 173/74/39 174/73/40 175/72/39
f 176/71/40 175/72/39 174/73/40
f 177/78/41 178/79/41 179/80/27
f 180/81/27 179/80/27 178/79/41
f 213/69/1 181/82/42 211/67/43
f 182/83/1 211/67/43 181/82/42
f 217/71/1 183/84/15 219/72/44
f 184/58/1 219/72/44 183/84/15
f 158/51/45 235/65/45 231/46/45
f 233/75/45 232/46/45 236/65/45
f 185/85/1 267/78/32 186/86/46
f 273/80/1 275/86/33 268/78/32
f 187/87/1 274/81/10 188/88/47
f 270/79/1 188/88/47 274/81/10
f 258/73/45 271/79/45 264/71/45
f 269/78/45 265/71/45 272/79/45
f 252/51/45 256/74/45 253/46/45
f 261/72/45 253/46/45 256/74/45
f 189/53/1 262/72/48 190/89/48
f 266/71/1 276/89/48 263/72/49
f 191/90/1 259/73/48 192/35/49
f 257/74/1 277/35/48 260/73/48
f 193/49/45 254/50/45 194/54/45
f 172/47/45 278/54/45 255/50/45
f 195/55/45 250/50/45 196/48/45
f 251/47/45 196/48/45 250/50/45
f 247/65/45 168/46/45 245/75/45
f 166/51/45 245/75/45 168/46/45
f 197/91/1 239/76/50 198/52/51
f 246/75/1 279/52/52 240/76/53
f 199/60/1 234/75/54 197/91/10
f 241/76/1 197/91/10 234/75/54
f 200/34/1 248/65/52 201/92/53
f 243/77/1 280/92/50 249/65/51
f 281/92/1 244/77/10 202/57/54
f 237/65/1 202/57/54 244/77/10
f 203/56/45 229/50/45 204/61/45
f 155/47/45 282/61/45 230/50/45
f 220/72/45 225/46/45 223/74/45
f 227/51/45 223/74/45 225/46/45
f 205/55/45 228/50/45 206/48/45
f 226/47/45 206/48/45 228/50/45
f 215/70/45 218/71/45 214/69/45
f 221/73/45 214/69/45 218/71/45
f 207/93/1 222/73/15 208/59/44
f 224/74/1 208/59/44 222/73/15
f 209/94/1 216/70/42 210/95/43
f 212/68/1 210/95/43 216/70/42
s 0
usemtl material7
f 283/55/55 284/48/55 285/61/55
f 286/56/55 285/61/55 284/48/55
f 287/55/56 288/48/56 289/54/56
f 290/49/56 289/54/56 288/48/56
f 291/66/1 292/77/1 293/65/1
s 1
f 294/64/1 300/65/1 295/96/10
f 297/77/1 295/96/10 300/65/1
f 295/96/1 298/77/1 296/43/51
f 291/66/1 301/43/52 299/77/1
usemtl material8
f 302/83/27 303/82/57 304/95/27
f 305/94/58 304/95/27 303/82/57
f 306/95/27 307/83/27 308/94/58
f 309/82/57 308/94/58 307/83/27
f 310/84/59 311/62/60 312/58/61
f 313/63/62 312/58/61 311/62/60
f 312/58/61 313/63/62 314/57/34
f 315/64/63 314/57/34 313/63/62
f 314/57/34 315/64/63 316/92/37
f 317/96/37 316/92/37 315/64/63
f 316/92/37 317/96/37 318/34/64
f 319/43/65 318/34/64 317/96/37
f 318/34/64 319/43/65 320/35/66
f 321/44/67 320/35/66 319/43/65
f 320/35/66 321/44/67 322/90/68
f 323/45/69 322/90/68 321/44/67
f 324/42/59 325/93/60 326/41/62
f 327/59/31 326/41/62 325/93/60
f 326/41/62 327/59/31 328/40/63
f 329/60/34 328/40/63 327/59/31
f 328/40/63 329/60/34 330/37/37
f 331/91/37 330/37/37 329/60/34
f 330/37/37 331/91/37 332/36/65
f 333/52/64 332/36/65 331/91/37
f 332/36/65 333/52/64 334/38/67
f 335/53/66 334/38/67 333/52/64
f 334/38/67 335/53/66 336/39/68
f 337/89/69 336/39/68 335/53/66
f 338/88/70 339/97/71 340/87/27
f 341/98/27 340/87/27 339/97/71
f 342/99/70 343/85/71 344/100/27
f 345/86/27 344/100/27 343/85/71
f 310/84/59 305/94/58 311/62/60
f 303/82/57 311/62/60 305/94/58
f 342/99/70 336/39/68 343/85/71
f 337/89/69 343/85/71 336/39/68
f 323/45/69 339/97/71 322/90/68
f 338/88/70 322/90/68 339/97/71
f 309/82/57 325/93/60 308/94/58
f 324/42/59 308/94/58 325/93/60
