# Source-author permission confirmed by the user on 2026-07-25.
# Normalized to metres and Z-up; source UVs/material assignments retained.
# Blender 4.2.0
# www.blender.org
mtllib rv_mod_col_overlook.mtl
o rv_mod_col_overlook
v 6.999982 4.074503 7.003149
v 6.999982 -10.925467 7.003149
v 6.999981 0.074507 7.002029
v 6.999980 -3.925493 7.002033
v 5.501308 0.077121 7.002788
v 2.101229 -2.393032 7.002428
v -0.000000 -10.925493 7.001134
v -2.101182 -2.392784 7.002247
v -5.501445 0.077328 7.002067
v -7.000104 3.074486 7.001706
v -7.000104 -10.925472 7.001706
v -7.000104 4.074508 7.001706
v -7.020749 -7.925493 7.002029
v -7.020749 -3.925493 7.003495
v 7.999982 4.074485 8.003181
v 7.999982 0.967505 6.431554
v 7.999982 2.104046 5.168375
v 7.999982 4.074483 8.972442
v 7.999982 -0.818491 6.421245
v 7.999982 -2.925493 0.002029
v 7.999982 0.074507 6.426399
v 7.999982 -1.955032 5.158065
v 7.999982 3.074507 0.000000
v 7.999982 4.074490 0.002923
v 7.999982 -3.925493 0.003684
v 7.999524 -11.600053 8.973008
v 7.999522 3.747679 8.972553
v 7.999522 3.747679 8.972553
v 7.999157 3.592813 8.318222
v 7.999130 -11.428052 8.318769
v 7.994817 0.404622 8.973698
v 7.994808 -8.249357 8.973957
v 7.993978 0.566719 8.319154
v 7.993974 -8.415414 8.319479
v 7.993893 -0.251795 8.973923
v 7.993880 -7.590308 8.974144
v 7.992299 -0.414269 8.319456
v 7.992294 -7.433915 8.319711
v 7.989660 0.074491 8.004837
v 7.989178 -3.601789 8.975070
v 7.989175 -4.247019 8.975090
v 7.987137 -3.429672 8.320385
v 7.987123 -4.412951 8.320423
v 7.985118 -3.925493 8.005511
v 7.673484 -11.925472 8.972953
v 7.673359 4.074483 8.972442
v 7.673193 -11.599272 8.972980
v 7.673193 -11.599272 8.972980
v 7.673193 -11.599272 8.972980
v 7.672899 3.747679 8.972553
v 7.672899 3.747679 8.972553
v 7.672534 3.592813 8.318222
v 7.672507 -11.428052 8.318769
v 7.672507 -11.428052 8.318769
v 7.668194 0.404622 8.973698
v 7.668185 -8.249357 8.973957
v 7.667355 0.566719 8.319154
v 7.667351 -8.415414 8.319479
v 7.667270 -0.251795 8.973923
v 7.667257 -7.590308 8.974144
v 7.665676 -0.414269 8.319456
v 7.665671 -7.433915 8.319711
v 7.662555 -3.601789 8.975070
v 7.662552 -4.247019 8.975090
v 7.660514 -3.429672 8.320385
v 7.660500 -4.412951 8.320423
v 7.510924 -11.598493 8.318699
v 7.510924 -11.598493 8.318699
v 7.510924 -11.925473 8.318699
v 6.999982 4.074503 7.003149
v 6.999982 2.104046 5.168375
v 6.999982 -0.818491 6.421245
v 6.999982 0.967505 6.431554
v 6.999982 -1.955032 5.158065
v 6.999982 3.074488 0.000683
v 6.999982 4.074511 0.000683
v 6.999982 -2.925493 0.002029
v 6.999982 -3.925493 0.003177
v 6.999982 0.074507 6.426399
v 6.999981 0.074507 7.002029
v 6.999980 -3.925493 7.002033
v 4.490920 -11.598490 8.318989
v 4.490920 -11.925471 8.318989
v 4.344807 -11.598488 8.973328
v 4.344807 -11.925469 8.973328
v 3.666155 -11.598487 8.973404
v 3.666155 -11.925468 8.973404
v 3.514668 -11.925470 8.319083
v 3.514668 -11.598489 8.319083
v 0.492297 -11.925467 8.319373
v 0.492297 -11.598486 8.319373
v 0.339467 -11.598485 8.973779
v 0.339467 -11.925467 8.973779
v -0.325427 -11.598485 8.973915
v -0.325427 -11.925467 8.973915
v -0.488288 -11.925468 8.319593
v -0.488288 -11.598487 8.319593
v -3.507148 -11.598492 8.320661
v -3.507148 -11.925473 8.320661
v -3.659122 -11.598489 8.974921
v -3.659122 -11.925470 8.974921
v -4.337799 -11.598490 8.975126
v -4.337799 -11.925471 8.975126
v -4.486248 -11.598493 8.321007
v -4.486248 -11.925474 8.321007
v -7.000104 -8.818491 6.431554
v -7.000104 -7.032495 6.421245
v -7.000104 -9.955032 5.168375
v -7.000104 -5.895954 5.158065
v -7.000104 -7.925493 6.426399
v -7.000104 -10.925472 7.001706
v -7.000104 -4.925493 0.002029
v -7.000104 -10.925470 0.001511
v -7.000104 -3.925493 0.002582
v -7.020749 -3.925493 7.003495
v -7.020749 -7.925493 7.002029
v -7.505625 -11.598497 8.322075
v -7.505625 -11.598497 8.322075
v -7.505625 -11.925479 8.322075
v -7.659113 -11.598123 8.976220
v -7.659113 -11.598123 8.976220
v -7.659113 -11.598123 8.976220
v -7.659113 -11.925476 8.976180
v -7.659579 -11.441359 8.322397
v -7.659579 3.583781 8.322399
v -7.659579 -11.441359 8.322397
v -7.659580 3.740625 8.976314
v -7.659580 3.740625 8.976314
v -7.659580 4.074491 8.976232
v -7.659581 0.557180 8.323289
v -7.659581 -8.416561 8.323287
v -7.659581 0.401316 8.977128
v -7.659581 -7.443445 8.323584
v -7.659581 -7.599581 8.977287
v -7.659581 -8.256941 8.977127
v -7.659581 -0.410250 8.323584
v -7.659581 -0.259881 8.977289
v -7.659582 -4.257839 8.978103
v -7.659582 -4.415732 8.324473
v -7.659582 -3.442951 8.324476
v -7.659582 -3.596458 8.978103
v -8.000100 -11.925482 8.007542
v -8.000101 -11.441359 8.322397
v -8.000101 3.740625 8.976314
v -8.000101 -7.925479 8.010630
v -8.000101 -11.597751 8.976312
v -8.000101 3.740625 8.976314
v -8.000101 4.074491 8.976232
v -8.000101 3.583781 8.322399
v -8.000102 -8.416561 8.323287
v -8.000102 0.557180 8.323289
v -8.000103 0.401316 8.977128
v -8.000103 -0.410250 8.323584
v -8.000103 -7.443445 8.323584
v -8.000103 -7.599581 8.977287
v -8.000103 -0.259881 8.977289
v -8.000103 -8.256941 8.977127
v -8.000104 -3.925493 8.010118
v -8.000104 -9.955032 5.168375
v -8.000104 -7.032495 6.421245
v -8.000104 -11.925476 0.002923
v -8.000104 -10.925493 0.000000
v -8.000104 -7.925493 6.426399
v -8.000104 -3.596458 8.978103
v -8.000104 -3.442951 8.324476
v -8.000104 -4.415732 8.324473
v -8.000104 -8.818491 6.431554
v -8.000104 -5.895954 5.158065
v -8.000104 -4.257839 8.978103
v -8.000104 -4.925493 0.002029
v -8.000104 -3.925493 0.000683
v 7.999982 0.074507 6.426399
v 7.989660 0.074491 8.004837
v 6.999982 0.074507 6.426399
v 6.999981 0.074507 7.002029
v -7.000104 -7.925493 6.426399
v -7.000104 -7.925493 6.426399
v -7.020749 -7.925493 7.002029
v -8.000101 -7.925479 8.010630
v -8.000104 -7.925493 6.426399
v -8.000104 -7.925493 6.426399
v 8.000000 4.074507 9.002029
v 8.000000 4.074507 9.002029
v 8.000000 4.074507 8.002029
v 8.000000 4.074507 8.002029
v 6.472136 -0.627775 9.002029
v 6.472136 8.776789 9.002029
v 6.472136 8.776789 8.002029
v 6.472136 -0.627775 8.002029
v 2.472136 -3.533945 8.002029
v 2.472136 11.682959 9.002029
v 2.472136 -3.533945 9.002029
v 2.472136 -3.533945 8.002029
v 2.472136 11.682959 8.002029
v 2.472136 11.682959 9.002029
v 2.472136 -3.533945 9.002029
v 2.472136 11.682959 8.002029
v -2.472136 11.682959 9.002029
v -2.472136 -3.533945 9.002029
v -2.472136 11.682959 8.002029
v -2.472136 -3.533945 8.002029
v -6.472136 8.776789 9.002029
v -6.472136 -0.627775 9.002029
v -6.472136 -0.627775 9.002029
v -6.472136 -0.627775 8.002029
v -6.472136 8.776789 9.002029
v -6.472136 8.776789 8.002029
v -6.472136 8.776789 8.002029
v -6.472136 -0.627775 8.002029
v -8.000000 4.074507 9.002029
v -8.000000 4.074507 8.002029
v 7.999982 -11.925475 8.003807
v 7.999982 4.074485 8.003181
v 7.999982 4.074484 8.318074
v 7.999982 4.074483 8.972442
v 7.999982 -11.925474 8.318651
v 7.999982 -11.925472 8.972917
v 7.999982 -11.925472 8.972917
v 7.999982 -11.925475 8.003807
v 7.999982 -11.925474 8.318651
v 7.999524 -11.600053 8.973008
v 7.999522 3.747679 8.972553
v 7.999157 3.592813 8.318222
v 7.999130 -11.428052 8.318769
v 7.994817 0.404622 8.973698
v 7.994808 -8.249357 8.973957
v 7.993978 0.566719 8.319154
v 7.993974 -8.415414 8.319479
v 7.993893 -0.251795 8.973923
v 7.993880 -7.590308 8.974144
v 7.992299 -0.414269 8.319456
v 7.992294 -7.433915 8.319711
v 7.989178 -3.601789 8.975070
v 7.989175 -4.247019 8.975090
v 7.988722 -3.925493 8.975181
v 7.987137 -3.429672 8.320385
v 7.987123 -4.412951 8.320423
v 7.986289 -3.925493 8.320538
v 7.985118 -3.925493 8.005511
v 7.673484 -11.925472 8.972953
v 7.668194 0.404622 8.973698
v 7.668185 -8.249357 8.973957
v 7.667355 0.566719 8.319154
v 7.667351 -8.415414 8.319479
v 7.667270 -0.251795 8.973923
v 7.667257 -7.590308 8.974144
v 7.665676 -0.414269 8.319456
v 7.665671 -7.433915 8.319711
v 7.662555 -3.601789 8.975070
v 7.662552 -4.247019 8.975090
v 7.660514 -3.429672 8.320385
v 7.660500 -4.412951 8.320423
v 7.510924 -11.925473 8.318699
v 4.490920 -11.925471 8.318989
v 4.490920 -11.598490 8.318989
v 4.344807 -11.598488 8.973328
v 4.344807 -11.925469 8.973328
v 3.666155 -11.598487 8.973404
v 3.666155 -11.925468 8.973404
v 3.514668 -11.598489 8.319083
v 3.514668 -11.925470 8.319083
v 0.492297 -11.598486 8.319373
v 0.492297 -11.925467 8.319373
v 0.339467 -11.925467 8.973779
v 0.339467 -11.598485 8.973779
v -0.000060 -11.925468 8.004514
v -0.000060 -11.925468 8.004514
v -0.000060 -11.925467 8.319421
v -0.000060 -11.925467 8.319421
v -0.000060 -11.925466 8.973817
v -0.000060 -11.925466 8.973817
v -0.325427 -11.925467 8.973915
v -0.325427 -11.598485 8.973915
v -0.488288 -11.925468 8.319593
v -0.488288 -11.598487 8.319593
v -3.507148 -11.598492 8.320661
v -3.507148 -11.925473 8.320661
v -3.659122 -11.925470 8.974921
v -3.659122 -11.598489 8.974921
v -4.337799 -11.925471 8.975126
v -4.337799 -11.598490 8.975126
v -4.486248 -11.925474 8.321007
v -4.486248 -11.598493 8.321007
v -7.505625 -11.925479 8.322075
v -7.659113 -11.925476 8.976180
v -7.659581 0.557180 8.323289
v -7.659581 -8.416561 8.323287
v -7.659581 -7.599581 8.977287
v -7.659581 -0.259881 8.977289
v -7.659581 -0.410250 8.323584
v -7.659581 -8.256941 8.977127
v -7.659581 -7.443445 8.323584
v -7.659581 0.401316 8.977128
v -7.659582 -3.442951 8.324476
v -7.659582 -4.415732 8.324473
v -7.659582 -4.257839 8.978103
v -7.659582 -3.596458 8.978103
v -8.000100 -11.925482 8.007542
v -8.000100 4.074496 8.007542
v -8.000100 -11.925482 8.007542
v -8.000101 4.074491 8.976232
v -8.000101 -11.441359 8.322397
v -8.000101 4.074494 8.322249
v -8.000101 3.583781 8.322399
v -8.000101 -11.925476 8.976232
v -8.000101 -11.597751 8.976312
v -8.000101 -11.925480 8.322249
v -8.000101 -11.925476 8.976232
v -8.000101 -11.925480 8.322249
v -8.000101 3.740625 8.976314
v -8.000102 0.557180 8.323289
v -8.000102 -8.416561 8.323287
v -8.000103 0.401316 8.977128
v -8.000103 -7.443445 8.323584
v -8.000103 -7.599581 8.977287
v -8.000103 -0.410250 8.323584
v -8.000103 -8.256941 8.977127
v -8.000103 -0.259881 8.977289
v -8.000104 -3.925493 8.324623
v -8.000104 -4.257839 8.978103
v -8.000104 -3.925493 8.978184
v -8.000104 -3.925493 8.010118
v -8.000104 -3.442951 8.324476
v -8.000104 -3.596458 8.978103
v -8.000104 -4.415732 8.324473
v 7.988722 -3.925493 8.975181
v 7.988722 -3.925493 8.975181
v 7.986289 -3.925493 8.320538
v 7.986289 -3.925493 8.320538
v 7.985118 -3.925493 8.005511
v 7.985118 -3.925493 8.005511
v 7.985118 -3.925493 8.005511
v 7.985118 -3.925493 8.005511
v 7.985118 -3.925493 8.005511
v -8.000104 -3.925493 8.324623
v -8.000104 -3.925493 8.324623
v -8.000104 -3.925493 8.978184
v -8.000104 -3.925493 8.978184
v -8.000104 -3.925493 8.010118
v -8.000104 -3.925493 8.010118
v -8.000104 -3.925493 8.010118
v 7.000000 4.074507 7.990260
v 7.000000 4.074507 7.990260
v 5.560982 4.082492 8.729631
v 5.560982 4.082492 8.729631
v 5.501445 0.077473 7.990260
v 5.501445 0.077473 7.990260
v 5.501445 8.071541 7.990260
v 5.501445 8.071541 7.990260
v 4.497404 0.809136 8.729631
v 4.497404 0.809136 8.729631
v 4.497404 7.355848 8.729631
v 4.497404 7.355848 8.729631
v 2.101365 10.541843 7.990260
v 2.101365 -2.392830 7.990260
v 2.101365 -2.392830 7.990260
v 2.101365 10.541843 7.990260
v 1.712921 9.378894 8.729631
v 1.712921 -1.213909 8.729631
v 1.712921 9.378894 8.729631
v 1.712921 -1.213909 8.729631
v -0.007984 4.082492 9.608996
v -0.007984 4.082492 9.608996
v -0.007984 4.082492 9.608996
v -0.007984 4.082492 9.608996
v -0.007984 4.082492 9.608996
v -1.728889 -1.213909 8.729631
v -1.728889 9.378894 8.729631
v -1.728889 -1.213909 8.729631
v -1.728889 9.378894 8.729631
v -2.101365 -2.392830 7.990260
v -2.101365 -2.392830 7.990260
v -2.101365 10.541843 7.990260
v -2.101365 10.541843 7.990260
v -4.513372 7.355848 8.729631
v -4.513372 7.355848 8.729631
v -4.513372 0.809136 8.729631
v -4.513372 0.809136 8.729631
v -5.501445 8.071541 7.990260
v -5.501445 8.071541 7.990260
v -5.501445 0.077473 7.990260
v -5.501445 0.077473 7.990260
v -5.576950 4.082492 8.729631
v -5.576950 4.082492 8.729631
v -7.000000 4.074507 7.990260
v -7.000000 4.074507 7.990260
v 8.255004 4.074507 9.002029
v 8.255004 4.074507 9.002029
v 8.255004 4.074507 9.274020
v 8.255004 4.074507 9.002029
v 8.255004 4.074507 9.002029
v 8.255004 4.074507 9.274020
v 8.000000 4.074507 9.002029
v 8.000000 4.074507 9.002029
v 8.000000 4.074507 0.002029
v 8.000000 4.074507 8.002029
v 6.678438 -0.777662 9.002029
v 6.678438 -0.777662 9.002029
v 6.678438 8.926676 9.002029
v 6.678438 -0.777662 9.002029
v 6.678438 -0.777662 9.274020
v 6.678438 8.926676 9.002029
v 6.678438 -0.777662 9.002029
v 6.678438 -0.777662 9.274020
v 6.678438 8.926676 9.002029
v 6.678438 8.926676 9.274020
v 6.678438 8.926676 9.002029
v 6.678438 8.926676 9.274020
v 6.472136 8.776789 8.002029
v 6.472136 8.776789 0.002029
v 6.472136 8.776789 9.002029
v 6.472136 -0.627775 9.002029
v 6.472136 -0.627775 9.002029
v 6.472136 8.776789 9.002029
v 2.550936 -3.776468 9.002029
v 2.550936 -3.776468 9.002029
v 2.550936 11.925482 9.002029
v 2.550936 11.925482 9.274020
v 2.550936 -3.776468 9.002029
v 2.550936 -3.776468 9.274020
v 2.550936 11.925482 9.002029
v 2.550936 -3.776468 9.002029
v 2.550936 11.925482 9.002029
v 2.550936 -3.776468 9.274020
v 2.550936 11.925482 9.002029
v 2.550936 11.925482 9.274020
v 2.472136 11.682959 9.002029
v 2.472136 11.682959 8.002029
v 2.472136 -3.533945 9.002029
v 2.472136 11.682959 9.002029
v 2.472136 11.682959 0.002029
v 2.472136 11.682959 8.002029
v 2.472136 -3.533945 9.002029
v 2.472136 11.682959 0.002029
v -2.472136 11.682959 8.002029
v -2.472136 -3.533945 9.002029
v -2.472136 11.682959 0.002029
v -2.472136 11.682959 9.002029
v -2.472136 11.682959 8.002029
v -2.472136 11.682959 9.002029
v -2.472136 11.682959 0.002029
v -2.472136 -3.533945 9.002029
v -2.550936 -3.776468 9.274020
v -2.550936 11.925482 9.002029
v -2.550936 11.925482 9.002029
v -2.550936 -3.776468 9.274020
v -2.550936 -3.776468 9.002029
v -2.550936 11.925482 9.274020
v -2.550936 -3.776468 9.002029
v -2.550936 11.925482 9.002029
v -2.550936 -3.776468 9.002029
v -2.550936 11.925482 9.274020
v -2.550936 -3.776468 9.002029
v -2.550936 11.925482 9.002029
v -6.472136 8.776789 8.002029
v -6.472136 -0.627775 9.002029
v -6.472136 8.776789 9.002029
v -6.472136 8.776789 9.002029
v -6.472136 8.776789 0.002029
v -6.472136 -0.627775 9.002029
v -6.678438 -0.777662 9.002029
v -6.678438 -0.777662 9.002029
v -6.678438 8.926676 9.002029
v -6.678438 -0.777662 9.002029
v -6.678438 8.926676 9.002029
v -6.678438 8.926676 9.274020
v -6.678438 8.926676 9.002029
v -6.678438 8.926676 9.274020
v -6.678438 -0.777662 9.274020
v -6.678438 -0.777662 9.274020
v -6.678438 8.926676 9.002029
v -6.678438 -0.777662 9.002029
v -8.000000 4.074507 9.002029
v -8.000000 4.074507 8.002029
v -8.000000 4.074507 9.002029
v -8.000000 4.074507 0.002029
v -8.255004 4.074507 9.002029
v -8.255004 4.074507 9.002029
v -8.255004 4.074507 9.002029
v -8.255004 4.074507 9.274020
v -8.255004 4.074507 9.274020
v -8.255004 4.074507 9.002029
v 7.999982 -0.818491 6.421245
v 7.999982 -11.925475 8.003807
v 7.999982 -11.925476 0.002923
v 7.999982 -1.955032 5.158065
v 7.999982 0.074507 6.426399
v 7.999982 3.074507 0.000000
v 7.999982 2.104046 5.168375
v 7.999982 2.104046 5.168375
v 7.999982 0.967505 6.431554
v 7.999982 -1.955032 5.158065
v 7.999982 -3.925493 0.003684
v 7.999982 -2.925493 0.002029
v 7.999982 -11.925475 8.003807
v 7.999982 -11.925476 0.002923
v 7.985118 -3.925493 8.005511
v 7.672534 3.592813 8.318222
v 7.672534 3.592813 8.001261
v 7.672507 -11.428052 8.001808
v 7.672507 -11.428052 8.001808
v 7.672507 -11.428052 8.318769
v 7.672507 -11.428052 8.318769
v 7.510924 -11.598493 8.001738
v 7.510924 -11.598493 8.318699
v 7.510924 -11.598493 8.318699
v 7.510924 -11.598493 8.001738
v 6.999982 -2.925493 0.002029
v 6.999982 -0.818491 6.421245
v 6.999982 0.967505 6.431554
v 6.999982 2.104046 5.168375
v 6.999982 0.074507 6.426399
v 6.999982 -1.955032 5.158065
v 6.999982 2.104046 5.168375
v 6.999982 3.074488 0.000683
v 6.999982 -1.955032 5.158065
v -0.000060 -11.925468 8.004514
v -0.000060 -11.925468 8.004514
v -0.000061 -11.925467 0.002973
v -0.000061 -11.925467 0.002973
v -7.000104 -5.895954 5.158065
v -7.000104 -9.955032 5.168375
v -7.000104 -9.955032 5.168375
v -7.000104 -8.818491 6.431554
v -7.000104 -10.925470 0.001511
v -7.000104 -5.895954 5.158065
v -7.000104 -7.032495 6.421245
v -7.000104 -7.925493 6.426399
v -7.000104 -4.925493 0.002029
v -7.505625 -11.598497 8.005115
v -7.505625 -11.598497 8.322075
v -7.505625 -11.598497 8.005115
v -7.505625 -11.598497 8.322075
v -7.659579 3.583781 8.005439
v -7.659579 -11.441359 8.322397
v -7.659579 3.583781 8.322399
v -7.659579 -11.441359 8.322397
v -7.659579 -11.441359 8.005437
v -7.659579 -11.441359 8.005437
v -8.000100 -11.925482 8.007542
v -8.000100 4.074496 8.007542
v -8.000104 -7.925493 6.426399
v -8.000104 -3.925493 0.000683
v -8.000104 -11.925476 0.002923
v -8.000104 -8.818491 6.431554
v -8.000104 -4.925493 0.002029
v -8.000104 -5.895954 5.158065
v -8.000104 -9.955032 5.168375
v -8.000104 -10.925493 0.000000
v -8.000104 -3.925493 8.010118
v -8.000104 -9.955032 5.168375
v -8.000104 4.074490 0.002923
v -8.000104 -5.895954 5.158065
v -8.000104 -7.032495 6.421245
v 7.384034 4.074507 9.461806
v 7.384034 4.074507 9.461806
v 5.973809 8.414733 9.461806
v 5.973809 -0.265719 9.461806
v 5.973809 -0.265719 9.461806
v 5.973809 8.414733 9.461806
v 5.558380 4.074507 10.755589
v 5.558380 4.074507 10.755589
v 4.496824 7.341640 10.755589
v 4.496824 0.807373 10.755589
v 4.496824 0.807373 10.755589
v 4.496824 7.341640 10.755589
v 2.281792 11.097140 9.461806
v 2.281792 -2.948127 9.461806
v 2.281792 11.097140 9.461806
v 2.281792 -2.948127 9.461806
v 1.717634 -1.211827 10.755589
v 1.717634 9.360840 10.755589
v 1.717634 -1.211827 10.755589
v 1.717634 9.360840 10.755589
v 0.000000 4.074507 11.709382
v -1.717634 9.360840 10.755589
v -1.717634 -1.211827 10.755589
v -1.717634 9.360840 10.755589
v -1.717634 -1.211827 10.755589
v -2.281792 -2.948127 9.461806
v -2.281792 -2.948127 9.461806
v -2.281792 11.097140 9.461806
v -2.281792 11.097140 9.461806
v -4.496824 0.807373 10.755589
v -4.496824 7.341640 10.755589
v -4.496824 7.341640 10.755589
v -4.496824 0.807373 10.755589
v -5.558380 4.074507 10.755589
v -5.558380 4.074507 10.755589
v -5.973809 8.414733 9.461806
v -5.973809 8.414733 9.461806
v -5.973809 -0.265719 9.461806
v -5.973809 -0.265719 9.461806
v -7.384034 4.074507 9.461806
v -7.384034 4.074507 9.461806
v 7.000000 4.074507 0.002029
v 7.000000 4.074507 7.002029
v 7.000000 4.074507 7.990260
v 7.000000 4.074507 7.002029
v 5.501445 8.071541 7.002029
v 5.501445 8.071541 7.002029
v 5.501445 8.071541 0.002029
v 5.501445 0.077473 7.002029
v 5.501445 0.077473 7.990260
v 5.501445 8.071541 7.990260
v 2.101365 -2.392830 7.990260
v 2.101365 -2.392830 7.002029
v 2.101365 10.541843 7.002029
v 2.101365 10.541843 7.990260
v 2.101365 10.541843 0.002029
v 2.101365 10.541843 7.002029
v 2.101365 10.541843 7.002029
v 2.101365 10.541843 0.002029
v -2.101365 -2.392830 7.002029
v -2.101365 10.541843 7.002029
v -2.101365 10.541843 7.990260
v -2.101365 10.541843 0.002029
v -2.101365 10.541843 7.002029
v -2.101365 10.541843 0.002029
v -2.101365 -2.392830 7.002029
v -2.101365 -2.392830 7.990260
v -2.101365 10.541843 7.002029
v -2.101365 -2.392830 7.990260
v -5.501445 8.071541 7.002029
v -5.501445 8.071541 7.990260
v -5.501445 0.077473 7.990260
v -5.501445 0.077473 7.002029
v -5.501445 8.071541 0.002029
v -5.501445 8.071541 7.002029
v -7.000000 4.074507 7.002029
v -7.000000 4.074507 7.990260
v -7.000000 4.074507 7.002029
v -7.000000 4.074507 0.002029
v -0.000000 -10.925493 7.001134
v -0.000000 -10.925493 0.003022
v -0.000000 -10.925493 7.001134
v -0.000000 -10.925493 0.003022
v 6.999982 -10.925474 0.000683
v 6.999982 -10.925474 0.000683
v -7.000104 -10.925472 7.001706
v -7.000104 -10.925470 0.001511
v 6.999982 -10.925467 7.003149
v 6.999982 -10.925467 7.003149
v -7.000104 -3.925493 0.002582
v -7.020749 -3.925493 7.003495
v 6.999982 -3.925493 0.003177
v 6.999980 -3.925493 7.002033
v -7.000104 3.074484 0.001511
v -7.000104 3.074484 0.001511
v -7.000104 3.074486 7.001706
v -7.000104 3.074486 7.001706
v -7.000104 4.074506 0.001511
v -7.000104 4.074508 7.001706
v 8.255004 4.074507 9.274020
v 8.255004 4.074507 9.274020
v 7.384034 4.074507 9.461806
v 7.384034 4.074507 9.461806
v 6.678438 -0.777662 9.274020
v 6.678438 8.926676 9.274020
v 6.678438 -0.777662 9.274020
v 6.678438 8.926676 9.274020
v 5.973809 -0.265719 9.461806
v 5.973809 -0.265719 9.461806
v 5.973809 8.414733 9.461806
v 5.973809 8.414733 9.461806
v 2.550936 -3.776468 9.274020
v 2.550936 -3.776468 9.274020
v 2.550936 11.925482 9.274020
v 2.550936 11.925482 9.274020
v 2.281792 11.097140 9.461806
v 2.281792 11.097140 9.461806
v 2.281792 -2.948127 9.461806
v 2.281792 -2.948127 9.461806
v -2.281792 11.097140 9.461806
v -2.281792 -2.948127 9.461806
v -2.281792 -2.948127 9.461806
v -2.281792 11.097140 9.461806
v -2.550936 -3.776468 9.274020
v -2.550936 -3.776468 9.274020
v -2.550936 11.925482 9.274020
v -2.550936 11.925482 9.274020
v -5.973809 8.414733 9.461806
v -5.973809 -0.265719 9.461806
v -5.973809 -0.265719 9.461806
v -5.973809 8.414733 9.461806
v -6.678438 -0.777662 9.274020
v -6.678438 -0.777662 9.274020
v -6.678438 8.926676 9.274020
v -6.678438 8.926676 9.274020
v -7.384034 4.074507 9.461806
v -7.384034 4.074507 9.461806
v -8.255004 4.074507 9.274020
v -8.255004 4.074507 9.274020
v 7.999982 -11.925472 8.972917
v 7.999524 -11.600053 8.973008
v 7.999157 3.592813 8.318222
v 7.999130 -11.428052 8.318769
v 7.994817 0.404622 8.973698
v 7.994808 -8.249357 8.973957
v 7.993893 -0.251795 8.973923
v 7.993880 -7.590308 8.974144
v 7.989178 -3.601789 8.975070
v 7.989175 -4.247019 8.975090
v 7.988722 -3.925493 8.975181
v 7.673484 -11.925472 8.972953
v 7.673193 -11.599272 8.972980
v 7.672534 3.592813 8.001261
v 7.672534 3.592813 8.318222
v 7.672507 -11.428052 8.318769
v 7.672507 -11.428052 8.001808
v 7.668194 0.404622 8.973698
v 7.668185 -8.249357 8.973957
v 7.667270 -0.251795 8.973923
v 7.667257 -7.590308 8.974144
v 7.662555 -3.601789 8.975070
v 7.662552 -4.247019 8.975090
v 7.662099 -3.925493 8.975181
v 7.510924 -11.598493 8.001738
v 7.510924 -11.598493 8.318699
v 7.510924 -11.925473 8.318699
v 6.471888 -0.627869 8.002306
v 4.344807 -11.598488 8.973328
v 4.344807 -11.925469 8.973328
v 3.666155 -11.925468 8.973404
v 3.666155 -11.598487 8.973404
v 2.472070 -3.534127 8.003350
v 0.339467 -11.925467 8.973779
v 0.339467 -11.598485 8.973779
v -0.000060 -11.925466 8.973817
v -0.000060 -11.925466 8.973817
v -0.000060 -11.598484 8.973817
v -0.000060 -11.598484 8.973817
v -0.325427 -11.925467 8.973915
v -0.325427 -11.598485 8.973915
v -2.471312 -3.534343 8.003872
v -3.659122 -11.598489 8.974921
v -3.659122 -11.925470 8.974921
v -4.337799 -11.598490 8.975126
v -4.337799 -11.925471 8.975126
v -6.472087 -0.628452 8.004395
v -7.505625 -11.598497 8.005115
v -7.505625 -11.925479 8.322075
v -7.505625 -11.598497 8.322075
v -7.659113 -11.925476 8.976180
v -7.659113 -11.598123 8.976220
v -7.659579 -11.441359 8.322397
v -7.659579 -11.441359 8.005437
v -7.659579 3.583781 8.322399
v -7.659579 3.583781 8.005439
v -7.659581 0.401316 8.977128
v -7.659581 -8.256941 8.977127
v -7.659581 -7.599581 8.977287
v -7.659581 -0.259881 8.977289
v -7.659582 -3.596458 8.978103
v -7.659582 -4.257839 8.978103
v -7.659583 -3.925493 8.978184
v -8.000101 -11.925476 8.976232
v -8.000101 3.583781 8.322399
v -8.000101 -11.441359 8.322397
v -8.000101 -11.597751 8.976312
v -8.000103 -0.259881 8.977289
v -8.000103 -8.256941 8.977127
v -8.000103 -7.599581 8.977287
v -8.000103 0.401316 8.977128
v -8.000104 -4.257839 8.978103
v -8.000104 -3.925493 8.978184
v -8.000104 -3.596458 8.978103
vn -0.0001 0.0002 -1.0000
vn -0.0002 -0.0001 -1.0000
vn -0.0001 0.0001 -1.0000
vn -0.0001 0.0004 -1.0000
vn -0.0001 -0.0000 -1.0000
vn -0.0002 -0.0003 -1.0000
vn 0.0002 0.0001 -1.0000
vn 0.0002 -0.0000 -1.0000
vn 0.0002 -0.0001 -1.0000
vn -0.0000 -0.0002 -1.0000
vn -0.0001 -0.0001 -1.0000
vn -0.0000 0.0003 -1.0000
vn -0.0003 0.0001 -1.0000
vn -0.0005 0.0001 -1.0000
vn 0.0001 0.0001 -1.0000
vn -0.0005 0.0003 -1.0000
vn 0.0003 -0.0002 -1.0000
vn -1.0000 -0.0000 -0.0000
vn -0.0000 -0.9720 0.2348
vn -0.0000 0.9735 0.2286
vn -0.0000 -0.9715 0.2372
vn -0.0000 -0.9745 0.2242
vn -0.0000 0.9726 0.2323
vn -0.0000 0.9727 0.2319
vn -0.0000 0.0002 1.0000
vn -0.0000 -0.9724 0.2332
vn 0.0005 0.9725 0.2329
vn 0.0008 0.9725 0.2330
vn 0.7107 0.6937 0.1168
vn 0.6869 0.6801 0.2562
vn 0.9736 -0.0000 0.2284
vn 0.6867 0.6803 0.2562
vn 0.7027 0.7021 0.1155
vn 1.0000 0.0056 0.0021
vn 1.0000 0.0020 0.0016
vn 1.0000 0.0062 0.0037
vn 0.9999 0.0025 0.0111
vn 0.9998 0.0029 0.0203
vn 0.9995 0.0027 0.0317
vn 0.9995 0.0026 0.0321
vn 0.9999 0.0027 0.0140
vn 1.0000 0.0018 0.0092
vn 1.0000 -0.0000 -0.0000
vn -0.9752 -0.0000 0.2213
vn 0.9741 -0.0000 0.2263
vn -0.9704 -0.0000 0.2415
vn 0.9738 -0.0000 0.2274
vn -0.9742 -0.0000 0.2256
vn 0.9760 -0.0000 0.2179
vn -0.7083 0.6950 0.1231
vn -0.9706 -0.0003 0.2408
vn -0.6879 0.6718 0.2748
vn -0.9705 -0.0009 0.2411
vn -0.0000 0.9671 0.2543
vn -0.0000 -0.9693 0.2457
vn -0.0000 0.9726 0.2324
vn -0.0000 -0.9705 0.2409
vn -0.0000 0.9707 0.2404
vn -0.0000 -0.9693 0.2459
vn -0.7170 0.6855 0.1269
vn -0.6881 0.6716 0.2748
vn 0.0007 0.9673 0.2535
vn 0.0010 0.9673 0.2536
vn -0.0000 -0.9731 0.2303
vn -0.0000 0.0003 1.0000
vn 1.0000 -0.0012 0.0013
vn 1.0000 -0.0037 0.0014
vn 1.0000 -0.0007 -0.0006
vn 1.0000 -0.0036 0.0021
vn 1.0000 -0.0021 0.0050
vn 1.0000 -0.0014 0.0063
vn 1.0000 -0.0015 0.0062
vn 1.0000 -0.0016 0.0062
vn 1.0000 -0.0016 0.0061
vn 1.0000 -0.0006 0.0016
vn 1.0000 -0.0011 0.0027
vn -0.6880 0.6717 0.2747
vn -0.7169 0.6856 0.1269
vn -0.7084 0.6949 0.1231
vn 0.7028 0.7020 0.1155
vn 0.7106 0.6938 0.1169
vn 0.6868 0.6802 0.2561
vn -0.8091 -0.5877 -0.0000
vn -0.9942 0.1075 -0.0000
vn -0.8091 0.5877 -0.0000
vn -0.8089 0.5879 -0.0000
vn -0.3090 0.9511 -0.0000
vn 0.3089 0.9511 -0.0000
vn -0.8089 -0.5879 -0.0000
vn -0.8089 -0.5879 0.0001
vn -0.3090 -0.9511 -0.0000
vn 0.3089 -0.9511 -0.0000
vn 0.3091 -0.9510 -0.0000
vn 0.8090 -0.5878 -0.0000
vn 1.0000 -0.0001 -0.0000
vn 0.9942 0.1075 -0.0000
vn 0.3091 0.9510 -0.0000
vn 0.8090 0.5878 -0.0000
vn 0.9942 0.1078 -0.0000
vn 1.0000 0.0001 -0.0000
vn -0.0000 -1.0000 -0.0000
vn -0.0000 1.0000 -0.0000
vn -1.0000 -0.0000 0.0031
vn -1.0000 0.0017 0.0020
vn -1.0000 0.0014 0.0016
vn -1.0000 -0.0014 0.0016
vn -1.0000 -0.0016 0.0019
vn 1.0000 0.0001 -0.0036
vn 1.0000 0.0017 -0.0037
vn 1.0000 -0.0000 -0.0037
vn 1.0000 -0.0007 -0.0007
vn 1.0000 -0.0017 -0.0037
vn 1.0000 -0.0017 -0.0026
vn 1.0000 -0.0001 -0.0036
vn 1.0000 -0.0015 -0.0037
vn 1.0000 -0.0017 -0.0036
vn 1.0000 0.0016 -0.0019
vn 1.0000 0.0016 -0.0016
vn 1.0000 0.0017 -0.0027
vn 1.0000 -0.0016 -0.0019
vn 1.0000 -0.0017 -0.0025
vn 1.0000 0.0016 -0.0011
vn 1.0000 0.0017 -0.0001
vn 1.0000 0.0017 -0.0000
vn 1.0000 0.0017 -0.0002
vn 1.0000 0.0014 -0.0000
vn 1.0000 -0.0014 -0.0000
vn 1.0000 -0.0017 -0.0002
vn 1.0000 -0.0017 -0.0000
vn 1.0000 -0.0018 -0.0006
vn 1.0000 -0.0017 -0.0013
vn 1.0000 0.0014 -0.0035
vn 1.0000 -0.0000 -0.0036
vn 0.8539 -0.0002 -0.5204
vn 0.6870 -0.5224 -0.5050
vn 0.3244 -0.0003 -0.9459
vn 0.2683 -0.2015 -0.9420
vn 0.0001 -0.0001 -1.0000
vn 0.6864 0.5218 -0.5065
vn 0.8539 -0.0001 -0.5204
vn 0.2671 0.2004 -0.9426
vn 0.3244 -0.0000 -0.9459
vn 0.0001 -0.0000 -1.0000
vn 0.6870 -0.5225 -0.5050
vn 0.2678 -0.8237 -0.4998
vn 0.2681 -0.2017 -0.9420
vn 0.1060 -0.3254 -0.9396
vn 0.2674 0.8223 -0.5023
vn 0.1052 0.3230 -0.9405
vn 0.2670 0.2005 -0.9426
vn 0.1050 0.3231 -0.9405
vn -0.1045 0.3224 -0.9408
vn 0.2673 0.8223 -0.5023
vn -0.2670 0.8220 -0.5031
vn -0.2666 -0.2003 -0.9428
vn -0.3220 -0.0002 -0.9467
vn -0.6860 -0.5219 -0.5070
vn -0.8525 -0.0002 -0.5227
vn -0.0000 -0.0001 -1.0000
vn 0.1057 -0.3255 -0.9396
vn -0.1053 -0.3248 -0.9399
vn -0.2673 -0.8234 -0.5006
vn -0.1055 -0.3247 -0.9399
vn -0.2664 -0.2005 -0.9428
vn -0.6860 -0.5220 -0.5070
vn -0.1047 0.3223 -0.9408
vn -0.2653 0.1994 -0.9433
vn -0.6854 0.5212 -0.5085
vn -0.2655 0.1993 -0.9433
vn -0.3220 -0.0000 -0.9467
vn -0.6855 0.5212 -0.5084
vn -0.8525 -0.0001 -0.5227
vn -0.0000 0.0001 -1.0000
vn -1.0000 -0.0001 -0.0000
vn -1.0000 0.0001 -0.0000
vn -0.0000 -0.0000 -1.0000
vn -0.9511 0.3090 -0.0000
vn -0.9942 0.1078 -0.0000
vn -0.8090 0.5878 -0.0000
vn -0.3091 0.9510 -0.0000
vn -0.3092 -0.9510 -0.0000
vn -0.3092 0.9510 -0.0000
vn -0.3089 0.9511 -0.0000
vn -0.3089 -0.9511 -0.0000
vn 0.9511 0.3090 -0.0000
vn 0.3092 0.9510 -0.0000
vn 0.8089 0.5879 -0.0000
vn 0.3092 -0.9510 -0.0000
vn 0.8089 -0.5879 -0.0000
vn 0.8091 0.5877 -0.0000
vn 0.8091 -0.5877 -0.0000
vn -0.0000 -0.8963 -0.4435
vn -0.0000 -0.4095 -0.9123
vn -0.0000 -0.0058 -1.0000
vn -0.0000 0.4043 -0.9146
vn -0.0000 0.8964 -0.4433
vn 0.0001 0.8964 -0.4433
vn 0.0003 0.9828 -0.1845
vn 0.0001 0.8965 -0.4430
vn 0.0002 0.9828 -0.1845
vn -0.0000 0.8965 -0.4431
vn -0.0000 -0.9827 -0.1850
vn -0.0000 -0.8964 -0.4432
vn 0.9258 0.3781 -0.0000
vn 0.7106 0.6938 0.1167
vn 0.3875 0.9219 0.0006
vn 0.7028 0.7020 0.1154
vn 0.7105 0.6939 0.1168
vn 0.9259 0.3778 -0.0000
vn 0.7029 0.7019 0.1155
vn -0.7085 0.6949 0.1231
vn 0.3873 0.9220 -0.0000
vn -0.3948 0.9187 0.0001
vn -0.0000 -0.8965 -0.4431
vn -0.0001 -0.9828 -0.1845
vn -0.0000 -0.8964 -0.4433
vn -0.0000 -0.4043 -0.9146
vn -0.0000 0.0058 -1.0000
vn -0.0000 0.4095 -0.9123
vn -0.0000 0.8963 -0.4435
vn -0.0000 0.9827 -0.1850
vn -0.0000 0.8964 -0.4432
vn -0.7085 0.6949 0.1230
vn -0.7169 0.6856 0.1268
vn -0.3951 0.9186 -0.0000
vn -0.9289 0.3704 -0.0001
vn -0.9289 0.3702 -0.0000
vn -0.7168 0.6857 0.1268
vn 1.0000 -0.0006 -0.0006
vn 1.0000 0.0009 0.0009
vn 1.0000 0.0019 -0.0000
vn -0.4013 -0.0001 0.9159
vn -0.3247 -0.2358 0.9159
vn -0.3815 -0.0002 0.9243
vn -0.3088 -0.2241 0.9243
vn -0.0001 -0.0001 1.0000
vn -0.3247 0.2358 0.9159
vn -0.4014 0.0001 0.9159
vn -0.3088 0.2241 0.9243
vn -0.3815 0.0002 0.9243
vn -0.0001 -0.0000 1.0000
vn -0.3246 -0.2360 0.9159
vn -0.1241 -0.3817 0.9159
vn -0.3086 -0.2244 0.9243
vn -0.1180 -0.3628 0.9243
vn -0.1241 0.3817 0.9159
vn -0.3247 0.2360 0.9159
vn -0.1181 0.3628 0.9243
vn -0.3086 0.2244 0.9243
vn -0.0001 0.0001 1.0000
vn -0.1178 0.3629 0.9243
vn 0.1178 0.3629 0.9243
vn -0.1239 0.3817 0.9159
vn 0.1239 0.3817 0.9159
vn -0.0000 -0.0001 1.0000
vn -0.1178 -0.3629 0.9243
vn 0.1178 -0.3629 0.9243
vn -0.1239 -0.3817 0.9159
vn 0.1239 -0.3817 0.9159
vn 0.0001 -0.0001 1.0000
vn 0.1180 -0.3628 0.9243
vn 0.3086 -0.2244 0.9243
vn 0.1241 -0.3817 0.9159
vn 0.3247 -0.2360 0.9159
vn 0.0001 -0.0000 1.0000
vn 0.3088 -0.2241 0.9243
vn 0.3816 -0.0002 0.9243
vn 0.3247 -0.2358 0.9159
vn 0.4014 -0.0001 0.9159
vn 0.1180 0.3628 0.9243
vn 0.3086 0.2244 0.9243
vn 0.1241 0.3817 0.9159
vn 0.3246 0.2360 0.9159
vn 0.3088 0.2241 0.9243
vn 0.3815 0.0002 0.9243
vn 0.3247 0.2358 0.9159
vn 0.4013 0.0001 0.9159
vn -0.0000 0.0001 1.0000
vn 0.0001 0.0001 1.0000
vn 0.9923 -0.1241 -0.0000
vn 0.9364 -0.3511 -0.0000
vn 0.7957 -0.6057 -0.0000
vn 0.6865 0.5217 -0.5065
vn 0.7957 0.6057 -0.0000
vn 0.9923 -0.1239 -0.0000
vn 0.6869 -0.5226 -0.5050
vn 0.3090 -0.9511 -0.0000
vn -0.2674 -0.8233 -0.5006
vn -0.6859 -0.5220 -0.5070
vn -0.7957 -0.6057 -0.0000
vn -0.9923 -0.1239 -0.0000
vn -0.7957 0.6057 -0.0000
vn 0.2675 0.8223 -0.5023
vn -0.3091 -0.9510 -0.0000
vn -0.9923 -0.1241 -0.0000
vn -0.9364 -0.3511 -0.0000
vn 1.0000 -0.0007 0.0007
vn 1.0000 0.0021 0.0018
vn -0.2108 -0.0000 0.9775
vn -0.4012 0.0001 0.9160
vn -0.1705 0.1239 0.9775
vn -0.3246 0.2357 0.9160
vn -0.1705 -0.1239 0.9775
vn -0.4012 -0.0001 0.9160
vn -0.3246 -0.2358 0.9160
vn -0.3245 0.2358 0.9160
vn -0.0651 0.2004 0.9775
vn -0.1240 0.3815 0.9160
vn -0.0651 -0.2004 0.9775
vn -0.3245 -0.2358 0.9160
vn -0.1240 -0.3815 0.9160
vn -0.1239 0.3815 0.9160
vn 0.1239 0.3815 0.9160
vn -0.0651 0.2005 0.9775
vn 0.0651 0.2005 0.9775
vn -0.1239 -0.3815 0.9160
vn -0.0651 -0.2005 0.9775
vn 0.1239 -0.3815 0.9160
vn 0.0651 -0.2005 0.9775
vn 0.1240 -0.3815 0.9160
vn 0.0651 -0.2004 0.9775
vn 0.3245 -0.2358 0.9160
vn 0.1705 -0.1239 0.9775
vn 0.1240 0.3815 0.9160
vn 0.3245 0.2358 0.9160
vn 0.0651 0.2004 0.9775
vn 0.1705 0.1239 0.9775
vn 0.3246 -0.2357 0.9160
vn 0.4012 -0.0001 0.9160
vn 0.2108 -0.0000 0.9775
vn 0.3246 0.2358 0.9160
vn 0.4012 0.0001 0.9160
vn -0.0000 -0.0002 1.0000
vn 0.0003 -0.0002 1.0000
vn 0.0002 -0.0001 1.0000
vn -0.0000 -0.0000 1.0000
vn 0.0002 0.0001 1.0000
vn 0.0007 -0.0001 1.0000
vn 0.0009 -0.0004 1.0000
vn 0.0002 -0.0000 1.0000
vn -0.0002 -0.0003 1.0000
vn 0.0003 -0.0000 1.0000
vn 0.0007 -0.0000 1.0000
vn 0.0002 -0.0002 1.0000
vn -0.0000 -0.0003 1.0000
vn 0.0001 -0.0003 1.0000
vn 0.0009 -0.0000 1.0000
vn 0.0008 -0.0003 1.0000
vt 0.997889 1.991684
vt -0.004248 1.592906
vt 1.997061 1.061202
vt -0.004248 1.061202
vt 0.697967 0.857465
vt 0.212616 0.529123
vt -0.001301 0.130723
vt -0.001301 -0.002206
vt 1.297817 0.857498
vt 1.997061 0.529498
vt 1.783141 0.529150
vt 1.997061 -0.002206
vt 1.997061 1.991680
vt -0.001301 1.991681
vt 0.000779 0.000085
vt 0.125583 0.000253
vt 0.000773 1.000000
vt 0.246703 0.643759
vt 0.388550 0.801412
vt 0.479119 0.217559
vt 0.524553 0.217559
vt 0.479119 0.304787
vt 0.524553 0.304787
vt 0.125004 0.000000
vt 0.000200 0.000365
vt 0.246123 0.645046
vt 0.000198 0.999553
vt 0.387971 0.802698
vt 0.500002 0.802055
vt 0.479119 0.304787
vt 0.479119 0.217559
vt 0.524553 0.304787
vt 0.524553 0.217559
vt 0.479119 0.217559
vt 0.524553 0.217559
vt 0.477404 0.536799
vt 0.477404 0.489006
vt 0.526150 0.536799
vt 0.526150 0.489006
vt 0.499424 0.999777
vt 0.479119 0.304787
vt 0.479119 0.217559
vt 0.524553 0.304787
vt 0.524553 0.217559
vt 0.524615 0.304787
vt 0.525806 0.554331
vt 0.525806 0.443421
vt 0.478039 0.554331
vt 0.478039 0.443421
vt 0.874556 0.000823
vt 0.998779 0.000885
vt 0.754002 0.641261
vt 0.998788 0.870507
vt 0.612715 0.798911
vt 0.501886 0.798814
vt 0.501895 0.870352
vt 0.874454 0.870447
vt 0.753891 0.642692
vt 0.874454 0.000823
vt 0.874516 0.000823
vt 0.998756 0.870507
vt 0.753946 0.641411
vt 0.998185 0.001647
vt 0.874168 0.001647
vt 0.998184 0.870052
vt 0.753819 0.642514
vt 0.612872 0.799166
vt 0.527130 0.281144
vt 0.527130 0.380471
vt 0.477563 0.281144
vt 0.477563 0.380471
vt 0.479043 0.473954
vt 0.527965 0.473954
vt 0.479112 0.522903
vt 0.528034 0.522903
vt 0.000229 0.000662
vt 0.125096 0.000249
vt 0.000218 1.000000
vt 0.246274 0.644062
vt 0.388191 0.801790
vt 0.499691 0.999740
vt 0.499697 0.802435
vt 0.000528 0.999480
vt 0.388488 0.803079
vt 0.246571 0.645352
vt 0.125393 0.000000
vt 0.000534 0.000390
vt 0.502127 0.869913
vt 0.501795 0.798990
vt 0.504045 0.422784
vt 0.479072 0.288668
vt 0.526451 0.288654
vt 0.998756 0.000966
vt 1.000000 0.560326
vt 1.000000 0.669740
vt 0.500000 0.560326
vt 0.500000 0.669740
vt 0.000000 0.560326
vt 0.000000 0.669740
vt 0.000002 0.666727
vt 0.060320 0.594766
vt 0.000002 0.594777
vt 0.000002 0.560153
vt 0.061282 0.594766
vt 0.439745 0.594698
vt 0.041545 0.666721
vt 0.541432 0.666647
vt 0.459262 0.666659
vt 0.561384 0.594675
vt 0.999998 0.559956
vt 0.458202 0.666659
vt 0.540852 0.666647
vt 0.439406 0.594698
vt 0.560335 0.594675
vt 0.938659 0.594607
vt 0.999997 0.594596
vt 0.958264 0.666585
vt 0.999997 0.666578
vt 0.999997 0.666578
vt 0.959032 0.666585
vt 0.999997 0.594596
vt 0.939482 0.594607
vt 0.540780 0.666634
vt 0.561089 0.594645
vt 0.458734 0.666592
vt 0.438474 0.594583
vt 0.042682 0.665081
vt 0.000000 0.665088
vt 0.061809 0.593093
vt 0.000000 0.593106
vt 0.000000 0.558467
vt 0.457786 0.665007
vt 0.542620 0.664991
vt 0.439230 0.593016
vt 0.561616 0.592991
vt 1.000000 0.558250
vt 0.938972 0.592914
vt 1.000000 0.664909
vt 0.959329 0.664917
vt 1.000000 0.592902
vt 0.042441 0.665017
vt 0.000000 0.665024
vt 0.061544 0.593006
vt 0.000000 0.593017
vt 0.000000 0.558365
vt 0.439339 0.592943
vt 0.561370 0.592922
vt 1.000000 0.558199
vt 0.938868 0.592859
vt 1.000000 0.592848
vt 0.959188 0.664859
vt 1.000000 0.664852
vt 0.458274 0.664945
vt 0.543106 0.664931
vt 0.561439 0.594645
vt 0.438760 0.594583
vt 0.541891 0.666634
vt 0.459515 0.666593
vt 0.999960 0.666865
vt 0.939033 0.594835
vt 0.999961 0.594865
vt 0.999961 0.560218
vt 0.937987 0.594834
vt 0.959500 0.666845
vt 0.000034 0.559715
vt 0.062207 0.594394
vt 0.000034 0.594362
vt 0.040708 0.666381
vt 0.000034 0.666361
vt 0.000034 0.666361
vt 0.040881 0.666381
vt 0.000034 0.594362
vt 0.060238 0.594393
vt 0.959772 0.666845
vt 0.041132 0.666721
vt 0.183282 0.000000
vt 0.816718 0.014552
vt 0.253651 0.225528
vt 0.764437 0.216091
vt 0.524652 1.000000
vt 0.183558 0.014552
vt 0.816442 0.000000
vt 0.238033 0.216598
vt 0.748374 0.226025
vt 0.477619 1.000000
vt 0.180728 0.000000
vt 0.819273 0.000000
vt 0.238265 0.205879
vt 0.761199 0.205879
vt 0.498788 1.000000
vt 0.181442 0.000000
vt 0.818558 0.000000
vt 0.240809 0.207125
vt 0.762572 0.207124
vt 0.501691 1.000000
vt 0.761811 0.207724
vt 0.240607 0.207724
vt 0.818216 0.000000
vt 0.181784 0.000000
vt 0.474668 1.000000
vt 0.235453 0.217553
vt 0.744967 0.226962
vt 0.184071 0.014553
vt 0.815929 0.000000
vt 0.237465 0.206184
vt 0.760111 0.206184
vt 0.180903 0.000000
vt 0.819097 0.000000
vt 0.237267 0.206784
vt 0.759350 0.206784
vt 0.181247 0.000000
vt 0.818753 0.000000
vt 0.760727 0.208030
vt 0.239807 0.208030
vt 0.818043 0.000000
vt 0.181957 0.000000
vt 0.762085 0.218060
vt 0.253010 0.227458
vt 0.815656 0.014553
vt 0.184344 0.000000
vt 0.477036 0.317023
vt 0.523982 0.317023
vt 0.477036 0.996084
vt 0.523982 0.996084
vt 1.000000 0.001617
vt 1.000000 0.998107
vt 0.500000 0.001617
vt 0.500000 0.998107
vt 0.000000 0.001617
vt 0.000000 0.998107
vt 1.000000 0.001926
vt 1.000000 0.998113
vt 0.500000 0.001926
vt 0.500000 0.998113
vt 0.000000 0.001926
vt 0.000000 0.998113
vt -0.053445 0.996155
vt 0.056010 0.996155
vt -0.053445 0.720825
vt 0.056010 0.720825
vt -0.053445 0.581387
vt 0.056010 0.581387
vt -0.053445 0.441949
vt 0.056010 0.441949
vt -0.053445 0.166783
vt 0.056010 0.166783
vt 0.056010 0.001356
vt 0.056010 0.721611
vt -0.053445 0.001356
vt -0.053445 0.721611
vt 0.999268 0.000000
vt 0.999268 1.000000
vt 0.000734 0.000280
vt 0.000732 0.999554
vt 0.000367 0.000000
vt 0.999633 0.000006
vt 0.000367 1.000000
vt 0.999633 0.999460
vt 0.388035 0.999331
vt 0.337976 0.999331
vt 0.388035 0.963423
vt 0.338027 0.963423
vt 1.440695 0.961829
vt 1.440695 0.999823
vt -0.436837 0.961829
vt -0.436837 0.999823
vt 0.000097 0.000006
vt 0.999903 0.000000
vt 0.000097 1.000000
vt 0.999903 0.999990
vt -0.053445 0.217647
vt 0.056010 0.217647
vt -0.053445 0.475476
vt 0.056010 0.475476
vt -0.053445 0.606128
vt 0.056010 0.606128
vt -0.053445 0.736781
vt 0.056010 0.736781
vt -0.053445 0.994763
vt 0.056010 0.994763
vt 0.999852 0.000093
vt 0.999855 1.000000
vt 0.000145 0.000000
vt 0.000145 0.999898
vt 0.187774 0.000000
vt 0.812226 0.000000
vt 0.264970 0.290537
vt 0.735030 0.290537
vt 0.500000 1.000000
vt 0.187774 0.000000
vt 0.264970 0.290537
vt 0.187774 0.000000
vt 0.812226 0.000000
vt 0.735030 0.290537
vt 0.187774 0.000000
vt 0.812226 0.000000
vt 0.000000 0.872141
vt 0.000000 0.001541
vt 0.500000 0.872141
vt 0.500000 0.001541
vt 1.000000 0.872141
vt 1.000000 0.001541
vt 3.506175 0.998798
vt 3.506175 0.836726
vt 3.002819 0.998798
vt 3.002238 0.836726
vt 2.498877 0.998798
vt 2.498877 0.836726
vt 1.994935 0.998798
vt 1.995516 0.836726
vt 1.491109 0.998798
vt 1.492049 0.836726
vt 0.987466 0.998798
vt 0.988406 0.836726
vt 0.483999 0.998798
vt 0.484579 0.836726
vt -0.019363 0.998798
vt -0.019363 0.836726
vt -0.522724 0.998798
vt -0.523305 0.836726
vt -1.026191 0.998798
vt -1.027131 0.836726
vt -1.530304 0.998798
vt -1.530304 0.836726
vt 0.553676 0.872252
vt 0.446324 0.872252
vt 0.553676 0.000000
vt 0.446324 0.000000
vt 0.999858 0.872346
vt 0.000142 0.872604
vt 0.999858 0.000000
vt 0.000146 0.000151
vt 0.000177 0.872445
vt 0.000177 0.000356
vt 0.999821 0.872604
vt 0.999823 0.000000
vt 0.000177 0.000000
vt 0.999823 0.000334
vt 0.000177 0.872604
vt 0.999823 0.872316
vt 0.999994 0.000000
vt 0.999994 0.872604
vt 0.000006 0.000216
vt 0.000006 0.872522
vt 0.121899 0.982487
vt 0.161792 0.856595
vt 0.878100 0.982487
vt 0.838208 0.856595
vt 0.477403 0.234811
vt 0.526149 0.234811
vt 0.477403 0.282386
vt 0.526149 0.282386
vt 0.477403 0.329488
vt 0.526149 0.329488
vt 0.477403 0.368850
vt 0.526149 0.368850
vt 0.477403 0.463502
vt 0.526149 0.463502
vt 0.477403 0.172731
vt 0.477403 0.078629
vt 0.526149 0.172731
vt 0.526149 0.078629
vt 0.477404 0.060638
vt 0.477404 0.013724
vt 0.526216 0.060585
vt 0.526216 0.013724
vt 0.528562 0.000307
vt 0.528562 1.999639
vt 0.475296 0.000307
vt 0.475296 1.999639
vt 0.157214 1.435412
vt 0.002689 0.028359
vt 0.677823 1.057277
vt 0.022722 0.007911
vt 1.321092 1.057305
vt 1.976784 0.007911
vt 1.841577 1.435488
vt 1.997810 0.030090
vt 1.997814 1.984713
vt 0.526237 0.034993
vt 0.526237 0.136643
vt 0.477263 0.034993
vt 0.477263 0.136643
vt 0.477262 0.181094
vt 0.526237 0.181094
vt 0.477262 0.229826
vt 0.526237 0.229826
vt 0.477262 0.280680
vt 0.526237 0.280680
vt 0.526237 0.324081
vt 0.526237 0.425728
vt 0.477263 0.324081
vt 0.477263 0.425728
vt 0.477494 0.195001
vt 0.526415 0.195001
vt 0.477426 0.243160
vt 0.526348 0.243160
vt 0.477494 0.291644
vt 0.526416 0.291644
vt 0.478198 0.172581
vt 0.478337 0.073869
vt 0.527120 0.172581
vt 0.527259 0.073869
vt 0.478200 0.344938
vt 0.527122 0.344938
vt 0.478339 0.443257
vt 0.527260 0.443257
vt 0.477380 0.460476
vt 0.526238 0.460520
vt 0.477497 0.509353
vt 0.526238 0.509421
vt 0.002689 1.983538
s 0
usemtl material1
f 7/1/1 13/2/1 4/3/1
s 1
f 14/4/2 4/3/3 13/2/4
f 4/3/3 14/4/2 8/5/5
s 0
f 9/6/6 8/5/6 14/4/6
f 14/4/7 10/7/8 9/6/9
f 12/8/8 9/6/10 10/7/11
f 4/3/5 6/9/12 3/10/5
s 1
f 5/11/13 3/10/14 6/9/15
s 0
f 3/10/16 5/11/16 1/12/16
s 1
f 4/3/3 8/5/5 6/9/3
f 2/13/17 7/1/17 4/3/17
s 0
f 7/1/3 11/14/3 13/2/3
usemtl material2
f 171/15/18 170/16/18 158/17/18
f 168/18/18 158/17/18 170/16/18
f 158/17/18 168/18/18 160/19/18
f 166/20/19 139/21/19 169/22/19
f 138/23/19 169/22/19 139/21/19
f 164/22/20 141/23/20 165/20/20
f 140/21/20 165/20/20 141/23/20
f 162/24/18 161/25/18 159/26/18
f 142/27/18 159/26/18 161/25/18
f 159/26/18 142/27/18 167/28/18
f 163/29/18 167/28/18 142/27/18
f 157/30/21 150/31/21 135/32/21
f 131/33/21 135/32/21 150/31/21
f 156/30/22 153/34/22 137/32/22
f 136/35/22 137/32/22 153/34/22
f 155/30/23 134/32/23 154/34/23
f 133/35/23 154/34/23 134/32/23
f 152/30/24 132/32/24 151/31/24
f 130/33/24 151/31/24 132/32/24
f 148/36/25 147/37/25 129/38/25
f 127/39/25 129/38/25 147/37/25
f 158/17/18 160/19/18 145/40/18
f 180/29/18 145/40/18 160/19/18
f 179/40/18 181/29/18 142/27/18
f 144/41/26 149/42/26 128/43/26
f 125/44/26 128/43/26 149/42/26
s 1
f 143/42/27 146/41/28 126/44/29
f 121/45/30 126/44/29 146/41/28
f 123/46/31 119/47/31 122/48/32
f 117/49/33 122/48/32 119/47/31
f 112/50/34 114/51/35 109/52/36
f 115/53/37 109/52/36 114/51/35
f 109/52/36 115/53/37 107/54/38
f 110/55/39 107/54/38 115/53/37
f 176/55/39 116/56/40 106/54/41
f 111/57/42 106/54/41 116/56/40
f 106/54/41 111/57/42 108/58/43
f 113/59/43 108/58/43 111/57/42
s 0
f 105/47/44 103/46/44 104/49/44
f 102/48/44 104/49/44 103/46/44
f 101/46/45 99/47/45 100/48/45
f 98/49/45 100/48/45 99/47/45
f 96/47/46 95/46/46 97/49/46
f 94/48/46 97/49/46 95/46/46
f 92/48/47 93/46/47 91/49/47
f 90/47/47 91/49/47 93/46/47
f 88/47/48 87/46/48 89/49/48
f 86/48/48 89/49/48 87/46/48
f 85/46/49 83/47/49 84/48/49
f 82/49/49 84/48/49 83/47/49
f 77/60/18 81/61/18 74/62/18
f 72/54/18 74/62/18 81/61/18
f 76/63/18 75/64/18 70/65/18
f 71/66/18 70/65/18 75/64/18
f 70/65/18 71/66/18 73/67/18
s 1
f 68/49/50 69/47/51 48/48/52
f 45/46/53 48/48/52 69/47/51
s 0
f 65/68/54 63/69/54 42/70/54
f 40/71/54 42/70/54 63/69/54
f 66/68/55 43/70/55 64/69/55
f 41/71/55 64/69/55 43/70/55
f 62/68/56 60/69/56 38/70/56
f 36/71/56 38/70/56 60/69/56
f 61/68/57 37/70/57 59/69/57
f 35/71/57 59/69/57 37/70/57
f 57/68/58 55/69/58 33/70/58
f 31/71/58 33/70/58 55/69/58
f 58/68/59 34/70/59 56/69/59
f 32/71/59 56/69/59 34/70/59
s 1
f 53/68/60 47/69/61 30/70/62
f 26/71/63 30/70/62 47/69/61
s 0
f 52/68/64 29/70/64 50/69/64
f 27/71/64 50/69/64 29/70/64
f 51/72/65 28/73/65 46/74/65
f 18/75/65 46/74/65 28/73/65
s 1
f 25/76/66 20/77/67 44/78/68
f 22/79/69 44/78/68 20/77/67
f 44/78/68 22/79/69 19/80/70
f 44/78/68 19/80/70 39/81/71
f 21/82/72 39/81/71 19/80/70
f 173/81/73 172/82/74 15/83/75
f 16/84/76 15/83/75 172/82/74
f 15/83/75 16/84/76 17/85/43
s 0
f 23/86/43 24/87/43 17/85/43
s 1
f 15/83/75 17/85/43 24/87/43
s 0
f 70/65/18 73/67/18 80/88/18
f 79/89/18 80/88/18 73/67/18
f 175/88/18 174/89/18 81/61/18
f 72/54/18 81/61/18 174/89/18
s 1
f 177/55/39 115/53/37 178/56/39
f 49/90/77 54/91/78 67/92/79
s 0
f 77/60/18 78/93/18 81/61/18
s 1
f 118/91/80 124/92/81 120/90/82
usemtl material3
f 209/94/83 203/95/83 211/96/84
f 210/97/18 211/96/84 203/95/83
f 211/96/84 210/97/18 207/98/85
f 202/99/85 207/98/85 210/97/18
f 208/94/86 206/95/86 200/96/87
f 198/97/87 200/96/87 206/95/86
f 200/96/87 198/97/87 197/98/88
f 191/99/88 197/98/88 198/97/87
f 204/99/89 205/98/90 199/97/91
f 201/96/91 199/97/91 205/98/90
f 199/97/91 201/96/91 192/95/92
f 193/94/92 192/95/92 201/96/91
f 196/99/93 190/98/93 186/97/94
f 189/96/94 186/97/94 190/98/93
f 186/97/94 189/96/94 182/95/95
f 185/94/96 182/95/95 189/96/94
f 194/94/97 195/95/97 188/96/98
f 187/97/98 188/96/98 195/95/97
f 188/96/98 187/97/98 184/98/99
f 183/99/100 184/98/99 187/97/98
s 0
f 321/100/18 323/101/18 319/102/18
f 322/103/18 319/102/18 323/101/18
f 335/102/18 339/103/18 325/104/18
f 314/105/18 325/104/18 339/103/18
f 325/104/18 320/106/18 336/102/18
f 337/100/18 336/102/18 320/106/18
f 317/107/18 315/108/18 312/109/18
f 314/105/18 312/109/18 315/108/18
f 312/109/18 314/105/18 298/110/18
f 340/103/18 298/110/18 314/105/18
f 318/111/18 313/112/18 316/113/18
f 311/114/18 316/113/18 313/112/18
f 316/113/18 311/114/18 299/110/18
f 304/115/18 299/110/18 311/114/18
f 299/110/18 304/115/18 303/116/18
f 310/117/18 303/116/18 304/115/18
f 303/116/18 310/117/18 301/118/18
f 305/119/18 306/120/18 307/121/18
f 302/122/18 307/121/18 306/120/18
f 307/121/18 302/122/18 298/110/18
f 312/109/18 298/110/18 302/122/18
f 299/110/18 341/103/18 316/113/18
f 323/101/18 316/113/18 341/103/18
f 296/123/43 295/124/43 297/125/43
f 294/126/43 297/125/43 295/124/43
f 289/111/43 290/113/43 293/112/43
f 286/114/43 293/112/43 290/113/43
f 288/108/43 291/107/43 292/105/43
f 287/109/43 292/105/43 291/107/43
f 285/127/101 308/128/101 284/129/101
f 309/130/101 284/129/101 308/128/101
f 284/129/101 309/130/101 300/131/101
f 281/132/102 279/133/102 283/134/102
f 276/135/102 283/134/102 279/133/102
f 284/129/101 300/131/101 282/134/101
f 267/136/101 282/134/101 300/131/101
f 282/134/101 267/136/101 277/135/101
f 274/137/101 277/135/101 267/136/101
f 282/134/101 277/135/101 280/132/101
f 278/133/101 280/132/101 277/135/101
f 273/125/102 265/123/102 275/126/102
f 262/124/102 275/126/102 265/123/102
f 270/138/101 272/139/101 269/140/101
f 274/137/101 269/140/101 272/139/101
f 269/140/101 274/137/101 267/136/101
f 264/141/101 271/142/101 263/143/101
f 268/144/101 263/143/101 271/142/101
f 263/143/101 268/144/101 266/145/101
f 261/146/101 266/145/101 254/147/101
f 212/148/101 254/147/101 266/145/101
f 254/147/101 212/148/101 253/149/101
f 216/150/101 253/149/101 212/148/101
f 253/149/101 216/150/101 240/151/101
f 217/152/101 240/151/101 216/150/101
f 258/153/102 256/154/102 260/146/102
f 255/147/102 260/146/102 256/154/102
f 257/154/101 259/153/101 254/147/101
f 261/146/101 254/147/101 259/153/101
f 252/126/103 250/125/103 251/124/103
f 249/123/103 251/124/103 250/125/103
f 247/126/104 245/125/104 243/124/104
f 241/123/105 243/124/105 245/125/105
f 248/155/106 244/156/106 246/157/106
f 242/158/107 246/157/107 244/156/107
s 1
f 235/159/108 237/160/109 238/161/110
f 239/162/111 238/161/110 237/160/109
f 328/161/110 330/162/68 236/163/112
f 231/124/113 236/163/112 330/162/68
f 326/159/114 329/161/110 233/164/115
f 236/163/116 233/164/115 329/161/110
f 230/157/117 228/156/118 232/155/119
f 331/162/68 232/155/119 228/156/118
f 232/155/119 331/162/68 237/160/109
f 225/125/120 229/123/120 227/126/120
f 231/124/121 227/126/120 229/123/120
f 227/126/120 231/124/121 332/162/68
f 333/162/68 228/156/122 219/165/123
f 224/166/124 219/165/123 228/156/122
f 219/165/123 224/166/124 220/167/124
s 0
f 221/168/125 220/167/125 224/166/125
f 220/167/126 221/168/126 218/169/126
f 215/170/127 222/171/127 214/172/127
f 223/173/128 214/172/128 222/171/128
s 1
f 214/172/129 223/173/129 213/165/130
f 227/126/131 213/165/130 223/173/129
f 213/165/130 227/126/131 334/162/111
s 0
f 263/143/101 266/145/101 261/146/101
s 1
f 228/156/118 230/157/117 226/158/117
f 234/174/132 237/160/109 327/159/133
s 0
f 338/100/18 324/175/18 323/101/18
s 1
usemtl material4
f 385/176/134 379/177/135 383/178/136
f 375/179/137 383/178/136 379/177/135
f 383/178/136 375/179/137 364/180/138
f 382/181/139 386/182/140 378/183/141
f 384/184/142 378/183/141 386/182/140
f 378/183/141 384/184/142 363/185/143
f 380/186/144 373/187/145 376/188/146
f 368/189/147 376/188/146 373/187/145
f 376/188/146 368/189/147 362/190/138
f 372/191/148 381/192/139 369/193/149
f 377/194/150 369/193/149 381/192/139
f 369/193/149 377/194/150 366/195/15
f 367/196/151 361/197/152 371/198/153
f 356/199/154 371/198/153 361/197/152
f 365/200/5 353/201/155 344/202/156
f 349/203/157 344/202/156 353/201/155
f 344/202/156 349/203/157 342/204/158
f 362/190/159 370/205/160 358/206/161
f 374/207/145 358/206/161 370/205/160
f 358/206/161 374/207/145 354/208/162
f 362/190/11 360/209/163 352/210/164
f 357/211/162 352/210/164 360/209/163
f 352/210/164 357/211/162 348/212/165
f 359/213/166 350/214/167 355/215/154
f 347/216/168 355/215/154 350/214/167
f 351/217/169 345/218/170 346/219/171
f 343/220/172 346/219/171 345/218/170
f 361/197/152 367/196/151 362/190/173
f 350/214/167 359/213/166 362/190/3
f 345/218/170 351/217/169 364/180/3
usemtl material5
f 480/221/174 479/222/174 470/223/83
f 464/224/83 470/223/83 479/222/174
f 478/224/175 481/223/175 471/222/85
f 466/221/85 471/222/85 481/223/175
s 0
f 477/221/176 475/222/176 472/223/176
f 456/224/176 472/223/176 475/222/176
s 1
f 476/225/177 474/226/178 459/227/179
f 455/228/179 459/227/179 474/226/178
f 459/227/179 455/228/179 437/229/180
f 435/230/180 437/229/180 455/228/179
s 0
f 482/223/176 463/221/176 473/224/176
f 457/222/176 473/224/176 463/221/176
s 1
f 462/222/89 447/224/181 469/221/89
f 446/223/181 469/221/89 447/224/181
f 467/224/86 468/223/86 454/222/182
f 452/221/182 454/222/182 468/223/86
s 0
f 461/221/176 460/222/176 451/223/176
f 436/224/176 451/223/176 460/222/176
f 465/223/176 445/221/176 458/224/176
f 438/222/176 458/224/176 445/221/176
f 442/222/176 433/224/176 453/221/176
f 422/223/176 453/221/176 433/224/176
s 1
f 448/223/183 426/221/88 450/224/183
f 425/222/88 450/224/183 426/221/88
f 443/221/184 449/222/184 424/223/92
f 416/224/92 424/223/92 449/222/184
f 441/231/183 439/232/183 431/233/88
f 428/234/88 431/233/88 439/232/183
s 0
f 440/224/176 444/223/176 427/222/176
f 423/221/176 427/222/176 444/223/176
s 1
f 434/231/97 432/232/97 410/233/98
f 409/234/98 410/233/98 432/232/97
f 410/233/98 409/234/98 395/235/185
f 396/236/99 395/235/185 409/234/98
s 0
f 430/224/176 417/223/176 414/222/176
f 399/221/176 414/222/176 417/223/176
s 1
f 418/223/186 408/221/187 421/224/186
f 402/222/187 421/224/186 408/221/187
f 420/221/188 415/222/188 401/223/189
f 398/224/189 401/223/189 415/222/188
s 0
f 429/222/176 413/224/176 419/221/176
f 400/223/176 419/221/176 413/224/176
f 411/224/176 405/223/176 394/222/176
f 391/221/176 394/222/176 405/223/176
s 1
f 406/223/190 392/221/100 407/224/190
f 388/222/100 407/224/190 392/221/100
f 403/222/191 390/224/95 404/221/191
f 389/223/95 404/221/191 390/224/95
s 0
f 412/222/176 393/224/176 397/221/176
f 387/223/176 397/221/176 393/224/176
s 1
f 553/237/192 526/238/192 554/239/193
f 527/240/193 554/239/193 526/238/192
f 554/239/193 527/240/193 542/241/194
f 528/242/194 542/241/194 527/240/193
f 542/241/194 528/242/194 545/243/195
f 524/244/195 545/243/195 528/242/194
f 545/243/195 524/244/195 551/245/196
f 522/246/197 551/245/196 524/244/195
f 549/247/198 548/248/199 525/249/200
f 523/250/201 525/249/200 548/248/199
f 546/249/202 529/247/202 547/250/203
f 521/248/203 547/250/203 529/247/202
s 0
f 543/251/18 550/252/18 552/253/18
f 541/254/18 552/253/18 550/252/18
f 544/255/101 520/256/101 540/257/101
f 517/258/101 540/257/101 520/256/101
s 1
f 538/259/204 537/260/205 532/261/206
f 531/262/207 532/261/206 537/260/205
f 535/263/208 539/264/209 536/265/43
f 534/266/43 536/265/43 539/264/209
f 533/265/210 505/263/211 530/266/212
f 504/264/213 530/266/212 505/263/211
s 0
f 519/267/101 496/268/101 518/269/101
f 495/270/101 518/269/101 496/268/101
s 1
f 514/250/214 515/249/215 489/248/214
f 488/247/215 489/248/214 515/249/215
f 511/271/216 490/272/216 510/273/217
f 491/274/217 510/273/217 490/272/216
f 510/273/217 491/274/217 512/275/218
f 487/276/218 512/275/218 491/274/217
f 512/275/218 487/276/218 509/277/219
f 483/278/219 509/277/219 487/276/218
f 509/277/219 483/278/219 513/279/220
f 486/280/220 513/279/220 483/278/219
f 508/247/221 516/248/222 494/249/221
f 492/250/222 494/249/221 516/248/222
f 506/260/223 502/262/224 507/259/225
f 501/261/226 507/259/225 502/262/224
f 500/264/227 503/263/228 499/266/18
f 498/265/18 499/266/18 503/263/228
f 493/281/66 497/282/229 485/283/230
f 484/284/231 485/283/230 497/282/229
usemtl material6
f 594/285/232 593/286/233 588/287/234
f 587/288/235 588/287/234 593/286/233
f 588/287/234 587/288/235 575/289/236
f 590/290/237 595/286/238 586/291/239
f 589/288/240 586/291/239 595/286/238
f 586/291/239 589/288/240 575/289/241
f 592/292/242 581/293/243 584/291/244
f 579/294/245 584/291/244 581/293/243
f 584/291/244 579/294/245 575/289/236
f 582/295/246 591/296/247 576/287/248
f 585/288/249 576/287/248 591/296/247
f 576/287/248 585/288/249 575/289/250
f 578/288/251 572/287/252 583/293/253
f 567/295/254 583/293/253 572/287/252
f 575/289/255 577/287/256 573/288/257
f 580/295/258 573/288/257 577/287/256
f 573/288/257 580/295/258 570/293/259
f 575/289/260 571/287/261 564/288/262
f 568/295/263 564/288/262 571/287/261
f 564/288/262 568/295/263 559/296/264
f 575/289/265 565/291/266 562/288/267
f 558/290/268 562/288/267 565/291/266
f 562/288/267 558/290/268 556/286/269
f 574/294/270 563/291/271 569/293/272
f 560/292/273 569/293/272 563/291/271
f 566/288/274 561/287/275 557/286/276
f 555/285/277 557/286/276 561/287/275
f 572/287/252 578/288/251 575/289/278
f 563/291/271 574/294/270 575/289/279
f 561/287/275 566/288/274 575/289/279
usemtl material7
f 632/297/280 633/298/281 629/299/282
f 628/300/282 629/299/282 633/298/281
f 629/299/282 628/300/282 622/301/93
f 619/302/93 622/301/93 628/300/282
f 623/303/148 614/304/97 626/305/283
f 627/306/284 626/305/283 614/304/97
f 626/305/283 627/306/284 631/307/134
f 630/308/285 631/307/134 627/306/284
f 631/307/134 630/308/285 625/309/286
f 624/310/282 625/309/286 630/308/285
f 625/309/286 624/310/282 616/311/145
f 615/312/287 616/311/145 624/310/282
f 616/311/145 615/312/287 609/313/288
f 612/314/91 609/313/288 615/312/287
f 609/313/288 612/314/91 605/315/289
f 601/316/290 605/315/289 612/314/91
f 605/315/289 601/316/290 598/317/158
f 597/318/291 598/317/158 601/316/290
f 598/317/158 597/318/291 604/319/168
f 603/320/292 604/319/168 597/318/291
f 604/319/168 603/320/292 606/321/154
f 607/322/87 606/321/154 603/320/292
f 606/321/154 607/322/87 621/323/293
f 620/324/88 621/323/293 607/322/87
f 617/298/92 613/300/184 618/297/92
f 611/299/184 618/297/92 613/300/184
f 608/297/294 610/298/294 600/299/290
f 602/300/290 600/299/290 610/298/294
f 600/299/290 602/300/290 599/301/295
f 596/302/296 599/301/295 602/300/290
f 653/325/43 650/326/297 652/327/43
f 649/328/297 652/327/43 650/326/297
f 651/329/297 645/330/37 648/331/297
f 644/332/298 648/331/297 645/330/37
s 0
f 647/333/18 646/334/18 642/335/18
f 639/336/18 642/335/18 646/334/18
f 638/337/102 637/338/102 643/339/102
f 636/340/102 643/339/102 637/338/102
f 641/341/102 640/342/102 635/343/102
f 634/344/102 635/343/102 640/342/102
s 1
usemtl material8
f 693/345/299 691/346/300 689/347/301
f 685/348/302 689/347/301 691/346/300
f 692/347/299 687/345/303 690/348/304
f 683/346/305 690/348/304 687/345/303
f 688/345/301 682/346/306 681/347/307
f 677/348/308 681/347/307 682/346/306
f 686/347/303 678/345/309 684/348/310
f 676/346/311 684/348/310 678/345/309
f 674/346/312 670/348/313 680/345/314
f 669/347/315 680/345/314 670/348/313
f 675/348/316 679/347/317 672/346/318
f 667/345/319 672/346/318 679/347/317
f 673/348/320 666/347/321 662/346/322
f 660/345/323 662/346/322 666/347/321
f 671/346/324 664/348/325 668/345/326
f 659/347/327 668/345/326 664/348/325
f 663/348/328 658/347/323 657/346/329
f 654/345/330 657/346/329 658/347/323
f 665/346/331 656/348/332 661/345/327
f 655/347/330 661/345/327 656/348/332
s 0
f 765/349/333 755/350/333 766/351/333
f 756/352/333 766/351/333 755/350/333
f 766/351/25 756/352/25 767/353/25
s 1
f 754/354/25 767/353/25 756/352/333
s 0
f 761/355/25 753/356/25 764/357/25
f 750/358/25 764/357/25 753/356/25
f 763/359/333 762/360/333 752/361/333
f 751/362/333 752/361/333 762/360/333
f 760/363/334 757/364/334 745/365/334
f 744/366/335 745/365/335 757/364/335
f 758/367/336 759/368/336 748/369/336
f 746/370/336 748/369/336 759/368/336
s 1
f 740/371/337 747/372/338 735/373/279
f 741/374/339 735/373/279 747/372/338
f 735/373/279 741/374/339 726/375/340
f 718/376/341 726/375/340 741/374/339
s 0
f 726/375/342 718/376/342 721/377/342
s 1
f 710/378/335 721/377/343 718/376/344
f 721/377/343 710/378/335 707/379/343
s 0
f 742/367/340 720/368/340 743/369/340
f 719/370/340 743/369/340 720/368/340
f 739/380/342 737/381/342 738/382/342
f 736/383/342 738/382/342 737/381/342
f 734/384/342 733/385/342 731/386/342
f 730/387/342 731/386/342 733/385/342
f 732/386/265 729/387/265 728/388/265
f 727/389/265 728/388/265 729/387/265
f 724/390/265 723/391/265 725/392/265
f 722/393/265 725/392/265 723/391/265
f 716/394/345 703/395/345 717/396/345
f 704/397/278 717/396/278 703/395/345
f 717/396/333 704/397/333 715/398/65
s 1
f 702/399/65 715/398/65 704/397/333
s 0
f 714/400/345 712/401/345 701/402/345
s 1
f 699/403/345 701/402/345 712/401/345
s 0
f 713/404/65 700/405/65 711/406/65
f 698/407/65 711/406/65 700/405/65
f 709/368/336 697/370/336 708/367/336
f 696/369/336 708/367/336 697/370/336
f 706/408/236 705/409/236 695/410/236
f 694/411/346 695/410/346 705/409/346
f 740/371/347 749/412/347 747/372/348
