# Source-author permission confirmed by the user on 2026-07-25.
# Normalized to metres and Z-up; source UVs/material assignments retained.
# Blender 4.2.0
# www.blender.org
mtllib rv_mod_cit_ruin_stairs.mtl
o rv_mod_cit_ruin_stairs
v -3.250000 4.000000 3.000000
v -3.250000 3.000000 3.000000
v -3.250000 3.000000 2.733108
v -3.250000 4.000000 2.733108
v -4.000000 4.000000 3.000000
v -4.000000 4.000000 2.733108
v -4.000000 3.000000 2.733108
v -4.000000 3.000000 3.000000
v -3.250000 4.000000 2.733108
v -4.000000 4.000000 2.733108
v -4.000000 4.000000 3.000000
v -3.250000 4.000000 3.000000
v -4.000000 4.000000 2.733108
v -4.000000 4.000000 0.000000
v -4.000000 3.000000 0.000000
v -4.000000 3.000000 2.733108
v -4.000000 -3.000000 0.000000
v -4.000000 -3.000000 0.972748
v -3.250000 4.000000 2.733108
v -3.250000 4.000000 0.000000
v -4.000000 4.000000 0.000000
v -4.000000 4.000000 2.733108
v -3.250000 4.000000 3.000000
v -4.000000 4.000000 3.000000
v -4.000000 3.000000 3.000000
v -3.250000 3.000000 3.000000
v -3.250000 4.000000 0.000000
v -3.250000 4.000000 2.733108
v -3.250000 3.000000 2.733108
v -3.250000 3.000000 0.000000
v -3.250000 -3.000000 1.463928
v -3.250000 -3.000000 0.972748
v -4.000000 3.000000 2.733108
v -3.250000 3.000000 2.733108
v -3.250000 3.000000 3.000000
v -4.000000 3.000000 3.000000
v -3.250000 3.000000 2.733108
v -4.000000 3.000000 2.733108
v -4.000000 -3.000000 1.463928
v -3.250000 -3.000000 1.463928
v -4.000000 -3.000000 1.463928
v -4.000000 -3.000000 0.972748
v -3.250000 -3.000000 0.972748
v -3.250000 -3.000000 1.463928
v -3.250000 -3.000000 0.972748
v -3.250000 -4.000000 0.972748
v -3.250000 -4.000000 0.000000
v -3.250000 -3.000000 0.000000
v -3.250000 -3.000000 0.972748
v -4.000000 -3.000000 0.972748
v -4.000000 -4.000000 0.972748
v -3.250000 -4.000000 0.972748
v -4.000000 -3.000000 0.972748
v -4.000000 -3.000000 0.000000
v -4.000000 -4.000000 0.000000
v -4.000000 -4.000000 0.972748
v -4.000000 -4.000000 0.972748
v -4.000000 -4.000000 0.000000
v -3.250000 -4.000000 0.000000
v -3.250000 -4.000000 0.972748
v -4.000000 -3.000000 1.463928
v -3.250000 -3.000000 0.000000
v 4.000000 4.000000 2.733108
v 3.250000 4.000000 2.733108
v 3.250000 4.000000 3.000000
v 4.000000 4.000000 3.000000
v 4.000000 4.000000 0.000000
v 4.000000 4.000000 2.733108
v 4.000000 3.000000 2.733108
v 4.000000 3.000000 0.000000
v 4.000000 -3.000000 0.972748
v 4.000000 -3.000000 0.000000
v 3.250000 4.000000 2.733108
v 3.250000 4.000000 0.000000
v 3.250000 3.000000 0.000000
v 3.250000 3.000000 2.733108
v 3.250000 -3.000000 0.000000
v 3.250000 -3.000000 0.972748
v 4.000000 4.000000 3.000000
v 3.250000 4.000000 3.000000
v 3.250000 3.000000 3.000000
v 4.000000 3.000000 3.000000
v 3.250000 4.000000 2.733108
v 4.000000 4.000000 2.733108
v 4.000000 4.000000 0.000000
v 3.250000 4.000000 0.000000
v 4.000000 4.000000 3.000000
v 4.000000 3.000000 3.000000
v 4.000000 3.000000 2.733108
v 4.000000 4.000000 2.733108
v 3.250000 4.000000 3.000000
v 3.250000 4.000000 2.733108
v 3.250000 3.000000 2.733108
v 3.250000 3.000000 3.000000
v 3.250000 3.000000 2.733108
v 4.000000 3.000000 2.733108
v 4.000000 3.000000 3.000000
v 3.250000 3.000000 3.000000
v 4.000000 3.000000 2.733108
v 3.250000 3.000000 2.733108
v 3.250000 -3.000000 1.463928
v 4.000000 -3.000000 1.463928
v 3.250000 -3.000000 0.972748
v 3.250000 -3.000000 0.000000
v 3.250000 -4.000000 0.000000
v 3.250000 -4.000000 0.972748
v 4.000000 -3.000000 0.972748
v 4.000000 -4.000000 0.972748
v 4.000000 -4.000000 0.000000
v 4.000000 -3.000000 0.000000
v 3.250000 -3.000000 0.972748
v 3.250000 -4.000000 0.972748
v 4.000000 -4.000000 0.972748
v 4.000000 -3.000000 0.972748
v 3.250000 -3.000000 0.972748
v 4.000000 -3.000000 0.972748
v 4.000000 -3.000000 1.463928
v 3.250000 -3.000000 1.463928
v 4.000000 -4.000000 0.972748
v 3.250000 -4.000000 0.972748
v 3.250000 -4.000000 0.000000
v 4.000000 -4.000000 0.000000
v 4.000000 -3.000000 1.463928
v 3.250000 -3.000000 1.463928
v -3.250000 4.000000 1.604910
v -3.250000 4.000000 2.064495
v 3.250000 4.000000 2.064495
v 3.250000 4.000000 1.604910
v -3.250000 4.000000 2.064495
v 0.000000 3.000000 2.020907
v 3.250000 3.000000 2.013025
v 3.250000 4.000000 2.064495
v 3.250000 3.000000 1.760360
v 3.250000 3.000000 2.013025
v 0.000000 3.000000 2.020907
v 0.000000 3.000000 1.757897
v -3.250000 3.000000 2.013025
v -3.250000 3.000000 1.760360
v -3.250000 3.000000 1.760360
v -3.250000 2.000000 1.760360
v 0.000000 2.000000 1.717515
v 0.000000 3.000000 1.757897
v 3.250000 2.000000 1.760360
v 3.250000 3.000000 1.760360
v -3.250000 2.000000 1.760360
v -3.250000 2.000000 1.493794
v 0.000000 2.000000 1.478210
v 0.000000 2.000000 1.717515
v 3.250000 2.000000 1.493794
v 3.250000 2.000000 1.760360
v -3.250000 2.000000 1.493794
v -3.250000 1.000000 1.493794
v 0.000000 1.000000 1.394843
v 0.000000 2.000000 1.478210
v 3.250000 1.000000 1.493794
v 3.250000 2.000000 1.493794
v -3.250000 1.000000 1.493794
v -3.250000 1.000000 1.241130
v 0.000000 1.000000 1.160019
v 0.000000 1.000000 1.394843
v 3.250000 1.000000 1.241130
v 3.250000 1.000000 1.493794
v -3.250000 1.000000 1.241130
v -3.250000 0.000000 1.241130
v 0.000000 0.000000 1.160019
v 0.000000 1.000000 1.160019
v 3.250000 0.000000 1.241130
v 3.250000 1.000000 1.241130
v -0.476393 0.000000 1.016884
v -3.250000 0.000000 1.016884
v -3.250000 -1.000000 1.016884
v -0.564280 -1.000000 1.016884
v 3.250000 0.000000 1.016884
v -0.476393 0.000000 1.016884
v -0.564280 -1.000000 1.016884
v 3.250000 -1.000000 1.016884
v 3.250000 0.000000 1.016884
v 3.250000 0.000000 1.241130
v -0.476393 0.000000 1.016884
v 0.000000 0.000000 1.160019
v -3.250000 0.000000 1.241130
v -0.382995 -0.983382 0.750224
v -0.564280 -1.000000 1.016884
v -3.250000 -1.000000 1.016884
v -3.250000 -1.000000 0.764220
v -0.564280 -1.000000 1.016884
v 2.163469 -1.000000 0.764220
v 3.250000 -1.000000 0.764220
v 3.250000 -1.000000 1.016884
v 0.753966 -1.353983 0.764220
v -0.382995 -0.983382 0.750224
v -0.168913 -1.771357 0.694932
v 0.325518 -1.616411 0.729576
v -3.250000 -1.000000 0.764220
v -3.250000 -2.000000 0.764220
v 2.163469 -1.000000 0.764220
v 2.136898 -1.053288 0.677302
v 3.149697 -1.271167 0.660393
v 3.250000 -1.233741 0.764220
v 2.163469 -1.000000 0.764220
v 0.753966 -1.353983 0.764220
v 0.816593 -1.365282 0.677302
v 2.136898 -1.053288 0.677302
v 3.149697 -1.271167 0.660393
v 0.816593 -1.365282 0.677302
v 3.250000 -2.000000 0.491181
v 0.334729 -1.659713 0.607396
v -0.213118 -1.846661 0.421893
v 0.816593 -1.365282 0.677302
v 0.753966 -1.353983 0.764220
v 0.325518 -1.616411 0.729576
v 0.334729 -1.659713 0.607396
v -0.168913 -1.771357 0.694932
v -0.213118 -1.846661 0.421893
v -0.213118 -1.846661 0.421893
v -0.168913 -1.771357 0.694932
v -3.250000 -2.000000 0.764220
v -3.250000 -2.000000 0.491181
v -3.250000 -2.000000 0.491181
v -3.250000 -3.000000 0.491181
v -0.072225 -3.000000 0.421893
v -0.213118 -1.846661 0.421893
v 1.058210 -3.000000 0.421893
v 1.343440 -2.851616 0.421893
v 3.250000 -2.000000 0.491181
v 2.364858 -2.610202 0.491181
v 3.250000 -2.859160 0.432881
v 3.250000 -2.859160 0.432881
v 1.343440 -2.851616 0.363593
v 1.058210 -3.000000 0.363593
v 3.250000 -3.000000 0.432881
v 2.364858 -2.610202 0.432881
v 2.364858 -2.610202 0.491181
v 1.343440 -2.851616 0.421893
v 1.343440 -2.851616 0.363593
v 1.058210 -3.000000 0.421893
v 1.058210 -3.000000 0.363593
v 3.250000 -3.000000 0.238516
v 3.250000 -3.000000 0.432881
v -0.094565 -3.000000 0.169228
v 1.058210 -3.000000 0.363593
v -0.072225 -3.000000 0.421893
v -3.250000 -3.000000 0.238516
v -3.250000 -4.000000 0.238516
v -0.213627 -4.000000 0.238516
v -0.094565 -3.000000 0.169228
v 3.250000 -4.000000 0.238516
v 3.250000 -3.000000 0.238516
v -3.250000 -4.000000 0.238516
v -3.250000 -4.000000 0.000000
v -0.213627 -4.000000 0.238516
v 3.250000 -4.000000 0.000000
v 3.250000 -4.000000 0.238516
v -3.250000 3.000000 2.013025
v -3.250000 0.000000 1.016884
v 2.136898 -1.053288 0.677302
v 1.058210 -3.000000 0.421893
v -3.250000 -3.000000 0.491181
v -3.250000 -3.000000 0.238516
v 3.250000 -2.859160 0.432881
v 2.364858 -2.610202 0.432881
v 2.163469 -1.000000 0.764220
v 3.250000 -1.233741 0.764220
v 3.250000 -1.000000 0.764220
v 2.163469 -1.000000 0.764220
v -0.382995 -0.983382 0.750224
v -3.250000 4.000000 3.000000
v -3.250000 4.000000 3.000000
v -3.250000 3.000000 3.000000
v -3.250000 3.000000 3.000000
v -3.250000 3.000000 3.000000
v -3.250000 3.000000 2.733108
v -3.250000 3.000000 2.733108
v -3.250000 4.000000 2.733108
v -3.250000 4.000000 2.733108
v -4.000000 4.000000 3.000000
v -4.000000 4.000000 3.000000
v -4.000000 4.000000 2.733108
v -4.000000 4.000000 2.733108
v -4.000000 3.000000 2.733108
v -4.000000 3.000000 2.733108
v -4.000000 3.000000 2.733108
v -4.000000 3.000000 3.000000
v -4.000000 3.000000 3.000000
v -3.250000 4.000000 2.733108
v -3.250000 4.000000 2.733108
v -4.000000 4.000000 2.733108
v -4.000000 4.000000 2.733108
v -4.000000 4.000000 3.000000
v -4.000000 4.000000 3.000000
v -3.250000 4.000000 3.000000
v -3.250000 4.000000 3.000000
v -4.000000 4.000000 2.733108
v -4.000000 4.000000 2.733108
v -4.000000 4.000000 2.733108
v -4.000000 4.000000 0.000000
v -4.000000 3.000000 2.733108
v -4.000000 3.000000 2.733108
v -4.000000 3.000000 2.733108
v -4.000000 3.000000 2.733108
v -4.000000 3.000000 2.733108
v -3.250000 4.000000 2.733108
v -3.250000 4.000000 2.733108
v -3.250000 4.000000 0.000000
v -4.000000 4.000000 2.733108
v -4.000000 4.000000 2.733108
v -3.250000 4.000000 3.000000
v -3.250000 4.000000 3.000000
v -3.250000 4.000000 3.000000
v -4.000000 4.000000 3.000000
v -4.000000 4.000000 3.000000
v -4.000000 3.000000 3.000000
v -4.000000 3.000000 3.000000
v -3.250000 3.000000 3.000000
v -3.250000 3.000000 3.000000
v -3.250000 3.000000 3.000000
v -3.250000 4.000000 0.000000
v -3.250000 4.000000 2.733108
v -3.250000 4.000000 2.733108
v -3.250000 3.000000 2.733108
v -3.250000 3.000000 2.733108
v -3.250000 3.000000 2.733108
v -3.250000 -3.000000 1.463928
v -3.250000 -3.000000 1.463928
v -3.250000 -3.000000 1.463928
v -3.250000 -3.000000 0.972748
v -3.250000 -3.000000 0.972748
v -3.250000 -3.000000 0.972748
v -4.000000 3.000000 2.733108
v -4.000000 3.000000 2.733108
v -3.250000 3.000000 2.733108
v -3.250000 3.000000 2.733108
v -3.250000 3.000000 2.733108
v -3.250000 3.000000 3.000000
v -3.250000 3.000000 3.000000
v -4.000000 3.000000 3.000000
v -4.000000 3.000000 3.000000
v -4.000000 3.000000 3.000000
v -3.250000 3.000000 2.733108
v -3.250000 3.000000 2.733108
v -3.250000 3.000000 2.733108
v -4.000000 3.000000 2.733108
v -4.000000 3.000000 2.733108
v -4.000000 3.000000 2.733108
v -4.000000 -3.000000 1.463928
v -4.000000 -3.000000 1.463928
v -4.000000 -3.000000 1.463928
v -3.250000 -3.000000 1.463928
v -3.250000 -3.000000 1.463928
v -4.000000 -3.000000 1.463928
v -4.000000 -3.000000 1.463928
v -4.000000 -3.000000 0.972748
v -4.000000 -3.000000 0.972748
v -3.250000 -3.000000 0.972748
v -3.250000 -3.000000 0.972748
v -3.250000 -3.000000 1.463928
v -3.250000 -3.000000 1.463928
v -3.250000 -3.000000 0.972748
v -3.250000 -3.000000 0.972748
v -3.250000 -4.000000 0.972748
v -3.250000 -4.000000 0.972748
v -3.250000 -4.000000 0.972748
v -3.250000 -4.000000 0.000000
v -3.250000 -3.000000 0.000000
v -3.250000 -3.000000 0.972748
v -3.250000 -3.000000 0.972748
v -3.250000 -3.000000 0.972748
v -4.000000 -3.000000 0.972748
v -4.000000 -3.000000 0.972748
v -4.000000 -4.000000 0.972748
v -4.000000 -4.000000 0.972748
v -4.000000 -4.000000 0.972748
v -3.250000 -4.000000 0.972748
v -3.250000 -4.000000 0.972748
v -4.000000 -3.000000 0.972748
v -4.000000 -3.000000 0.972748
v -4.000000 -3.000000 0.972748
v -4.000000 -4.000000 0.972748
v -4.000000 -4.000000 0.972748
v -4.000000 -4.000000 0.000000
v -3.250000 -4.000000 0.000000
v -3.250000 -4.000000 0.972748
v -3.250000 -4.000000 0.972748
v -3.250000 -3.000000 0.000000
v 4.000000 4.000000 2.733108
v 4.000000 4.000000 2.733108
v 3.250000 4.000000 2.733108
v 3.250000 4.000000 2.733108
v 3.250000 4.000000 3.000000
v 3.250000 4.000000 3.000000
v 4.000000 4.000000 3.000000
v 4.000000 4.000000 3.000000
v 4.000000 4.000000 3.000000
v 4.000000 4.000000 0.000000
v 4.000000 4.000000 2.733108
v 4.000000 4.000000 2.733108
v 4.000000 3.000000 2.733108
v 4.000000 3.000000 2.733108
v 4.000000 3.000000 2.733108
v 4.000000 3.000000 2.733108
v 4.000000 3.000000 2.733108
v 3.250000 4.000000 2.733108
v 3.250000 4.000000 2.733108
v 3.250000 4.000000 0.000000
v 3.250000 3.000000 2.733108
v 3.250000 3.000000 2.733108
v 3.250000 3.000000 2.733108
v 3.250000 3.000000 2.733108
v 3.250000 -3.000000 0.972748
v 3.250000 -3.000000 0.972748
v 3.250000 -3.000000 0.972748
v 4.000000 4.000000 3.000000
v 4.000000 4.000000 3.000000
v 4.000000 4.000000 3.000000
v 3.250000 4.000000 3.000000
v 3.250000 4.000000 3.000000
v 3.250000 4.000000 3.000000
v 4.000000 3.000000 3.000000
v 4.000000 3.000000 3.000000
v 3.250000 4.000000 2.733108
v 3.250000 4.000000 2.733108
v 4.000000 4.000000 2.733108
v 4.000000 4.000000 2.733108
v 3.250000 4.000000 0.000000
v 4.000000 4.000000 3.000000
v 4.000000 4.000000 3.000000
v 4.000000 3.000000 3.000000
v 4.000000 3.000000 3.000000
v 4.000000 3.000000 3.000000
v 4.000000 3.000000 2.733108
v 4.000000 3.000000 2.733108
v 4.000000 4.000000 2.733108
v 4.000000 4.000000 2.733108
v 4.000000 4.000000 2.733108
v 3.250000 4.000000 3.000000
v 3.250000 4.000000 3.000000
v 3.250000 4.000000 2.733108
v 3.250000 4.000000 2.733108
v 3.250000 3.000000 2.733108
v 3.250000 3.000000 2.733108
v 3.250000 3.000000 3.000000
v 3.250000 3.000000 3.000000
v 3.250000 3.000000 2.733108
v 3.250000 3.000000 2.733108
v 4.000000 3.000000 2.733108
v 4.000000 3.000000 2.733108
v 4.000000 3.000000 3.000000
v 4.000000 3.000000 3.000000
v 3.250000 3.000000 3.000000
v 3.250000 3.000000 3.000000
v 4.000000 3.000000 2.733108
v 4.000000 3.000000 2.733108
v 3.250000 3.000000 2.733108
v 3.250000 3.000000 2.733108
v 3.250000 -3.000000 1.463928
v 3.250000 -3.000000 1.463928
v 4.000000 -3.000000 1.463928
v 4.000000 -3.000000 1.463928
v 4.000000 -3.000000 1.463928
v 3.250000 -4.000000 0.000000
v 3.250000 -4.000000 0.972748
v 3.250000 -4.000000 0.972748
v 4.000000 -3.000000 0.972748
v 4.000000 -3.000000 0.972748
v 4.000000 -4.000000 0.972748
v 4.000000 -4.000000 0.972748
v 4.000000 -4.000000 0.972748
v 4.000000 -4.000000 0.000000
v 4.000000 -3.000000 0.000000
v 3.250000 -3.000000 0.972748
v 3.250000 -3.000000 0.972748
v 3.250000 -3.000000 0.972748
v 3.250000 -4.000000 0.972748
v 3.250000 -4.000000 0.972748
v 4.000000 -4.000000 0.972748
v 4.000000 -4.000000 0.972748
v 4.000000 -4.000000 0.972748
v 4.000000 -3.000000 0.972748
v 4.000000 -3.000000 0.972748
v 4.000000 -3.000000 0.972748
v 3.250000 -3.000000 0.972748
v 3.250000 -3.000000 0.972748
v 4.000000 -3.000000 0.972748
v 4.000000 -3.000000 0.972748
v 4.000000 -3.000000 0.972748
v 4.000000 -3.000000 1.463928
v 4.000000 -3.000000 1.463928
v 3.250000 -3.000000 1.463928
v 3.250000 -3.000000 1.463928
v 3.250000 -3.000000 1.463928
v 4.000000 -4.000000 0.972748
v 4.000000 -4.000000 0.972748
v 3.250000 -4.000000 0.972748
v 3.250000 -4.000000 0.972748
v 3.250000 -4.000000 0.972748
v 3.250000 -4.000000 0.000000
v 4.000000 -4.000000 0.000000
v 3.250000 -3.000000 1.463928
v 3.250000 -3.000000 1.463928
v -3.250000 4.000000 2.064495
v 3.250000 4.000000 2.064495
v -3.250000 4.000000 2.064495
v -3.250000 4.000000 2.064495
v 0.000000 3.000000 2.020907
v 0.000000 3.000000 2.020907
v 0.000000 3.000000 2.020907
v 0.000000 3.000000 2.020907
v 3.250000 3.000000 2.013025
v 3.250000 3.000000 2.013025
v 3.250000 4.000000 2.064495
v 3.250000 3.000000 1.760360
v 3.250000 3.000000 1.760360
v 3.250000 3.000000 2.013025
v 0.000000 3.000000 2.020907
v 0.000000 3.000000 2.020907
v 0.000000 3.000000 2.020907
v 0.000000 3.000000 2.020907
v 0.000000 3.000000 1.757897
v 0.000000 3.000000 1.757897
v 0.000000 3.000000 1.757897
v 0.000000 3.000000 1.757897
v -3.250000 3.000000 2.013025
v -3.250000 3.000000 2.013025
v -3.250000 3.000000 1.760360
v -3.250000 3.000000 1.760360
v -3.250000 3.000000 1.760360
v -3.250000 2.000000 1.760360
v 0.000000 2.000000 1.717515
v 0.000000 2.000000 1.717515
v 0.000000 2.000000 1.717515
v 0.000000 2.000000 1.717515
v 0.000000 3.000000 1.757897
v 0.000000 3.000000 1.757897
v 0.000000 3.000000 1.757897
v 0.000000 3.000000 1.757897
v 3.250000 2.000000 1.760360
v 3.250000 2.000000 1.760360
v -3.250000 2.000000 1.760360
v -3.250000 2.000000 1.760360
v 0.000000 2.000000 1.478210
v 0.000000 2.000000 1.478210
v 0.000000 2.000000 1.478210
v 0.000000 2.000000 1.478210
v 0.000000 2.000000 1.717515
v 0.000000 2.000000 1.717515
v 0.000000 2.000000 1.717515
v 0.000000 2.000000 1.717515
v 3.250000 2.000000 1.493794
v 3.250000 2.000000 1.493794
v -3.250000 2.000000 1.493794
v -3.250000 2.000000 1.493794
v -3.250000 1.000000 1.493794
v 0.000000 1.000000 1.394843
v 0.000000 1.000000 1.394843
v 0.000000 1.000000 1.394843
v 0.000000 1.000000 1.394843
v 0.000000 2.000000 1.478210
v 0.000000 2.000000 1.478210
v 0.000000 2.000000 1.478210
v 0.000000 2.000000 1.478210
v 3.250000 1.000000 1.493794
v 3.250000 1.000000 1.493794
v -3.250000 1.000000 1.493794
v -3.250000 1.000000 1.493794
v 0.000000 1.000000 1.394843
v 0.000000 1.000000 1.394843
v 0.000000 1.000000 1.394843
v 0.000000 1.000000 1.394843
v 3.250000 1.000000 1.493794
v -3.250000 1.000000 1.241130
v -3.250000 0.000000 1.241130
v 0.000000 0.000000 1.160019
v 0.000000 0.000000 1.160019
v 0.000000 0.000000 1.160019
v 0.000000 0.000000 1.160019
v 0.000000 1.000000 1.160019
v 0.000000 1.000000 1.160019
v 0.000000 1.000000 1.160019
v 3.250000 0.000000 1.241130
v 3.250000 0.000000 1.241130
v 3.250000 1.000000 1.241130
v -3.250000 -1.000000 1.016884
v -0.564280 -1.000000 1.016884
v -0.564280 -1.000000 1.016884
v -0.564280 -1.000000 1.016884
v -0.564280 -1.000000 1.016884
v -0.564280 -1.000000 1.016884
v 3.250000 -1.000000 1.016884
v 3.250000 -1.000000 1.016884
v 3.250000 0.000000 1.016884
v -0.476393 0.000000 1.016884
v -0.476393 0.000000 1.016884
v -0.476393 0.000000 1.016884
v -0.476393 0.000000 1.016884
v -0.476393 0.000000 1.016884
v 0.000000 0.000000 1.160019
v 0.000000 0.000000 1.160019
v 0.000000 0.000000 1.160019
v 0.000000 0.000000 1.160019
v -3.250000 0.000000 1.241130
v -3.250000 0.000000 1.241130
v -3.250000 0.000000 1.241130
v -0.382995 -0.983382 0.750224
v -0.382995 -0.983382 0.750224
v -3.250000 -1.000000 1.016884
v -3.250000 -1.000000 1.016884
v -3.250000 -1.000000 0.764220
v -0.564280 -1.000000 1.016884
v -0.564280 -1.000000 1.016884
v -0.564280 -1.000000 1.016884
v -0.564280 -1.000000 1.016884
v 2.163469 -1.000000 0.764220
v 2.163469 -1.000000 0.764220
v 2.163469 -1.000000 0.764220
v 3.250000 -1.000000 0.764220
v 0.753966 -1.353983 0.764220
v 0.753966 -1.353983 0.764220
v 0.753966 -1.353983 0.764220
v -0.382995 -0.983382 0.750224
v -0.382995 -0.983382 0.750224
v -0.382995 -0.983382 0.750224
v -0.382995 -0.983382 0.750224
v 0.325518 -1.616411 0.729576
v 0.325518 -1.616411 0.729576
v 0.325518 -1.616411 0.729576
v -3.250000 -1.000000 0.764220
v 2.163469 -1.000000 0.764220
v 2.163469 -1.000000 0.764220
v 2.136898 -1.053288 0.677302
v 2.136898 -1.053288 0.677302
v 3.149697 -1.271167 0.660393
v 2.163469 -1.000000 0.764220
v 2.163469 -1.000000 0.764220
v 0.753966 -1.353983 0.764220
v 0.753966 -1.353983 0.764220
v 0.753966 -1.353983 0.764220
v 0.816593 -1.365282 0.677302
v 0.816593 -1.365282 0.677302
v 0.816593 -1.365282 0.677302
v 2.136898 -1.053288 0.677302
v 2.136898 -1.053288 0.677302
v 3.149697 -1.271167 0.660393
v 3.149697 -1.271167 0.660393
v 0.816593 -1.365282 0.677302
v 0.816593 -1.365282 0.677302
v 0.816593 -1.365282 0.677302
v 0.816593 -1.365282 0.677302
v 3.250000 -2.000000 0.491181
v 3.250000 -2.000000 0.491181
v 3.250000 -2.000000 0.491181
v -0.213118 -1.846661 0.421893
v -0.213118 -1.846661 0.421893
v 0.753966 -1.353983 0.764220
v 0.753966 -1.353983 0.764220
v 0.753966 -1.353983 0.764220
v 0.325518 -1.616411 0.729576
v 0.325518 -1.616411 0.729576
v 0.325518 -1.616411 0.729576
v -0.168913 -1.771357 0.694932
v -0.168913 -1.771357 0.694932
v -0.168913 -1.771357 0.694932
v -0.213118 -1.846661 0.421893
v -0.213118 -1.846661 0.421893
v -0.213118 -1.846661 0.421893
v -0.213118 -1.846661 0.421893
v -0.213118 -1.846661 0.421893
v -0.168913 -1.771357 0.694932
v -0.168913 -1.771357 0.694932
v -0.168913 -1.771357 0.694932
v -3.250000 -2.000000 0.491181
v -3.250000 -2.000000 0.491181
v -3.250000 -3.000000 0.491181
v -0.072225 -3.000000 0.421893
v -0.072225 -3.000000 0.421893
v -0.072225 -3.000000 0.421893
v -0.072225 -3.000000 0.421893
v -0.213118 -1.846661 0.421893
v -0.213118 -1.846661 0.421893
v -0.213118 -1.846661 0.421893
v -0.213118 -1.846661 0.421893
v 1.058210 -3.000000 0.421893
v 1.058210 -3.000000 0.421893
v 1.343440 -2.851616 0.421893
v 1.343440 -2.851616 0.421893
v 1.343440 -2.851616 0.421893
v 1.343440 -2.851616 0.421893
v 1.343440 -2.851616 0.421893
v 3.250000 -2.000000 0.491181
v 3.250000 -2.000000 0.491181
v 3.250000 -2.000000 0.491181
v 2.364858 -2.610202 0.491181
v 2.364858 -2.610202 0.491181
v 2.364858 -2.610202 0.491181
v 2.364858 -2.610202 0.491181
v 3.250000 -2.859160 0.432881
v 3.250000 -2.859160 0.432881
v 1.343440 -2.851616 0.363593
v 1.343440 -2.851616 0.363593
v 1.343440 -2.851616 0.363593
v 1.058210 -3.000000 0.363593
v 1.058210 -3.000000 0.363593
v 1.058210 -3.000000 0.363593
v 2.364858 -2.610202 0.432881
v 2.364858 -2.610202 0.432881
v 2.364858 -2.610202 0.432881
v 2.364858 -2.610202 0.491181
v 2.364858 -2.610202 0.491181
v 2.364858 -2.610202 0.491181
v 2.364858 -2.610202 0.491181
v 1.343440 -2.851616 0.421893
v 1.343440 -2.851616 0.421893
v 1.343440 -2.851616 0.421893
v 1.343440 -2.851616 0.421893
v 1.343440 -2.851616 0.363593
v 1.343440 -2.851616 0.363593
v 1.343440 -2.851616 0.363593
v 1.343440 -2.851616 0.363593
v 1.058210 -3.000000 0.421893
v 1.058210 -3.000000 0.421893
v 1.058210 -3.000000 0.421893
v 1.058210 -3.000000 0.363593
v 1.058210 -3.000000 0.363593
v 3.250000 -3.000000 0.238516
v 3.250000 -3.000000 0.238516
v -0.094565 -3.000000 0.169228
v -0.094565 -3.000000 0.169228
v -0.094565 -3.000000 0.169228
v -0.094565 -3.000000 0.169228
v -0.094565 -3.000000 0.169228
v -0.094565 -3.000000 0.169228
v 1.058210 -3.000000 0.363593
v 1.058210 -3.000000 0.363593
v 1.058210 -3.000000 0.363593
v 1.058210 -3.000000 0.363593
v -3.250000 -3.000000 0.238516
v -3.250000 -3.000000 0.238516
v -0.094565 -3.000000 0.169228
v -0.094565 -3.000000 0.169228
v -0.094565 -3.000000 0.169228
v -0.094565 -3.000000 0.169228
v 3.250000 -3.000000 0.238516
v -3.250000 0.000000 1.016884
v 2.136898 -1.053288 0.677302
v 2.136898 -1.053288 0.677302
v 1.058210 -3.000000 0.421893
v 1.058210 -3.000000 0.421893
v -3.250000 -3.000000 0.491181
v -3.250000 -3.000000 0.491181
v -3.250000 -3.000000 0.238516
v -3.250000 -3.000000 0.238516
v 3.250000 -2.859160 0.432881
v 3.250000 -2.859160 0.432881
v 3.250000 -2.859160 0.432881
v 2.364858 -2.610202 0.432881
v 2.364858 -2.610202 0.432881
v 2.364858 -2.610202 0.432881
v 2.163469 -1.000000 0.764220
v 2.163469 -1.000000 0.764220
v 2.163469 -1.000000 0.764220
v 3.250000 -1.000000 0.764220
v 2.163469 -1.000000 0.764220
v 2.163469 -1.000000 0.764220
v -0.382995 -0.983382 0.750224
v -0.382995 -0.983382 0.750224
vn 1.0000 -0.0000 -0.0000
vn -1.0000 -0.0000 -0.0000
vn -0.0000 1.0000 -0.0000
vn -0.0000 -0.0000 1.0000
vn -0.0000 -1.0000 -0.0000
vn -0.0000 -0.2070 0.9784
vn -0.0012 -0.0475 0.9989
vn -0.0000 -0.0488 0.9988
vn 0.0012 -0.0475 0.9989
vn 0.0024 -0.0514 0.9987
vn 0.0070 -0.0202 0.9998
vn -0.0000 -0.0202 0.9998
vn -0.0070 -0.0202 0.9998
vn 0.0176 -0.0416 0.9990
vn -0.0000 -0.0416 0.9991
vn -0.0000 -0.0417 0.9991
vn -0.0176 -0.0416 0.9990
vn 0.0249 -0.0000 0.9997
vn -0.0249 -0.0000 0.9997
vn 0.0004 -0.9996 -0.0273
vn 0.0029 -0.9995 -0.0310
vn -0.0022 -0.9997 -0.0236
vn -0.0207 -0.0258 0.9995
vn -0.0176 -0.0407 0.9990
vn -0.0401 -0.0774 0.9962
vn -0.0145 -0.0555 0.9984
vn 0.0152 -0.0291 0.9995
vn 0.0110 -0.0000 0.9999
vn 0.0167 -0.6756 0.7370
vn 0.0128 -0.5961 0.8028
vn -0.1012 -0.4815 0.8706
vn -0.1136 -0.5795 0.8070
vn 0.0168 -0.6757 0.7370
vn 0.3393 -0.8620 0.3766
vn 0.0128 -0.5960 0.8029
vn 0.2052 -0.6018 0.7718
vn -0.1136 -0.5794 0.8071
vn -0.0026 -0.2299 0.9732
vn 0.2053 -0.6018 0.7718
vn 0.1868 -0.7302 0.6572
vn 0.1867 -0.7301 0.6573
vn 0.0458 -0.4456 0.8941
vn 0.2053 -0.6017 0.7719
vn 0.3395 -0.8619 0.3767
vn 0.3560 -0.8796 0.3155
vn 0.3558 -0.8797 0.3155
vn 0.0458 -0.4454 0.8942
vn 0.1593 -0.9676 0.1958
vn 0.0459 -0.4454 0.8942
vn 0.1591 -0.9676 0.1958
vn 0.0647 -0.9893 0.1311
vn 0.0648 -0.9893 0.1311
vn 0.0222 0.0015 0.9998
vn 0.0223 0.0013 0.9998
vn 0.0458 -0.4455 0.8941
vn 0.0111 0.0007 0.9999
vn 0.0459 -0.4454 0.8941
vn -0.0153 -0.0064 0.9999
vn -0.0026 -0.2298 0.9732
vn -0.0154 -0.0062 0.9999
vn 0.0079 -0.0401 0.9992
vn -0.0025 -0.2298 0.9732
vn 0.0080 -0.0402 0.9992
vn 0.0466 -0.0676 0.9966
vn -0.0351 -0.0391 0.9986
vn -0.0351 -0.0390 0.9986
vn -0.0209 -0.9998 -0.0000
vn 0.3483 -0.9374 -0.0000
vn 0.3485 -0.9373 -0.0000
vn 0.1180 -0.9930 0.0002
vn 0.2377 -0.9713 -0.0000
vn 0.1178 -0.9930 -0.0000
vn 0.0112 0.0339 0.9994
vn 0.0088 0.0068 0.9999
vn 0.0005 0.0346 0.9994
vn -0.0102 0.0352 0.9993
vn -0.0024 -0.0514 0.9987
vn 0.2053 -0.6019 0.7717
vn 0.0129 -0.5960 0.8029
vn 0.2374 -0.9714 -0.0000
vn -0.2708 -0.9626 -0.0000
vn -0.0212 -0.9998 -0.0000
vn -0.0351 -0.0392 0.9986
vn -0.0054 0.0213 0.9998
vn -0.0176 -0.0406 0.9990
vn 0.0001 -1.0000 -0.0000
vn 0.1464 0.3535 -0.9239
vn -0.1464 -0.3535 -0.9239
vn -0.0000 -0.0000 -0.0000
vn 1.0000 0.0001 -0.0000
vn -1.0000 -0.0001 -0.0000
vn -0.0000 -0.8559 -0.5171
vn 0.0001 0.2847 -0.9586
vn 1.0000 -0.0000 0.0024
vn 1.0000 0.0001 -0.0048
vn 1.0000 -0.0000 -0.0024
vn -1.0000 -0.0001 0.0048
vn 1.0000 0.0001 0.0048
vn 1.0000 -0.0000 -0.0048
vn 0.9999 -0.0066 -0.0116
vn -1.0000 0.0066 -0.0043
vn -0.7764 -0.0712 0.6262
vn -0.9389 -0.0860 -0.3332
vn 0.9539 -0.2053 0.2188
vn 0.9765 -0.2101 -0.0477
vn -0.9699 -0.2436 -0.0000
vn 0.9699 0.2436 -0.0000
vn 0.9699 0.2437 -0.0000
vn -0.9296 -0.2197 -0.2960
vn -0.9667 -0.2285 -0.1155
vn -0.8872 -0.4615 -0.0000
vn -0.8871 -0.4615 -0.0000
vn -0.8871 -0.4616 -0.0000
vn -0.9626 0.2708 -0.0000
vn 0.9627 -0.2707 -0.0000
vn 0.9626 -0.2708 -0.0000
vn -0.9627 0.2707 -0.0000
vn 0.9622 -0.2706 -0.0316
vn 0.9607 -0.2701 0.0632
vn 0.9622 -0.2707 0.0316
vn 0.9607 -0.2702 -0.0632
vn 0.9727 0.2299 0.0329
vn -0.9711 -0.2295 -0.0658
vn -0.9727 -0.2299 -0.0329
vn 0.9711 0.2295 0.0658
vn 0.9999 -0.0000 0.0110
vn 0.9998 -0.0000 -0.0219
vn 0.9999 -0.0000 -0.0110
vn 0.9998 0.0001 0.0219
vn 0.9999 -0.0000 -0.0103
vn 0.9998 -0.0000 0.0207
vn 0.9999 -0.0000 0.0103
vn 0.9998 0.0001 -0.0207
vn 0.9999 -0.0000 -0.0109
vn 0.9998 0.0001 0.0218
vn 0.9999 -0.0000 0.0109
vn -0.9998 -0.0001 -0.0218
vn 0.9691 0.2290 -0.0912
vn -0.9691 -0.2290 -0.0912
vn 0.9736 -0.2094 -0.0907
vn 0.9132 -0.1968 -0.3569
vn 0.9993 -0.0000 0.0372
vn 1.0000 -0.0000 -0.0012
vn -1.0000 -0.0001 0.0024
vn 1.0000 -0.0000 0.0012
vn 1.0000 0.0001 -0.0024
vn -1.0000 -0.0001 -0.0024
vn 1.0000 0.0001 0.0024
vn -0.9544 -0.0000 -0.2985
vn 0.9968 -0.0000 -0.0804
vn 0.9989 -0.0000 0.0469
vn -0.9989 -0.0000 -0.0465
vn 0.9976 -0.0442 0.0540
vn 0.9840 -0.0430 0.1731
vn 0.8498 0.0429 0.5253
vn 0.3983 0.0201 0.9170
vn -0.2080 -0.0154 -0.9780
vn -0.4089 -0.6965 -0.5897
vn -0.1542 -0.2627 0.9525
vn -0.4089 -0.6965 0.5897
vn -0.1542 -0.2627 -0.9525
vn -0.6537 -0.3685 -0.6610
vn -0.9002 -0.3068 -0.3090
vn -0.9537 -0.2988 0.0334
vn -0.9521 -0.2984 -0.0667
vn -0.9537 -0.2989 -0.0334
vn -0.9521 -0.2985 0.0667
vn -0.5993 -0.3670 0.7115
vn -0.8382 -0.5134 0.1838
vn 0.8777 -0.1583 -0.4523
vn 0.5814 -0.1048 0.8068
vn 0.8777 -0.1584 0.4523
vn 0.5814 -0.1049 -0.8068
vn -0.3561 -0.7142 -0.6026
vn -0.3561 -0.7142 0.6026
vn 1.0000 0.0058 -0.0013
vn -0.9999 -0.0058 0.0116
vn 0.9999 -0.0000 -0.0125
vn -0.9997 -0.0001 -0.0249
vn 0.9999 -0.0000 0.0125
vn -0.9997 -0.0000 -0.0249
vn -0.9999 -0.0000 -0.0125
vn -0.9997 -0.0001 0.0249
vn 0.9998 -0.0003 0.0218
vn 0.9999 -0.0000 -0.0154
vn 0.9999 -0.0000 -0.0166
vn 0.9999 -0.0000 0.0166
vn 0.9999 -0.0000 0.0152
vn -0.9995 -0.0000 -0.0304
vn -0.9999 -0.0000 -0.0152
vn -0.9995 -0.0001 0.0304
vn 0.9999 -0.0000 -0.0152
vn 0.9995 0.0001 0.0304
vn -0.9995 -0.0001 -0.0304
vn 1.0000 -0.0000 0.0066
vn -0.9999 -0.0000 -0.0132
vn -1.0000 -0.0000 -0.0066
vn -0.9999 -0.0001 0.0132
vn 1.0000 -0.0000 -0.0066
vn 0.9999 0.0001 0.0132
vn -0.9999 -0.0001 -0.0132
vn 1.0000 -0.0000 0.0004
vn 1.0000 0.0001 -0.0008
vn 1.0000 -0.0000 -0.0004
vn -1.0000 -0.0001 0.0008
vn 1.0000 0.0001 0.0008
vn 1.0000 -0.0000 -0.0008
vn -0.0000 -0.9904 -0.1385
vn -0.0000 0.2475 -0.9689
vn -0.0000 0.9784 0.2069
vn -0.3535 0.1464 -0.9239
vn -0.0000 -0.8081 0.5890
vn -0.0001 1.0000 -0.0000
vn 0.3535 -0.1464 -0.9239
vn -0.0000 -0.9946 -0.1040
vn 0.0001 -0.9784 0.2070
vn -0.0000 -0.9946 0.1040
vn -0.0001 0.9784 -0.2070
vn -0.0000 0.9946 0.1040
vn -0.0000 -0.9784 -0.2070
vt 0.872009 0.182217
vt 0.997009 0.182217
vt 0.872009 0.130907
vt 0.997009 0.130683
vt 0.000000 0.341737
vt 0.000000 0.000771
vt 0.125000 0.342409
vt 0.125000 0.000771
vt 0.875000 0.122365
vt 0.875000 0.000771
vt 0.625596 0.927432
vt 0.625596 0.000000
vt 0.374404 0.913574
vt 0.374404 0.000000
vt 1.596278 0.541946
vt 1.596278 0.744591
vt 1.326735 0.541946
vt 1.326735 0.744591
vt 0.000000 0.341853
vt 0.875000 0.183762
vt 1.322003 0.541946
vt 1.322003 0.744591
vt -0.319025 0.541946
vt -0.319025 0.744591
vt 0.998183 0.183693
vt 0.998183 0.121047
vt 0.866118 0.183693
vt 0.866118 0.121047
vt 0.875000 0.183090
vt 1.000000 0.183090
vt 0.875000 0.061496
vt 1.000000 0.061496
vt -0.328224 0.541946
vt -0.328224 0.744591
vt -0.597767 0.541946
vt -0.597767 0.744591
vt 1.001843 0.182363
vt 1.001843 0.061148
vt 0.855706 0.182363
vt 0.855706 0.061148
vt 0.872892 0.134636
vt 0.997339 0.134092
vt 0.872892 0.180922
vt 0.997339 0.180922
vt 0.000000 -0.000970
vt 0.000000 0.340305
vt 0.125000 -0.000970
vt 0.125000 0.340668
vt 0.875000 -0.000970
vt 0.875000 0.120623
vt 0.000000 0.340194
vt -0.579613 0.741500
vt -0.579613 0.541935
vt -0.314168 0.741500
vt -0.314168 0.541935
vt 0.625596 0.909814
vt 0.374404 0.910111
vt -0.309507 0.741500
vt -0.309507 0.541935
vt 1.306574 0.741500
vt 1.306574 0.541935
vt 0.875000 0.179993
vt 0.875000 0.058399
vt 1.000000 0.179993
vt 1.000000 0.058399
vt 1.315634 0.541935
vt 1.581079 0.541935
vt 1.315634 0.741500
vt 1.581079 0.741500
vt 0.869031 0.121100
vt 0.997180 0.121100
vt 0.869031 0.182027
vt 0.997180 0.182027
vt 0.875000 0.182021
vt 1.112771 0.365367
vt 1.112771 0.428265
vt 0.112771 0.365367
vt 0.112771 0.428265
vt 1.000000 0.369091
vt 0.500000 0.512660
vt 0.000000 0.369091
vt 0.000000 0.512660
vt 1.000000 0.556772
vt 1.000000 0.595643
vt 0.500000 0.556772
vt 0.500000 0.595643
vt 0.000000 0.556772
vt 0.000000 0.595643
vt 1.000000 0.840648
vt 1.000000 0.994494
vt 0.500000 0.840648
vt 0.500000 0.994494
vt 0.000000 0.840648
vt 0.000000 0.994494
vt -0.556756 0.990861
vt -0.556756 0.716511
vt 0.500000 0.990861
vt 0.500000 0.716511
vt 1.556756 0.990861
vt 1.556756 0.716511
vt 1.000000 0.515873
vt 1.000000 0.362027
vt 0.500000 0.515873
vt 0.500000 0.362027
vt 0.000000 0.515873
vt 0.000000 0.362027
vt 0.000000 0.744833
vt 0.000000 0.705961
vt 0.500000 0.744833
vt 0.500000 0.705961
vt 1.000000 0.744833
vt 1.000000 0.705961
vt 0.000000 0.360363
vt 0.000000 0.514209
vt 0.500000 0.360363
vt 0.500000 0.514209
vt 1.000000 0.360363
vt 1.000000 0.514209
vt 0.642093 0.721901
vt 1.000000 0.721901
vt 0.638133 0.875748
vt 1.000000 0.875748
vt 0.000000 0.721901
vt 0.504489 0.721901
vt 0.000000 0.875748
vt 0.535492 0.875748
vt 0.000000 0.277108
vt 0.000000 0.311607
vt 0.573291 0.277108
vt 0.500000 0.311607
vt 1.000000 0.311607
vt 0.550162 0.460267
vt 0.478087 0.540445
vt 0.000000 0.454827
vt 0.000000 0.545173
vt 0.613694 0.539104
vt 1.100324 0.465708
vt 1.321169 0.532108
vt 1.321169 0.467892
vt 0.640521 0.472135
vt 0.478883 0.539206
vt 0.580271 0.424309
vt 0.511728 0.410569
vt 0.025906 0.539521
vt 0.024945 0.381591
vt 0.349410 0.357249
vt 0.333572 0.362494
vt 0.353082 0.216031
vt 0.338691 0.230858
vt 0.349410 0.185509
vt 0.355922 0.388651
vt 0.333572 0.190753
vt 0.341079 0.380445
vt 0.972652 0.515656
vt 0.616033 0.467311
vt 1.000000 0.404911
vt 0.546973 0.422812
vt 0.476112 0.346257
vt 0.387021 0.370192
vt 0.341455 0.357891
vt 0.379092 0.284663
vt 0.336811 0.274353
vt 0.418599 0.155019
vt 0.346319 0.139010
vt 0.485755 0.125724
vt 0.492556 0.167730
vt -0.013465 0.125724
vt -0.013465 0.167730
vt 0.003796 0.549830
vt 0.007120 0.397840
vt 0.464926 0.582993
vt 0.490179 0.408164
vt 0.704896 0.435411
vt 0.662028 0.411912
vt 0.991929 0.571383
vt 0.859398 0.475703
vt 0.994761 0.440620
vt 0.704872 0.435231
vt 0.995230 0.419214
vt 0.662004 0.411733
vt 0.822458 0.457976
vt 0.822458 0.470873
vt 0.590508 0.376553
vt 0.590508 0.389450
vt 0.522407 0.364889
vt 0.522407 0.377786
vt 1.000000 0.362071
vt 1.000000 0.406961
vt 0.485452 0.362071
vt 0.662802 0.396302
vt 0.488888 0.405271
vt 1.000000 0.531939
vt 1.000000 0.378093
vt 0.514548 0.531939
vt 0.532866 0.378093
vt 0.000000 0.531939
vt 0.000000 0.378093
vt 1.000000 0.376968
vt 1.000000 0.340273
vt 0.532866 0.376968
vt 0.000000 0.340273
vt 0.000000 0.376968
vt 1.000000 0.512660
vt 1.000000 0.277108
vt 0.815800 0.531602
vt 0.662802 0.405271
vt 0.000000 0.415931
vt 0.000000 0.362071
vt 1.004624 0.457976
vt 0.859374 0.475524
vt 0.847940 0.549478
vt 1.019385 0.496095
vt 1.019609 0.533010
vt 0.614084 0.460900
s 0
usemtl material1
f 1/1/1 2/2/1 4/3/1
f 3/4/1 4/3/1 2/2/1
f 5/2/2 6/4/2 8/1/2
f 7/3/2 8/1/2 6/4/2
f 9/4/3 10/3/3 12/2/3
f 11/1/3 12/2/3 10/3/3
f 13/5/2 14/6/2 16/7/2
f 15/8/2 16/7/2 14/6/2
f 297/7/2 15/8/2 18/9/2
f 17/10/2 18/9/2 15/8/2
f 19/11/3 20/12/3 22/13/3
f 21/14/3 22/13/3 20/12/3
f 23/15/4 24/16/4 26/17/4
f 25/18/4 26/17/4 24/16/4
f 27/6/1 28/19/1 30/8/1
f 29/7/1 30/8/1 28/19/1
f 30/8/1 320/7/1 32/9/1
f 31/20/1 32/9/1 320/7/1
f 33/4/5 34/3/5 36/2/5
f 35/1/5 36/2/5 34/3/5
f 37/21/6 38/22/6 40/23/6
f 39/24/6 40/23/6 38/22/6
f 41/25/5 42/26/5 44/27/5
f 43/28/5 44/27/5 42/26/5
f 45/29/1 46/30/1 48/31/1
f 47/32/1 48/31/1 46/30/1
f 49/33/4 50/34/4 52/35/4
f 51/36/4 52/35/4 50/34/4
f 53/29/2 54/31/2 56/30/2
f 55/32/2 56/30/2 54/31/2
f 57/37/5 58/38/5 60/39/5
f 59/40/5 60/39/5 58/38/5
f 18/9/2 61/20/2 298/7/2
f 326/9/1 62/10/1 30/8/1
f 63/41/3 64/42/3 66/43/3
f 65/44/3 66/43/3 64/42/3
f 67/45/1 68/46/1 70/47/1
f 69/48/1 70/47/1 68/46/1
f 70/47/1 397/48/1 72/49/1
f 71/50/1 72/49/1 397/48/1
f 73/51/2 74/45/2 76/48/2
f 75/47/2 76/48/2 74/45/2
f 405/48/2 75/47/2 78/50/2
f 77/49/2 78/50/2 75/47/2
f 79/52/4 80/53/4 82/54/4
f 81/55/4 82/54/4 80/53/4
f 83/56/3 84/57/3 86/12/3
f 85/14/3 86/12/3 84/57/3
f 87/44/1 88/43/1 90/42/1
f 89/41/1 90/42/1 88/43/1
f 91/43/2 92/41/2 94/44/2
f 93/42/2 94/44/2 92/41/2
f 95/41/5 96/42/5 98/43/5
f 97/44/5 98/43/5 96/42/5
f 99/58/6 100/59/6 102/60/6
f 101/61/6 102/60/6 100/59/6
f 103/62/2 104/63/2 106/64/2
f 105/65/2 106/64/2 104/63/2
f 107/64/1 108/62/1 110/65/1
f 109/63/1 110/65/1 108/62/1
f 111/66/4 112/67/4 114/68/4
f 113/69/4 114/68/4 112/67/4
f 115/70/5 116/71/5 118/72/5
f 117/73/5 118/72/5 116/71/5
f 119/64/5 120/62/5 122/65/5
f 121/63/5 122/65/5 120/62/5
f 71/50/1 398/48/1 123/74/1
f 124/74/2 406/48/2 409/50/2
f 125/75/3 126/76/3 128/77/3
f 127/78/3 128/77/3 126/76/3
s 1
f 129/79/7 130/80/8 132/81/9
f 131/82/10 132/81/9 130/80/8
s 0
f 133/83/5 134/84/5 136/85/5
f 135/86/5 136/85/5 134/84/5
f 518/85/5 514/86/5 138/87/5
f 137/88/5 138/87/5 514/86/5
s 1
f 139/89/11 140/90/11 142/91/12
f 141/92/12 142/91/12 140/90/11
f 532/91/12 528/92/12 144/93/13
f 143/94/13 144/93/13 528/92/12
s 0
f 145/95/5 146/96/5 148/97/5
f 147/98/5 148/97/5 146/96/5
f 544/97/5 540/98/5 150/99/5
f 149/100/5 150/99/5 540/98/5
s 1
f 151/101/14 152/102/14 154/103/15
f 153/104/16 154/103/15 152/102/14
f 557/103/15 553/104/16 156/105/17
f 155/106/17 156/105/17 553/104/16
s 0
f 157/107/5 158/108/5 160/109/5
f 159/110/5 160/109/5 158/108/5
f 565/109/5 159/110/5 162/111/5
f 161/112/5 162/111/5 159/110/5
s 1
f 163/113/18 164/114/18 166/115/4
f 165/116/4 166/115/4 164/114/18
f 576/115/4 572/116/4 168/117/19
f 167/118/19 168/117/19 572/116/4
s 0
f 169/119/4 170/120/4 172/121/4
f 171/122/4 172/121/4 170/120/4
f 173/123/4 174/124/4 176/125/4
f 175/126/4 176/125/4 174/124/4
f 177/127/5 178/128/5 179/129/5
f 178/128/5 180/130/5 591/129/5
f 592/129/5 596/130/5 181/131/5
s 1
f 182/132/20 183/133/20 185/134/21
f 184/135/21 185/134/21 183/133/20
f 186/136/20 187/137/22 189/138/22
f 188/139/22 189/138/22 187/137/22
f 190/140/23 191/141/24 193/142/25
f 192/143/26 193/142/25 191/141/24
f 619/141/24 194/144/27 192/143/26
f 195/145/28 192/143/26 194/144/27
f 196/146/29 197/147/30 199/148/31
f 198/149/32 199/148/31 197/147/30
f 200/150/33 201/151/34 203/152/35
f 202/153/36 203/152/35 201/151/34
f 204/154/37 205/155/36 206/156/38
f 644/155/39 207/157/40 648/156/38
f 649/156/38 207/157/41 208/158/42
f 209/159/43 210/160/44 212/161/41
f 211/162/45 212/161/41 210/160/44
f 212/161/40 656/162/46 214/163/47
f 213/164/48 214/163/47 656/162/46
f 215/165/49 216/166/50 218/167/51
f 217/168/52 218/167/51 216/166/50
f 219/169/53 220/170/54 222/171/55
f 221/172/56 222/171/55 220/170/54
f 677/171/57 673/172/56 224/173/58
f 223/174/4 224/173/58 673/172/56
f 678/171/55 683/173/58 225/175/59
f 684/173/60 226/176/61 688/175/59
f 689/175/62 691/176/63 227/177/64
f 228/177/65 229/178/66 231/179/65
f 230/180/66 231/179/65 229/178/66
f 232/181/67 233/182/67 235/183/68
f 234/184/68 235/183/68 233/182/67
f 714/183/69 710/184/69 237/185/70
f 236/186/71 237/185/70 710/184/69
s 0
f 238/187/5 239/188/5 240/189/5
s 1
f 239/188/5 241/190/72 725/189/5
f 726/189/5 731/190/72 242/191/5
f 243/192/73 244/193/74 246/194/75
f 245/195/75 246/194/75 244/193/74
f 737/194/75 245/195/75 248/196/76
f 247/197/76 248/196/76 245/195/75
s 0
f 249/198/5 250/199/5 251/200/5
f 250/199/5 252/201/5 251/200/5
f 251/200/5 252/201/5 253/202/5
s 1
f 504/80/8 502/79/7 254/203/77
s 0
f 593/129/5 600/131/5 255/204/5
s 1
f 645/155/78 642/154/32 256/205/79
f 732/190/72 257/206/80 242/191/5
s 0
f 242/191/5 258/207/5 259/208/5
f 242/191/5 749/208/5 727/189/5
s 1
f 260/209/81 706/182/82 703/181/82
f 228/177/83 261/210/83 697/178/65
f 616/140/23 262/211/84 620/141/85
f 263/212/31 264/213/4 265/211/33
f 608/136/20 266/214/20 612/137/22
f 314/17/4 269/2/3 307/15/4
f 267/1/4 308/15/4 270/2/86
f 318/19/4 274/3/87 321/7/88
f 272/4/4 321/7/88 274/3/87
f 336/2/89 283/1/89 329/4/89
f 280/3/89 329/4/89 283/1/89
f 375/29/89 18/9/89 54/31/89
f 17/10/89 54/31/89 18/9/89
f 330/4/4 342/22/1 331/3/90
f 339/21/4 332/3/1 343/22/91
f 437/41/4 402/51/92 439/42/93
f 407/48/4 439/42/93 402/51/92
f 541/98/4 558/103/94 548/100/95
f 156/105/4 549/100/96 559/103/97
f 146/96/4 550/101/96 542/98/98
f 560/103/4 543/98/94 551/101/99
f 757/211/4 613/137/100 621/141/101
f 763/214/4 621/141/101 613/137/100
f 603/132/4 764/214/102 183/133/103
f 609/136/4 183/133/103 764/214/102
f 199/148/4 263/212/104 627/146/105
f 761/211/4 627/146/105 263/212/104
f 614/137/4 762/211/1 615/139/2
f 760/213/4 615/139/2 762/211/1
f 632/150/4 758/211/106 634/151/107
f 617/140/4 635/151/107 759/211/108
f 715/183/4 698/178/109 704/181/110
f 754/210/4 704/181/110 698/178/109
f 721/185/4 700/180/111 716/183/112
f 699/178/4 717/183/112 701/180/113
f 705/181/4 755/210/114 751/209/115
f 228/177/4 752/209/116 756/210/117
f 692/176/4 707/182/118 695/177/119
f 753/209/4 696/177/120 708/182/121
f 685/173/4 711/184/122 693/176/123
f 709/182/4 694/176/124 712/184/125
f 681/174/4 718/186/111 686/173/112
f 713/184/4 687/173/112 719/186/113
f 738/194/4 728/189/126 735/192/127
f 750/208/4 736/192/128 729/189/129
f 741/196/4 723/187/130 739/194/131
f 730/189/4 740/194/132 724/187/133
f 672/170/4 747/207/134 674/172/135
f 242/191/4 675/172/136 748/207/137
f 676/172/4 242/191/1 682/174/4
f 745/206/4 682/174/4 242/191/1
f 720/186/89 746/206/89 722/185/89
f 733/190/89 722/185/89 746/206/89
f 637/153/4 646/155/138 640/152/139
f 743/205/4 640/152/139 646/155/138
f 629/147/4 744/205/140 631/149/141
f 643/154/4 631/149/141 744/205/140
f 169/119/4 594/129/142 170/120/4
f 742/204/4 170/120/4 594/129/142
f 515/86/4 505/80/143 522/88/144
f 254/203/4 523/88/145 506/80/146
f 513/84/4 508/82/145 516/86/147
f 507/80/4 517/86/143 509/82/148
f 245/195/75 251/200/149 247/197/76
f 253/202/4 247/197/76 251/200/149
f 244/193/74 249/198/150 245/195/75
f 251/200/149 245/195/75 249/198/150
f 702/180/4 734/190/151 231/179/152
f 239/188/4 231/179/152 734/190/151
f 651/158/4 679/171/153 650/156/154
f 690/175/4 650/156/154 679/171/153
f 670/167/4 671/169/155 665/165/156
f 680/171/4 665/165/156 671/169/155
f 195/145/28 217/168/157 192/143/26
f 667/166/4 192/143/26 217/168/157
f 659/164/4 668/166/158 662/163/159
f 666/165/4 663/163/160 669/166/161
f 207/157/162 212/161/41 652/158/163
f 664/163/4 652/158/163 212/161/41
f 647/155/4 209/159/43 207/157/162
f 212/161/41 207/157/162 209/159/43
f 192/143/4 660/164/164 623/142/165
f 657/162/4 624/142/166 661/164/167
f 625/142/4 658/162/168 618/140/169
f 653/160/4 618/140/169 658/162/168
f 636/151/4 654/160/170 638/153/171
f 209/159/4 639/153/172 655/160/173
f 628/146/4 633/150/174 630/147/175
f 641/152/4 630/147/175 633/150/174
f 607/134/4 626/144/176 604/132/177
f 622/141/4 604/132/177 626/144/176
f 586/126/4 610/136/1 588/125/4
f 189/138/4 589/125/4 611/136/1
f 582/122/4 605/135/1 583/121/4
f 183/133/4 584/121/4 606/135/1
f 571/114/4 601/131/178 573/116/4
f 597/130/4 574/116/4 602/131/179
f 575/116/4 598/130/180 579/118/181
f 178/128/4 580/118/182 599/130/183
f 173/123/4 590/127/184 174/124/4
f 595/129/4 174/124/4 590/127/184
s 0
f 585/121/4 587/126/4 169/119/4
f 174/124/4 169/119/4 587/126/4
s 1
f 159/110/4 577/115/4 161/112/185
f 581/117/4 161/112/185 577/115/4
f 158/108/4 570/113/186 159/110/187
f 578/115/4 159/110/187 570/113/186
f 554/104/4 566/109/188 561/106/189
f 569/111/4 562/106/190 567/109/191
f 552/102/4 563/107/192 555/104/193
f 568/109/4 556/104/188 564/107/194
f 529/92/4 545/97/195 536/94/196
f 150/99/4 537/94/197 546/97/198
f 527/90/4 538/95/199 530/92/200
f 547/97/4 531/92/195 539/95/201
f 519/85/4 533/91/202 511/83/203
f 144/93/4 512/83/204 534/91/205
f 524/87/4 525/89/204 520/85/206
f 535/91/4 521/85/202 526/89/207
f 500/76/4 503/79/2 501/78/2
f 510/81/4 501/78/2 503/79/2
f 488/72/89 498/74/89 481/70/89
f 410/50/89 481/70/89 498/74/89
f 453/59/4 408/48/208 455/61/209
f 499/74/4 455/61/209 408/48/208
f 483/71/89 71/50/89 486/73/89
f 123/74/89 486/73/89 71/50/89
f 457/60/4 123/74/210 451/58/208
f 399/48/4 451/58/208 123/74/210
f 465/62/89 491/64/89 468/63/89
f 497/65/89 468/63/89 491/64/89
f 460/65/89 496/63/89 461/64/89
f 493/62/89 461/64/89 496/63/89
f 473/67/4 494/62/1 475/69/4
f 492/64/4 476/69/4 495/62/91
f 456/61/4 489/72/1 458/60/90
f 487/73/4 459/60/1 490/72/91
f 478/68/4 484/71/1 470/66/4
f 482/70/4 471/66/4 485/71/90
f 463/64/4 479/68/4 466/62/86
f 477/69/4 467/62/3 480/68/4
f 462/64/4 474/67/4 103/62/5
f 472/66/4 103/62/5 474/67/4
f 71/50/89 464/64/89 72/49/89
f 469/65/89 72/49/89 464/64/89
f 77/49/89 104/63/89 411/50/89
f 103/62/89 411/50/89 104/63/89
f 443/41/4 454/59/1 445/42/1
f 452/58/4 445/42/1 454/59/1
f 440/42/89 444/41/89 441/44/89
f 449/43/89 441/44/89 444/41/89
f 81/55/4 450/43/211 418/54/4
f 447/44/4 418/54/4 450/43/211
f 427/43/89 448/44/89 430/41/89
f 446/42/89 430/41/89 448/44/89
f 415/53/4 435/43/212 81/55/4
f 442/44/4 81/55/4 435/43/212
f 387/42/89 438/41/89 389/44/89
f 436/43/89 389/44/89 438/41/89
f 391/43/89 425/44/89 385/41/89
f 432/42/89 385/41/89 425/44/89
f 395/46/4 433/42/3 400/48/86
f 431/41/4 401/48/3 434/42/213
f 419/54/4 428/43/3 412/52/4
f 426/44/4 413/52/4 429/43/86
f 403/51/89 420/56/89 404/45/89
f 424/12/89 404/45/89 420/56/89
f 394/45/89 85/14/89 396/46/89
f 422/57/89 396/46/89 85/14/89
f 386/41/4 423/57/214 388/42/211
f 421/56/4 388/42/211 423/57/214
f 390/44/4 416/53/4 392/43/90
f 414/52/4 393/43/2 417/53/4
f 364/31/89 384/10/89 358/29/89
f 327/9/89 358/29/89 384/10/89
f 344/22/4 299/7/215 345/24/216
f 61/20/4 346/24/217 300/7/218
f 350/25/89 61/20/89 352/26/89
f 18/9/89 352/26/89 61/20/89
f 370/36/4 378/37/211 373/35/4
f 382/39/4 373/35/4 378/37/211
f 360/30/89 383/39/89 363/32/89
f 381/40/89 363/32/89 383/39/89
f 55/32/89 380/38/89 56/30/89
f 379/37/89 56/30/89 380/38/89
f 368/34/4 376/29/5 371/36/4
f 56/30/4 372/36/4 377/29/213
f 359/29/4 365/33/4 361/30/86
f 374/35/4 362/30/3 366/33/4
f 353/26/4 369/34/4 354/28/1
f 367/33/4 354/28/1 369/34/4
f 347/24/4 351/25/1 348/23/1
f 356/27/4 348/23/1 351/25/1
f 323/20/89 357/27/89 328/9/89
f 355/28/89 328/9/89 357/27/89
f 322/7/4 340/21/215 324/20/216
f 349/23/4 325/20/219 341/21/220
f 312/18/4 337/2/1 315/17/4
f 334/1/4 316/17/4 338/2/91
f 271/2/89 335/1/89 273/4/89
f 333/3/89 273/4/89 335/1/89
f 302/11/89 319/19/89 304/12/89
f 317/6/89 304/12/89 319/19/89
f 284/1/4 313/18/4 276/2/5
f 310/16/4 276/2/5 313/18/4
f 289/1/4 311/16/4 291/2/2
f 309/15/4 291/2/2 311/16/4
f 285/4/4 303/11/2 287/3/211
f 305/13/4 287/3/211 303/11/2
f 293/5/89 306/13/89 296/6/89
f 21/14/89 296/6/89 306/13/89
f 278/4/4 294/5/5 281/3/86
f 301/7/4 282/3/5 295/5/213
f 275/3/89 286/4/89 268/1/89
f 292/2/89 268/1/89 286/4/89
f 277/2/89 290/1/89 279/4/89
f 288/3/89 279/4/89 290/1/89
