# Source-author permission confirmed by the user on 2026-07-25.
# Normalized to metres and Z-up; source UVs/material assignments retained.
# Blender 4.2.0
# www.blender.org
mtllib rv_mod_cit_lookout.mtl
o rv_mod_cit_lookout
v 3.294387 6.352808 1.465372
v 6.807781 6.953014 1.481822
v 4.531380 6.576811 2.471123
v 3.294387 6.352808 1.465372
v 4.531380 6.576811 2.471123
v 6.108945 10.598139 2.413546
v 3.294387 6.352808 1.465372
v 6.108945 10.598139 2.413546
v 4.765335 9.805877 1.416820
v 7.173071 6.928858 2.485210
v 7.051484 9.225265 2.444518
v 4.531380 6.576811 2.471123
v 6.807781 6.953014 1.481822
v 7.173071 6.928858 2.485210
v 7.173071 6.928858 2.485210
v 6.807781 6.953014 1.481822
v 7.051484 9.225265 2.444518
v 7.296682 10.451508 1.424980
v 7.051484 9.225265 2.444518
v 7.296682 10.451508 1.424980
v 6.108945 10.598139 2.413546
v 5.131907 11.413745 1.391780
v 5.131907 11.413745 1.391780
v 11.004744 8.500000 1.348490
v 10.024689 7.500000 1.348490
v 10.297638 8.792893 5.348490
v 11.004744 8.500000 1.348490
v 10.297638 8.792893 5.348490
v 8.004744 11.500000 1.348490
v 8.004744 11.500000 1.348490
v 8.297638 10.792893 5.348490
v 8.004744 12.500000 1.348490
v 8.297638 10.792893 5.348490
v 12.004744 8.500000 1.348490
v 12.004744 8.500000 5.348490
v 13.004744 8.500000 9.348490
v 12.004744 2.500000 1.348490
v 12.004744 2.500000 5.438750
v 10.024689 2.500000 1.348490
v 12.004744 2.500000 1.348490
v 12.004744 4.500000 1.348490
v 12.004744 2.500000 5.438750
v 12.004744 12.500000 1.348490
v 12.004744 12.500000 5.348490
v 12.004744 8.500000 1.348490
v 12.004744 8.500000 5.348490
v 12.004744 12.500000 1.348490
v 8.004744 12.500000 1.348490
v 12.004744 12.500000 5.348490
v 12.004744 4.500000 1.348490
v 12.004744 2.909975 5.668493
v 12.004744 2.500000 5.438750
v 12.004744 4.500000 9.348490
v 12.004744 4.500000 1.348490
v 13.004744 4.500000 9.348490
v 12.004744 4.500000 9.348490
v 12.004744 8.500000 1.348490
v 13.004744 8.500000 9.348490
v 13.004744 4.500000 9.348490
v 13.004744 4.500000 9.348490
v 12.004744 4.500000 1.348490
v 8.004744 12.500000 5.348490
v 8.004744 12.500000 5.348490
v 11.702084 2.500000 5.953094
v 10.024689 2.500000 9.348490
v 10.024689 7.500000 1.348490
v 9.329031 8.041943 9.348490
v 10.297638 8.792893 5.348490
v 10.024689 2.500000 1.348490
v 10.024689 2.500000 9.348490
v 9.329031 8.041943 9.348490
v 10.024689 2.500000 1.348490
v 9.329031 8.041943 9.348490
v 10.024689 7.500000 1.348490
v 10.297638 8.792893 5.348490
v 11.004744 9.500000 9.348490
v 11.004744 9.500000 5.348490
v 12.004744 8.500000 5.348490
v 11.004744 9.500000 5.348490
v 12.004744 8.500000 9.348490
v 11.004744 9.500000 9.348490
v 12.004744 8.500000 9.348490
v 10.297638 8.792893 5.348490
v 9.329031 8.041943 9.348490
v 11.004744 9.500000 9.348490
v 12.004744 2.500000 5.438750
v 12.004744 2.909975 5.668493
v 11.702084 2.500000 5.953094
v 12.004744 2.500000 6.618023
v 12.004744 2.500000 6.618023
v 12.004744 2.500000 6.618023
v 12.004744 2.500000 9.348490
v 12.004744 2.500000 9.348490
v 9.329031 8.041943 9.348490
v 9.309088 8.041943 11.032113
v 11.004744 9.500000 9.348490
v 12.004744 2.500000 17.348490
v 10.004744 2.500000 17.348490
v 11.397320 8.691233 10.549746
v 12.004744 4.500000 9.348490
v 12.004744 4.500000 17.348490
v 12.004744 2.500000 9.348490
v 9.309088 8.041943 11.032113
v 10.004744 2.500000 17.348490
v 12.004744 2.500000 17.348490
v 12.004744 4.500000 17.348490
v 13.004744 4.500000 17.348490
v 12.004744 8.500000 9.945044
v 13.004744 8.500000 16.484318
v 13.004744 8.500000 16.484318
v 13.004744 6.299774 17.348490
v 13.004744 4.500000 17.348490
v 11.004744 9.500000 9.348490
v 11.397320 8.691233 10.549746
v 12.004744 8.500000 9.348490
v 12.004744 8.500000 9.945044
v 12.004744 8.500000 12.408422
v 12.004744 8.500000 12.408422
v 12.004744 8.500000 12.408422
v 9.309088 8.041943 12.275204
v 9.309088 8.041943 12.275204
v 9.309088 8.041943 12.275204
v 11.004744 9.500000 12.995049
v 12.004744 8.500000 12.408422
v 9.309088 8.041943 14.756042
v 9.309088 8.041943 12.275204
v 9.309088 8.041943 14.756042
v 11.004744 9.500000 12.995049
v 12.004744 8.500000 12.408422
v 11.004744 9.500000 12.995049
v 12.004744 8.500000 15.957585
v 12.004744 8.500000 15.957585
v 11.004744 9.500000 14.391239
v 11.004744 9.500000 14.391239
v 9.647682 5.344522 17.348490
v -8.514187 10.552014 1.011591
v -8.022560 11.099106 4.063756
v -7.267024 10.002872 1.107625
v -8.514187 10.552014 1.011591
v -10.854141 8.336384 1.056016
v -8.022560 11.099106 4.063756
v -10.854141 8.336384 1.056016
v -8.896555 7.894012 1.111295
v -9.972713 9.047853 3.766988
v -10.854141 8.336384 1.056016
v -9.972713 9.047853 3.766988
v -8.022560 11.099106 4.063756
v -7.267024 10.002872 1.107625
v -7.313953 10.044783 3.069004
v -7.991073 9.618834 4.529893
v -9.305187 9.677992 4.736484
v -9.305187 9.677992 4.736484
v -9.305187 9.677992 4.736484
v 9.841976 -7.964046 1.410225
v 1.896630 -7.942622 0.000000
v 9.724699 -7.085715 1.921842
v 9.841976 -7.964046 1.410225
v 9.724699 -7.085715 1.921842
v 8.690948 -9.207839 4.940554
v 9.841976 -7.964046 1.410225
v 8.690948 -9.207839 4.940554
v 1.896630 -7.942622 0.000000
v 1.626406 -7.229565 0.980722
v 9.724699 -7.085715 1.921842
v 1.626406 -7.229565 0.980722
v 8.679171 -8.215508 5.128594
v 8.679171 -8.215508 5.128594
v 5.082591 -8.658354 5.845665
v 1.736025 -9.385013 4.292944
v 8.690948 -9.207839 4.940554
v 8.679171 -8.215508 5.128594
v 5.082591 -8.658354 5.845665
v 0.774969 -8.149622 3.592171
v 5.082591 -8.658354 5.845665
v 5.082591 -8.658354 5.845665
v 0.774969 -8.149622 3.592171
v 1.736025 -9.385013 4.292944
v 1.045088 -8.862793 2.611771
v 1.896630 -7.942622 0.000000
v 1.045088 -8.862793 2.611771
v 1.626406 -7.229565 0.980722
v 1.736025 -9.385013 4.292944
v 0.774969 -8.149622 3.592171
v 3.545456 10.687165 2.485210
v 3.507025 9.818837 2.480616
v 3.457459 10.331811 1.481822
v 3.545456 10.687165 2.485210
v 3.457459 10.331811 1.481822
v 1.263438 10.971171 2.444518
v 3.545456 10.687165 2.485210
v 2.719142 8.989290 2.462414
v 3.507025 9.818837 2.480616
v 1.263438 10.971171 2.444518
v 3.507025 9.818837 2.480616
v 3.450610 9.420354 1.477615
v 3.457459 10.331811 1.481822
v 2.719142 8.989290 2.462414
v 0.099397 11.428120 1.424980
v 0.289971 8.822695 1.416820
v 2.201233 8.777585 2.451942
v 2.201233 8.777585 2.451942
v -0.253751 10.284657 2.413546
v 0.289971 8.822695 1.416820
v 1.263438 10.971171 2.444518
v 0.099397 11.428120 1.424980
v -0.253751 10.284657 2.413546
v 0.289971 8.822695 1.416820
v -0.253751 10.284657 2.413546
v -1.228415 9.466215 1.391780
v -1.228415 9.466215 1.391780
v 7.763871 -4.041978 1.003132
v 6.922759 -4.731377 1.603150
v 7.103502 -2.921464 2.120836
v 8.146797 -6.732879 2.004900
v 7.763871 -4.041978 1.003132
v 7.103502 -2.921464 2.120836
v 9.172157 -1.404168 4.869827
v 7.763871 -4.041978 1.003132
v 9.172157 -1.404168 4.869827
v 9.928980 -2.333301 6.913645
v 8.146797 -6.732879 2.004900
v 6.922759 -4.731377 1.603150
v 7.305732 -7.422609 2.605042
v 7.103502 -2.921464 2.120836
v 7.305732 -7.422609 2.605042
v 8.146797 -6.732879 2.004900
v 8.077795 -6.272601 4.720562
v 7.305732 -7.422609 2.605042
v 9.795387 -5.839338 6.499440
v 9.795387 -5.839338 6.499440
v 7.103502 -2.921464 2.120836
v 8.581879 -2.227062 6.149765
v 9.172157 -1.404168 4.869827
v 8.077795 -6.272601 4.720562
v 8.581879 -2.227062 6.149765
v 8.986015 -5.880128 7.195187
v 8.920980 -3.585540 7.051802
v 8.986015 -5.880128 7.195187
v 9.172157 -1.404168 4.869827
v 8.581879 -2.227062 6.149765
v 9.928980 -2.333301 6.913645
v 9.928980 -2.333301 6.913645
v 9.795387 -5.839338 6.499440
v 9.928980 -2.333301 6.913645
v 8.986015 -5.880128 7.195187
v 8.920980 -3.585540 7.051802
v 9.331743 -4.312779 2.485210
v 9.709698 -4.495699 2.480616
v 9.626373 -4.530066 1.481822
v 9.331743 -4.312779 2.485210
v 8.302492 -5.815156 2.444518
v 9.709698 -4.495699 2.480616
v 9.331743 -4.312779 2.485210
v 9.626373 -4.530066 1.481822
v 8.302492 -5.815156 2.444518
v 10.056259 -4.700312 1.477615
v 9.951225 -5.491559 2.462414
v 9.951225 -5.491559 2.462414
v 9.505329 -7.351827 1.416820
v 10.056259 -4.700312 1.477615
v 9.505329 -7.351827 1.416820
v 9.626373 -4.530066 1.481822
v 8.107813 -6.715723 1.424980
v 8.107813 -6.715723 1.424980
v 9.948620 -6.051061 2.451942
v 9.948620 -6.051061 2.451942
v 8.356146 -7.220185 2.413546
v 9.505329 -7.351827 1.416820
v 8.302492 -5.815156 2.444518
v 8.107813 -6.715723 1.424980
v 8.356146 -7.220185 2.413546
v 8.107813 -6.715723 1.424980
v 9.505329 -7.351827 1.416820
v 8.356146 -7.220185 2.413546
v 8.581879 -2.227062 6.149765
v 8.581879 -2.227062 6.149765
v 8.920980 -3.585540 7.051802
v 8.920980 -3.585540 7.051802
v 13.004744 -3.500000 9.348490
v 13.004744 -7.500000 9.348490
v 12.004744 -3.500000 1.348490
v 13.004744 -7.500000 17.348490
v 13.004744 -3.500000 17.348490
v 13.004744 -3.500000 9.348490
v 12.004744 -3.500000 9.348490
v 13.004744 -3.500000 17.348490
v 12.004744 -3.500000 1.348490
v 13.004744 -7.500000 9.348490
v 13.004744 -7.500000 17.348490
v 12.004744 -7.500000 17.348490
v 12.004744 -7.500000 5.348490
v 12.004744 -7.500000 1.348490
v 11.004744 -8.500000 17.348490
v 11.004744 -8.500000 9.348490
v 13.004744 -7.500000 9.348490
v 12.004744 -7.500000 1.348490
v 12.004744 -3.500000 17.348490
v 12.004744 -11.500000 5.348490
v 8.004744 -11.500000 5.348490
v 12.004744 -11.500000 1.348490
v 11.004744 -8.500000 5.348490
v 12.004744 -7.500000 5.348490
v 12.004744 -11.500000 5.348490
v 12.004744 -7.500000 1.348490
v 12.004744 4.522156 17.348490
v 12.004744 -1.500000 17.348490
v 11.004744 4.522156 17.348490
v 11.004744 -1.500000 17.348490
v 12.004744 2.500000 21.348490
v 12.004744 4.022627 18.980198
v 10.576874 3.982299 18.632099
v 10.004744 2.500000 20.348490
v 9.908014 2.300595 22.348490
v 12.004744 -1.500000 9.348490
v 11.702084 -1.500000 5.953094
v 10.024689 -1.500000 9.348490
v 12.004744 -1.500000 17.348490
v 12.004744 -7.500000 5.348490
v 11.004744 -8.500000 5.348490
v 12.004744 -11.500000 5.348490
v 9.004744 -10.500000 5.348490
v 8.004744 -11.500000 5.348490
v 12.004744 4.522156 17.348490
v 11.004744 4.522156 17.348490
v 12.004744 -11.500000 1.348490
v 12.004744 2.500000 21.348490
v 12.004744 -7.500000 21.348490
v 12.004744 4.022627 18.980198
v 12.004744 -1.500000 1.348490
v 12.004744 -1.500000 5.438750
v 12.004744 -3.500000 1.348490
v 12.004744 -1.909975 5.668493
v 11.702084 -1.500000 5.953094
v 12.004744 -1.500000 9.348490
v 12.004744 -3.500000 9.348490
v 12.004744 -1.500000 17.348490
v 12.004744 -3.500000 17.348490
v 12.004744 4.522156 17.348490
v 12.004744 -7.500000 17.348490
v 12.004744 -1.500000 17.348490
v 12.004744 -3.500000 17.348490
v 12.004744 -1.500000 9.348490
v 12.004744 -3.500000 9.348490
v 12.004744 -7.500000 17.348490
v 12.004744 -7.500000 21.348490
v 11.004744 -8.500000 17.348490
v 9.004744 -10.500000 17.348490
v 8.004744 -11.500000 21.348490
v 11.004744 -1.500000 17.348490
v 12.004744 -1.500000 5.438750
v 12.004744 -1.500000 1.348490
v 10.024689 -1.500000 1.348490
v 8.004744 -11.500000 1.348490
v 10.297638 -7.792893 5.348490
v 8.297638 -9.792893 5.348490
v 11.004744 -8.500000 9.348490
v 11.004744 -8.500000 17.348490
v 10.297638 -7.792893 17.348490
v 9.329031 -7.041943 9.348490
v 11.004744 -8.500000 9.348490
v 9.329031 -7.041943 9.348490
v 11.004744 -8.500000 5.348490
v 10.004744 -1.500000 17.348490
v 10.004744 -1.500000 20.348490
v 10.297638 -7.792893 5.348490
v 11.004744 -7.500000 1.348490
v 8.004744 -10.500000 1.348490
v 10.297638 -7.792893 5.348490
v 11.004744 -7.500000 1.348490
v 10.024689 -6.500000 1.348490
v 11.004744 -1.500000 17.348490
v 10.576874 3.982299 18.632099
v 11.004744 4.522156 17.348490
v 10.004744 -1.500000 20.348490
v 11.004744 -8.500000 17.348490
v 9.004744 -10.500000 17.348490
v 10.297638 -7.792893 17.348490
v 10.004744 2.500000 20.348490
v 9.309088 -7.041943 17.348490
v 10.297638 -7.792893 17.348490
v 8.297638 -9.792893 17.348490
v 9.271408 -6.966070 20.348490
v 10.297638 -7.792893 17.348490
v 9.271408 -6.966070 20.348490
v 9.309088 -7.041943 17.348490
v 8.297638 -9.792893 17.348490
v 10.297638 -7.792893 5.348490
v 8.004744 -10.500000 1.348490
v 8.297638 -9.792893 5.348490
v 10.024689 -1.500000 1.348490
v 10.024689 -6.500000 1.348490
v 10.024689 -1.500000 9.348490
v 10.024689 -6.500000 1.348490
v 9.329031 -7.041943 9.348490
v 10.024689 -1.500000 9.348490
v 10.004744 -1.500000 17.348490
v 10.004744 -1.500000 20.348490
v 9.309088 -7.041943 17.348490
v 9.271408 -6.966070 20.348490
v 10.004744 -1.500000 20.348490
v 7.536734 -1.748168 22.553751
v 9.908014 -1.300595 22.348490
v 7.495698 -1.359441 21.184809
v 10.004744 -1.500000 20.348490
v 9.271408 -6.966070 20.348490
v 7.495698 -1.359441 21.184809
v 10.004744 -1.500000 20.348490
v 9.908014 -1.300595 22.348490
v 10.004744 2.500000 20.348490
v 9.908014 2.300595 22.348490
v 7.470814 -8.766665 20.348490
v 4.075259 -3.530424 21.871046
v 7.470814 -8.766665 20.348490
v 9.004744 -10.500000 7.559932
v 8.004744 -11.500000 8.348490
v 9.004744 -10.500000 5.348490
v 9.004744 -10.500000 12.926204
v 8.297638 -9.792893 17.348490
v 9.004744 -10.500000 17.348490
v 7.489781 -8.861249 12.068865
v 9.004744 -10.500000 7.559932
v 9.004744 -10.500000 5.348490
v 7.489781 -8.861249 9.348490
v 9.004744 -10.500000 12.926204
v 8.004744 -11.500000 12.319943
v 7.489781 -8.861249 12.068865
v 9.004744 -10.500000 12.926204
v 9.004744 -10.500000 17.348490
v 8.004744 -11.500000 12.319943
v 8.004744 -11.500000 17.348490
v 9.004744 -10.500000 7.559932
v 7.489781 -8.861249 9.348490
v 8.004744 -11.500000 8.348490
v 8.004744 -11.500000 5.348490
v 8.297638 -9.792893 5.348490
v 8.004744 -11.500000 17.348490
v 8.297638 -9.792893 5.348490
v 8.004744 -10.500000 1.348490
v 7.004744 -9.500000 1.348490
v 7.004744 -9.500000 1.348490
v 7.489781 -8.861249 17.348490
v 8.297638 -9.792893 17.348490
v 7.489781 -8.861249 17.348490
v 7.470814 -8.766665 20.348490
v 8.004744 -11.500000 1.348490
v 8.004744 -11.500000 5.348490
v 8.004744 -12.500000 9.348490
v 8.004744 -12.500000 9.348490
v 8.004744 -11.500000 8.348490
v 6.770868 -12.500000 10.011875
v 6.770868 -12.500000 10.011875
v 8.004744 -11.500000 17.348490
v 8.004744 -11.500000 21.348490
v 4.004744 -11.500000 17.348490
v 8.004744 -12.500000 9.348490
v 6.770868 -12.500000 10.011875
v 4.004744 -12.500000 9.348490
v 8.004744 -11.500000 1.348490
v 8.004744 -11.500000 17.348490
v 8.004744 -12.500000 17.348490
v 8.004744 -11.500000 12.319943
v 8.004744 -12.500000 13.235704
v 2.004744 -11.500000 17.348490
v 1.260888 -11.500000 21.348490
v 0.575357 -11.500000 18.967827
v 4.004744 -12.500000 9.348490
v 4.004744 -11.500000 1.348490
v 8.004744 -11.500000 8.348490
v 8.004744 -11.500000 12.319943
v 8.004744 -12.500000 13.235704
v 7.489781 -8.861249 12.068865
v 8.004744 -12.500000 17.348490
v 8.004744 -12.500000 13.235704
v 4.004744 -12.500000 17.348490
v 4.450852 -3.678439 22.786982
v 4.075259 -3.530424 21.871046
v 7.489781 -8.861249 9.348490
v 7.004744 -9.500000 1.348490
v 2.004744 -9.500000 1.348490
v 7.489781 -8.861249 9.348490
v 2.753617 -9.412791 11.204143
v 7.489781 -8.861249 12.068865
v 2.004744 -9.500000 9.348490
v 2.004744 -9.500000 1.348490
v 7.489781 -8.861249 17.348490
v 2.557550 -9.435624 14.668873
v 2.004744 -9.500000 17.348490
v 7.470814 -8.766665 20.348490
v 0.387049 -9.500000 20.348490
v 3.045737 -5.339894 21.648764
v 2.562316 -7.271781 21.044937
v 0.387049 -9.500000 20.348490
v 2.897942 -5.579160 22.955292
v 3.045737 -5.339894 21.648764
v 4.004744 -12.500000 9.348490
v 4.004744 -12.500000 17.348490
v 4.004744 -11.500000 17.348490
v 4.004744 -11.500000 9.348490
v 4.004744 -11.500000 1.348490
v 4.004744 -11.500000 1.348490
v 4.004744 -11.500000 9.348490
v 2.004744 -11.500000 9.348490
v 2.004744 -11.500000 5.348490
v 1.206435 -11.500000 2.559715
v 0.668065 -11.500000 1.965589
v -0.730534 -11.500000 1.618232
v 4.004744 -11.500000 1.348490
v -0.730534 -11.500000 1.618232
v -3.995256 -11.500000 1.348490
v 4.004744 -11.500000 17.348490
v 3.104814 -11.500000 13.817171
v 2.004744 -11.500000 17.348490
v 2.004744 -11.500000 15.382500
v 2.853972 -11.500000 10.702218
v 3.104814 -11.500000 13.817171
v 2.557550 -9.435624 14.668873
v 2.853972 -11.500000 10.702218
v 2.004744 -9.500000 15.265182
v 2.004744 -11.500000 15.382500
v 3.045737 -5.339894 21.648764
v 2.562316 -7.271781 21.044937
v 2.897942 -5.579160 22.955292
v 2.381773 -7.385753 22.668625
v 2.753617 -9.412791 11.204143
v 2.004744 -11.500000 9.348490
v 2.004744 -9.500000 9.348490
v 0.387049 -9.500000 20.348490
v 2.004744 -9.500000 15.265182
v 0.783805 -9.403271 22.348490
v 2.004744 -9.500000 1.348490
v 2.004744 -10.500000 5.348490
v 2.004744 -9.500000 9.348490
v 2.004744 -10.500000 1.348490
v 0.670711 -10.500000 17.348490
v 2.004744 -11.500000 9.348490
v 2.004744 -11.500000 5.348490
v 2.004744 -9.500000 17.348490
v 1.330713 -11.500000 5.348490
v 2.004744 -11.500000 17.348490
v 0.670711 -10.500000 17.348490
v 2.004744 -9.500000 17.348490
v 2.004744 -10.500000 1.348490
v 1.647892 -10.500000 2.931275
v 2.004744 -10.500000 5.348490
v 0.820999 -10.500000 2.117581
v -1.050372 -10.500000 1.950970
v -1.995256 -10.500000 1.348490
v 2.004744 -11.500000 17.348490
v 1.312413 -10.500000 5.348490
v 2.004744 -10.500000 5.348490
v 1.312413 -10.500000 5.348490
v 2.004744 -11.500000 5.348490
v 2.004744 -11.500000 17.348490
v 0.575357 -11.500000 18.967827
v -0.252356 -10.039402 18.730284
v 0.670711 -10.500000 17.348490
v 1.330713 -11.500000 5.348490
v 1.647892 -10.500000 2.931275
v 1.206435 -11.500000 2.559715
v 1.312413 -10.500000 5.348490
v 0.820999 -10.500000 2.117581
v 0.668065 -11.500000 1.965589
v 1.330713 -11.500000 5.348490
v 1.260888 -11.500000 21.348490
v -0.730534 -11.500000 1.618232
v -1.050372 -10.500000 1.950970
v 0.670711 -10.500000 17.348490
v -0.252356 -10.039402 18.730284
v 0.387049 -9.500000 20.348490
v -0.730534 -11.500000 1.618232
v -1.050372 -10.500000 1.950970
v -1.719938 -11.500000 2.094456
v -1.719938 -11.500000 2.094456
v -1.050372 -10.500000 1.950970
v -1.995256 -10.500000 1.348490
v -1.545228 -10.500000 4.501985
v -1.050372 -10.500000 1.950970
v -1.545228 -10.500000 4.501985
v -1.719938 -11.500000 2.094456
v -1.109343 -10.500000 5.348490
v -1.298179 -11.500000 5.348490
v -1.544113 -11.500000 3.451013
v -1.109343 -10.500000 5.348490
v -1.995256 -10.500000 5.348490
v -1.298179 -11.500000 5.348490
v -1.109343 -10.500000 5.348490
v -1.995256 -10.500000 5.348490
v -1.298179 -11.500000 5.348490
v -1.995256 -11.500000 5.348490
v -1.544113 -11.500000 3.451013
v -1.995256 -11.500000 5.348490
v -1.995256 -10.500000 5.348490
v -1.995256 -10.046188 7.163737
v -1.995256 -11.500000 5.348490
v -1.995256 -9.500000 1.348490
v -1.995256 -9.500000 7.398898
v -1.995256 -10.500000 1.348490
v -1.995256 -10.209704 7.929081
v -3.040683 -9.380804 9.348490
v -1.995256 -10.225706 9.348490
v -1.995256 -11.500000 9.348490
v -1.995256 -9.500000 11.123405
v -2.625525 -9.428139 12.643455
v -1.995256 -11.500000 12.145057
v -3.995256 -12.500000 17.348490
v -1.995256 -11.500000 9.348490
v -1.995256 -11.500000 12.145057
v -3.995256 -11.500000 9.348490
v -3.995256 -12.500000 17.348490
v -1.995256 -9.500000 1.348490
v -6.995256 -9.500000 1.348490
v -7.597527 -8.861249 9.348490
v -1.995256 -9.500000 1.348490
v -7.597527 -8.861249 9.348490
v -1.995256 -9.500000 7.398898
v -1.995256 -10.225706 9.348490
v -1.995256 -9.500000 11.123405
v -1.995256 -11.500000 9.348490
v -1.995256 -10.225706 9.348490
v -3.040683 -9.380804 9.348490
v -1.995256 -9.500000 11.123405
v -1.995256 -11.500000 9.348490
v -3.995256 -11.500000 9.348490
v -1.995256 -11.500000 12.145057
v -1.995256 -9.500000 11.123405
v -3.040683 -9.380804 9.348490
v -6.011916 -9.042035 10.569120
v -4.757817 -9.185022 12.155202
v -1.995256 -9.500000 11.123405
v -4.757817 -9.185022 12.155202
v -2.625525 -9.428139 12.643455
v -3.040683 -9.380804 9.348490
v -2.816752 -9.406336 15.855532
v -2.816752 -9.406336 15.855532
v -4.972701 -9.160522 15.047617
v -7.597527 -8.861249 9.348490
v -7.597527 -8.861249 10.350312
v -3.995256 -11.500000 9.348490
v -3.995256 -12.500000 17.348490
v -3.995256 -12.500000 9.348490
v -3.995256 -11.500000 1.348490
v -3.995256 -12.500000 9.348490
v -3.995256 -12.500000 17.348490
v -5.171906 -12.500000 17.348490
v -5.665980 -12.500000 15.080579
v -7.058445 -12.500000 10.335908
v -7.995256 -12.500000 9.348490
v -3.995256 -11.500000 1.348490
v -7.995256 -12.500000 9.348490
v -7.995256 -11.500000 1.348490
v -4.757817 -9.185022 12.155202
v -6.891705 -12.500000 13.782925
v -4.972701 -9.160522 15.047617
v -7.058445 -12.500000 10.335908
v -6.259369 -11.486756 15.202011
v -6.891705 -12.500000 13.782925
v -7.995256 -10.500000 1.348490
v -8.288149 -9.792893 5.348490
v -8.995256 -10.500000 9.348490
v -7.597527 -8.861249 10.350312
v -7.597527 -8.861249 9.348490
v -8.995256 -10.500000 9.348490
v -7.995256 12.500000 5.348490
v -7.995256 12.500000 1.348490
v -11.995256 12.500000 5.348490
v -7.995256 -10.500000 1.348490
v -8.534447 -9.650238 4.347633
v -8.288149 -9.792893 5.348490
v -8.888866 -9.444959 2.907412
v -10.084141 -8.207518 3.314605
v -10.995256 -7.500000 1.348490
v -7.995256 12.500000 1.348490
v -8.288149 10.792893 5.348490
v -10.995256 8.500000 1.348490
v -7.995256 -11.500000 5.348490
v -9.824631 -11.500000 4.083143
v -7.995256 -11.500000 1.348490
v -7.995256 -12.500000 9.348490
v -7.995256 -11.500000 5.348490
v -7.995256 -11.500000 1.348490
v -7.995256 -11.500000 9.639753
v -7.995256 -11.500000 9.639753
v -8.995256 -10.500000 9.348490
v -7.995256 -11.500000 5.348490
v -9.911543 -11.500000 2.396042
v -11.995256 -11.500000 1.348490
v -7.995256 12.500000 5.348490
v -8.288149 10.792893 5.348490
v -7.995256 12.500000 1.348490
v -11.995256 12.500000 1.348490
v -7.995256 -11.500000 5.348490
v -8.995256 -10.500000 5.348490
v -9.824631 -11.500000 4.083143
v -8.995256 -10.500000 5.348490
v -8.995256 -10.500000 5.348490
v -10.288149 8.792893 5.348490
v -8.288149 -9.792893 5.348490
v -8.534447 -9.650238 4.347633
v -9.824631 -11.500000 4.083143
v -8.995256 -10.500000 5.348490
v -8.888866 -9.444959 2.907412
v -9.911543 -11.500000 2.396042
v -8.888866 -9.444959 2.907412
v -10.084141 -8.207518 3.314605
v -11.995256 -8.422536 3.145470
v -11.995256 -11.500000 1.348490
v -9.911543 -11.500000 2.396042
v -9.416832 -7.041943 12.771305
v -9.694071 -4.574659 15.129362
v -12.052977 -7.424853 13.396938
v -10.995256 -8.500000 11.864791
v -9.416832 8.045364 10.127915
v -9.995256 4.500000 9.348490
v -9.995256 4.500000 1.348490
v -9.995256 7.500000 1.348490
v -10.288149 8.792893 5.348490
v -10.995256 9.500000 9.230781
v -9.416832 8.045364 10.127915
v -9.827822 4.387771 10.907806
v -10.060053 2.321016 11.348490
v -9.995256 4.500000 9.348490
v -9.416832 -7.041943 9.348490
v -9.416832 -7.041943 12.771305
v -10.995256 -8.500000 9.348490
v -9.416832 -7.041943 9.348490
v -9.995256 -3.500000 9.348490
v -10.060053 -1.317595 11.348490
v -10.060053 -1.317595 12.126227
v -9.416832 -7.041943 12.771305
v -9.416832 -7.041943 9.348490
v -9.995256 -6.500000 1.348490
v -9.995256 -3.500000 9.348490
v -10.288149 -7.792893 5.348490
v -10.995256 -8.500000 9.348490
v -10.995256 -8.500000 5.348490
v -9.694071 -4.574659 15.129362
v -10.995256 -8.500000 11.864791
v -10.132042 -1.239470 13.382229
v -9.788582 -3.733559 17.348490
v -9.788582 -3.733559 17.348490
v -11.995256 -3.500000 17.348490
v -12.399565 -4.370108 15.683564
v -12.995256 -6.467048 14.761867
v -10.051239 -2.397163 16.995617
v -9.805059 -8.420790 3.950123
v -10.084141 -8.207518 3.314605
v -9.910002 -8.239353 4.688805
v -9.805059 -8.420790 3.950123
v -9.910002 -8.239353 4.688805
v -10.995256 -8.500000 5.348490
v -10.084141 -8.207518 3.314605
v -9.946264 3.333691 11.132563
v -10.288149 -7.792893 5.348490
v -10.995256 -7.500000 1.348490
v -10.288149 -7.792893 5.348490
v -10.995256 8.500000 1.348490
v -9.995256 -3.500000 1.348490
v -10.995256 -7.500000 1.348490
v -9.995256 4.500000 9.348490
v -10.060053 2.321016 11.348490
v -10.995256 2.500000 11.348490
v -10.995256 4.500000 9.348490
v -9.995256 -3.500000 9.348490
v -9.995256 -3.500000 1.348490
v -10.995256 -3.500000 9.348490
v -10.995256 -3.500000 1.348490
v -9.995256 4.500000 1.348490
v -9.995256 4.500000 9.348490
v -10.995256 4.500000 1.348490
v -10.995256 4.500000 9.348490
v -9.995256 -3.500000 9.348490
v -10.995256 -3.500000 9.348490
v -10.060053 -1.317595 11.348490
v -10.051239 -2.397163 16.995617
v -10.132042 -1.239470 13.382229
v -11.146517 -2.253260 16.988073
v -10.060053 2.321016 11.348490
v -10.060053 -1.317595 12.126227
v -10.060053 -1.317595 11.348490
v -10.995256 -1.500000 11.348490
v -10.060053 -1.317595 11.348490
v -10.995256 -1.500000 11.348490
v -10.060053 -1.317595 12.126227
v -11.995256 -0.500000 12.348490
v -11.995256 -8.422536 3.145470
v -11.995256 -1.323965 13.721765
v -10.995256 9.500000 5.348490
v -10.995256 2.479067 7.431643
v -10.995256 4.500000 9.348490
v -10.995256 1.296938 8.704506
v -10.995256 2.479067 7.431643
v -10.995256 3.500000 1.348490
v -10.995256 4.500000 1.348490
v -10.995256 9.500000 5.348490
v -11.995256 8.500000 5.348490
v -10.995256 9.500000 9.230781
v -10.995256 -1.500000 11.348490
v -10.995256 -3.500000 9.348490
v -10.995256 -0.500000 9.348490
v -10.995256 2.500000 11.348490
v -10.995256 -3.500000 1.348490
v -10.995256 -2.500000 1.348490
v -10.995256 -3.500000 9.348490
v -10.995256 1.500000 9.348490
v -10.995256 4.500000 9.348490
v -10.995256 1.500000 9.348490
v -10.995256 -8.500000 9.348490
v -12.995256 -7.500000 9.348490
v -10.995256 -8.500000 5.348490
v -10.995256 -8.500000 11.864791
v -12.052977 -7.424853 13.396938
v -10.995256 -8.500000 9.348490
v -12.995256 8.500000 9.348490
v -11.995256 -7.500000 5.348490
v -12.995256 -7.500000 9.348490
v -11.995256 -8.547466 5.348490
v -10.995256 -2.500000 1.348490
v -10.995256 -1.477625 7.442200
v -10.995256 -3.500000 9.348490
v -10.995256 -0.297432 8.707512
v -10.995256 -0.500000 9.348490
v -10.995256 2.479067 7.431643
v -10.995256 1.296938 8.704506
v -11.995256 1.296938 8.704506
v -11.995256 2.479067 7.431643
v -10.995256 -0.297432 8.707512
v -11.995256 -0.297432 8.707512
v -10.995256 -2.500000 1.348490
v -11.995256 -2.500000 1.348490
v -10.995256 -1.477625 7.442200
v -10.995256 -1.477625 7.442200
v -11.995256 -2.500000 1.348490
v -11.995256 -1.477625 7.442200
v -10.995256 2.479067 7.431643
v -11.995256 2.479067 7.431643
v -10.995256 3.500000 1.348490
v -11.995256 3.500000 1.348490
v -10.995256 -8.500000 5.348490
v -11.995256 -7.500000 5.348490
v -11.995256 -8.547466 5.348490
v -10.995256 -1.477625 7.442200
v -11.995256 -1.477625 7.442200
v -11.146517 -2.253260 16.988073
v -11.995256 -1.323965 13.721765
v -11.995256 -3.500000 17.348490
v -11.995256 -1.323965 13.721765
v -11.995256 -3.500000 9.348490
v -11.995256 -3.500000 17.348490
v -11.995256 -0.500000 12.348490
v -11.995256 -0.500000 9.348490
v -11.995256 1.500000 9.348490
v -11.995256 1.500000 12.348490
v -11.995256 2.804672 11.043818
v -11.995256 -0.500000 12.348490
v -11.995256 4.500000 9.348490
v -12.024477 2.595119 12.002203
v -11.995256 -3.500000 1.348490
v -13.004744 -3.500000 9.348490
v -11.995256 -3.500000 9.348490
v -11.995256 -3.500000 9.348490
v -12.399565 -4.370108 15.683564
v -11.995256 -3.500000 17.348490
v -12.995256 -7.500000 9.348490
v -12.069223 4.272079 11.471933
v -12.164022 7.824931 10.348490
v -11.995256 -7.500000 1.348490
v -11.995256 -11.500000 1.348490
v -11.995256 -8.422536 3.145470
v -11.995256 -7.500000 5.348490
v -11.995256 -0.500000 9.348490
v -11.995256 -0.297432 8.707512
v -11.995256 -3.500000 9.348490
v -11.995256 1.296938 8.704506
v -11.995256 1.500000 9.348490
v -11.995256 -1.477625 7.442200
v -11.995256 2.479067 7.431643
v -11.995256 4.500000 9.348490
v -11.995256 -7.500000 5.348490
v -12.995256 -7.500000 9.348490
v -11.995256 -7.500000 1.348490
v -11.995256 -3.500000 1.348490
v -11.995256 -1.477625 7.442200
v -11.995256 -2.500000 1.348490
v -11.995256 -3.500000 1.348490
v -11.995256 -8.547466 5.348490
v -11.995256 -3.500000 1.348490
v -11.995256 -7.500000 1.348490
v -13.004744 -3.500000 9.348490
v -11.995256 -7.500000 1.348490
v -12.995256 -7.500000 9.348490
v -13.004744 -3.500000 9.348490
v -11.995256 12.500000 5.348490
v -11.995256 12.500000 1.348490
v -11.995256 8.500000 5.348490
v -11.995256 3.500000 1.348490
v -11.995256 4.500000 9.348490
v -11.995256 4.500000 1.348490
v -11.995256 3.500000 1.348490
v -11.995256 8.500000 1.348490
v -11.995256 8.500000 1.348490
v -11.995256 4.500000 1.348490
v -12.995256 4.500000 9.348490
v -11.995256 8.500000 1.348490
v -12.995256 8.500000 9.348490
v -11.995256 4.500000 1.348490
v -11.995256 4.500000 9.348490
v -12.995256 4.500000 9.348490
v -12.995256 -6.467048 14.761867
v -12.995256 -6.467048 14.761867
v 13.004744 -7.500000 17.348490
v 13.004744 -3.500000 17.348490
v 12.004744 -7.500000 17.348490
v 12.004744 -3.500000 17.348490
v 12.004744 -7.500000 21.348490
v 12.004744 2.500000 21.348490
v 9.908014 -1.300595 22.348490
v 9.271408 -6.966070 22.348490
v 8.004744 -11.500000 21.348490
v 9.908014 2.300595 22.348490
v 9.908014 -1.300595 22.348490
v 7.536734 -1.748168 22.553751
v 9.271408 -6.966070 22.348490
v 4.450852 -3.678439 22.786982
v 7.470814 -8.766665 22.348490
v 7.470814 -8.766665 22.348490
v 8.004744 -12.500000 17.348490
v 8.004744 -11.500000 17.348490
v 4.004744 -12.500000 17.348490
v 1.260888 -11.500000 21.348490
v 4.004744 -11.500000 17.348490
v 0.783805 -9.403271 22.348490
v 2.897942 -5.579160 22.955292
v 2.381773 -7.385753 22.668625
v 0.783805 -9.403271 22.348490
v -2.816752 -9.406336 15.855532
v -4.972701 -9.160522 15.047617
v -3.995256 -12.500000 17.348490
v -5.171906 -12.500000 17.348490
v -4.757817 -9.185022 12.155202
v -6.011916 -9.042035 10.569120
v -7.058445 -12.500000 10.335908
v -4.972701 -9.160522 15.047617
v -6.259369 -11.486756 15.202011
v -5.665980 -12.500000 15.080579
v -5.665980 -12.500000 15.080579
v -5.665980 -12.500000 15.080579
v -6.259369 -11.486756 15.202011
v -6.891705 -12.500000 13.782925
v -7.597527 -8.861249 10.350312
v -8.995256 -10.500000 9.348490
v -7.995256 -11.500000 9.639753
v -7.995256 -12.500000 9.348490
v -7.995256 12.500000 5.348490
v -11.995256 12.500000 5.348490
v -8.288149 10.792893 5.348490
v -10.995256 9.500000 5.348490
v -10.288149 8.792893 5.348490
v -9.416832 8.045364 10.127915
v -10.995256 8.094009 10.492917
v -9.827822 4.387771 10.907806
v -10.995256 9.500000 9.230781
v -9.788582 -3.733559 17.348490
v -10.051239 -2.397163 16.995617
v -11.995256 -3.500000 17.348490
v -10.995256 4.389315 11.743778
v -9.946264 3.333691 11.132563
v -10.995256 2.321016 12.442122
v -10.060053 2.321016 11.348490
v -10.995256 3.432857 11.498623
v -11.146517 -2.253260 16.988073
v -10.060053 -1.317595 12.126227
v -11.995256 -0.500000 12.348490
v -12.024477 2.595119 12.002203
v -11.995256 1.500000 12.348490
v -12.164022 7.824931 10.348490
v -12.069223 4.272079 11.471933
v -11.995256 2.804672 11.043818
v -11.995256 2.804672 11.043818
v -11.995256 8.500000 5.348490
v -10.995256 9.500000 9.230781
v -12.995256 8.500000 9.348490
v -12.164022 7.824931 10.348490
v -11.995256 -3.500000 9.348490
v -13.004744 -3.500000 9.348490
v -12.995256 -7.500000 9.348490
v -11.995256 4.500000 9.348490
v -12.164022 7.824931 10.348490
v -12.995256 4.500000 9.348490
v -12.995256 8.500000 9.348490
v 12.004744 12.500000 5.348490
v 8.004744 12.500000 5.348490
v 11.004744 9.500000 5.348490
v 12.004744 8.500000 5.348490
v 8.297638 10.792893 5.348490
v 10.297638 8.792893 5.348490
v 11.004744 9.500000 14.391239
v 9.309088 8.041943 14.756042
v 12.004744 8.500000 15.957585
v 9.647682 5.344522 17.348490
v 11.719355 5.926948 17.348490
v 13.004744 6.299774 17.348490
v 13.004744 8.500000 16.484318
v 10.004744 2.500000 17.348490
v 12.004744 4.500000 17.348490
v 12.004744 2.500000 17.348490
v 13.004744 4.500000 17.348490
vn 0.1683 -0.9857 0.0125
vn -0.6370 0.2603 0.7255
vn -0.4450 0.1871 0.8758
vn -0.1589 0.0764 0.9843
vn -0.6757 0.2973 0.6745
vn -0.6594 0.2104 0.7217
vn -0.6690 0.2573 0.6973
vn -0.6470 0.1591 0.7457
vn -0.0076 0.0173 0.9998
vn 0.1321 -0.9886 -0.0719
vn 0.9391 0.0437 -0.3408
vn 0.9713 -0.0033 -0.2380
vn 0.9943 -0.1064 -0.0006
vn 0.9879 -0.1369 0.0730
vn 0.6078 0.4323 0.6661
vn 0.5388 0.6354 0.5531
vn 0.4882 0.7300 0.4783
vn 0.3796 0.8652 0.3277
vn -0.7032 0.6892 -0.1748
vn -0.7052 -0.7052 -0.0730
vn -0.9973 -0.0000 0.0730
vn -0.9898 -0.1417 0.0120
vn -0.9976 -0.0440 0.0543
vn -0.9856 -0.1691 -0.0000
vn -0.0000 1.0000 -0.0000
vn -0.0000 -1.0000 -0.0000
vn 1.0000 -0.0000 -0.0000
vn 0.9923 -0.0000 -0.1240
vn 0.9981 -0.0000 -0.0621
vn 0.9987 -0.0000 -0.0515
vn -0.8496 0.5161 -0.1088
vn -0.9922 -0.1245 -0.0000
vn -0.9921 -0.1257 -0.0021
vn -0.9922 -0.1245 -0.0073
vn -0.9962 -0.0000 -0.0866
vn -0.7071 0.7071 -0.0000
vn 0.7071 0.7071 -0.0000
vn -0.6563 0.7543 -0.0173
vn 0.8290 -0.2734 0.4878
vn 0.8497 -0.4870 0.2020
vn 0.7833 -0.6189 -0.0586
vn 0.6567 -0.6923 -0.2989
vn -0.6564 0.7544 -0.0078
vn -0.3313 0.9325 0.1435
vn -0.3685 0.8536 0.3682
vn -0.1893 0.9002 0.3923
vn -0.9921 -0.1256 -0.0057
vn -0.9921 -0.1258 -0.0011
vn 0.6868 0.6868 0.2379
vn 0.4319 0.8988 0.0753
vn 0.5886 0.7900 0.1719
vn 0.3003 0.9538 -0.0000
vn -0.2257 0.9668 0.1202
vn -0.1675 0.9859 -0.0000
vn -0.0377 0.4773 -0.8779
vn -0.6520 0.7582 -0.0000
vn 0.4071 0.8854 -0.2243
vn 0.7424 0.4644 0.4829
vn 0.5235 0.8338 -0.1754
vn 0.9859 -0.0655 0.1542
vn -0.6876 0.7258 -0.0193
vn -0.2177 -0.9243 0.3134
vn 0.2512 -0.9239 0.2887
vn 0.0835 -0.9012 0.4254
vn -0.7277 0.6835 0.0572
vn 0.7909 -0.6111 0.0320
vn 0.5331 -0.3761 0.7578
vn 0.0764 -0.8912 0.4472
vn -0.7277 0.6836 0.0567
vn 0.1613 0.2995 0.9403
vn 0.1514 0.5125 -0.8452
vn 0.0606 0.7964 -0.6018
vn 0.1432 0.5450 -0.8261
vn 0.0527 0.8145 -0.5777
vn 0.9543 -0.0447 0.2954
vn 0.0536 -0.9472 -0.3162
vn 0.0426 -0.9810 -0.1893
vn -0.0536 0.9472 0.3162
vn -0.0201 -0.8882 0.4590
vn 0.0438 -0.9783 -0.2024
vn 0.2136 -0.1794 0.9603
vn -0.4434 0.1558 0.8827
vn -0.9543 0.0447 -0.2954
vn -0.9753 -0.1604 -0.1520
vn -0.9447 -0.3272 -0.0222
vn -0.8221 -0.5437 0.1690
vn 0.9965 -0.0437 -0.0719
vn 0.1221 0.9322 -0.3408
vn 0.1740 0.9555 -0.2380
vn 0.2795 0.9601 -0.0006
vn -0.0184 -0.0045 0.9998
vn -0.1136 -0.1600 0.9806
vn 0.8913 -0.4363 0.1232
vn 0.7977 -0.6020 -0.0369
vn 0.9986 -0.0073 -0.0533
vn 0.3791 -0.9034 -0.2003
vn 0.2168 -0.9078 -0.3590
vn 0.3084 0.9485 0.0730
vn 0.3113 -0.7315 -0.6066
vn -0.2069 -0.3134 0.9268
vn -0.3873 -0.6133 0.6884
vn -0.3187 0.6743 0.6661
vn -0.5308 0.6421 0.5531
vn -0.6328 0.6089 0.4783
vn -0.2704 -0.6090 0.7457
vn -0.7850 0.5257 0.3277
vn -0.5828 0.0037 -0.8126
vn -0.4741 -0.1730 -0.8633
vn -0.6933 0.2613 -0.6716
vn -0.3190 -0.3702 -0.8725
vn 0.2529 0.7539 -0.6064
vn 0.9385 0.0050 -0.3452
vn -0.9385 -0.0050 0.3452
vn -0.8259 0.1540 0.5424
vn 0.5603 -0.8142 0.1522
vn 0.1749 -0.9714 0.1605
vn 0.6852 -0.7150 0.1386
vn 0.1257 -0.9850 0.1185
vn 0.1398 -0.9846 0.1049
vn -0.6953 0.7062 0.1334
vn -0.8543 0.1222 0.5052
vn -0.4204 0.4267 0.8007
vn -0.8258 0.1540 0.5425
vn -0.1956 0.8635 0.4650
vn 0.6509 -0.1135 0.7506
vn 0.3208 -0.0101 0.9471
vn 0.5613 -0.0839 0.8233
vn 0.0572 0.0639 0.9963
vn 0.4340 0.8984 -0.0671
vn 0.6991 0.7107 0.0788
vn 0.3812 0.9223 -0.0635
vn -0.0007 -0.0266 0.9996
vn -0.0069 -0.0217 0.9997
vn -0.0036 -0.0235 0.9997
vn -0.0071 -0.0194 0.9998
vn -0.7707 0.5373 -0.3426
vn -0.7705 0.5395 -0.3395
vn -0.7703 0.5422 -0.3355
vn 0.8880 0.4572 0.0494
vn 0.9989 -0.0447 -0.0144
vn 0.9774 -0.1516 -0.1471
vn -0.0007 0.0231 -0.9997
vn 0.0039 0.0229 -0.9997
vn 0.0010 0.0230 -0.9997
vn 0.0046 0.0228 -0.9997
vn -0.7702 0.5438 -0.3333
vn 0.1312 -0.2084 0.9692
vn 0.2526 -0.3734 0.8926
vn 0.4579 -0.6439 0.6130
vn 0.9178 0.0032 -0.3970
vn -0.9739 -0.0421 0.2232
vn -0.3915 -0.8557 -0.3383
vn 0.4302 -0.9016 -0.0447
vn 0.4074 -0.9118 0.0509
vn 0.2529 -0.9674 -0.0137
vn 0.6654 -0.7429 0.0735
vn 0.4771 -0.8777 -0.0442
vn 0.7071 -0.7071 -0.0000
vn -0.0000 -0.0000 -1.0000
vn -0.1610 0.9145 0.3712
vn -0.1176 0.8858 0.4490
vn -0.1655 0.8717 0.4612
vn -0.1966 0.8982 0.3931
vn -0.0484 0.9941 0.0968
vn -0.0000 -0.0000 1.0000
vn -0.0000 0.9562 0.2927
vn -0.0501 0.9460 0.3203
vn 0.9786 0.1005 0.1794
vn 0.9850 0.1515 0.0832
vn 0.8313 0.5476 0.0953
vn 0.9984 0.0563 -0.0063
vn 0.9984 0.0562 -0.0063
vn -0.6605 -0.7508 0.0080
vn -0.7071 -0.7071 -0.0000
vn -0.6579 -0.7531 0.0001
vn -0.6515 -0.7586 0.0077
vn -0.6564 -0.7544 -0.0000
vn -0.7044 -0.7093 -0.0255
vn -0.6909 -0.7225 -0.0261
vn -0.7894 -0.6077 -0.0866
vn -0.7052 0.7052 -0.0730
vn -0.7032 -0.6892 -0.1748
vn -0.7327 -0.6606 -0.1635
vn -0.9487 -0.0000 -0.3162
vn -0.6049 -0.7963 -0.0015
vn -0.6480 0.6480 -0.4003
vn -0.6049 -0.7962 0.0125
vn -1.0000 -0.0000 -0.0000
vn -0.9892 0.1242 -0.0776
vn -0.9915 0.1245 -0.0391
vn -0.9917 0.1245 -0.0320
vn -0.9922 0.1245 -0.0012
vn -0.9919 0.1272 -0.0050
vn -0.9918 0.1274 -0.0066
vn -0.9910 0.1330 -0.0158
vn -0.0799 0.9965 0.0227
vn -0.2817 0.9396 0.1943
vn -0.1933 0.9753 -0.1066
vn -0.1258 0.9517 0.2801
vn -0.5826 0.7344 0.3481
vn -0.3138 0.0421 -0.9486
vn -0.2160 0.1204 -0.9689
vn -0.2739 0.0565 -0.9601
vn -0.9988 -0.0000 -0.0483
vn -0.1243 0.2221 -0.9671
vn -0.1852 0.1376 -0.9730
vn 0.7293 0.6841 0.0072
vn 0.7318 0.6815 0.0012
vn 0.7367 0.6762 0.0066
vn 0.7555 0.6551 -0.0000
vn 0.7343 0.6788 -0.0000
vn 0.7160 0.6980 -0.0148
vn 0.6572 0.7527 -0.0383
vn 0.5061 0.0167 -0.8623
vn 0.6925 -0.1335 0.7089
vn 0.9747 -0.0645 0.2140
vn 0.7665 -0.0913 0.6357
vn 0.9754 -0.2146 -0.0508
vn 0.5933 0.8022 -0.0670
vn 0.6963 0.6963 -0.1741
vn 0.5011 0.8597 -0.0990
vn 0.7554 0.6550 -0.0159
vn 0.3554 0.6610 0.6610
vn -0.0000 -0.9955 -0.0945
vn -0.0000 -0.9987 -0.0515
vn -0.0000 -0.9923 -0.1240
vn 0.9363 -0.1971 -0.2907
vn 0.8876 -0.3111 -0.3397
vn 0.9815 0.1915 -0.0000
vn -0.6371 0.7098 0.3006
vn -0.8350 0.5388 0.1114
vn -0.0000 0.9968 -0.0796
vn -0.1157 0.9933 -0.0000
vn -0.1157 0.9932 -0.0160
vn -0.2307 0.9679 -0.1001
vn -0.1116 0.9930 -0.0395
vn -0.2622 0.9546 -0.1414
vn -0.0979 0.2400 -0.9658
vn -0.0373 0.3188 -0.9471
vn -0.0340 0.3282 -0.9440
vn -0.8687 0.4952 -0.0076
vn -0.9633 -0.1953 -0.1841
vn -0.8967 -0.0205 -0.4423
vn -0.9396 -0.1557 0.3048
vn -0.9857 -0.0520 0.1601
vn -0.8862 -0.0867 0.4552
vn -0.9354 0.0163 -0.3531
vn -0.9565 -0.0171 -0.2912
vn -0.9636 0.2603 -0.0613
vn -0.8487 0.5263 -0.0523
vn -0.9598 0.2714 -0.0718
vn -0.8721 0.4883 -0.0320
vn -0.9273 -0.0000 0.3742
vn -0.9663 -0.0455 0.2535
vn -0.9422 0.2868 0.1730
vn -0.5707 0.7613 -0.3077
vn -0.6573 -0.6416 -0.3954
vn -0.8827 -0.4532 -0.1247
vn -0.8355 -0.5449 0.0712
vn -0.5945 -0.7931 -0.1328
vn -0.9254 0.3250 0.1948
vn -0.8859 0.1828 0.4263
vn -0.9957 0.0929 0.0045
vn -0.9988 -0.0183 0.0445
vn -0.4933 -0.0964 0.8645
vn -0.4683 -0.0485 0.8822
vn -0.9282 -0.2876 0.2359
vn -0.1326 -0.2705 0.9536
vn -0.0834 -0.3385 0.9372
vn -0.0000 0.9487 -0.3162
vn 0.4282 -0.1591 0.8896
vn 0.8306 -0.5330 0.1611
vn 0.9062 0.2767 -0.3197
vn 0.9114 -0.3992 0.0997
vn 0.9797 0.1206 -0.1603
vn 0.9717 0.0235 -0.2350
vn 0.9748 -0.1841 -0.1263
vn 0.9955 0.0395 0.0867
vn 0.9422 -0.1325 0.3078
vn 0.7527 0.6464 0.1248
vn 0.9317 0.3588 0.0562
vn 0.9036 0.4284 0.0048
vn 0.9103 0.1883 0.3686
vn 0.9418 0.0886 0.3243
vn 0.9071 0.1850 0.3781
vn 0.9715 -0.1178 0.2059
vn 0.1330 -0.9865 -0.0951
vn 0.0686 -0.9964 -0.0491
vn 0.1709 -0.9777 -0.1222
vn -0.3507 0.9275 -0.1291
vn -0.5736 0.8176 -0.0500
vn 0.1133 0.9936 -0.0000
vn 0.5990 0.7412 -0.3030
vn 0.0686 -0.9964 -0.0490
vn 0.9419 -0.3307 0.0583
vn -0.0000 -0.9981 -0.0621
vn -0.0000 -0.9974 -0.0718
vn -0.8457 0.5331 -0.0229
vn -0.8485 0.5291 0.0096
vn -0.8591 0.5100 -0.0429
vn -0.8731 0.4857 0.0422
vn -0.8311 0.5547 0.0402
vn -0.6963 0.6963 -0.1741
vn -0.6183 0.7825 -0.0731
vn -0.7527 0.6582 -0.0167
vn -0.7608 0.6489 -0.0000
vn 0.7052 0.7052 -0.0730
vn 0.7848 -0.5886 -0.1937
vn 0.7527 -0.6431 -0.1408
vn 0.7571 -0.6364 -0.1476
vn 0.9856 -0.1691 -0.0000
vn -0.4945 -0.4945 0.7149
vn 0.7052 -0.7052 -0.0730
vn -0.7887 0.5949 0.1551
vn -0.8379 0.4942 0.2316
vn -0.8121 0.5797 0.0663
vn -0.7039 0.7039 -0.0949
vn -0.8869 0.3738 0.2715
vn -0.8562 0.5000 0.1303
vn -0.1832 -0.3455 0.9204
vn -0.0435 -0.3499 0.9358
vn -0.0847 -0.4627 0.8825
vn -0.2420 -0.3271 0.9135
vn -0.4492 0.0012 0.8934
vn 0.2623 -0.6685 0.6960
vn 0.1265 -0.7529 0.6459
vn 0.2789 -0.6714 0.6866
vn 0.2599 -0.6969 0.6684
vn 0.9567 0.2902 -0.0230
vn 0.9870 -0.1610 -0.0000
vn 0.9980 -0.0398 -0.0497
vn 0.9301 0.3471 -0.1198
vn 0.8084 0.5854 -0.0620
vn 0.6840 0.7294 -0.0083
vn 0.9303 -0.1048 -0.3515
vn -0.8260 0.0689 0.5594
vn 0.9271 -0.1048 -0.3598
vn 0.9841 -0.1352 -0.1154
vn 0.9841 -0.1350 -0.1151
vn 0.9503 -0.3083 -0.0445
vn 0.6785 -0.7346 -0.0000
vn 0.9920 0.1222 -0.0306
vn 0.9769 0.1595 -0.1424
vn 0.9924 0.1204 -0.0254
vn 0.9922 0.1236 0.0131
vn 0.9937 0.1117 -0.0000
vn 0.9925 0.1221 0.0007
vn 0.9503 -0.3082 -0.0446
vn 0.9396 -0.3289 -0.0943
vn 0.9911 0.1246 -0.0467
vn 0.7994 -0.5964 -0.0732
vn 0.6963 -0.6963 -0.1741
vn 0.6982 -0.7158 -0.0146
vn 0.9874 0.1537 0.0366
vn 0.9867 0.1616 0.0161
vn 0.9781 0.2037 0.0434
vn -0.0986 -0.9319 0.3490
vn -0.0295 -0.9113 0.4107
vn 0.0949 -0.6899 0.7177
vn 0.2543 -0.5922 0.7646
vn -0.0714 -0.9906 -0.1169
vn 0.4353 -0.8082 0.3968
vn 0.2037 -0.9711 0.1248
vn -0.0122 -0.9890 -0.1477
vn 0.0987 -0.9919 -0.0797
vn 0.7845 0.1961 0.5883
vn 0.5298 -0.5298 0.6623
vn -0.0265 -0.7002 -0.7134
vn -0.0621 -0.3247 -0.9438
vn -0.0609 -0.4020 -0.9136
vn -0.0000 -0.7071 -0.7071
vn -0.0000 0.6756 -0.7372
vn -0.0269 0.6816 -0.7312
vn -0.1060 0.6961 -0.7100
vn -0.1366 0.7005 -0.7005
vn 0.1222 0.9460 0.3003
vn 0.1660 0.9585 0.2317
vn 0.0905 0.9518 0.2931
vn 0.3855 0.9220 -0.0353
vn 0.1878 0.9270 0.3246
vn 0.0297 0.9197 0.3916
vn -0.2530 0.9674 -0.0141
vn -0.5092 0.8560 -0.0893
vn -0.4152 0.9038 -0.1038
vn -0.4472 -0.8944 -0.0000
vn -0.5093 -0.8597 -0.0397
vn -0.6259 -0.7705 -0.1203
vn -0.6963 -0.6963 -0.1741
vn -0.7129 -0.7013 -0.0000
vn -0.5835 -0.8022 0.1267
vn -0.5097 -0.8552 0.0940
vn -0.4697 -0.8739 0.1255
vn 0.0473 -0.9973 -0.0566
vn -0.0000 -0.7327 -0.6805
vn -0.0000 -0.4005 -0.9163
vn -0.0000 0.3978 -0.9175
vn -0.0000 0.9862 -0.1655
vn -0.0000 -0.9862 -0.1655
vn -0.0000 0.7313 -0.6821
vn -0.7212 0.5940 0.3564
vn -1.0000 -0.0066 -0.0066
vn -0.9998 -0.0134 -0.0134
vn -0.9992 -0.0282 -0.0282
vn -0.9985 -0.0390 -0.0390
vn -0.9653 0.2599 -0.0259
vn -0.9288 0.3702 -0.0152
vn -0.9069 0.4214 -0.0000
vn -0.9668 0.2534 -0.0343
vn -0.9536 0.2957 -0.0564
vn -0.9921 -0.0000 -0.1252
vn -0.9923 -0.0024 -0.1240
vn -0.9923 -0.0000 -0.1240
vn -0.5880 -0.7945 0.1516
vn 0.3302 -0.1361 0.9340
vn 0.4305 -0.0000 0.9026
vn 0.4174 -0.0054 0.9087
vn 0.3077 -0.1761 0.9350
vn 0.1200 -0.3203 0.9397
vn 0.0881 -0.0099 0.9961
vn 0.0855 -0.0108 0.9963
vn 0.0675 -0.0351 0.9971
vn 0.0958 -0.0186 0.9952
vn 0.0554 -0.0792 0.9953
vn 0.0759 -0.0804 0.9939
vn 0.0170 -0.1659 0.9860
vn 0.1629 -0.3190 0.9336
vn 0.0303 -0.4035 0.9145
vn 0.0402 -0.4227 0.9054
vn 0.0161 -0.1691 0.9855
vn -0.2542 0.4972 0.8296
vn -0.4990 0.4742 0.7253
vn -0.0782 0.5500 0.8315
vn -0.4668 0.5205 0.7150
vn -0.7620 0.1888 0.6195
vn -0.6088 0.0236 0.7930
vn -0.7248 0.1744 0.6665
vn 0.1613 -0.0238 0.9866
vn -0.9572 0.2008 0.2085
vn -0.6481 -0.4529 0.6122
vn -0.1701 -0.4043 0.8987
vn -0.3073 -0.1570 0.9386
vn -0.1978 -0.2030 0.9590
vn -0.5529 0.0231 0.8330
vn 0.2196 0.3791 0.8989
vn 0.0193 0.4822 0.8758
vn 0.5302 0.1878 0.8268
vn 0.1382 0.0739 0.9876
vn 0.5370 0.1643 0.8274
vn 0.0003 0.2061 0.9785
vn 0.2318 0.3133 0.9209
vn -0.3727 0.6217 0.6889
vn -0.1620 0.0852 0.9831
vn 0.0115 0.6680 0.7441
vn -0.2179 0.4373 0.8725
vn -0.2562 -0.0004 0.9666
vn -0.2441 -0.2829 0.9276
vn 0.0275 0.2603 0.9651
vn 0.7569 0.0903 0.6473
vn 0.3047 -0.0044 0.9524
vn 0.0561 -0.0530 0.9970
vn -0.5758 0.8022 0.1579
vn -0.2910 0.6632 0.6896
vn -0.0000 -0.2880 0.9576
vn -0.6918 -0.0438 0.7207
vn -0.1801 -0.2417 0.9535
vn -0.7690 -0.0000 0.6392
vn -0.4023 0.6333 0.6611
vn -0.3593 0.5858 0.7264
vn -0.3941 0.4761 0.7862
vn -0.0931 0.3310 0.9390
vn -0.1223 0.2899 0.9492
vn -0.1268 0.2754 0.9529
vn -0.4402 0.3283 0.8357
vt 0.273356 0.433012
vt 0.750521 0.432592
vt 0.442274 0.566641
vt 0.751249 0.244726
vt 0.690797 0.388068
vt 0.259451 0.402857
vt 0.377030 0.267276
vt 0.213255 0.250814
vt 0.570666 0.601399
vt 0.357982 0.523248
vt 0.799054 0.566956
vt 0.342321 0.737721
vt 0.597251 0.718003
vt 0.317918 0.476537
vt 0.809991 0.331003
vt 0.270993 0.565864
vt 0.341201 0.389681
vt 0.464512 0.533293
vt 0.621673 0.426303
vt 0.979243 0.000000
vt 0.798336 0.000498
vt 0.946141 0.502383
vt 0.733240 -0.000458
vt 0.674737 0.455817
vt 0.319695 -0.000458
vt 0.399040 0.455817
vt 0.225612 -0.000458
vt 0.225612 0.455817
vt 0.631315 0.008595
vt 0.631315 0.506928
vt 0.506732 1.005260
vt 0.260609 -0.000777
vt 0.260609 0.509540
vt 0.011081 -0.000777
vt 0.222848 0.573712
vt 0.011081 0.997335
vt 0.229499 0.000000
vt 0.478105 0.000101
vt 0.229499 0.511231
vt -0.094914 -0.000458
vt -0.094914 0.455817
vt 0.359836 -0.000458
vt 0.359836 0.455817
vt 0.815364 -0.000458
vt 0.360614 -0.000458
vt 0.815364 0.455817
vt 0.280460 0.539966
vt 0.478105 1.000000
vt 0.229499 0.658625
vt -0.123182 -0.000872
vt 0.002564 1.000914
vt -0.123182 1.000268
vt -0.123182 2.001407
vt 1.036848 -0.004956
vt 1.036848 1.001561
vt 0.535677 1.000914
vt 0.536281 -0.004956
vt 0.360614 0.455817
vt 0.798336 1.000000
vt 1.087397 0.007337
vt 1.087397 0.878613
vt 0.479142 0.878752
vt 0.545905 0.006602
vt 1.070314 0.997627
vt 1.070314 0.502032
vt 1.024219 0.496109
vt 0.846859 0.496109
vt 1.024219 0.989982
vt 0.846859 1.004906
vt 0.631315 1.005260
vt 1.182559 0.496367
vt 1.278280 0.998750
vt 0.998749 0.998746
vt 0.225543 0.575663
vt 0.260609 0.656671
vt 0.260609 0.997335
vt 0.229499 0.999899
vt 0.124567 0.997006
vt 0.124567 0.786560
vt -0.154964 0.997002
vt -0.154964 0.885383
vt 0.260609 1.995447
vt 0.011081 1.995447
vt 0.507844 0.997006
vt 0.507844 -0.002994
vt 0.757844 0.997006
vt 0.757844 -0.002994
vt 0.479142 1.062115
vt 1.087397 1.749888
vt 0.479142 1.197499
vt 0.001961 2.001407
vt 0.631315 1.079581
vt 0.506732 1.894264
vt 1.036848 1.893187
vt 0.761508 2.001166
vt 0.536281 2.001166
vt 0.411612 1.000000
vt 0.481010 0.849843
vt 0.588388 1.000000
vt 0.588388 0.925431
vt 0.631315 1.386476
vt 0.588388 0.617508
vt -0.154964 0.712677
vt 0.124567 0.631179
vt -0.154964 0.541197
vt 0.479142 1.467686
vt 0.775197 1.749960
vt 0.124567 0.321084
vt -0.154964 0.366678
vt 0.411612 0.544180
vt 0.588388 0.173863
vt 0.631315 1.828642
vt 0.411612 0.369656
vt 1.212773 0.097931
vt 1.197727 0.540840
vt 0.996473 0.071112
vt 0.990910 0.386606
vt 0.543990 0.065444
vt 1.086789 0.072381
vt 0.420134 0.579554
vt 0.327049 0.045767
vt 0.613347 -0.005038
vt 0.508871 0.501009
vt 0.897136 0.529760
vt 0.858051 0.615096
vt 0.651874 0.676576
vt 0.742521 0.693273
vt 1.037002 0.810076
vt 1.000000 0.603729
vt 0.011237 0.601887
vt 0.996696 0.478718
vt 0.000000 0.459170
vt 0.070912 0.562500
vt 0.098003 0.437500
vt 0.560413 0.562500
vt 0.000000 0.741989
vt 0.098070 0.306046
vt 0.927447 0.822334
vt 1.000000 0.797424
vt 0.000000 0.600226
vt 1.000000 0.352789
vt 0.000000 0.238133
vt 0.599913 0.122258
vt 0.542638 0.437500
vt 0.501162 0.178337
vt 0.904205 0.306046
vt 1.000000 0.499818
vt 1.000000 0.560413
vt 0.599913 0.773168
vt 0.000000 0.657293
vt 0.147418 1.000000
vt 0.757787 0.618074
vt 0.407202 0.599299
vt 0.668591 0.490084
vt 0.318049 0.471311
vt 0.188728 0.617283
vt 0.815104 0.440678
vt 0.726256 0.449091
vt 0.769575 0.306577
vt 0.581845 0.432322
vt 0.609845 0.531823
vt 0.547101 0.392995
vt 0.679539 0.315754
vt 0.569042 0.449364
vt 0.316577 0.289152
vt 0.498409 0.446160
vt 0.649772 0.733888
vt 0.402634 0.306046
vt 0.313768 0.583161
vt 0.595278 0.470845
vt 0.638471 0.592893
vt 0.809991 0.564423
vt 0.409271 0.733853
vt 0.865429 0.641851
vt 0.198814 0.488601
vt 0.485468 0.695959
vt 0.485567 0.293806
vt 0.500000 0.992273
vt 0.000307 0.989347
vt 0.500000 0.000307
vt 0.000307 1.999079
vt 0.500000 1.999079
vt 0.497752 0.990097
vt 0.624153 0.990097
vt 0.497752 2.001302
vt 0.624153 2.001302
vt 0.624153 -0.021109
vt 0.004041 0.999319
vt 0.004041 1.997565
vt -0.110025 1.997073
vt -0.110025 0.499703
vt -0.110025 0.000580
vt -0.274694 1.997690
vt -0.274694 0.999444
vt -0.274694 0.500320
vt 0.000307 0.000307
vt 0.994864 0.518850
vt 0.475865 0.518850
vt 0.994864 -0.000149
vt 0.475865 -0.000149
vt 0.591306 0.417021
vt 1.124387 0.417021
vt 0.591306 0.582979
vt 1.124387 0.582979
vt 0.392769 0.723048
vt 0.373366 0.416622
vt 0.538329 0.372217
vt 0.622915 0.602988
vt 0.637278 0.827379
vt -0.009098 -0.001521
vt 0.028975 -0.423133
vt 0.247244 -0.001521
vt -0.009098 1.004995
vt 0.116696 1.004995
vt 0.605614 0.129601
vt 0.865114 0.389100
vt 0.359998 0.205501
vt 0.475071 0.199634
vt 0.166399 0.595254
vt 1.175559 0.595254
vt -0.007686 0.834253
vt 0.570063 0.998918
vt 0.793008 0.000000
vt 0.793008 0.511231
vt 0.544402 0.000101
vt 0.742047 0.539966
vt 0.796964 0.575663
vt 0.793008 0.999899
vt 0.544402 1.000000
vt 0.771895 0.998918
vt -0.037669 0.998918
vt 1.175559 0.998918
vt 0.390936 1.000000
vt 0.140936 1.000000
vt 0.390936 0.000000
vt 0.140936 0.000000
vt -0.363943 0.994503
vt -0.363943 0.492853
vt -0.186583 0.994503
vt 0.168137 0.994503
vt 0.345497 0.492853
vt 0.345497 0.994503
vt -0.009098 -0.487834
vt -0.003231 -1.007695
vt 0.255487 -1.007695
vt 0.697361 0.037854
vt 0.956861 0.297353
vt 1.129950 0.000004
vt 1.129950 0.999972
vt 1.005263 1.000000
vt 0.850420 0.000000
vt 0.249621 1.004995
vt 0.249621 1.377609
vt -0.247195 0.000306
vt 0.279475 0.000306
vt -0.159137 0.499132
vt 0.761673 0.321643
vt 0.204688 0.501302
vt 0.238327 0.321643
vt 0.761673 0.741536
vt 0.238327 0.741536
vt 0.623147 0.417021
vt 1.092546 0.417021
vt 0.623147 0.582979
vt 1.092546 0.582979
vt 0.850420 0.999968
vt 0.314017 0.455023
vt 0.685983 0.455023
vt 0.332560 0.874763
vt 0.667440 0.874763
vt 0.447223 0.842198
vt 0.378107 1.000000
vt 0.382276 0.842497
vt 0.192300 0.499132
vt 0.887726 -1.007695
vt 0.958291 -0.001521
vt 0.958291 1.004995
vt 0.949275 1.377609
vt 0.000000 0.655310
vt 0.345799 0.833717
vt 0.000890 0.887045
vt 0.309592 0.655156
vt 0.737704 0.773123
vt -0.888072 0.221757
vt -0.786201 -0.537561
vt -0.459927 0.339212
vt 0.754983 0.739848
vt 0.729560 0.995128
vt 0.245017 0.739848
vt 0.270440 0.995128
vt -0.536072 -0.787690
vt 0.000817 -0.000464
vt 0.749336 0.893499
vt 0.501059 1.031937
vt 0.749336 0.505262
vt 0.501059 0.505262
vt -0.153186 0.450838
vt -0.029101 0.999935
vt -0.153186 0.999923
vt 0.123912 0.344386
vt 0.123912 0.999920
vt -0.115589 0.776008
vt -0.115589 0.502249
vt 0.157702 1.000000
vt 0.569834 0.844984
vt 0.415710 0.760130
vt 0.747456 0.721294
vt 0.177454 0.944955
vt 0.177454 1.498186
vt 0.000094 0.869111
vt 0.569834 0.134575
vt 0.747456 0.361160
vt 0.415710 0.234373
vt 0.256028 0.448669
vt 0.008381 0.502985
vt 0.000094 1.498186
vt -0.021925 0.000000
vt 0.157702 0.001041
vt 0.548071 0.842048
vt 0.612674 0.842328
vt 0.616857 1.000000
vt 0.881343 0.000000
vt 0.881343 0.500000
vt 0.756343 1.000000
vt 0.881343 0.875000
vt 0.500000 1.007380
vt 0.500000 1.145573
vt 0.345860 1.082565
vt -0.057206 0.993986
vt -0.057206 0.326204
vt 0.610576 0.993986
vt 0.000307 0.996312
vt 0.375077 1.999079
vt 0.500000 1.370897
vt 0.375077 1.485297
vt 0.944467 0.993986
vt 1.068651 0.326204
vt 1.183097 0.723645
vt 0.285351 0.882387
vt 0.500000 1.485297
vt 0.731641 0.654945
vt 1.020521 0.729396
vt 0.005392 -0.006417
vt 0.077988 -1.015366
vt 0.699839 -1.010837
vt 0.605026 0.227904
vt 0.005392 0.335549
vt 0.629850 0.663483
vt 0.005392 0.999226
vt 0.699839 1.000449
vt 0.005934 1.376914
vt 0.901033 1.379030
vt 0.699839 -0.005194
vt 0.078637 -0.311526
vt 0.145791 -0.579957
vt 0.447968 -0.889561
vt 0.993557 0.577185
vt 0.125230 0.996312
vt 0.125230 1.999079
vt 0.000307 0.988731
vt 1.000000 0.000000
vt 1.002181 0.999791
vt 0.752181 0.999791
vt 0.750000 0.500000
vt 0.650211 0.151403
vt 0.582915 0.077137
vt 0.408090 0.033718
vt 0.000000 0.000000
vt 1.002181 1.999791
vt 0.889689 1.558376
vt 0.858334 1.169007
vt 0.752181 1.999791
vt 0.752181 1.754042
vt 1.096714 0.648619
vt 0.846714 0.643897
vt 1.096714 0.254842
vt 0.846714 0.253395
vt 1.096714 0.000000
vt 0.846714 0.739587
vt 1.096714 0.754251
vt 0.846714 1.000000
vt 0.000000 0.760457
vt 0.358565 0.652982
vt 0.099580 0.955424
vt 0.374122 0.902902
vt 0.846714 0.000000
vt 0.678853 0.516158
vt 0.668550 0.831779
vt 0.699839 0.738566
vt 0.848808 0.000000
vt 0.973883 0.500000
vt 0.848808 1.000000
vt 0.973883 0.000000
vt 0.884965 0.995794
vt 1.098884 1.000000
vt 1.098884 0.500000
vt 0.665746 0.500000
vt 0.742312 0.417021
vt 0.973382 0.582979
vt 0.742312 0.582979
vt 0.033878 0.000323
vt 0.077515 0.193871
vt 0.033878 0.489457
vt 0.118539 0.489457
vt 0.178631 0.094370
vt 0.407469 0.073996
vt 0.523013 0.000323
vt 1.096714 1.000000
vt 0.000000 0.375000
vt 0.173083 0.375000
vt 0.000000 0.625000
vt 0.168508 0.625000
vt 0.997368 0.056224
vt 0.991835 0.302108
vt 0.755044 0.256471
vt 0.837601 0.052654
vt 0.389106 0.416649
vt 0.583814 0.319973
vt 0.389106 0.743797
vt 0.583814 0.788920
vt 0.389106 0.212758
vt 0.583814 0.177728
vt 1.000000 0.680296
vt 0.583814 -0.015289
vt 0.389106 -0.001503
vt 0.333508 0.104715
vt 0.564275 0.468850
vt 0.404424 0.895285
vt 0.389106 0.850747
vt 0.284415 0.093246
vt 0.306393 0.262815
vt 0.337135 0.500000
vt 0.467982 0.385943
vt 0.523013 0.489457
vt 0.414680 0.489457
vt 0.583814 1.338746
vt 0.389106 1.124580
vt 0.583814 1.507639
vt 0.389106 1.507602
vt 0.778522 0.375000
vt 1.000000 0.375000
vt 0.825731 0.625000
vt 1.000000 0.625000
vt 0.250000 0.500000
vt 0.017718 0.500000
vt 0.074560 0.726906
vt -0.107282 0.500000
vt 0.142972 0.000000
vt 0.142972 0.756301
vt 0.283135 1.000000
vt 0.054169 0.822574
vt 0.052167 1.000000
vt -0.107282 1.000000
vt 0.017718 0.000000
vt -0.107045 0.767245
vt -0.116316 0.580445
vt 0.121328 0.654350
vt 0.232134 0.019374
vt 0.210075 0.988864
vt 0.210075 0.641953
vt 0.457720 0.990179
vt 0.468419 -0.009821
vt 0.142972 0.001414
vt 0.845024 0.000505
vt 0.845024 1.000000
vt 0.142972 0.755444
vt 0.273980 0.998708
vt -0.030509 0.990198
vt -0.121373 0.767964
vt 0.129043 0.990198
vt 0.129043 0.640045
vt -0.219488 0.990198
vt 0.250000 1.000000
vt 0.000000 1.000000
vt 0.852442 0.769564
vt 0.721827 0.989894
vt 0.350603 0.838371
vt 0.507289 0.641482
vt 0.923967 0.738830
vt 0.528178 0.591957
vt 0.833669 0.522456
vt 0.806272 0.065227
vt -0.119128 0.222355
vt 0.497392 0.180231
vt 0.152497 0.989894
vt 0.152497 0.865532
vt 0.861501 1.006932
vt 0.733872 2.015865
vt 0.733872 1.007896
vt 0.861501 -0.002484
vt 0.584808 2.015383
vt 0.522582 1.729909
vt 0.347209 1.132671
vt 0.229222 1.008379
vt 0.733001 -0.002797
vt 0.229222 -0.002797
vt 1.061742 1.386089
vt 0.138166 1.553657
vt 1.087742 1.692308
vt 0.432537 1.725067
vt 0.117336 1.123045
vt 0.368209 1.566566
vt 1.019825 0.000000
vt 0.986787 0.502376
vt 1.110958 0.997627
vt 0.416158 0.673099
vt 0.326165 0.578576
vt 0.529385 0.385095
vt 0.265771 0.506542
vt 0.249478 -0.000635
vt 0.756849 0.498781
vt -0.125014 0.374319
vt -0.075911 0.194714
vt 0.137691 0.245493
vt 0.730489 0.476880
vt 0.512379 0.326017
vt 0.730489 -0.000027
vt 0.502016 0.124869
vt 0.253582 -0.000027
vt 0.125230 0.993999
vt 0.000307 0.500000
vt 0.000307 0.979742
vt -0.000081 0.969521
vt -0.177441 1.000741
vt -0.000081 0.489098
vt -0.177441 0.489098
vt 0.352608 0.499059
vt 0.135194 0.499059
vt 0.223038 -0.003529
vt 0.756849 0.007641
vt 0.586308 0.476880
vt 1.110958 0.502018
vt 0.506551 0.693854
vt 0.507690 0.561100
vt 0.796178 0.524970
vt 0.631298 0.688426
vt 0.509329 0.316932
vt 0.802056 0.310888
vt 0.471257 0.513242
vt 0.315069 0.351070
vt 0.362256 0.104530
vt 0.766665 0.130547
vt 0.753512 0.396331
vt 0.817153 0.140938
vt 0.952739 0.524296
vt 0.522575 0.296488
vt 0.559148 0.043725
vt 0.692295 1.000000
vt 0.246120 0.998904
vt 0.246120 0.000914
vt 0.692295 0.000699
vt 0.835577 0.502513
vt 0.999460 0.850245
vt 0.075786 0.983783
vt 0.535827 0.823722
vt 0.795777 0.733279
vt 0.524699 0.984566
vt 0.585265 0.990862
vt 0.585265 0.563558
vt 0.853064 0.989461
vt 0.136974 0.991576
vt -0.134577 0.740615
vt -0.134577 0.644045
vt 0.275002 0.268934
vt 0.307776 1.000000
vt 0.307776 0.000000
vt 0.753679 0.998903
vt 0.753679 0.000916
vt 0.164513 0.502516
vt 0.133127 0.000000
vt 0.040360 0.998185
vt 0.040360 0.502019
vt 0.853064 0.676108
vt -0.134577 0.464910
vt 0.169233 0.000777
vt 0.018664 0.000777
vt 0.998960 0.749209
vt 0.789178 0.891922
vt 0.596603 0.653599
vt 0.489994 0.521664
vt 0.094568 0.324747
vt 0.119818 0.416865
vt 0.779044 0.247139
vt 0.767133 0.373176
vt 0.581683 0.480813
vt 0.739523 0.147394
vt 0.420058 0.121945
vt 0.668406 0.777595
vt 0.730250 0.588988
vt 0.867005 0.000000
vt -0.179104 0.440284
vt 0.272603 0.484128
vt 0.249913 0.600763
vt -0.179576 0.607824
vt 0.753679 1.000000
vt 0.753679 0.000000
vt 0.878956 1.000000
vt 0.878956 0.000000
vt 0.246120 0.000000
vt 0.246120 1.000000
vt 0.121044 0.000000
vt 0.121044 1.000000
vt 1.179576 0.444003
vt 1.179104 0.611543
vt 0.727271 0.485387
vt 0.749740 0.602149
vt 0.204885 0.203915
vt 0.195442 0.553698
vt 0.103127 0.208154
vt 1.312115 0.254099
vt 0.862763 0.350146
vt 0.862763 0.254099
vt 0.208029 0.663316
vt 0.019393 0.663908
vt 0.025582 0.521410
vt 0.999460 0.502019
vt 0.747383 0.760394
vt 1.000000 1.000000
vt 0.599617 0.919502
vt 0.875000 0.000000
vt 0.999022 0.500897
vt 1.203169 0.500897
vt 1.267382 0.863713
vt 0.750366 0.710023
vt 1.000732 0.960388
vt 0.625183 0.960388
vt 0.249634 0.710023
vt 0.125000 0.000000
vt 0.625000 1.000000
vt 0.400321 0.919878
vt -0.000732 0.960389
vt 0.374817 0.960388
vt 0.703540 0.983975
vt 0.526180 0.978851
vt 0.703540 0.492991
vt 0.526180 0.492991
vt 0.000094 0.664478
vt 0.093893 0.475062
vt 0.000094 0.988688
vt 0.177454 0.993813
vt 0.416417 0.483417
vt 0.252797 0.761714
vt 0.375000 1.000000
vt 0.000140 0.417873
vt 0.298452 0.417873
vt 0.298452 0.582407
vt 0.000140 0.582407
vt 0.701408 0.417873
vt 0.701408 0.582407
vt 0.021962 0.000000
vt 0.201511 0.000000
vt 0.021962 0.500000
vt 0.201511 0.500000
vt 0.415891 0.650907
vt 1.000140 0.417873
vt 1.000140 0.582407
vt 0.215883 0.002622
vt 0.294576 0.465224
vt 0.044360 0.005577
vt 0.305871 0.456666
vt 0.044360 0.995309
vt 0.404894 0.627473
vt 0.406683 0.995309
vt 0.656683 0.995309
vt 0.656683 0.624778
vt 0.819184 0.785443
vt 0.406683 0.624778
vt 1.031082 0.995309
vt 0.793025 0.667135
vt -0.000519 0.000000
vt 0.124312 1.000351
vt -0.000519 1.000000
vt 0.524452 0.998227
vt 0.400808 0.252519
vt 0.524452 -0.005887
vt 0.024759 0.998227
vt 0.153799 0.317242
vt 1.002676 0.733285
vt 1.446849 0.873432
vt 0.363573 0.214221
vt 0.253582 0.476880
vt 0.599679 0.919878
vt 0.400383 0.919502
vt 0.252617 0.760394
vt 0.747203 0.761714
vt 0.500000 0.500000
vt 0.375077 0.991762
vt 0.378468 0.476880
vt 0.122958 0.000307
vt 0.621850 0.000307
vt 0.124584 1.000114
vt 0.623040 0.998471
vt 0.249478 0.506639
vt 0.249478 -0.000732
vt 0.756849 0.506639
vt 0.756849 -0.000732
vt 1.267237 0.000307
vt 1.766372 0.000307
vt 1.766372 0.905109
vt 0.500000 0.999693
vt 0.375077 1.004607
vt 0.177454 0.306320
vt 0.442213 0.731147
vt 0.442213 0.268853
vt 0.557787 0.731147
vt 0.557787 0.268853
vt 1.315557 0.231144
vt 1.361301 2.008069
vt 1.154455 1.381553
vt 1.086662 0.398628
vt 0.985833 -0.150711
vt 1.127846 1.998389
vt 1.110855 1.239627
vt 0.779093 1.007404
vt 1.055622 0.438812
vt 0.402126 0.743539
vt 0.813771 0.158723
vt 0.130088 0.553121
vt 0.079274 0.282000
vt 0.789813 0.054845
vt -0.370892 -0.427123
vt 0.268853 0.557787
vt 0.268853 0.442213
vt 0.731147 0.557787
vt 0.731147 0.442213
vt -0.357325 -0.185534
vt -0.120833 -0.037121
vt 0.334649 0.262804
vt 0.577745 0.283499
vt 0.328998 0.645492
vt 0.442814 0.686393
vt 0.623819 1.049865
vt 0.482356 0.794573
vt 0.861663 0.546104
vt 0.757379 0.458070
vt 0.725426 0.614420
vt 0.147148 1.739335
vt 0.418197 0.678788
vt 0.521138 0.397972
vt 0.690367 0.463091
vt 0.813709 0.453191
vt 0.491841 -0.001401
vt 0.998487 -0.001401
vt 0.528939 0.214823
vt 0.871826 0.378583
vt 0.782263 0.468146
vt 1.037969 0.386326
vt 1.022482 0.594298
vt 0.595258 0.430549
vt 0.574972 0.591185
vt 0.467673 0.443293
vt 0.459437 0.590381
vt 0.325132 0.589447
vt 0.361410 0.700207
vt 0.227492 0.698409
vt 1.192319 0.595480
vt 1.000945 0.708791
vt 0.566480 0.702959
vt 0.445471 0.701335
vt 1.064758 0.859061
vt 0.345100 0.455537
vt -0.094205 0.452154
vt 0.962575 0.931882
vt -0.007190 0.686605
vt 0.998487 0.505245
vt 0.222403 0.699397
vt 0.207667 0.512874
vt 0.314936 0.534100
vt 0.124856 1.125905
vt 0.696031 0.505521
vt 0.318122 0.534007
vt 0.703798 0.386844
vt 0.213969 0.394902
vt 0.245290 -0.000458
vt 0.700040 -0.000458
vt 0.358978 0.340846
vt 0.245290 0.455817
vt 0.666742 0.193860
vt 0.439367 0.421235
vt 0.470524 0.056170
vt 0.682619 0.238545
vt 0.345443 0.181251
vt 0.640267 0.575942
vt 0.381140 0.503091
vt 0.345443 0.681575
vt 0.220362 0.456458
vt 0.220362 0.181251
vt 0.595605 0.931737
vt 0.470524 0.931737
vt 0.220362 0.681575
s 0
usemtl material1
f 1/1/1 2/2/1 3/3/1
s 1
f 4/4/2 5/5/3 6/6/4
f 7/4/5 8/6/6 9/7/7
f 22/8/8 9/7/7 8/6/6
f 5/5/3 10/9/9 11/10/9
f 5/5/3 11/10/9 6/6/4
s 0
f 12/3/10 13/2/10 14/11/10
s 1
f 15/12/11 16/13/12 17/14/13
f 16/13/12 18/15/14 17/14/13
f 19/16/15 20/17/16 21/18/17
f 20/17/16 23/19/18 21/18/17
s 0
f 24/20/19 25/21/19 26/22/19
f 27/23/20 28/24/20 29/25/20
f 33/26/20 29/25/20 28/24/20
s 1
f 30/25/21 31/26/22 32/27/23
f 62/28/24 32/27/23 31/26/22
s 0
f 34/29/25 35/30/25 36/31/25
f 37/32/26 38/33/26 39/34/26
f 64/35/26 39/34/26 38/33/26
f 39/34/26 64/35/26 65/36/26
f 40/37/27 41/38/27 42/39/27
f 43/40/27 44/41/27 45/42/27
f 46/43/27 45/42/27 44/41/27
f 47/44/25 48/45/25 49/46/25
f 50/38/27 51/47/27 52/39/27
f 50/38/27 53/48/27 51/47/27
f 89/49/27 51/47/27 53/48/27
f 54/50/26 55/51/26 56/52/26
f 106/53/26 56/52/26 55/51/26
s 1
f 57/54/28 58/55/29 59/56/30
f 57/54/28 60/56/30 61/57/28
s 0
f 48/45/25 63/58/25 49/46/25
f 66/21/31 67/59/31 68/22/31
s 1
f 69/60/32 70/61/33 71/62/34
s 0
f 72/60/35 73/62/35 74/63/35
f 75/22/36 76/64/36 77/65/36
f 78/66/37 79/67/37 80/68/37
f 79/67/37 81/69/37 80/68/37
f 35/30/25 82/70/25 36/31/25
f 83/71/38 84/72/38 85/73/38
s 1
f 86/39/39 87/47/40 88/74/41
f 87/47/40 90/49/42 88/74/41
s 0
f 64/35/26 91/75/26 92/76/26
f 64/35/26 92/76/26 65/36/26
f 89/49/27 53/48/27 93/77/27
s 1
f 94/78/43 95/79/44 96/80/45
f 99/81/46 96/80/45 95/79/44
s 0
f 92/76/26 97/82/26 65/36/26
f 98/83/26 65/36/26 97/82/26
f 100/84/27 101/85/27 102/86/27
f 105/87/27 102/86/27 101/85/27
s 1
f 70/61/33 103/88/47 71/62/34
f 70/61/33 104/89/48 103/88/47
f 121/90/32 103/88/47 104/89/48
s 0
f 55/51/26 107/91/26 106/53/26
f 82/70/25 108/92/25 36/31/25
f 109/93/25 36/31/25 108/92/25
s 1
f 58/55/29 110/94/27 111/95/27
f 58/55/29 111/95/27 112/96/27
f 58/55/29 112/96/27 59/56/30
f 113/97/49 114/98/50 115/99/51
f 116/100/52 115/99/51 114/98/50
s 0
f 108/92/25 117/101/25 109/93/25
s 1
f 116/100/52 114/98/50 118/102/52
f 99/81/46 95/79/44 119/103/53
f 95/79/44 120/104/54 119/103/53
s 0
f 122/104/55 123/105/55 124/103/55
s 1
f 121/90/32 104/89/48 125/106/32
f 135/107/32 125/106/32 104/89/48
s 0
f 126/104/56 127/108/56 128/105/56
f 134/109/56 128/105/56 127/108/56
f 129/102/37 130/110/37 131/111/37
f 117/101/25 132/112/25 109/93/25
f 130/110/37 133/113/37 131/111/37
s 1
f 136/114/57 137/115/58 138/116/59
f 149/117/60 138/116/59 137/115/58
s 0
f 139/118/61 140/119/61 141/120/61
s 1
f 142/121/62 143/122/63 144/123/64
s 0
f 145/119/65 146/124/65 147/120/65
s 1
f 148/116/66 149/117/60 143/122/63
f 150/125/67 143/122/63 149/117/60
f 143/122/63 150/125/67 151/126/68
f 143/122/63 151/126/68 144/123/64
f 149/117/60 137/115/58 150/125/67
s 0
f 146/124/69 152/127/69 147/120/69
s 1
f 137/115/58 153/128/70 150/125/67
f 154/129/71 155/130/72 156/131/73
f 163/132/74 156/131/73 155/130/72
s 0
f 157/133/75 158/134/75 159/135/75
s 1
f 160/136/76 161/137/77 162/138/76
s 0
f 164/139/78 165/140/78 166/141/78
f 173/142/78 166/141/78 165/140/78
f 166/141/78 173/142/78 174/143/78
s 1
f 158/134/75 167/144/75 159/135/75
f 161/137/77 168/145/79 169/146/80
f 161/137/77 169/146/80 162/138/76
f 178/147/76 162/138/76 169/146/80
f 170/148/81 171/144/81 172/149/81
s 0
f 175/149/82 176/150/82 177/151/82
s 1
f 179/152/83 180/153/84 181/154/83
f 183/155/85 181/154/83 180/153/84
f 182/156/86 183/155/85 180/153/84
s 0
f 184/157/87 185/158/87 186/159/87
s 1
f 187/12/88 188/13/89 189/14/90
s 0
f 190/9/91 191/160/91 192/161/91
f 190/9/91 193/10/91 191/160/91
s 1
f 200/162/92 191/160/91 193/10/91
f 194/158/93 195/163/94 196/159/95
f 194/158/93 197/164/96 195/163/94
f 199/165/97 195/163/94 197/164/96
f 188/13/89 198/15/98 189/14/90
f 197/164/96 201/166/99 199/165/97
f 200/162/92 193/10/91 202/6/100
f 200/162/92 202/6/100 203/7/101
f 204/16/102 205/17/103 206/18/104
s 0
f 207/7/105 208/6/105 209/8/105
s 1
f 205/17/103 210/19/106 206/18/104
f 211/155/107 212/153/108 213/156/109
f 211/155/107 214/154/110 212/153/108
f 225/152/110 212/153/108 214/154/110
s 0
f 215/150/111 216/151/111 217/149/111
f 218/142/112 219/143/112 220/15/112
f 218/142/112 220/15/112 221/140/112
f 230/13/112 221/140/112 220/15/112
f 222/147/113 223/138/113 224/146/113
f 234/167/113 224/146/113 223/138/113
s 1
f 224/146/113 234/167/113 235/168/114
f 226/132/115 227/169/116 228/130/117
f 226/132/115 229/170/118 227/169/116
f 236/171/119 227/169/116 229/170/118
s 0
f 231/146/120 232/168/120 233/145/120
s 1
f 234/167/113 237/14/121 275/168/114
f 242/172/122 276/168/123 277/14/121
f 234/167/113 238/12/113 278/14/121
s 0
f 239/173/124 240/174/124 241/175/124
s 1
f 243/13/125 244/15/126 245/12/127
f 244/15/126 246/14/128 245/12/127
f 247/157/129 248/158/130 249/159/131
f 250/9/132 251/10/133 252/161/134
f 258/160/135 252/161/134 251/10/133
f 253/12/136 254/13/137 255/14/138
f 248/158/130 256/163/139 249/159/131
f 248/158/130 257/164/140 256/163/139
f 259/165/141 256/163/139 257/164/140
f 260/176/142 261/177/143 262/13/144
f 263/15/145 262/13/144 261/177/143
f 254/13/137 264/15/146 255/14/138
f 258/160/135 251/10/133 265/162/147
f 267/6/148 265/162/147 251/10/133
f 265/162/147 267/6/148 268/7/149
f 257/164/140 266/166/150 259/165/141
s 0
f 269/16/151 270/17/151 271/18/151
f 272/17/152 273/19/152 274/18/152
s 1
usemtl material2
f 279/178/29 280/179/30 281/180/28
f 279/178/29 282/181/27 280/179/30
f 279/178/29 283/182/27 282/181/27
s 0
f 284/183/25 285/184/25 286/185/25
f 297/186/25 286/185/25 285/184/25
f 284/183/25 287/187/25 285/184/25
s 1
f 288/188/153 289/189/26 290/190/154
f 288/188/153 291/191/155 292/192/26
f 288/188/153 290/190/154 293/193/156
f 288/188/153 294/194/157 291/191/155
f 301/195/158 291/191/155 294/194/157
f 288/188/153 293/193/156 294/194/157
f 295/179/30 296/196/28 281/180/28
s 0
f 298/197/26 299/198/26 300/199/26
f 353/200/26 300/199/26 299/198/26
f 302/197/27 303/198/27 304/199/27
f 325/200/27 304/199/27 303/198/27
s 1
f 305/201/159 306/202/159 307/203/159
f 306/202/159 308/204/159 307/203/159
f 309/205/160 310/206/161 311/207/162
f 309/205/160 311/207/162 312/208/163
f 309/205/160 312/208/163 313/209/164
s 0
f 314/210/25 315/211/25 316/212/25
f 314/210/25 316/212/25 317/213/25
f 349/214/25 317/213/25 316/212/25
f 318/200/165 319/215/165 320/198/165
f 321/216/165 320/198/165 319/215/165
f 320/198/165 321/216/165 322/197/165
s 1
f 323/217/166 324/218/167 310/206/161
f 311/207/162 310/206/161 324/218/167
f 326/219/27 327/220/27 328/221/27
s 0
f 336/222/27 328/221/27 327/220/27
s 1
f 329/223/27 330/224/168 331/225/27
f 332/226/169 331/225/27 330/224/168
f 332/226/169 330/224/168 333/227/170
f 332/226/169 334/228/171 335/229/27
f 332/226/169 335/229/27 331/225/27
f 332/226/169 333/227/170 334/228/171
s 0
f 336/222/27 327/220/27 337/230/27
f 336/222/27 338/231/27 328/221/27
f 327/220/27 339/232/27 337/230/27
s 1
f 340/233/27 341/234/27 342/235/172
f 341/234/27 343/236/27 342/235/172
s 0
f 344/237/158 345/238/158 346/239/158
s 1
f 345/238/158 347/240/158 346/239/158
f 345/238/158 348/241/158 347/240/158
f 430/242/158 347/240/158 348/241/158
s 0
f 350/243/25 351/244/25 315/211/25
f 351/244/25 352/245/25 315/211/25
f 316/212/25 315/211/25 352/245/25
s 1
f 319/215/165 354/246/165 355/247/165
s 0
f 319/215/165 355/247/165 321/216/165
s 1
f 356/248/173 357/249/174 358/250/175
f 356/248/173 358/250/175 359/251/176
f 360/64/177 361/59/178 362/65/179
f 365/22/180 362/65/179 361/59/178
s 0
f 349/214/25 316/212/25 363/252/25
f 349/214/25 363/252/25 364/253/25
f 366/254/181 367/255/181 368/256/181
s 1
f 369/20/182 365/22/180 370/21/183
f 371/257/184 372/258/184 373/259/184
s 0
f 371/257/184 374/260/184 372/258/184
f 378/261/184 372/258/184 374/260/184
s 1
f 375/262/159 376/263/159 377/264/159
f 386/265/159 377/264/159 376/263/159
f 365/22/180 361/59/178 370/21/183
f 358/250/175 379/266/185 359/251/176
f 380/267/186 381/268/186 382/269/186
f 413/270/186 382/269/186 381/268/186
f 383/271/187 384/272/187 385/273/187
s 0
f 387/256/181 388/255/181 389/274/181
f 390/245/188 391/275/188 392/212/188
s 1
f 393/275/189 394/276/190 395/212/191
f 396/252/192 395/212/191 394/276/190
f 397/253/193 396/252/192 398/277/194
f 397/253/193 398/277/194 399/278/195
f 396/252/192 394/276/190 398/277/194
f 400/279/196 401/280/197 402/281/198
f 400/279/196 403/282/199 401/280/197
f 475/283/200 401/280/197 403/282/199
f 404/284/201 405/285/202 406/286/203
s 0
f 407/287/204 408/288/204 409/289/204
s 1
f 410/290/204 409/289/204 408/288/204
f 405/285/202 411/291/205 412/292/206
f 405/285/202 412/292/206 406/286/203
s 0
f 414/293/158 415/294/158 416/295/158
f 434/296/158 416/295/158 415/294/158
s 1
f 417/297/207 418/298/208 419/299/37
f 417/297/207 420/300/209 418/298/208
f 441/301/210 418/298/208 420/300/209
f 421/302/211 422/303/212 423/304/213
s 0
f 424/305/214 425/306/214 426/307/214
s 1
f 427/308/158 428/309/158 429/310/158
f 431/311/215 432/312/216 433/313/217
f 451/314/218 433/313/217 432/312/216
f 422/303/212 435/315/219 423/304/213
s 0
f 428/309/158 436/316/158 429/310/158
f 437/315/220 438/317/220 439/318/220
s 1
f 435/315/219 440/318/221 423/304/213
s 0
f 442/319/222 443/320/222 444/321/222
f 445/322/27 446/323/27 447/324/27
f 468/325/27 447/324/27 446/323/27
f 448/326/223 449/327/223 450/328/223
f 452/329/26 453/330/26 454/331/26
s 1
f 455/326/224 456/328/26 457/332/225
f 455/326/224 457/332/225 458/180/226
s 0
f 459/182/27 460/333/27 461/334/27
f 460/333/27 462/335/27 461/334/27
f 453/330/26 463/336/26 454/331/26
f 453/330/26 464/337/26 465/338/26
f 453/330/26 465/338/26 463/336/26
s 1
f 458/180/226 466/332/225 467/196/226
f 469/306/227 470/339/228 451/314/218
f 469/306/227 432/312/216 471/307/229
f 469/306/227 451/314/218 432/312/216
s 0
f 472/182/26 456/328/26 473/340/26
f 472/182/26 474/181/26 456/328/26
s 1
f 457/332/225 456/328/26 474/181/26
f 403/282/199 476/341/230 475/283/200
f 493/342/231 475/283/200 476/341/230
s 0
f 477/343/232 478/344/232 479/345/232
s 1
f 480/343/233 481/346/233 482/347/233
f 486/348/233 482/347/233 481/346/233
f 482/347/233 486/348/233 485/349/234
f 487/350/235 485/349/234 486/348/233
f 485/349/234 487/350/235 488/351/236
f 489/352/237 488/351/236 487/350/235
f 480/343/233 483/353/233 481/346/233
s 0
f 480/343/233 484/345/233 483/353/233
s 1
f 411/291/205 490/354/238 412/292/206
f 411/291/205 491/355/239 490/354/238
f 411/291/205 492/356/240 491/355/239
f 476/341/230 494/357/241 493/342/231
s 0
f 495/358/188 496/359/188 497/181/188
f 495/358/188 497/181/188 498/360/188
f 495/358/188 498/360/188 499/196/188
f 500/361/26 501/362/26 502/363/26
f 500/361/26 503/364/26 504/365/26
f 500/361/26 502/363/26 503/364/26
f 500/361/26 504/365/26 505/366/26
f 500/361/26 505/366/26 506/367/26
f 507/361/26 508/367/26 509/368/26
f 510/369/26 511/370/26 501/362/26
f 514/371/26 501/362/26 511/370/26
f 501/362/26 514/371/26 502/363/26
f 510/369/26 512/372/26 513/373/26
f 510/369/26 513/373/26 511/370/26
s 1
f 515/374/242 516/375/243 517/376/244
f 524/377/245 517/376/244 516/375/243
f 517/376/244 524/377/245 525/378/246
f 515/374/242 518/379/247 516/375/243
f 515/374/242 519/380/248 518/379/247
f 537/381/188 518/379/247 519/380/248
f 520/382/249 521/383/250 522/384/251
f 523/385/252 522/384/251 521/383/250
f 524/377/245 526/386/253 525/378/246
f 521/383/250 527/387/254 523/385/252
f 529/388/255 523/385/252 527/387/254
f 486/348/233 528/389/233 487/350/235
s 0
f 530/390/188 531/391/188 532/392/188
f 530/390/188 533/393/188 531/391/188
s 1
f 487/350/235 534/394/256 489/352/237
s 0
f 531/391/188 535/395/188 532/392/188
f 531/391/188 536/396/188 535/395/188
f 503/364/26 538/397/26 504/365/26
s 1
f 539/398/159 540/399/159 541/400/159
s 0
f 542/401/25 543/402/25 544/403/25
f 549/404/25 544/403/25 543/402/25
f 542/401/25 545/405/25 543/402/25
f 542/401/25 546/406/25 545/405/25
s 1
f 542/401/25 547/407/25 546/406/25
f 548/408/188 537/381/188 519/380/248
s 0
f 550/409/165 551/410/165 552/411/165
f 557/412/165 552/411/165 551/410/165
s 1
f 553/413/257 554/414/258 555/415/259
f 553/413/257 555/415/259 556/416/260
f 558/417/261 559/418/262 560/419/263
f 563/420/264 560/419/263 559/418/262
f 558/417/261 561/421/265 562/422/266
f 558/417/261 562/422/266 559/418/262
f 564/423/267 529/388/255 527/387/254
f 564/423/267 527/387/254 554/414/258
f 555/415/259 554/414/258 527/387/254
f 561/421/265 565/424/268 562/422/266
f 561/421/265 566/425/269 565/424/268
f 567/426/270 568/427/270 569/428/270
s 0
f 570/419/271 571/420/271 572/429/271
f 508/367/26 573/430/26 509/368/26
f 590/431/26 509/368/26 573/430/26
f 509/368/26 590/431/26 588/432/26
f 574/406/25 575/407/25 576/433/25
f 587/434/25 576/433/25 575/407/25
f 576/433/25 587/434/25 586/435/25
s 1
f 577/420/272 578/436/273 579/429/274
f 582/437/275 579/429/274 578/436/273
f 580/438/276 581/439/277 582/437/275
f 580/438/276 582/437/275 578/436/273
s 0
f 583/440/165 584/441/165 585/442/165
f 591/443/165 585/442/165 584/441/165
f 588/432/26 589/444/26 509/368/26
s 1
f 592/445/27 593/446/278 594/447/27
f 592/445/27 595/448/27 596/449/279
f 592/445/27 596/449/279 593/446/278
f 599/450/280 593/446/278 596/449/279
f 593/446/278 599/450/280 598/451/281
f 600/452/282 598/451/281 599/450/280
f 598/451/281 600/452/282 601/453/27
s 0
f 592/445/27 597/454/27 595/448/27
s 1
f 593/446/278 598/451/281 594/447/27
f 598/451/281 601/453/27 594/447/27
f 602/455/283 603/456/284 604/457/285
f 605/458/286 604/457/285 603/456/284
f 606/459/26 607/460/287 608/461/288
f 607/460/287 609/462/289 608/461/288
f 610/463/232 611/464/290 612/465/291
s 0
f 613/463/292 614/465/292 615/466/292
f 632/467/292 615/466/292 614/465/292
s 1
f 616/468/282 617/469/27 618/470/27
s 0
f 624/471/27 618/470/27 617/469/27
f 619/468/293 620/472/293 621/469/293
s 1
f 589/444/26 622/473/26 623/474/294
f 589/444/26 623/474/294 509/368/26
f 625/475/292 626/476/292 627/477/292
s 0
f 625/475/292 627/477/292 628/478/292
f 629/479/292 630/480/292 631/481/292
f 633/482/292 631/481/292 630/480/292
s 1
f 603/456/284 634/483/295 605/458/286
s 0
f 633/482/292 630/480/292 635/484/292
s 1
f 626/476/292 636/485/292 637/486/292
f 626/476/292 637/486/292 627/477/292
s 0
f 638/487/27 639/488/27 640/489/27
f 638/487/27 640/489/27 641/490/27
s 1
f 642/489/296 643/488/26 644/491/26
f 642/489/296 644/491/26 645/492/26
f 642/489/296 645/492/26 646/493/26
f 642/489/296 646/493/26 647/494/297
f 642/489/296 647/494/297 648/495/226
f 648/495/226 649/494/297 650/496/226
f 651/497/298 652/498/299 653/499/300
f 655/500/301 653/499/300 652/498/299
f 651/497/298 654/501/302 652/498/299
s 0
f 645/492/26 656/502/26 646/493/26
s 1
f 611/464/290 657/503/303 658/504/304
f 611/464/290 658/504/304 612/465/291
f 659/505/305 612/465/291 658/504/304
s 0
f 660/506/306 661/507/306 662/508/306
f 663/509/25 664/510/25 665/511/25
f 666/254/307 667/512/307 668/256/307
f 666/254/307 669/513/307 667/512/307
f 666/254/307 670/514/307 669/513/307
f 666/254/307 671/255/307 670/514/307
s 1
f 672/255/308 673/274/309 674/254/310
s 0
f 675/515/26 676/516/26 677/517/26
f 685/518/26 677/517/26 676/516/26
f 677/517/26 685/518/26 686/519/26
f 678/520/188 679/521/188 680/196/188
f 678/520/188 681/522/188 679/521/188
f 682/523/174 683/524/174 684/525/174
f 694/526/174 684/525/174 683/524/174
f 687/527/311 688/528/311 689/529/311
f 664/510/25 690/530/25 665/511/25
s 1
f 691/515/312 692/531/312 693/516/312
f 658/504/304 695/532/36 659/505/305
f 673/274/309 696/256/313 674/254/310
f 697/533/314 698/534/315 699/535/316
f 697/533/314 699/535/316 700/536/317
f 698/534/315 701/537/318 702/538/319
f 698/534/315 702/538/319 699/535/316
f 703/539/320 704/540/321 705/541/322
f 703/539/320 706/542/323 707/543/324
f 703/539/320 705/541/322 706/542/323
f 708/544/325 709/545/326 710/546/327
f 708/544/325 710/546/327 711/547/328
f 712/548/329 713/549/330 714/550/331
f 712/548/329 715/551/332 716/552/333
f 712/548/329 714/550/331 715/551/332
f 712/548/329 716/552/333 717/553/334
f 718/554/335 719/555/336 720/556/337
s 0
f 718/554/338 720/556/339 721/557/338
s 1
f 722/558/340 723/559/341 724/560/341
f 725/558/342 726/561/343 727/562/344
f 725/558/342 727/562/344 728/563/345
f 725/558/342 728/563/345 729/559/346
f 736/564/347 729/559/346 728/563/345
f 730/565/348 731/566/349 732/567/350
f 757/568/27 732/567/350 731/566/349
f 730/565/348 733/569/351 731/566/349
f 758/570/352 731/566/349 733/569/351
f 730/565/348 734/571/341 735/572/353
f 730/565/348 735/572/353 733/569/351
s 0
f 723/559/341 737/573/341 724/560/341
s 1
f 736/564/347 728/563/345 738/574/354
f 736/564/347 738/574/354 739/575/355
f 744/576/356 739/575/355 738/574/354
f 709/545/326 740/577/357 741/578/358
f 709/545/326 741/578/358 742/579/359
f 709/545/326 742/579/359 743/580/360
f 709/545/326 743/580/360 710/546/327
f 745/581/307 746/514/307 747/582/307
s 0
f 754/255/307 747/582/307 746/514/307
s 1
f 747/582/307 754/255/307 755/274/307
f 748/583/361 749/584/362 750/585/363
f 748/583/361 750/585/363 751/586/364
f 785/587/365 751/586/364 750/585/363
f 719/555/336 752/588/366 720/556/337
f 749/584/362 753/589/367 750/585/363
f 715/551/332 756/590/220 716/552/333
f 759/591/368 760/592/369 761/593/370
f 759/591/368 761/593/370 762/594/371
s 0
f 763/595/25 764/596/25 765/597/25
f 764/596/25 766/598/25 765/597/25
f 767/599/26 768/600/26 769/601/26
f 768/600/26 770/602/26 769/601/26
s 1
f 771/603/372 772/604/373 773/605/374
f 780/606/375 773/605/374 772/604/373
f 774/607/376 775/608/377 776/609/378
s 0
f 777/610/27 778/611/27 779/612/27
s 1
f 781/605/159 782/606/159 760/592/369
f 761/593/370 760/592/369 782/606/159
f 783/613/379 784/614/380 775/608/377
f 786/615/381 775/608/377 784/614/380
f 775/608/377 786/615/381 776/609/378
f 716/552/333 787/616/37 717/553/334
s 0
f 788/617/27 789/618/27 790/619/27
f 791/617/27 792/620/27 793/361/27
f 788/617/27 793/361/27 789/618/27
s 1
f 794/621/36 795/622/382 796/553/383
f 813/623/384 796/553/383 795/622/382
s 0
f 797/624/27 798/625/27 799/626/27
f 797/624/27 799/626/27 800/627/27
f 801/368/27 802/628/27 803/474/27
f 789/618/27 804/629/27 790/619/27
f 820/630/27 790/619/27 804/629/27
f 805/631/27 800/627/27 806/632/27
f 799/626/27 806/632/27 800/627/27
s 1
f 807/633/385 808/634/386 809/635/387
f 814/636/388 809/635/387 808/634/386
f 810/637/389 811/638/390 812/639/391
f 815/640/392 812/639/391 811/638/390
f 750/585/363 816/641/393 785/587/365
s 0
f 817/628/27 818/642/27 819/474/27
f 821/643/27 819/474/27 818/642/27
f 804/629/27 821/643/27 820/630/27
f 821/643/27 818/642/27 820/630/27
s 1
f 822/644/394 823/645/395 824/646/395
f 822/644/394 824/646/395 825/647/394
f 823/645/395 826/648/396 827/649/396
f 823/645/395 827/649/396 824/646/395
f 828/650/397 829/651/397 830/652/397
s 0
f 831/652/397 832/651/397 833/653/397
f 834/653/398 835/652/398 836/651/398
f 837/650/398 836/651/398 835/652/398
f 838/585/165 839/654/165 840/641/165
s 1
f 841/655/399 842/656/399 826/648/396
f 827/649/396 826/648/396 842/656/399
s 0
f 843/657/400 844/658/400 845/659/400
f 846/660/188 847/661/188 848/659/188
f 846/660/188 849/662/188 847/661/188
f 850/663/188 847/661/188 849/662/188
s 1
f 851/664/188 852/665/401 853/666/402
f 851/664/188 854/667/188 852/665/401
f 851/664/188 853/666/402 855/668/403
s 0
f 851/664/188 850/663/188 854/667/188
s 1
f 852/665/401 856/669/404 853/666/402
s 0
f 857/670/25 858/671/25 859/672/25
s 1
f 860/673/405 861/674/406 862/675/407
f 860/673/405 863/676/408 861/674/406
f 909/677/409 861/674/406 863/676/408
f 853/666/402 864/678/404 865/679/404
f 853/666/402 865/679/404 855/668/403
s 0
f 866/519/188 867/517/188 868/680/188
f 866/519/188 868/680/188 869/681/188
f 870/629/188 871/682/188 872/618/188
f 870/629/188 873/683/188 871/682/188
f 870/629/188 874/643/188 873/683/188
f 876/684/188 873/683/188 874/643/188
f 871/682/188 875/685/188 872/618/188
f 884/361/188 872/618/188 875/685/188
s 1
f 874/643/188 877/474/403 876/684/188
s 0
f 878/686/26 879/687/26 880/180/26
f 881/361/188 882/685/188 883/620/188
s 1
f 868/680/188 885/688/188 869/681/188
s 0
f 886/689/410 887/690/410 888/691/410
f 889/690/411 890/692/411 891/691/411
f 892/693/188 893/694/188 894/695/188
s 1
f 877/474/403 895/628/188 876/684/188
f 896/474/403 897/368/188 898/628/188
s 0
f 893/694/188 899/696/188 894/695/188
s 1
f 795/622/382 900/697/25 813/623/384
s 0
f 901/698/412 902/699/412 903/697/412
f 904/623/412 903/697/412 902/699/412
f 905/180/26 906/700/26 907/701/26
s 1
f 811/638/390 908/702/413 815/640/392
s 0
usemtl material3
f 910/703/165 911/704/165 912/705/165
f 911/704/165 913/706/165 912/705/165
s 1
f 914/707/414 915/708/415 916/709/416
f 914/707/414 916/709/416 917/710/417
f 914/707/414 917/710/417 918/711/418
f 915/708/415 919/712/415 916/709/416
f 920/713/419 921/714/420 922/715/421
f 923/716/422 922/715/421 921/714/420
f 922/715/421 923/716/422 924/717/423
f 932/718/424 924/717/423 923/716/422
f 924/717/423 932/718/424 933/719/425
f 917/710/417 925/720/426 918/711/418
f 929/721/427 918/711/418 925/720/426
s 0
f 926/722/165 927/723/165 928/724/165
f 927/723/165 930/725/165 928/724/165
s 1
f 925/720/426 931/726/428 929/721/427
f 924/717/423 933/719/425 934/727/429
f 935/728/430 936/729/431 937/730/432
f 938/731/433 937/730/432 936/729/431
f 939/732/434 940/733/435 941/734/436
s 0
f 942/729/437 943/735/437 944/736/437
s 1
f 936/729/431 945/736/438 938/731/433
f 946/737/439 947/500/439 948/498/439
f 940/733/435 949/738/440 950/739/441
f 940/733/435 951/740/442 952/741/443
f 940/733/435 952/741/443 941/734/436
f 940/733/435 950/739/441 951/740/442
s 0
f 953/742/165 954/743/165 955/744/165
f 956/745/165 955/744/165 954/743/165
s 1
f 955/744/165 956/745/165 957/746/165
f 958/747/444 959/748/445 960/749/446
f 965/750/447 960/749/446 959/748/445
f 960/749/446 965/750/447 966/751/448
f 969/752/449 966/751/448 965/750/447
f 966/751/448 969/752/449 967/753/450
f 973/754/451 967/753/450 969/752/449
f 967/753/450 973/754/451 974/755/452
f 958/747/444 961/756/453 959/748/445
f 975/757/454 959/748/445 961/756/453
f 959/748/445 975/757/454 965/750/447
f 976/758/455 965/750/447 975/757/454
f 965/750/447 976/758/455 969/752/449
f 978/759/456 969/752/449 976/758/455
f 962/577/457 963/760/457 964/578/457
f 966/751/448 967/753/450 968/761/458
f 971/762/459 968/761/458 967/753/450
f 963/760/457 970/763/457 964/578/457
f 971/762/459 967/753/450 972/764/460
f 967/753/450 974/755/452 972/764/460
f 969/752/449 977/759/461 973/754/451
s 0
f 956/745/165 954/743/165 979/765/165
f 980/766/462 981/767/462 982/768/462
f 983/769/165 984/691/165 985/692/165
s 1
f 986/770/463 987/771/464 988/772/465
f 987/771/464 989/773/466 988/772/465
s 0
f 990/774/165 991/775/165 992/776/165
f 990/774/165 992/776/165 993/777/165
f 991/775/165 994/778/165 992/776/165
s 1
f 995/779/165 992/776/165 994/778/165
f 996/780/467 997/781/468 998/782/469
f 997/781/468 999/783/470 1000/784/471
f 1004/785/165 1000/784/471 999/783/470
f 997/781/468 1000/784/471 998/782/469
f 1001/786/472 998/782/469 1000/784/471
f 998/782/469 1001/786/472 1002/787/473
f 1003/788/165 1004/785/165 999/783/470
s 0
f 1003/788/165 1005/789/165 1004/785/165
s 1
f 1004/785/165 1006/790/165 1000/784/471
f 1001/786/472 1000/784/471 1006/790/165
