# Source-author permission confirmed by the user on 2026-07-25.
# Normalized to metres and Z-up; source UVs/material assignments retained.
# Blender 4.2.0
# www.blender.org
mtllib rv_mod_tem_tunnel_exit.mtl
o rv_mod_tem_tunnel_exit
v 15.049582 -4.620931 1.371312
v 15.049582 4.607452 1.371312
v 13.737528 -2.818901 1.945647
v 13.737528 -2.818901 1.945647
v 13.730160 2.742617 1.945647
v 13.730160 2.742617 1.945647
v 11.319584 1.331325 1.945647
v 10.454823 2.815624 1.945647
v 9.815103 -0.546300 1.945647
v 9.652306 -2.803395 1.945647
v 9.535921 2.807548 1.945647
v 8.705515 2.800249 1.945647
v 8.216545 -0.432219 1.945647
v 7.193805 0.994275 1.945647
v 5.934557 2.750644 1.945647
v 5.934557 2.750644 1.945647
v 5.510264 -2.792562 1.945647
v 5.510264 -2.792562 1.945647
v 3.692909 -1.232226 1.945647
v 2.824042 -2.775995 1.945647
v 1.689655 -2.768999 1.945647
v 1.468726 -0.107256 1.945647
v 1.234319 2.716863 1.945647
v -0.173566 -1.254037 1.945647
v -0.207118 -2.785795 1.945647
v -2.083775 2.640841 1.945647
v -2.394923 -2.805169 1.945647
v -6.473412 -2.813015 1.945647
v -6.473412 2.760494 1.945647
v -7.747747 -3.142910 1.371312
v -7.747747 3.101445 1.371312
v -6.473412 -2.813015 1.945647
v -6.473412 2.760494 1.945647
v 15.049582 4.607452 1.371312
v 15.049582 -4.620931 1.371312
v 15.049582 -4.953996 7.995090
v 15.049582 -4.780062 5.392399
v 15.049582 4.766582 5.392399
v 15.049582 4.709540 7.995090
v 13.975735 2.988069 2.111719
v 13.775246 2.940756 5.027588
v 13.775246 -2.982651 5.027588
v 13.775246 2.904710 6.651747
v 13.775246 -3.092561 6.721876
v 13.737528 -2.818901 1.945647
v 13.730160 2.742617 1.945647
v 13.730160 2.742617 1.945647
v 13.681707 -2.946696 2.111719
v 10.454823 2.815624 1.945647
v 10.364076 3.009214 2.111719
v 9.775246 2.940756 5.027588
v 9.764684 -2.907229 2.111719
v 9.764684 -2.907229 2.111719
v 9.652306 -2.803395 1.945647
v 9.652306 -2.803395 1.945647
v 9.652306 -2.803395 1.945647
v 9.535921 2.807548 1.945647
v 9.520386 2.967458 2.084461
v 9.438109 -2.760869 5.027588
v 9.438109 -2.883505 5.027588
v 9.438109 -2.760869 5.027588
v 9.438109 -2.883505 5.027588
v 9.268667 -2.871069 6.805849
v 9.268667 -2.871069 6.805849
v 9.268667 -2.871069 6.805849
v 8.817711 2.932681 2.061760
v 8.705515 2.800249 1.945647
v 7.942546 2.824333 6.645032
v 5.934557 2.750644 1.945647
v 5.934557 2.750644 1.945647
v 5.650917 2.846187 5.027588
v 5.650917 -2.937693 5.027588
v 5.650917 -2.937693 5.027588
v 5.650917 2.846187 5.027588
v 5.573522 -2.929878 6.484213
v 5.573522 -2.929878 6.484213
v 5.510264 -2.792562 1.945647
v 5.510264 -2.792562 1.945647
v 5.482530 2.894310 6.916739
v 5.482530 2.894310 6.916739
v 2.824042 -2.775995 1.945647
v 2.750960 -2.860357 2.065587
v 2.638121 -2.968826 6.885978
v 1.689655 -2.768999 1.945647
v 1.689655 -2.886433 2.111719
v 1.526588 -2.982651 5.027588
v 1.526588 2.940756 5.027588
v 1.378983 2.940127 6.911465
v 1.234319 3.040903 2.111719
v 1.234319 3.040903 2.111719
v 1.234319 2.716863 1.945647
v -0.163646 -2.946860 2.111719
v -0.207118 -2.785795 1.945647
v -2.083775 2.640841 1.945647
v -2.083775 2.640841 1.945647
v -2.083775 2.640841 1.945647
v -2.202899 2.811703 2.111719
v -2.202899 2.811703 2.111719
v -2.226356 -3.014115 2.111719
v -2.226356 -3.014115 2.111719
v -2.394923 -2.805169 1.945647
v -2.394923 -2.805169 1.945647
v -2.473412 -2.806208 5.027588
v -2.473412 2.751618 5.027588
v -2.473412 -2.955751 5.027588
v -2.473412 2.751618 5.027588
v -2.473412 2.840267 5.027588
v -2.473412 -2.955751 5.027588
v -2.473412 2.840267 5.027588
v -2.473412 -2.806208 5.027588
v -2.597900 2.686259 6.672876
v -2.597900 2.686259 6.672876
v -2.597900 2.686259 6.672876
v -2.655192 -2.843719 6.779479
v -2.655192 -2.843719 6.779479
v -2.655192 -2.843719 6.779479
v -6.473412 2.940756 5.027588
v -6.473412 2.760494 1.945647
v -6.473412 3.028958 2.111719
v -6.473412 -2.982651 5.027588
v -6.473412 -3.021089 2.111719
v -6.473412 -2.813015 1.945647
v -6.473412 2.981937 6.597972
v -6.473412 -3.021794 6.797682
v -7.747747 -3.142910 1.371312
v -7.747747 3.101445 1.371312
v 15.049582 1.838777 7.995090
v 15.049582 4.709540 7.995090
v 15.049582 -1.967474 7.995090
v 15.049582 -4.953996 7.995090
v 13.775246 -1.259955 7.163616
v 13.775246 1.145252 7.327165
v 13.775246 2.904710 6.651747
v 13.775246 -3.092561 6.721876
v 11.618649 -1.198470 7.050385
v 11.318770 1.355618 7.014396
v 9.268667 -2.871069 6.805849
v 7.942546 2.824333 6.645032
v 5.573522 -2.929878 6.484213
v 5.573522 -2.929878 6.484213
v 5.482530 2.894310 6.916739
v 5.482530 2.894310 6.916739
v 4.928369 -1.280394 7.348168
v 4.928369 -1.280394 7.348168
v 4.134213 1.321304 7.208626
v 4.134213 1.321304 7.208626
v 3.204829 1.156380 7.424699
v 2.638121 -2.968826 6.885978
v 1.433160 -1.211166 7.743403
v 1.378983 2.940127 6.911465
v -1.521235 -1.314451 7.077484
v -1.565063 1.183675 7.704000
v -2.597900 2.686259 6.672876
v -2.655192 -2.843719 6.779479
v -6.473412 1.341951 7.459065
v -6.473412 2.981937 6.597972
v -6.473412 -1.240067 6.829701
v -6.473412 -3.021794 6.797682
v -6.545561 -3.819333 1.943789
v -8.007193 -3.819333 1.944164
v -9.468824 -3.819333 1.944539
v -10.791157 -3.819333 1.742337
v -12.113491 -3.819333 1.540135
v -9.468824 3.500333 1.944539
v -10.791157 3.500333 1.742337
v -12.113491 3.500333 1.540135
v -8.007193 3.500333 1.944164
v -6.545561 3.500333 1.943789
v 9.551040 2.615867 5.250697
v 9.538612 2.497348 5.302275
v 9.465381 2.703858 5.216248
v 9.436533 2.428719 5.335985
v 9.241287 2.726970 5.215364
v 9.212439 2.451831 5.335101
v 9.139207 2.658341 5.249074
v 9.126781 2.539822 5.300652
v 1.614455 -2.643408 5.366198
v 1.602028 -2.767603 5.330385
v 1.528797 -2.551700 5.388976
v 1.499949 -2.840016 5.305836
v 1.304703 -2.528668 5.386862
v 1.275854 -2.816984 5.303722
v 1.202622 -2.601081 5.362313
v 1.190196 -2.725276 5.326500
v -1.361883 -7.898917 0.204686
v -12.227139 -7.710540 0.204686
v -10.453276 -7.414884 0.204686
v -10.453276 -7.414884 0.204686
v -13.505085 -7.248724 0.204686
v -13.505085 -7.248724 0.204686
v -6.939631 -7.048903 0.204686
v -9.012684 -6.772153 0.204686
v -9.012684 -6.772153 0.204686
v -9.012684 -6.772153 0.204686
v -14.006952 -6.395843 0.204686
v -14.034731 -5.605096 0.204686
v -12.066048 -5.541324 2.372582
v -12.066048 -5.541324 2.372582
v -11.394680 -5.503196 2.499774
v -10.279236 -5.215603 3.459165
v -10.279236 -5.215603 3.459165
v -10.279236 -5.215603 3.459165
v -12.059462 -4.731400 2.469363
v -10.007664 -4.671131 3.343510
v -13.503370 -4.541698 1.446775
v -12.776232 -4.511600 1.601045
v -10.289536 -4.437910 3.610713
v -12.028656 -4.254734 2.917598
v -9.736092 -4.126660 3.574036
v -9.736092 -4.126660 3.574036
v -10.313105 -4.052522 3.954031
v -1.463613 -3.842200 5.032024
v -6.505898 -3.842200 5.032024
v -6.505898 3.778680 5.032024
v -1.463613 3.778680 5.032024
v -10.349665 3.885514 4.485993
v -9.847916 3.974130 4.033073
v -9.847916 3.974130 4.033073
v -7.521717 3.974716 4.030078
v -8.330805 4.040715 3.692752
v -13.503370 4.158909 1.446383
v -12.061838 4.286845 2.434772
v -12.277838 4.364547 2.037637
v -12.949463 4.427901 1.713829
v -13.465530 4.445270 1.625059
v -10.306597 4.544995 3.858463
v -12.081169 4.768673 2.153053
v -10.292025 5.097613 3.645050
v -10.292025 5.097613 3.645050
v -15.049582 5.111490 0.204686
v -15.049582 5.111490 0.204686
v -11.089674 5.309967 2.938025
v -12.049583 5.407921 2.611891
v -12.049583 5.407921 2.611891
v -14.510294 5.818837 0.204686
v -13.862524 6.220203 0.204686
v -13.862524 6.220203 0.204686
v -8.915588 6.773205 0.000000
v -8.915588 6.773205 0.000000
v -8.915588 6.773205 0.000000
v -5.942298 6.906472 0.204686
v -13.531168 6.978382 0.204686
v -1.035868 7.230039 0.204686
v -12.879879 7.576511 0.204686
v -12.879879 7.576511 0.204686
v -10.166508 7.725844 0.204686
v -11.932739 7.898917 0.204686
v -12.752323 -3.819333 1.378457
v -6.087896 -3.819333 1.952024
v -12.752323 3.500333 1.378457
v -6.087896 3.500333 1.952024
v -5.471798 2.632414 1.444518
v -5.471798 4.338601 1.444518
v -5.471798 -2.729040 1.444518
v -5.471798 -4.436901 1.444518
v -5.471798 1.623475 6.460493
v -5.471798 -1.716154 6.460493
v -5.471798 2.977435 8.511137
v -5.471798 -3.069276 8.511137
v -5.471798 -2.729040 1.444518
v -5.471798 -2.183137 1.444518
v -6.482193 -2.183137 1.444518
v -7.492588 -2.729040 1.444518
v -5.471798 2.087047 1.444518
v -7.492588 -2.183137 1.444518
v -6.482193 -2.183137 1.444518
v -6.482193 2.087047 1.444518
v -5.471798 -2.183137 1.444518
v -7.492588 2.087047 1.444518
v -7.492588 2.632414 1.444518
v -5.471798 2.632414 1.444518
v -6.482193 2.087047 1.444518
v -5.471798 2.087047 1.444518
v -7.492588 2.087047 1.444518
v -7.492588 -2.183137 1.444518
v -7.492588 -2.003038 5.039796
v -7.492588 1.909242 5.039796
v -5.471798 -1.376414 5.974224
v -6.482193 1.283468 5.974224
v -6.482193 -1.376414 5.974224
v -5.471798 -1.376414 5.974224
v -7.492588 1.283468 5.974224
v -6.482193 -1.376414 5.974224
v -5.471798 1.283468 5.974224
v -5.471798 -1.376414 5.974224
v -7.492588 1.283468 5.974224
v -5.471798 -1.376414 5.974224
v -6.482193 1.283468 5.974224
v -7.492588 1.283468 5.974224
v -7.492588 1.283468 5.974224
v -7.492588 -1.376414 5.974224
v -7.492588 -1.376414 5.974224
v -6.482193 1.283468 5.974224
v -7.492588 -1.376414 5.974224
v -5.471798 1.283468 5.974224
v -6.482193 -1.376414 5.974224
v -5.471798 1.283468 5.974224
v -5.471798 1.283468 5.974224
v -7.492588 -1.376414 5.974224
v -6.482193 -1.376414 5.974224
v -6.482193 1.283468 5.974224
v -7.492588 -1.716154 6.460493
v -7.492588 1.623475 6.460493
v -5.471798 -1.716154 6.460493
v -7.492588 1.623475 6.460493
v -5.471798 1.623475 6.460493
v -5.471798 1.623475 6.460493
v -5.471798 -1.716154 6.460493
v -7.492588 -1.716154 6.460493
v 9.290760 2.113822 5.520837
v 9.290760 2.113822 5.520837
v 9.290760 2.113822 5.520837
v 9.302281 2.124121 5.494239
v 9.302281 2.124121 5.494239
v 9.302281 2.124121 5.494239
v 9.281790 2.126235 5.494158
v 9.281790 2.126235 5.494158
v 9.281790 2.126235 5.494158
v 9.322814 2.314367 5.603696
v 9.322814 2.314367 5.603696
v 9.311155 2.316104 5.603860
v 9.311155 2.316104 5.603860
v 9.311155 2.316104 5.603860
v 9.299388 2.316783 5.603603
v 9.299388 2.316783 5.603603
v 9.311424 2.319775 5.631559
v 9.311424 2.319775 5.631559
v 9.311424 2.319775 5.631559
v 9.311424 2.319775 5.631559
v 9.432006 2.350034 5.322006
v 9.432006 2.350034 5.322006
v 9.432006 2.350034 5.322006
v 9.326448 2.350219 5.619718
v 9.326448 2.350219 5.619718
v 9.314790 2.351956 5.619882
v 9.314790 2.351956 5.619882
v 9.314790 2.351956 5.619882
v 9.314790 2.351956 5.619882
v 9.303022 2.352635 5.619625
v 9.303022 2.352635 5.619625
v 9.200920 2.373867 5.321095
v 9.200920 2.373867 5.321095
v 9.200920 2.373867 5.321095
v 9.448649 2.400552 5.297558
v 9.448649 2.400552 5.297558
v 9.448649 2.400552 5.297558
v 9.448649 2.400552 5.297558
v 9.437181 2.405149 5.451184
v 9.437181 2.405149 5.451184
v 9.403662 2.418131 5.444666
v 9.403662 2.418131 5.444666
v 9.390254 2.420049 5.444824
v 9.390254 2.420049 5.444824
v 9.195128 2.426698 5.296558
v 9.195128 2.426698 5.296558
v 9.195128 2.426698 5.296558
v 9.195128 2.426698 5.296558
v 9.436533 2.428719 5.335985
v 9.206096 2.428982 5.450273
v 9.206096 2.428982 5.450273
v 9.256122 2.433882 5.444295
v 9.256122 2.433882 5.444295
v 9.242720 2.434730 5.444032
v 9.242720 2.434730 5.444032
v 9.212439 2.451831 5.335101
v 9.400660 2.455540 5.459248
v 9.400660 2.455540 5.459248
v 9.400660 2.455540 5.459248
v 9.253122 2.470756 5.458666
v 9.253122 2.470756 5.458666
v 9.253122 2.470756 5.458666
v 9.564134 2.478193 5.259422
v 9.564134 2.478193 5.259422
v 9.564134 2.478193 5.259422
v 9.538612 2.497348 5.302275
v 9.538612 2.497348 5.302275
v 9.479536 2.511374 5.560937
v 9.479536 2.511374 5.560937
v 9.479536 2.511374 5.560937
v 9.479536 2.511374 5.560937
v 9.098223 2.526244 5.257585
v 9.098223 2.526244 5.257585
v 9.098223 2.526244 5.257585
v 9.126781 2.539822 5.300652
v 9.126781 2.539822 5.300652
v 9.434410 2.540043 5.564572
v 9.434410 2.540043 5.564572
v 9.434410 2.540043 5.564572
v 9.185456 2.541703 5.559778
v 9.185456 2.541703 5.559778
v 9.185456 2.541703 5.559778
v 9.185456 2.541703 5.559778
v 9.235454 2.560562 5.563788
v 9.235454 2.560562 5.563788
v 9.235454 2.560562 5.563788
v 9.438275 2.581162 5.659990
v 9.438275 2.581162 5.659990
v 9.438275 2.581162 5.659990
v 9.239319 2.601681 5.659206
v 9.239319 2.601681 5.659206
v 9.239319 2.601681 5.659206
v 9.362213 2.611794 5.620486
v 9.362213 2.611794 5.620486
v 9.578192 2.612274 5.201071
v 9.578192 2.612274 5.201071
v 9.578192 2.612274 5.201071
v 9.578192 2.612274 5.201071
v 9.551040 2.615867 5.250697
v 9.551040 2.615867 5.250697
v 9.321669 2.615975 5.620326
v 9.321669 2.615975 5.620326
v 9.362851 2.622629 5.741996
v 9.362851 2.622629 5.741996
v 9.322308 2.626810 5.741837
v 9.322308 2.626810 5.741837
v 9.345112 2.650099 5.763502
v 9.345112 2.650099 5.763502
v 9.139207 2.658341 5.249074
v 9.112281 2.660326 5.199234
v 9.112281 2.660326 5.199234
v 9.112281 2.660326 5.199234
v 9.347825 2.670775 5.616147
v 9.347825 2.670775 5.616147
v 9.348519 2.683274 5.767032
v 9.348519 2.683274 5.767032
v 9.500050 2.702758 5.477631
v 9.500050 2.702758 5.477631
v 9.500050 2.702758 5.477631
v 9.500050 2.702758 5.477631
v 9.500050 2.702758 5.477631
v 9.465381 2.703858 5.216248
v 9.451596 2.708217 5.604697
v 9.451596 2.708217 5.604697
v 9.451596 2.708217 5.604697
v 9.481286 2.711820 5.162097
v 9.481286 2.711820 5.162097
v 9.241287 2.726970 5.215364
v 9.252641 2.728736 5.603913
v 9.252641 2.728736 5.603913
v 9.252641 2.728736 5.603913
v 9.205086 2.733179 5.476469
v 9.205086 2.733179 5.476469
v 9.205086 2.733179 5.476469
v 9.205086 2.733179 5.476469
v 9.205086 2.733179 5.476469
v 9.227765 2.737967 5.161098
v 9.227765 2.737967 5.161098
v 9.449014 3.673974 6.193475
v 9.449014 3.673974 6.193475
v 9.460535 3.684273 6.166876
v 9.460535 3.684273 6.166876
v 9.440043 3.686386 6.166795
v 9.440043 3.686386 6.166795
v 1.301191 -3.668298 6.373380
v 1.301191 -3.668298 6.373380
v 1.280701 -3.666192 6.373187
v 1.280701 -3.666192 6.373187
v 1.292222 -3.652539 6.398230
v 1.292222 -3.652539 6.398230
v 1.513471 -2.857940 5.253448
v 1.513471 -2.857940 5.253448
v 1.499949 -2.840016 5.305836
v 1.259950 -2.831884 5.251057
v 1.259950 -2.831884 5.251057
v 1.275854 -2.816984 5.303722
v 1.536150 -2.812398 5.565550
v 1.536150 -2.812398 5.565550
v 1.536150 -2.812398 5.565550
v 1.536150 -2.812398 5.565550
v 1.536150 -2.812398 5.565550
v 1.488595 -2.791507 5.691349
v 1.488595 -2.791507 5.691349
v 1.488595 -2.791507 5.691349
v 1.241186 -2.782082 5.562768
v 1.241186 -2.782082 5.562768
v 1.241186 -2.782082 5.562768
v 1.241186 -2.782082 5.562768
v 1.241186 -2.782082 5.562768
v 1.628954 -2.776019 5.281221
v 1.628954 -2.776019 5.281221
v 1.628954 -2.776019 5.281221
v 1.289639 -2.771059 5.689472
v 1.289639 -2.771059 5.689472
v 1.289639 -2.771059 5.689472
v 1.602028 -2.767603 5.330385
v 1.393411 -2.732450 5.695982
v 1.393411 -2.732450 5.695982
v 1.163043 -2.728133 5.276826
v 1.163043 -2.728133 5.276826
v 1.163043 -2.728133 5.276826
v 1.163043 -2.728133 5.276826
v 1.392716 -2.725326 5.847217
v 1.392716 -2.725326 5.847217
v 1.190196 -2.725276 5.326500
v 1.190196 -2.725276 5.326500
v 1.396124 -2.692886 5.839425
v 1.396124 -2.692886 5.839425
v 1.419567 -2.677570 5.693038
v 1.419567 -2.677570 5.693038
v 1.379023 -2.673403 5.692655
v 1.379023 -2.673403 5.692655
v 1.418928 -2.672596 5.814929
v 1.418928 -2.672596 5.814929
v 1.378385 -2.668429 5.814546
v 1.378385 -2.668429 5.814546
v 1.501917 -2.658366 5.729742
v 1.501917 -2.658366 5.729742
v 1.501917 -2.658366 5.729742
v 1.614455 -2.643408 5.366198
v 1.614455 -2.643408 5.366198
v 1.302960 -2.637918 5.727865
v 1.302960 -2.637918 5.727865
v 1.302960 -2.637918 5.727865
v 1.643013 -2.635515 5.321737
v 1.643013 -2.635515 5.321737
v 1.643013 -2.635515 5.321737
v 1.505781 -2.629936 5.629807
v 1.505781 -2.629936 5.629807
v 1.505781 -2.629936 5.629807
v 1.555779 -2.611754 5.623391
v 1.555779 -2.611754 5.623391
v 1.555779 -2.611754 5.623391
v 1.555779 -2.611754 5.623391
v 1.306826 -2.609487 5.627930
v 1.306826 -2.609487 5.627930
v 1.306826 -2.609487 5.627930
v 1.202622 -2.601081 5.362313
v 1.202622 -2.601081 5.362313
v 1.177102 -2.587630 5.317342
v 1.177102 -2.587630 5.317342
v 1.177102 -2.587630 5.317342
v 1.261700 -2.581530 5.620617
v 1.261700 -2.581530 5.620617
v 1.261700 -2.581530 5.620617
v 1.261700 -2.581530 5.620617
v 1.488112 -2.554482 5.513951
v 1.488112 -2.554482 5.513951
v 1.488112 -2.554482 5.513951
v 1.528797 -2.551700 5.388976
v 1.340575 -2.539319 5.512559
v 1.340575 -2.539319 5.512559
v 1.340575 -2.539319 5.512559
v 1.546107 -2.531765 5.347506
v 1.546107 -2.531765 5.347506
v 1.546107 -2.531765 5.347506
v 1.546107 -2.531765 5.347506
v 1.304703 -2.528668 5.386862
v 1.498516 -2.520652 5.494779
v 1.498516 -2.520652 5.494779
v 1.485113 -2.519778 5.494931
v 1.485113 -2.519778 5.494931
v 1.535140 -2.514145 5.500225
v 1.535140 -2.514145 5.500225
v 1.350981 -2.505992 5.493666
v 1.350981 -2.505992 5.493666
v 1.292586 -2.505708 5.345115
v 1.292586 -2.505708 5.345115
v 1.292586 -2.505708 5.345115
v 1.292586 -2.505708 5.345115
v 1.337574 -2.504111 5.493261
v 1.337574 -2.504111 5.493261
v 1.304055 -2.490394 5.498045
v 1.304055 -2.490394 5.498045
v 1.540315 -2.476203 5.365002
v 1.540315 -2.476203 5.365002
v 1.540315 -2.476203 5.365002
v 1.309230 -2.452453 5.362823
v 1.309230 -2.452453 5.362823
v 1.309230 -2.452453 5.362823
v 1.438212 -2.416533 5.658278
v 1.438212 -2.416533 5.658278
v 1.426446 -2.415827 5.658445
v 1.426446 -2.415827 5.658445
v 1.426446 -2.415827 5.658445
v 1.426446 -2.415827 5.658445
v 1.414787 -2.414125 5.658057
v 1.414787 -2.414125 5.658057
v 1.441847 -2.383054 5.637753
v 1.441847 -2.383054 5.637753
v 1.429811 -2.382405 5.665861
v 1.429811 -2.382405 5.665861
v 1.429811 -2.382405 5.665861
v 1.429811 -2.382405 5.665861
v 1.430080 -2.382348 5.637920
v 1.430080 -2.382348 5.637920
v 1.430080 -2.382348 5.637920
v 1.418422 -2.380646 5.637532
v 1.418422 -2.380646 5.637532
v 1.459445 -2.208265 5.504579
v 1.459445 -2.208265 5.504579
v 1.459445 -2.208265 5.504579
v 1.438954 -2.206159 5.504385
v 1.438954 -2.206159 5.504385
v 1.438954 -2.206159 5.504385
v 1.450476 -2.192506 5.529428
v 1.450476 -2.192506 5.529428
v 1.450476 -2.192506 5.529428
v -6.303189 -3.819333 2.037817
v -5.914148 -3.819333 1.931034
v -12.113491 -3.819333 1.634163
v -12.363281 -3.819333 1.634163
v -12.363281 -3.819333 1.634163
v -12.752323 -3.819333 1.448893
v -6.545561 -3.819333 1.943789
v -6.545561 -3.819333 2.037817
v -12.113491 -3.819333 1.540135
v -12.113491 -3.819333 1.634163
v -6.545561 -3.819333 2.037817
v -6.545561 3.500333 2.037817
v -6.303189 3.500333 2.037817
v -12.113491 3.500333 1.540135
v -12.113491 3.500333 1.634163
v -6.545561 3.500333 1.943789
v -6.545561 3.500333 2.037817
v -12.363281 3.500333 1.634163
v -12.752323 3.500333 1.448893
v -5.914148 3.500333 1.931034
v -12.113491 3.500333 1.634163
v -12.363281 3.500333 1.634163
v 9.345112 2.650099 5.763502
v 9.139207 2.658341 5.249074
v 9.112281 2.660326 5.199234
v 1.628954 -2.776019 5.281221
v 1.602028 -2.767603 5.330385
v 1.396124 -2.692886 5.839425
v -12.066048 -5.541324 2.372582
v -12.066048 -5.541324 2.372582
v -11.394680 -5.503196 2.499774
v -10.279236 -5.215603 3.459165
v -10.279236 -5.215603 3.459165
v -11.883678 -4.746683 5.023450
v -11.883678 -4.746683 5.023450
v -11.883678 -4.746683 5.023450
v -11.883678 -4.746683 5.023450
v -10.390244 -4.731912 5.072725
v -10.390244 -4.731912 5.072725
v -10.390244 -4.731912 5.072725
v -10.390244 -4.731912 5.072725
v -12.059462 -4.731400 2.469363
v -13.503370 -4.541698 1.446775
v -13.503370 -4.541698 1.446775
v -12.776232 -4.511600 1.601045
v -10.289536 -4.437910 3.610713
v -12.028656 -4.254734 2.917598
v -12.028656 -4.254734 2.917598
v -9.736092 -4.126660 3.574036
v -13.503370 -4.123422 1.446255
v -13.503370 -4.123422 1.446255
v -13.231709 -4.123422 1.446255
v -13.231709 -4.123422 1.446255
v -10.313105 -4.052522 3.954031
v -10.313105 -4.052522 3.954031
v -6.505898 -3.842200 5.032024
v -10.387190 -3.842200 5.032024
v -12.742432 -3.842200 5.032024
v -11.883341 -3.842200 5.032024
v -6.505898 -3.842200 5.032024
v -6.505898 -3.842200 5.032024
v -12.742432 -3.842200 5.032024
v -1.463613 -3.842200 5.032024
v -10.387190 -3.842200 5.032024
v -11.883341 -3.842200 5.032024
v -11.883341 -3.842200 5.032024
v -12.742432 -3.842200 5.032024
v -10.387190 -3.842200 5.032024
v -12.742432 -3.842200 5.032024
v -11.883341 -3.842200 5.032024
v -10.387190 -3.842200 5.032024
v -10.673546 -3.497473 9.190733
v -10.673546 -3.497473 9.190733
v -11.596985 -3.497473 9.190733
v -10.673546 -3.497473 9.190733
v -11.596985 -3.497473 9.190733
v -11.596985 -3.497473 9.190733
v -10.673546 -3.497473 9.190733
v -11.596985 -3.497473 9.190733
v -12.742064 -3.440133 5.032017
v -12.470402 -3.440133 5.032017
v -12.742064 -3.440133 5.032017
v -12.470402 -3.440133 5.032017
v -12.470402 -3.440133 5.032017
v -12.742064 -3.440133 5.032017
v -12.742064 -3.440133 5.032017
v -12.470402 -3.440133 5.032017
v -11.981495 -3.142702 8.617273
v -6.505898 -3.142702 8.617273
v -11.636942 -3.142702 8.617273
v -6.505898 -3.142702 8.617273
v -10.633589 -3.142702 8.617273
v -11.981495 -3.142702 8.617273
v -10.633589 -3.142702 8.617273
v -11.981495 -3.142702 8.617273
v -11.636942 -3.142702 8.617273
v -10.633589 -3.142702 8.617273
v -10.633589 -3.142702 8.617273
v -1.463613 -3.142702 8.617273
v -11.981495 -3.142702 8.617273
v -11.636942 -3.142702 8.617273
v -1.463613 -3.142702 8.617273
v -11.636942 -3.142702 8.617273
v -6.505898 -3.142702 8.617273
v -11.802582 -2.844224 8.166008
v -11.802582 -2.844224 8.166008
v -12.074244 -2.844224 8.166008
v -11.802582 -2.844224 8.166008
v -11.802582 -2.844224 8.166008
v -12.074244 -2.844224 8.166008
v -12.074244 -2.844224 8.166008
v -12.074244 -2.844224 8.166008
v -12.251333 -2.729040 1.444518
v -7.492588 -2.729040 1.444518
v -9.474056 -2.729040 1.444518
v -9.474056 -2.729040 1.444518
v -13.231709 -2.729040 1.444518
v -11.482254 -2.729040 1.444518
v -13.231709 -2.729040 1.444518
v -11.482254 -2.729040 1.444518
v -12.251333 -2.729040 1.444518
v -12.469080 -2.004614 5.031991
v -12.469080 -2.004614 5.031991
v -12.469080 -2.004614 5.031991
v -12.469080 -2.004614 5.031991
v -11.482254 -2.004239 5.033850
v -11.482254 -2.004239 5.033850
v -11.482254 -2.004239 5.033850
v -11.482254 -2.004239 5.033850
v -11.482254 -2.004239 5.033850
v -9.474056 -2.003649 5.036770
v -9.474056 -2.003649 5.036770
v -9.474056 -2.003649 5.036770
v -7.492588 -2.003038 5.039796
v -7.492588 -2.003038 5.039796
v -12.153114 -1.716154 6.460493
v -7.492588 -1.716154 6.460493
v -12.153114 -1.716154 6.460493
v -7.492588 -1.716154 6.460493
v -12.153114 -1.716154 6.460493
v -12.153114 -1.716154 6.460493
v -12.153114 -1.716154 6.460493
v -11.135265 -0.032747 9.190733
v -11.596985 -0.032747 9.190733
v -11.596985 -0.032747 9.190733
v -10.633589 -0.032747 8.617273
v -6.505898 -0.032747 8.617273
v -10.673546 -0.032747 9.190733
v -10.673546 -0.032747 9.190733
v -11.636942 -0.032747 8.617273
v -1.463613 -0.032747 8.617273
v -10.633589 -0.032747 8.617273
v -11.596985 -0.032747 9.190733
v -10.673546 -0.032747 9.190733
v -6.505898 -0.032747 8.617273
v -10.633589 -0.032747 8.617273
v -11.596985 -0.032747 9.190733
v -1.463613 -0.032747 8.617273
v -11.636942 -0.032747 8.617273
v -11.636942 -0.032747 8.617273
v -7.492588 1.623475 6.460493
v -12.153114 1.623475 6.460493
v -12.153114 1.623475 6.460493
v -12.153114 1.623475 6.460493
v -12.153114 1.623475 6.460493
v -7.492588 1.623475 6.460493
v -12.153114 1.623475 6.460493
v -7.492588 1.909242 5.039796
v -7.492588 1.909242 5.039796
v -9.474056 1.909879 5.036625
v -9.474056 1.909879 5.036625
v -9.474056 1.909879 5.036625
v -11.482254 1.910421 5.033932
v -11.482254 1.910421 5.033932
v -11.482254 1.910421 5.033932
v -11.482254 1.910421 5.033932
v -11.482254 1.910421 5.033932
v -12.469069 1.910799 5.032056
v -12.469069 1.910799 5.032056
v -12.469069 1.910799 5.032056
v -12.469069 1.910799 5.032056
v -12.262550 2.632414 1.444518
v -11.482254 2.632414 1.444518
v -7.492588 2.632414 1.444518
v -13.231709 2.632414 1.444518
v -9.474056 2.632414 1.444518
v -13.231709 2.632414 1.444518
v -12.262550 2.632414 1.444518
v -9.474056 2.632414 1.444518
v -11.482254 2.632414 1.444518
v -12.080233 2.753401 8.136868
v -11.808571 2.753401 8.136868
v -12.080233 2.753401 8.136868
v -11.808571 2.753401 8.136868
v -12.080233 2.753401 8.136868
v -11.808571 2.753401 8.136868
v -11.808571 2.753401 8.136868
v -12.080233 2.753401 8.136868
v -10.633589 3.077209 8.617273
v -10.633589 3.077209 8.617273
v -11.636942 3.077209 8.617273
v -11.981495 3.077209 8.617273
v -11.636942 3.077209 8.617273
v -6.505898 3.077209 8.617273
v -11.981495 3.077209 8.617273
v -11.981495 3.077209 8.617273
v -11.636942 3.077209 8.617273
v -10.633589 3.077209 8.617273
v -10.633589 3.077209 8.617273
v -6.505898 3.077209 8.617273
v -1.463613 3.077209 8.617273
v -1.463613 3.077209 8.617273
v -11.981495 3.077209 8.617273
v -11.636942 3.077209 8.617273
v -12.470362 3.330961 5.032032
v -12.742023 3.330961 5.032032
v -12.742023 3.330961 5.032032
v -12.470362 3.330961 5.032032
v -12.742023 3.330961 5.032032
v -12.470362 3.330961 5.032032
v -12.742023 3.330961 5.032032
v -12.470362 3.330961 5.032032
v -10.673546 3.431980 9.190733
v -11.596985 3.431980 9.190733
v -11.596985 3.431980 9.190733
v -11.596985 3.431980 9.190733
v -11.596985 3.431980 9.190733
v -10.673546 3.431980 9.190733
v -10.673546 3.431980 9.190733
v -10.673546 3.431980 9.190733
v -12.742432 3.778680 5.032024
v -11.883341 3.778680 5.032024
v -10.387190 3.778680 5.032024
v -12.742432 3.778680 5.032024
v -11.883341 3.778680 5.032024
v -1.463613 3.778680 5.032024
v -6.505898 3.778680 5.032024
v -10.387190 3.778680 5.032024
v -6.505898 3.778680 5.032024
v -11.883341 3.778680 5.032024
v -10.387190 3.778680 5.032024
v -12.742432 3.778680 5.032024
v -11.883341 3.778680 5.032024
v -12.742432 3.778680 5.032024
v -10.387190 3.778680 5.032024
v -10.349665 3.885514 4.485993
v -10.349665 3.885514 4.485993
v -9.847916 3.974130 4.033073
v -7.521717 3.974716 4.030078
v -13.231709 4.002644 1.446192
v -13.503370 4.002644 1.446192
v -13.231709 4.002644 1.446192
v -13.503370 4.002644 1.446192
v -8.330805 4.040715 3.692752
v -13.503370 4.158909 1.446383
v -12.061838 4.286845 2.434772
v -12.061838 4.286845 2.434772
v -12.277838 4.364547 2.037637
v -12.949463 4.427901 1.713829
v -13.465530 4.445270 1.625059
v -13.465530 4.445270 1.625059
v -10.306597 4.544995 3.858463
v -10.386703 4.684265 5.021284
v -10.386703 4.684265 5.021284
v -10.386703 4.684265 5.021284
v -10.386703 4.684265 5.021284
v -11.884958 4.689205 5.004836
v -11.884958 4.689205 5.004836
v -11.884958 4.689205 5.004836
v -11.884958 4.689205 5.004836
v -12.081169 4.768673 2.153053
v -10.292025 5.097613 3.645050
v -10.292025 5.097613 3.645050
v -11.089674 5.309967 2.938025
v -12.049583 5.407921 2.611891
v -12.049583 5.407921 2.611891
vn -0.4516 -0.2404 0.8593
vn -0.4547 0.2906 0.8419
vn -0.2409 -0.2874 0.9270
vn -0.2355 0.3192 0.9180
vn -0.2408 -0.2874 0.9271
vn -0.2354 0.3192 0.9180
vn -0.0027 -0.2212 0.9752
vn -0.0125 0.4511 0.8924
vn -0.0000 -0.0000 1.0000
vn -0.0080 0.3881 0.9216
vn -0.0020 0.2898 0.9571
vn 0.0028 0.4597 0.8881
vn -0.0050 0.4469 0.8946
vn 0.0035 -0.2344 0.9721
vn 0.0017 -0.4834 0.8754
vn 0.1037 -0.1588 0.9818
vn 0.2657 0.2742 0.9242
vn 0.4000 0.0002 0.9165
vn 0.7417 0.3733 0.5573
vn 0.0021 0.3039 0.9527
vn 0.0050 -0.3536 0.9354
vn 0.0020 -0.1972 0.9804
vn 0.2656 0.2742 0.9243
vn -0.0004 -0.3322 0.9432
vn 0.1035 -0.1588 0.9819
vn -0.2354 0.3194 0.9179
vn -0.1894 0.8138 0.5494
vn -0.0125 0.4512 0.8923
vn -0.0470 0.9989 0.0064
vn -0.0470 0.9989 0.0063
vn -0.0451 0.9988 0.0192
vn -0.0453 0.9988 0.0194
vn -0.4516 -0.2406 0.8592
vn -0.2408 -0.2877 0.9270
vn -0.1999 -0.7872 0.5834
vn -0.0028 -0.2213 0.9752
vn -0.0347 -0.8985 0.4377
vn -0.0467 -0.9985 -0.0270
vn -0.0317 -0.9981 -0.0536
vn -0.0766 -0.9967 0.0261
vn -0.0509 -0.9981 -0.0345
vn 0.0427 -0.6982 -0.7146
vn 0.0644 -0.9979 -0.0094
vn 0.0255 -0.8289 -0.5589
vn 0.0100 -0.9999 0.0056
vn -0.0200 -0.9997 0.0151
vn -0.0061 -1.0000 0.0025
vn -0.9971 -0.0000 -0.0754
vn -0.9788 -0.1858 -0.0860
vn -0.9261 -0.3655 -0.0935
vn -0.9261 -0.3655 -0.0934
vn 0.9710 0.2268 0.0758
vn 0.8959 0.4420 0.0444
vn 0.0802 -0.9968 0.0031
vn 0.0183 -0.9998 0.0012
vn -0.0111 0.9124 0.4091
vn -0.0080 0.3883 0.9215
vn -0.0184 0.9237 0.3827
vn -0.0019 0.2898 0.9571
vn -0.0175 0.9412 0.3375
vn 0.0029 0.4597 0.8881
vn -0.0075 0.9473 0.3203
vn -0.0122 0.9999 0.0100
vn -0.0203 0.9996 0.0210
vn 0.0024 0.9998 -0.0209
vn -0.0224 0.9997 0.0132
vn 0.0051 0.9998 -0.0207
vn 0.0168 0.9991 -0.0392
vn -0.0027 -0.2215 0.9752
vn 0.0035 -0.2347 0.9721
vn 0.0068 -0.4561 0.8899
vn 0.0036 -0.9996 -0.0264
vn -0.0060 -1.0000 0.0025
vn 0.0247 -0.9994 -0.0227
vn 0.0296 -0.9111 0.4111
vn 0.0050 -0.3539 0.9353
vn 0.0314 -0.9121 0.4089
vn 0.0021 -0.1973 0.9803
vn 0.0127 -0.9055 0.4242
vn -0.0004 -0.3325 0.9431
vn 0.1036 -0.1589 0.9818
vn -0.0327 0.9990 0.0291
vn -0.0268 0.9994 0.0228
vn -0.0050 0.4470 0.8945
vn -0.0209 0.9996 0.0164
vn 0.9641 0.2508 0.0868
vn 0.6101 0.7898 0.0637
vn 0.8709 0.4860 0.0732
vn 0.3496 0.9021 0.2531
vn 0.0365 0.9989 0.0298
vn 0.5191 0.6447 -0.5612
vn 0.6103 0.7896 0.0637
vn 0.4622 0.8865 0.0215
vn 0.3493 0.9021 0.2532
vn 0.4618 0.8234 0.3299
vn 0.2656 0.2743 0.9242
vn 0.7416 0.3733 0.5574
vn 0.3533 -0.7188 -0.5987
vn 0.4653 -0.8851 -0.0062
vn 0.4868 -0.8547 0.1805
vn 0.7609 -0.6081 -0.2264
vn 0.8017 -0.5897 -0.0975
vn 0.8245 -0.5657 0.0102
vn 0.8312 -0.3752 -0.4103
vn 0.8041 0.5941 0.0224
vn 0.8419 0.3682 -0.3944
vn -0.4547 0.2908 0.8418
vn 0.9947 -0.0000 0.1032
vn 0.9955 -0.0000 0.0949
vn -0.0184 -0.4648 -0.8852
vn 0.0219 -0.2796 -0.9599
vn 0.0186 -0.1231 -0.9922
vn 0.0531 0.1670 -0.9845
vn 0.0806 0.0756 -0.9939
vn 0.0182 0.1101 -0.9938
vn 0.0795 0.2327 -0.9693
vn -0.0299 0.3055 -0.9517
vn -0.0656 0.4200 -0.9051
vn -0.0782 0.1863 -0.9794
vn 0.0042 0.0930 -0.9957
vn -0.1245 -0.0796 -0.9890
vn -0.0617 -0.1030 -0.9928
vn -0.1156 -0.1183 -0.9862
vn 0.0255 -0.8289 -0.5588
vn 0.5192 0.6448 -0.5610
vn 0.5944 0.0453 -0.8029
vn 0.2697 0.0969 -0.9581
vn 0.5972 -0.0420 -0.8010
vn 0.3060 -0.0783 -0.9488
vn 0.8312 -0.3751 -0.4104
vn -0.0299 0.3054 -0.9517
vn 0.0392 0.1004 -0.9942
vn 0.0208 -0.1633 -0.9864
vn -0.1243 -0.0797 -0.9890
vn -0.1155 -0.1183 -0.9862
vn -0.0442 -0.2074 -0.9773
vn 0.0449 0.1099 -0.9929
vn -0.1512 -0.0000 0.9885
vn -0.0757 -0.0000 0.9971
vn 0.0003 -0.0000 1.0000
vn 0.5981 -0.1014 -0.7950
vn 0.4898 -0.5876 -0.6441
vn -0.0372 -0.3955 -0.9177
vn 0.0842 -0.7479 -0.6585
vn -0.2297 -0.7156 -0.6597
vn -0.6001 0.0220 -0.7997
vn -0.5943 -0.4759 -0.6483
vn 0.5943 0.3881 -0.7044
vn 0.6000 -0.1253 -0.7901
vn 0.2297 0.6242 -0.7467
vn 0.0372 0.2734 -0.9612
vn -0.0842 0.6564 -0.7497
vn -0.4898 0.4993 -0.7147
vn -0.5980 -0.0023 -0.8015
vn -0.3023 0.6499 0.6974
vn -0.5314 0.4582 0.7125
vn -0.1473 0.7180 0.6803
vn -0.1526 0.7135 0.6839
vn 0.5426 0.5881 0.5997
vn 0.2688 0.7418 0.6144
vn 0.4797 0.6515 0.5878
vn -0.5314 0.4583 0.7125
vn -0.6838 0.2930 0.6683
vn -0.7777 0.1331 0.6144
vn -0.5626 0.3023 0.7694
vn 0.8316 0.2953 0.4704
vn 0.2518 0.7668 0.5904
vn 0.5769 0.5903 0.5645
vn -0.3190 0.5386 0.7798
vn -0.5045 0.2911 0.8129
vn -0.5626 0.3025 0.7694
vn -0.2548 0.5677 0.7828
vn -0.7775 0.1333 0.6146
vn -0.6424 0.3081 0.7017
vn -0.8262 0.2593 0.5001
vn 0.4796 0.6515 0.5879
vn -0.0018 0.8080 0.5892
vn -0.1514 0.8205 0.5513
vn -0.2133 0.8121 0.5431
vn -0.1777 0.8288 0.5305
vn -0.0269 0.8274 0.5610
vn -0.0269 0.8273 0.5611
vn 0.2247 -0.6937 0.6844
vn 0.4617 -0.6659 0.5860
vn -0.1217 -0.8058 0.5796
vn -0.1164 -0.8016 0.5864
vn -0.0638 -0.7964 0.6014
vn -0.7469 -0.4293 0.5078
vn -0.5972 -0.4262 0.6795
vn -0.7593 -0.1696 0.6283
vn -0.4974 -0.4145 0.7620
vn -0.7108 -0.1462 0.6881
vn -0.5460 -0.3988 0.7368
vn -0.4216 -0.5446 0.7250
vn -0.1156 -0.7514 0.6496
vn -0.0365 -0.7211 0.6918
vn 0.4443 -0.5921 0.6723
vn 0.0708 -0.7996 0.5963
vn -0.5461 -0.3987 0.7368
vn -0.4218 -0.5445 0.7250
vn 0.4584 -0.4282 0.7788
vn 0.6234 -0.3916 0.6768
vn 0.3844 -0.6009 0.7009
vn 0.2248 -0.6936 0.6844
vn 0.4442 -0.5921 0.6723
vn 0.5425 0.5881 0.5998
vn -0.6559 0.0468 0.7534
vn 0.2516 0.7669 0.5904
vn -0.1127 -0.7305 0.6736
vn 0.0709 -0.7996 0.5963
vn 0.4616 -0.6660 0.5860
vn 0.4442 -0.5923 0.6723
vn -0.7037 -0.3069 0.6408
vn -0.5045 0.2912 0.8128
vn -0.6559 0.0465 0.7534
vn -0.3024 0.6498 0.6974
vn -0.0857 -0.0000 0.9963
vn 1.0000 -0.0000 -0.0000
vn -1.0000 -0.0000 -0.0000
vn -0.0000 -0.9846 -0.1747
vn -0.0000 0.9845 -0.1753
vn -0.0000 -0.0000 -1.0000
vn 0.0440 0.3917 -0.9190
vn 0.0441 0.3918 -0.9190
vn 0.9226 -0.2279 0.3114
vn -0.9520 -0.0345 0.3041
vn -0.9520 -0.0345 0.3040
vn -0.5486 0.7677 0.3312
vn -0.8174 0.5621 0.1262
vn -0.6668 -0.2367 0.7067
vn -0.9321 -0.2292 0.2805
vn -0.8905 -0.4241 0.1650
vn 0.1026 0.9947 -0.0036
vn -0.5488 0.7676 0.3312
vn 0.6913 0.6397 0.3361
vn -0.9826 0.0585 0.1762
vn -0.5486 0.7677 0.3311
vn -0.9947 0.1025 -0.0038
vn -0.6477 -0.1558 0.7458
vn 0.0372 0.3955 0.9177
vn 0.5990 -0.3673 0.7115
vn 0.5966 -0.2842 0.7505
vn -0.6668 -0.2368 0.7066
vn -0.6479 -0.1559 0.7456
vn -0.5488 0.7677 0.3310
vn 0.9725 -0.1431 0.1839
vn 0.9947 -0.1026 0.0041
vn 0.6911 0.6399 0.3360
vn 0.5964 -0.2842 0.7507
vn 0.9163 0.0512 0.3972
vn 0.5547 -0.5847 0.5920
vn 0.9711 0.2374 -0.0251
vn 0.9711 0.2375 -0.0251
vn -0.2459 0.9693 -0.0030
vn -0.5488 0.7676 0.3311
vn 0.4385 0.8987 -0.0003
vn 0.9138 0.3838 0.1330
vn 0.5980 -0.1015 -0.7950
vn 0.8195 0.0774 -0.5678
vn 0.4897 -0.5877 -0.6441
vn 0.6943 -0.5989 -0.3990
vn 0.4897 -0.5876 -0.6441
vn 0.6942 -0.5991 -0.3989
vn 0.0841 -0.7479 -0.6584
vn 0.1925 -0.9513 -0.2408
vn -0.2298 -0.7155 -0.6597
vn -0.3807 -0.8922 -0.2430
vn -0.5943 -0.4758 -0.6484
vn -0.7987 -0.4451 -0.4048
vn -0.0384 -0.3365 0.9409
vn -0.6670 -0.4586 0.5872
vn 0.5548 -0.5846 0.5920
vn -0.1025 -0.9908 0.0889
vn -0.0382 -0.3365 0.9409
vn -0.8896 0.2375 0.3901
vn -0.6670 -0.4587 0.5872
vn -0.9020 0.4306 -0.0325
vn -0.7989 -0.4449 -0.4048
vn -0.5999 0.0219 -0.7998
vn -0.7820 0.2426 -0.5742
vn 0.9139 0.3836 0.1331
vn 0.8635 -0.4144 0.2876
vn 0.5989 -0.3672 0.7116
vn 0.7840 -0.5961 0.1735
vn -0.0957 -0.9127 0.3972
vn 0.5966 -0.2842 0.7506
vn 0.8194 0.0777 -0.5679
vn 0.5980 -0.1016 -0.7950
vn 0.4109 0.6682 -0.6202
vn -0.2610 0.7375 -0.6229
vn -0.7819 0.2428 -0.5742
vn -0.5999 0.0220 -0.7998
vn 0.5988 -0.3672 0.7118
vn 0.9177 -0.3891 0.0802
vn 0.7840 -0.5965 0.1715
vn 0.9178 -0.3889 0.0802
vn 0.5990 -0.3671 0.7116
vn -0.6669 -0.2366 0.7066
vn -0.0871 -0.8230 0.5613
vn -0.0958 -0.9142 0.3939
vn -0.9395 0.0382 0.3405
vn -0.9279 -0.0245 0.3721
vn -0.9279 -0.0246 0.3721
vn -0.9116 -0.0872 0.4018
vn -0.9132 0.2983 -0.2777
vn -0.9132 0.2982 -0.2777
vn -0.9135 0.2979 -0.2770
vn -0.0370 -0.8100 -0.5853
vn -0.0749 -0.9668 -0.2443
vn -0.0938 -0.9244 -0.3698
vn -0.1022 -0.9860 0.1317
vn -0.1219 -0.9620 -0.2445
vn 0.9569 0.1048 -0.2708
vn -0.6667 -0.2367 0.7068
vn -0.8906 -0.4239 0.1650
vn -0.9784 -0.1935 0.0727
vn -0.9784 -0.1934 0.0727
vn -0.0402 -0.4245 -0.9045
vn -0.1243 -0.8010 -0.5856
vn 0.9247 -0.1535 0.3483
vn 0.9004 -0.2128 0.3796
vn 0.9004 -0.2128 0.3795
vn 0.8714 -0.2710 0.4088
vn 0.0340 0.6012 0.7984
vn 0.0312 0.3381 0.9406
vn 0.0669 0.6771 0.7328
vn 0.0832 0.5962 0.7985
vn -0.8172 0.5623 0.1262
vn -0.0385 -0.3364 0.9409
vn -0.0928 -0.9143 -0.3942
vn 0.0831 0.5963 0.7984
vn 0.1276 0.8010 0.5849
vn 0.0670 0.6772 0.7327
vn 0.0669 0.6773 0.7326
vn 0.0340 0.8108 0.5844
vn 0.0340 0.6015 0.7982
vn 0.6912 0.6399 0.3358
vn -0.9226 0.2662 0.2793
vn -0.0440 -0.5073 -0.8606
vn -0.0441 -0.5073 -0.8606
vn 0.9520 0.0735 0.2970
vn 0.9135 -0.3313 -0.2361
vn 0.9132 -0.3316 -0.2368
vn -0.0832 -0.4878 0.8690
vn -0.0669 -0.5766 0.8142
vn -0.0312 -0.2135 0.9764
vn -0.0341 -0.4929 0.8694
vn -0.8714 0.3216 0.3703
vn -0.9004 0.2601 0.3488
vn -0.9247 0.1973 0.3256
vn 0.9279 0.0725 0.3658
vn 0.9279 0.0724 0.3658
vn 0.9395 0.0061 0.3426
vn -0.9569 -0.1389 -0.2550
vn -0.9569 -0.1390 -0.2550
vn 0.0402 0.3039 -0.9518
vn 0.9784 0.2011 0.0470
vn 0.9784 0.2013 0.0470
vn 0.8906 0.4416 0.1087
vn 0.6667 0.3261 0.6702
vn 0.0958 0.9574 0.2723
vn 0.0871 0.8887 0.4502
vn 0.0871 0.8887 0.4501
vn 0.6669 0.3260 0.6701
vn -0.5990 0.4561 0.6581
vn -0.9178 0.3960 0.0292
vn -0.7840 0.6137 0.0929
vn -0.9177 0.3962 0.0292
vn -0.5988 0.4562 0.6583
vn 0.1243 0.7185 -0.6843
vn 0.1244 0.7185 -0.6843
vn 0.0938 0.8688 -0.4862
vn 0.1219 0.9223 -0.3668
vn 0.1022 0.9948 0.0030
vn 0.0370 0.7275 -0.6852
vn 0.0370 0.7275 -0.6851
vn 0.0749 0.9271 -0.3673
vn -0.8194 -0.1505 -0.5531
vn -0.5980 -0.0021 -0.8015
vn -0.4109 -0.7428 -0.5286
vn 0.2611 -0.8118 -0.5223
vn 0.2610 -0.8119 -0.5223
vn 0.7819 -0.3151 -0.5379
vn 0.5999 -0.1253 -0.7902
vn 0.9321 0.2635 0.2485
vn 0.6668 0.3261 0.6701
vn 0.8174 -0.5411 0.1979
vn 0.5486 -0.7184 0.4277
vn -0.7840 0.6135 0.0949
vn -0.8635 0.4481 0.2315
vn -0.5989 0.4562 0.6582
vn -0.9139 -0.3631 0.1816
vn -0.6911 -0.5910 0.4160
vn 0.5999 -0.1252 -0.7902
vn 0.5943 0.3880 -0.7044
vn 0.7820 -0.3148 -0.5379
vn 0.7988 0.3888 -0.4590
vn -0.5966 0.3789 0.7075
vn 0.0957 0.9564 0.2758
vn 0.6477 0.2510 0.7193
vn 0.9947 -0.1022 0.0094
vn 0.9826 -0.0351 0.1821
vn 0.6477 0.2511 0.7193
vn 0.5486 -0.7185 0.4276
vn -0.9947 0.1022 -0.0094
vn -0.5964 0.3789 0.7076
vn -0.9725 0.1658 0.1637
vn -0.6911 -0.5911 0.4159
vn -0.5980 -0.0022 -0.8015
vn -0.8195 -0.1502 -0.5531
vn -0.4897 0.4994 -0.7147
vn -0.6943 0.5423 -0.4731
vn -0.6942 0.5425 -0.4731
vn -0.0841 0.6565 -0.7497
vn -0.1925 0.9122 -0.3618
vn 0.2298 0.6242 -0.7467
vn 0.3807 0.8533 -0.3564
vn 0.5943 0.3880 -0.7045
vn 0.7987 0.3890 -0.4590
vn -0.0372 -0.2734 0.9612
vn 0.6669 0.5308 0.5229
vn 0.8896 -0.1850 0.4176
vn 0.9019 -0.4313 0.0235
vn 0.9020 -0.4312 0.0235
vn 0.1025 0.9939 -0.0400
vn 0.6670 0.5307 0.5229
vn -0.5548 0.6563 0.5114
vn 0.0384 0.4554 0.8895
vn 0.0386 0.4552 0.8895
vn -0.5547 0.6564 0.5113
vn -0.9163 0.0006 0.4005
vn -0.9711 -0.2387 0.0059
vn -0.9711 -0.2386 0.0059
vn -0.1026 -0.9868 0.1251
vn -0.6913 -0.5908 0.4160
vn 0.5488 -0.7183 0.4277
vn 0.2459 -0.9615 0.1224
vn -0.4385 -0.8912 0.1160
vn -0.9138 -0.3634 0.1815
vn -0.5990 0.4562 0.6580
vn -0.5966 0.3789 0.7074
vn 0.6669 0.3262 0.6700
vn 0.6479 0.2510 0.7192
vn 0.5488 -0.7184 0.4275
vn 0.9116 0.1384 0.3871
vn -0.6912 -0.5910 0.4158
vn 0.0382 0.4553 0.8895
vn 0.8172 -0.5413 0.1978
vn 0.8905 0.4419 0.1088
vn -0.0340 -0.7283 0.6844
vn -0.0341 -0.4931 0.8693
vn -0.0670 -0.5768 0.8141
vn -0.1277 -0.7187 0.6835
vn -0.0832 -0.4881 0.8688
vn 0.0927 0.8557 -0.5092
vn -0.2203 -0.0000 0.9754
vn -0.4300 -0.0000 0.9028
vn -0.2205 -0.0000 0.9754
vn 0.1335 -0.0000 0.9910
vn 0.2647 -0.0000 0.9643
vn -0.9976 0.0004 0.0686
vn -0.9976 -0.0000 0.0686
vn -0.9976 0.0001 0.0686
vn -0.9976 0.0004 0.0687
vn -0.9976 0.0003 0.0686
vn -0.0000 0.9577 0.2877
vn 0.9976 0.0002 0.0687
vn 0.9976 0.0003 0.0686
vn -0.9976 0.0003 0.0687
vn -0.9976 0.0003 0.0691
vn -0.9976 0.0006 0.0687
vn -0.0000 0.9814 0.1920
vn -0.9782 -0.0003 0.2076
vn -0.9783 -0.0025 0.2074
vn -0.9783 -0.0023 0.2074
vn -0.0000 -0.9829 -0.1841
vn -0.0000 -0.9830 -0.1838
vn -0.9783 -0.0024 0.2074
vn -0.9789 -0.0022 0.2043
vn 0.9976 0.0003 0.0687
vn 0.9976 0.0005 0.0691
vn 0.9976 0.0008 0.0688
vn -0.9976 -0.0000 0.0695
vn -0.0000 -0.9830 -0.1834
vn -0.0000 -0.9830 -0.1835
vn -0.0000 -0.9831 -0.1829
vn -0.9782 -0.0006 0.2077
vn -0.9782 -0.0007 0.2077
vn -0.9780 -0.0034 0.2087
vn 0.9976 0.0003 0.0691
vn 0.9976 0.0002 0.0692
vn 0.9976 -0.0000 0.0695
vn 0.9976 -0.0003 0.0691
vn -0.9789 0.0022 0.2043
vn -0.0000 -0.0052 -1.0000
vn -0.9787 -0.0031 0.2055
vn -0.9787 -0.0030 0.2054
vn -0.9787 0.0031 0.2055
vn -0.0000 -0.9804 -0.1972
vn -0.9976 -0.0002 0.0692
vn -0.9780 0.0035 0.2087
vn -0.9780 0.0033 0.2086
vn -0.0000 0.9802 -0.1979
vn -0.9780 0.0034 0.2087
vn -0.9782 0.0004 0.2077
vn -0.9780 0.0034 0.2086
vn -0.9782 0.0003 0.2076
vn -0.0000 0.9824 -0.1868
vn -0.0000 0.9823 -0.1871
vn -0.0000 -0.9815 0.1915
vn 0.9976 -0.0005 0.0691
vn 0.9976 -0.0002 0.0692
vn 0.9976 -0.0003 0.0687
vn -0.9789 0.0023 0.2043
vn -0.9783 0.0021 0.2074
vn -0.9783 0.0023 0.2074
vn -0.0000 0.9823 -0.1872
vn -0.0000 -0.9579 0.2871
vn -0.9976 -0.0004 0.0691
vn -0.9976 -0.0003 0.0687
vn -0.9976 -0.0003 0.0686
vn -0.9976 -0.0001 0.0687
vn -0.9783 0.0025 0.2074
vn -0.9783 0.0024 0.2074
vn 0.9976 -0.0004 0.0688
vn 0.9976 -0.0005 0.0688
vn 0.9976 -0.0001 0.0686
vn 0.9976 -0.0002 0.0687
vn -0.9782 -0.0006 0.2075
vt 3.862465 3.090254
vt 3.086985 3.865734
vt 3.932154 3.245061
vt 3.278198 3.975442
vt 3.513927 2.856553
vt 2.868985 3.564280
vt 2.837502 3.147530
vt 2.650659 3.341142
vt 2.814225 2.839418
vt 2.461376 3.147687
vt 2.453822 2.750393
vt 2.349894 3.028525
vt 2.085906 2.746348
vt 3.188600 2.512343
vt 2.721953 2.032824
vt 1.745045 1.056889
vt 1.053623 1.746825
vt 1.707579 0.731998
vt 0.658798 1.780779
vt 0.468123 1.162977
vt 0.732004 0.866246
vt 0.883639 1.589131
vt 0.906067 1.015581
vt 1.185517 0.941113
vt 1.258451 0.562954
vt 1.529590 0.849426
vt 1.176101 0.478093
vt 0.813395 0.481276
vt 0.054031 0.752737
vt 1.084976 0.384190
vt 0.745454 0.062801
vt 3.953828 0.424830
vt 3.941925 0.458480
vt 3.459167 0.424830
vt 3.468716 1.049302
vt 3.955393 1.049302
vt 3.490833 1.404274
vt 3.955393 1.407963
vt 3.771137 0.308456
vt 3.907745 0.424830
vt 3.963112 0.458480
vt 3.421309 0.424830
vt 3.435803 0.458480
vt 3.955393 1.367497
vt 3.483863 1.382674
vt 2.999998 1.431018
vt 2.982039 1.049302
vt 2.355036 1.340494
vt 2.495362 1.049302
vt 2.222549 1.700847
vt 2.285798 1.301933
vt 2.238116 1.301944
vt 2.273933 0.284050
vt 2.207339 0.251160
vt 0.420546 1.302344
vt 0.382846 1.302353
vt 0.420234 0.252089
vt 0.348122 0.284514
vt 3.017600 0.458480
vt 2.447091 0.424830
vt 3.438657 0.458480
vt 3.192978 0.424830
vt 3.187689 0.458480
vt 2.962199 0.424830
vt 2.962199 0.458480
vt 2.823128 0.424830
vt 2.832087 0.449132
vt 2.493807 0.424830
vt 2.846800 1.425853
vt 2.475960 1.346933
vt 3.017600 0.424830
vt 0.771637 1.377032
vt 1.035331 1.049302
vt 0.548654 1.049302
vt 1.014582 0.424830
vt 0.664745 0.448357
vt 0.678359 0.424830
vt 0.579438 0.452957
vt 0.577537 0.424830
vt 0.477011 0.458480
vt 0.465970 0.424830
vt 0.067462 0.424830
vt 1.254059 1.369572
vt 0.610289 1.409618
vt 0.589673 1.049302
vt 1.071112 0.424830
vt 0.563612 0.424830
vt 0.274690 1.261698
vt 0.227994 1.261708
vt 0.246624 0.211215
vt 0.197021 0.243732
vt 0.061976 1.392603
vt 0.061976 1.049302
vt 0.549939 0.458480
vt 0.005305 0.458480
vt 0.066565 0.424830
vt 0.246233 0.308456
vt 0.061976 1.378393
vt 0.037583 0.458480
vt 0.246233 1.123221
vt 0.246233 1.650585
vt 0.412419 1.722334
vt 0.232369 1.686866
vt 1.070945 1.432086
vt 2.949809 3.645087
vt 2.746984 3.210137
vt 2.676269 3.763458
vt 2.417413 3.213449
vt 2.389847 3.887404
vt 2.138142 3.328388
vt 2.100583 4.012579
vt 1.913460 3.578563
vt 1.484397 2.554323
vt 1.658529 2.974933
vt 1.800604 2.570118
vt 2.004360 2.987800
vt 2.159745 2.572434
vt 2.179894 2.672881
vt 2.294404 2.154616
vt 2.559142 2.755032
vt 0.618976 0.507789
vt 0.519589 0.380657
vt 0.888407 0.391196
vt 0.814497 0.253039
vt 1.132166 0.285712
vt 1.081306 0.137580
vt 1.394183 0.172327
vt 1.368099 0.013474
vt 1.013480 1.488424
vt 1.271398 1.282996
vt 0.927338 0.495085
vt 1.225404 0.406547
vt 1.567550 1.211336
vt 1.785284 0.951442
vt 1.645923 0.679949
vt 0.765706 0.881989
vt 0.737263 0.001942
vt 2.307061 0.001942
vt 0.737263 0.285520
vt 2.307061 0.285520
vt 0.461629 0.663922
vt 0.533563 0.663922
vt 0.414099 0.588594
vt 0.581093 0.588594
vt 0.414099 0.408761
vt 0.581093 0.408761
vt 0.461629 0.333432
vt 0.533563 0.333432
vt 0.878808 0.222978
vt 0.788970 0.447612
vt 0.732676 0.207616
vt 0.725185 0.481899
vt 0.674721 0.538789
vt 0.636247 0.248174
vt 0.521412 0.293302
vt 0.497666 0.674800
vt 0.450976 0.317367
vt 0.564963 0.660176
vt 0.527917 0.329708
vt 0.595274 0.285127
vt 0.481740 0.735834
vt 0.409284 0.746205
vt 0.428523 0.809344
vt 0.564213 0.292571
vt 0.659573 0.524232
vt 0.494167 0.329708
vt 0.638523 0.571624
vt 0.615328 0.649916
vt 0.613779 0.698470
vt 0.582131 0.303430
vt 0.561013 0.618553
vt 0.342008 0.336626
vt 0.506929 0.649825
vt 0.441219 0.723859
vt 0.000000 0.387786
vt 0.096189 0.792384
vt 0.304948 0.618838
vt 0.350306 0.333242
vt 0.520270 0.703699
vt 0.488008 0.320159
vt 0.855915 0.700316
vt 0.858399 0.280507
vt 0.305270 0.698315
vt 0.303049 0.522241
vt 0.356810 0.644587
vt 0.403570 0.267204
vt 0.501663 0.254697
vt 0.148356 0.498823
vt 0.071804 0.305765
vt 0.193087 0.506527
vt 0.135340 0.295754
vt 0.267642 0.567288
vt 0.253732 0.307055
vt 0.446262 0.612517
vt 0.616078 0.287184
vt 0.532479 0.775017
vt 0.531540 0.750983
vt 0.555768 0.809312
vt 0.579429 0.760491
vt 0.447171 0.439123
vt 0.483652 0.741475
vt 0.527479 0.701569
vt 0.661001 0.274168
vt 0.666116 0.618392
vt 0.276545 0.451610
vt 0.419003 0.377079
vt 0.526450 0.350540
vt 0.562667 0.644098
vt 0.690768 0.517797
vt 0.374036 0.305025
vt 0.756938 0.740606
vt 0.756938 0.259394
vt 0.243062 0.740606
vt 0.243062 0.259394
vt 0.024299 0.014781
vt 0.318889 0.014781
vt 0.260201 1.233705
vt 0.493602 0.879988
vt 1.303200 1.233705
vt 1.069655 0.879988
vt 1.537988 0.014781
vt 1.243688 0.014781
vt 0.022009 0.951925
vt 0.097972 0.871482
vt 0.292338 0.950587
vt 0.955796 0.847495
vt 0.976443 0.947200
vt 0.195552 0.988557
vt 0.818448 0.988557
vt 0.258969 0.897860
vt 0.755081 0.897860
vt 0.918034 0.895109
vt 0.060049 0.884023
vt 0.995241 0.974397
vt 0.040988 0.983941
vt 0.818448 0.959641
vt 0.195552 0.959641
vt 0.755081 0.868943
vt 0.258969 0.868943
vt 0.084579 0.998585
vt 0.915421 0.998585
vt 0.084579 0.825305
vt 0.915421 0.825305
vt 0.354227 0.998585
vt 0.354227 0.825305
vt 1.185070 0.998585
vt 1.185070 0.825305
vt 0.937766 0.998585
vt 0.937766 0.825305
vt 0.471522 0.998585
vt 0.471522 0.825305
vt 1.028578 0.825305
vt 0.197735 0.825305
vt 1.028578 0.998585
vt 0.197735 0.998585
vt 0.733122 0.998585
vt 0.733122 0.825305
vt 0.266878 0.998585
vt 0.266878 0.825305
vt 0.097972 0.905218
vt 0.022009 0.985660
vt 0.955796 0.881231
vt 0.976443 0.980935
vt 0.995241 0.935843
vt 0.740485 0.949007
vt 0.918034 0.856554
vt 0.040988 0.945386
vt 0.060049 0.845468
vt 0.880814 0.716982
vt 0.880814 0.689612
vt 0.064415 0.716982
vt 0.064415 0.689612
vt 0.880422 0.703297
vt 0.064023 0.703297
vt 0.647039 0.916581
vt 0.665488 0.764349
vt 0.535668 0.916581
vt 0.587482 0.764349
vt 0.535939 0.764349
vt 0.174053 0.967173
vt 0.345144 0.967173
vt 0.132772 0.860578
vt 0.386425 0.860578
vt 0.448470 0.987853
vt 0.503806 0.878291
vt 0.314468 0.979422
vt 0.320765 0.879336
vt 0.535871 0.908151
vt 0.535871 0.983859
vt 0.714147 0.908151
vt 0.714147 0.983859
vt 0.309208 0.966833
vt 0.341372 0.951471
vt 0.508087 0.966833
vt 0.475922 0.951471
vt 0.508386 0.829480
vt 0.849206 0.674318
vt 0.827937 0.714977
vt 0.740639 0.674761
vt 0.740464 0.715886
vt 0.851108 0.764439
vt 0.860560 0.918649
vt 0.735471 0.764439
vt 0.726020 0.918649
vt 0.662584 0.764439
vt 0.424505 0.833950
vt 0.414592 0.812731
vt 0.361258 0.833950
vt 0.343040 0.812731
vt 0.575495 0.833950
vt 0.585408 0.812731
vt 0.638742 0.833950
vt 0.656960 0.812731
vt 0.709129 0.708649
vt 0.619499 0.721822
vt 0.619499 0.695476
vt 0.464343 0.721822
vt 0.464343 0.695476
vt 0.844804 0.697959
vt 0.174053 0.990913
vt 0.174053 0.903760
vt 0.345144 0.990913
vt 0.345144 0.903760
vt 0.574344 0.663073
vt 0.674096 0.704127
vt 0.773451 0.665064
vt 0.771704 0.704922
vt 0.886436 0.984484
vt 0.652063 0.984484
vt 0.861334 0.890993
vt 0.677166 0.890993
vt 0.861334 0.826094
vt 0.677166 0.826094
vt 0.577229 0.710970
vt 0.568912 0.676326
vt 0.401192 0.711380
vt 0.394361 0.676644
vt 0.376036 0.694141
vt 0.569032 0.676826
vt 0.401312 0.711879
vt 0.394481 0.677143
vt 0.665113 0.783127
vt 0.677187 0.783004
vt 0.727278 0.958073
vt 0.737872 0.957951
vt 0.737872 0.976364
vt 0.748466 0.958073
vt 0.562652 0.841415
vt 0.730638 0.841415
vt 0.570085 0.811191
vt 0.723205 0.811191
vt 0.798507 0.783004
vt 0.810682 0.783127
vt 0.568912 0.676327
vt 0.394361 0.676644
vt 0.727278 0.951075
vt 0.737872 0.950952
vt 0.748466 0.951075
vt 0.923995 0.764439
vt 0.804595 0.774639
vt 0.671150 0.774639
vt 0.308909 0.829480
vt 2.571815 0.727017
vt 3.426225 0.727017
vt 2.571815 0.769090
vt 3.426225 0.769090
vt 2.571815 0.661488
vt 3.426225 0.661488
vt 2.301615 0.812422
vt 2.301615 0.772431
vt 3.067121 0.812422
vt 3.067121 0.772431
vt 2.435108 0.769661
vt 3.245718 0.769661
vt 2.435108 0.730582
vt 3.245718 0.730582
vt 2.435108 0.667853
vt 3.245718 0.667853
vt 0.648445 0.811757
vt 0.619148 0.729161
vt 0.927060 0.809408
vt 0.664282 0.686433
vt 0.958241 0.712943
vt 0.756437 0.660832
vt 0.701373 0.517732
vt 0.811664 0.611880
vt 0.805108 0.516593
vt 0.808848 0.758206
vt 0.929248 0.809320
vt 0.896456 0.707317
vt 0.958247 0.712922
vt 0.526006 0.810650
vt 0.556061 0.720767
vt 0.974066 0.810650
vt 0.928533 0.760265
vt 0.805108 0.791892
vt 0.701373 0.793030
vt 0.785248 0.503210
vt 0.721312 0.503210
vt 0.930632 0.939843
vt 0.586711 0.990103
vt 0.883042 0.878432
vt 0.837756 0.864937
vt 0.518650 0.961988
vt 0.860977 0.948795
vt 0.530072 0.993612
vt 0.853271 0.992910
vt 0.525215 0.991546
vt 0.525215 0.953247
vt 0.982811 0.991546
vt 0.982811 0.955570
vt 0.719299 0.704015
vt 0.893571 0.731095
vt 0.627145 0.730856
vt 0.951723 0.767134
vt 0.512321 0.810582
vt 0.956849 0.810582
vt 0.924860 0.990034
vt 0.541689 0.989648
vt 0.906301 0.902159
vt 0.534140 0.953635
vt 0.583124 0.992910
vt 0.590829 0.948795
vt 0.923236 0.992171
vt 0.884875 0.951108
vt 0.961657 0.525301
vt 0.990505 0.810582
vt 0.512321 0.525301
vt 0.990505 0.525301
vt 0.528018 0.810650
vt 0.974012 0.810650
vt 0.556067 0.720748
vt 0.928480 0.760439
vt 0.818389 0.503247
vt 0.776868 0.802531
vt 0.735346 0.503247
vt 0.735346 0.802531
vt 0.591955 0.747419
vt 0.914711 0.747419
vt 0.555137 0.807069
vt 0.914711 0.807069
vt 0.521321 0.946587
vt 0.544740 0.811541
vt 0.885418 0.808863
vt 0.990911 0.810582
vt 0.990911 0.525301
vt 0.892244 0.747419
vt 0.929062 0.807069
vt 0.569488 0.747419
vt 0.569488 0.807069
vt 0.537754 0.953247
vt 0.971254 0.955570
vt 0.512677 0.991546
vt 0.994369 0.991546
vt 0.525234 0.989860
vt 0.525234 0.959325
vt 0.755347 0.989860
vt 0.985461 0.959325
vt 0.985461 0.989860
vt 0.615270 0.808863
vt 0.751014 0.807817
vt 0.625259 0.819601
vt 0.883892 0.819601
vt 0.508750 0.513377
vt 0.508750 0.811341
vt 0.998256 0.513377
vt 0.998623 0.811341
vt 0.510078 0.811253
vt 0.534377 0.947711
vt 0.931589 0.811253
vt 0.956540 0.947711
vt 0.508750 0.514952
vt 0.508750 0.811681
vt 0.998623 0.514952
vt 0.999056 0.811681
vt 0.718535 0.948999
vt 0.530552 0.806687
vt 0.909053 0.949255
vt 0.972698 0.806687
vt 0.993325 0.520855
vt 0.507645 0.520855
vt 0.993325 0.811023
vt 0.507645 0.811023
vt 0.990505 0.529068
vt 0.990505 0.814348
vt 0.512321 0.529068
vt 0.512321 0.814348
vt 0.990911 0.529068
vt 0.990911 0.814348
vt 0.818389 0.801072
vt 0.818389 0.501788
vt 0.735346 0.801072
vt 0.735346 0.501788
vt 0.887202 0.953599
vt 0.590157 0.952640
vt 0.718535 0.948985
vt 0.909053 0.949262
vt 0.998643 0.514952
vt 0.998245 0.513377
vt 0.998643 0.811341
vt 0.956531 0.947711
vt 0.534658 0.947711
vt 0.931581 0.811253
vt 0.860305 0.952640
vt 0.520447 0.951627
vt 0.804863 0.788330
vt 0.701462 0.791742
vt 0.718971 0.691216
vt 0.656162 0.728210
vt 0.620650 0.811758
vt 0.513159 0.993649
vt 0.946729 0.724805
vt 0.880891 0.694569
vt 0.836258 0.701856
vt 0.786959 0.732364
vt 0.743959 0.810784
vt 0.787637 0.871869
vt 0.568152 0.902228
vt 0.938444 0.919812
vt 0.969881 0.990490
vt 0.812549 0.624750
vt 0.804863 0.513031
vt 0.735319 0.691176
vt 0.701462 0.516443
vt 0.688835 0.699982
vt 0.689975 0.683413
vt 0.950827 0.990470
vt 0.530552 0.948698
vt 0.818389 0.802531
vt 0.508750 0.707293
vt 0.998245 0.812176
vt 0.508750 0.812176
vt 0.543961 0.811253
vt 0.712109 0.811253
vt 0.568911 0.947711
vt 0.543969 0.811253
vt 0.568920 0.947711
vt 0.998256 0.812176
vt 0.508750 0.705763
vt 0.768938 0.810586
s 1
usemtl material1
f 31/1/1 30/2/2 29/3/3
f 28/4/4 29/3/3 30/2/2
f 33/3/5 32/4/6 26/5/7
f 27/6/8 26/5/7 32/4/6
f 26/5/7 27/6/8 24/7/9
f 25/8/10 24/7/9 27/6/8
f 24/7/9 25/8/10 22/9/9
f 21/10/11 22/9/9 25/8/10
f 22/9/9 21/10/11 19/11/9
f 20/12/12 19/11/9 21/10/11
f 19/11/9 20/12/12 17/13/13
f 26/5/7 24/7/9 23/14/14
f 22/9/9 23/14/14 24/7/9
f 23/14/14 22/9/9 15/15/15
f 19/11/9 15/15/15 22/9/9
f 15/15/15 19/11/9 17/13/13
f 6/16/16 4/17/17 2/18/18
f 1/19/19 2/18/18 4/17/17
f 10/20/20 9/21/9 18/22/13
f 13/23/9 18/22/13 9/21/9
f 18/22/13 13/23/9 14/24/9
f 12/25/21 14/24/9 13/23/9
f 14/24/9 12/25/21 16/26/15
f 12/25/21 13/23/9 11/27/22
f 9/21/9 11/27/22 13/23/9
f 11/27/22 9/21/9 7/28/9
f 10/20/20 7/28/9 9/21/9
f 7/28/9 10/20/20 3/29/23
f 8/30/24 7/28/9 5/31/25
f 3/29/23 5/31/25 7/28/9
f 14/24/9 16/26/15 18/22/13
f 7/28/9 8/30/24 11/27/22
usemtl material2
f 122/32/26 121/33/27 101/34/28
f 103/35/29 101/34/28 121/33/27
f 103/35/29 120/36/30 115/37/31
f 124/38/32 115/37/31 120/36/30
f 126/39/33 118/40/34 119/41/35
f 95/42/36 119/41/35 118/40/34
f 119/41/35 95/42/36 98/43/37
f 119/41/35 98/43/37 117/36/38
f 109/35/39 117/36/38 98/43/37
f 117/36/38 109/35/39 123/44/40
f 111/45/41 123/44/40 109/35/39
f 113/45/42 104/35/43 88/46/44
f 87/47/45 88/46/44 104/35/43
f 88/46/44 87/47/45 80/48/46
f 74/49/47 80/48/46 87/47/45
f 112/50/48 107/51/49 106/52/49
f 97/53/50 106/52/49 107/51/49
f 106/52/49 97/53/50 94/54/51
f 110/55/52 108/56/52 102/57/53
f 100/58/53 102/57/53 108/56/52
f 104/35/43 96/42/54 87/47/45
f 90/59/55 87/47/45 96/42/54
f 87/47/45 90/59/55 74/49/47
f 69/60/15 74/49/47 90/59/55
f 101/34/28 99/61/56 93/62/57
f 92/63/58 93/62/57 99/61/56
f 93/62/57 92/63/58 84/64/59
f 85/65/60 84/64/59 92/63/58
f 84/64/59 85/65/60 81/66/61
f 82/67/62 81/66/61 85/65/60
f 81/66/61 82/67/62 78/68/13
f 86/47/63 78/68/13 82/67/62
f 78/68/13 86/47/63 72/49/64
f 83/69/65 72/49/64 86/47/63
f 72/49/64 83/69/65 76/70/66
f 105/35/67 116/37/68 86/47/63
f 83/69/65 86/47/63 116/37/68
f 99/61/56 105/35/67 92/63/58
f 86/47/63 92/63/58 105/35/67
f 92/63/58 86/47/63 85/65/60
f 82/67/62 85/65/60 86/47/63
f 95/42/69 91/71/70 89/59/71
f 69/60/15 89/59/71 91/71/70
f 68/72/72 71/73/73 51/74/74
f 70/75/15 51/74/74 71/73/73
f 51/74/74 70/75/15 66/76/75
f 67/77/76 66/76/75 70/75/15
f 66/76/75 67/77/76 58/78/77
f 57/79/78 58/78/77 67/77/76
f 58/78/77 57/79/78 50/80/79
f 49/81/80 50/80/79 57/79/78
f 50/80/79 49/81/80 47/82/81
f 75/83/66 63/84/82 73/73/64
f 61/85/83 73/73/64 63/84/82
f 73/73/64 61/85/83 77/86/84
f 55/87/85 77/86/84 61/85/83
f 59/88/86 62/89/87 54/90/88
f 53/91/89 54/90/88 62/89/87
f 64/84/90 44/92/91 60/85/92
f 42/93/93 60/85/92 44/92/91
f 60/85/92 42/93/93 52/94/94
f 48/95/95 52/94/94 42/93/93
f 52/94/94 48/95/95 45/96/96
f 35/97/97 45/96/96 48/95/95
f 43/98/98 51/74/74 41/93/99
f 50/80/79 41/93/99 51/74/74
f 41/93/99 50/80/79 40/99/100
f 47/82/81 40/99/100 50/80/79
f 46/82/101 34/97/102 40/99/100
f 38/100/103 40/99/100 34/97/102
f 40/99/100 38/100/103 41/93/99
f 39/101/104 41/93/99 38/100/103
f 41/93/99 39/101/104 43/98/98
f 35/97/97 48/95/95 37/100/105
f 42/93/93 37/100/105 48/95/95
f 37/100/105 42/93/93 36/101/106
f 44/92/91 36/101/106 42/93/93
f 50/80/79 51/74/74 58/78/77
f 66/76/75 58/78/77 51/74/74
f 121/33/27 122/32/26 125/39/107
f 108/56/52 110/55/52 114/102/108
f 103/35/29 121/33/27 120/36/30
f 43/98/98 68/72/72 51/74/74
f 45/96/96 56/87/20 52/94/94
f 59/88/86 65/103/109 62/89/87
f 68/72/72 79/104/46 71/73/73
usemtl material3
f 156/105/110 153/106/42 155/107/111
f 152/108/112 155/107/111 153/106/42
f 155/107/111 152/108/112 157/109/113
f 151/110/114 157/109/113 152/108/112
f 157/109/113 151/110/114 158/111/115
f 154/112/116 158/111/115 151/110/114
f 140/113/117 148/114/118 143/115/119
f 149/116/120 143/115/119 148/114/118
f 143/115/119 149/116/120 146/117/121
f 147/118/122 146/117/121 149/116/120
f 146/117/121 147/118/122 141/119/123
f 150/120/124 141/119/123 147/118/122
f 148/114/118 154/112/116 149/116/120
f 151/110/114 149/116/120 154/112/116
f 149/116/120 151/110/114 147/118/122
f 152/108/112 147/118/122 151/110/114
f 147/118/122 152/108/112 150/120/124
f 153/106/42 150/120/124 152/108/112
f 130/121/106 134/122/125 129/123/126
f 131/124/127 129/123/126 134/122/125
f 129/123/126 131/124/127 127/125/128
f 132/126/129 127/125/128 131/124/127
f 127/125/128 132/126/129 128/127/130
f 133/128/98 128/127/130 132/126/129
f 139/129/131 144/130/119 135/131/132
f 136/132/133 135/131/132 144/130/119
f 135/131/132 136/132/133 132/126/129
f 133/128/98 132/126/129 136/132/133
f 145/133/134 142/134/135 136/132/133
f 138/135/136 136/132/133 142/134/135
f 136/132/133 138/135/136 133/128/98
f 134/122/125 137/136/137 131/124/127
f 135/131/132 131/124/127 137/136/137
f 131/124/127 135/131/132 132/126/129
f 136/132/133 144/130/119 145/133/134
f 135/131/132 137/136/137 139/129/131
s 0
usemtl material4
f 166/137/138 163/138/138 165/139/138
f 162/140/138 165/139/138 163/138/138
s 1
f 165/139/138 162/140/138 164/137/139
f 161/138/139 164/137/139 162/140/138
f 164/137/139 161/138/139 167/139/140
f 160/140/140 167/139/140 161/138/139
s 0
f 167/139/140 160/140/140 168/137/140
s 1
f 159/138/140 168/137/140 160/140/140
usemtl material5
f 176/141/141 175/142/142 174/143/143
f 173/144/144 174/143/143 175/142/142
f 174/143/143 173/144/144 172/145/143
f 171/146/145 172/145/143 173/144/144
f 172/145/143 171/146/145 170/147/146
f 169/148/147 170/147/146 171/146/145
f 184/148/148 183/147/149 182/146/150
f 181/145/151 182/146/150 183/147/149
f 182/146/150 181/145/151 180/144/152
f 179/143/151 180/144/152 181/145/151
f 180/144/152 179/143/151 178/142/153
f 177/141/154 178/142/153 179/143/151
usemtl material6
f 244/149/155 234/150/156 247/151/157
f 232/152/158 247/151/157 234/150/156
f 247/151/157 232/152/158 228/153/159
f 247/151/157 228/153/159 246/154/160
f 239/155/161 246/154/160 228/153/159
f 233/156/162 242/157/163 227/158/164
f 237/159/165 227/158/164 242/157/163
f 240/160/161 226/161/166 217/162/167
f 216/163/168 217/162/167 226/161/166
f 235/164/169 225/165/170 236/166/171
f 224/167/172 236/166/171 225/165/170
f 236/166/171 224/167/172 227/158/173
f 223/168/174 227/158/173 224/167/172
f 227/158/173 223/168/174 222/169/175
f 238/170/176 220/171/177 241/172/178
f 219/173/179 241/172/178 220/171/177
f 241/172/178 219/173/179 214/174/180
f 241/172/178 214/174/180 243/175/181
f 215/176/182 243/175/181 214/174/180
f 210/177/183 192/178/184 213/179/185
f 191/180/186 213/179/185 192/178/184
f 213/179/185 191/180/186 212/181/187
f 185/182/187 212/181/187 191/180/186
f 208/183/188 206/184/189 203/185/190
f 196/186/191 203/185/190 206/184/189
f 203/185/190 196/186/191 195/187/192
f 198/188/193 190/189/194 199/190/195
f 186/191/196 199/190/195 190/189/194
f 199/190/195 186/191/196 202/192/197
f 187/193/198 202/192/197 186/191/196
f 203/185/190 195/187/192 197/194/199
f 189/195/200 197/194/199 195/187/192
f 207/196/201 204/197/202 211/198/203
f 209/199/204 211/198/203 204/197/202
f 193/200/184 204/197/202 201/201/205
f 207/196/201 201/201/205 204/197/202
f 226/161/166 240/160/161 229/202/206
f 225/165/170 235/164/169 231/203/207
f 220/171/177 238/170/176 218/204/208
f 196/186/191 206/184/189 205/205/209
f 188/206/210 194/207/211 200/208/212
f 193/200/184 209/199/204 204/197/202
f 221/209/213 225/165/214 230/203/215
f 233/156/162 245/210/216 242/157/163
s 0
f 251/211/217 250/212/217 249/213/217
f 248/214/217 249/213/217 250/212/217
usemtl material7
f 255/215/218 254/216/218 259/217/218
f 257/218/218 259/217/218 254/216/218
f 259/217/218 257/218/218 258/219/218
f 256/220/218 258/219/218 257/218/218
f 258/219/218 256/220/218 253/221/218
f 252/222/218 253/221/218 256/220/218
usemtl material8
f 309/223/219 294/224/219 276/225/219
f 265/226/219 276/225/219 294/224/219
f 276/225/219 265/226/219 263/227/219
f 307/228/218 308/229/218 298/230/218
f 278/231/218 298/230/218 308/229/218
f 284/232/218 273/233/218 306/234/218
f 271/235/218 306/234/218 273/233/218
f 302/236/219 303/237/219 291/238/219
f 290/239/219 291/238/219 303/237/219
f 286/240/220 274/241/220 301/242/220
f 272/243/220 301/242/220 274/241/220
f 299/244/221 300/245/221 275/246/221
f 266/247/221 275/246/221 300/245/221
f 281/248/222 280/249/222 297/250/222
f 279/251/222 297/250/222 280/249/222
f 296/242/221 285/240/221 262/243/221
f 261/241/221 262/243/221 285/240/221
f 293/252/220 267/253/220 295/254/220
f 264/255/220 295/254/220 267/253/220
f 289/256/222 288/257/222 292/258/222
f 283/259/222 292/258/222 288/257/222
f 287/260/218 304/261/218 268/262/218
f 260/263/218 268/262/218 304/261/218
f 305/264/219 277/265/219 282/266/219
f 270/267/219 282/266/219 277/265/219
f 282/266/219 270/267/219 269/268/219
f 453/269/223 450/270/223 316/271/223
f 314/272/224 316/271/224 450/270/224
f 451/270/225 449/273/225 313/272/225
f 311/274/225 313/272/225 449/273/225
f 452/269/226 317/271/226 448/273/226
f 312/274/227 448/273/227 317/271/227
s 1
f 443/275/228 419/276/229 392/277/230
f 381/278/231 392/277/230 419/276/229
f 392/277/230 381/278/231 357/279/232
f 438/280/233 432/281/233 441/282/234
f 428/283/235 441/282/234 432/281/233
f 439/284/236 445/285/237 399/286/238
f 394/287/239 399/286/238 445/285/237
s 0
f 440/288/240 401/289/240 434/290/240
f 397/291/240 434/290/240 401/289/240
s 1
f 379/292/241 388/293/242 390/294/243
f 393/295/244 390/294/243 388/293/242
f 390/294/243 393/295/244 442/296/245
f 433/284/246 398/286/247 427/285/248
f 387/287/249 427/285/248 398/286/247
f 424/297/250 413/298/251 422/299/252
f 403/300/253 422/299/252 413/298/251
f 447/301/254 444/302/255 436/303/256
f 426/304/235 436/303/256 444/302/255
f 436/303/256 426/304/235 406/305/257
f 385/306/258 382/307/259 418/308/260
f 421/309/261 418/308/260 382/307/259
f 621/308/262 622/309/263 437/306/264
f 446/307/265 437/306/264 622/309/263
f 437/306/264 446/307/265 431/310/266
f 435/311/267 431/310/266 446/307/265
f 431/310/266 435/311/267 409/312/268
f 404/313/269 409/312/268 435/311/267
f 417/314/270 414/315/271 412/316/272
f 410/317/273 412/316/272 414/315/271
f 412/316/272 410/317/273 402/318/273
f 416/319/274 425/297/275 415/298/276
f 423/299/277 415/298/276 425/297/275
f 415/298/276 423/299/277 411/300/277
f 408/306/147 405/307/278 375/308/279
f 372/309/280 375/308/279 405/307/278
f 407/276/281 430/275/248 373/278/282
f 378/277/283 373/278/282 430/275/248
f 373/278/282 378/277/283 347/279/284
f 400/320/285 395/321/239 396/322/285
f 386/323/286 396/322/285 395/321/239
f 383/309/287 384/308/288 356/307/289
f 365/306/289 356/307/289 384/308/288
f 356/307/289 365/306/289 344/311/290
f 358/310/290 344/311/290 365/306/289
f 344/311/290 358/310/290 374/313/291
f 376/312/292 374/313/291 358/310/290
f 380/324/293 348/325/294 345/326/295
f 332/327/296 345/326/295 348/325/294
f 377/328/297 389/329/298 349/330/299
f 360/331/299 349/330/299 389/329/298
f 349/330/299 360/331/299 331/332/300
f 343/333/300 331/332/300 360/331/299
f 370/334/301 363/335/301 340/336/302
f 324/337/303 340/336/302 363/335/301
f 340/336/302 324/337/303 327/338/304
f 366/334/305 353/339/306 337/340/306
f 322/341/307 337/340/306 353/339/306
f 364/342/308 361/343/308 325/344/309
f 321/345/310 325/344/309 361/343/308
f 325/344/309 321/345/310 329/346/311
f 320/347/312 329/346/311 321/345/310
f 371/334/313 336/340/313 362/339/313
f 323/341/313 362/339/313 336/340/313
f 391/324/314 354/326/315 359/325/316
f 342/327/317 359/325/316 354/326/315
s 0
f 355/348/318 346/349/318 341/350/318
f 330/351/318 341/350/318 346/349/318
s 1
f 352/352/319 351/353/319 321/345/310
f 320/347/312 321/345/310 351/353/319
f 350/354/320 333/336/321 319/355/322
f 328/338/323 319/355/322 333/336/321
f 339/356/324 326/346/325 338/357/326
f 334/358/327 338/357/326 326/346/325
f 444/302/255 447/301/254 420/359/328
f 413/298/251 424/297/250 620/319/329
f 333/336/321 350/354/320 368/334/320
s 0
f 310/274/330 318/271/330 315/272/330
s 1
f 334/358/331 367/360/332 335/357/333
f 335/357/334 369/361/335 339/356/336
f 379/292/241 429/362/337 388/293/242
s 0
f 595/274/338 594/272/338 458/273/338
f 457/270/338 458/273/338 594/272/338
f 592/272/339 590/271/339 456/270/339
f 454/269/340 456/270/340 590/271/340
f 597/274/341 459/273/341 589/271/341
f 455/269/341 589/271/341 459/273/341
s 1
f 584/341/342 573/340/343 554/339/343
f 540/334/343 554/339/343 573/340/343
f 577/358/344 574/357/345 582/346/346
f 570/356/347 582/346/346 574/357/345
f 580/338/348 587/355/349 576/336/349
f 561/354/350 576/336/349 587/355/349
f 576/336/349 561/354/350 541/334/350
f 579/337/351 571/336/352 548/335/353
f 537/334/353 548/335/353 571/336/352
f 586/341/354 551/339/355 575/340/355
f 538/334/355 575/340/355 551/339/355
s 0
f 569/351/356 566/350/356 556/349/356
f 543/348/356 556/349/356 566/350/356
s 1
f 565/327/357 552/325/358 546/326/359
f 523/324/360 546/326/359 552/325/358
f 564/333/361 567/332/361 553/331/362
f 562/330/363 553/331/362 567/332/361
f 553/331/362 562/330/363 522/329/364
f 533/328/365 522/329/364 562/330/363
f 568/327/366 559/326/367 563/325/368
f 534/324/369 563/325/368 559/326/367
f 555/352/370 560/353/371 585/345/372
f 588/347/373 585/345/372 560/353/371
f 585/345/372 588/347/373 583/346/374
f 549/342/375 550/343/376 578/344/377
f 585/345/372 578/344/377 550/343/376
f 578/344/377 585/345/372 583/346/374
f 515/309/378 509/308/379 545/307/380
f 539/306/380 545/307/380 509/308/379
f 545/307/380 539/306/380 558/311/381
f 547/310/382 558/311/381 539/306/380
f 558/311/381 547/310/382 531/313/383
f 528/312/384 531/313/383 547/310/382
f 516/278/385 521/277/386 481/276/387
f 466/275/388 481/276/387 521/277/386
f 557/279/389 529/278/390 535/277/391
f 491/276/392 535/277/391 529/278/390
f 535/277/391 491/276/392 477/275/393
f 527/308/394 494/306/395 530/309/396
f 488/307/397 530/309/396 494/306/395
f 525/323/398 511/322/399 519/321/400
f 508/320/399 519/321/400 511/322/399
f 506/286/401 471/284/402 517/287/403
f 467/285/404 517/287/403 471/284/402
f 512/286/405 526/287/406 482/284/407
f 475/285/408 482/284/407 526/287/406
f 510/306/409 514/307/410 485/308/411
f 479/309/412 485/308/411 514/307/410
f 624/308/411 623/309/413 462/306/414
f 460/307/415 462/306/414 623/309/413
f 462/306/414 460/307/415 465/310/416
f 464/311/417 465/310/416 460/307/415
f 465/310/416 464/311/417 495/312/418
f 489/313/419 495/312/418 464/311/417
f 513/291/420 484/290/420 507/289/420
f 473/288/420 507/289/420 484/290/420
f 503/298/421 492/297/422 498/300/423
f 487/299/424 498/300/423 492/297/422
f 499/317/425 500/318/425 502/315/426
f 504/316/427 502/315/426 500/318/425
f 502/315/426 504/316/427 497/314/428
f 496/319/429 505/298/430 493/297/431
f 501/300/432 493/297/431 505/298/430
f 493/297/431 501/300/432 486/299/433
f 483/281/434 478/283/435 472/280/434
f 469/282/436 472/280/434 478/283/435
f 461/301/437 468/302/436 463/303/438
f 474/304/435 463/303/438 468/302/436
f 463/303/438 474/304/435 490/305/439
f 532/292/440 524/293/441 520/294/442
f 518/295/443 520/294/442 524/293/441
f 520/294/442 518/295/443 470/296/444
f 571/336/352 579/337/351 581/338/445
f 524/293/441 532/292/440 476/362/446
f 492/297/422 503/298/421 625/319/447
f 461/301/437 480/359/448 468/302/436
f 516/278/385 544/279/449 521/277/386
f 536/361/450 570/356/451 572/357/452
f 542/360/453 572/357/452 577/358/454
s 0
f 591/271/455 593/272/455 596/274/455
s 1
f 619/363/456 601/364/456 618/365/9
f 600/366/9 618/365/9 601/364/456
f 616/367/457 603/368/457 615/363/458
f 602/364/458 615/363/458 603/368/457
s 0
f 614/369/219 613/370/219 605/371/219
f 604/372/219 605/371/219 613/370/219
f 612/369/218 607/371/218 611/370/218
f 606/372/218 611/370/218 607/371/218
s 1
f 609/373/9 608/374/9 610/375/459
f 598/376/459 610/375/459 608/374/9
f 610/375/459 598/376/459 617/377/460
f 599/378/460 617/377/460 598/376/459
usemtl material9
f 872/379/461 868/380/461 867/381/462
s 0
f 853/382/463 867/381/464 868/380/463
f 867/381/465 853/382/465 837/383/465
f 871/384/466 864/385/466 869/386/466
f 863/387/466 869/386/466 864/385/466
f 859/388/467 862/389/467 844/390/467
f 842/391/468 844/390/468 862/389/468
f 866/392/469 832/393/469 822/394/469
s 1
f 811/395/470 822/394/470 832/393/471
s 0
f 861/396/466 865/397/466 825/398/466
f 823/399/466 825/398/466 865/397/466
f 856/400/472 828/401/472 855/402/472
f 854/403/472 855/402/472 828/401/472
s 1
f 852/404/473 816/405/474 858/406/473
f 831/407/475 858/406/473 816/405/474
f 848/408/476 847/409/476 818/410/476
f 815/411/477 818/410/476 847/409/476
s 0
f 851/412/472 845/413/472 846/414/472
f 843/415/472 846/414/472 845/413/472
f 846/414/472 843/415/472 834/416/472
f 835/417/472 834/416/472 843/415/472
f 841/418/472 799/419/472 840/420/472
f 798/421/472 840/420/472 799/419/472
s 1
f 839/422/478 814/423/478 810/424/479
f 790/425/479 810/424/479 814/423/478
s 0
f 838/426/472 796/427/472 836/428/472
f 801/416/472 836/428/472 796/427/472
f 836/428/472 801/416/472 833/429/472
f 809/427/472 833/429/472 801/416/472
f 860/430/480 827/431/480 830/432/480
s 1
f 797/433/481 830/432/482 827/431/481
s 0
f 824/434/9 740/435/9 820/436/9
f 751/437/9 820/436/9 740/435/9
s 1
f 804/438/470 756/439/483 821/440/470
f 754/441/483 821/440/470 756/439/483
f 813/408/484 819/409/485 795/410/486
f 794/411/486 795/410/486 819/409/485
f 849/442/487 782/443/488 812/405/489
f 778/444/489 812/405/489 782/443/488
s 0
f 805/427/9 743/429/9 807/416/9
f 744/428/9 807/416/9 743/429/9
f 807/416/9 744/428/9 808/445/9
f 748/446/9 808/445/9 744/428/9
s 1
f 806/447/490 826/448/491 753/449/492
f 746/450/492 753/449/492 826/448/491
f 753/449/492 746/450/492 694/447/492
f 669/448/493 694/447/492 746/450/492
f 788/451/479 707/452/494 803/453/479
f 697/454/494 803/453/479 707/452/494
s 0
f 800/455/9 802/456/9 747/457/9
f 690/458/9 747/457/9 802/456/9
f 747/457/9 690/458/9 687/459/9
f 792/408/495 793/409/495 709/410/495
f 703/411/495 709/410/495 793/409/495
s 1
f 817/423/489 777/460/489 791/425/496
f 762/461/496 791/425/496 777/460/489
f 760/462/497 735/463/498 789/451/496
f 702/452/498 789/451/496 735/463/498
s 0
f 787/464/499 786/465/499 772/466/499
f 769/467/499 772/466/499 786/465/499
f 784/468/499 785/469/499 776/470/499
f 774/471/499 776/470/499 785/469/499
f 783/472/499 781/473/499 768/474/499
f 766/475/499 768/474/499 781/473/499
f 767/476/499 763/477/499 773/478/499
f 764/479/499 773/478/499 763/477/499
f 759/480/222 758/481/222 737/482/222
f 736/483/222 737/482/222 758/481/222
f 749/484/9 695/485/9 752/486/9
f 688/487/9 752/486/9 695/485/9
f 752/486/9 688/487/9 755/488/9
f 696/489/9 755/488/9 688/487/9
f 745/490/9 740/435/9 672/491/9
f 750/492/9 672/491/9 740/435/9
f 672/491/9 750/492/9 671/493/9
s 1
f 757/449/483 698/447/483 741/450/483
f 676/448/500 741/450/483 698/447/483
f 738/461/498 719/460/501 706/494/498
f 678/495/502 706/494/498 719/460/501
s 0
f 734/477/503 728/496/503 733/479/503
f 727/497/503 733/479/503 728/496/503
f 729/498/503 732/475/503 712/472/503
f 711/473/503 712/472/503 732/475/503
f 726/499/503 730/500/503 717/464/503
f 713/465/503 717/464/503 730/500/503
f 724/501/503 718/502/503 721/503/503
f 714/468/503 721/503/503 718/502/503
s 1
f 720/444/504 716/443/505 681/504/506
f 650/505/507 681/504/506 716/443/505
s 0
f 705/409/508 684/411/508 708/408/508
f 683/410/509 708/408/508 684/411/509
f 699/416/510 701/427/510 660/428/510
f 653/429/510 660/428/510 701/427/510
f 693/421/510 692/419/510 667/420/510
f 666/418/510 667/420/510 692/419/510
s 1
f 689/433/511 670/431/512 661/432/513
f 636/430/513 661/432/513 670/431/512
s 0
f 686/416/510 691/427/510 658/428/510
f 654/426/510 658/428/510 691/427/510
s 1
f 704/494/514 682/495/515 685/424/494
f 655/422/516 685/424/494 682/495/515
s 0
f 680/409/517 649/411/517 679/408/517
f 648/410/517 679/408/517 649/411/517
f 675/398/518 673/399/518 638/506/518
f 634/507/518 638/506/518 673/399/518
s 1
f 700/433/519 656/432/520 674/431/500
s 0
f 633/430/520 674/431/520 656/432/520
f 662/391/521 645/508/521 631/389/521
f 639/509/522 631/389/522 645/508/522
f 631/389/522 639/509/522 627/510/522
s 1
f 677/504/523 647/505/507 659/407/524
f 640/511/507 659/407/524 647/505/507
s 0
f 665/417/510 652/512/510 657/416/510
f 646/513/510 657/416/510 652/512/510
f 651/514/525 668/391/526 643/515/527
s 1
f 637/389/513 643/515/513 668/391/513
s 0
f 643/515/528 637/389/528 629/516/528
f 644/517/510 663/518/510 642/519/510
f 664/401/510 642/519/510 663/518/510
f 642/519/510 664/401/510 641/520/510
f 630/521/518 635/522/518 628/523/518
f 632/524/518 628/523/518 635/522/518
f 628/523/518 632/524/518 626/525/518
f 864/385/466 871/384/466 873/526/466
f 828/401/472 856/400/472 857/527/472
s 1
f 816/405/474 852/404/473 850/442/529
s 0
f 763/477/499 767/476/499 765/528/499
f 740/435/9 824/434/9 742/529/9
f 728/496/503 734/477/503 731/528/503
f 710/530/503 723/531/503 715/532/503
f 722/533/503 739/534/503 725/535/503
f 761/534/499 775/536/499 770/537/499
f 771/538/499 779/539/499 780/532/499
s 1
f 828/401/472 829/518/472 854/403/472
s 0
f 859/388/467 870/540/467 862/389/467
