# Source-author permission confirmed by the user on 2026-07-25.
# Normalized to metres and Z-up; source UVs/material assignments retained.
# Blender 4.2.0
# www.blender.org
mtllib rv_mod_cit_snowdrift.mtl
o rv_mod_cit_snowdrift
v 3.763911 -0.251780 0.000000
v 3.763911 -0.251780 0.000000
v 3.384622 -2.089762 0.000000
v 3.129455 -0.150729 0.243984
v 3.090138 1.170872 0.000000
v 2.569422 1.031764 0.243984
v 2.240380 -1.313144 0.075645
v 1.949334 0.120857 0.769160
v 1.691842 2.518417 0.000000
v 1.502260 1.091660 1.382285
v 1.407173 2.151829 0.243984
v 0.825307 1.744044 2.299893
v 0.825307 1.744044 2.299893
v 0.825307 1.744044 2.299893
v 0.825307 1.744044 2.299893
v 0.025172 2.349133 3.382285
v 0.025172 2.349133 3.382285
v 0.018334 1.652596 3.068984
v 0.018334 1.652596 3.068984
v 0.018334 1.652596 3.068984
v 0.018334 1.652596 3.068984
v 0.009947 0.798341 2.190500
v 0.000460 -0.167980 1.323409
v -0.015274 -1.663805 0.075645
v -0.019656 -2.551107 0.000000
v -0.786689 1.759870 2.299893
v -0.786689 1.759870 2.299893
v -0.786689 1.759870 2.299893
v -0.786689 1.759870 2.299893
v -1.360435 2.179001 0.243984
v -1.476320 1.120903 1.382285
v -1.637853 2.551107 0.000000
v -1.942368 0.159065 0.769160
v -2.268840 -1.268874 0.075645
v -2.544452 1.081970 0.243984
v -3.062336 1.231275 0.000000
v -3.062336 1.231275 0.000000
v -3.127594 -0.089299 0.243984
v -3.420782 -2.022948 0.000000
v -3.763911 -0.177873 0.000000
v -3.763911 -0.177873 0.000000
vn -0.3472 0.2655 0.8994
vn -0.2555 0.0414 0.9659
vn -0.5115 0.2709 0.8155
vn -0.3239 -0.0153 0.9460
vn -0.7154 0.0483 0.6970
vn -0.4065 -0.3292 0.8523
vn -0.0057 -0.5790 0.8153
vn -0.0064 -0.6543 0.7562
vn 0.7162 0.0342 0.6970
vn 0.4000 -0.3374 0.8521
vn 0.5167 0.2607 0.8155
vn 0.3232 -0.0220 0.9461
vn 0.3523 0.2587 0.8994
vn 0.2560 0.0364 0.9660
vn -0.3177 0.3428 0.8841
vn -0.6139 0.4983 0.6123
vn 0.8463 0.4232 0.3235
vn 0.6236 0.4861 0.6123
vn 0.3243 0.3365 0.8841
vn 0.2560 0.0362 0.9660
vn 0.0681 -0.0953 0.9931
vn 0.1299 -0.2489 0.9598
vn -0.0008 -0.0826 0.9966
vn -0.0038 -0.3902 0.9207
vn -0.0702 -0.0939 0.9931
vn -0.1350 -0.2459 0.9599
vn -0.2553 0.0412 0.9660
vn -0.8378 0.4398 0.3235
vn 0.5924 -0.4684 0.6555
vn 0.5925 -0.4685 0.6553
vn 0.6427 -0.4487 0.6210
vn -0.0058 -0.5789 0.8154
vn 0.5926 -0.4683 0.6554
vn 0.6744 -0.3084 0.6709
vn 0.6427 -0.4485 0.6211
vn -0.6803 -0.2951 0.6709
vn -0.6017 -0.4565 0.6554
vn -0.6514 -0.4358 0.6211
vn -0.6514 -0.4360 0.6210
vn -0.6016 -0.4568 0.6553
vn -0.0056 -0.5789 0.8154
vn -0.6015 -0.4567 0.6555
vt 0.023634 0.673406
vt -0.015261 0.392361
vt 0.164971 0.681171
vt 0.090831 0.448301
vt 0.330820 0.659255
vt 0.240152 0.507276
vt 0.500000 0.636830
vt 0.500000 0.451471
vt 0.668421 0.659255
vt 0.759090 0.507276
vt 0.846880 0.681171
vt 0.909169 0.448301
vt 0.976366 0.673406
vt 1.015261 0.392361
vt 0.105883 0.968260
vt -0.041562 0.673406
vt 0.280473 0.917793
vt 0.542791 0.840171
vt 0.719527 0.917793
vt 0.828920 0.968260
vt 1.011605 0.392361
vt 0.962508 0.016789
vt 0.830267 0.211206
vt 0.500000 -0.005032
vt 0.500000 0.190538
vt 0.037492 0.016789
vt 0.169733 0.211206
vt -0.011605 0.392361
vt 0.457209 0.840171
vt 0.579927 0.850214
vt 0.615928 0.739749
vt 0.500000 0.824574
vt 0.615928 0.890383
vt 0.500000 1.014377
vt 0.500000 0.844658
vt 0.384072 0.890383
vt 0.384072 0.739749
vt 0.420073 0.850214
s 1
usemtl material1
f 36/1/1 40/2/2 35/3/3
f 38/4/4 35/3/3 40/2/2
f 35/3/3 38/4/4 31/5/5
f 33/6/6 31/5/5 38/4/4
f 31/5/5 33/6/6 22/7/7
f 23/8/8 22/7/7 33/6/6
f 22/7/7 23/8/8 10/9/9
f 8/10/10 10/9/9 23/8/8
f 10/9/9 8/10/10 6/11/11
f 4/12/12 6/11/11 8/10/10
f 6/11/11 4/12/12 5/13/13
f 1/14/14 5/13/13 4/12/12
f 32/15/15 37/16/1 30/17/16
f 35/3/3 30/17/16 37/16/1
f 30/17/16 35/3/3 31/5/5
f 15/18/17 10/9/9 11/19/18
f 6/11/11 11/19/18 10/9/9
f 11/19/18 6/11/11 9/20/19
f 5/13/13 9/20/19 6/11/11
f 2/21/20 4/12/12 3/22/21
f 7/23/22 3/22/21 4/12/12
f 3/22/21 7/23/22 25/24/23
f 24/25/24 25/24/23 7/23/22
f 25/24/23 24/25/24 39/26/25
f 34/27/26 39/26/25 24/25/24
f 39/26/25 34/27/26 41/28/27
f 38/4/4 41/28/27 34/27/26
f 4/12/12 8/10/10 7/23/22
f 24/25/24 7/23/22 8/10/10
f 33/6/6 34/27/26 23/8/8
f 24/25/24 23/8/8 34/27/26
f 23/8/8 24/25/24 8/10/10
f 33/6/6 38/4/4 34/27/26
f 30/17/16 31/5/5 27/29/28
f 10/9/9 14/30/29 22/7/7
f 12/31/30 21/32/31 22/7/32
f 13/33/33 16/34/34 20/35/35
f 17/34/36 28/36/37 19/35/38
f 18/32/39 29/37/40 22/7/41
f 22/7/7 26/38/42 31/5/5
