# Source-author permission confirmed by the user on 2026-07-25.
# Normalized to metres and Z-up; source UVs/material assignments retained.
# Blender 4.2.0
# www.blender.org
mtllib rv_mod_tem_tunnel_straight.mtl
o rv_mod_tem_tunnel_straight
v -0.127651 -12.019192 0.037327
v -0.127651 -12.019192 0.037327
v -5.150233 -12.008956 3.010166
v 5.267784 -12.008070 2.930900
v -0.105096 -9.572830 0.423591
v -0.105096 -9.572830 0.423591
v -4.444044 -9.563988 3.385641
v 4.555956 -9.563222 3.317164
v 2.848665 -6.079312 3.391521
v -5.726261 -6.079312 3.391521
v -1.338461 -6.079312 0.662111
v -1.338461 -6.079312 0.662111
v -1.575859 -2.056594 0.673219
v 2.813523 -2.056594 3.391521
v -1.575859 -2.056594 0.673219
v -5.870127 -2.056594 3.391521
v -5.292164 1.966124 3.391521
v 2.469676 1.966124 3.391521
v -2.007051 1.966124 0.497947
v -2.007051 1.966124 0.497947
v -5.613923 5.988842 3.391521
v 2.070921 5.988842 3.391521
v -2.112698 5.988842 0.287019
v -2.112698 5.988842 0.287019
v -0.105096 9.427170 0.423591
v -0.105096 9.427170 0.423591
v -4.444044 9.436012 3.385641
v 4.555956 9.436778 3.317164
v -0.129831 11.980706 0.000000
v -0.129831 11.980706 0.000000
v -5.218475 11.991077 2.973882
v 5.336572 11.991975 2.893574
v -2.835118 -12.017696 9.300755
v 2.952669 -11.951124 9.259092
v -2.444044 -9.571538 8.820005
v 2.555956 -9.514028 8.784014
v -2.780248 -6.079312 10.244953
v 3.306457 -6.079312 9.564433
v 3.284423 -2.056594 9.774172
v -2.643550 -2.056594 10.297396
v -3.053467 1.966124 7.884497
v -0.307628 1.966124 8.142517
v -2.892009 5.988842 7.940011
v 0.421969 5.988842 8.259502
v -2.444044 9.428462 8.820005
v 2.555956 9.485972 8.784014
v -2.872910 11.982222 9.347212
v 2.991005 12.049669 9.305001
v -6.307791 -12.049669 4.665785
v 5.267784 -12.022961 7.657343
v -2.835118 -12.017696 9.300755
v -5.150233 -12.016561 7.657343
v 6.425342 -12.008982 4.506381
v -5.150233 -12.008956 3.010166
v 5.267784 -12.008070 2.930900
v 2.952669 -11.951124 9.259092
v -5.444044 -9.599160 4.815910
v 4.555956 -9.576086 7.400281
v -2.444044 -9.571538 8.820005
v -4.444044 -9.570558 7.400281
v 5.555956 -9.564010 4.678204
v -4.444044 -9.563988 3.385641
v 4.555956 -9.563222 3.317164
v 2.555956 -9.514028 8.784014
v -4.109142 -7.238166 7.789375
v -4.724319 -7.151532 5.448673
v 4.393103 -6.179769 5.241850
v 2.848665 -6.079312 3.391521
v 3.306457 -6.079312 9.564433
v 4.210562 -6.079312 7.702528
v -5.726261 -6.079312 3.391521
v -2.780248 -6.079312 10.244953
v 3.284423 -2.056594 9.774172
v -5.870127 -2.056594 3.391521
v -6.509355 -2.056594 5.909259
v 2.813523 -2.056594 3.391521
v 4.686270 -2.056594 5.637538
v -5.071019 -2.056594 8.164955
v -2.643550 -2.056594 10.297396
v 4.243204 -2.056594 7.795354
v -4.303935 1.966124 6.799170
v -5.292164 1.966124 3.391521
v 1.242773 1.966124 7.159619
v 2.469676 1.966124 3.391521
v -3.053467 1.966124 7.884497
v 2.070921 1.966124 5.348901
v -5.292164 1.966124 4.796715
v -0.307628 1.966124 8.142517
v 1.544557 5.988842 5.121581
v -2.892009 5.988842 7.940011
v 0.421969 5.988842 8.259502
v -4.384489 5.988842 7.108082
v 1.493329 5.988842 7.142644
v 2.070921 5.988842 3.391521
v -5.613923 5.988842 4.796715
v -5.613923 5.988842 3.391521
v -5.444044 9.400840 4.815910
v 4.555956 9.423914 7.400281
v -2.444044 9.428462 8.820005
v -4.444044 9.429442 7.400281
v 5.555956 9.435990 4.678204
v -4.444044 9.436012 3.385641
v 4.555956 9.436778 3.317164
v 2.555956 9.485972 8.784014
v -6.391258 11.949828 4.651278
v 5.336572 11.976889 7.682184
v -2.872910 11.982222 9.347212
v -5.218475 11.983372 7.682184
v 6.509355 11.991051 4.489777
v -5.218475 11.991077 2.973882
v 5.336572 11.991975 2.893574
v 2.991005 12.049669 9.305001
v -5.150233 -12.008956 3.010166
v 5.267784 -12.008070 2.930900
v -4.444044 -9.563988 3.385641
v 4.555956 -9.563222 3.317164
v 2.848665 -6.079312 3.391521
v -5.726261 -6.079312 3.391521
v -5.870127 -2.056594 3.391521
v 2.813523 -2.056594 3.391521
v 2.469676 1.966124 3.391521
v -5.292164 1.966124 3.391521
v -5.613923 5.988842 3.391521
v 2.070921 5.988842 3.391521
v -4.444044 9.436012 3.385641
v 4.555956 9.436778 3.317164
v -5.218475 11.991077 2.973882
v 5.336572 11.991975 2.893574
vn -0.4852 0.2124 0.8482
vn -0.4851 0.2124 0.8482
vn -0.4896 0.2925 0.8214
vn -0.5164 0.2958 0.8037
vn -0.5510 0.2226 0.8043
vn -0.5762 0.1455 0.8043
vn -0.5521 -0.0236 0.8335
vn -0.5357 -0.0237 0.8441
vn -0.5304 -0.0332 0.8471
vn -0.5318 -0.1725 0.8291
vn -0.5371 -0.0941 0.8382
vn -0.4984 -0.2348 0.8346
vn -0.5089 -0.2374 0.8274
vn -0.4881 -0.2029 0.8489
vn -0.4881 -0.2028 0.8489
vn 0.5205 0.2165 0.8260
vn 0.5469 -0.0644 0.8347
vn 0.5843 -0.1176 0.8030
vn 0.6226 -0.1706 0.7637
vn 0.6606 -0.0827 0.7462
vn 0.6289 0.0307 0.7769
vn 0.5653 0.0180 0.8247
vn 0.5530 0.0183 0.8330
vn 0.5351 0.0713 0.8418
vn 0.5350 0.0924 0.8398
vn 0.5407 -0.0211 0.8410
vn 0.5236 -0.2067 0.8265
vn 0.2884 0.2398 -0.9270
vn -0.2888 0.2375 -0.9274
vn 0.2924 0.1974 -0.9357
vn -0.2698 0.2792 -0.9215
vn 0.2759 0.0728 -0.9584
vn -0.4055 0.2469 -0.8801
vn 0.4012 -0.2434 -0.8831
vn -0.1723 -0.2097 -0.9625
vn 0.3534 -0.1944 -0.9151
vn -0.5044 -0.3818 -0.7745
vn 0.3653 0.1813 -0.9131
vn -0.5037 0.1412 -0.8522
vn 0.3339 0.0218 -0.9424
vn -0.3726 0.0041 -0.9280
vn 0.2914 -0.2291 -0.9287
vn -0.2935 -0.2287 -0.9282
vn -0.2892 0.2371 -0.9274
vn -0.7523 0.2952 -0.5889
vn -0.2701 0.2793 -0.9214
vn -0.6839 0.4794 -0.5500
vn -0.4056 0.2469 -0.8801
vn -0.8204 0.3523 -0.4503
vn -0.1725 -0.2096 -0.9624
vn -0.7574 -0.3153 -0.5719
vn -0.5044 -0.3818 -0.7744
vn -0.8844 -0.3553 -0.3026
vn -0.5038 0.1412 -0.8522
vn -0.9272 0.0073 -0.3745
vn -0.8340 -0.1530 -0.5302
vn -0.9607 -0.1400 0.2397
vn -0.9332 -0.3200 0.1635
vn -0.4188 -0.2350 0.8771
vn -0.4242 -0.2605 0.8673
vn 0.4360 0.2705 0.8583
vn 0.9290 0.3525 0.1128
vn 0.4050 0.0754 0.9112
vn 0.9924 0.1137 0.0469
vn 0.9791 -0.0063 -0.2032
vn 0.7966 0.1440 -0.5871
vn 0.7432 0.0671 -0.6657
vn 0.2927 0.1973 -0.9356
vn 0.2762 0.0728 -0.9583
vn 0.7522 0.2932 -0.5901
vn 0.2886 0.2398 -0.9269
vn -0.9257 0.3550 0.1304
vn -0.8330 0.5508 0.0522
vn -0.9289 0.3426 -0.1405
vn -0.9290 -0.3431 -0.1387
vn -0.9573 -0.2267 0.1793
vn -0.9448 0.3191 -0.0739
vn -0.9729 -0.2280 0.0377
vn -0.4884 -0.0953 0.8674
vn -0.3343 -0.0841 0.9387
vn 0.9847 -0.0523 0.1661
vn 0.9951 -0.0580 0.0799
vn 0.9759 -0.1109 -0.1880
vn 0.9978 0.0071 0.0663
vn 0.9599 -0.0262 -0.2791
vn 0.9887 0.1501 -0.0000
vn 0.9838 -0.1778 -0.0228
vn 0.5694 -0.1212 0.8131
vn 0.9352 -0.3364 0.1104
vn 0.4437 -0.2599 0.8576
vn -0.3729 0.0041 -0.9279
vn -0.7587 -0.2824 -0.5870
vn -0.2938 -0.2287 -0.9281
vn 0.7571 -0.2806 -0.5899
vn 0.8200 -0.1243 -0.5588
vn 0.9821 0.1280 -0.1379
vn 0.8581 0.1444 -0.4928
vn 0.7507 -0.1556 -0.6420
vn 0.3536 -0.1944 -0.9150
vn 0.4015 -0.2434 -0.8830
vn 0.3652 0.1813 -0.9131
vn 0.3342 0.0219 -0.9423
vn 0.2916 -0.2291 -0.9287
vn -0.9313 -0.3403 0.1299
vn 0.7714 -0.1988 -0.6045
vn -0.4498 0.3648 0.8152
vn -0.4218 0.2722 0.8649
vn 0.4360 0.2704 0.8583
vn 0.4048 0.0755 0.9113
vn 0.0026 0.0060 1.0000
vn -0.0000 0.0008 1.0000
vn -0.0000 -0.0000 1.0000
vn -0.4882 -0.0953 0.8675
vn -0.3342 -0.0841 0.9387
vn 0.0020 -0.0048 1.0000
vn -0.4187 -0.2350 0.8772
vn 0.5694 -0.1213 0.8131
vn -0.4241 -0.2605 0.8673
vn 0.4437 -0.2599 0.8577
vt 3.272578 0.003266
vt 3.269973 0.999735
vt 2.681149 0.003266
vt 2.678928 0.999735
vt 1.883806 0.003266
vt 1.884111 0.999735
vt 0.953667 0.003266
vt 0.953667 0.999735
vt 0.023529 0.003266
vt 0.023276 0.999735
vt -0.906609 0.003266
vt -0.906846 0.999735
vt -1.712056 0.003266
vt -1.714278 0.999735
vt -2.276797 0.003266
vt -2.279369 0.999735
vt 3.606377 0.000479
vt 3.608781 0.994501
vt 2.983493 0.000479
vt 2.985543 0.994501
vt 2.145860 0.000479
vt 2.145538 0.994501
vt 1.165294 0.000479
vt 1.165294 0.994501
vt 0.184783 0.000479
vt 0.185049 0.994501
vt -0.795444 0.000479
vt -0.795194 0.994501
vt -1.646371 0.000479
vt -1.644320 0.994501
vt -2.241904 0.000479
vt -2.239530 0.994501
vt 3.442252 -0.001143
vt 3.442252 0.999831
vt 2.814242 -0.001143
vt 2.814242 0.999831
vt 1.954268 -0.001143
vt 1.954268 0.999831
vt 0.971158 -0.001143
vt 0.971158 0.999831
vt 0.000116 -0.001143
vt 0.000116 0.999831
vt -0.984614 -0.001143
vt -0.984614 0.999831
vt -1.832621 -0.001143
vt -1.832621 0.999831
vt -2.427752 -0.001143
vt -2.427752 0.999831
vt -1.163182 0.997887
vt -1.164339 0.630032
vt -0.795441 0.997887
vt -0.795441 0.630032
vt -0.203155 0.997887
vt -0.203155 0.630032
vt 0.381105 0.997887
vt 0.381105 0.630032
vt 1.040469 0.997887
vt 1.040469 0.630032
vt 1.623963 0.997887
vt 1.623963 0.630032
vt 2.129944 0.630032
vt 1.623963 0.212777
vt 2.129944 0.212777
vt 2.129944 0.000846
vt 2.485489 0.000846
vt 2.448824 0.004890
vt 2.448824 0.241060
vt 2.037199 0.004890
vt 2.037199 0.241060
vt 1.480587 0.241060
vt 2.037199 0.669838
vt 1.480587 0.669838
vt 2.037199 1.001031
vt 1.480587 1.001031
vt 2.448824 0.669838
vt 2.448824 1.001031
vt -1.163957 0.212777
vt -0.795441 0.212777
vt -0.203155 0.212777
vt 0.381105 0.212777
vt 1.040469 0.212777
vt -0.203155 0.000846
vt 0.381105 0.000846
vt 1.040469 0.000846
vt 1.623963 0.000846
vt 1.480587 0.004890
vt 0.829920 0.004890
vt 0.829920 0.241060
vt 0.176540 0.004890
vt 0.176540 0.241060
vt -0.598233 0.004890
vt -1.039573 0.241060
vt -1.039573 0.004890
vt -1.437316 0.241060
vt -1.437316 0.004890
vt 2.129944 0.997887
vt 2.485489 0.630032
vt 2.485489 0.997887
vt -1.437316 0.669838
vt -1.039573 0.669838
vt -0.598233 0.241060
vt -0.598233 0.669838
vt 0.176540 0.669838
vt 0.176540 1.001031
vt 0.829920 1.001031
vt -0.598233 1.001031
vt -1.039573 1.001031
vt -1.437316 1.001031
vt 2.485489 0.212777
vt 0.829920 0.669838
vt -0.795441 0.000846
vt -1.166517 0.000846
vt 1.847537 -0.002590
vt 1.847374 1.000125
vt 1.549349 -0.002590
vt 1.549210 1.000125
vt 1.147342 -0.002590
vt 1.147342 1.000125
vt 0.678382 -0.002590
vt 0.678382 1.000125
vt 0.209422 -0.002590
vt 0.209422 1.000125
vt -0.259537 -0.002590
vt -0.259537 1.000125
vt -0.665630 -0.002590
vt -0.665769 1.000125
vt -0.950363 -0.002590
vt -0.950524 1.000125
s 1
usemtl material1
f 32/1/1 29/2/2 28/3/3
f 25/4/4 28/3/3 29/2/2
f 28/3/3 25/4/4 22/5/5
f 24/6/6 22/5/5 25/4/4
f 22/5/5 24/6/6 18/7/7
f 19/8/7 18/7/7 24/6/6
f 18/7/7 19/8/7 14/9/8
f 13/10/9 14/9/8 19/8/7
f 14/9/8 13/10/9 9/11/10
f 12/12/11 9/11/10 13/10/9
f 9/11/10 12/12/11 8/13/12
f 5/14/13 8/13/12 12/12/11
f 8/13/12 5/14/13 4/15/14
f 2/16/15 4/15/14 5/14/13
f 30/17/16 31/18/16 26/19/17
f 27/20/18 26/19/17 31/18/16
f 26/19/17 27/20/18 23/21/19
f 21/22/20 23/21/19 27/20/18
f 23/21/19 21/22/20 20/23/21
f 17/24/21 20/23/21 21/22/20
f 20/23/21 17/24/21 15/25/22
f 16/26/23 15/25/22 17/24/21
f 15/25/22 16/26/23 11/27/24
f 10/28/25 11/27/24 16/26/23
f 11/27/24 10/28/25 6/29/26
f 7/30/26 6/29/26 10/28/25
f 6/29/26 7/30/26 1/31/27
f 3/32/27 1/31/27 7/30/26
usemtl material2
f 47/33/28 48/34/29 45/35/30
f 46/36/31 45/35/30 48/34/29
f 45/35/30 46/36/31 43/37/32
f 44/38/33 43/37/32 46/36/31
f 43/37/32 44/38/33 41/39/34
f 42/40/35 41/39/34 44/38/33
f 41/39/34 42/40/35 40/41/36
f 39/42/37 40/41/36 42/40/35
f 40/41/36 39/42/37 37/43/38
f 38/44/39 37/43/38 39/42/37
f 37/43/38 38/44/39 35/45/40
f 36/46/41 35/45/40 38/44/39
f 35/45/40 36/46/41 33/47/42
f 34/48/43 33/47/42 36/46/41
usemtl material3
f 112/49/44 106/50/45 104/51/46
f 98/52/47 104/51/46 106/50/45
f 104/51/46 98/52/47 91/53/48
f 93/54/49 91/53/48 98/52/47
f 91/53/48 93/54/49 88/55/50
f 83/56/51 88/55/50 93/54/49
f 88/55/50 83/56/51 73/57/52
f 80/58/53 73/57/52 83/56/51
f 73/57/52 80/58/53 69/59/54
f 70/60/55 69/59/54 80/58/53
f 69/59/54 70/60/55 58/61/56
f 67/62/57 58/61/56 70/60/55
f 58/61/56 67/62/57 61/63/58
f 63/64/59 61/63/58 67/62/57
f 61/63/58 63/64/59 55/65/60
f 110/66/61 105/67/62 102/68/63
f 97/69/64 102/68/63 105/67/62
f 102/68/63 97/69/64 95/70/65
f 100/71/66 95/70/65 97/69/64
f 95/70/65 100/71/66 92/72/67
f 99/73/68 92/72/67 100/71/66
f 92/72/67 99/73/68 90/74/69
f 108/75/70 107/76/71 100/71/66
f 99/73/68 100/71/66 107/76/71
f 106/50/45 109/77/72 98/52/47
f 101/78/73 98/52/47 109/77/72
f 98/52/47 101/78/73 93/54/49
f 89/79/74 93/54/49 101/78/73
f 93/54/49 89/79/74 83/56/51
f 86/80/75 83/56/51 89/79/74
f 83/56/51 86/80/75 80/58/53
f 77/81/76 80/58/53 86/80/75
f 80/58/53 77/81/76 70/60/55
f 67/62/57 70/60/55 77/81/76
f 105/67/62 108/75/70 97/69/64
f 100/71/66 97/69/64 108/75/70
f 89/79/74 94/82/77 86/80/75
f 84/83/78 86/80/75 94/82/77
f 86/80/75 84/83/78 77/81/76
f 76/84/79 77/81/76 84/83/78
f 77/81/76 76/84/79 68/85/80
f 96/86/81 95/70/65 82/87/82
f 87/88/83 82/87/82 95/70/65
f 82/87/82 87/88/83 74/89/84
f 75/90/85 74/89/84 87/88/83
f 74/89/84 75/90/85 71/91/86
f 57/92/87 71/91/86 75/90/85
f 71/91/86 57/92/87 62/93/88
f 49/94/89 62/93/88 57/92/87
f 62/93/88 49/94/89 54/95/90
f 69/59/54 58/61/56 64/96/91
f 50/97/92 64/96/91 58/61/56
f 64/96/91 50/97/92 56/98/93
f 52/99/94 57/92/87 60/100/95
f 66/101/96 60/100/95 57/92/87
f 60/100/95 66/101/96 65/102/97
f 78/103/98 65/102/97 66/101/96
f 65/102/97 78/103/98 79/104/99
f 85/105/100 79/104/99 78/103/98
f 65/102/97 72/106/101 60/100/95
f 59/107/102 60/100/95 72/106/101
f 60/100/95 59/107/102 51/108/103
f 50/97/92 58/61/56 53/109/104
f 61/63/58 53/109/104 58/61/56
f 53/109/104 61/63/58 55/65/60
f 66/101/96 75/90/85 78/103/98
f 81/110/105 78/103/98 75/90/85
f 78/103/98 81/110/105 85/105/100
f 90/74/69 85/105/100 81/110/105
f 63/64/59 67/62/57 68/85/80
f 77/81/76 68/85/80 67/62/57
f 75/90/85 87/88/83 81/110/105
f 92/72/67 81/110/105 87/88/83
f 81/110/105 92/72/67 90/74/69
f 101/78/73 103/111/106 89/79/74
f 94/82/77 89/79/74 103/111/106
f 101/78/73 109/77/72 103/111/106
f 111/112/107 103/111/106 109/77/72
f 95/70/65 96/86/81 102/68/63
f 87/88/83 95/70/65 92/72/67
f 65/102/97 79/104/99 72/106/101
f 57/92/87 75/90/85 66/101/96
f 52/99/94 60/100/95 51/108/103
f 49/94/89 57/92/87 52/99/94
usemtl material4
f 128/113/107 127/114/108 126/115/106
f 125/116/109 126/115/106 127/114/108
f 126/115/106 125/116/109 124/117/110
f 123/118/111 124/117/110 125/116/109
f 124/117/110 123/118/111 121/119/112
f 122/120/112 121/119/112 123/118/111
f 121/119/112 122/120/112 120/121/113
f 119/122/112 120/121/113 122/120/112
f 120/121/113 119/122/112 117/123/114
f 118/124/115 117/123/114 119/122/112
f 117/123/114 118/124/115 116/125/116
f 115/126/117 116/125/116 118/124/115
f 116/125/116 115/126/117 114/127/118
f 113/128/119 114/127/118 115/126/117
