# Source-author permission confirmed by the user on 2026-07-25.
# Normalized to metres and Z-up; source UVs/material assignments retained.
# Blender 4.2.0
# www.blender.org
mtllib rv_mod_cit_interior_corner.mtl
o rv_mod_cit_interior_corner
v -2.000000 3.000000 0.000000
v -2.000000 2.000000 6.095014
v -4.000000 3.000000 0.000000
v -4.000000 2.000000 6.095014
v -4.000000 -3.000000 0.000000
v -4.000000 -2.000000 6.095014
v -3.000000 -3.000000 0.000000
v -2.000000 -2.000000 6.095014
v -2.000000 3.000000 0.000000
v -2.000000 4.000000 0.000000
v -2.000000 2.000000 6.095014
v -2.000000 4.000000 8.000000
v -2.000000 0.707107 7.358263
v -2.000000 -2.000000 6.095014
v -2.003056 -2.000000 8.000000
v -0.707107 -2.000000 7.358263
v -0.000000 -2.000000 7.358264
v -2.000000 0.000000 8.000000
v -2.000000 0.000000 7.358264
v -0.000000 -2.000000 8.000000
v 3.000000 -2.000000 0.000000
v 2.000000 -2.000000 6.095014
v 4.000000 -2.000000 0.000000
v 4.000000 -2.000000 8.000000
v 3.000000 -4.000000 0.000000
v 2.000000 -4.000000 6.095014
v 3.000000 -2.000000 0.000000
v 2.000000 -2.000000 6.095014
v -3.000000 -3.000000 0.000000
v -2.000000 -2.000000 6.095014
v -3.000000 -4.000000 0.000000
v -2.000000 -4.000000 6.095014
v -2.000000 -2.000000 6.095014
v -2.002438 -2.000000 7.610704
v -2.003056 -2.000000 8.000000
v 0.707107 -2.000000 7.358263
v 2.000000 -2.000000 6.095014
v 2.000000 -4.000000 6.095014
v 0.707107 -2.000000 7.358263
v -2.000000 -2.000000 6.095014
v -0.707107 -4.000000 7.358263
v -2.000000 -4.000000 6.095014
v -0.707107 -2.000000 7.358263
v 0.000000 -4.000000 7.358263
v -2.000000 -2.000000 6.095014
v -2.000000 -0.707107 7.358263
v -2.003056 -2.000000 8.000000
v 0.707107 -4.000000 7.358263
v -0.000000 -2.000000 7.358264
v -2.000000 -2.000000 6.095014
v -4.000000 -2.000000 6.095014
v -2.000000 -0.707107 7.358263
v -4.000000 -0.707107 7.358263
v -2.000000 0.000000 7.358264
v -2.000000 2.000000 6.095014
v -2.000000 0.707107 7.358263
v -4.000000 0.707107 7.358263
v -4.000000 2.000000 6.095014
v -4.000000 0.000000 7.358263
v -0.000000 -2.000000 7.358264
v -0.000000 -2.000000 8.000000
v -2.000000 0.000000 7.358264
v -2.000000 0.000000 8.000000
v -4.000000 4.000000 0.000000
v -4.000000 3.000000 0.000000
v -4.000000 2.000000 6.095014
v -4.000000 4.000000 8.000000
v -3.000000 -3.000000 0.000000
v -3.000000 -4.000000 0.000000
v -4.000000 -3.000000 0.000000
v -4.000000 -4.000000 0.000000
v -4.000000 -4.000000 0.000000
v -3.000000 -4.000000 0.000000
v -2.000000 -4.000000 6.095014
v -4.000000 -4.000000 8.000000
v 4.000000 -4.000000 0.000000
v 2.000000 -4.000000 6.095014
v 3.000000 -4.000000 0.000000
v 4.000000 -4.000000 8.000000
v 0.707107 -4.000000 7.358263
v -4.000000 -4.000000 0.000000
v -4.000000 -2.000000 6.095014
v -4.000000 -3.000000 0.000000
v -4.000000 -4.000000 8.000000
v -4.000000 -0.707107 7.358263
v -4.000000 0.707107 7.358263
v -0.707107 -4.000000 7.358263
v -4.000000 0.000000 7.358263
v -4.000000 0.000000 8.000000
v 0.000000 -4.000000 7.358263
v 0.000000 -4.000000 8.000000
v 0.000000 -4.000000 7.358263
v -4.000000 -4.000000 8.000000
vn -0.0000 -0.9868 -0.1619
vn -0.0000 0.9868 -0.1619
vn 1.0000 -0.0000 -0.0000
vn -0.0000 1.0000 -0.0000
vn -0.9868 -0.0000 -0.1619
vn 0.9868 -0.0000 -0.1619
vn -0.6989 -0.0000 -0.7153
vn -0.3773 -0.0000 -0.9261
vn 0.6989 -0.0000 -0.7153
vn 0.3773 -0.0000 -0.9261
vn -0.0000 -0.0000 -1.0000
vn 1.0000 -0.0016 0.0016
vn 1.0000 -0.0013 0.0013
vn 1.0000 -0.0001 0.0002
vn -0.0000 0.6989 -0.7153
vn -0.0000 0.3773 -0.9261
vn -0.0000 -0.6989 -0.7153
vn -0.0000 -0.3773 -0.9261
vn -1.0000 -0.0000 -0.0000
vn -0.0000 -1.0000 -0.0000
vt 0.351606 -1.031550
vt 0.351606 -0.118314
vt 0.490273 -1.031550
vt 0.490273 -0.118314
vt 0.339206 -1.041968
vt 0.339206 -0.041968
vt 0.501110 -1.041968
vt 0.663013 -0.041968
vt 0.123045 -1.000000
vt 0.000837 -1.000000
vt 0.245254 -0.238123
vt 0.000837 0.000000
vt 0.403257 -0.080217
vt 0.244853 0.000000
vt 0.489615 -0.080217
vt 0.489615 0.000000
vt 0.123390 -1.000000
vt 0.245599 -0.238123
vt 0.001181 -1.000000
vt 0.001181 0.000000
vt 0.490729 -1.031550
vt 0.490729 -0.118314
vt 0.352063 -1.031550
vt 0.352063 -0.118314
vt 0.501566 -1.041968
vt 0.663470 -0.041968
vt 0.339662 -1.041968
vt 0.339662 -0.041968
vt 0.245710 -0.238123
vt 0.245412 -0.048662
vt 0.245309 0.000000
vt 0.403601 -0.080217
vt 0.492468 -0.119075
vt 0.357086 -0.119075
vt 0.492468 -0.308248
vt 0.492468 -0.704345
vt 0.357086 -0.515172
vt 0.357086 -0.704345
vt 0.492468 -0.515172
vt 0.357086 -0.411710
vt 0.245739 0.000000
vt 0.490072 0.000000
vt 0.357086 -0.308248
vt 0.492468 -0.411710
vt 0.490072 -0.080217
vt 0.000000 -1.000000
vt 0.125000 -1.000000
vt 0.250000 -0.238123
vt 0.000000 0.000000
vt 0.875000 -1.000000
vt 1.000000 -1.000000
vt 0.750000 -0.238123
vt 1.000000 0.000000
vt 0.588388 -0.080217
vt 0.411612 -0.080217
vt 0.500000 -0.080217
vt 0.500000 0.000000
s 0
usemtl material1
f 1/1/1 2/2/1 3/3/1
f 4/4/1 3/3/1 2/2/1
f 5/5/2 6/6/2 7/7/2
f 8/8/2 7/7/2 6/6/2
s 1
f 9/9/3 10/10/3 11/11/3
s 0
f 10/10/3 12/12/3 11/11/3
f 13/13/3 11/11/3 12/12/3
f 14/11/4 15/14/4 16/13/4
f 17/15/4 16/13/4 15/14/4
f 13/13/3 12/12/3 18/16/3
f 13/13/3 18/16/3 19/15/3
f 17/15/4 15/14/4 20/16/4
f 21/17/4 22/18/4 23/19/4
f 24/20/4 23/19/4 22/18/4
f 25/21/5 26/22/5 27/23/5
f 28/24/5 27/23/5 26/22/5
f 29/25/6 30/26/6 31/27/6
f 32/28/6 31/27/6 30/26/6
f 33/29/4 34/30/4 35/31/4
f 22/18/4 36/32/4 24/20/4
s 1
f 37/33/7 38/34/7 39/35/8
f 40/36/9 41/37/10 42/38/9
f 40/36/9 43/39/10 41/37/10
f 44/40/11 41/37/10 43/39/10
f 45/18/12 46/32/13 47/41/12
f 63/42/14 47/41/12 46/32/13
f 38/34/7 48/43/8 39/35/8
f 49/44/11 39/35/8 48/43/8
f 50/33/15 51/34/15 52/35/16
f 51/34/15 53/43/16 52/35/16
f 54/44/11 52/35/16 53/43/16
f 55/36/17 56/39/18 57/37/18
f 55/36/17 57/37/18 58/38/17
f 56/39/18 59/40/11 57/37/18
f 56/39/18 54/44/11 59/40/11
f 53/43/16 59/40/11 54/44/11
f 49/44/11 44/40/11 43/39/10
f 49/44/11 48/43/8 44/40/11
s 0
f 36/32/4 60/45/4 61/42/4
f 36/32/4 61/42/4 24/20/4
s 1
f 62/45/3 63/42/14 46/32/13
usemtl material2
f 64/46/19 65/47/19 66/48/19
s 0
f 64/46/19 66/48/19 67/49/19
f 68/50/11 69/51/11 70/50/11
f 71/51/11 70/50/11 69/51/11
f 72/46/20 73/47/20 74/48/20
f 72/46/20 74/48/20 75/49/20
f 76/51/20 77/52/20 78/50/20
f 76/51/20 79/53/20 77/52/20
f 80/54/20 77/52/20 79/53/20
s 1
f 81/51/19 82/52/19 83/50/19
s 0
f 81/51/19 84/53/19 82/52/19
f 85/54/19 82/52/19 84/53/19
f 66/48/19 86/55/19 67/49/19
f 74/48/20 87/55/20 75/49/20
f 86/55/19 88/56/19 89/57/19
f 86/55/19 89/57/19 67/49/19
f 87/55/20 90/56/20 75/49/20
f 80/54/20 79/53/20 91/57/20
f 80/54/20 91/57/20 92/56/20
f 93/49/20 92/56/20 91/57/20
f 88/56/19 85/54/19 84/53/19
f 88/56/19 84/53/19 89/57/19
