# Source-author permission confirmed by the user on 2026-07-25.
# Normalized to metres and Z-up; source UVs/material assignments retained.
# Blender 4.2.0
# www.blender.org
mtllib rv_mod_tem_tunnel_corner.mtl
o rv_mod_tem_tunnel_corner
v 10.517840 10.720165 2.352330
v 9.727345 8.167646 2.842276
v 9.474725 6.430031 2.978366
v 9.222102 4.692418 3.114457
v 8.594861 2.131034 3.120888
v 7.967618 -0.430348 3.127320
v 7.899394 10.720165 2.332407
v 7.491479 8.167837 2.825157
v 7.364245 6.430128 2.980381
v 7.237012 4.692418 3.135604
v 6.752940 2.475957 3.140428
v 6.268867 0.259498 3.145252
v 5.801747 -3.024728 3.132962
v 5.280948 10.720165 2.312485
v 5.255612 8.168028 2.808038
v 5.253766 6.430223 2.982395
v 5.251922 4.692418 3.156752
v 4.911019 2.820880 3.159968
v 4.570117 0.949344 3.163184
v 4.438133 -2.103643 3.132374
v 3.635878 -5.619108 3.138603
v 3.266831 4.692418 3.177900
v 3.143288 6.430318 2.984409
v 3.074518 -1.182558 3.131786
v 3.069098 3.165803 3.179508
v 3.019745 8.168221 2.790918
v 2.871366 1.639190 3.181116
v 2.662500 10.720165 2.292562
v 2.607399 -4.466784 3.119496
v 1.578920 -3.314460 3.100389
v 1.576524 -0.110911 3.128702
v 1.281741 4.692418 3.199047
v 1.227178 3.510726 3.199047
v 1.172615 2.329036 3.199047
v 1.171453 -7.133909 2.956201
v 1.032809 6.430415 2.986423
v 0.783877 8.168411 2.773799
v 0.361003 -5.637169 2.946648
v 0.281682 -1.861012 3.076288
v 0.078529 0.960735 3.125618
v 0.044053 10.720165 2.272640
v -0.449447 -4.140429 2.937094
v -1.015557 -0.407565 3.052188
v -1.292972 -8.648710 2.773799
v -1.394277 -2.493128 2.925044
v -1.885392 -6.807555 2.773799
v -2.339107 -0.845826 2.912994
v -2.477814 -4.966399 2.773799
v -3.070235 -3.125243 2.773799
v -3.662657 -1.284087 2.773799
v -4.978670 -8.964557 2.697552
v -5.274785 -6.924870 2.706111
v -5.570900 -4.885181 2.714671
v -5.867015 -2.845494 2.723230
v -6.163130 -0.805806 2.731790
v -8.679832 -0.328993 2.816468
v -8.680023 -2.567212 2.799349
v -8.680214 -4.805431 2.782230
v -8.680406 -7.043651 2.765111
v -8.680597 -9.281870 2.747992
v -11.216123 0.454129 2.352330
v -11.216123 -2.164318 2.332407
v -11.216123 -4.782765 2.312485
v -11.216123 -7.401212 2.292562
v -11.216123 -10.019659 2.272640
v 11.716123 11.220165 4.157732
v 11.409633 11.220165 3.104146
v 11.409633 11.220165 5.565039
v 11.324243 10.460201 4.210341
v 11.036477 10.461403 3.221123
v 11.036477 10.460991 5.531670
v 10.643407 11.220165 6.970730
v 10.533877 8.140446 4.416808
v 10.317065 10.462317 6.851481
v 10.284976 11.135965 2.077113
v 10.283877 8.146774 5.564731
v 10.283877 8.150061 3.557410
v 10.075294 6.416431 4.361551
v 9.980531 10.389236 2.248864
v 9.884526 6.421238 3.602068
v 9.884526 6.419596 5.392598
v 9.658877 8.157377 6.711335
v 9.570693 11.220165 8.019468
v 9.568292 4.494704 4.320310
v 9.431548 4.487649 3.636365
v 9.386456 4.513520 5.263499
v 9.366509 8.162144 2.669461
v 9.338368 6.424898 6.493588
v 9.309886 10.462717 7.836148
v 9.260201 6.571898 2.888552
v 8.964450 2.177549 4.307098
v 8.885257 4.772526 2.973091
v 8.882663 4.540656 6.319254
v 8.871312 2.144524 3.649941
v 8.783877 8.160585 7.566778
v 8.690953 2.249647 5.220466
v 8.551618 2.158158 3.241249
v 8.462966 6.426502 7.462901
v 8.156564 2.352889 6.231744
v 8.136964 10.883362 0.749469
v 8.070579 -0.251229 3.610306
v 8.053523 4.572671 7.340897
v 7.963750 10.168344 0.978417
v 7.889312 -0.842016 4.274165
v 7.884997 11.220165 8.666650
v 7.744334 4.457688 2.715251
v 7.741134 -0.022317 5.284138
v 7.727178 10.463570 8.443789
v 7.670592 -0.384030 3.234196
v 7.614404 8.163225 1.435883
v 7.467019 2.479349 7.182636
v 7.408877 8.167406 8.094676
v 7.131577 0.027361 6.175966
v 7.093610 6.429912 8.122979
v 6.916057 -0.032481 3.000058
v 6.763614 4.612153 8.075511
v 6.711652 4.484408 2.463142
v 6.698655 0.341379 6.965202
v 6.404157 2.633862 7.876500
v 6.345275 6.136745 1.612530
v 6.240993 -2.942075 3.208909
v 6.010100 -2.606121 4.652868
v 5.961724 0.280769 2.707996
v 5.807134 -2.257704 5.345349
v 5.795428 -0.847437 6.659101
v 5.787242 0.138882 7.577919
v 5.702062 -2.290945 3.001091
v 5.655499 7.872375 0.709430
v 5.655499 7.872375 0.709430
v 5.427917 10.714960 0.000000
v 5.427917 10.714960 0.000000
v 5.420209 10.020729 0.258793
v 5.420209 10.020729 0.258793
v 5.283877 8.188850 8.258644
v 5.281175 10.466251 8.632527
v 5.279834 11.220165 8.867668
v 5.065593 6.440634 8.296264
v 5.030894 -1.572353 2.737288
v 4.877503 4.661683 8.270180
v 4.868236 4.413139 1.694055
v 4.868236 4.413139 1.694055
v 4.749807 2.821261 8.116691
v 4.715587 0.821591 1.560034
v 4.715587 0.821591 1.560034
v 4.611674 6.233922 1.403451
v 4.611674 6.233922 1.403451
v 4.352029 -3.173279 6.376563
v 4.340686 0.899551 7.929461
v 4.267382 -2.086158 7.556028
v 4.076397 4.761574 2.361689
v 4.062263 1.482284 2.375809
v 3.906656 -0.698268 2.581995
v 3.906656 -0.698268 2.581995
v 3.549145 -0.129480 2.670345
v 3.454138 6.433602 1.999543
v 3.308319 -1.123263 7.802152
v 3.158877 8.202660 8.072181
v 3.158449 2.912920 8.040423
v 3.137217 6.593129 8.129576
v 3.100302 -0.716197 2.729640
v 2.903730 8.297310 1.503171
v 2.887763 1.337090 7.907057
v 2.863507 1.397671 2.312067
v 2.835171 10.467978 8.417897
v 2.783978 10.168392 0.939006
v 2.719203 4.381385 2.893224
v 2.695643 4.745187 8.047140
v 2.674670 11.220165 8.639071
v 2.620147 10.883362 0.707494
v 2.394025 1.919942 2.845094
v 2.284559 2.780210 7.784912
v 2.044362 -0.309453 7.803846
v 1.943973 7.434743 7.358501
v 1.887665 1.689708 7.613239
v 1.783877 8.186577 7.548782
v 1.699260 0.135579 2.742338
v 1.684399 -7.179140 3.136431
v 1.652577 -0.839518 2.007466
v 1.652577 -0.839518 2.007466
v 1.650838 -6.192034 2.865729
v 1.443567 -7.425280 3.642693
v 1.422173 2.081349 3.073456
v 1.399338 -7.358681 4.361360
v 1.394779 4.814798 6.874976
v 1.270617 4.778789 3.311890
v 1.259940 -7.178390 5.154364
v 1.252462 10.465967 7.815434
v 1.138660 2.195443 6.930564
v 1.063406 -6.821108 5.986078
v 1.045031 0.330409 7.524962
v 1.033034 4.828228 5.825603
v 0.988976 11.220165 7.997406
v 0.972886 2.228047 3.296025
v 0.966670 4.831444 3.865265
v 0.908877 8.164814 6.689623
v 0.863663 4.830616 4.715036
v 0.847768 -6.223536 6.820879
v 0.752481 2.359378 5.592012
v 0.746502 -4.139399 2.553397
v 0.746502 -4.139399 2.553397
v 0.658877 8.168312 2.943929
v 0.643902 2.266073 3.749263
v 0.628163 10.389858 2.169935
v 0.566036 0.696300 2.992167
v 0.536631 2.281245 4.494237
v 0.488890 -5.295442 7.503781
v 0.441648 -3.076707 1.702866
v 0.441648 -3.076707 1.702866
v 0.324054 11.135965 1.993048
v 0.283877 8.168016 3.454319
v 0.283877 8.161585 5.495877
v 0.245284 10.463247 6.826489
v 0.240072 0.615757 6.991358
v 0.125047 0.878316 3.245288
v 0.033877 8.166212 4.304968
v -0.083739 11.220165 6.944112
v -0.137366 -3.946595 7.879800
v -0.181412 0.707243 5.748485
v -0.222906 0.895495 3.737750
v -0.300766 0.968246 4.591899
v -0.474129 10.463646 3.102458
v -0.474129 10.462843 5.452415
v -0.752926 -2.719951 2.521149
v -0.761894 10.463421 4.081607
v -0.849964 11.220165 5.480628
v -0.849964 11.220165 2.977759
v -0.893218 -2.584676 7.934181
v -1.077462 -0.599135 3.063074
v -1.156454 11.220165 4.020621
v -1.181395 -6.289920 2.534090
v -1.400265 -8.204119 2.824417
v -1.507076 -8.580891 3.559684
v -1.522592 -8.625225 4.338318
v -1.617186 -8.444809 5.196151
v -1.640882 -1.617363 7.652172
v -1.669402 -2.327243 2.627577
v -1.758239 -7.993668 6.080627
v -1.913131 -7.225828 6.939195
v -1.913289 -0.614339 4.697352
v -2.118845 -0.809501 3.765038
v -2.145593 -6.086146 7.636333
v -2.207946 -0.907965 5.923598
v -2.227591 -4.440534 0.857173
v -2.227591 -4.440534 0.857173
v -2.227591 -4.440534 0.857173
v -2.227591 -4.440534 0.857173
v -2.261942 -1.055008 6.994926
v -2.275704 -1.180414 2.979950
v -2.305759 -2.152179 2.660119
v -2.315894 -6.509772 2.519258
v -2.424917 -7.476881 2.630955
v -2.519358 -4.519479 8.036528
v -2.994374 -2.964272 8.090785
v -3.243694 -5.549987 2.055288
v -3.357965 -7.737550 2.654284
v -3.407155 -2.939268 2.644374
v -3.530595 -1.858968 7.750116
v -3.966348 -1.522476 2.876791
v -3.989393 -1.205028 7.033140
v -4.008540 -8.108093 2.690180
v -4.232144 -1.003916 5.958479
v -4.295193 -1.107785 3.821642
v -4.315270 -1.042534 4.797517
v -4.959964 -9.291591 3.500936
v -4.962809 -9.440378 4.320370
v -5.008754 -9.232103 5.324399
v -5.063111 -8.928450 2.942148
v -5.083581 -8.692646 6.343136
v -5.173071 -7.847889 7.206693
v -5.220920 -5.311292 0.600254
v -5.223212 -6.180006 2.420698
v -5.293699 -6.571762 7.837183
v -5.335141 -8.493664 2.720058
v -5.421140 -3.555919 2.331550
v -5.461936 -4.738198 8.156720
v -5.682201 -2.916416 8.123662
v -5.860755 -4.545639 0.626524
v -5.860755 -4.545639 0.626524
v -5.954948 -7.409504 2.547944
v -5.958917 -1.675635 7.696370
v -6.200460 -0.948635 6.912061
v -6.264849 -0.713579 3.675995
v -6.315212 -0.668195 5.807956
v -6.328299 -0.650961 4.642963
v -6.538440 -1.107375 2.908425
v -7.101410 -8.119075 2.592875
v -7.341522 -5.579288 1.396486
v -8.066524 -6.365290 2.120249
v -8.636402 -0.035040 4.416808
v -8.642732 -0.116638 5.564731
v -8.646017 -0.116638 3.557410
v -8.653336 -0.489036 6.711335
v -8.656543 -1.279835 7.566778
v -8.657543 -9.779835 5.495877
v -8.660771 -9.154835 6.689623
v -8.662169 -10.029835 4.304968
v -8.663363 -2.654835 8.094676
v -8.663975 -9.779835 3.454319
v -8.682533 -8.279835 7.548782
v -8.684808 -4.779835 8.258644
v -8.698617 -6.904835 8.072181
v -8.871469 -0.781404 2.841877
v -8.876436 -8.822203 2.773307
v -9.513034 -6.949308 2.091310
v -9.926263 0.645952 4.300753
v -9.929427 0.459684 5.542665
v -9.931070 0.459684 3.370991
v -9.934729 -0.090188 6.783150
v -9.936333 -0.994730 7.708633
v -9.936832 -10.190685 5.468173
v -9.937271 -4.659046 1.758625
v -9.937271 -4.659046 1.758625
v -9.938447 -9.514512 6.759660
v -9.939146 -10.461155 4.179756
v -9.939743 -2.482311 8.279754
v -9.940048 -10.190685 3.259458
v -9.949328 -8.567869 7.689164
v -9.950465 -4.781300 8.457148
v -9.957370 -7.080289 8.255418
v -9.972817 -0.211879 2.691684
v -9.975317 -9.365734 2.614413
v -10.647467 -7.255615 1.725786
v -10.860113 -4.636345 0.775894
v -10.860113 -4.636345 0.775894
v -10.931314 -2.919998 1.096494
v -10.931314 -6.411261 1.069930
v -10.956158 1.197380 4.210341
v -10.956949 0.930665 5.531670
v -10.957359 0.930665 3.221123
v -10.958274 0.242827 6.851481
v -10.958675 -0.753826 7.836148
v -10.958800 -10.537841 5.452415
v -10.959204 -9.818428 6.826489
v -10.959378 -10.825605 4.081607
v -10.959528 -2.336534 8.443789
v -10.959604 -10.537841 3.102458
v -10.961924 -8.811250 7.815434
v -10.962208 -4.782538 8.632527
v -10.963934 -7.228541 8.417897
v -11.011624 -0.203229 2.238660
v -11.012025 -9.319232 2.164275
v -11.189620 -4.639934 0.334204
v -11.189620 -4.639934 0.334204
v -11.207420 -7.100448 0.918723
v -11.207420 -2.264971 0.955513
v -11.716123 -7.443565 0.707494
v -11.716123 0.221263 2.077113
v -11.716123 -1.926748 0.749469
v -11.716123 -4.783878 8.867668
v -11.716123 -7.389042 8.639071
v -11.716123 -4.635796 0.000000
v -11.716123 -4.635796 0.000000
v -11.716123 1.652410 4.157732
v -11.716123 1.345920 3.104146
v -11.716123 -10.913675 2.977759
v -11.716123 1.345920 5.565039
v -11.716123 0.579695 6.970730
v -11.716123 -10.147451 6.944112
v -11.716123 -2.178714 8.666650
v -11.716123 -10.913675 5.480628
v -11.716123 -11.220165 4.020621
v -11.716123 -9.739658 1.993048
v -11.716123 -0.493020 8.019468
v -11.716123 -9.074737 7.997406
vn -0.1822 -0.0075 0.9832
vn -0.0768 -0.0058 0.9970
vn -0.0782 -0.0058 0.9969
vn 0.0056 -0.0052 1.0000
vn 0.0039 -0.0052 1.0000
vn -0.0514 -0.0201 0.9985
vn -0.0489 -0.0188 0.9986
vn -0.0822 -0.0400 0.9958
vn -0.0762 -0.0371 0.9964
vn -0.0536 -0.0328 0.9980
vn -0.0491 -0.0280 0.9984
vn -0.0198 -0.0251 0.9995
vn -0.0155 -0.0193 0.9997
vn -0.0008 -0.0155 0.9999
vn 0.0009 -0.0123 0.9999
vn 0.0105 -0.0004 0.9999
vn 0.0106 -0.0003 0.9999
vn 0.0081 0.0582 0.9983
vn 0.0082 0.0555 0.9984
vn 0.0011 0.1162 0.9932
vn 0.0010 0.1106 0.9939
vn -0.0055 0.1533 0.9882
vn -0.0055 0.1506 0.9886
vn -0.0075 0.1906 0.9816
vn -0.0075 0.1907 0.9816
vn -0.0827 -0.0062 0.9966
vn -0.0837 -0.0062 0.9965
vn -0.0011 -0.0057 1.0000
vn -0.0022 -0.0058 1.0000
vn -0.0421 -0.0154 0.9990
vn -0.0412 -0.0148 0.9990
vn -0.0626 -0.0277 0.9977
vn -0.0601 -0.0265 0.9978
vn -0.0344 -0.0155 0.9993
vn -0.0319 -0.0134 0.9994
vn -0.0030 -0.0034 1.0000
vn -0.0009 -0.0006 1.0000
vn 0.0064 -0.0036 1.0000
vn 0.0070 -0.0022 1.0000
vn 0.0106 -0.0001 0.9999
vn 0.0082 0.0444 0.9990
vn 0.0081 0.0415 0.9991
vn 0.0010 0.0888 0.9961
vn 0.0011 0.0834 0.9965
vn -0.0056 0.1400 0.9901
vn -0.0055 0.1375 0.9905
vn -0.0806 -0.0061 0.9967
vn 0.0012 -0.0055 1.0000
vn -0.0447 -0.0168 0.9989
vn -0.0678 -0.0315 0.9972
vn -0.0402 -0.0207 0.9990
vn -0.0076 -0.0098 0.9999
vn 0.0041 -0.0071 1.0000
vn 0.0106 -0.0002 0.9999
vn 0.0081 0.0499 0.9987
vn 0.0010 0.0997 0.9950
vn -0.0054 0.1455 0.9893
vn 0.0487 -0.6065 0.7936
vn 0.1699 -0.2918 0.9413
vn -0.0422 0.6410 0.7663
vn 0.1229 0.5099 0.8514
vn -0.0966 0.5135 0.8526
vn -0.0739 0.2829 0.9563
vn -0.0273 0.1461 0.9889
vn -0.0369 0.2023 0.9786
vn -0.1500 0.4382 0.8863
vn -0.0767 0.5850 0.8074
vn -0.2831 0.9297 0.2357
vn -0.1513 0.9006 0.4076
vn -0.3073 0.9468 -0.0960
vn -0.1883 0.9819 -0.0193
vn -0.3010 0.8867 -0.3510
vn -0.1898 0.9205 -0.3417
vn -0.2708 0.7777 -0.5673
vn -0.1828 0.7890 -0.5866
vn -0.2143 0.6012 -0.7698
vn -0.1561 0.5705 -0.8063
vn -0.1364 0.3483 -0.9274
vn -0.0998 0.2961 -0.9499
vn -0.0724 0.1060 -0.9917
vn -0.0433 0.0678 -0.9968
vn -0.0313 -0.1526 -0.9878
vn -0.0164 -0.1793 -0.9837
vn -0.0046 -0.5391 -0.8422
vn -0.0385 -0.5529 -0.8323
vn -0.0139 -0.8949 -0.4460
vn -0.1091 -0.8790 -0.4641
vn -0.0309 -0.9933 -0.1110
vn -0.1798 -0.9760 -0.1226
vn -0.0253 -0.9994 0.0241
vn -0.2173 -0.9758 0.0251
vn -0.0191 -0.9641 0.2647
vn -0.2058 -0.9323 0.2974
vn 0.0264 -0.6990 0.7146
vn -0.1117 -0.5177 0.8482
vn 0.0688 -0.4869 0.8707
vn 0.0246 -0.5853 0.8105
vn 0.0487 -0.6066 0.7935
vn 0.1698 -0.2916 0.9413
vn -0.2965 -0.0507 0.9537
vn -0.2282 -0.4873 0.8429
vn -0.3356 -0.8562 0.3928
vn -0.3469 -0.9378 0.0156
vn -0.3006 -0.9346 -0.1903
vn -0.2153 -0.8386 -0.5004
vn -0.1332 -0.5505 -0.8241
vn -0.0916 -0.2083 -0.9738
vn -0.0954 0.0216 -0.9952
vn -0.1298 0.2403 -0.9620
vn -0.1754 0.5389 -0.8239
vn -0.2042 0.7847 -0.5853
vn -0.2201 0.9173 -0.3318
vn -0.2381 0.9709 0.0248
vn -0.2278 0.8153 0.5324
vn -0.1497 0.4296 0.8905
vn -0.0340 0.2839 0.9583
vn -0.0523 0.2465 0.9677
vn 0.0403 0.3525 0.9349
vn -0.2965 -0.0504 0.9537
vn -0.5061 -0.8620 0.0277
vn -0.4984 -0.7311 0.4659
vn -0.4592 -0.7545 0.4690
vn -0.4639 -0.5023 0.7298
vn -0.4622 -0.4049 0.7889
vn -0.6890 -0.2037 0.6955
vn -0.7546 -0.0075 0.6562
vn -0.6604 -0.0089 0.7508
vn -0.4836 -0.5129 0.7093
vn -0.5847 -0.2963 0.7552
vn -0.5084 -0.3346 0.7934
vn -0.5206 -0.0099 0.8537
vn -0.3014 0.6268 0.7186
vn -0.0974 0.6759 0.7305
vn -0.1388 0.3692 0.9189
vn -0.0356 0.2750 0.9608
vn -0.0394 0.1534 0.9874
vn -0.5196 0.3286 0.7887
vn -0.2633 0.2201 0.9393
vn -0.4514 0.1241 0.8836
vn -0.3015 0.1430 0.9427
vn 0.3142 -0.1149 0.9424
vn 0.4705 0.0216 0.8822
vn 0.3617 0.0666 0.9299
vn 0.4727 0.1614 0.8663
vn 0.3931 0.2862 0.8739
vn 0.0946 0.1364 0.9861
vn 0.2820 0.2958 0.9127
vn -0.2631 0.2200 0.9393
vn -0.1634 0.1789 0.9702
vn -0.4181 0.6097 0.6734
vn -0.5426 0.8393 0.0340
vn -0.5696 0.7800 -0.2593
vn -0.5653 0.7402 -0.3641
vn -0.6473 0.5851 -0.4885
vn -0.6456 0.5554 -0.5242
vn -0.6174 0.5334 -0.5781
vn -0.4020 0.3521 -0.8452
vn -0.4944 0.3688 -0.7871
vn -0.0743 0.0847 -0.9936
vn -0.0554 0.0998 -0.9935
vn 0.0897 -0.0610 -0.9941
vn 0.1518 0.0238 -0.9881
vn 0.3071 -0.2808 -0.9093
vn 0.4225 -0.1098 -0.8997
vn 0.6034 -0.5635 -0.5643
vn 0.7710 -0.2676 -0.5779
vn 0.9083 -0.3532 -0.2242
vn 0.9635 0.0387 -0.2649
vn 0.9985 0.0544 -0.0036
vn 0.9599 0.2793 0.0239
vn 0.8611 0.2782 0.4255
vn 0.7839 0.3876 0.4851
vn 0.5573 0.3307 0.7616
vn 0.5468 0.3946 0.7385
vn 0.3716 0.3627 0.8546
vn 0.7510 0.4513 0.4819
vn 0.9165 0.3984 0.0351
vn 0.8851 0.4642 0.0337
vn 0.8769 0.3627 -0.3155
vn 0.8483 0.4325 -0.3054
vn 0.7564 0.3324 -0.5633
vn 0.7338 0.4041 -0.5461
vn 0.5139 0.2922 -0.8066
vn 0.5005 0.3642 -0.7854
vn 0.2161 0.2476 -0.9445
vn 0.2114 0.3166 -0.9247
vn 0.0055 0.2304 -0.9731
vn 0.0052 0.2977 -0.9547
vn -0.2121 0.2469 -0.9455
vn -0.2078 0.3162 -0.9257
vn -0.5151 0.2905 -0.8064
vn -0.5014 0.3628 -0.7855
vn -0.7521 0.3293 -0.5708
vn -0.7297 0.4012 -0.5537
vn -0.8739 0.3595 -0.3271
vn -0.8458 0.4297 -0.3163
vn -0.9187 0.3938 0.0306
vn -0.8874 0.4600 0.0294
vn -0.7861 0.3903 0.4792
vn -0.7640 0.4465 0.4658
vn -0.5902 0.3490 0.7279
vn -0.5780 0.3964 0.7133
vn -0.4176 0.3095 0.8543
vn -0.4002 0.3664 0.8400
vn -0.0154 0.3021 0.9532
vn -0.0112 0.3566 0.9342
vn -0.0279 0.3083 0.9509
vn -0.4470 0.2410 0.8615
vn -0.6214 0.2292 0.7492
vn -0.8280 0.2688 0.4921
vn -0.9576 0.2863 0.0324
vn -0.9059 0.2644 -0.3307
vn -0.7817 0.2348 -0.5778
vn -0.5449 0.1815 -0.8186
vn -0.2291 0.1103 -0.9671
vn 0.0040 0.0710 -0.9975
vn 0.2225 0.0708 -0.9724
vn 0.5565 0.2091 -0.8041
vn 0.7520 0.2048 -0.6265
vn 0.9229 0.2327 -0.3068
vn 0.2817 0.2959 0.9127
vn -0.2688 0.3232 0.9074
vn -0.3065 0.2523 0.9178
vn -0.3696 0.1567 0.9159
vn -0.2550 0.1124 0.9604
vn -0.2075 0.1472 0.9671
vn -0.7037 0.5836 0.4051
vn -0.4842 0.2114 0.8491
vn -0.1793 0.1850 0.9662
vn 0.2138 0.0847 0.9732
vn -0.6098 0.1853 0.7706
vn -0.8551 0.2096 0.4742
vn -0.9682 0.2491 0.0251
vn -0.9154 0.2494 -0.3159
vn -0.8016 0.2266 -0.5533
vn -0.5870 0.1636 -0.7929
vn -0.2616 0.0643 -0.9630
vn 0.0016 0.0016 -1.0000
vn 0.3788 0.0462 -0.9243
vn 0.6322 0.1595 -0.7582
vn 0.7650 -0.0022 -0.6441
vn -0.8732 0.2143 0.4378
vn -0.9668 0.2552 -0.0133
vn -0.8566 0.2547 0.4487
vn -0.9500 0.2985 -0.0914
vn -0.8264 0.3799 0.4157
vn -0.8167 0.5278 -0.2333
vn -0.5569 0.2268 0.7990
vn -0.9067 0.2674 -0.3262
vn -0.8690 0.3084 -0.3870
vn -0.7556 0.4512 -0.4749
vn -0.6640 0.6506 -0.3685
vn -0.5025 0.2196 0.8362
vn -0.4819 0.1596 0.8616
vn -0.2612 0.2220 0.9394
vn -0.8076 0.2576 -0.5304
vn -0.6236 0.2061 -0.7541
vn -0.2975 0.1181 -0.9474
vn -0.0077 0.0512 -0.9987
vn 0.3523 0.0088 -0.9358
vn -0.7892 0.3075 -0.5316
vn -0.6453 0.2648 -0.7166
vn -0.3319 0.1763 -0.9267
vn -0.0327 0.0955 -0.9949
vn 0.1718 0.0611 -0.9832
vn 0.4681 -0.0147 -0.8835
vn -0.7127 0.4539 -0.5348
vn -0.6073 0.4651 -0.6441
vn 0.7696 -0.0267 0.6380
vn 0.2139 0.0845 0.9732
vn 0.1490 0.0352 0.9882
vn -0.4813 0.6975 -0.5309
vn -0.4026 0.5927 -0.6976
vn -0.2467 0.3655 -0.8975
vn -0.0902 0.0977 -0.9911
vn -0.0003 -0.1276 -0.9918
vn 0.1290 -0.4560 -0.8806
vn 0.2806 -0.8247 -0.4910
vn 0.7402 -0.6380 -0.2124
vn 0.9410 -0.3382 -0.0093
vn 0.9321 0.0545 0.3581
vn 0.5949 0.2708 0.7568
vn 0.3822 0.3171 0.8680
vn -0.0109 0.3566 0.9342
vn -0.0151 0.3021 0.9532
vn 0.4292 0.2895 0.8556
vn 0.5450 0.0761 0.8349
vn 0.8803 -0.3234 0.3471
vn 0.7890 -0.6099 -0.0745
vn 0.3568 -0.9261 -0.1231
vn -0.0276 0.3083 0.9509
vn 0.3866 -0.1516 0.9097
vn 0.6966 -0.4528 0.5566
vn 0.4739 -0.8797 -0.0386
vn 0.7076 -0.5980 0.3763
vn 0.6162 -0.2377 0.7509
vn 0.3134 -0.1440 0.9386
vn 0.4705 -0.3342 0.8166
vn 0.4553 -0.5689 0.6848
vn 0.3617 -0.8671 0.3426
vn 0.5322 -0.4345 0.7267
vn 0.4152 -0.5728 0.7068
vn 0.0914 -0.4103 0.9074
vn 0.1019 -0.3720 0.9226
vn 0.1787 -0.6366 0.7502
vn 0.2036 -0.2108 0.9561
vn 0.1316 -0.4522 0.8821
vn -0.2202 0.2012 0.9545
vn -0.3208 0.4108 0.8534
vn -0.3460 0.7650 0.5432
vn -0.3316 0.9427 0.0365
vn -0.2917 0.9001 -0.3237
vn -0.2594 0.7743 -0.5772
vn -0.2191 0.5242 -0.8229
vn -0.1786 0.2196 -0.9591
vn -0.1629 0.0059 -0.9866
vn -0.1770 -0.2155 -0.9603
vn -0.2246 -0.5347 -0.8146
vn -0.3007 -0.7902 -0.5341
vn -0.3905 -0.8846 -0.2549
vn -0.4472 -0.8942 0.0208
vn -0.4302 -0.7837 0.4480
vn -0.4790 -0.8774 0.0262
vn -0.4656 -0.8311 -0.3042
vn -0.4290 -0.8536 -0.2955
vn -0.4154 -0.7274 -0.5462
vn -0.3606 -0.7529 -0.5506
vn -0.3650 -0.5017 -0.7843
vn -0.2998 -0.5168 -0.8019
vn -0.3162 -0.2078 -0.9257
vn -0.2514 -0.2120 -0.9444
vn -0.2977 0.0052 -0.9547
vn -0.2345 0.0054 -0.9721
vn -0.3166 0.2114 -0.9247
vn -0.2521 0.2158 -0.9433
vn -0.3642 0.5005 -0.7854
vn -0.2969 0.5134 -0.8052
vn -0.4041 0.7338 -0.5461
vn -0.3371 0.7552 -0.5621
vn -0.4325 0.8483 -0.3054
vn -0.3673 0.8752 -0.3149
vn -0.4642 0.8851 0.0337
vn -0.4028 0.9146 0.0349
vn -0.4718 0.7298 0.4948
vn -0.4086 0.7525 0.5165
vn -0.4731 0.4831 0.7367
vn -0.4925 0.4195 0.7625
vn -0.5060 0.3089 0.8053
vn -0.6509 0.2550 0.7151
vn -0.5206 -0.0096 0.8537
vn -0.6604 -0.0086 0.7508
vn -0.7618 0.1833 0.6214
vn -0.7546 -0.0073 0.6562
vn -0.5836 0.2036 0.7861
vn -0.3016 0.6266 0.7186
vt 1.537264 -1.140241
vt 1.827263 -0.912569
vt 1.387408 -0.785069
vt 1.636619 -0.589453
vt 1.220373 -0.472797
vt 1.419165 -0.263816
vt 1.053338 -0.160524
vt 1.201712 0.061821
vt 0.877570 -0.053036
vt 0.974406 0.190670
vt 0.701802 0.054452
vt 0.747099 0.319519
vt 0.473366 0.050765
vt 0.452653 0.304106
vt 0.244931 0.047078
vt 0.158207 0.288692
vt 0.090524 -0.048466
vt -0.042717 0.177839
vt -0.063882 -0.144010
vt -0.243642 0.066987
vt -0.233828 -0.330349
vt -0.425572 -0.104478
vt -0.403773 -0.516688
vt -0.607501 -0.275942
vt -0.619392 -0.837464
vt -0.856505 -0.557313
vt 2.135040 -0.198223
vt 2.384250 -0.002607
vt 1.816750 0.154144
vt 2.015543 0.363124
vt 1.498461 0.506511
vt 1.646835 0.728856
vt 1.168077 0.678082
vt 1.264913 0.921788
vt 0.837694 0.849654
vt 0.882991 1.114721
vt 0.411227 0.810786
vt 0.390514 1.064127
vt -0.015240 0.771919
vt -0.101963 1.013533
vt -0.309201 0.630450
vt -0.442442 0.856755
vt -0.603162 0.488980
vt -0.782922 0.699977
vt -0.809059 0.347266
vt -1.000803 0.573137
vt -1.014956 0.205551
vt -1.218684 0.446298
vt -1.330732 0.002988
vt -1.567846 0.283138
vt 2.407262 -0.457225
vt 2.697262 -0.229553
vt 2.117263 -0.684897
vt 1.885829 -0.393838
vt 1.617958 -0.054836
vt 1.350086 0.284166
vt 1.071241 0.434376
vt 0.792397 0.584587
vt 0.431940 0.557446
vt 0.071484 0.530305
vt -0.175959 0.404144
vt -0.423402 0.277983
vt -0.617315 0.121394
vt -0.811228 -0.035195
vt -1.093619 -0.277163
vt 1.242044 3.108750
vt 1.979367 3.105978
vt 1.889446 2.953424
vt 2.331165 2.896620
vt 1.923703 2.808606
vt 2.087930 2.615033
vt 1.629545 2.532408
vt 1.768260 2.437195
vt 1.393410 2.375317
vt 2.012103 2.238588
vt 1.479815 2.096978
vt 2.050999 2.082047
vt 1.484693 1.976455
vt 2.059793 1.959912
vt 1.489114 1.832355
vt 2.055165 1.792422
vt 1.485480 1.671432
vt 2.036382 1.607605
vt 1.466189 1.500439
vt 2.002708 1.433497
vt 1.327394 1.101567
vt 1.854118 1.110601
vt 1.244137 0.583699
vt 1.788321 0.619224
vt 1.292306 0.295905
vt 1.830619 0.290984
vt 1.364815 0.081031
vt 1.886010 0.061929
vt 1.280012 -0.252260
vt 1.783609 -0.281328
vt 1.189701 -0.690900
vt 1.672538 -0.730831
vt 1.205708 -0.958444
vt 1.676519 -0.997683
vt 1.197167 -1.183493
vt 1.658527 -1.220371
vt 1.200545 -1.604404
vt 1.876149 -1.690972
vt 1.359196 -2.158171
vt 1.876200 -2.320626
vt 1.268122 -2.476903
vt 1.968758 -2.479536
vt 2.725502 -2.481492
vt 2.360960 -1.636475
vt 2.223827 -1.249197
vt 2.226810 -1.050329
vt 2.223098 -0.788885
vt 2.292458 -0.347276
vt 2.374565 -0.005957
vt 2.369259 0.249258
vt 2.369011 0.634453
vt 2.431398 1.107156
vt 2.566940 1.342489
vt 2.612734 1.516150
vt 2.647339 1.731048
vt 2.662091 1.928896
vt 2.648327 2.051408
vt 2.649142 2.257906
vt 2.011682 2.408093
vt 2.337620 2.448400
vt 2.476057 2.772570
vt 2.775736 3.103920
vt 3.015334 -1.092282
vt 2.996119 -1.340429
vt 2.801877 -1.317895
vt 2.789743 -1.641406
vt 2.603620 -1.622015
vt 2.861232 -2.176111
vt 2.875241 -2.466341
vt 2.928458 -2.463203
vt 2.936443 -1.616572
vt 2.896382 -2.062281
vt 2.975316 -1.998131
vt 3.015114 -2.455265
vt 1.489109 3.003358
vt 1.204960 2.742730
vt 1.405458 2.784885
vt 1.490419 2.634902
vt 0.712972 -2.426878
vt 0.783208 -2.595601
vt 0.350257 -2.266438
vt 0.182886 -2.440364
vt -0.194251 -2.190854
vt -0.295889 -2.365656
vt -0.917216 -2.035482
vt -0.990705 -2.263681
vt -1.340104 -2.103074
vt -0.936602 -2.403224
vt -1.303447 -2.300924
vt 0.731740 2.983836
vt 0.826958 2.599216
vt 0.915832 2.303235
vt 0.961416 2.079286
vt 0.973123 1.969395
vt 0.985327 1.839627
vt -0.018700 1.719083
vt 0.253113 1.568868
vt -0.170708 1.383211
vt 0.195033 1.058944
vt -0.277020 1.148308
vt 0.237079 0.541437
vt -0.162849 0.523725
vt 0.297173 0.277521
vt -0.100935 0.256995
vt 0.344145 0.064685
vt -0.068570 0.064651
vt 0.329193 -0.284835
vt -0.113105 -0.310203
vt -0.163685 -0.810507
vt -0.731338 -0.755359
vt -0.725855 -1.005572
vt -1.449813 -1.075331
vt -1.459110 -1.273635
vt -1.950706 -1.334247
vt -1.995570 -1.604871
vt -2.133487 -1.590176
vt -2.087187 -1.974205
vt -2.108229 -1.354007
vt -1.940423 -1.105983
vt -2.097331 -1.110890
vt -1.950524 -0.798510
vt -2.108229 -0.783408
vt -1.990587 -0.459550
vt -2.136957 -0.472492
vt -1.995271 -0.230291
vt -2.127580 -0.278403
vt -1.993027 0.060929
vt -2.124804 0.031773
vt -1.998791 0.504331
vt -2.131275 0.504021
vt -2.032564 1.006103
vt -2.159611 1.002142
vt -2.153591 1.259340
vt -2.280493 1.235548
vt -2.209682 1.465200
vt -2.340297 1.454793
vt -2.242766 1.699114
vt -2.375733 1.703900
vt -2.247166 1.904463
vt -2.380538 1.922592
vt -2.214903 2.091926
vt -2.347429 2.071057
vt -2.197932 2.341377
vt -2.329512 2.285570
vt -2.157017 2.692495
vt -2.282939 2.659691
vt -2.131412 3.139877
vt -2.253739 3.136289
vt -1.751477 3.103154
vt -1.803162 2.759310
vt -1.804881 2.455198
vt -1.823635 2.135601
vt -1.867585 1.869705
vt -1.864564 1.691191
vt -1.837163 1.487783
vt -1.788838 1.308884
vt -1.652148 1.016447
vt -1.593839 0.508162
vt -1.591049 0.122912
vt -1.590415 -0.130046
vt -1.549456 -0.396336
vt -1.457657 -0.808221
vt -1.464177 3.293943
vt -1.445664 2.987757
vt -1.078123 3.186287
vt -1.108525 2.864587
vt -0.360586 2.831733
vt -0.385180 2.657129
vt 0.032162 2.613947
vt 0.008739 2.243499
vt -0.349147 3.065256
vt 0.006072 2.784757
vt 0.008434 3.036292
vt -1.523601 2.477140
vt -1.534860 2.173235
vt -1.591747 1.881862
vt -1.590926 1.723826
vt -1.567518 1.532206
vt -1.520201 1.337269
vt -1.351182 0.996705
vt -1.236047 0.477191
vt -1.238048 0.126467
vt -1.404803 -0.153487
vt -0.801529 -0.358760
vt -1.201263 2.184748
vt -1.284781 1.892822
vt -0.847925 2.264669
vt -0.914726 1.915143
vt -0.485001 2.234079
vt -0.423214 1.935188
vt -0.388073 2.511008
vt -1.285801 1.747442
vt -0.900145 1.767479
vt -0.502912 1.745507
vt -0.011877 1.844838
vt -1.179410 2.484787
vt -0.792709 2.490715
vt -1.113241 2.682829
vt -1.267812 1.564577
vt -1.228472 1.364734
vt -1.047728 0.978804
vt -0.900137 0.446699
vt -0.865522 0.052027
vt -0.870190 1.589539
vt -0.832317 1.410180
vt -0.679960 1.013815
vt -0.529131 0.491443
vt -0.460765 0.211270
vt -0.394028 0.064301
vt -0.444740 1.586898
vt -0.438013 1.438608
vt -0.243898 -2.518234
vt 0.095891 -2.545756
vt 0.058318 -2.438480
vt 0.986645 1.690615
vt 0.969625 1.529641
vt 0.895720 1.096128
vt 0.864630 0.561758
vt 0.895993 0.284179
vt 0.954363 0.067159
vt 0.876532 -0.262461
vt 0.242715 -0.763033
vt -0.138361 -1.057211
vt -0.729705 -1.201104
vt -1.571968 -1.536172
vt -1.967188 -1.999816
vt -2.053724 -2.450733
vt -1.937483 -2.447324
vt -1.653353 -2.014985
vt -0.891950 -1.635115
vt -0.138748 -1.228969
vt 0.188002 -1.023900
vt 0.713302 -0.688341
vt -1.576453 -2.482220
vt -0.238783 -2.078009
vt 0.641720 -0.968685
vt 0.201667 -1.220191
vt -0.161105 -1.587811
vt -0.191328 -1.917624
vt 0.217228 -2.166175
vt 0.693680 -1.181610
vt 0.238857 -1.608153
vt 0.607503 -1.591481
vt 0.920403 -2.105163
vt 0.987597 -2.016322
vt 0.814248 -1.626773
vt 0.262147 -1.956439
vt 0.837927 -2.252230
vt 2.741123 2.693577
vt 2.846471 2.210257
vt 2.867742 2.079582
vt 2.882794 1.947022
vt 2.867246 1.732931
vt 2.829519 1.500468
vt 2.778029 1.312791
vt 2.645806 1.104865
vt 2.595618 0.640000
vt 2.598138 0.223291
vt 2.604595 -0.052813
vt 2.562545 -0.372822
vt 2.544471 -0.789403
vt 2.555447 -1.070181
vt 2.544837 -1.287394
vt 2.818332 -1.085353
vt 2.996119 -0.776129
vt 2.801786 -0.788068
vt 2.941306 -0.406813
vt 2.778695 -0.393036
vt 2.923581 -0.135318
vt 2.788237 -0.092410
vt 2.915566 0.177549
vt 2.780865 0.201344
vt 2.910518 0.649731
vt 2.776609 0.644683
vt 2.946540 1.099681
vt 2.817402 1.102785
vt 3.078340 1.258341
vt 2.947498 1.287423
vt 3.138584 1.470814
vt 3.003646 1.486960
vt 3.181617 1.734207
vt 3.043986 1.734267
vt 3.198831 1.976852
vt 3.060238 1.962079
vt 3.181617 2.127082
vt 3.044110 2.103127
vt 3.146140 2.233735
vt 3.021137 2.258680
vt 3.131409 2.638249
vt 3.036884 2.691072
vt 3.080511 3.131521
vt 2.989318 3.123167
vt 2.977286 2.808689
vt 2.933315 3.119864
vt 2.944715 2.657186
s 1
usemtl material1
f 61/1/1 62/2/1 56/3/2
f 57/4/3 56/3/2 62/2/1
f 56/3/2 57/4/3 55/5/4
f 54/6/5 55/5/4 57/4/3
f 55/5/4 54/6/5 50/7/6
f 49/8/7 50/7/6 54/6/5
f 50/7/6 49/8/7 47/9/8
f 45/10/9 47/9/8 49/8/7
f 47/9/8 45/10/9 43/11/10
f 39/12/11 43/11/10 45/10/9
f 43/11/10 39/12/11 40/13/12
f 31/14/13 40/13/12 39/12/11
f 40/13/12 31/14/13 34/15/14
f 27/16/15 34/15/14 31/14/13
f 34/15/14 27/16/15 33/17/16
f 25/18/17 33/17/16 27/16/15
f 33/17/16 25/18/17 32/19/18
f 22/20/19 32/19/18 25/18/17
f 32/19/18 22/20/19 36/21/20
f 23/22/21 36/21/20 22/20/19
f 36/21/20 23/22/21 37/23/22
f 26/24/23 37/23/22 23/22/21
f 37/23/22 26/24/23 41/25/24
f 28/26/25 41/25/24 26/24/23
f 59/27/26 60/28/27 52/29/28
f 51/30/29 52/29/28 60/28/27
f 52/29/28 51/30/29 46/31/30
f 44/32/31 46/31/30 51/30/29
f 46/31/30 44/32/31 38/33/32
f 35/34/33 38/33/32 44/32/31
f 38/33/32 35/34/33 29/35/34
f 21/36/35 29/35/34 35/34/33
f 29/35/34 21/36/35 20/37/36
f 13/38/37 20/37/36 21/36/35
f 20/37/36 13/38/37 12/39/38
f 6/40/39 12/39/38 13/38/37
f 12/39/38 6/40/39 11/41/40
f 5/42/40 11/41/40 6/40/39
f 11/41/40 5/42/40 10/43/41
f 4/44/42 10/43/41 5/42/40
f 10/43/41 4/44/42 9/45/43
f 3/46/44 9/45/43 4/44/42
f 9/45/43 3/46/44 8/47/45
f 2/48/46 8/47/45 3/46/44
f 8/47/45 2/48/46 7/49/25
f 1/50/25 7/49/25 2/48/46
f 64/51/1 65/52/1 59/27/26
f 60/28/27 59/27/26 65/52/1
f 63/53/1 64/51/1 58/54/47
f 59/27/26 58/54/47 64/51/1
f 58/54/47 59/27/26 53/55/48
f 52/29/28 53/55/48 59/27/26
f 53/55/48 52/29/28 48/56/49
f 46/31/30 48/56/49 52/29/28
f 48/56/49 46/31/30 42/57/50
f 38/33/32 42/57/50 46/31/30
f 42/57/50 38/33/32 30/58/51
f 29/35/34 30/58/51 38/33/32
f 30/58/51 29/35/34 24/59/52
f 20/37/36 24/59/52 29/35/34
f 24/59/52 20/37/36 19/60/53
f 12/39/38 19/60/53 20/37/36
f 19/60/53 12/39/38 18/61/54
f 11/41/40 18/61/54 12/39/38
f 18/61/54 11/41/40 17/62/55
f 10/43/41 17/62/55 11/41/40
f 17/62/55 10/43/41 16/63/56
f 9/45/43 16/63/56 10/43/41
f 16/63/56 9/45/43 15/64/57
f 8/47/45 15/64/57 9/45/43
f 15/64/57 8/47/45 14/65/25
f 7/49/25 14/65/25 8/47/45
f 62/2/1 63/53/1 57/4/3
f 58/54/47 57/4/3 63/53/1
f 57/4/3 58/54/47 54/6/5
f 53/55/48 54/6/5 58/54/47
f 54/6/5 53/55/48 49/8/7
f 48/56/49 49/8/7 53/55/48
f 49/8/7 48/56/49 45/10/9
f 42/57/50 45/10/9 48/56/49
f 45/10/9 42/57/50 39/12/11
f 30/58/51 39/12/11 42/57/50
f 39/12/11 30/58/51 31/14/13
f 24/59/52 31/14/13 30/58/51
f 31/14/13 24/59/52 27/16/15
f 19/60/53 27/16/15 24/59/52
f 27/16/15 19/60/53 25/18/17
f 18/61/54 25/18/17 19/60/53
f 25/18/17 18/61/54 22/20/19
f 17/62/55 22/20/19 18/61/54
f 22/20/19 17/62/55 23/22/21
f 16/63/56 23/22/21 17/62/55
f 23/22/21 16/63/56 26/24/23
f 15/64/57 26/24/23 16/63/56
f 26/24/23 15/64/57 28/26/25
f 14/65/25 28/26/25 15/64/57
usemtl material2
f 245/66/58 277/67/59 270/68/60
f 287/69/61 270/68/60 277/67/59
f 270/68/60 287/69/61 271/70/62
f 279/71/63 271/70/62 287/69/61
f 271/70/62 279/71/63 255/72/64
f 260/73/65 255/72/64 279/71/63
f 255/72/64 260/73/65 231/74/66
f 267/75/67 231/74/66 260/73/65
f 231/74/66 267/75/67 232/76/68
f 264/77/69 232/76/68 267/75/67
f 232/76/68 264/77/69 233/78/70
f 265/79/71 233/78/70 264/77/69
f 233/78/70 265/79/71 234/80/72
f 266/81/73 234/80/72 265/79/71
f 234/80/72 266/81/73 237/82/74
f 268/83/75 237/82/74 266/81/73
f 237/82/74 268/83/75 238/84/76
f 269/85/77 238/84/76 268/83/75
f 238/84/76 269/85/77 241/86/78
f 272/87/79 241/86/78 269/85/77
f 241/86/78 272/87/79 252/88/80
f 275/89/81 252/88/80 272/87/79
f 252/88/80 275/89/81 253/90/82
f 276/91/83 253/90/82 275/89/81
f 253/90/82 276/91/83 257/92/84
f 280/93/85 257/92/84 276/91/83
f 257/92/84 280/93/85 259/94/86
f 281/95/87 259/94/86 280/93/85
f 259/94/86 281/95/87 261/96/88
f 283/97/89 261/96/88 281/95/87
f 261/96/88 283/97/89 263/98/90
f 284/99/91 263/98/90 283/97/89
f 263/98/90 284/99/91 262/100/92
f 282/101/93 262/100/92 284/99/91
f 262/100/92 282/101/93 258/102/94
f 285/103/95 258/102/94 282/101/93
f 258/102/94 285/103/95 256/104/96
f 274/105/97 256/104/96 285/103/95
f 256/104/96 274/105/97 244/106/98
f 278/107/99 244/106/98 274/105/97
f 312/108/100 274/105/97 302/109/101
f 285/103/95 302/109/101 274/105/97
f 302/109/101 285/103/95 291/110/102
f 282/101/93 291/110/102 285/103/95
f 291/110/102 282/101/93 289/111/103
f 284/99/91 289/111/103 282/101/93
f 289/111/103 284/99/91 290/112/104
f 283/97/89 290/112/104 284/99/91
f 290/112/104 283/97/89 292/113/105
f 281/95/87 292/113/105 283/97/89
f 292/113/105 281/95/87 293/114/106
f 280/93/85 293/114/106 281/95/87
f 293/114/106 280/93/85 297/115/107
f 276/91/83 297/115/107 280/93/85
f 297/115/107 276/91/83 300/116/108
f 275/89/81 300/116/108 276/91/83
f 300/116/108 275/89/81 301/117/109
f 272/87/79 301/117/109 275/89/81
f 301/117/109 272/87/79 299/118/110
f 269/85/77 299/118/110 272/87/79
f 299/118/110 269/85/77 295/119/111
f 268/83/75 295/119/111 269/85/77
f 295/119/111 268/83/75 294/120/112
f 266/81/73 294/120/112 268/83/75
f 294/120/112 266/81/73 296/121/113
f 265/79/71 296/121/113 266/81/73
f 296/121/113 265/79/71 298/122/114
f 264/77/69 298/122/114 265/79/71
f 298/122/114 264/77/69 303/123/115
f 267/75/67 303/123/115 264/77/69
f 303/123/115 267/75/67 273/124/116
f 260/73/65 273/124/116 267/75/67
f 273/124/116 260/73/65 286/125/117
f 279/71/63 286/125/117 260/73/65
f 286/125/117 279/71/63 288/126/118
f 287/69/61 288/126/118 279/71/63
f 288/126/118 287/69/61 311/127/119
f 277/67/59 311/127/119 287/69/61
f 353/128/120 354/129/121 329/130/122
f 340/131/123 329/130/122 354/129/121
f 329/130/122 340/131/123 320/132/124
f 325/133/125 320/132/124 340/131/123
f 320/132/124 325/133/125 324/134/126
f 342/135/127 324/134/126 325/133/125
f 354/129/121 347/136/128 340/131/123
f 345/137/129 340/131/123 347/136/128
f 340/131/123 345/137/129 325/133/125
f 342/135/127 325/133/125 345/137/129
f 348/138/130 351/139/131 345/137/129
f 342/135/127 345/137/129 351/139/131
f 270/68/60 271/70/62 243/66/132
f 254/140/133 243/66/132 271/70/62
f 243/66/132 254/140/133 230/141/134
f 250/142/135 230/141/134 254/140/133
f 230/141/134 250/142/135 231/74/66
f 251/143/136 231/74/66 250/142/135
f 231/74/66 251/143/136 255/72/64
f 271/70/62 255/72/64 251/143/136
f 208/144/137 200/145/138 178/146/139
f 160/147/140 178/146/139 200/145/138
f 178/146/139 160/147/140 163/148/141
f 151/149/142 163/148/141 160/147/140
f 163/148/141 151/149/142 166/150/143
f 150/151/144 166/150/143 151/149/142
f 166/150/143 150/151/144 155/152/145
f 141/153/146 155/152/145 150/151/144
f 155/152/145 141/153/146 145/154/147
f 199/155/148 230/141/134 180/156/149
f 231/74/66 180/156/149 230/141/134
f 180/156/149 231/74/66 177/157/150
f 232/76/68 177/157/150 231/74/66
f 177/157/150 232/76/68 181/158/151
f 233/78/70 181/158/151 232/76/68
f 181/158/151 233/78/70 183/159/152
f 186/160/153 183/159/152 233/78/70
f 183/159/152 186/160/153 124/161/154
f 147/162/155 124/161/154 186/160/153
f 124/161/154 147/162/155 125/163/156
f 149/164/157 125/163/156 147/162/155
f 125/163/156 149/164/157 126/165/158
f 156/166/159 126/165/158 149/164/157
f 126/165/158 156/166/159 148/167/160
f 172/168/161 148/167/160 156/166/159
f 148/167/160 172/168/161 162/169/162
f 190/170/163 162/169/162 172/168/161
f 162/169/162 190/170/163 174/171/164
f 213/172/165 174/171/164 190/170/163
f 174/171/164 213/172/165 188/173/166
f 198/174/167 188/173/166 213/172/165
f 188/173/166 198/174/167 191/175/168
f 196/176/169 191/175/168 198/174/167
f 191/175/168 196/176/169 215/177/170
f 210/178/171 215/177/170 196/176/169
f 215/177/170 210/178/171 221/179/172
f 203/180/173 221/179/172 210/178/171
f 221/179/172 203/180/173 209/181/174
f 169/182/175 209/181/174 203/180/173
f 221/179/172 226/183/176 224/184/177
f 229/185/178 224/184/177 226/183/176
f 224/184/177 229/185/178 222/186/179
f 225/187/180 222/186/179 229/185/178
f 222/186/179 225/187/180 212/188/181
f 216/189/182 212/188/181 225/187/180
f 212/188/181 216/189/182 187/190/183
f 192/191/184 187/190/183 216/189/182
f 187/190/183 192/191/184 164/192/185
f 168/193/186 164/192/185 192/191/184
f 164/192/185 168/193/186 135/194/187
f 136/195/188 135/194/187 168/193/186
f 135/194/187 136/195/188 108/196/189
f 105/197/190 108/196/189 136/195/188
f 108/196/189 105/197/190 89/198/191
f 83/199/192 89/198/191 105/197/190
f 89/198/191 83/199/192 74/200/193
f 72/201/194 74/200/193 83/199/192
f 74/200/193 72/201/194 71/202/195
f 68/203/196 71/202/195 72/201/194
f 71/202/195 68/203/196 69/204/197
f 66/205/198 69/204/197 68/203/196
f 69/204/197 66/205/198 70/206/199
f 67/207/200 70/206/199 66/205/198
f 70/206/199 67/207/200 79/208/201
f 75/209/202 79/208/201 67/207/200
f 79/208/201 75/209/202 103/210/203
f 100/211/204 103/210/203 75/209/202
f 103/210/203 100/211/204 133/212/205
f 131/213/206 133/212/205 100/211/204
f 133/212/205 128/214/207 103/210/203
f 110/215/208 103/210/203 128/214/207
f 103/210/203 110/215/208 79/208/201
f 87/216/209 79/208/201 110/215/208
f 79/208/201 87/216/209 70/206/199
f 77/217/210 70/206/199 87/216/209
f 70/206/199 77/217/210 69/204/197
f 73/218/211 69/204/197 77/217/210
f 69/204/197 73/218/211 71/202/195
f 76/219/212 71/202/195 73/218/211
f 71/202/195 76/219/212 74/200/193
f 82/220/213 74/200/193 76/219/212
f 74/200/193 82/220/213 89/198/191
f 95/221/214 89/198/191 82/220/213
f 89/198/191 95/221/214 108/196/189
f 112/222/215 108/196/189 95/221/214
f 108/196/189 112/222/215 135/194/187
f 134/223/216 135/194/187 112/222/215
f 135/194/187 134/223/216 164/192/185
f 157/224/217 164/192/185 134/223/216
f 164/192/185 157/224/217 187/190/183
f 175/225/218 187/190/183 157/224/217
f 187/190/183 175/225/218 212/188/181
f 195/226/219 212/188/181 175/225/218
f 212/188/181 195/226/219 222/186/179
f 211/227/220 222/186/179 195/226/219
f 222/186/179 211/227/220 224/184/177
f 215/177/170 224/184/177 211/227/220
f 224/184/177 215/177/170 221/179/172
f 128/214/207 146/228/221 120/229/222
f 140/230/146 120/229/222 146/228/221
f 120/229/222 140/230/146 117/231/223
f 123/232/224 117/231/223 140/230/146
f 117/231/223 123/232/224 115/233/225
f 127/234/226 115/233/225 123/232/224
f 115/233/225 127/234/226 121/235/227
f 177/157/150 121/235/227 127/234/226
f 121/235/227 177/157/150 181/158/151
f 140/230/146 144/236/228 123/232/224
f 138/237/229 123/232/224 144/236/228
f 123/232/224 138/237/229 127/234/226
f 180/156/149 127/234/226 138/237/229
f 127/234/226 180/156/149 177/157/150
f 152/238/230 199/155/148 138/237/229
f 180/156/149 138/237/229 199/155/148
f 87/216/209 90/239/231 77/217/210
f 80/240/232 77/217/210 90/239/231
f 77/217/210 80/240/232 73/218/211
f 78/241/233 73/218/211 80/240/232
f 73/218/211 78/241/233 76/219/212
f 81/242/234 76/219/212 78/241/233
f 76/219/212 81/242/234 82/220/213
f 88/243/235 82/220/213 81/242/234
f 82/220/213 88/243/235 95/221/214
f 98/244/236 95/221/214 88/243/235
f 95/221/214 98/244/236 112/222/215
f 114/245/237 112/222/215 98/244/236
f 112/222/215 114/245/237 134/223/216
f 137/246/238 134/223/216 114/245/237
f 134/223/216 137/246/238 157/224/217
f 159/247/239 157/224/217 137/246/238
f 157/224/217 159/247/239 175/225/218
f 173/248/240 175/225/218 159/247/239
f 175/225/218 173/248/240 195/226/219
f 184/249/241 195/226/219 173/248/240
f 195/226/219 184/249/241 211/227/220
f 191/175/168 211/227/220 184/249/241
f 211/227/220 191/175/168 215/177/170
f 78/241/233 85/250/242 84/251/243
f 94/252/244 84/251/243 85/250/242
f 84/251/243 94/252/244 91/253/245
f 101/254/246 91/253/245 94/252/244
f 91/253/245 101/254/246 104/255/247
f 109/256/248 104/255/247 101/254/246
f 104/255/247 109/256/248 121/235/227
f 115/233/225 121/235/227 109/256/248
f 81/242/234 84/251/243 86/257/249
f 91/253/245 86/257/249 84/251/243
f 86/257/249 91/253/245 96/258/250
f 104/255/247 96/258/250 91/253/245
f 96/258/250 104/255/247 107/259/251
f 122/260/252 107/259/251 104/255/247
f 107/259/251 122/260/252 124/161/154
f 183/159/152 124/161/154 122/260/252
f 80/240/232 92/261/253 85/250/242
f 97/262/254 85/250/242 92/261/253
f 85/250/242 97/262/254 94/252/244
f 109/256/248 94/252/244 97/262/254
f 94/252/244 109/256/248 101/254/246
f 90/239/231 110/215/208 92/261/253
f 120/229/222 92/261/253 110/215/208
f 92/261/253 120/229/222 106/263/255
f 117/231/223 106/263/255 120/229/222
f 106/263/255 117/231/223 115/233/225
f 88/243/235 93/264/256 98/244/236
f 102/265/257 98/244/236 93/264/256
f 98/244/236 102/265/257 114/245/237
f 116/266/258 114/245/237 102/265/257
f 114/245/237 116/266/258 137/246/238
f 139/267/259 137/246/238 116/266/258
f 137/246/238 139/267/259 159/247/239
f 167/268/260 159/247/239 139/267/259
f 159/247/239 167/268/260 173/248/240
f 184/249/241 173/248/240 167/268/260
f 93/264/256 88/243/235 86/257/249
f 81/242/234 86/257/249 88/243/235
f 86/257/249 96/258/250 93/264/256
f 99/269/261 93/264/256 96/258/250
f 93/264/256 99/269/261 102/265/257
f 111/270/262 102/265/257 99/269/261
f 102/265/257 111/270/262 116/266/258
f 119/271/263 116/266/258 111/270/262
f 116/266/258 119/271/263 139/267/259
f 142/272/264 139/267/259 119/271/263
f 139/267/259 142/272/264 167/268/260
f 158/273/265 167/268/260 142/272/264
f 167/268/260 158/273/265 171/274/266
f 174/171/164 171/274/266 158/273/265
f 171/274/266 174/171/164 188/173/166
f 97/262/254 106/263/255 109/256/248
f 115/233/225 109/256/248 106/263/255
f 99/269/261 107/259/251 113/275/267
f 124/161/154 113/275/267 107/259/251
f 113/275/267 124/161/154 118/276/268
f 125/163/156 118/276/268 124/161/154
f 118/276/268 125/163/156 126/165/158
f 99/269/261 113/275/267 111/270/262
f 118/276/268 111/270/262 113/275/267
f 111/270/262 118/276/268 119/271/263
f 126/165/158 119/271/263 118/276/268
f 119/271/263 126/165/158 142/272/264
f 148/167/160 142/272/264 126/165/158
f 142/272/264 148/167/160 158/273/265
f 162/169/162 158/273/265 148/167/160
f 158/273/265 162/169/162 174/171/164
f 122/260/252 121/235/227 183/159/152
f 181/158/151 183/159/152 121/235/227
f 141/153/146 150/151/144 143/277/269
f 151/149/142 143/277/269 150/151/144
f 143/277/269 151/149/142 153/278/270
f 154/279/271 153/278/270 151/149/142
f 153/278/270 154/279/271 200/145/138
f 160/147/140 200/145/138 154/279/271
f 233/78/70 234/80/72 186/160/153
f 189/280/272 186/160/153 234/80/72
f 186/160/153 189/280/272 147/162/155
f 197/281/273 147/162/155 189/280/272
f 147/162/155 197/281/273 206/282/274
f 241/86/78 206/282/274 197/281/273
f 206/282/274 241/86/78 252/88/80
f 147/162/155 206/282/274 149/164/157
f 217/283/275 149/164/157 206/282/274
f 149/164/157 217/283/275 156/166/159
f 227/284/276 156/166/159 217/283/275
f 156/166/159 227/284/276 172/168/161
f 235/285/277 172/168/161 227/284/276
f 172/168/161 235/285/277 190/170/163
f 247/286/278 190/170/163 235/285/277
f 190/170/163 247/286/278 213/172/165
f 218/287/279 213/172/165 247/286/278
f 213/172/165 218/287/279 198/174/167
f 205/288/280 198/174/167 218/287/279
f 198/174/167 205/288/280 196/176/169
f 194/289/281 196/176/169 205/288/280
f 196/176/169 194/289/281 210/178/171
f 201/290/282 210/178/171 194/289/281
f 210/178/171 201/290/282 203/180/173
f 165/291/283 203/180/173 201/290/282
f 203/180/173 165/291/283 169/182/175
f 130/292/284 169/182/175 165/291/283
f 132/293/285 165/291/283 161/294/286
f 201/290/282 161/294/286 165/291/283
f 161/294/286 201/290/282 185/295/287
f 194/289/281 185/295/287 201/290/282
f 185/295/287 194/289/281 202/296/288
f 205/288/280 202/296/288 194/289/281
f 202/296/288 205/288/280 220/297/289
f 218/287/279 220/297/289 205/288/280
f 220/297/289 218/287/279 242/298/290
f 247/286/278 242/298/290 218/287/279
f 242/298/290 247/286/278 259/94/86
f 235/285/277 259/94/86 247/286/278
f 259/94/86 235/285/277 257/92/84
f 227/284/276 257/92/84 235/285/277
f 257/92/84 227/284/276 253/90/82
f 217/283/275 253/90/82 227/284/276
f 253/90/82 217/283/275 252/88/80
f 206/282/274 252/88/80 217/283/275
f 129/299/291 161/294/286 145/154/147
f 155/152/145 145/154/147 161/294/286
f 155/152/145 185/295/287 166/150/143
f 170/300/292 166/150/143 185/295/287
f 166/150/143 170/300/292 163/148/141
f 179/146/293 163/148/141 170/300/292
f 234/80/72 237/82/74 189/280/272
f 238/84/76 189/280/272 237/82/74
f 189/280/272 238/84/76 197/281/273
f 241/86/78 197/281/273 238/84/76
f 259/94/86 261/96/88 242/298/290
f 239/301/294 242/298/290 261/96/88
f 242/298/290 239/301/294 220/297/289
f 219/302/295 220/297/289 239/301/294
f 220/297/289 219/302/295 202/296/288
f 193/303/296 202/296/288 219/302/295
f 202/296/288 193/303/296 185/295/287
f 182/304/297 185/295/287 193/303/296
f 185/295/287 182/304/297 170/300/292
f 176/305/298 170/300/292 182/304/297
f 170/300/292 176/305/298 179/146/293
f 207/144/299 179/146/293 176/305/298
f 219/302/295 240/306/300 214/307/301
f 228/308/302 214/307/301 240/306/300
f 214/307/301 228/308/302 236/309/303
f 249/310/304 236/309/303 228/308/302
f 236/309/303 249/310/304 256/104/96
f 248/311/305 256/104/96 249/310/304
f 256/104/96 248/311/305 258/102/94
f 240/306/300 258/102/94 248/311/305
f 258/102/94 240/306/300 262/100/92
f 263/98/90 262/100/92 240/306/300
f 176/305/298 204/312/306 223/313/307
f 236/309/303 223/313/307 204/312/306
f 223/313/307 236/309/303 244/106/98
f 256/104/96 244/106/98 236/309/303
f 176/305/298 223/313/307 207/144/299
f 244/106/98 207/144/299 223/313/307
f 193/303/296 204/312/306 182/304/297
f 176/305/298 182/304/297 204/312/306
f 193/303/296 214/307/301 204/312/306
f 236/309/303 204/312/306 214/307/301
f 240/306/300 248/311/305 228/308/302
f 249/310/304 228/308/302 248/311/305
f 261/96/88 263/98/90 239/301/294
f 240/306/300 239/301/294 263/98/90
f 239/301/294 240/306/300 219/302/295
f 254/140/133 271/70/62 250/142/135
f 251/143/136 250/142/135 271/70/62
f 286/125/117 304/314/308 303/123/115
f 321/315/309 303/123/115 304/314/308
f 303/123/115 321/315/309 298/122/114
f 316/316/310 298/122/114 321/315/309
f 298/122/114 316/316/310 296/121/113
f 314/317/311 296/121/113 316/316/310
f 296/121/113 314/317/311 294/120/112
f 310/318/312 294/120/112 314/317/311
f 294/120/112 310/318/312 295/119/111
f 313/319/313 295/119/111 310/318/312
f 295/119/111 313/319/313 299/118/110
f 317/320/314 299/118/110 313/319/313
f 299/118/110 317/320/314 301/117/109
f 319/321/315 301/117/109 317/320/314
f 301/117/109 319/321/315 300/116/108
f 318/322/316 300/116/108 319/321/315
f 300/116/108 318/322/316 297/115/107
f 315/323/317 297/115/107 318/322/316
f 297/115/107 315/323/317 293/114/106
f 309/324/318 293/114/106 315/323/317
f 293/114/106 309/324/318 292/113/105
f 308/325/319 292/113/105 309/324/318
f 292/113/105 308/325/319 290/112/104
f 306/326/320 290/112/104 308/325/319
f 290/112/104 306/326/320 289/111/103
f 305/327/321 289/111/103 306/326/320
f 289/111/103 305/327/321 291/110/102
f 307/328/322 291/110/102 305/327/321
f 291/110/102 307/328/322 302/109/101
f 320/132/124 302/109/101 307/328/322
f 302/109/101 320/132/124 312/108/100
f 324/134/126 312/108/100 320/132/124
f 353/128/120 329/130/122 327/329/323
f 307/328/322 327/329/323 329/130/122
f 327/329/323 307/328/322 305/327/321
f 353/128/120 327/329/323 356/330/324
f 328/331/325 356/330/324 327/329/323
f 356/330/324 328/331/325 357/332/326
f 330/333/327 357/332/326 328/331/325
f 357/332/326 330/333/327 363/334/328
f 331/335/329 363/334/328 330/333/327
f 363/334/328 331/335/329 359/336/330
f 335/337/331 359/336/330 331/335/329
f 359/336/330 335/337/331 349/338/332
f 338/339/333 349/338/332 335/337/331
f 349/338/332 338/339/333 350/340/334
f 339/341/335 350/340/334 338/339/333
f 350/340/334 339/341/335 364/342/336
f 337/343/337 364/342/336 339/341/335
f 364/342/336 337/343/337 358/344/338
f 333/345/339 358/344/338 337/343/337
f 358/344/338 333/345/339 360/346/340
f 332/347/341 360/346/340 333/345/339
f 360/346/340 332/347/341 361/348/342
f 334/349/343 361/348/342 332/347/341
f 361/348/342 334/349/343 355/350/344
f 336/351/345 355/350/344 334/349/343
f 355/350/344 336/351/345 362/352/346
f 341/353/347 362/352/346 336/351/345
f 362/352/346 341/353/347 346/354/348
f 344/355/349 346/354/348 341/353/347
f 346/354/348 344/355/349 352/356/350
f 343/357/351 352/356/350 344/355/349
f 343/357/351 326/358/352 323/359/353
f 311/127/119 323/359/353 326/358/352
f 326/358/352 344/355/349 322/360/354
f 341/353/347 322/360/354 344/355/349
f 322/360/354 341/353/347 304/314/308
f 321/315/309 304/314/308 341/353/347
f 326/358/352 322/360/354 311/127/119
f 304/314/308 311/127/119 322/360/354
f 311/127/119 304/314/308 288/126/118
f 286/125/117 288/126/118 304/314/308
f 321/315/309 341/353/347 316/316/310
f 336/351/345 316/316/310 341/353/347
f 316/316/310 336/351/345 314/317/311
f 334/349/343 314/317/311 336/351/345
f 314/317/311 334/349/343 310/318/312
f 332/347/341 310/318/312 334/349/343
f 310/318/312 332/347/341 313/319/313
f 333/345/339 313/319/313 332/347/341
f 313/319/313 333/345/339 317/320/314
f 337/343/337 317/320/314 333/345/339
f 317/320/314 337/343/337 319/321/315
f 339/341/335 319/321/315 337/343/337
f 319/321/315 339/341/335 318/322/316
f 338/339/333 318/322/316 339/341/335
f 318/322/316 338/339/333 315/323/317
f 335/337/331 315/323/317 338/339/333
f 315/323/317 335/337/331 309/324/318
f 331/335/329 309/324/318 335/337/331
f 309/324/318 331/335/329 308/325/319
f 330/333/327 308/325/319 331/335/329
f 308/325/319 330/333/327 306/326/320
f 328/331/325 306/326/320 330/333/327
f 306/326/320 328/331/325 305/327/321
f 327/329/323 305/327/321 328/331/325
f 188/173/166 184/249/241 171/274/266
f 167/268/260 171/274/266 184/249/241
f 345/137/129 347/136/128 348/138/130
f 343/357/351 344/355/349 326/358/352
f 307/328/322 329/130/122 320/132/124
f 286/125/117 303/123/115 273/124/116
f 274/105/97 312/108/100 278/107/99
f 200/145/138 208/144/137 246/106/355
f 193/303/296 219/302/295 214/307/301
f 188/173/166 191/175/168 184/249/241
f 161/294/286 185/295/287 155/152/145
f 151/149/142 160/147/140 154/279/271
f 138/237/229 144/236/228 152/238/230
f 132/293/285 161/294/286 129/299/291
f 130/292/284 165/291/283 132/293/285
f 121/235/227 122/260/252 104/255/247
f 110/215/208 128/214/207 120/229/222
f 96/258/250 107/259/251 99/269/261
f 92/261/253 106/263/255 97/262/254
f 90/239/231 92/261/253 80/240/232
f 87/216/209 110/215/208 90/239/231
f 80/240/232 85/250/242 78/241/233
f 78/241/233 84/251/243 81/242/234
f 199/155/148 243/66/132 230/141/134
f 209/181/174 226/183/176 221/179/172
