# Source-author permission confirmed by the user on 2026-07-25.
# Normalized to metres and Z-up; source UVs/material assignments retained.
# Blender 4.2.0
# www.blender.org
mtllib rv_mod_cit_ruin_rotunda.mtl
o rv_mod_cit_ruin_rotunda
v -2.971758 16.551640 13.585866
v 0.025165 18.582615 15.333333
v 1.366456 19.491589 13.585866
v 1.366456 -19.998989 13.585866
v -1.630466 -17.968014 15.333333
v -2.971758 -17.059036 13.585866
v -8.204752 9.415452 13.585866
v -6.213179 12.438703 15.333333
v -5.321836 13.791777 13.585866
v -5.321836 -14.299175 13.585866
v -7.313412 -11.275925 15.333333
v -8.204752 -9.922851 13.585866
v -9.301222 -6.465672 13.585866
v -10.019119 -2.917287 15.333333
v -10.340418 -1.329186 13.585866
v -10.340418 0.821787 13.585866
v -9.622520 4.370172 15.333333
v -9.301222 5.958273 13.585866
v 4.586544 21.127533 13.585866
v 8.139551 21.822193 15.333333
v 9.729721 22.133091 13.585866
v 9.729721 -22.640488 13.585866
v 6.176714 -21.945831 15.333333
v 4.586544 -21.634933 13.585866
v 0.875093 20.366600 9.000000
v 3.113336 21.873791 16.000000
v 3.022648 21.836193 9.000000
v -6.110647 14.412143 9.000000
v -4.619560 16.661144 16.000000
v -4.688684 16.591431 9.000000
v 3.022648 -22.343594 9.000000
v 0.805455 -20.826805 13.585866
v 0.875093 -20.873997 9.000000
v -4.688684 -17.098831 9.000000
v -6.156925 -14.849292 13.585866
v -6.110647 -14.919541 9.000000
v -10.264683 6.239024 9.000000
v -9.748577 8.886231 16.000000
v -9.789906 8.825797 9.000000
v -9.789906 -9.333196 9.000000
v -10.281364 -6.663970 13.585866
v -10.264683 -6.746423 9.000000
v -4.609823 16.670948 17.658356
v -9.748577 8.886231 16.000000
v -9.757664 8.908467 17.658356
v -9.757664 -9.415866 17.658356
v -4.619560 -17.168545 16.000000
v -4.609823 -17.178345 17.658356
v -10.357100 0.739335 9.000000
v -9.284540 6.040725 9.000000
v -9.284540 -6.548124 9.000000
v -10.357100 -1.246734 9.000000
v 3.135852 21.883247 17.658356
v -4.619560 16.661144 16.000000
v -4.609823 16.670948 17.658356
v 4.503984 21.111393 9.000000
v 9.812281 22.149231 9.000000
v 9.812281 -22.656631 9.000000
v 4.503984 -21.618790 9.000000
v 1.436093 -20.046181 9.000000
v -3.041395 -17.011845 9.000000
v -3.041395 16.504444 9.000000
v 1.436093 19.538784 9.000000
v -8.251030 9.345202 9.000000
v -5.275560 13.862026 9.000000
v -5.275560 -14.369425 9.000000
v -8.251030 -9.852601 9.000000
v -4.609823 -17.178345 17.658356
v 3.113336 -22.381191 16.000000
v 3.135852 -22.390648 17.658356
v -9.757664 8.908467 17.658356
v -11.593643 -0.253699 16.000000
v -11.593643 -0.253699 17.658356
v -9.748577 -9.393630 16.000000
v -9.757664 -9.415866 17.658356
v 3.113336 21.873791 16.000000
v 7.947671 22.803612 15.333333
v 5.984835 22.419849 15.333333
v 4.394665 22.108952 13.585866
v 4.312105 22.092812 9.000000
v 3.022648 21.836193 9.000000
v 0.805455 20.319405 13.585866
v -0.535835 19.410431 15.333333
v -2.191467 18.288429 15.333333
v -3.532758 17.379452 13.585866
v -3.602396 17.332260 9.000000
v -6.156925 14.341893 13.585866
v -7.048267 12.988819 15.333333
v -8.148499 11.318643 15.333333
v -9.039841 9.965569 13.585866
v -9.086117 9.895319 9.000000
v -9.789906 8.825797 9.000000
v -10.281364 6.156572 13.585866
v -10.602663 4.568470 15.333333
v -11.337242 0.937634 9.000000
v -11.593901 -0.253699 9.000000
v -11.320560 1.020086 13.585866
v -10.999260 2.608187 15.333333
v 10.835299 23.465851 16.000000
v 3.135852 21.883247 17.658356
v 11.133686 23.519115 17.658356
v -10.602663 -5.075869 15.333333
v -9.789906 -9.333196 9.000000
v -9.086117 -10.402718 9.000000
v -9.748577 -9.393630 16.000000
v -9.039841 -10.472967 13.585866
v -8.148499 -11.826041 15.333333
v 10.835299 23.465851 9.000000
v 12.406357 23.746300 16.000000
v 12.406357 23.746300 9.054356
v 12.406357 23.746300 17.658356
v 12.406357 -24.253700 16.000000
v 10.835299 -23.973251 9.000000
v 12.406357 -24.253700 9.054356
v -7.048267 -13.496218 15.333333
v 3.135852 -22.390648 17.658356
v 10.835299 -23.973251 16.000000
v 11.133686 -24.026516 17.658356
v 12.406357 -24.253700 17.658356
v -4.688684 -17.098831 9.000000
v -3.602396 -17.839661 9.000000
v -4.619560 -17.168545 16.000000
v -3.532758 -17.886852 13.585866
v -2.191467 -18.795830 15.333333
v -0.535835 -19.917828 15.333333
v 3.022648 -22.343594 9.000000
v 4.312105 -22.600208 9.000000
v 3.113336 -22.381191 16.000000
v 4.394665 -22.616352 13.585866
v 5.984835 -22.927250 15.333333
v 7.947671 -23.311008 15.333333
v 9.537842 -23.621906 13.585866
v 9.620401 -23.638050 9.000000
v -10.999260 -3.115586 15.333333
v -11.320560 -1.527485 13.585866
v 9.537842 23.114510 13.585866
v 9.620401 23.130650 9.000000
v -4.688684 16.591431 9.000000
v -11.337242 -1.445033 9.000000
v -10.999260 -3.115586 15.333333
v -10.019119 -2.917287 15.333333
v -9.622520 -4.877571 15.333333
v 10.835299 -23.973251 9.000000
v 9.620401 -23.638050 9.000000
v -11.337242 -1.445033 9.000000
v -11.593901 -0.253699 9.000000
v -4.688684 16.591431 9.000000
v -3.602396 17.332260 9.000000
v 7.947671 22.803612 15.333333
v 9.537842 23.114510 13.585866
v 9.620401 23.130650 9.000000
v 9.620401 23.130650 9.000000
v 10.835299 23.465851 9.000000
v -10.999260 -3.115586 15.333333
v -11.320560 -1.527485 13.585866
v -11.337242 -1.445033 9.000000
v 12.406357 -24.253700 9.054356
v 10.835299 -23.973251 9.000000
v 9.620401 -23.638050 9.000000
v 9.537842 -23.621906 13.585866
v 7.947671 -23.311008 15.333333
v 7.947671 -23.311008 15.333333
v 5.984835 -22.927250 15.333333
v 5.984835 -22.927250 15.333333
v 4.394665 -22.616352 13.585866
v 4.312105 -22.600208 9.000000
v 4.312105 -22.600208 9.000000
v 3.022648 -22.343594 9.000000
v 4.586544 -21.634933 13.585866
v 6.176714 -21.945831 15.333333
v 4.503984 -21.618790 9.000000
v 6.176714 -21.945831 15.333333
v 8.139551 -22.329590 15.333333
v 8.139551 -22.329590 15.333333
v 8.139551 -22.329590 15.333333
v 9.729721 -22.640488 13.585866
v 9.812281 -22.656631 9.000000
v 9.812281 -22.656631 9.000000
v 4.503984 -21.618790 9.000000
v -0.535835 -19.917828 15.333333
v -2.191467 -18.795830 15.333333
v 0.805455 -20.826805 13.585866
v -0.535835 -19.917828 15.333333
v 0.875093 -20.873997 9.000000
v 3.022648 -22.343594 9.000000
v 0.875093 -20.873997 9.000000
v -2.191467 -18.795830 15.333333
v -3.532758 -17.886852 13.585866
v -3.602396 -17.839661 9.000000
v -3.602396 -17.839661 9.000000
v -4.688684 -17.098831 9.000000
v -2.971758 -17.059036 13.585866
v -1.630466 -17.968014 15.333333
v -3.041395 -17.011845 9.000000
v -1.630466 -17.968014 15.333333
v 0.025165 -19.090012 15.333333
v 0.025165 -19.090012 15.333333
v 0.025165 -19.090012 15.333333
v 1.366456 -19.998989 13.585866
v 1.436093 -20.046181 9.000000
v 1.436093 -20.046181 9.000000
v -3.041395 -17.011845 9.000000
v -6.156925 -14.849292 13.585866
v -7.048267 -13.496218 15.333333
v -6.110647 -14.919541 9.000000
v -7.048267 -13.496218 15.333333
v -8.148499 -11.826041 15.333333
v -4.688684 -17.098831 9.000000
v -6.110647 -14.919541 9.000000
v -8.204752 -9.922851 13.585866
v -7.313412 -11.275925 15.333333
v -8.251030 -9.852601 9.000000
v -7.313412 -11.275925 15.333333
v -6.213179 -12.946101 15.333333
v -6.213179 -12.946101 15.333333
v -6.213179 -12.946101 15.333333
v -5.321836 -14.299175 13.585866
v -5.275560 -14.369425 9.000000
v -5.275560 -14.369425 9.000000
v -8.251030 -9.852601 9.000000
v -8.148499 -11.826041 15.333333
v -9.039841 -10.472967 13.585866
v -9.086117 -10.402718 9.000000
v -9.086117 -10.402718 9.000000
v -9.789906 -9.333196 9.000000
v -10.281364 -6.663970 13.585866
v -10.602663 -5.075869 15.333333
v -10.264683 -6.746423 9.000000
v -9.789906 -9.333196 9.000000
v -10.264683 -6.746423 9.000000
v -9.622520 -4.877571 15.333333
v -9.622520 -4.877571 15.333333
v -9.301222 -6.465672 13.585866
v -10.340418 -1.329186 13.585866
v -10.019119 -2.917287 15.333333
v -10.357100 -1.246734 9.000000
v -9.284540 -6.548124 9.000000
v -9.284540 -6.548124 9.000000
v -10.357100 -1.246734 9.000000
v -10.999260 2.608187 15.333333
v -10.602663 4.568470 15.333333
v -11.320560 1.020086 13.585866
v -10.999260 2.608187 15.333333
v -11.337242 0.937634 9.000000
v -11.337242 0.937634 9.000000
v -9.301222 5.958273 13.585866
v -9.622520 4.370172 15.333333
v -9.284540 6.040725 9.000000
v -9.622520 4.370172 15.333333
v -10.019119 2.409889 15.333333
v -10.019119 2.409889 15.333333
v -10.019119 2.409889 15.333333
v -10.340418 0.821787 13.585866
v -10.357100 0.739335 9.000000
v -10.357100 0.739335 9.000000
v -9.284540 6.040725 9.000000
v -10.602663 4.568470 15.333333
v -10.281364 6.156572 13.585866
v -10.264683 6.239024 9.000000
v -10.264683 6.239024 9.000000
v -9.789906 8.825797 9.000000
v -9.789906 8.825797 9.000000
v -9.086117 9.895319 9.000000
v -9.086117 9.895319 9.000000
v -9.039841 9.965569 13.585866
v -8.148499 11.318643 15.333333
v -8.148499 11.318643 15.333333
v -7.048267 12.988819 15.333333
v -5.321836 13.791777 13.585866
v -6.213179 12.438703 15.333333
v -5.275560 13.862026 9.000000
v -6.213179 12.438703 15.333333
v -7.313412 10.768526 15.333333
v -7.313412 10.768526 15.333333
v -7.313412 10.768526 15.333333
v -8.204752 9.415452 13.585866
v -8.251030 9.345202 9.000000
v -8.251030 9.345202 9.000000
v -5.275560 13.862026 9.000000
v -7.048267 12.988819 15.333333
v -6.156925 14.341893 13.585866
v -6.110647 14.412143 9.000000
v -6.110647 14.412143 9.000000
v -4.688684 16.591431 9.000000
v -3.602396 17.332260 9.000000
v -3.532758 17.379452 13.585866
v -2.191467 18.288429 15.333333
v -2.191467 18.288429 15.333333
v -0.535835 19.410431 15.333333
v 1.366456 19.491589 13.585866
v 0.025165 18.582615 15.333333
v 1.436093 19.538784 9.000000
v 0.025165 18.582615 15.333333
v -1.630466 17.460613 15.333333
v -1.630466 17.460613 15.333333
v -1.630466 17.460613 15.333333
v -2.971758 16.551640 13.585866
v -3.041395 16.504444 9.000000
v -3.041395 16.504444 9.000000
v 1.436093 19.538784 9.000000
v -0.535835 19.410431 15.333333
v 0.805455 20.319405 13.585866
v 0.875093 20.366600 9.000000
v 0.875093 20.366600 9.000000
v 3.022648 21.836193 9.000000
v 3.022648 21.836193 9.000000
v 4.312105 22.092812 9.000000
v 4.312105 22.092812 9.000000
v 4.394665 22.108952 13.585866
v 5.984835 22.419849 15.333333
v 5.984835 22.419849 15.333333
v 7.947671 22.803612 15.333333
v 9.729721 22.133091 13.585866
v 8.139551 21.822193 15.333333
v 9.812281 22.149231 9.000000
v 8.139551 21.822193 15.333333
v 6.176714 21.438431 15.333333
v 6.176714 21.438431 15.333333
v 6.176714 21.438431 15.333333
v 4.586544 21.127533 13.585866
v 4.503984 21.111393 9.000000
v 4.503984 21.111393 9.000000
v 9.812281 22.149231 9.000000
v 10.835299 23.465851 9.000000
v 12.406357 23.746300 9.054356
v -10.602663 -5.075869 15.333333
v 12.406357 23.746300 3.015372
v 11.131744 25.327877 0.000000
v 12.406357 25.835274 3.015372
v 1.820602 -21.490456 0.000000
v -4.765074 -18.701389 0.000000
v -4.564205 -17.224262 0.000000
v -4.765074 -18.701389 3.015372
v 2.090924 -21.671078 3.015372
v -4.564205 -17.224262 3.015372
v 3.221954 21.919411 0.000000
v 7.115318 22.693848 3.015372
v 10.059734 23.279530 0.000000
v 10.835299 23.465851 9.000000
v 2.902953 22.314758 9.000000
v 9.620401 23.130650 9.000000
v 4.312105 22.092812 9.000000
v -4.564205 16.716862 0.000000
v 2.175473 22.831516 0.000000
v 1.820602 20.983055 0.000000
v 7.115318 -23.201248 3.015372
v 11.844010 -25.059399 3.015372
v 12.406357 -24.253700 3.015372
v 10.059734 -23.786926 0.000000
v 7.931044 -25.198616 3.015372
v 7.115318 -23.201248 3.015372
v 10.059734 23.279530 0.000000
v 7.931044 24.691216 3.015372
v 11.131744 25.327877 0.000000
v 3.022648 21.836193 9.000000
v -3.602396 17.332260 9.000000
v 0.875093 20.366600 9.000000
v 12.406357 -24.253700 8.000000
v 7.115318 -23.201248 3.015372
v 12.406357 -24.253700 3.015372
v 2.469324 23.027863 3.015372
v -4.564205 16.716862 3.015372
v 2.090924 21.163681 3.015372
v 3.221954 21.919411 0.000000
v 3.221954 21.919411 8.000000
v 3.447092 21.409206 3.036798
v -9.766752 -9.438102 8.000000
v -11.593643 -0.253699 3.015372
v -10.527424 -5.613950 3.015372
v -11.593643 -0.253699 3.015372
v -9.766752 8.930703 8.000000
v -10.527424 5.106552 3.015372
v 7.931044 24.691216 3.015372
v 12.406357 23.746300 3.015372
v 12.406357 25.835274 3.015372
v 12.406357 -24.253700 3.015372
v 11.131744 -25.835274 0.000000
v 12.406357 -24.253700 0.000000
v 10.835299 23.465851 8.000000
v 2.902953 22.314758 8.000000
v 10.733536 23.952435 8.000000
v -4.765074 18.193993 0.000000
v -9.766752 8.930703 0.000000
v -10.420452 9.730119 0.000000
v 10.835299 -23.973251 8.000000
v 2.902953 -22.822155 8.000000
v 3.221954 -22.426807 8.000000
v -4.765074 18.193993 3.015372
v -9.766752 8.930703 3.015372
v -4.564205 16.716862 3.015372
v -10.497688 -5.763433 0.000000
v -12.406357 -0.253699 0.000000
v -11.593643 -0.253699 0.000000
v -11.593643 -0.253699 0.000000
v -11.215010 5.735605 0.000000
v -10.497688 5.256034 0.000000
v -4.688684 16.591431 9.000000
v 2.902953 22.314758 9.000000
v -4.953793 17.016945 9.000000
v -4.688684 16.591431 9.000000
v -10.210922 9.132918 9.000000
v -6.110647 14.412143 9.000000
v -9.086117 9.895319 9.000000
v -12.406357 -0.253699 3.015372
v -10.527424 -5.613950 3.015372
v -11.593643 -0.253699 3.015372
v -12.406357 -0.253699 3.015372
v -10.527424 5.106552 3.015372
v -11.247332 5.573111 3.015372
v 2.090924 -21.671078 3.015372
v 1.121318 -21.875713 0.175447
v 1.820602 -21.490456 0.000000
v 2.090924 -21.671078 3.015372
v -4.564205 -17.224262 8.000000
v -4.564205 -17.224262 3.015372
v 2.090924 21.163681 3.015372
v -4.564205 16.716862 8.000000
v -9.766752 -9.438102 8.000000
v -12.081202 -0.350681 8.000000
v -11.593643 -0.253699 8.000000
v -9.766752 8.930703 8.000000
v -12.081202 -0.156718 8.000000
v -10.210922 9.132918 8.000000
v 1.121318 -21.875713 0.175447
v -4.765074 -18.701389 3.015372
v -4.765074 -18.701389 0.000000
v 2.090924 21.163681 3.015372
v 2.175473 22.831516 0.000000
v 2.469324 23.027863 3.015372
v -11.247332 -6.080510 3.015372
v -10.497688 -5.763433 0.000000
v -10.527424 -5.613950 3.015372
v -11.247332 5.573111 3.015372
v -10.497688 5.256034 0.000000
v -11.215010 5.735605 0.000000
v -9.766752 8.930703 8.000000
v -9.789906 8.825797 9.000000
v -12.081202 -0.156718 9.000000
v -10.264683 6.239024 9.000000
v -11.593901 -0.253699 9.000000
v -11.337242 0.937634 9.000000
v 12.406357 -24.253700 9.054356
v 10.835299 -23.973251 8.000000
v 12.406357 -24.253700 8.000000
v 10.835299 23.465851 8.000000
v 12.406357 23.746300 9.054356
v 12.406357 23.746300 8.000000
v -10.264683 -6.746423 9.000000
v -11.337242 -1.445033 9.000000
v -4.953793 17.016945 8.000000
v -10.210922 9.132918 9.000000
v -4.953793 17.016945 9.000000
v -4.953793 -17.524342 8.000000
v -10.210922 -9.640317 9.000000
v -10.210922 -9.640317 8.000000
v -11.593643 -0.253699 8.000000
v -12.081202 -0.350681 9.000000
v -11.593901 -0.253699 9.000000
v -9.355856 -7.717714 3.031888
v -9.766752 -9.438102 3.015372
v 9.620401 -23.638050 9.000000
v 4.503984 -21.618790 9.000000
v 4.312105 -22.600208 9.000000
v -12.081202 -0.156718 8.000000
v -11.593901 -0.253699 9.000000
v -12.081202 -0.156718 9.000000
v -6.110647 -14.919541 9.000000
v -8.251030 -9.852601 9.000000
v -9.086117 -10.402718 9.000000
v 9.812281 22.149231 9.000000
v 8.139551 -22.329590 15.333333
v 5.984835 -22.927250 15.333333
v 6.176714 -21.945831 15.333333
v -4.564205 -17.224262 3.015372
v -9.766752 -9.438102 8.000000
v -9.766752 -9.438102 3.015372
v 2.902953 -22.822155 8.000000
v -4.953793 -17.524342 9.000000
v -4.953793 -17.524342 8.000000
v 0.875093 -20.873997 9.000000
v -3.041395 -17.011845 9.000000
v -3.602396 -17.839661 9.000000
v -6.213179 -12.946101 15.333333
v -8.148499 -11.826041 15.333333
v -7.313412 -11.275925 15.333333
v -10.210922 -9.640317 9.000000
v -9.789906 -9.333196 9.000000
v -9.789906 -9.333196 9.000000
v -10.210922 -9.640317 9.000000
v -10.357100 -1.246734 9.000000
v 0.025165 -19.090012 15.333333
v -2.191467 -18.795830 15.333333
v -1.630466 -17.968014 15.333333
v 10.733536 23.952435 8.000000
v 2.902953 22.314758 9.000000
v 10.733536 23.952435 9.000000
v 10.733536 23.952435 9.000000
v 10.835299 23.465851 8.000000
v 10.733536 23.952435 8.000000
v 2.902953 -22.822155 9.000000
v 2.902953 -22.822155 9.000000
v 10.733536 -24.459831 9.000000
v 10.733536 -24.459831 8.000000
v 2.902953 -22.822155 8.000000
v -9.766752 -9.438102 3.015372
v -4.765074 -18.701389 3.015372
v -4.564205 -17.224262 3.015372
v 10.733536 -24.459831 9.000000
v 10.835299 -23.973251 8.000000
v 10.835299 -23.973251 9.000000
v 8.139551 21.822193 15.333333
v 5.984835 22.419849 15.333333
v 7.947671 22.803612 15.333333
v 2.902953 22.314758 8.000000
v -4.953793 17.016945 9.000000
v 2.902953 22.314758 9.000000
v -4.765074 -18.701389 0.000000
v -10.420452 -10.237517 3.015372
v -10.420452 -10.237517 0.000000
v -12.081202 -0.156718 8.000000
v -10.210922 9.132918 9.000000
v -10.210922 9.132918 8.000000
v 1.436093 19.538784 9.000000
v -9.766752 -9.438102 0.000000
v -4.765074 -18.701389 0.000000
v -10.420452 -10.237517 0.000000
v 0.025165 18.582615 15.333333
v -2.191467 18.288429 15.333333
v -0.535835 19.410431 15.333333
v -9.766752 8.930703 3.015372
v -4.564205 16.716862 8.000000
v -4.564205 16.716862 3.015372
v -9.766752 -9.438102 0.000000
v -10.420452 -10.237517 3.015372
v -9.766752 -9.438102 3.015372
v -5.275560 13.862026 9.000000
v -6.213179 12.438703 15.333333
v -8.148499 11.318643 15.333333
v -7.048267 12.988819 15.333333
v -4.688684 -17.098831 9.000000
v 2.902953 -22.822155 9.000000
v 3.022648 -22.343594 9.000000
v -10.420452 9.730119 0.000000
v -9.766752 8.930703 3.015372
v -10.420452 9.730119 3.015372
v -4.688684 -17.098831 9.000000
v -4.953793 -17.524342 9.000000
v -9.284540 6.040725 9.000000
v -9.622520 4.370172 15.333333
v -10.999260 2.608187 15.333333
v -10.602663 4.568470 15.333333
v -10.210922 -9.640317 8.000000
v -12.081202 -0.350681 9.000000
v -12.081202 -0.350681 8.000000
v -9.622520 -4.877571 15.333333
v -10.999260 -3.115586 15.333333
v -10.019119 -2.917287 15.333333
v -9.355856 -7.717714 3.031888
v -9.766752 -9.438102 0.000000
v -9.766752 -9.438102 3.015372
v -10.497688 -5.763433 0.000000
v -10.121473 -7.654795 0.000000
v -9.766752 8.930703 0.000000
v -9.355856 7.210315 3.031888
v -9.766752 8.930703 3.015372
v -10.121473 7.147396 0.000000
v -10.527424 5.106552 3.015372
v 3.447092 -21.916607 3.036798
v 1.820602 -21.490456 0.000000
v 3.221954 -22.426807 0.000000
v 7.115318 -23.201248 3.015372
v 10.059734 -23.786926 0.000000
v 10.835299 23.465851 8.000000
v 3.447092 21.409206 3.036798
v 3.221954 21.919411 8.000000
v 12.406357 23.746300 8.000000
v 12.406357 23.746300 3.015372
v 3.221954 -22.426807 8.000000
v 10.835299 -23.973251 8.000000
v 3.221954 21.919411 8.000000
v -4.953793 17.016945 8.000000
v 2.902953 22.314758 8.000000
v -4.564205 16.716862 8.000000
v -10.210922 9.132918 8.000000
v 3.022648 -22.343594 9.000000
v -4.564205 -17.224262 8.000000
v 2.902953 -22.822155 8.000000
v -4.953793 -17.524342 8.000000
v -9.766752 -9.438102 8.000000
v -10.210922 -9.640317 8.000000
v -12.406357 -0.253699 0.000000
v -11.247332 -6.080510 3.015372
v -12.406357 -0.253699 3.015372
v -11.215010 5.735605 0.000000
v -11.247332 5.573111 3.015372
v -2.971758 16.551640 13.585866
v -3.602396 17.332260 9.000000
v -3.532758 17.379452 13.585866
v -1.630466 17.460613 15.333333
v -2.191467 18.288429 15.333333
v 2.090924 -21.671078 3.015372
v 3.221954 -22.426807 8.000000
v -8.148499 -11.826041 15.333333
v -8.204752 -9.922851 13.585866
v -7.313412 -11.275925 15.333333
v -9.039841 -10.472967 13.585866
v -8.251030 -9.852601 9.000000
v 10.835299 -23.973251 9.000000
v -2.191467 -18.795830 15.333333
v -2.971758 -17.059036 13.585866
v -1.630466 -17.968014 15.333333
v -3.532758 -17.886852 13.585866
v -3.041395 -17.011845 9.000000
v -9.301222 -6.465672 13.585866
v -10.264683 -6.746423 9.000000
v -10.281364 -6.663970 13.585866
v 1.820602 20.983055 0.000000
v -9.622520 -4.877571 15.333333
v -10.602663 -5.075869 15.333333
v 11.131744 -25.835274 0.000000
v 10.059734 -23.786926 0.000000
v 12.406357 -24.253700 0.000000
v 11.131744 -25.835274 0.000000
v 11.844010 -25.059399 3.015372
v 7.931044 -25.198616 3.015372
v 10.059734 23.279530 0.000000
v 11.131744 25.327877 0.000000
v 12.406357 23.746300 0.000000
v -10.340418 0.821787 13.585866
v -11.337242 0.937634 9.000000
v -11.320560 1.020086 13.585866
v 7.931044 24.691216 3.015372
v 12.406357 25.835274 3.015372
v 11.131744 25.327877 0.000000
v -10.019119 2.409889 15.333333
v -10.999260 2.608187 15.333333
v 2.175473 22.831516 0.000000
v -4.765074 18.193993 3.015372
v 2.469324 23.027863 3.015372
v -4.765074 18.193993 0.000000
v -10.420452 9.730119 3.015372
v 1.366456 -19.998989 13.585866
v 0.875093 -20.873997 9.000000
v 0.805455 -20.826805 13.585866
v 0.025165 -19.090012 15.333333
v -0.535835 -19.917828 15.333333
v -9.301222 5.958273 13.585866
v -10.602663 4.568470 15.333333
v -10.281364 6.156572 13.585866
v -9.284540 6.040725 9.000000
v -10.264683 6.239024 9.000000
v 1.366456 19.491589 13.585866
v -0.535835 19.410431 15.333333
v 0.805455 20.319405 13.585866
v 1.436093 19.538784 9.000000
v 0.875093 20.366600 9.000000
v -5.275560 13.862026 9.000000
v -6.156925 14.341893 13.585866
v -6.110647 14.412143 9.000000
v -5.321836 13.791777 13.585866
v -7.048267 12.988819 15.333333
v -5.321836 -14.299175 13.585866
v -6.110647 -14.919541 9.000000
v -6.156925 -14.849292 13.585866
v -6.213179 -12.946101 15.333333
v -7.048267 -13.496218 15.333333
v -10.999260 -3.115586 15.333333
v -10.340418 -1.329186 13.585866
v -10.019119 -2.917287 15.333333
v -11.320560 -1.527485 13.585866
v -10.357100 -1.246734 9.000000
v 5.984835 -22.927250 15.333333
v 4.586544 -21.634933 13.585866
v 6.176714 -21.945831 15.333333
v 4.394665 -22.616352 13.585866
v 4.503984 -21.618790 9.000000
v 6.176714 21.438431 15.333333
v 4.394665 22.108952 13.585866
v 5.984835 22.419849 15.333333
v 4.586544 21.127533 13.585866
v 4.312105 22.092812 9.000000
v -8.204752 9.415452 13.585866
v -9.086117 9.895319 9.000000
v -9.039841 9.965569 13.585866
v -7.313412 10.768526 15.333333
v -8.148499 11.318643 15.333333
v 9.729721 22.133091 13.585866
v 7.947671 22.803612 15.333333
v 9.537842 23.114510 13.585866
v 9.812281 22.149231 9.000000
v 9.620401 23.130650 9.000000
v 9.537842 -23.621906 13.585866
v 8.139551 -22.329590 15.333333
v 9.729721 -22.640488 13.585866
v 9.620401 -23.638050 9.000000
v 9.812281 -22.656631 9.000000
v 2.902953 22.314758 8.000000
v 10.835299 23.465851 9.000000
v 3.221954 21.919411 8.000000
v -4.765074 18.193993 0.000000
v 1.820602 20.983055 0.000000
v 10.733536 23.952435 9.000000
v 10.835299 23.465851 9.000000
v 11.131744 -25.835274 0.000000
v 7.931044 -25.198616 3.015372
v 11.844010 -25.059399 3.015372
v -11.593643 -0.253699 8.000000
v 7.115318 22.693848 3.015372
v 10.733536 -24.459831 9.000000
v 10.835299 -23.973251 9.000000
v 10.733536 -24.459831 8.000000
v 10.733536 -24.459831 8.000000
v 3.221954 -22.426807 8.000000
v 3.221954 -22.426807 8.000000
v 2.902953 -22.822155 9.000000
v 7.947671 -23.311008 15.333333
v 9.812281 -22.656631 9.000000
v 4.312105 -22.600208 9.000000
v 1.121318 -21.875713 0.175447
v 1.415169 -22.072056 3.190819
v 1.415169 -22.072056 3.190819
v 1.415169 -22.072056 3.190819
v 1.436093 -20.046181 9.000000
v -0.535835 -19.917828 15.333333
v -4.564205 -17.224262 0.000000
v -4.765074 -18.701389 3.015372
v -4.953793 -17.524342 9.000000
v -4.953793 -17.524342 9.000000
v -4.564205 -17.224262 8.000000
v -3.602396 -17.839661 9.000000
v -5.275560 -14.369425 9.000000
v -7.048267 -13.496218 15.333333
v -10.420452 -10.237517 0.000000
v -10.420452 -10.237517 3.015372
v -10.210922 -9.640317 8.000000
v -10.210922 -9.640317 9.000000
v -10.527424 -5.613950 3.015372
v -11.215010 -6.243003 0.000000
v -11.215010 -6.243003 0.000000
v -11.215010 -6.243003 0.000000
v -11.247332 -6.080510 3.015372
v -9.284540 -6.548124 9.000000
v -10.602663 -5.075869 15.333333
v -12.081202 -0.350681 8.000000
v -11.593643 -0.253699 8.000000
v -11.593643 -0.253699 3.015372
v -12.081202 -0.350681 9.000000
v -11.593643 -0.253699 8.000000
v -12.406357 -0.253699 0.000000
v -12.081202 -0.156718 9.000000
v -10.357100 0.739335 9.000000
v -10.019119 2.409889 15.333333
v -9.622520 4.370172 15.333333
v -10.527424 5.106552 3.015372
v -10.497688 5.256034 0.000000
v -10.210922 9.132918 9.000000
v -9.789906 8.825797 9.000000
v -9.766752 8.930703 3.015372
v -9.766752 8.930703 8.000000
v 7.115318 22.693848 3.015372
v -10.527424 5.106552 3.015372
v -9.355856 7.210315 3.031888
v -9.766752 8.930703 0.000000
v -10.210922 9.132918 8.000000
v -9.766752 8.930703 8.000000
v -10.420452 9.730119 3.015372
v -10.420452 9.730119 0.000000
v -8.251030 9.345202 9.000000
v -7.313412 10.768526 15.333333
v -6.213179 12.438703 15.333333
v -4.953793 17.016945 9.000000
v -4.564205 16.716862 3.015372
v -4.765074 18.193993 3.015372
v -4.953793 17.016945 8.000000
v -4.564205 16.716862 0.000000
v -3.041395 16.504444 9.000000
v -1.630466 17.460613 15.333333
v 0.025165 18.582615 15.333333
v 3.022648 21.836193 9.000000
v 4.503984 21.111393 9.000000
v 6.176714 21.438431 15.333333
v 8.139551 21.822193 15.333333
v 12.406357 23.746300 0.000000
v 4.503984 21.111393 9.000000
v -3.041395 16.504444 9.000000
v -8.251030 9.345202 9.000000
v -10.357100 0.739335 9.000000
v -11.337242 -1.445033 9.000000
v -9.284540 -6.548124 9.000000
v -9.086117 -10.402718 9.000000
v -5.275560 -14.369425 9.000000
v 1.436093 -20.046181 9.000000
v 7.947671 -23.311008 15.333333
vn -0.5610 0.8278 -0.0000
vn -0.5610 -0.8278 -0.0000
vn -0.4294 -0.6337 0.6434
vn -0.5611 -0.8278 -0.0000
vn -0.8351 0.5501 -0.0000
vn -0.8351 -0.5501 -0.0000
vn -0.9801 -0.1983 -0.0000
vn -0.9801 0.1983 -0.0000
vn -0.1919 0.9814 -0.0000
vn -0.1919 -0.9814 -0.0000
vn -0.2540 0.3726 0.8925
vn -0.3863 0.9224 -0.0069
vn -0.2540 0.3712 0.8931
vn -0.3772 0.2471 0.8925
vn -0.7107 0.7035 -0.0010
vn -0.3767 0.2458 0.8931
vn -0.2536 -0.3719 0.8929
vn -0.5606 -0.8281 -0.0008
vn -0.2549 -0.3725 0.8923
vn -0.3766 -0.2466 0.8930
vn -0.8353 -0.5498 0.0023
vn -0.3780 -0.2467 0.8923
vn -0.4431 0.0826 0.8927
vn -0.9253 0.3791 -0.0026
vn -0.4412 0.0810 0.8937
vn -0.4415 -0.0822 0.8935
vn -0.9815 -0.1915 -0.0044
vn -0.4440 -0.0815 0.8923
vn -0.5886 0.3885 0.7090
vn -0.9253 0.3792 -0.0026
vn -0.9244 0.3815 -0.0048
vn -0.5947 -0.3926 0.7016
vn -0.7106 -0.7036 -0.0010
vn -0.7100 -0.7042 -0.0025
vn -0.3929 0.5830 0.7112
vn -0.7106 0.7036 -0.0009
vn -0.7101 0.7041 -0.0025
vn -0.3964 -0.5882 0.7049
vn -0.3862 -0.9224 -0.0069
vn -0.3872 -0.9220 0.0007
vn -0.6929 0.1398 0.7073
vn -1.0000 -0.0000 -0.0049
vn -1.0000 -0.0000 -0.0041
vn -0.9254 -0.3791 -0.0026
vn -0.9243 -0.3815 -0.0049
vn -0.3863 0.9223 -0.0069
vn -0.1671 0.7944 0.5839
vn -0.1508 0.7759 0.6125
vn -0.1957 0.9805 -0.0201
vn 0.0874 -0.4433 -0.8921
vn -0.0868 0.4360 0.8957
vn -0.5606 0.8281 -0.0008
vn -0.4390 0.6509 0.6193
vn -0.4427 0.6549 0.6125
vn -0.5589 0.8292 -0.0025
vn 0.2539 -0.3737 -0.8921
vn -0.8353 0.5498 0.0022
vn -0.6522 0.4305 0.6240
vn -0.6539 0.4306 0.6221
vn -0.8352 0.5500 0.0015
vn 0.3770 -0.2480 -0.8924
vn -0.3715 0.2445 0.8957
vn -0.9815 0.1915 -0.0044
vn -0.7767 0.1564 0.6102
vn -0.4413 0.0951 0.8923
vn -1.0000 -0.0000 -0.0001
vn -0.9790 0.2040 -0.0057
vn -0.7752 0.1575 0.6118
vn -0.2037 0.9790 -0.0076
vn -0.3872 0.9220 0.0006
vn -0.1885 0.9821 0.0004
vn -0.7767 -0.1564 0.6102
vn -0.3715 -0.2445 0.8957
vn -0.3770 -0.2480 0.8924
vn -0.9253 -0.3791 -0.0026
vn -0.8352 -0.5500 0.0014
vn -0.6529 -0.4304 0.6232
vn -0.1555 0.6856 0.7112
vn -0.1757 0.9844 -0.0000
vn -0.1256 0.7035 0.6995
vn -0.1757 -0.9844 -0.0000
vn -0.1557 -0.6853 0.7114
vn -0.1758 -0.9844 -0.0001
vn -0.6513 -0.4294 0.6256
vn -0.1434 -0.6964 0.7032
vn -0.2036 -0.9790 -0.0076
vn -0.1885 -0.9821 0.0005
vn -0.2504 -0.3672 0.8958
vn -0.2539 -0.3737 0.8921
vn -0.7106 -0.7036 -0.0009
vn -0.5589 -0.8292 -0.0025
vn -0.4427 -0.6549 0.6125
vn -0.4390 -0.6509 0.6193
vn -0.0868 -0.4360 0.8958
vn -0.0874 -0.4433 0.8921
vn -0.1957 -0.9805 -0.0201
vn -0.1590 -0.7877 0.5951
vn -0.1639 -0.8079 0.5661
vn -0.2326 -0.9724 -0.0194
vn 0.1197 0.4352 -0.8923
vn -0.7752 -0.1575 0.6118
vn -0.9790 -0.2040 -0.0056
vn -0.2326 0.9724 -0.0195
vn -0.1201 0.4353 0.8922
vn -0.2505 0.3673 0.8958
vn -0.4413 -0.0950 0.8923
vn 0.1981 -0.9791 0.0452
vn -0.0000 -0.0000 1.0000
vn 0.1930 -0.9538 -0.2302
vn -0.1978 0.9778 -0.0691
vn -0.9644 -0.1886 0.1854
vn -0.4369 -0.0854 0.8954
vn 0.1983 -0.9799 0.0203
vn 0.0812 -0.4015 0.9123
vn -0.9671 0.1731 -0.1862
vn -0.8361 0.5449 0.0638
vn -0.4845 0.0948 -0.8696
vn 0.9809 -0.1918 0.0333
vn 0.7840 -0.1533 0.6015
vn 0.4775 -0.0934 0.8737
vn 0.2872 0.1266 -0.9495
vn -0.8950 -0.0883 0.4372
vn 0.8354 -0.1634 -0.5247
vn 0.6343 -0.1240 0.7630
vn 0.8309 -0.1625 -0.5322
vn -0.9640 0.1885 0.1878
vn 0.8385 -0.1639 -0.5197
vn -0.7301 0.1427 -0.6683
vn -0.8990 -0.4371 0.0263
vn -0.4512 0.0882 0.8881
vn -0.9697 0.1896 0.1538
vn 0.8207 -0.5562 0.1308
vn -0.4202 0.6597 -0.6230
vn -0.7170 0.4859 0.4998
vn 0.8066 -0.5466 0.2251
vn 0.3553 -0.2408 0.9032
vn 0.0978 -0.1121 -0.9889
vn 0.5394 -0.3656 0.7585
vn 0.4270 -0.2894 0.8567
vn 0.8278 -0.5610 -0.0000
vn -0.8278 0.5610 0.0001
vn 0.6428 -0.4356 -0.6302
vn -0.7848 0.5319 0.3181
vn -0.1289 0.8739 0.4688
vn -0.5358 0.3631 0.7622
vn 0.8012 -0.5434 -0.2507
vn -0.0047 0.8157 -0.5785
vn -0.5340 0.8099 -0.2427
vn 0.4672 -0.7092 0.5280
vn -0.0081 -0.8380 -0.5456
vn -0.0775 0.9205 -0.3831
vn 0.5343 -0.8111 0.2381
vn 0.2807 -0.4261 0.8600
vn 0.5442 -0.8261 -0.1465
vn -0.5495 0.8341 -0.0484
vn 0.4634 -0.7034 -0.5390
vn -0.4466 0.6780 -0.5839
vn 0.0066 0.8487 -0.5289
vn -0.2822 0.4284 0.8584
vn 0.3675 -0.5579 -0.7441
vn 0.5500 -0.8349 0.0234
vn 0.2934 -0.4453 0.8459
vn -0.6158 0.6147 -0.4929
vn 0.0635 -0.3148 -0.9470
vn 0.1675 -0.8281 -0.5349
vn -0.1942 0.9599 0.2023
vn -0.1683 -0.3015 -0.9385
vn -0.0684 0.9424 -0.3275
vn 0.1981 -0.9792 -0.0448
vn 0.1009 -0.4989 0.8607
vn 0.0293 -0.0195 -0.9994
vn -0.1249 0.6174 0.7767
vn 0.1880 -0.9293 -0.3178
vn -0.1983 -0.9801 -0.0033
vn -0.0717 0.2641 -0.9618
vn 0.1873 0.9256 -0.3288
vn -0.8105 -0.4785 0.3378
vn 0.5548 0.6494 -0.5201
vn -0.1939 -0.9570 -0.2158
vn -0.1012 -0.5001 0.8601
vn -0.1983 -0.9801 -0.0000
vn 0.1954 0.9659 -0.1699
vn -0.1716 -0.8481 -0.5013
vn 0.1982 0.9799 0.0239
vn 0.5829 0.2821 0.7621
vn 0.1673 0.8270 0.5367
vn 0.1968 0.9729 -0.1214
vn -0.1882 -0.9304 -0.3144
vn -0.1012 -0.5004 0.8598
vn 0.1639 0.4340 -0.8859
vn 0.5502 0.8351 0.0037
vn -0.5413 -0.8217 0.1786
vn 0.0080 -0.8416 -0.5400
vn 0.8208 0.5454 -0.1700
vn -0.3886 -0.5898 -0.7079
vn -0.2547 -0.3867 0.8863
vn -0.5479 -0.8318 0.0888
vn 0.5495 0.8341 -0.0490
vn -0.4694 -0.7125 -0.5216
vn 0.5500 0.8348 0.0240
vn -0.0000 0.0001 -1.0000
vn 0.4221 0.6408 0.6412
vn -0.4284 -0.6502 0.6275
vn -0.4653 -0.7063 0.5336
vn -0.2809 -0.4264 0.8598
vn 0.6544 0.0593 -0.7538
vn 0.7100 0.4811 -0.5143
vn -0.8043 -0.5451 -0.2368
vn -0.9344 -0.0247 -0.3555
vn 0.4009 0.8327 0.3820
vn -0.3667 -0.2485 -0.8965
vn -0.5935 -0.4022 0.6971
vn -0.8278 -0.5610 0.0113
vn 0.8152 0.5525 -0.1737
vn -0.6353 -0.4305 -0.6412
vn 0.7986 0.5412 0.2632
vn 0.1008 0.3838 -0.9179
vn 0.4059 0.2751 0.8716
vn -0.8151 -0.5523 0.1747
vn -0.6367 -0.4315 0.6391
vn -0.1254 -0.0850 0.9885
vn 0.4158 0.3550 -0.8373
vn 0.9720 0.1900 0.1382
vn -0.9799 -0.1916 0.0551
vn -0.3154 0.1463 -0.9376
vn 0.6988 0.6556 0.2862
vn -0.9755 -0.1907 0.1101
vn -0.3404 -0.0665 0.9379
vn -0.9813 -0.1919 0.0139
vn 0.9804 0.1917 -0.0461
vn -0.9806 -0.1917 -0.0416
vn -0.2227 -0.3309 -0.9170
vn 0.6286 0.7138 0.3087
vn 0.4804 0.0939 0.8720
vn -0.9564 -0.1869 0.2243
vn -0.9844 -0.1757 0.0015
vn 1.0000 -0.0000 -0.0000
vn -0.4055 -0.1888 -0.8944
vn 0.4500 -0.0000 0.8930
vn 0.1752 0.4136 -0.8934
vn 0.0085 0.0200 -0.9998
vn -0.0165 -0.0390 -0.9991
vn 0.0020 0.0045 1.0000
vn 0.0239 0.0551 0.9982
vn -0.1805 0.6359 0.7504
vn -0.2239 0.8134 0.5368
vn -0.4050 0.7414 -0.5351
vn -0.0000 -0.0000 -1.0000
vn 0.5797 0.2855 -0.7632
vn -0.5795 -0.2543 0.7743
vn -0.3261 -0.1332 0.9359
vn 0.5797 -0.2855 -0.7632
vn -0.5794 0.2543 0.7744
vn 0.2870 -0.1502 -0.9461
vn -0.1321 -0.6983 0.7035
vn 0.1140 0.5708 -0.8132
vn -0.1866 -0.9824 -0.0024
vn -0.3763 0.9087 0.1805
vn -0.2197 0.3854 0.8962
vn -0.2973 0.9548 -0.0081
vn -0.4493 -0.0805 0.8897
vn -0.4386 -0.0872 0.8944
vn -0.6995 -0.2062 0.6842
vn -0.4386 0.0872 0.8944
vn -0.2720 0.0541 0.9608
vn -0.6995 0.2062 0.6842
vn 0.5773 -0.4257 0.6967
vn -0.2892 0.2263 -0.9301
vn 0.7998 -0.6002 -0.0114
vn 0.2455 -0.4413 0.8631
vn -0.2348 0.4430 -0.8652
vn 0.1957 -0.3733 0.9068
vn -0.2805 -0.4197 0.8632
vn -0.2485 -0.3718 0.8944
vn -0.4654 0.6966 0.5461
vn -0.2485 0.3718 0.8944
vn -0.2294 -0.4220 0.8771
vn -0.2157 -0.3988 0.8913
vn 0.2094 0.3883 -0.8974
vn 0.4697 -0.0935 0.8779
vn 0.4709 -0.0922 0.8773
vn 0.4320 -0.0877 0.8976
vn 0.2418 -0.3710 0.8966
vn 0.2448 -0.3682 0.8969
vn 0.2362 -0.3645 0.9007
vn 0.2418 0.3710 0.8966
vn -0.2448 -0.3682 -0.8969
vn 0.2408 0.3601 0.9013
vn -0.2089 0.0318 0.9774
vn -0.0001 -0.0000 1.0000
vn -0.0786 -0.4403 0.8944
vn -0.0786 0.4403 0.8944
vn -0.1243 0.6961 0.7071
vn -0.3721 0.2481 0.8944
vn -0.3720 0.2481 0.8945
vn -0.3721 -0.2481 0.8944
vn -0.1952 0.9808 -0.0001
vn -0.9891 -0.1340 -0.0617
vn -0.4329 0.1034 0.8955
vn -0.1952 -0.9808 -0.0000
vn 0.3926 -0.0767 0.9165
vn -0.3718 -0.2485 0.8944
vn 0.3718 0.2485 -0.8944
vn -0.2500 -0.3708 0.8944
vn 0.0246 -0.0000 -0.9997
vn -0.0257 -0.0000 -0.9997
vn -0.9386 -0.2010 -0.2805
vn 0.3311 -0.2244 -0.9165
vn -0.0915 0.4377 0.8944
vn 0.9788 0.2047 -0.0000
vn -0.0915 -0.4377 0.8944
vn 0.9788 -0.2047 -0.0000
vn -0.3862 -0.0775 -0.9191
vn 0.3956 0.0765 -0.9152
vn 0.4639 -0.0000 -0.8859
vn -0.2500 0.3708 0.8944
vn -0.3718 -0.2484 0.8945
vn -0.4384 0.0883 0.8944
vn 0.0003 0.0002 -1.0000
vn -0.3317 -0.2243 -0.9163
vn 0.3188 0.2294 -0.9197
vn -0.3718 0.2485 0.8944
vn -0.3462 0.2831 0.8944
vn -0.3462 0.2831 0.8945
vn -0.2179 -0.3351 -0.9166
vn 0.2026 0.3433 -0.9171
vn 0.9876 -0.0000 -0.1572
vn 0.3462 0.2831 -0.8944
vn -0.3462 -0.2831 0.8944
vn -0.3462 -0.2831 0.8945
vn -0.0941 -0.3860 -0.9177
vn 0.0432 0.4080 -0.9119
vn -0.4384 -0.0883 0.8944
vn -0.0087 -0.0000 -1.0000
vn -0.0215 -0.0000 -0.9998
vn 0.8336 -0.5402 -0.1153
vn -0.9890 -0.1342 -0.0617
vn -0.6477 -0.0353 0.7611
vn -0.4370 0.1044 0.8934
vn -0.8411 -0.3439 0.4175
vn -0.8933 -0.1460 0.4251
vn -0.9666 -0.2420 0.0848
vn -0.9869 0.1550 0.0449
vn -0.4370 -0.1044 0.8934
vn -0.9529 0.1896 0.2366
vn -0.3816 0.1592 0.9105
vn -0.2972 -0.9548 -0.0080
vn -0.0928 -0.9956 0.0134
vn -0.3764 -0.9087 0.1806
vn -0.1865 -0.6919 0.6975
vn 0.0874 0.4396 -0.8939
vn -0.1411 0.7013 0.6988
vn -0.2971 0.9548 -0.0082
vn -0.0914 0.4502 0.8882
vn -0.1758 0.9844 -0.0002
vn -0.1379 0.6935 0.7071
vn -0.0548 -0.2696 0.9614
vn -0.1301 -0.7007 0.7015
vn -0.7002 -0.0000 0.7139
vn -0.4507 -0.0897 0.8881
vn -0.4262 0.0848 0.9006
vn -0.4507 0.0897 0.8881
vn 0.7678 0.5204 -0.3737
vn 0.8278 0.5607 -0.0184
vn 0.3313 0.2245 -0.9164
vn 0.7587 0.5142 0.4001
vn -0.1265 -0.7030 0.6999
vn -0.0829 -0.2769 0.9573
vn 0.2201 -0.3341 -0.9165
vn 0.5103 -0.7746 -0.3737
vn 0.5042 -0.7654 0.4001
vn 0.5497 -0.8351 -0.0184
vn 0.3312 -0.2245 -0.9165
vn 0.7678 -0.5204 -0.3737
vn 0.7587 -0.5142 0.4001
vn 0.8275 -0.5611 -0.0184
vn -0.1839 0.9091 -0.3737
vn -0.1982 0.9800 -0.0184
vn -0.3787 0.5668 0.7317
vn -0.0794 0.3922 -0.9164
vn -0.1817 0.8983 0.4001
vn -0.4051 -0.7414 -0.5350
vn -0.0101 0.2826 -0.9592
vn 0.0125 -0.3505 0.9365
vn 0.0078 -0.2201 0.9754
vn 0.1839 0.9091 -0.3737
vn 0.1980 0.9800 -0.0184
vn -0.0580 0.2269 0.9722
vn -0.0865 0.3383 0.9371
vn 0.0931 -0.3640 -0.9267
vn 0.0793 0.3922 -0.9165
vn 0.1817 0.8983 0.4001
vn -0.2629 0.3934 0.8810
vn -0.4951 0.4951 0.7140
vn -0.2334 0.3493 0.9075
vn -0.3718 0.2484 0.8944
vn -0.7678 0.5204 -0.3737
vn -0.8275 0.5612 -0.0184
vn -0.3313 0.2245 -0.9164
vn -0.7587 0.5142 0.4001
vn -0.1839 -0.9091 -0.3737
vn -0.0794 -0.3922 -0.9164
vn -0.1983 -0.9800 -0.0184
vn -0.1415 -0.6994 0.7006
vn -0.7678 -0.5204 -0.3737
vn -0.3313 -0.2245 -0.9164
vn -0.8278 -0.5607 -0.0184
vn -0.5907 -0.4003 0.7006
vn -0.5502 -0.8348 -0.0184
vn -0.5103 -0.7746 -0.3737
vn -0.3925 -0.5959 0.7006
vn -0.2201 -0.3342 -0.9165
vn -0.5103 0.7746 -0.3737
vn -0.5497 0.8351 -0.0184
vn -0.2201 0.3342 -0.9165
vn -0.5042 0.7654 0.4001
vn 0.0794 -0.3922 -0.9164
vn 0.1839 -0.9091 -0.3737
vn 0.1817 -0.8983 0.4001
vn 0.1986 -0.9799 -0.0184
vn 0.3927 -0.0768 -0.9165
vn 0.9103 -0.1780 -0.3737
vn 0.8995 -0.1759 0.4001
vn 0.9812 -0.1919 -0.0184
vn 0.3928 0.0768 -0.9164
vn 0.9103 0.1780 -0.3737
vn 0.8995 0.1759 0.4001
vn 0.9813 0.1916 -0.0184
vn 0.5103 0.7746 -0.3737
vn 0.5502 0.8348 -0.0184
vn 0.2202 0.3342 -0.9164
vn 0.5042 0.7654 0.4001
vn -0.9103 -0.1780 -0.3737
vn -0.3928 -0.0768 -0.9164
vn -0.9812 -0.1921 -0.0184
vn -0.7003 -0.1369 0.7006
vn -0.9103 0.1780 -0.3737
vn -0.3927 0.0768 -0.9165
vn -0.9812 0.1919 -0.0184
vn -0.7003 0.1369 0.7006
vn 0.9411 0.1968 -0.2748
vn -0.0000 -0.0000 -0.0000
vn 0.0438 -0.2094 -0.9768
vn -0.2047 0.9788 -0.0000
vn -0.1977 0.9803 -0.0003
vn -0.9472 -0.1919 0.2570
vn -0.7960 -0.5319 -0.2888
vn -0.4340 0.0833 -0.8971
vn 0.1884 0.9812 -0.0413
vn -0.2046 0.9782 0.0359
vn 0.6085 -0.7541 0.2471
vn -0.3578 0.4435 0.8217
vn 0.2870 0.1502 -0.9461
vn 0.4335 -0.3026 0.8489
vn -0.3261 0.1332 0.9359
vn -0.2157 -0.3161 -0.9239
vn -0.1256 -0.7035 0.6995
vn -0.2047 -0.9788 -0.0000
vn -0.1470 -0.7025 0.6964
vn -0.2130 -0.3188 0.9236
vn 0.6280 0.7782 -0.0000
vn -0.4174 -0.5172 0.7472
vn -0.9788 0.2048 -0.0000
vn 0.9473 -0.1925 0.2559
vn -0.4641 0.1080 0.8792
vn 0.7003 -0.1369 0.7006
vn 0.1800 0.4250 -0.8871
vn -0.1990 -0.3651 0.9094
vn 0.0425 0.0981 0.9943
vn 0.2069 -0.3679 0.9066
vn -0.3312 0.2245 -0.9165
vn -0.8291 0.5591 -0.0000
vn 0.5957 -0.3981 0.6976
vn 0.5907 -0.4003 0.7006
vn -0.2113 0.3328 -0.9190
vn -0.5547 0.8320 -0.0000
vn 0.2366 -0.3542 0.9048
vn 0.7190 0.3273 -0.6131
vn -0.8568 -0.3900 0.3373
vn -0.3801 -0.2116 0.9004
vn -0.6542 -0.4373 0.6171
vn -0.4262 -0.0848 0.9006
vn 0.2408 -0.3601 0.9013
vn -0.7442 0.4221 -0.5176
vn 0.9662 0.1921 0.1720
vn 0.8264 0.1644 -0.5386
vn -0.1276 0.6340 -0.7627
vn 0.0392 -0.1973 0.9795
vn -0.4386 -0.0872 0.8945
vn 0.9464 0.1883 -0.2624
vn -0.9967 -0.0000 0.0815
vn 0.1516 -0.7620 0.6296
vn 0.9808 -0.1952 -0.0000
vn -0.9795 0.1948 -0.0516
vn -0.3438 0.0684 -0.9365
vn 0.9968 -0.0000 -0.0793
vn -0.1817 -0.8983 0.4001
vn 0.2363 0.3645 0.9007
vn 0.1853 0.9315 -0.3131
vn 0.2125 -0.3182 -0.9239
vn -0.7044 0.1401 0.6958
vn -0.4329 -0.1034 0.8955
vn -0.1951 -0.9808 -0.0000
vn 0.1974 0.9803 -0.0000
vn 0.9101 -0.4144 -0.0000
vn -0.7198 0.3277 -0.6120
vn -0.6321 0.7731 -0.0525
vn -0.3718 0.2484 0.8945
vn -0.9727 -0.0000 -0.2322
vn -0.5042 -0.7654 0.4001
vn -0.4539 -0.6792 0.5768
vn -0.6748 -0.4514 0.5838
vn 0.3428 0.5140 -0.7864
vn 0.5556 0.8314 -0.0000
vn -0.1347 0.9909 -0.0000
vn -0.0978 0.7194 0.6877
vn 0.9727 -0.0000 0.2322
vn -0.7587 -0.5142 0.4001
vn 0.7467 0.5034 -0.4348
vn -0.8995 -0.1759 0.4001
vn 0.5506 0.4437 0.7071
vn 0.7003 0.1369 0.7006
vn 0.5907 0.4003 0.7006
vn 0.3925 0.5959 0.7006
vn 0.1415 0.6994 0.7006
vn 0.1415 -0.6994 0.7006
vn -0.1415 0.6994 0.7006
vn 0.3925 -0.5959 0.7006
vn -0.3925 0.5959 0.7006
vn -0.5907 0.4003 0.7006
vn -0.8995 0.1759 0.4001
vn -0.1951 0.9808 -0.0000
vn -0.1951 -0.9808 -0.0001
vt 0.841012 0.502365
vt 0.472810 0.680092
vt 0.308018 0.502365
vt 0.676221 0.680092
vt 0.472809 0.680092
vt 0.308018 0.502365
vt 0.676221 0.680092
vt 0.472809 0.680092
vt 0.472810 0.680092
vt 0.296971 0.004928
vt 0.002602 0.743632
vt 0.002602 0.004928
vt 0.296971 0.489743
vt 0.002602 0.890027
vt 0.993300 0.743632
vt 0.993300 0.890027
vt 0.849568 0.035956
vt 0.299462 0.035956
vt 0.299462 0.035956
vt 0.849568 0.035956
vt 0.471379 0.674645
vt 0.682997 0.674645
vt 0.857404 0.489752
vt 0.857404 0.004928
vt 0.993300 0.004928
vt 0.166604 0.743632
vt 0.134961 0.890027
vt 0.166604 0.004928
vt 0.612913 0.557616
vt 0.613841 0.444239
vt 0.387087 0.442384
vt 0.993151 0.510269
vt 0.729669 0.510269
vt 0.164230 0.510929
vt 0.003713 0.510929
vt -0.014705 0.510269
vt 0.135745 0.510269
vt 0.388174 1.000000
vt 0.388453 0.724084
vt 0.388468 0.000000
vt 0.979294 1.000000
vt 0.979015 0.724084
vt 0.979001 0.000000
vt 0.576384 0.538877
vt 0.423616 0.533674
vt 0.092756 0.788899
vt 0.319509 0.790754
vt 0.578775 1.000000
vt 0.578496 0.724084
vt 0.578481 0.000000
vt 0.420601 0.724084
vt 0.420880 1.000000
vt 0.420587 0.000000
vt 0.320437 0.677377
vt 0.093683 0.675522
vt 0.230280 1.000000
vt 0.230559 0.724084
vt 0.230573 0.000000
vt 0.729669 0.399761
vt 0.135745 0.399761
vt 0.535190 0.303972
vt 0.761943 0.305827
vt 0.578045 0.724084
vt 0.578603 1.000000
vt 0.578016 0.000000
vt 0.760923 1.000000
vt 0.761481 0.724084
vt 0.761510 0.000000
vt 0.603586 0.724084
vt 0.603028 1.000000
vt 0.603615 0.000000
vt 0.762871 0.192450
vt 0.536117 0.190595
vt 0.420708 1.000000
vt 0.420150 0.724084
vt 0.420121 0.000000
vt 0.356304 0.724084
vt 0.355746 1.000000
vt 0.356333 0.000000
vt 0.539847 0.154763
vt 0.766600 0.156618
vt 0.289748 0.724084
vt 0.290307 0.890027
vt 0.289719 0.000000
vt 0.767528 0.043242
vt 0.540774 0.041386
vt 0.197852 1.000000
vt 0.198410 0.724084
vt 0.198439 0.000000
vt 0.448201 0.890027
vt 0.447643 0.724084
vt 0.447614 0.000000
vt 0.281338 0.724084
vt 0.281059 1.000000
vt 0.281353 0.000000
vt 1.126952 0.510929
vt 0.835694 0.510929
vt 0.123164 1.000000
vt 0.123443 0.724084
vt 0.821121 0.724084
vt 0.821400 1.000000
vt 0.821106 0.000000
vt 0.123458 0.000000
vt 0.835694 0.386465
vt 0.164230 0.386465
vt 0.386159 0.555761
vt 0.588878 0.592074
vt 0.411122 0.598129
vt 0.097437 0.591776
vt 0.025509 0.443308
vt 0.000000 0.591317
vt 0.802071 0.141734
vt 0.229219 0.188984
vt 0.188292 0.074721
vt 0.421518 0.186745
vt -0.004437 0.155325
vt 0.450511 0.106687
vt 0.853715 0.257138
vt 0.491816 0.532605
vt 0.218125 0.256835
vt -0.014705 0.567026
vt 0.828398 0.074721
vt 0.157760 0.188984
vt 0.255423 0.074721
vt 0.806096 0.248695
vt 0.259196 0.303307
vt 0.224305 0.202907
vt 0.420438 0.230866
vt 0.442102 0.455597
vt 0.318986 0.451732
vt 0.303232 0.225774
vt 0.531882 0.365240
vt 0.230798 0.364605
vt 0.000000 0.862307
vt 0.576090 0.329999
vt 0.000000 0.330003
vt 0.163174 0.191076
vt 0.824503 0.102974
vt 0.259432 0.097426
vt 0.734565 0.119805
vt 0.734565 0.988864
vt 0.735559 0.450079
vt 1.000000 0.720743
vt 0.000000 0.192273
vt 0.583625 0.190671
vt 1.000000 0.366968
vt 0.000000 0.898245
vt 0.416375 0.369760
vt 0.554667 0.199093
vt 0.349131 0.111117
vt 0.329210 0.211263
vt 0.701410 0.644609
vt 0.506610 0.355325
vt 0.701410 0.355392
vt -0.034816 0.363090
vt 0.962810 0.309289
vt -0.034816 0.309289
vt 1.005426 0.188984
vt -0.004807 0.074721
vt 0.024255 0.188984
vt 0.974708 0.363090
vt 0.025703 0.074721
vt 0.990127 0.188984
vt 0.963654 0.074721
vt 0.011356 0.074721
vt 1.004474 0.188984
vt 0.949307 0.074721
vt 0.993151 0.567026
vt 0.525210 0.185016
vt 0.028690 0.119054
vt 0.497660 0.116752
vt 0.471934 0.187519
vt 0.954174 0.116752
vt 0.981724 0.185016
vt 0.550012 0.000000
vt 0.449988 0.193798
vt 0.550012 0.193798
vt 0.145262 0.376702
vt 1.000000 0.915187
vt 1.000000 0.377295
vt 0.589448 0.447547
vt -0.264441 0.990068
vt 0.962810 0.363090
vt -0.034816 0.309289
vt -0.034816 0.363090
vt 0.974708 0.309289
vt 0.179980 0.000336
vt 1.000000 0.198650
vt 1.000000 0.000336
vt 0.449988 0.000000
vt 0.466640 0.193798
vt 0.533360 0.000000
vt 0.533360 0.193798
vt 0.089913 0.875975
vt 0.003713 0.573857
vt 0.423616 0.437948
vt 0.576384 0.437948
vt 0.588878 0.480691
vt 0.411122 0.480691
vt 0.000000 0.103319
vt 0.997435 0.193001
vt 0.000000 0.193001
vt 0.997435 0.103313
vt 0.980090 0.157822
vt 1.000000 0.177549
vt 0.980090 0.177549
vt 0.825437 0.185939
vt 1.000000 0.189527
vt 1.000000 0.157822
vt 0.000000 0.385888
vt 1.000000 0.918187
vt 1.000000 0.385888
vt 0.000000 0.103104
vt 0.998058 0.193001
vt 0.998058 0.103104
vt 1.126952 0.573857
vt 0.000000 0.021459
vt 1.000000 0.193001
vt 0.344112 0.395692
vt 0.270234 0.257081
vt 0.344112 0.257081
vt 1.000000 0.021578
vt 0.984097 0.121387
vt 0.385631 0.182649
vt 0.448941 0.125712
vt 0.448223 0.433727
vt 0.381699 0.257135
vt 0.381699 0.433727
vt 0.000000 0.000336
vt 0.996039 0.104051
vt -0.000000 0.193001
vt -0.000000 0.104049
vt 0.967604 0.074721
vt -0.045666 0.188984
vt 0.938454 0.188984
vt 1.000000 0.297331
vt 0.000000 0.829630
vt 0.000000 0.297331
vt 0.996039 0.193001
vt 0.379049 0.493146
vt 0.204917 0.213140
vt 0.204917 0.480343
vt 0.605016 0.211225
vt 0.375387 0.294422
vt 0.820530 0.298627
vt 0.900180 0.441759
vt 0.820530 0.437703
vt 0.904222 0.296502
vt 1.000000 0.433147
vt 0.803535 0.347835
vt 1.000000 -0.007290
vt 0.810942 -0.006841
vt 0.349200 0.345457
vt 0.000000 -0.007530
vt 0.145253 0.988111
vt 0.846313 0.534409
vt 0.853715 0.988431
vt 0.000000 0.988023
vt 0.000000 0.532370
vt 1.000000 0.862300
vt 0.170405 0.862311
vt 0.416375 0.198650
vt 0.400099 0.000336
vt 0.963531 0.345487
vt 0.810942 0.928872
vt 0.554764 0.120021
vt 0.522332 0.448412
vt 0.648402 0.689301
vt 0.372435 0.634408
vt 0.255501 0.000336
vt 0.000000 0.198650
vt 0.576090 0.198650
vt 0.514876 0.196921
vt 0.385070 0.357933
vt 0.300838 0.196921
vt 0.333787 0.198650
vt 0.014952 0.198650
vt 0.108863 0.000336
vt 0.018719 0.000336
vt 0.460840 0.198650
vt -0.000000 0.198650
vt 0.460840 0.000336
vt 0.780608 0.188984
vt 0.270234 0.395692
vt 0.552384 0.227001
vt 0.662514 0.432702
vt 0.607261 0.644675
vt 1.000000 0.893460
vt 0.591494 0.231832
vt 0.448223 0.257135
vt 0.000000 0.914492
vt 0.766816 0.188984
vt 0.145262 0.198650
vt 0.019123 0.193941
vt 0.062283 0.074721
vt 0.000000 0.198650
vt 0.000000 0.918187
vt 0.967368 0.177948
vt 0.621291 0.478350
vt -0.029464 0.188984
vt 0.466640 0.000000
vt 0.015420 0.187519
vt 0.000000 0.723489
vt 0.485204 0.119054
vt -0.015117 0.188984
vt 0.992985 0.294248
vt 0.089913 0.252897
vt 1.000000 0.829630
vt 0.612820 0.111117
vt 0.577051 0.254456
vt 0.296361 0.250781
vt 0.777430 0.197107
vt -0.264441 0.448575
vt 0.897800 0.074721
vt 0.097437 0.452700
s 0
usemtl material1
f 1/1/1 2/2/1 3/3/1
s 1
f 4/3/2 5/4/3 6/1/4
s 0
f 7/1/5 8/5/5 9/6/5
f 10/6/6 11/7/6 12/1/6
f 13/3/7 14/4/7 15/1/7
f 16/1/8 17/8/8 18/3/8
f 19/1/9 20/9/9 21/3/9
f 22/3/10 23/4/10 24/1/10
s 1
f 25/10/11 26/11/12 27/12/13
f 28/10/14 29/11/15 30/12/16
f 31/12/17 32/13/18 33/10/19
f 34/12/20 35/13/21 36/10/22
f 37/10/23 38/11/24 39/12/25
f 40/12/26 41/13/27 42/10/28
f 43/14/29 44/15/30 45/16/31
f 46/16/32 47/11/33 48/14/34
s 0
f 49/17/8 18/3/8 50/18/8
f 51/18/7 15/1/7 52/17/7
s 1
f 53/14/35 54/15/36 55/16/37
s 0
f 56/17/9 21/3/9 57/18/9
f 58/18/10 24/1/10 59/17/10
f 60/19/2 6/1/2 61/20/2
f 62/20/1 3/3/1 63/19/1
f 64/17/5 9/6/5 65/19/5
f 66/19/6 12/1/6 67/17/6
s 1
f 68/16/38 69/11/39 70/14/40
f 71/14/41 72/15/42 73/16/43
f 73/16/43 74/11/44 75/14/45
f 76/15/46 77/21/47 78/22/48
f 78/22/48 79/23/49 76/15/46
f 79/23/49 80/24/50 76/15/46
f 76/15/46 80/24/50 81/25/51
f 26/11/12 82/13/52 83/21/53
f 54/15/36 26/11/12 83/21/53
f 83/21/53 84/22/54 54/15/36
f 84/22/54 85/23/55 54/15/36
f 54/15/36 85/23/55 86/24/56
f 29/11/15 87/13/57 88/21/58
f 44/15/30 88/21/58 89/22/59
f 89/22/59 90/23/60 44/15/30
f 90/23/60 91/24/61 44/15/30
f 44/15/30 91/24/61 92/25/62
f 38/11/24 93/13/63 94/21/64
f 95/24/65 96/25/66 97/23/67
f 96/25/66 72/15/42 97/23/67
f 97/23/67 72/15/42 98/22/68
f 72/15/42 38/11/24 98/22/68
f 98/22/68 38/11/24 94/21/64
f 99/26/69 100/16/70 101/27/71
f 41/13/27 74/11/44 102/21/72
f 103/25/73 104/24/74 105/15/75
f 104/24/74 106/23/76 105/15/75
f 105/15/75 106/23/76 107/22/77
f 108/28/78 109/11/79 110/12/80
f 99/26/69 111/14/79 109/11/79
f 112/11/81 113/28/82 114/12/83
f 35/13/21 47/11/33 115/21/84
f 116/16/85 117/26/86 118/27/87
f 118/27/87 112/11/81 119/14/81
f 120/25/88 121/24/89 122/15/90
f 121/24/89 123/23/91 122/15/90
f 122/15/90 123/23/91 124/22/92
f 47/11/33 105/15/75 107/22/77
f 32/13/18 69/11/39 125/21/93
f 69/11/39 122/15/90 125/21/93
f 125/21/93 122/15/90 124/22/92
f 126/25/94 127/24/95 128/15/39
f 127/24/95 129/23/96 128/15/39
f 128/15/39 129/23/96 130/22/97
f 130/22/97 131/21/98 117/26/86
f 131/21/98 132/13/99 117/26/86
f 117/26/86 132/13/99 133/10/100
f 134/22/101 72/15/42 135/23/102
f 136/13/103 108/28/78 137/10/104
f 77/21/47 99/26/69 136/13/103
f 54/15/36 86/24/56 138/25/105
f 72/15/42 96/25/66 139/24/106
f 74/11/44 72/15/42 134/22/101
f 117/26/86 128/15/39 130/22/97
f 117/26/86 133/10/100 113/28/82
f 134/22/101 140/29/107 102/21/72
f 141/30/108 14/4/109 142/31/110
f 143/32/108 113/28/82 144/33/108
f 145/34/108 139/24/106 146/35/108
f 44/15/30 38/11/24 45/16/31
f 92/25/62 39/12/25 44/15/30
f 29/11/15 54/15/36 30/12/16
f 43/14/29 55/16/37 29/11/15
f 147/36/108 138/25/105 148/37/108
f 149/38/108 77/21/47 150/39/111
f 150/39/111 136/13/103 151/40/112
f 152/33/108 137/10/104 153/32/108
f 154/41/108 134/22/101 155/42/113
f 155/42/113 135/23/102 156/43/114
f 157/44/108 114/12/83 158/45/115
f 159/40/108 133/10/100 160/39/116
f 160/39/116 132/13/99 161/38/117
f 162/46/108 131/21/98 163/47/118
f 69/11/39 128/15/39 70/14/40
f 31/12/17 126/25/94 69/11/39
f 164/48/108 130/22/97 165/49/119
f 165/49/119 129/23/96 166/50/120
f 167/37/108 127/24/95 168/36/108
f 169/51/121 24/1/122 170/52/123
f 171/53/108 59/17/124 169/51/121
f 172/54/108 23/4/125 173/55/126
f 174/56/108 175/9/127 176/57/128
f 176/57/128 22/3/129 177/58/130
f 178/59/108 58/18/131 179/60/108
f 47/11/33 122/15/90 48/14/34
f 34/12/20 120/25/88 47/11/33
f 180/61/108 125/21/93 181/62/132
f 182/63/133 32/13/18 183/64/134
f 184/65/108 33/10/19 182/63/133
f 185/32/108 31/12/17 186/33/108
f 74/11/44 105/15/75 75/14/45
f 40/12/26 103/25/73 74/11/44
f 187/66/108 124/22/92 188/67/135
f 188/67/135 123/23/91 189/68/136
f 190/37/108 121/24/89 191/36/108
f 192/69/137 6/1/4 193/70/138
f 194/71/108 61/20/139 192/69/137
f 195/72/108 5/4/140 196/73/141
f 197/74/108 198/2/142 199/75/143
f 199/75/143 4/3/144 200/76/145
f 201/59/108 60/19/146 202/60/108
f 203/77/147 35/13/21 204/78/148
f 205/79/108 36/10/22 203/77/147
f 206/80/108 115/21/84 207/81/149
f 208/32/108 34/12/20 209/33/108
f 210/82/150 12/1/151 211/83/152
f 212/84/108 67/17/153 210/82/150
f 213/85/108 11/7/154 214/86/155
f 215/87/108 216/5/156 217/88/157
f 217/88/157 10/6/158 218/89/159
f 219/59/108 66/19/160 220/60/108
f 221/90/108 107/22/77 222/91/161
f 222/91/161 106/23/76 223/92/162
f 224/37/108 104/24/74 225/36/108
f 226/93/163 41/13/27 227/94/164
f 228/95/108 42/10/28 226/93/163
f 229/96/108 40/12/26 230/97/108
f 231/98/108 232/8/165 233/99/166
f 234/100/167 15/1/168 235/101/169
f 236/102/108 52/17/170 234/100/167
f 233/99/166 13/3/171 237/103/172
f 238/104/108 51/18/173 239/105/108
f 240/29/108 98/22/68 241/106/174
f 242/42/175 97/23/67 243/41/176
f 244/43/108 95/24/65 242/42/175
f 146/35/108 96/25/66 245/34/108
f 246/99/177 18/3/178 247/98/179
f 248/103/108 50/18/180 246/99/177
f 249/31/108 17/8/181 250/30/182
f 251/101/108 252/4/183 253/100/184
f 253/100/184 16/1/185 254/102/186
f 255/105/108 49/17/187 256/104/108
f 257/94/108 94/21/64 258/93/188
f 258/93/188 93/13/63 259/95/189
f 260/97/108 37/10/23 261/96/108
f 262/36/108 92/25/62 263/37/108
f 264/92/108 91/24/61 265/91/190
f 265/91/190 90/23/60 266/90/191
f 267/81/108 89/22/59 268/80/192
f 269/88/193 9/6/194 270/87/195
f 271/89/108 65/19/196 269/88/193
f 272/86/108 8/5/197 273/85/198
f 274/83/108 275/7/199 276/82/200
f 276/82/200 7/1/201 277/84/202
f 278/60/108 64/17/203 279/59/108
f 280/78/108 88/21/58 281/77/204
f 281/77/204 87/13/57 282/79/205
f 283/33/108 28/10/14 284/32/108
f 285/68/108 86/24/56 286/67/206
f 286/67/206 85/23/55 287/66/207
f 288/62/108 84/22/54 289/61/208
f 76/15/46 26/11/12 100/16/70
f 81/25/51 27/12/13 76/15/46
f 290/75/209 3/3/210 291/74/211
f 292/76/108 63/19/212 290/75/209
f 293/73/108 2/2/213 294/72/214
f 295/70/108 296/4/215 297/69/216
f 297/69/216 1/1/217 298/71/218
f 299/60/108 62/20/219 300/59/108
f 301/64/108 83/21/53 302/63/220
f 302/63/220 82/13/52 303/65/221
f 304/33/108 25/10/11 305/32/108
f 306/36/108 81/25/51 307/37/108
f 308/50/108 80/24/50 309/49/222
f 309/49/222 79/23/49 310/48/223
f 311/47/108 78/22/48 312/46/224
f 313/57/225 21/3/226 314/56/227
f 315/58/108 57/18/228 313/57/225
f 316/55/108 20/9/229 317/54/230
f 318/52/108 319/4/231 320/51/232
f 320/51/232 19/1/233 321/53/234
f 322/60/108 56/17/235 323/59/108
f 324/107/108 108/28/78 325/108/236
f 99/26/69 77/21/47 76/15/46
f 29/11/15 88/21/58 44/15/30
f 134/22/101 102/21/72 74/11/44
f 107/22/77 115/21/84 47/11/33
f 139/24/106 135/23/102 72/15/42
f 99/26/69 108/28/78 136/13/103
f 326/106/108 102/21/72 140/29/107
f 232/8/108 142/31/110 14/4/109
f 133/10/100 144/33/108 113/28/82
f 96/25/66 146/35/108 139/24/106
f 71/14/41 45/16/31 38/11/24
f 38/11/24 44/15/30 39/12/25
f 138/25/105 30/12/16 54/15/36
f 54/15/36 29/11/15 55/16/37
f 86/24/56 148/37/108 138/25/105
f 136/13/103 150/39/111 77/21/47
f 137/10/104 151/40/112 136/13/103
f 108/28/78 153/32/108 137/10/104
f 135/23/102 155/42/113 134/22/101
f 139/24/106 156/43/114 135/23/102
f 113/28/82 158/45/115 114/12/83
f 132/13/99 160/39/116 133/10/100
f 131/21/98 161/38/117 132/13/99
f 130/22/97 163/47/118 131/21/98
f 116/16/85 70/14/40 128/15/39
f 128/15/39 69/11/39 126/25/94
f 129/23/96 165/49/119 130/22/97
f 127/24/95 166/50/120 129/23/96
f 126/25/94 168/36/108 127/24/95
f 23/4/108 170/52/123 24/1/122
f 24/1/122 169/51/121 59/17/124
f 175/9/108 173/55/126 23/4/125
f 22/3/129 176/57/128 175/9/127
f 58/18/108 177/58/130 22/3/129
f 59/17/108 179/60/108 58/18/131
f 68/16/38 48/14/34 122/15/90
f 122/15/90 47/11/33 120/25/88
f 124/22/92 181/62/132 125/21/93
f 125/21/93 183/64/134 32/13/18
f 32/13/18 182/63/133 33/10/19
f 33/10/19 186/33/108 31/12/17
f 46/16/32 75/14/45 105/15/75
f 105/15/75 74/11/44 103/25/73
f 123/23/91 188/67/135 124/22/92
f 121/24/89 189/68/136 123/23/91
f 120/25/88 191/36/108 121/24/89
f 5/4/3 193/70/138 6/1/4
f 6/1/4 192/69/137 61/20/139
f 198/2/108 196/73/141 5/4/140
f 4/3/144 199/75/143 198/2/142
f 60/19/108 200/76/145 4/3/144
f 61/20/108 202/60/108 60/19/146
f 115/21/84 204/78/148 35/13/21
f 35/13/21 203/77/147 36/10/22
f 107/22/77 207/81/149 115/21/84
f 36/10/22 209/33/108 34/12/20
f 11/7/108 211/83/152 12/1/151
f 12/1/151 210/82/150 67/17/153
f 216/5/108 214/86/155 11/7/154
f 10/6/158 217/88/157 216/5/156
f 66/19/108 218/89/159 10/6/158
f 67/17/108 220/60/108 66/19/160
f 106/23/76 222/91/161 107/22/77
f 104/24/74 223/92/162 106/23/76
f 103/25/73 225/36/108 104/24/74
f 102/21/72 227/94/164 41/13/27
f 41/13/27 226/93/163 42/10/28
f 42/10/28 230/97/108 40/12/26
f 13/3/171 233/99/166 232/8/165
f 14/4/108 235/101/169 15/1/168
f 15/1/168 234/100/167 52/17/170
f 51/18/108 237/103/172 13/3/171
f 52/17/108 239/105/108 51/18/173
f 94/21/64 241/106/174 98/22/68
f 98/22/68 243/41/176 97/23/67
f 97/23/67 242/42/175 95/24/65
f 95/24/65 245/34/108 96/25/66
f 17/8/108 247/98/179 18/3/178
f 18/3/178 246/99/177 50/18/180
f 252/4/108 250/30/182 17/8/181
f 16/1/185 253/100/184 252/4/183
f 49/17/108 254/102/186 16/1/185
f 50/18/108 256/104/108 49/17/187
f 93/13/63 258/93/188 94/21/64
f 37/10/23 259/95/189 93/13/63
f 39/12/25 261/96/108 37/10/23
f 91/24/61 263/37/108 92/25/62
f 90/23/60 265/91/190 91/24/61
f 89/22/59 266/90/191 90/23/60
f 88/21/58 268/80/192 89/22/59
f 8/5/108 270/87/195 9/6/194
f 9/6/194 269/88/193 65/19/196
f 275/7/108 273/85/198 8/5/197
f 7/1/201 276/82/200 275/7/199
f 64/17/108 277/84/202 7/1/201
f 65/19/108 279/59/108 64/17/203
f 87/13/57 281/77/204 88/21/58
f 28/10/14 282/79/205 87/13/57
f 30/12/16 284/32/108 28/10/14
f 85/23/55 286/67/206 86/24/56
f 84/22/54 287/66/207 85/23/55
f 83/21/53 289/61/208 84/22/54
f 53/14/35 100/16/70 26/11/12
f 26/11/12 76/15/46 27/12/13
f 2/2/108 291/74/211 3/3/210
f 3/3/210 290/75/209 63/19/212
f 296/4/108 294/72/214 2/2/213
f 1/1/217 297/69/216 296/4/215
f 62/20/108 298/71/218 1/1/217
f 63/19/108 300/59/108 62/20/219
f 82/13/52 302/63/220 83/21/53
f 25/10/11 303/65/221 82/13/52
f 27/12/13 305/32/108 25/10/11
f 80/24/50 307/37/108 81/25/51
f 79/23/49 309/49/222 80/24/50
f 78/22/48 310/48/223 79/23/49
f 77/21/47 312/46/224 78/22/48
f 20/9/108 314/56/227 21/3/226
f 21/3/226 313/57/225 57/18/228
f 319/4/108 317/54/230 20/9/229
f 19/1/233 320/51/232 319/4/231
f 56/17/108 321/53/234 19/1/233
f 57/18/108 323/59/108 56/17/235
f 110/12/80 325/108/236 108/28/78
s 0
f 296/4/1 2/2/1 1/1/1
f 198/2/2 5/4/2 4/3/2
f 275/7/5 8/5/5 7/1/5
f 216/5/6 11/7/6 10/6/6
f 232/8/7 14/4/7 13/3/7
f 252/4/8 17/8/8 16/1/8
f 319/4/9 20/9/9 19/1/9
f 175/9/10 23/4/10 22/3/10
s 1
f 82/13/52 26/11/12 25/10/11
f 87/13/57 29/11/15 28/10/14
f 69/11/39 32/13/18 31/12/17
f 47/11/33 35/13/21 34/12/20
f 93/13/63 38/11/24 37/10/23
f 74/11/44 41/13/27 40/12/26
f 29/11/15 44/15/30 43/14/29
f 105/15/75 47/11/33 46/16/32
s 0
f 16/1/8 18/3/8 49/17/8
f 13/3/7 15/1/7 51/18/7
s 1
f 26/11/12 54/15/36 53/14/35
s 0
f 19/1/9 21/3/9 56/17/9
f 22/3/10 24/1/10 58/18/10
f 4/3/2 6/1/2 60/19/2
f 1/1/1 3/3/1 62/20/1
f 7/1/5 9/6/5 64/17/5
f 10/6/6 12/1/6 66/19/6
s 1
f 122/15/90 69/11/39 68/16/38
f 38/11/24 72/15/42 71/14/41
f 72/15/42 74/11/44 73/16/43
f 76/15/46 100/16/70 99/26/69
f 99/26/69 109/11/79 108/28/78
f 101/27/71 111/14/79 99/26/69
f 117/26/86 113/28/82 112/11/81
f 128/15/39 117/26/86 116/16/85
f 117/26/86 112/11/81 118/27/87
usemtl material2
f 327/109/237 328/110/238 329/111/239
f 330/112/240 331/113/241 332/114/242
f 333/115/243 334/116/244 335/117/108
f 336/118/245 337/119/246 338/120/247
s 0
f 339/32/108 340/121/108 341/33/108
f 341/33/108 340/121/108 342/37/108
f 343/122/248 344/123/248 345/124/248
f 346/125/108 347/126/108 348/127/108
s 1
f 349/128/249 350/129/250 351/130/251
f 352/131/252 353/132/253 354/133/254
s 0
f 355/32/108 356/37/108 357/33/108
s 1
f 358/134/255 359/135/256 360/136/257
s 0
f 361/137/108 362/138/108 363/139/108
s 1
f 364/140/258 365/141/259 366/142/260
f 367/143/261 368/144/262 369/145/263
f 370/146/264 371/147/265 372/148/266
s 0
f 373/149/108 374/150/108 375/151/108
s 1
f 376/152/267 377/153/268 378/154/269
s 0
f 379/155/248 380/156/248 381/157/248
f 382/158/248 383/159/248 384/160/248
f 385/155/248 386/156/248 387/161/248
f 388/137/108 389/138/108 390/139/108
f 391/162/248 392/163/248 393/164/248
f 394/165/248 395/166/248 396/167/248
f 397/36/108 398/168/108 399/121/108
f 400/32/108 401/121/108 402/33/108
f 402/33/108 401/121/108 403/37/108
f 404/169/108 405/170/108 406/171/108
f 407/172/108 408/173/108 409/174/108
s 1
f 410/175/270 411/176/271 412/177/272
f 413/178/273 414/179/274 415/180/274
f 416/181/275 417/182/276 365/141/259
s 0
f 418/183/248 419/184/248 420/185/248
f 421/183/248 422/184/248 423/186/248
s 1
f 424/187/277 425/188/278 426/189/279
f 427/177/280 428/190/281 429/176/282
f 430/191/283 431/192/284 432/193/285
f 433/176/286 434/175/287 435/190/288
f 371/147/265 436/194/289 372/148/266
s 0
f 437/96/108 438/195/108 439/97/108
f 439/97/290 440/35/290 441/34/290
s 1
f 442/44/81 443/196/291 444/197/83
f 445/198/292 446/108/79 447/199/293
s 0
f 440/35/290 448/97/290 449/34/290
s 1
f 450/200/294 451/201/294 452/202/295
f 453/200/296 454/201/296 455/203/296
s 0
f 456/204/297 457/205/297 458/206/297
s 1
f 369/145/263 459/207/298 367/143/261
f 367/143/261 459/207/298 460/208/299
s 0
f 461/33/108 462/60/108 463/37/108
f 464/209/300 465/206/300 466/205/300
f 467/33/108 468/60/108 469/37/108
f 342/37/108 470/59/108 341/33/108
s 1
f 471/55/248 472/47/248 473/54/301
f 474/210/302 475/211/302 476/212/303
f 477/213/304 478/214/304 479/215/304
s 0
f 480/33/108 481/60/108 482/37/108
s 1
f 483/86/305 484/81/306 485/85/307
s 0
f 448/97/108 486/216/108 487/96/108
f 488/36/108 489/121/108 469/37/108
f 448/97/108 490/105/108 449/34/108
s 1
f 491/73/248 492/62/248 493/72/308
f 494/217/309 495/218/309 496/202/309
s 0
f 497/219/310 498/220/310 499/221/310
s 1
f 500/121/108 501/218/311 502/168/108
f 503/217/311 501/218/311 504/222/311
f 505/223/108 506/224/108 507/225/108
s 0
f 508/226/312 509/227/312 510/228/312
s 1
f 511/55/313 512/47/314 513/46/315
f 514/213/316 515/214/316 516/202/316
f 517/229/317 518/188/317 519/189/302
f 520/230/318 521/231/318 522/232/318
s 0
f 356/37/108 523/59/108 357/33/108
s 1
f 524/233/319 525/234/248 526/235/248
f 527/73/320 528/62/321 529/61/108
f 530/236/322 531/237/322 532/238/322
f 533/175/323 534/176/323 535/177/324
s 0
f 403/37/108 536/59/108 402/33/108
s 1
f 537/86/325 538/81/326 539/80/327
s 0
f 540/36/108 541/168/108 482/37/108
f 482/37/108 542/32/108 480/33/108
s 1
f 543/190/328 544/177/329 545/176/330
s 0
f 546/32/108 489/121/108 547/168/108
f 441/34/108 548/104/108 439/97/108
s 1
f 549/31/331 550/29/332 551/106/248
f 552/232/333 553/239/333 554/230/333
f 555/31/334 556/29/335 557/30/336
f 558/240/337 559/241/338 560/242/339
f 558/240/337 561/243/340 562/244/341
f 563/245/342 564/246/343 565/247/344
f 566/248/345 567/249/346 564/246/343
f 568/250/347 569/251/348 570/252/349
f 571/253/350 570/252/349 572/254/351
f 573/255/352 574/256/353 575/257/354
f 337/119/246 576/258/355 577/259/356
f 578/260/357 359/135/256 579/261/358
s 0
f 580/183/248 581/184/248 582/186/248
f 583/185/248 584/156/248 581/184/248
f 585/36/108 500/121/108 463/37/108
f 586/155/248 587/186/248 588/157/248
f 589/161/248 588/157/248 590/156/248
s 1
f 591/189/359 592/262/360 593/188/359
f 594/263/361 593/188/359 595/262/362
f 596/69/363 597/68/364 598/67/363
f 599/70/365 598/67/363 600/66/366
f 601/264/367 568/250/347 602/265/368
f 603/90/369 604/82/370 605/83/371
f 606/91/370 607/84/372 604/82/370
s 0
f 461/33/108 502/168/108 608/32/108
s 1
f 609/66/373 610/69/374 611/70/375
f 612/67/374 613/71/376 610/69/374
f 614/99/377 615/95/378 616/93/377
f 416/181/275 364/140/258 617/266/379
f 618/98/380 616/93/377 619/94/381
f 620/267/248 621/268/382 622/269/248
f 623/270/383 624/271/384 625/272/385
f 626/273/248 627/274/248 628/275/248
f 629/100/386 630/43/387 631/42/386
f 632/276/388 633/277/389 634/278/390
f 635/101/391 631/42/386 636/41/392
f 637/279/393 638/280/394 639/281/395
f 640/282/394 641/188/396 638/280/394
f 642/75/397 643/65/398 644/63/397
f 645/74/399 644/63/397 646/64/400
f 647/99/401 648/94/402 649/93/401
f 650/103/403 649/93/401 651/95/404
f 652/75/405 653/64/406 654/63/405
f 655/76/407 654/63/405 656/65/408
f 657/89/409 658/77/410 659/79/411
f 660/88/410 661/78/412 658/77/410
f 662/88/413 663/79/414 664/77/413
f 665/87/415 664/77/413 666/78/416
f 667/41/417 668/100/418 669/101/419
f 670/42/418 671/102/420 668/100/418
f 672/48/421 673/51/422 674/52/423
f 675/49/422 676/53/424 673/51/422
f 677/52/425 678/49/426 679/48/427
f 680/51/426 681/50/428 678/49/426
f 682/82/429 683/92/430 684/91/429
f 685/83/431 684/91/429 686/90/432
f 687/57/433 688/38/434 689/39/433
f 690/58/435 689/39/433 691/40/436
f 692/39/437 693/56/438 694/57/437
f 695/40/439 694/57/437 696/58/440
f 380/156/108 697/222/309 381/157/441
f 499/221/442 494/217/309 497/219/442
f 498/220/108 379/155/443 499/221/444
f 445/198/292 498/220/442 698/107/445
f 577/259/356 374/150/108 337/119/246
f 575/257/354 699/161/446 573/255/352
f 700/283/108 640/282/394 344/123/447
f 701/175/448 345/124/449 428/190/281
f 428/190/281 637/279/393 429/176/282
f 513/46/315 688/38/434 511/55/313
f 516/202/316 495/218/309 514/213/316
f 627/274/248 328/110/238 628/275/248
f 374/150/108 327/109/237 375/151/108
f 702/168/108 496/202/309 340/121/108
f 497/219/108 702/168/108 703/284/450
f 699/161/108 580/183/451 380/156/452
f 451/201/294 401/121/108 452/202/295
f 353/132/253 632/276/388 354/133/254
f 328/110/238 634/278/390 329/111/239
f 375/151/108 633/277/389 373/149/108
f 447/199/293 576/258/355 445/198/292
f 354/133/254 627/274/248 352/131/252
f 704/285/453 623/270/383 350/129/250
f 705/286/108 625/272/385 347/126/108
f 706/287/454 624/271/384 377/153/268
f 377/153/268 620/267/248 378/154/269
f 349/128/249 621/268/382 704/285/453
f 405/170/108 369/145/263 406/171/108
f 370/146/264 368/144/262 707/288/264
f 427/177/280 416/181/275 701/175/448
f 352/131/252 338/120/247 708/289/455
f 347/126/108 706/287/454 348/127/108
f 350/129/250 705/286/108 351/130/251
f 359/135/256 346/125/108 360/136/257
f 510/228/108 608/32/108 508/226/456
f 709/202/311 502/168/108 501/218/311
f 710/45/457 510/228/442 443/196/291
f 385/155/108 509/227/458 711/157/459
f 503/217/311 712/290/442 709/202/311
f 358/134/255 444/197/83 579/261/358
f 413/178/273 601/264/367 713/291/460
f 578/260/357 602/265/368 359/135/256
f 412/177/272 569/251/348 410/175/270
f 351/130/251 571/253/350 349/128/249
f 714/183/108 387/161/461 587/186/462
f 504/222/311 386/156/463 503/217/311
f 579/261/358 385/155/464 578/260/357
f 477/213/304 504/222/311 715/202/304
f 471/55/248 693/56/438 716/46/465
f 461/33/108 695/40/439 717/59/108
f 718/50/466 463/37/108 676/53/424
s 0
f 541/168/108 500/121/108 542/32/108
s 1
f 674/52/423 473/54/301 672/48/421
f 330/112/240 412/177/272 719/292/467
f 424/187/277 411/176/271 720/293/468
f 721/294/469 722/190/470 334/116/244
f 480/33/108 643/65/398 723/59/108
f 491/73/248 645/74/399 724/61/471
f 611/70/375 493/72/308 609/66/373
f 725/295/248 332/114/242 525/234/248
f 426/189/279 331/113/241 424/187/277
f 517/229/317 426/189/279 726/296/302
f 333/115/243 425/188/278 721/294/469
f 453/200/296 479/215/304 727/202/296
f 728/121/108 478/214/304 541/168/108
f 587/186/108 477/213/304 588/157/472
f 474/210/302 415/180/274 729/297/302
f 586/155/108 414/179/274 714/183/473
f 334/116/244 413/178/273 335/117/108
f 506/224/108 333/115/243 507/225/108
s 0
f 540/36/108 546/32/108 728/121/108
s 1
f 727/202/296 547/168/108 454/201/296
f 730/68/474 482/37/108 613/71/376
f 467/33/108 663/79/414 731/59/108
f 483/86/305 665/87/415 732/80/475
f 605/83/371 485/85/307 603/90/369
f 533/175/323 524/233/319 733/190/324
f 519/189/302 526/235/248 517/229/317
f 733/190/324 519/189/302 534/176/323
f 734/298/108 518/188/317 506/224/108
f 468/60/108 607/84/372 469/37/108
f 455/203/296 590/156/476 453/200/296
f 729/297/302 586/155/477 475/211/302
f 418/183/108 589/161/478 735/186/479
f 552/232/333 455/203/296 736/231/333
f 476/212/303 505/223/108 474/210/302
f 534/176/323 734/298/108 535/177/324
f 431/192/284 561/243/340 432/193/285
f 369/145/263 737/299/480 459/207/298
f 535/177/324 560/242/339 533/175/323
f 459/207/298 558/240/337 460/208/299
f 460/208/299 476/212/303 367/143/261
s 0
f 486/216/108 489/121/108 487/96/108
s 1
f 736/231/333 486/216/108 553/239/333
f 391/162/108 431/192/284 738/300/481
f 739/263/482 740/301/483 592/262/360
f 741/302/108 430/191/283 405/170/108
f 448/97/108 615/95/378 742/104/108
f 555/31/334 618/98/380 743/106/484
f 669/101/419 557/30/336 667/41/417
f 490/105/108 671/102/420 449/34/108
f 456/204/108 420/185/485 744/209/486
f 554/230/333 419/184/487 552/232/333
f 367/143/261 418/183/488 745/303/489
f 744/209/442 554/230/333 457/205/442
f 592/262/360 741/302/108 593/188/359
s 0
f 407/172/108 404/169/108 746/304/108
s 1
f 440/35/108 458/206/490 747/195/108
f 748/204/442 456/204/442 465/206/442
f 394/165/108 393/164/237 749/305/491
f 591/189/359 392/163/492 739/263/482
f 438/195/108 466/205/493 440/35/108
f 420/185/108 748/204/494 422/184/495
f 520/230/318 464/209/442 750/239/318
f 441/34/108 630/43/387 751/105/108
f 752/30/496 635/101/391 550/29/332
f 753/98/497 549/31/331 648/94/402
f 433/176/286 409/174/108 754/177/498
f 372/148/266 408/173/108 370/146/264
f 593/188/359 407/172/108 595/262/362
f 749/305/108 591/189/359 395/166/499
f 435/190/288 594/263/361 433/176/286
f 434/175/287 396/167/500 435/190/288
f 755/306/501 434/175/287 567/249/346
f 651/95/404 439/97/108 650/103/403
f 750/239/318 438/195/108 521/231/318
s 0
f 401/121/108 756/216/108 757/36/108
s 1
f 530/236/322 758/307/502 759/308/322
f 373/149/108 353/132/253 760/309/108
f 567/249/346 761/310/108 564/246/343
f 564/246/343 762/311/343 565/247/344
f 421/183/108 371/147/265 420/185/503
f 763/175/330 563/245/342 544/177/329
f 764/203/295 522/232/318 451/201/294
f 422/184/108 520/230/318 423/186/504
f 765/161/108 421/183/505 584/156/506
f 766/312/108 545/176/330 389/138/108
f 383/159/108 763/175/330 384/160/507
f 767/189/508 543/190/328 641/188/396
f 403/37/108 683/92/430 768/60/108
f 769/85/509 685/83/431 538/81/326
f 770/87/510 537/86/325 661/78/412
f 659/79/411 402/33/108 657/89/409
s 0
f 399/121/108 771/168/108 397/36/108
s 1
f 515/214/316 399/121/108 516/202/316
f 772/313/276 532/238/322 417/182/276
f 583/185/108 531/237/322 765/161/511
f 389/138/108 530/236/322 390/139/108
f 580/183/108 365/141/259 583/185/512
f 362/138/108 772/313/276 363/139/108
s 0
f 773/312/108 388/137/108 362/138/108
s 1
f 641/188/396 766/312/108 638/280/394
f 584/156/108 764/203/295 581/184/513
f 774/215/316 450/200/294 515/214/316
f 640/282/394 382/158/514 767/189/508
f 343/122/108 775/314/515 700/283/516
f 356/37/108 597/68/364 776/60/108
f 777/72/517 599/70/365 528/62/321
f 778/74/518 527/73/320 653/64/406
f 523/59/108 655/76/407 357/33/108
f 336/118/245 364/140/258 574/256/353
f 574/256/353 366/142/260 575/257/354
f 429/176/282 361/137/108 427/177/280
f 638/280/394 773/312/108 639/281/395
s 0
f 340/121/108 398/168/108 779/36/108
s 1
f 342/37/108 681/50/428 780/60/108
f 781/54/248 677/52/425 512/47/314
f 691/40/436 341/33/108 690/58/435
f 514/213/316 582/186/519 774/215/316
f 697/222/309 514/213/316 495/218/309
f 782/56/520 511/55/313 688/38/434
f 639/281/395 429/176/282 637/279/393
f 344/123/108 428/190/281 345/124/449
f 637/279/393 344/123/447 640/282/394
f 379/155/108 573/255/352 699/161/446
f 760/309/108 337/119/246 374/150/108
f 703/284/442 698/107/445 498/220/442
f 381/157/108 499/221/444 379/155/443
f 496/202/309 497/219/442 494/217/309
f 494/217/309 381/157/441 697/222/309
f 783/315/521 328/110/238 327/109/237
f 581/184/108 774/215/316 582/186/519
f 470/59/108 690/58/435 341/33/108
f 679/48/427 512/47/314 677/52/425
f 784/53/522 780/60/108 681/50/428
s 0
f 355/32/108 779/36/108 398/168/108
s 1
f 361/137/108 639/281/395 773/312/108
f 363/139/108 427/177/280 361/137/108
f 365/141/259 575/257/354 366/142/260
s 0
f 702/168/108 340/121/108 339/32/108
f 779/36/108 342/37/108 340/121/108
s 1
f 366/142/260 574/256/353 364/140/258
f 656/65/408 357/33/108 655/76/407
f 529/61/108 653/64/406 527/73/320
f 600/66/366 528/62/321 599/70/365
f 785/71/523 776/60/108 597/68/364
f 382/158/108 700/283/516 775/314/515
f 384/160/108 767/189/508 382/158/514
f 452/202/295 515/214/316 450/200/294
f 450/200/294 581/184/513 764/203/295
f 388/137/108 638/280/394 766/312/108
s 0
f 390/139/108 362/138/108 388/137/108
s 1
f 416/181/275 363/139/108 772/313/276
f 417/182/276 583/185/512 365/141/259
s 0
f 398/168/108 356/37/108 355/32/108
s 1
f 532/238/322 390/139/108 530/236/322
s 0
f 773/312/108 362/138/108 361/137/108
s 1
f 416/181/275 365/141/259 364/140/258
f 759/308/322 765/161/511 531/237/322
f 531/237/322 417/182/276 532/238/322
f 398/168/108 516/202/316 399/121/108
s 0
f 400/32/108 397/36/108 771/168/108
s 1
f 536/59/108 657/89/409 402/33/108
s 0
f 775/314/248 383/159/248 382/158/248
s 1
f 539/80/327 661/78/412 537/86/325
s 0
f 766/312/108 389/138/108 388/137/108
s 1
f 686/90/432 538/81/326 685/83/431
f 786/84/524 768/60/108 683/92/430
s 0
f 356/37/108 398/168/108 397/36/108
f 771/168/108 401/121/108 400/32/108
f 757/36/108 403/37/108 401/121/108
s 1
f 545/176/330 641/188/396 543/190/328
f 543/190/328 384/160/507 763/175/330
f 544/177/329 389/138/108 545/176/330
f 423/186/108 584/156/506 421/183/505
f 522/232/318 423/186/504 520/230/318
f 521/231/318 451/201/294 522/232/318
f 565/247/344 544/177/329 563/245/342
f 707/288/264 420/185/503 371/147/265
f 758/307/502 565/247/344 762/311/343
f 762/311/343 564/246/343 761/310/108
f 708/289/455 760/309/108 353/132/253
f 436/194/289 759/308/322 758/307/502
f 758/307/502 762/311/343 436/194/289
f 761/310/108 372/148/266 762/311/343
f 436/194/289 762/311/343 372/148/266
s 0
f 756/216/108 438/195/108 437/96/108
f 438/195/108 440/35/108 439/97/108
f 437/96/108 757/36/108 756/216/108
s 1
f 756/216/108 521/231/318 438/195/108
f 548/104/108 650/103/403 439/97/108
f 754/177/498 567/249/346 434/175/287
f 395/166/108 435/190/288 396/167/500
f 595/262/362 433/176/286 594/263/361
f 594/263/361 395/166/499 591/189/359
f 409/174/108 595/262/362 407/172/108
f 746/304/108 370/146/264 408/173/108
f 408/173/108 754/177/498 409/174/108
f 551/106/248 648/94/402 549/31/331
f 636/41/392 550/29/332 635/101/391
f 787/102/525 751/105/108 630/43/387
s 0
f 747/195/108 448/97/108 440/35/108
s 1
f 466/205/442 750/239/318 464/209/442
f 464/209/108 422/184/495 748/204/494
f 465/206/108 440/35/108 466/205/493
f 738/300/108 739/263/482 392/163/492
f 392/163/108 749/305/491 393/164/237
f 458/206/442 465/206/442 456/204/442
f 457/205/108 747/195/108 458/206/490
s 0
f 406/171/108 746/304/108 404/169/108
s 1
f 404/169/108 593/188/359 741/302/108
f 553/239/333 457/205/442 554/230/333
f 420/185/108 745/303/489 418/183/488
s 0
f 747/195/108 486/216/108 448/97/108
f 467/33/108 469/37/108 489/121/108
s 1
f 735/186/108 552/232/333 419/184/487
f 419/184/108 744/209/486 420/185/485
f 788/43/526 449/34/108 671/102/420
f 556/29/335 667/41/417 557/30/336
f 502/168/108 508/226/456 608/32/108
f 619/94/381 743/106/484 618/98/380
f 734/298/108 506/224/108 505/223/108
f 789/103/527 742/104/108 615/95/378
f 432/193/285 405/170/108 430/191/283
f 430/191/283 592/262/360 740/301/483
f 740/301/483 738/300/481 431/192/284
f 747/195/108 553/239/333 486/216/108
s 0
f 488/36/108 487/96/108 489/121/108
s 1
f 725/295/248 525/234/248 524/233/319
f 475/211/302 367/143/261 476/212/303
f 560/242/339 460/208/299 558/240/337
f 559/241/338 533/175/323 560/242/339
f 558/240/337 459/207/298 737/299/480
f 737/299/480 432/193/285 561/243/340
s 0
f 728/121/108 541/168/108 540/36/108
f 541/168/108 542/32/108 482/37/108
s 1
f 505/223/108 535/177/324 734/298/108
s 0
f 467/33/108 489/121/108 546/32/108
s 1
f 507/225/108 474/210/302 505/223/108
f 454/201/296 736/231/333 455/203/296
f 590/156/108 735/186/479 589/161/478
f 589/161/108 475/211/302 586/155/477
f 588/157/108 453/200/296 590/156/476
f 790/92/528 469/37/108 607/84/372
f 726/296/302 506/224/108 518/188/317
f 518/188/317 534/176/323 519/189/302
f 525/234/248 517/229/317 526/235/248
f 526/235/248 733/190/324 524/233/319
f 484/81/306 603/90/369 485/85/307
f 666/78/416 732/80/475 665/87/415
s 0
f 461/33/108 463/37/108 500/121/108
s 1
f 791/89/529 731/59/108 663/79/414
f 481/60/108 613/71/376 482/37/108
f 489/121/108 454/201/296 547/168/108
s 0
f 547/168/108 728/121/108 546/32/108
s 1
f 335/117/108 507/225/108 333/115/243
f 415/180/274 335/117/108 413/178/273
f 713/291/460 714/183/473 414/179/274
f 414/179/274 729/297/302 415/180/274
f 571/253/350 602/265/368 568/250/347
f 479/215/304 588/157/472 477/213/304
f 715/202/304 541/168/108 478/214/304
s 0
f 500/121/108 502/168/108 461/33/108
s 1
f 478/214/304 727/202/296 479/215/304
f 720/293/468 721/294/469 425/188/278
f 425/188/278 726/296/302 426/189/279
f 719/292/467 424/187/277 331/113/241
f 331/113/241 525/234/248 332/114/242
f 492/62/248 609/66/373 493/72/308
f 646/64/400 724/61/471 645/74/399
f 792/76/530 723/59/108 643/65/398
f 410/175/270 334/116/244 722/190/470
f 722/190/470 720/293/468 411/176/271
f 411/176/271 719/292/467 412/177/272
f 472/47/248 672/48/421 473/54/301
s 0
f 585/36/108 542/32/108 500/121/108
s 1
f 462/60/108 676/53/424 463/37/108
f 696/58/440 717/59/108 695/40/439
f 793/38/531 716/46/465 693/56/438
f 501/218/311 715/202/304 504/222/311
f 387/161/108 578/260/357 385/155/464
f 711/157/108 503/217/311 386/156/463
f 386/156/108 587/186/462 387/161/461
f 572/254/351 349/128/249 571/253/350
f 601/264/367 410/175/270 569/251/348
f 571/253/350 359/135/256 602/265/368
f 602/265/368 713/291/460 601/264/367
f 443/196/291 579/261/358 444/197/83
f 508/226/442 709/202/311 712/290/442
f 712/290/108 711/157/459 509/227/458
f 509/227/442 443/196/291 510/228/442
f 783/315/521 628/275/248 328/110/238
f 329/111/239 375/151/108 327/109/237
f 495/218/309 340/121/108 496/202/309
f 339/32/108 703/284/450 702/168/108
f 582/186/108 380/156/452 580/183/451
f 771/168/108 452/202/295 401/121/108
f 634/278/390 354/133/254 632/276/388
f 633/277/389 329/111/239 634/278/390
f 632/276/388 373/149/108 633/277/389
f 573/255/352 445/198/292 576/258/355
f 626/273/248 352/131/252 627/274/248
f 625/272/385 350/129/250 623/270/383
f 624/271/384 347/126/108 625/272/385
f 623/270/383 377/153/268 624/271/384
f 622/269/248 378/154/269 620/267/248
f 620/267/248 704/285/453 621/268/382
f 368/144/262 406/171/108 369/145/263
f 745/303/489 707/288/264 368/144/262
f 617/266/379 701/175/448 416/181/275
f 337/119/246 708/289/455 338/120/247
f 376/152/267 348/127/108 706/287/454
f 346/125/108 351/130/251 705/286/108
f 348/127/108 360/136/257 346/125/108
f 719/292/467 331/113/241 330/112/240
f 721/294/469 334/116/244 333/115/243
f 574/256/353 337/119/246 336/118/245
s 0
f 700/283/248 344/123/248 343/122/248
f 705/286/108 347/126/108 346/125/108
s 1
f 704/285/453 350/129/250 349/128/249
f 708/289/455 353/132/253 352/131/252
f 579/261/358 359/135/256 358/134/255
f 745/303/489 368/144/262 367/143/261
f 707/288/264 371/147/265 370/146/264
s 0
f 760/309/108 374/150/108 373/149/108
s 1
f 706/287/454 377/153/268 376/152/267
s 0
f 699/161/248 380/156/248 379/155/248
f 711/157/248 386/156/248 385/155/248
f 738/300/248 392/163/248 391/162/248
f 749/305/248 395/166/248 394/165/248
f 741/302/108 405/170/108 404/169/108
f 746/304/108 408/173/108 407/172/108
s 1
f 722/190/470 411/176/271 410/175/270
f 713/291/460 414/179/274 413/178/273
f 772/313/276 417/182/276 416/181/275
s 0
f 735/186/248 419/184/248 418/183/248
f 420/185/248 422/184/248 421/183/248
s 1
f 720/293/468 425/188/278 424/187/277
f 701/175/448 428/190/281 427/177/280
f 740/301/483 431/192/284 430/191/283
f 754/177/498 434/175/287 433/176/286
f 710/45/457 443/196/291 442/44/81
f 698/107/445 446/108/79 445/198/292
f 764/203/295 451/201/294 450/200/294
f 727/202/296 454/201/296 453/200/296
s 0
f 744/209/532 457/205/532 456/204/532
f 717/59/108 462/60/108 461/33/108
f 748/204/533 465/206/533 464/209/533
f 731/59/108 468/60/108 467/33/108
f 780/60/108 470/59/108 342/37/108
s 1
f 716/46/465 472/47/248 471/55/248
f 729/297/302 475/211/302 474/210/302
f 715/202/304 478/214/304 477/213/304
s 0
f 723/59/108 481/60/108 480/33/108
s 1
f 732/80/475 484/81/306 483/86/305
s 0
f 742/104/108 490/105/108 448/97/108
s 1
f 724/61/471 492/62/248 491/73/248
f 697/222/309 495/218/309 494/217/309
s 0
f 703/284/310 498/220/310 497/219/310
s 1
f 709/202/311 501/218/311 503/217/311
s 0
f 712/290/312 509/227/312 508/226/312
s 1
f 781/54/248 512/47/314 511/55/313
f 774/215/316 515/214/316 514/213/316
f 726/296/302 518/188/317 517/229/317
f 750/239/318 521/231/318 520/230/318
s 0
f 776/60/108 523/59/108 356/37/108
s 1
f 777/72/517 528/62/321 527/73/320
f 759/308/322 531/237/322 530/236/322
f 733/190/324 534/176/323 533/175/323
s 0
f 768/60/108 536/59/108 403/37/108
s 1
f 769/85/509 538/81/326 537/86/325
f 763/175/330 544/177/329 543/190/328
s 0
f 751/105/108 548/104/108 441/34/108
s 1
f 752/30/496 550/29/332 549/31/331
f 736/231/333 553/239/333 552/232/333
f 743/106/484 556/29/335 555/31/334
f 562/244/341 559/241/338 558/240/337
f 737/299/480 561/243/340 558/240/337
f 566/248/345 564/246/343 563/245/342
f 755/306/501 567/249/346 566/248/345
f 601/264/367 569/251/348 568/250/347
f 568/250/347 570/252/349 571/253/350
f 337/119/246 574/256/353 573/255/352
f 573/255/352 576/258/355 337/119/246
s 0
f 583/185/248 581/184/248 580/183/248
f 765/161/248 584/156/248 583/185/248
f 714/183/248 587/186/248 586/155/248
f 586/155/248 588/157/248 589/161/248
s 1
f 739/263/482 592/262/360 591/189/359
f 591/189/359 593/188/359 594/263/361
f 785/71/523 597/68/364 596/69/363
f 596/69/363 598/67/363 599/70/365
f 606/91/370 604/82/370 603/90/369
f 790/92/528 607/84/372 606/91/370
f 612/67/374 610/69/374 609/66/373
f 730/68/474 613/71/376 612/67/374
f 789/103/527 615/95/378 614/99/377
f 614/99/377 616/93/377 618/98/380
f 787/102/525 630/43/387 629/100/386
f 629/100/386 631/42/386 635/101/391
f 640/282/394 638/280/394 637/279/393
f 767/189/508 641/188/396 640/282/394
f 792/76/530 643/65/398 642/75/397
f 642/75/397 644/63/397 645/74/399
f 753/98/497 648/94/402 647/99/401
f 647/99/401 649/93/401 650/103/403
f 778/74/518 653/64/406 652/75/405
f 652/75/405 654/63/405 655/76/407
f 660/88/410 658/77/410 657/89/409
f 770/87/510 661/78/412 660/88/410
f 791/89/529 663/79/414 662/88/413
f 662/88/413 664/77/413 665/87/415
f 670/42/418 668/100/418 667/41/417
f 788/43/526 671/102/420 670/42/418
f 675/49/422 673/51/422 672/48/421
f 718/50/466 676/53/424 675/49/422
f 680/51/426 678/49/426 677/52/425
f 784/53/522 681/50/428 680/51/426
f 786/84/524 683/92/430 682/82/429
f 682/82/429 684/91/429 685/83/431
f 782/56/520 688/38/434 687/57/433
f 687/57/433 689/39/433 690/58/435
f 793/38/531 693/56/438 692/39/437
f 692/39/437 694/57/437 695/40/439
