# Source-author permission confirmed by the user on 2026-07-25.
# Normalized to metres and Z-up; source UVs/material assignments retained.
# Blender 4.2.0
# www.blender.org
mtllib rv_mod_tem_tunnel_junction.mtl
o rv_mod_tem_tunnel_junction
v 14.011261 -16.000000 2.466040
v 13.645111 13.554659 2.863789
v 13.551764 11.456579 2.924887
v 13.458197 9.356157 2.929962
v 13.364803 7.258296 2.975745
v 13.271437 -13.551754 2.723207
v 13.271437 2.729157 3.014932
v 13.271437 0.298496 3.014932
v 13.271437 -2.132165 3.014932
v 13.271437 -4.562826 3.014932
v 13.271437 -9.057290 2.869070
v 13.271437 5.159817 3.014932
v 13.271437 -11.304522 2.796139
v 13.271437 16.000000 2.545730
v 13.271437 -6.810058 2.942001
v 10.430883 -16.000000 2.493281
v 10.390533 13.554787 2.875202
v 10.344486 11.456675 2.933447
v 10.298218 9.356221 2.935668
v 10.252123 7.258328 2.978599
v 10.208138 -13.552014 2.746514
v 10.206057 5.159817 3.014932
v 10.183449 -11.310355 2.813619
v 10.181889 2.723519 3.014932
v 10.158760 -9.068696 2.880723
v 10.157719 0.287220 3.014932
v 10.149778 16.000000 2.519167
v 10.134071 -6.827036 2.947828
v 10.133551 -2.149079 3.014932
v 10.109383 -4.585377 3.014932
v 7.144838 -13.552275 2.769821
v 7.140675 5.159817 3.014932
v 7.139444 7.258360 2.981452
v 7.138239 9.356285 2.941374
v 7.137209 11.456771 2.942007
v 7.135958 13.554914 2.886614
v 7.095461 -11.316189 2.831099
v 7.092339 2.717881 3.014932
v 7.046082 -9.080102 2.892377
v 7.044001 0.275944 3.014932
v 7.028122 16.000000 2.492603
v 6.996704 -6.844016 2.953655
v 6.995665 -2.165992 3.014932
v 6.947327 -4.607929 3.014932
v 6.850506 -16.000000 2.520523
v 4.271437 -13.552520 2.791684
v 4.075294 5.159817 3.014932
v 4.026764 7.258391 2.984305
v 3.978260 9.356349 2.947081
v 3.929932 11.456866 2.950566
v 3.906464 16.000000 2.466040
v 3.881380 13.555041 2.898027
v 3.839670 -11.324223 2.847496
v 3.537474 -16.000000 2.545730
v 3.407902 -9.095925 2.903308
v 2.976133 -6.867628 2.959120
v 2.544365 -4.639331 3.014932
v 2.434587 -2.688101 3.014932
v 2.324812 -0.736871 3.014932
v 2.215034 1.214358 3.014932
v 2.105259 3.165588 3.014932
v -1.249134 -4.558587 3.054790
v -1.331514 -2.532664 3.059069
v -1.413895 -0.506742 3.063349
v -1.496275 1.519180 3.067629
v -1.578655 3.545103 3.071909
v -5.033483 -4.477069 2.995663
v -5.088467 -2.376455 3.004222
v -5.143450 -0.275840 3.012782
v -5.198434 1.824775 3.021341
v -5.253418 3.925390 3.029901
v -8.821410 -4.396785 2.956222
v -8.848998 -2.221478 2.969061
v -8.876585 -0.046170 2.981900
v -8.904173 2.129137 2.994740
v -8.931761 4.304445 3.007579
v -12.605724 -4.315096 2.816489
v -12.605916 -2.065096 2.833608
v -12.606107 0.184904 2.850727
v -12.606298 2.434904 2.867846
v -12.606490 4.684904 2.884965
v -15.041138 5.421388 2.545730
v -15.041138 2.802941 2.525807
v -15.041138 0.184494 2.505885
v -15.041138 -2.433953 2.485963
v -15.041138 -5.052400 2.466040
v 8.770470 -16.500000 9.117973
v 6.182468 -16.500000 8.890882
v 14.859880 -16.500000 3.392424
v 13.742634 -16.500000 2.369793
v 8.917576 -16.500000 0.294539
v 6.128305 -16.500000 1.002102
v 8.770470 -16.500000 9.117973
v 11.358469 -16.500000 8.918279
v 14.098703 -16.500000 7.233533
v 14.859880 -16.500000 5.837104
v 2.376587 -16.500000 4.302861
v 2.681057 -16.500000 5.753249
v 2.681057 -16.500000 3.266870
v 3.442234 -16.500000 7.207090
v 4.507881 -16.500000 8.253445
v 15.164351 -16.500000 4.439069
v 3.847340 -16.500000 2.286282
v 11.608776 -16.500000 1.043800
v 13.033056 -16.500000 8.275361
v 12.820620 -15.859132 8.040872
v 14.809450 -15.759965 4.402270
v 14.521938 -15.759173 5.722440
v 14.521938 -15.758763 3.413920
v 8.910597 -15.757382 0.452372
v 3.021427 -15.757322 5.643255
v 13.466917 -15.757253 2.442212
v 11.451906 -15.757117 1.171970
v 6.276676 -15.757070 1.132594
v 3.740210 -15.756919 7.016124
v 2.733915 -15.756744 4.273649
v 4.122753 -15.756632 2.363352
v 3.021427 -15.756518 3.295359
v 4.746504 -15.754199 8.004200
v 8.771683 -15.753915 8.820578
v 8.771683 -15.753915 8.820578
v 6.327824 -15.752189 8.606135
v 13.778557 -15.698591 7.127306
v 11.413080 -15.697802 8.649067
v 14.452757 -14.789860 4.444302
v 14.182289 -14.786695 5.686213
v 14.182289 -14.785053 3.514539
v 13.030724 -14.779749 7.517659
v 8.903582 -14.779528 0.617796
v 13.189808 -14.779011 2.581974
v 11.294245 -14.778471 1.331655
v 6.425798 -14.778279 1.294613
v 4.039690 -14.777676 6.903208
v 3.093048 -14.776977 4.323305
v 4.399557 -14.776526 2.507789
v 3.363518 -14.776074 3.403007
v 4.986334 -14.766794 7.832713
v 8.772903 -14.765657 8.600696
v 8.772903 -14.765657 8.600696
v 6.473913 -14.758753 8.398965
v 13.662670 -14.679668 6.782725
v 10.867821 -14.674736 8.535323
v 8.921471 -14.646954 0.639893
v 11.743187 -14.373217 8.300268
v 12.881079 -12.783126 2.755889
v 7.021322 -12.780141 1.457461
v 4.471760 -12.746285 7.315491
v 11.087675 -12.732001 1.725973
v 5.197969 -12.722479 7.788783
v 9.191675 -12.693760 1.011920
v 3.969061 -12.662652 6.821366
v 6.079420 -12.641618 8.119673
v 13.713654 -12.625525 3.557632
v 8.657534 -12.611403 1.038142
v 5.126324 -12.541185 2.134639
v 6.445736 -12.428922 8.461248
v 4.116499 -12.394897 2.743284
v 3.200924 -12.387278 4.447565
v 12.502693 -12.338766 7.292785
v 13.905855 -12.324760 5.380054
v 14.085464 -12.324392 4.553761
v 13.076418 -12.270134 6.747886
v 3.441034 -12.250467 3.563573
v 8.614372 -12.228223 8.577434
v 8.614372 -12.228223 8.577434
v 11.570215 -12.053913 7.856346
v 10.636597 -11.862507 8.286983
v 10.865395 -10.529900 2.150278
v 3.896414 -10.487152 6.737184
v 10.098822 -10.402689 1.945713
v 3.878592 -10.393172 2.941214
v 9.518908 -10.328341 1.462463
v 7.757910 -10.308701 1.658882
v 8.395460 -10.302055 1.485867
v 3.500883 -10.300490 3.687544
v 3.298229 -10.231734 4.559649
v 12.477640 -10.174970 2.983155
v 12.154205 -10.147421 6.951516
v 12.832895 -10.120149 6.619438
v 12.711601 -10.028936 3.237304
v 11.416611 -10.004477 7.464534
v 7.572954 -9.988676 8.584599
v 7.572954 -9.988676 8.584599
v 10.783930 -9.985722 7.810008
v 6.415283 -9.910826 8.528564
v 13.105433 -9.822765 3.613560
v 10.175104 -9.742738 8.396133
v 5.518166 -9.629528 7.722318
v 13.598989 -9.591792 5.040191
v 13.663721 -9.493432 4.679447
v 8.220192 -8.757623 1.785294
v 9.768091 -8.527102 1.805547
v 10.651461 -8.410469 2.558653
v 12.198259 -8.368821 3.140536
v 3.605350 -8.341265 2.996503
v 12.705099 -7.977983 3.650373
v 3.566227 -7.627964 6.862859
v 3.162664 -7.609956 3.792968
v 11.039982 -7.597007 7.122736
v 2.988155 -7.533121 4.688167
v 6.385979 -7.487780 8.593340
v 6.385979 -7.487780 8.593340
v 10.738794 -7.462899 7.419766
v 13.356056 -7.428220 4.771137
v 11.430725 -7.383263 6.836265
v 7.871077 -7.380213 2.643545
v 12.330259 -7.358221 6.520526
v 9.827669 -7.269073 8.326323
v 9.827669 -7.269073 8.326323
v 4.972345 -7.170043 7.394597
v 4.241611 -7.089595 7.132991
v 9.994438 -7.002416 1.973520
v 12.177303 -6.950562 3.213974
v 10.835340 -6.949871 2.645238
v -15.541138 -6.205489 4.439069
v -15.541138 -6.205489 4.439069
v 2.510218 -6.081717 4.751750
v 2.510218 -6.081717 4.751750
v 2.510218 -6.081717 4.751750
v 10.550280 -6.067627 7.144620
v 10.905310 -6.050332 6.790385
v 2.694981 -6.041666 3.830187
v 2.694981 -6.041666 3.830187
v 2.694981 -6.041666 3.830187
v 11.568096 -5.987396 6.588577
v 12.005810 -5.907729 6.233107
v -15.541138 -5.901018 5.837104
v -15.541138 -5.901018 3.392424
v -14.801103 -5.881947 4.402270
v -14.801103 -5.881947 4.402270
v 8.169312 -5.867962 2.359406
v 10.365492 -5.855010 7.610453
v 3.091885 -5.840150 3.178929
v 3.091885 -5.840150 3.178929
v 2.965431 -5.806384 6.815756
v 2.965431 -5.806384 6.815756
v 12.521235 -5.761645 5.872992
v 12.469124 -5.707272 3.219900
v 9.736593 -5.685436 8.232623
v 9.736593 -5.685436 8.232623
v 9.736593 -5.685436 8.232623
v 10.230019 -5.663529 1.920150
v 11.004938 -5.662862 2.557738
v 4.422766 -5.616733 2.802259
v 4.422766 -5.616733 2.802259
v -14.799901 -5.603617 3.413920
v -14.800311 -5.580054 5.722440
v 3.648718 -5.555991 7.124260
v 1.759901 -5.375324 4.791008
v 1.759901 -5.375324 4.791008
v 1.759901 -5.375324 4.791008
v 1.759901 -5.375324 4.791008
v -12.166689 -5.330434 4.548117
v -12.166689 -5.330434 4.548117
v 4.370256 -5.324490 7.342717
v 10.834652 -5.241024 6.986538
v 5.772442 -5.210608 8.590353
v 1.975872 -5.191553 3.843527
v 1.975872 -5.191553 3.843527
v 1.975872 -5.191553 3.843527
v -12.365524 -5.175054 3.701094
v 11.246298 -5.152257 6.609549
v -15.541138 -5.139842 7.233533
v -9.244900 -5.058043 4.649959
v -9.244900 -5.058043 4.649959
v -12.093261 -5.006334 5.724294
v 12.347504 -4.973433 6.176788
v -9.246832 -4.971205 4.229557
v 10.664152 -4.919721 7.467714
v 0.632688 -4.911742 4.846550
v 0.632688 -4.911742 4.846550
v -9.278818 -4.871305 5.941580
v -14.798986 -4.848538 7.041094
v 2.165150 -4.785382 7.147299
v 2.165150 -4.785382 7.147299
v 2.165150 -4.785382 7.147299
v -15.541138 -4.783772 2.369793
v -6.123842 -4.767075 4.758747
v -6.123842 -4.767075 4.758747
v -9.249458 -4.757436 3.736091
v -6.340530 -4.730333 6.168427
v 12.872934 -4.677693 5.827320
v -0.966722 -4.668094 4.852022
v -0.966722 -4.668094 4.852022
v 0.883381 -4.655548 3.877318
v -3.133630 -4.621503 4.741066
v -3.133630 -4.621503 4.741066
v 13.254793 -4.600357 3.845492
v -3.186425 -4.597497 6.655509
v 0.988214 -4.574354 7.076779
v 2.476625 -4.549467 3.094446
v 2.476625 -4.549467 3.094446
v 2.476625 -4.549467 3.094446
v -14.798390 -4.547644 2.442212
v 11.150129 -4.510335 2.467249
v 12.793879 -4.496080 3.183920
v -0.731477 -4.494105 7.034622
v -3.137360 -4.460122 7.132593
v 2.970926 -4.445561 7.312595
v 2.970926 -4.445561 7.312595
v 10.295729 -4.421911 8.121202
v 10.295729 -4.421911 8.121202
v -6.151015 -4.417555 7.255312
v -11.931033 -4.385534 2.925842
v 10.487370 -4.382972 1.864583
v -9.302073 -4.375784 7.066462
v -0.793353 -4.372079 3.899889
v 13.514536 -4.362984 4.713524
v -12.085308 -4.338890 6.899657
v 8.082115 -4.319849 2.439177
v -5.955492 -4.315976 3.773085
v -3.265192 -4.279578 3.879565
v 4.675980 -4.249223 2.647710
v 4.675980 -4.249223 2.647710
v 4.675980 -4.249223 2.647710
v -15.541138 -4.074195 8.275361
v -9.235209 -3.913422 2.928055
v -14.798585 -3.837999 8.024896
v -6.087885 -3.819967 7.891665
v -3.363412 -3.687687 3.219793
v -9.368512 -3.625301 7.810990
v -0.416562 -3.480150 3.010221
v 3.458273 -3.468437 7.386703
v 3.458273 -3.468437 7.386703
v -12.082903 -3.464234 7.744240
v -6.616850 -3.454876 2.930205
v 8.709658 -3.389794 8.715348
v 8.709658 -3.389794 8.715348
v 8.709658 -3.389794 8.715348
v -3.041764 -3.208986 8.004867
v 11.212992 -3.195326 2.483635
v 12.871731 -3.174111 3.131644
v 13.663769 -3.163689 4.934842
v 5.117643 -3.071911 8.839103
v -9.218712 -3.012271 2.330850
v -6.082083 -2.824533 8.199370
v -2.990285 -2.732692 8.150887
v -0.263277 -2.651686 8.108123
v -15.541138 -2.649913 1.043800
v 8.121359 -2.642165 8.907769
v 8.121359 -2.642165 8.907769
v 12.700359 -2.625430 6.954762
v 8.543753 -2.600167 2.802887
v -14.798255 -2.516607 1.171970
v -12.374571 -2.475425 1.603878
v -15.541138 -2.399607 8.918279
v 4.890558 -2.385767 2.744500
v 4.890558 -2.385767 2.744500
v -9.366667 -2.340557 8.249916
v -3.589354 -2.320664 2.676868
v -14.797732 -2.256679 8.632005
v 11.707769 -2.057640 7.847144
v 10.444124 -2.009386 8.654580
v -11.871021 -1.971545 8.288455
v -9.180904 -1.914693 2.016419
v 13.621229 -1.863681 4.910721
v 11.357277 -1.713677 2.805142
v 8.181204 -1.568285 8.902296
v 8.181204 -1.568285 8.902296
v -6.154338 -1.383301 2.407374
v 8.539555 -1.027290 2.824187
v 4.855278 -0.913775 2.776901
v 4.855278 -0.913775 2.776901
v 1.873596 -0.863748 2.250361
v 1.873596 -0.863748 2.250361
v 12.765968 -0.752347 3.014932
v 9.517778 -0.725348 8.703377
v 9.517778 -0.725348 8.703377
v -9.109821 -0.722091 1.495677
v -2.873005 -0.721459 7.943538
v -0.433428 -0.717004 2.013922
v -3.030416 -0.516246 1.842927
v 11.421524 -0.426047 7.311654
v 12.235338 -0.375768 6.615847
v 10.622910 -0.331614 7.829655
v -5.497116 -0.325560 1.680510
v -5.497116 -0.325560 1.680510
v 13.298883 -0.297500 4.863208
v -8.852262 -0.213615 1.138328
v -8.852262 -0.213615 1.138328
v -11.826126 -0.114392 0.657761
v 10.004787 0.001329 8.175105
v -15.541138 0.041287 0.294539
v -14.798520 0.042375 0.452372
v -9.436637 0.054671 8.000317
v 0.159702 0.164027 7.561260
v -14.795053 0.187179 8.820578
v -15.541138 0.188393 9.117973
v -0.401580 0.540829 2.794799
v -0.401580 0.540829 2.794799
v -9.359801 0.553437 1.666283
v 2.234488 0.588776 7.947656
v 2.234488 0.588776 7.947656
v 4.627691 0.780274 2.828897
v 4.627691 0.780274 2.828897
v 4.627691 0.780274 2.828897
v 4.627691 0.780274 2.828897
v 4.627691 0.780274 2.828897
v -2.999075 0.855624 2.791012
v 8.542580 1.018876 8.627678
v 8.542580 1.018876 8.627678
v -2.824389 1.037786 7.617501
v -6.622213 1.294718 2.785730
v 1.130674 1.570469 7.242741
v 3.691113 1.654291 8.930475
v 12.868246 1.671315 4.692013
v 12.351927 1.708940 3.014932
v 12.351927 1.708940 3.014932
v 10.693136 1.739754 2.724996
v -9.373928 1.768415 2.199939
v 2.041601 1.940035 7.376950
v 2.041601 1.940035 7.376950
v 9.248259 2.119890 2.551670
v -6.842095 2.214191 7.693223
v -2.734906 2.219473 6.990215
v -9.395426 2.220901 7.948267
v 0.102752 2.223123 6.504508
v -12.141923 2.228117 8.222606
v -12.375985 2.285208 1.560855
v 2.804832 2.374596 7.781427
v -2.682463 2.612319 6.654927
v -14.793326 2.631038 8.606135
v 1.114037 2.662910 6.372002
v 5.486683 2.676548 2.523716
v -14.798207 2.682185 1.132594
v -15.541138 2.776393 8.890882
v 4.847826 2.777525 2.350373
v -9.327314 2.785836 2.772228
v 4.198208 2.822091 2.839167
v 4.198208 2.822091 2.839167
v -15.541138 2.830557 1.002102
v -9.313457 2.846146 7.695600
v 1.047380 2.954024 3.150396
v 2.140177 2.968168 6.631626
v 2.140177 2.968168 6.631626
v 7.556934 3.001359 2.487061
v -0.491783 3.109848 3.152087
v 2.266935 3.139487 3.096161
v 2.266935 3.139487 3.096161
v 2.266935 3.139487 3.096161
v 2.266935 3.139487 3.096161
v -7.261655 3.252199 6.902234
v 8.958372 3.340337 2.487821
v -9.328266 3.387389 7.238615
v 12.660355 3.419453 3.014932
v 12.660355 3.419453 3.014932
v -2.708933 3.430943 3.159955
v 2.035187 3.436094 3.812002
v 2.035187 3.436094 3.812002
v 0.988142 3.450540 3.717530
v 0.952329 3.487883 4.504846
v -0.526141 3.541217 4.587452
v 10.447561 3.568665 2.380108
v -12.152601 3.572147 7.698330
v -0.502500 3.607477 3.729293
v 12.264097 3.697779 2.718872
v 1.803438 3.732701 4.527843
v 1.803438 3.732701 4.527843
v -9.338966 3.758789 6.883965
v -2.568507 3.861915 4.634560
v -6.043610 3.913881 3.171788
v -2.616021 3.928076 3.743535
v 3.068981 3.953309 6.531620
v 6.790642 3.971754 2.416177
v -9.301098 4.071272 2.941882
v -11.885839 4.196158 2.759457
v -14.795337 4.212358 8.004200
v 7.987652 4.217534 1.646687
v -5.992556 4.399569 4.713537
v 2.460703 4.405502 4.596838
v 2.613546 4.422580 3.764047
v -15.541138 4.450982 8.253445
v -6.086956 4.454581 3.766922
v -12.289515 4.478334 6.858018
v -14.797770 4.836109 2.363352
v -9.326592 4.858137 3.646752
v -9.303629 4.939797 4.609370
v -15.541138 5.111523 2.286282
v -12.077329 5.200792 3.544716
v -14.798057 5.218652 7.016124
v 12.024670 5.233068 6.621642
v 6.295254 5.236457 8.513345
v 6.295254 5.236457 8.513345
v 10.125347 5.370128 7.730132
v -11.964706 5.373973 4.525653
v -15.541138 5.516628 7.207090
v 4.862831 5.542053 2.100665
v 9.426825 5.640918 8.258826
v 9.426825 5.640918 8.258826
v 3.980394 5.675233 6.642354
v 3.335148 5.694485 5.244377
v 6.001741 5.699169 2.377654
v 3.501226 5.722847 3.719361
v 3.964314 5.737545 3.109492
v 12.840982 5.755522 2.967403
v 13.203241 5.780330 4.447398
v 12.586939 5.816467 2.786301
v 8.310488 5.922014 1.446564
v -14.798460 5.937434 5.643255
v -14.797656 5.937434 3.295359
v 11.223143 5.956557 2.499374
v 4.613441 5.971910 8.269724
v 10.818542 6.002623 7.123960
v 9.273413 6.044209 1.774633
v -14.797882 6.224947 4.273649
v -15.541138 6.277805 5.753249
v -15.541138 6.277805 3.266870
v -15.541138 6.582275 4.302861
v 8.813995 9.039375 0.887860
v 13.112263 9.263991 2.896021
v 13.783247 9.350327 4.418459
v 7.200661 9.366048 1.284243
v 10.216032 9.376868 1.540373
v 12.815090 9.468549 6.713291
v 12.385824 9.536270 2.678167
v 4.541965 9.784434 2.492420
v 4.180590 9.853572 2.898088
v 7.943895 9.878956 8.458583
v 7.943895 9.878956 8.458583
v 11.050728 9.902666 7.756105
v 5.084414 9.921290 7.996846
v 4.342136 9.954853 6.840117
v 3.585836 9.975471 3.730679
v 10.546553 9.981088 8.212044
v 5.866846 10.003499 8.295371
v 3.490004 10.039531 5.242465
v 6.239914 10.757900 1.734061
v 13.386721 12.531639 6.779572
v 11.208042 12.545087 8.184405
v 13.366863 12.556731 2.829028
v 6.664719 12.569863 8.311696
v 8.700581 12.583832 0.458265
v 3.577438 12.585089 5.241571
v 3.643557 12.593549 3.732940
v 4.568300 12.630480 6.963759
v 4.326588 12.632078 2.755381
v 8.978895 12.793464 8.424204
v 8.978895 12.793464 8.424204
v 11.083862 12.817185 1.319847
v 14.373821 12.985387 4.388993
v 5.470318 13.157336 7.773254
v 14.169641 13.158920 3.597992
v 6.384056 13.162563 1.383949
v 11.589901 15.752189 8.606135
v 9.146042 15.753915 8.820578
v 9.146042 15.753915 8.820578
v 13.171221 15.754199 8.004200
v 14.896389 15.756542 3.297499
v 6.702183 15.756595 8.632005
v 13.795109 15.756667 2.317472
v 15.183832 15.756750 4.274184
v 14.177515 15.756919 7.016124
v 11.641140 15.757093 0.938375
v 6.418177 15.757117 0.975611
v 4.367435 15.757253 2.393122
v 14.896297 15.757322 5.643255
v 8.995241 15.757388 0.158369
v 5.120863 15.757447 8.024896
v 4.102659 15.757849 7.041094
v 3.300505 15.758763 3.413920
v 3.265268 15.758917 3.540278
v 3.237726 15.759444 5.271473
v 14.475491 16.500000 7.207090
v 15.236668 16.500000 5.753249
v 11.789419 16.500000 0.805743
v 6.559256 16.500000 8.918279
v 14.070385 16.500000 2.237192
v 2.753374 16.500000 4.439069
v 4.884668 16.500000 8.275361
v 15.541138 16.500000 4.302861
v 15.236668 16.500000 3.266870
v 3.057844 16.500000 3.392424
v 4.175091 16.500000 2.320704
v 9.000149 16.500000 0.000000
v 11.735256 16.500000 8.890882
v 6.308949 16.500000 0.847441
v 9.147255 16.500000 9.117973
v 3.819021 16.500000 7.233533
v 3.057844 16.500000 5.837104
v 13.409843 16.500000 8.253445
v 9.147255 16.500000 9.117973
vn -0.1402 -0.0075 0.9901
vn -0.0875 -0.0073 0.9961
vn -0.0875 -0.0075 0.9961
vn -0.0208 -0.0061 0.9998
vn -0.0212 -0.0061 0.9998
vn -0.0099 -0.0042 0.9999
vn -0.0102 -0.0043 0.9999
vn 0.0012 -0.0020 1.0000
vn 0.0007 -0.0020 1.0000
vn 0.0071 -0.0001 1.0000
vn 0.0070 -0.0001 1.0000
vn -0.0000 -0.0000 1.0000
vn 0.0006 -0.0155 0.9999
vn -0.0883 -0.0075 0.9961
vn -0.0886 -0.0073 0.9960
vn -0.0229 -0.0062 0.9997
vn -0.0232 -0.0059 0.9997
vn -0.0122 -0.0044 0.9999
vn -0.0124 -0.0047 0.9999
vn -0.0015 -0.0021 1.0000
vn -0.0021 -0.0021 1.0000
vn 0.0056 0.0001 1.0000
vn 0.0040 -0.0089 1.0000
vn 0.0004 -0.0139 0.9999
vn 0.0018 -0.0274 0.9996
vn 0.0020 -0.0299 0.9996
vn 0.0039 -0.0299 0.9995
vn 0.0038 -0.0313 0.9995
vn 0.0056 -0.0314 0.9995
vn -0.0879 -0.0075 0.9961
vn -0.0221 -0.0061 0.9997
vn -0.0112 -0.0044 0.9999
vn -0.0004 -0.0021 1.0000
vn 0.0066 -0.0004 1.0000
vn 0.0004 -0.0152 0.9999
vn 0.0019 -0.0314 0.9995
vn 0.0017 -0.0257 0.9997
vn 0.0035 -0.0273 0.9996
vn 0.0033 -0.0255 0.9997
vn 0.0054 -0.0273 0.9996
vn 0.0052 -0.0255 0.9997
vn 0.0072 -0.0644 0.9979
vn 0.0071 -0.0640 0.9979
vn 0.0076 -0.1022 0.9947
vn 0.0002 0.0077 1.0000
vn 0.0001 0.0078 1.0000
vn 0.0006 0.0165 0.9999
vn 0.0009 0.0175 0.9998
vn 0.0015 0.0082 1.0000
vn 0.0018 0.0094 1.0000
vn 0.0024 0.0122 0.9999
vn 0.0027 0.0131 0.9999
vn 0.0004 0.0964 0.9953
vn 0.0005 0.0930 0.9957
vn -0.0024 0.1665 0.9860
vn -0.0023 0.1590 0.9873
vn -0.0024 0.1363 0.9907
vn -0.0024 0.1438 0.9896
vn 0.0004 0.0824 0.9966
vn 0.0004 0.0860 0.9963
vn 0.0029 0.0158 0.9999
vn 0.0027 0.0143 0.9999
vn 0.0021 0.0115 0.9999
vn 0.0018 0.0107 0.9999
vn 0.0012 0.0200 0.9998
vn 0.0009 0.0189 0.9998
vn 0.0003 0.0092 1.0000
vn 0.0001 0.0085 1.0000
vn 0.0057 -0.0299 0.9995
vn 0.0071 -0.0667 0.9977
vn 0.0073 -0.0658 0.9978
vn -0.0102 0.2505 -0.9681
vn -0.2060 0.3833 -0.9003
vn -0.2435 0.2884 -0.9260
vn -0.4905 0.4134 -0.7671
vn -0.5364 0.3218 -0.7802
vn -0.7255 0.4289 -0.5383
vn -0.7660 0.3448 -0.5426
vn -0.8481 0.4336 -0.3044
vn -0.8864 0.3567 -0.2952
vn -0.9011 0.4320 0.0368
vn -0.9323 0.3594 0.0403
vn -0.7795 0.3754 0.5014
vn -0.8054 0.3210 0.4983
vn -0.5749 0.2897 0.7652
vn -0.5955 0.2554 0.7617
vn -0.3988 0.2402 0.8850
vn -0.4109 0.2091 0.8874
vn 0.0112 0.2153 0.9765
vn 0.0137 0.1726 0.9849
vn 0.4293 0.2132 0.8776
vn 0.4402 0.1570 0.8841
vn 0.6200 0.1612 0.7679
vn 0.6981 0.0549 0.7139
vn 0.7961 0.1973 0.5721
vn 0.9479 0.0557 0.3138
vn 0.9300 0.2932 0.2217
vn 0.9713 0.0367 -0.2349
vn 0.9171 0.3022 -0.2600
vn 0.8172 0.0265 -0.5758
vn 0.7634 0.2957 -0.5743
vn 0.5439 0.0021 -0.8391
vn 0.5178 0.2714 -0.8113
vn 0.2193 0.2528 -0.9423
vn 0.2024 0.3854 -0.9003
vn -0.0047 0.3704 -0.9289
vn 0.6148 0.2317 0.7539
vn 0.8189 0.2840 0.4987
vn 0.9058 0.4228 0.0273
vn 0.8565 0.4167 -0.3045
vn 0.7207 0.4407 -0.5351
vn 0.4900 0.4122 -0.7681
vn -0.0169 0.0622 -0.9979
vn -0.3733 0.1423 -0.9167
vn -0.7223 0.2165 -0.6569
vn -0.0124 -0.0069 -0.9999
vn -0.3771 0.0870 -0.9221
vn -0.5958 0.1522 -0.7886
vn -0.3084 0.0148 -0.9512
vn -0.5916 0.0492 -0.8047
vn -0.5030 -0.1756 -0.8463
vn -0.5300 -0.1961 -0.8250
vn -0.3068 -0.1848 -0.9337
vn -0.3569 -0.0155 -0.9340
vn -0.0621 0.0880 -0.9942
vn -0.1480 0.1622 -0.9756
vn -0.3081 0.0147 -0.9512
vn -0.2391 -0.1172 -0.9639
vn -0.0113 -0.0556 -0.9984
vn -0.0505 -0.0515 -0.9974
vn 0.2046 0.1387 -0.9690
vn -0.0620 0.0880 -0.9942
vn -0.1477 0.1622 -0.9756
vn -0.0114 -0.0555 -0.9984
vn -0.2394 -0.1172 -0.9638
vn -0.0802 -0.0493 0.9956
vn -0.0645 -0.0215 0.9977
vn -0.0791 -0.0592 0.9951
vn 0.0642 0.0756 0.9951
vn 0.0411 0.0216 0.9989
vn -0.0301 -0.3240 0.9456
vn -0.0645 -0.0216 0.9977
vn -0.0793 -0.0936 0.9924
vn 0.2816 0.3616 0.8888
vn 0.0644 0.5037 0.8615
vn 0.5307 0.6962 0.4833
vn 0.2467 0.8225 0.5125
vn 0.2413 0.9685 0.0623
vn 0.0674 0.9907 0.1182
vn 0.5309 0.6961 0.4834
vn 0.8249 0.4059 0.3935
vn 0.2818 0.3615 0.8888
vn 0.5397 0.1910 0.8199
vn 0.0643 0.0756 0.9951
vn 0.1512 0.0495 0.9873
vn 0.5309 0.6962 0.4832
vn 0.5519 0.8339 0.0076
vn 0.8249 0.4060 0.3933
vn 0.8601 0.5095 -0.0241
vn 0.2855 0.6482 -0.7060
vn 0.6070 0.4094 -0.6811
vn 0.5519 0.8339 0.0075
vn 0.8601 0.5096 -0.0243
vn 0.2855 0.6481 -0.7060
vn 0.2412 0.9685 0.0620
vn 0.1545 0.8106 -0.5649
vn 0.0185 0.8786 -0.4771
vn -0.0394 0.2340 -0.9714
vn -0.0410 0.4474 -0.8934
vn -0.0185 0.0988 -0.9949
vn -0.0078 0.1022 -0.9947
vn -0.0971 -0.3229 -0.9414
vn -0.0652 -0.0633 -0.9959
vn -0.0980 -0.1952 -0.9759
vn -0.0948 0.1034 -0.9901
vn -0.1493 -0.1728 -0.9736
vn -0.2625 0.2122 -0.9413
vn -0.2455 -0.0096 -0.9694
vn -0.3854 0.2024 -0.9003
vn -0.3702 -0.0048 -0.9289
vn -0.4137 0.4903 -0.7671
vn -0.2887 0.5156 -0.8067
vn -0.0556 0.5325 -0.8446
vn 0.0036 0.1109 -0.9938
vn 0.0478 0.5277 -0.8481
vn 0.0019 0.5014 -0.8652
vn 0.0014 0.8411 -0.5408
vn -0.0290 0.8190 -0.5731
vn -0.0107 0.9878 -0.1551
vn 0.0674 0.9907 0.1179
vn -0.0230 0.9914 0.1286
vn -0.0291 0.9878 -0.1527
vn -0.0766 0.9811 0.1775
vn -0.0254 0.9613 -0.2743
vn -0.0813 0.9963 0.0288
vn -0.1066 0.9322 -0.3460
vn -0.1425 0.9898 0.0032
vn -0.3046 0.9523 0.0178
vn -0.4229 0.7214 -0.5484
vn -0.3026 0.7570 -0.5791
vn -0.0712 0.7980 -0.5985
vn 0.0343 0.8267 -0.5616
vn -0.4170 0.8504 -0.3206
vn -0.3061 0.8882 -0.3427
vn -0.4004 0.9159 0.0290
vn -0.4003 0.9159 0.0293
vn -0.3045 0.9523 0.0181
vn -0.3366 0.7987 0.4988
vn -0.2680 0.8274 0.4936
vn -0.2597 0.5841 0.7690
vn -0.2164 0.6014 0.7691
vn -0.2243 0.3925 0.8920
vn -0.1798 0.4128 0.8929
vn -0.2135 0.0111 0.9769
vn -0.1723 0.0105 0.9850
vn -0.2328 -0.3628 0.9023
vn -0.2086 -0.3804 0.9010
vn -0.2809 -0.5478 0.7880
vn -0.2567 -0.5518 0.7935
vn -0.3724 -0.7740 0.5120
vn -0.3242 -0.7952 0.5124
vn -0.4319 -0.9012 0.0367
vn -0.3585 -0.9331 0.0279
vn -0.4336 -0.8481 -0.3045
vn -0.3619 -0.8811 -0.3044
vn -0.4289 -0.7254 -0.5384
vn -0.3557 -0.7565 -0.5488
vn -0.4135 -0.4905 -0.7671
vn -0.3190 -0.5114 -0.7979
vn -0.3834 -0.2060 -0.9003
vn -0.2804 -0.2153 -0.9354
vn -0.1425 0.9898 0.0035
vn -0.1486 0.8748 0.4611
vn -0.1391 0.6254 0.7678
vn -0.1456 0.4210 0.8953
vn -0.1774 0.0024 0.9841
vn -0.2215 -0.4133 0.8833
vn -0.1836 -0.4803 0.8577
vn -0.2035 -0.8433 0.4974
vn -0.2459 -0.9600 -0.1341
vn -0.0813 0.9963 0.0290
vn -0.1127 0.9473 0.2999
vn -0.1205 0.8152 0.5665
vn -0.0745 0.8199 0.5677
vn -0.0955 0.5069 0.8567
vn -0.0005 0.5018 0.8650
vn 0.0320 0.4145 0.9095
vn -0.0610 -0.1988 0.9781
vn -0.0483 -0.3680 0.9286
vn -0.0664 -0.4736 0.8783
vn -0.0570 -0.4764 0.8774
vn -0.1408 -0.9369 0.3201
vn -0.1097 -0.9391 0.3257
vn -0.1536 -0.9403 -0.3038
vn -0.0725 -0.9538 -0.2916
vn -0.1391 -0.7447 -0.6527
vn 0.0291 -0.6650 -0.7463
vn -0.1405 -0.5473 -0.8251
vn -0.1117 -0.3210 -0.9405
vn -0.0419 -0.1410 -0.9891
vn -0.0767 0.9811 0.1778
vn 0.0091 -0.3559 -0.9345
vn 0.0149 -0.2768 -0.9608
vn -0.2185 -0.3458 -0.9125
vn -0.2333 -0.2579 -0.9376
vn -0.5026 -0.3709 -0.7809
vn -0.5389 -0.2931 -0.7898
vn -0.7251 -0.4031 -0.5583
vn -0.7419 -0.3241 -0.5869
vn -0.8515 -0.4223 -0.3110
vn -0.8773 -0.3648 -0.3118
vn -0.9019 -0.4306 0.0324
vn -0.9209 -0.3886 0.0319
vn -0.7862 -0.3713 0.4940
vn -0.7950 -0.3497 0.4956
vn -0.5801 -0.2862 0.7626
vn -0.5857 -0.2771 0.7617
vn -0.3921 -0.2374 0.8888
vn -0.3983 -0.2253 0.8892
vn -0.0112 -0.2157 0.9764
vn -0.0113 -0.2006 0.9796
vn 0.3630 -0.2323 0.9024
vn 0.3689 -0.2209 0.9028
vn 0.5478 -0.2809 0.7880
vn 0.5531 -0.2729 0.7872
vn 0.7740 -0.3724 0.5120
vn 0.7828 -0.3508 0.5139
vn 0.9012 -0.4319 0.0367
vn 0.9205 -0.3891 0.0365
vn 0.8481 -0.4336 -0.3044
vn 0.8633 -0.3971 -0.3115
vn 0.7254 -0.4289 -0.5384
vn 0.7476 -0.3650 -0.5548
vn 0.4905 -0.4135 -0.7671
vn 0.5067 -0.3416 -0.7916
vn 0.2060 -0.3834 -0.9003
vn 0.2124 -0.3079 -0.9274
vn 0.0150 -0.2768 -0.9608
vn -0.4274 -0.0754 -0.9009
vn -0.4425 -0.0782 -0.8934
vn -0.7089 -0.1576 -0.6875
vn -0.7592 -0.0485 -0.6491
vn -0.6072 -0.2038 -0.7680
vn -0.4838 -0.1737 -0.8578
vn -0.5285 -0.1674 -0.8323
vn -0.6647 -0.1398 -0.7339
vn -0.7232 -0.1740 -0.6683
vn -0.9256 -0.1515 -0.3467
vn -0.9156 -0.2347 -0.3264
vn -0.9655 -0.2560 0.0484
vn 0.0204 -0.0985 -0.9949
vn -0.1450 -0.1295 -0.9809
vn -0.3934 -0.1909 -0.8993
vn -0.3580 -0.1181 -0.9262
vn -0.4800 -0.1874 -0.8570
vn -0.6205 -0.1514 -0.7694
vn -0.5393 -0.1905 -0.8203
vn -0.0273 -0.0160 -0.9995
vn -0.0184 0.0028 -0.9998
vn 0.3381 0.0405 -0.9402
vn -0.6229 -0.2248 -0.7493
vn -0.7928 -0.2426 -0.5592
vn -0.6216 -0.2044 -0.7562
vn -0.4026 0.0549 -0.9137
vn 0.2251 0.1158 -0.9674
vn 0.1924 0.1588 -0.9684
vn 0.4318 0.1809 -0.8837
vn 0.0304 0.2646 -0.9639
vn 0.2293 0.1683 -0.9587
vn 0.6070 0.4093 -0.6812
vn 0.4175 -0.0642 -0.9064
vn 0.5040 -0.2455 -0.8281
vn 0.5403 -0.1466 -0.8286
vn -0.0121 -0.0070 -0.9999
vn 0.2014 -0.0630 -0.9775
vn 0.2252 0.0238 -0.9740
vn 0.5541 -0.4965 -0.6682
vn 0.6590 -0.5353 -0.5284
vn 0.8789 -0.2015 -0.4323
vn 0.9472 -0.2769 -0.1616
vn 0.9658 -0.0378 -0.2566
vn 0.9182 -0.0212 0.3956
vn -0.1040 0.6225 0.7757
vn -0.1356 0.4189 0.8979
vn -0.1790 0.3404 0.9231
vn -0.0662 0.4129 0.9084
vn -0.1478 0.5088 0.8481
vn -0.0110 0.5219 0.8530
vn -0.1069 0.6074 0.7872
vn 0.0786 0.8445 0.5298
vn -0.0230 0.9914 0.1288
vn -0.0079 0.8411 0.5408
vn 0.1922 0.1587 -0.9684
vn 0.0494 -0.2456 -0.9681
vn -0.1139 -0.6048 0.7882
vn -0.1434 -0.3998 0.9053
vn -0.1449 -0.6242 0.7677
vn -0.2023 -0.5129 0.8343
vn 0.2363 -0.7499 -0.6178
vn 0.2763 -0.4698 -0.8385
vn 0.5130 -0.6535 -0.5566
vn 0.4790 -0.4337 -0.7632
vn 0.4173 -0.0642 -0.9065
vn -0.1735 -0.5537 -0.8144
vn -0.1307 -0.5079 -0.8514
vn -0.1624 -0.6618 -0.7318
vn -0.1526 -0.7390 -0.6562
vn 0.8734 -0.0586 -0.4835
vn 0.6652 -0.1024 -0.7396
vn 0.4792 -0.4336 -0.7631
vn 0.5132 -0.6533 -0.5566
vn 0.8109 -0.5786 -0.0874
vn 0.8889 -0.2916 0.3533
vn 0.7816 -0.0097 0.6237
vn 0.4583 0.0014 0.8888
vn 0.4519 0.0721 0.8891
vn 0.4470 0.0684 0.8919
vn 0.3825 0.1062 0.9178
vn 0.1784 0.0713 0.9814
vn -0.0012 0.1728 0.9850
vn 0.2337 0.1658 0.9581
vn -0.0223 0.3454 0.9382
vn 0.0522 0.2448 0.9682
vn -0.1127 0.2593 0.9592
vn -0.0038 0.0958 0.9954
vn -0.1222 0.0950 0.9880
vn -0.6182 -0.0905 0.7808
vn -0.3072 0.0741 0.9487
vn -0.1543 -0.9501 -0.2712
vn -0.1354 -0.9227 0.3609
vn -0.0793 -0.4542 0.8874
vn -0.2257 -0.7934 -0.5654
vn -0.1651 -0.7898 -0.5907
vn -0.1612 -0.9676 -0.1944
vn 0.1148 -0.9770 -0.1796
vn 0.5172 -0.8538 -0.0595
vn 0.4489 -0.8123 0.3724
vn 0.0109 -0.9179 0.3966
vn 0.2774 -0.4248 0.8617
vn 0.0335 -0.4844 0.8742
vn 0.4490 -0.8123 0.3723
vn 0.7687 -0.5124 0.3829
vn 0.5174 -0.8537 -0.0595
vn 0.2776 -0.4247 0.8617
vn 0.6967 -0.1557 0.7003
vn 0.4069 0.0231 0.9132
vn 0.2354 0.1368 0.9622
vn 0.0411 0.0218 0.9989
vn -0.0859 0.1252 0.9884
vn 0.2820 0.0005 0.9594
vn -0.1301 -0.8897 0.4377
vn -0.0911 -0.4195 0.9032
vn -0.1717 -0.3030 0.9374
vn -0.2581 -0.4281 0.8661
vn -0.7142 0.1543 -0.6827
vn -0.5266 0.0548 -0.8483
vn -0.7365 0.0306 -0.6757
vn -0.5910 -0.1818 -0.7859
vn -0.8053 -0.1620 -0.5703
vn -0.5969 -0.0419 -0.8012
vn -0.7260 0.2008 -0.6577
vn -0.5072 0.2319 -0.8301
vn -0.7344 0.3300 -0.5931
vn -0.4029 0.0550 -0.9136
vn -0.7876 0.0559 -0.6137
vn -0.5742 0.1569 0.8035
vn -0.4403 0.1674 0.8821
vn -0.3480 0.0747 0.9345
vn -0.4407 0.1512 0.8848
vn -0.2967 0.0552 0.9534
vn -0.3297 0.1862 0.9255
vn -0.1177 0.1205 0.9857
vn -0.3816 0.0802 0.9208
vn -0.3988 0.0366 0.9163
vn -0.6231 0.0815 0.7779
vn -0.9851 0.1552 0.0739
vn -0.8709 0.2078 0.4455
vn -0.9671 0.2422 -0.0785
vn -0.0565 0.1598 0.9855
vn 0.0695 0.1195 0.9904
vn -0.8223 0.0751 0.5640
vn -0.8367 0.1135 0.5358
vn -0.8087 0.0846 0.5821
vn -0.9904 0.1265 -0.0552
vn -0.9935 -0.0829 -0.0782
vn -0.9696 -0.2217 -0.1032
vn -0.9738 0.0383 0.2242
vn -0.9903 -0.1279 -0.0542
vn -0.9987 0.0457 -0.0215
vn -0.7058 -0.0159 0.7082
vn -0.8411 0.0710 0.5362
vn -0.6182 0.1193 0.7769
vn -0.5703 0.1312 0.8109
vn -0.5208 0.1310 0.8435
vn -0.5147 0.0586 0.8554
vn -0.2277 -0.0254 0.9734
vn -0.2889 -0.1486 0.9458
vn 0.1934 -0.2463 0.9497
vn 0.1391 -0.1733 0.9750
vn 0.2783 -0.1358 0.9508
vn 0.1414 -0.1734 0.9746
vn 0.2866 -0.1624 0.9442
vn 0.3695 -0.1543 0.9163
vn 0.4166 -0.0974 0.9038
vn 0.5909 -0.1467 0.7933
vn 0.6517 -0.0212 0.7581
vn 0.8362 -0.1868 0.5156
vn 0.8894 -0.0355 0.4558
vn 0.9653 -0.2538 -0.0620
vn 0.9992 -0.0290 -0.0273
vn 0.8506 -0.0043 -0.5258
vn 0.7762 0.0284 -0.6298
vn 0.6268 -0.0396 -0.7782
vn 0.4535 -0.0660 -0.8888
vn 0.5364 -0.1350 -0.8331
vn 0.3172 -0.0985 -0.9432
vn 0.8290 -0.2225 -0.5131
vn -0.0271 -0.0159 -0.9995
vn 0.3889 0.0248 -0.9209
vn 0.3842 0.0293 -0.9228
vn 0.5194 -0.0013 -0.8545
vn 0.4963 0.0678 -0.8655
vn 0.3406 0.0308 -0.9397
vn 0.3382 0.0405 -0.9402
vn 0.4897 -0.0349 0.8712
vn 0.6043 -0.0346 0.7960
vn 0.9317 0.0383 0.3613
vn 0.1691 0.0226 0.9853
vn 0.1511 0.0494 0.9873
vn 0.0933 -0.0853 0.9920
vn -0.0790 -0.0592 0.9951
vn 0.5398 0.1909 0.8199
vn 0.9333 0.1735 0.3144
vn 0.9987 0.0455 -0.0249
vn 0.8250 0.4058 0.3934
vn 0.9769 0.2121 -0.0279
vn 0.6859 0.1345 -0.7152
vn 0.5238 -0.0147 -0.8517
vn 0.8602 0.5094 -0.0242
vn -0.4423 -0.0782 -0.8935
vn -0.2740 -0.0589 0.9599
vn -0.2669 -0.1236 0.9558
vn 0.0290 -0.1533 0.9878
vn -0.1344 -0.1025 0.9856
vn -0.0086 -0.0273 0.9996
vn -0.5302 0.0849 0.8436
vn -0.2229 0.0939 0.9703
vn -0.0800 -0.0493 0.9956
vn -0.8148 -0.2524 0.5220
vn -0.4116 -0.1960 0.8900
vn -0.0104 -0.1803 0.9835
vn -0.1465 -0.1831 0.9721
vn -0.2585 -0.1729 0.9504
vn -0.4075 -0.1908 0.8931
vn -0.3654 -0.1985 0.9094
vn -0.5535 -0.1751 0.8142
vn -0.4723 -0.0922 0.8766
vn -0.5518 -0.0968 0.8284
vn -0.4760 0.0425 0.8784
vn -0.7798 -0.0448 0.6244
vn -0.9923 0.0955 -0.0784
vn -0.5839 -0.1742 0.7929
vn -0.5954 -0.2214 0.7723
vn -0.7735 -0.1714 0.6102
vn -0.9819 -0.1636 0.0955
vn -0.6561 -0.1606 0.7374
vn -0.7584 -0.1651 0.6305
vn -0.9752 -0.1639 0.1486
vn -0.9815 -0.0844 -0.1720
vn -0.9242 -0.1466 -0.3527
vn -0.6552 -0.1708 -0.7359
vn -0.7355 0.0204 -0.6772
vn -0.7618 0.2403 -0.6016
vn -0.5330 0.2097 -0.8197
vn -0.5102 0.2043 -0.8354
vn -0.7019 0.2613 -0.6626
vn -0.5264 -0.0637 -0.8478
vn -0.4613 -0.0578 -0.8854
vn -0.5263 -0.0470 -0.8490
vn -0.4856 -0.1401 0.8629
vn -0.3353 -0.1312 0.9329
vn 0.1900 -0.1677 0.9674
vn 0.0303 0.2647 -0.9639
vn -0.3066 -0.1848 -0.9337
vn 0.2816 0.3615 0.8888
vn 0.5518 0.8340 0.0075
vn 0.5517 0.8340 0.0077
vn -0.4027 0.0549 -0.9137
vn -0.1480 0.1621 -0.9756
vn -0.5071 0.2318 -0.8302
vn -0.0507 -0.0514 -0.9974
vn 0.0410 0.0217 0.9989
vn -0.0300 -0.3238 0.9456
vn 0.0411 0.0217 0.9989
vn 0.2775 -0.4247 0.8617
vn 0.0412 0.0218 0.9989
vn 0.4067 0.0231 0.9133
vn -0.0048 0.3704 -0.9289
vt 3.041149 -0.161601
vt 3.041561 0.127426
vt 2.765835 -0.079104
vt 2.766167 0.169253
vt 2.359808 -0.042051
vt 2.357055 0.198070
vt 1.953782 -0.004997
vt 1.947943 0.226887
vt 1.547755 0.032057
vt 1.538831 0.255703
vt 1.141728 0.069111
vt 1.129719 0.284520
vt 0.594753 0.111529
vt 0.602022 0.381397
vt 0.262401 0.375778
vt 0.268150 0.645004
vt -0.072990 0.638743
vt -0.068760 0.907326
vt 3.042383 0.705480
vt 3.042794 0.994508
vt 2.766832 0.665968
vt 2.767164 0.914325
vt 2.351549 0.678310
vt 2.348796 0.918431
vt 1.936266 0.690653
vt 1.930427 0.922536
vt 1.520983 0.702996
vt 1.512059 0.926642
vt 1.105700 0.715338
vt 1.093691 0.930747
vt 0.616559 0.921134
vt 0.609295 1.167754
vt 0.267808 1.161407
vt 0.261716 1.408583
vt -0.078598 1.402793
vt -0.083517 1.650526
vt 3.041972 0.416453
vt 2.766500 0.417610
vt 2.354302 0.438190
vt 1.942104 0.458770
vt 1.529907 0.479349
vt 1.117709 0.499929
vt 0.609290 0.651266
vt 0.273899 0.914230
vt -0.073679 1.155060
vt 1.046398 1.176060
vt 0.602030 1.414374
vt 0.999105 1.421374
vt 0.594766 1.660993
vt 0.951812 1.666687
vt 0.587502 1.907613
vt 0.904519 1.912000
vt 0.625277 2.173514
vt 0.990798 2.178541
vt 0.924067 -0.154006
vt 0.587485 -0.158340
vt 0.908662 -0.386449
vt 0.573331 -0.390702
vt 0.893258 -0.618892
vt 0.559177 -0.623063
vt 0.877854 -0.851335
vt 0.545023 -0.855424
vt 0.862450 -1.083778
vt 0.530870 -1.087786
vt 0.949239 -1.358232
vt 0.563361 -1.362864
vt -0.208395 -1.372127
vt 0.177483 -1.367495
vt -0.132291 -1.095802
vt 0.199289 -1.091794
vt -0.120638 -0.863604
vt 0.212193 -0.859514
vt -0.108985 -0.631405
vt 0.225096 -0.627234
vt -0.097332 -0.399207
vt 0.237999 -0.394954
vt -0.085679 -0.167008
vt 0.250903 -0.162674
vt -0.081450 0.101575
vt 0.256652 0.106552
vt -0.077220 0.370159
vt 0.255625 1.655760
vt -0.088436 1.898259
vt 0.249533 1.902936
vt -0.164758 2.162649
vt 0.230260 2.168082
vt 3.646038 -2.139562
vt 3.133681 -2.295770
vt 3.128058 -2.162521
vt 2.813328 -2.312852
vt 2.805815 -2.179007
vt 2.557662 -2.325210
vt 2.549243 -2.191159
vt 2.285474 -2.335680
vt 2.276761 -2.201117
vt 2.047274 -2.341886
vt 2.039008 -2.206876
vt 1.874938 -2.341457
vt 1.867127 -2.206430
vt 1.634526 -2.332985
vt 1.625377 -2.198470
vt 1.097366 -2.315062
vt 1.089483 -2.181684
vt 0.477319 -2.290950
vt 0.479584 -2.158901
vt -0.072777 -2.263911
vt -0.067368 -2.132947
vt -0.482604 -2.110573
vt -0.525424 -1.555380
vt -0.677234 -2.098529
vt -0.695541 -1.539916
vt -0.695560 -2.097934
vt -0.958251 -1.534295
vt -0.946494 -2.093749
vt -1.258337 -1.547570
vt -1.232404 -2.097411
vt -1.460090 -1.647482
vt -1.447296 -2.104539
vt -1.715799 -2.117709
vt -1.720069 -2.247488
vt -2.182455 -2.271134
vt -0.486926 -2.240609
vt -0.682223 -2.227710
vt -0.827464 -2.222442
vt -1.020059 -2.222030
vt -1.239616 -2.225876
vt -1.452970 -2.233382
vt 3.661060 -1.614155
vt 3.127064 -1.591450
vt 2.561206 -1.612627
vt 3.709720 -1.136356
vt 3.250704 -1.130728
vt 3.070900 -1.122583
vt 3.459996 -0.350847
vt 3.242833 -0.310582
vt 3.233362 0.643251
vt 3.048059 0.695708
vt 3.369359 0.777827
vt 3.152724 0.996693
vt 3.662790 1.131086
vt 3.523108 1.257684
vt -2.368711 -0.350847
vt -2.211756 0.477553
vt -1.709746 -0.249388
vt -2.166922 0.940160
vt -1.628880 1.235086
vt -2.165918 1.131086
vt -2.305599 1.257684
vt 3.787231 -0.375275
vt 3.616952 0.477553
vt -0.427047 0.484459
vt -1.368471 0.478706
vt -0.433020 0.653743
vt -0.488978 0.868046
vt 0.875524 -1.380620
vt 0.987464 -0.639856
vt 1.374039 -0.983740
vt 1.352552 -0.642449
vt 2.032881 -1.094096
vt 1.954851 -0.660959
vt 2.158630 -1.023925
vt 2.150437 -0.859602
vt 2.293775 -0.824093
vt 2.295441 -0.586661
vt -1.517896 -0.003016
vt -1.806925 0.292739
vt -1.250139 0.057585
vt -1.711533 0.347592
vt -1.031833 0.782503
vt -1.563570 0.771459
vt 0.619939 0.394496
vt 0.622424 0.583733
vt 0.406783 0.394417
vt 0.425328 0.573448
vt -1.354558 0.448461
vt -1.704690 0.742479
vt -1.597972 0.042546
vt -1.830900 0.339942
vt -1.386127 -1.049500
vt -1.694648 -0.824093
vt -1.383419 -0.874601
vt -1.387478 -0.620367
vt -1.088705 -0.678775
vt -1.169928 -0.271994
vt -1.107993 -0.276829
vt -1.129860 0.178884
vt -0.294766 0.320251
vt -0.681603 0.690598
vt -0.330393 0.697076
vt -1.044562 1.038084
vt -0.368717 1.102409
vt -1.069165 1.468316
vt -0.715602 1.482090
vt -1.068638 1.577189
vt -0.719796 1.592194
vt -1.272953 1.567480
vt -1.275640 1.459273
vt -1.263326 1.060696
vt -1.081463 0.666385
vt -1.261355 0.659209
vt -1.258973 0.173969
vt -1.371497 0.179820
vt -1.380384 -0.265142
vt -1.444562 -0.258698
vt -1.692982 -0.586661
vt -1.709428 -0.266628
vt -1.517904 0.205973
vt -1.707307 0.173784
vt -1.554110 0.638749
vt -1.720694 0.632661
vt -1.588790 1.053284
vt -1.733227 1.062240
vt -1.746540 1.447794
vt -1.433971 1.561302
vt -1.438177 1.453473
vt -1.421149 1.055980
vt -1.397862 0.645053
vt -1.598285 1.556888
vt -1.603586 1.449428
vt -1.741166 1.555123
vt 2.247256 1.555123
vt 2.241884 1.447794
vt 2.139024 1.556888
vt 2.133921 1.449231
vt 1.995353 1.563366
vt 1.989667 1.455130
vt 1.696254 1.575738
vt 1.689192 1.466886
vt 1.299325 1.591341
vt 1.295666 1.481761
vt 0.884425 1.607513
vt 0.887564 1.497021
vt 0.569701 1.620738
vt 0.574519 1.509444
vt 0.426604 1.627500
vt 0.431297 1.515814
vt 0.318955 1.629265
vt 0.324156 1.517513
vt 0.170445 1.627500
vt 0.176467 1.515932
vt -0.000495 1.623087
vt 0.006161 1.511705
vt -0.162879 1.616908
vt -0.155937 1.505469
vt -0.368215 1.607199
vt -0.361289 1.496004
vt 2.255195 1.062240
vt 2.153661 1.092482
vt 2.031819 1.032944
vt 1.713408 1.109470
vt 1.302911 1.042227
vt 0.887664 1.137280
vt 0.558066 1.076030
vt 0.420089 1.110113
vt 0.300364 1.094498
vt 2.267728 0.632661
vt 2.217345 0.633449
vt 2.143658 0.635076
vt 2.133084 0.151557
vt 1.960742 0.254143
vt 2.012852 -0.227305
vt 1.750506 -0.186038
vt 1.327679 -0.258057
vt 0.937082 -0.254727
vt 0.529285 -0.282611
vt 0.544140 -0.611650
vt 0.421528 -0.293440
vt 0.430962 -0.607184
vt 0.290313 -0.300835
vt 0.297835 -0.604079
vt -0.096283 -0.291264
vt -0.101589 -0.704525
vt -0.180521 -0.285803
vt -0.464778 -0.279449
vt -0.773760 -0.282475
vt 2.281116 0.173784
vt 3.359925 3.581976
vt 3.356010 3.449022
vt 2.882276 3.557403
vt 2.849741 3.414070
vt 2.620231 3.540309
vt 2.611644 3.428142
vt 2.412077 3.527960
vt 2.417741 3.388638
vt 2.199858 3.517625
vt 2.192071 3.389187
vt 2.015029 3.511540
vt 2.007675 3.383581
vt 1.874370 3.511945
vt 1.867177 3.383750
vt 1.690558 3.519976
vt 1.682406 3.391053
vt 1.318456 3.536773
vt 1.309560 3.406848
vt 0.807814 3.560103
vt 0.805478 3.428898
vt 0.215208 3.587731
vt 0.223999 3.454960
vt -0.305748 3.611964
vt -0.294852 3.477808
vt -0.552216 3.625107
vt -0.542645 3.490213
vt -0.731447 3.630351
vt -0.721838 3.495204
vt -0.978620 3.630885
vt -0.968869 3.495811
vt -1.268143 3.627172
vt -1.259212 3.492234
vt -1.545927 3.619676
vt -1.538738 3.484673
vt -1.900498 3.605557
vt -1.896730 3.470984
vt -2.468782 3.581976
vt -2.472697 3.449022
vt 3.101732 2.369417
vt 3.190068 1.934008
vt 2.866182 1.957772
vt 2.874149 1.711562
vt 2.751599 1.978048
vt 2.631872 1.935854
vt 2.563924 2.419358
vt 2.431478 2.407429
vt 2.434103 2.786567
vt 2.153852 2.785345
vt 2.195724 3.219885
vt 2.011073 3.215040
vt 3.358471 3.273321
vt 2.925609 3.237536
vt 2.772461 3.175388
vt 2.967310 2.740616
vt 2.745794 2.764847
vt 2.886971 2.405455
vt 2.722449 2.402083
vt 3.565121 2.863165
vt 3.776020 2.444578
vt 3.997263 2.005459
vt 2.527122 3.233637
vt 2.378596 3.208302
vt 2.561691 2.805343
vt -2.604116 1.653923
vt -1.706973 1.607514
vt -1.270203 1.317458
vt -1.344936 1.637864
vt -1.228958 1.495031
vt -1.249076 1.685115
vt -1.163944 1.562390
vt -1.159536 1.735148
vt -1.257647 0.610978
vt -1.467811 0.410818
vt -1.462698 -0.364653
vt -1.991049 -1.087805
vt -1.604617 -1.090912
vt -2.167648 -1.614155
vt -1.694957 -1.553222
vt -2.182669 -2.139562
vt -1.268531 0.288723
vt -1.116980 0.003514
vt -1.179548 -0.309948
vt -0.942092 -0.310598
vt -0.952339 -1.082251
vt -0.689100 -1.075301
vt 1.995762 0.637867
vt 1.848974 0.640658
vt 1.647637 0.641442
vt 1.585308 0.197903
vt 1.438155 0.637867
vt 1.304054 0.107052
vt 1.303448 0.602808
vt 2.147364 -0.610528
vt 2.278996 -0.266628
vt 2.144406 -0.245231
vt -1.243330 -1.232687
vt -0.591051 -0.724867
vt 0.866807 0.282473
vt 1.096225 0.682151
vt -0.033199 -0.851207
vt -0.291045 -0.859996
vt -0.043724 -1.000861
vt -0.250021 -0.992276
vt -0.513099 -1.028574
vt -0.170059 1.111777
vt -0.236731 0.688605
vt -0.122419 0.693929
vt -0.087561 0.388182
vt -1.228028 -1.071466
vt -1.461265 -1.069745
vt -1.180652 0.371923
vt -1.093714 0.187026
vt -0.826929 -0.075471
vt -0.677042 -0.320717
vt -0.542704 -1.061168
vt -0.449514 -1.053222
vt -0.104372 -1.671768
vt -0.156150 -1.243359
vt 0.091604 -1.006634
vt -0.254871 -0.342932
vt 0.383409 -0.406104
vt -0.107964 -0.043988
vt 0.304926 -0.100495
vt 0.083025 0.121050
vt 0.598311 0.047909
vt 0.750432 0.261694
vt 1.298716 0.316020
vt 1.700493 0.739135
vt 1.655306 0.306703
vt 0.277701 0.207558
vt 0.406034 0.221807
vt 0.506944 0.212276
vt -0.009861 1.137235
vt -0.055459 0.697661
vt 0.290266 0.699294
vt 0.311129 -0.822561
vt 0.305561 -0.946737
vt 0.420957 -0.982655
vt 0.436446 -0.828063
vt 0.543377 -1.018573
vt 0.550960 -0.839683
vt -0.721870 0.098507
vt -0.707745 -0.081857
vt -0.817684 0.049753
vt -0.621720 0.147262
vt -0.568302 -0.329053
vt -0.494776 0.184935
vt -0.359220 0.185647
vt -0.449362 0.542844
vt -0.321589 0.197998
vt -0.336423 -0.305115
vt 0.413635 0.702209
vt 0.535449 0.693885
vt 0.708138 0.690301
vt 0.876781 0.691280
vt 2.590645 -1.064491
vt 2.988006 -0.430565
vt 2.631352 -0.306556
vt 2.804264 0.703804
vt 2.548383 0.685693
vt 2.826398 0.991599
vt 2.545949 1.080925
vt 3.101576 1.424482
vt 2.923443 1.507773
vt 3.224341 1.653557
vt 2.999879 1.676677
vt 1.689635 -1.626070
vt 1.041351 -1.654477
vt 1.503792 -1.081872
vt 0.882922 -1.036047
vt 1.283540 -0.436915
vt 0.659597 -0.435973
vt 1.136618 -0.006687
vt 1.574739 -0.045709
vt 1.617466 -0.424120
vt 1.686991 -1.039869
vt 2.041468 -1.057886
vt 1.891896 -1.738506
vt 2.048575 -1.707809
vt 0.497492 -0.964678
vt 0.442783 -1.592913
vt 1.682297 0.000623
vt 1.684173 -0.415263
vt 2.034487 -0.419596
vt 2.078039 0.312460
vt 2.108261 0.657839
vt 2.110939 0.932569
vt 2.111539 1.162669
vt 1.735607 1.167705
vt 1.895433 1.418612
vt 1.741730 1.402884
vt 1.725531 1.620690
vt 1.395231 1.624919
vt 1.390574 1.854838
vt 1.078698 1.870425
vt 1.017856 2.142410
vt 0.573591 2.197645
vt 0.631869 2.469084
vt 0.484502 2.476603
vt 0.719010 2.874958
vt 0.342551 2.921086
vt 0.227785 3.280446
vt -0.121033 2.897955
vt -0.296416 3.301830
vt -0.383103 2.882846
vt -0.547234 3.313482
vt -0.585145 2.865442
vt -0.726373 3.318300
vt -0.755426 2.893984
vt -1.238067 2.941158
vt -1.212197 2.556009
vt -1.386166 2.952448
vt -1.555460 2.942562
vt -1.541759 3.307012
vt -1.897896 3.293045
vt -1.263217 3.315600
vt -2.470237 3.273321
vt -2.263586 2.863165
vt -1.876603 2.880465
vt -1.853589 2.434546
vt -1.576189 2.391167
vt -1.428070 1.959520
vt -1.303012 1.951460
vt -2.052687 2.444578
vt -1.831444 2.005459
vt -0.497034 2.169647
vt -0.455961 2.530695
vt -0.614416 2.519519
vt 0.485468 1.687230
vt -0.418082 1.678628
vt 0.415204 1.413808
vt -0.376197 1.433505
vt -0.387225 1.101413
vt -0.567650 1.731505
vt -0.657626 2.045989
vt -0.781633 2.511245
vt -0.683038 1.772436
vt -0.813980 2.036075
vt -1.205247 2.052555
vt -1.765108 2.920786
vt -0.828753 1.783398
vt -2.638639 1.934008
vt 1.153056 1.401256
vt 1.401120 1.185412
vt 0.547005 1.105521
vt 1.486519 0.922176
vt 0.503633 0.826801
vt 1.395479 1.419059
vt 1.114477 1.630775
vt -0.407959 0.840891
vt 1.870466 3.214548
vt 1.302372 3.235213
vt 0.800822 3.256012
vt 0.804084 3.232397
vt 0.872311 2.884520
vt 1.316699 2.875295
vt 1.332115 2.488006
vt 1.688695 2.412007
vt 1.346952 2.115257
vt 1.690969 2.094816
vt 1.701427 1.843781
vt 1.831076 2.021999
vt 2.067269 1.376132
vt 1.685411 2.870044
vt 1.682898 3.220556
vt 1.857970 2.836214
vt 2.030999 2.781686
vt 1.737411 2.384532
vt 1.841751 2.345191
vt 2.053880 2.284090
vt 2.070572 1.921088
vt 2.107369 2.302966
vt 2.463511 1.922301
vt 2.324459 1.636007
vt 2.301830 1.440483
vt 2.407527 1.498613
vt 2.633557 1.541576
vt 2.792464 1.562021
vt 2.724658 1.704365
vt 2.572591 1.686566
vt 2.442728 1.667541
vt 1.173535 2.472123
vt 0.954937 2.463223
vt 0.380071 1.958732
vt -1.341928 -1.166436
vt -2.459348 0.777827
vt -0.740423 0.902575
vt -1.703591 -0.993120
vt 2.284832 -0.993120
vt 3.103230 1.425587
vt 3.567299 1.525408
vt 3.661785 0.940160
vt -0.437274 0.289639
vt 0.755227 1.151518
vt 0.695010 0.773476
vt 0.516336 0.958243
vt 0.877408 0.561159
vt 1.633081 0.315880
vt 1.662219 -0.363223
vt 3.646253 -2.271134
s 1
usemtl material1
f 82/1/1 83/2/1 81/3/2
f 80/4/3 81/3/2 83/2/1
f 81/3/2 80/4/3 76/5/4
f 75/6/5 76/5/4 80/4/3
f 76/5/4 75/6/5 71/7/6
f 70/8/7 71/7/6 75/6/5
f 71/7/6 70/8/7 66/9/8
f 65/10/9 66/9/8 70/8/7
f 66/9/8 65/10/9 61/11/10
f 60/12/11 61/11/10 65/10/9
f 61/11/10 60/12/11 38/13/12
f 40/14/12 38/13/12 60/12/11
s 0
f 38/13/12 40/14/12 26/15/12
f 29/16/12 26/15/12 40/14/12
f 26/15/12 29/16/12 9/17/12
s 1
f 10/18/13 9/17/12 29/16/12
f 85/19/1 86/20/1 78/21/14
f 77/22/15 78/21/14 86/20/1
f 78/21/14 77/22/15 73/23/16
f 72/24/17 73/23/16 77/22/15
f 73/23/16 72/24/17 68/25/18
f 67/26/19 68/25/18 72/24/17
f 68/25/18 67/26/19 63/27/20
f 62/28/21 63/27/20 67/26/19
f 63/27/20 62/28/21 58/29/22
f 57/30/23 58/29/22 62/28/21
f 58/29/22 57/30/23 44/31/24
f 42/32/25 44/31/24 57/30/23
f 44/31/24 42/32/25 28/33/26
f 25/34/27 28/33/26 42/32/25
f 28/33/26 25/34/27 11/35/28
f 13/36/29 11/35/28 25/34/27
f 84/37/1 85/19/1 79/38/30
f 78/21/14 79/38/30 85/19/1
f 79/38/30 78/21/14 74/39/31
f 73/23/16 74/39/31 78/21/14
f 74/39/31 73/23/16 69/40/32
f 68/25/18 69/40/32 73/23/16
f 69/40/32 68/25/18 64/41/33
f 63/27/20 64/41/33 68/25/18
f 64/41/33 63/27/20 59/42/34
f 58/29/22 59/42/34 63/27/20
f 59/42/34 58/29/22 43/43/12
f 44/31/24 43/43/12 58/29/22
f 43/43/12 44/31/24 30/44/35
f 28/33/26 30/44/35 44/31/24
f 30/44/35 28/33/26 15/45/36
f 11/35/28 15/45/36 28/33/26
f 83/2/1 84/37/1 80/4/3
f 79/38/30 80/4/3 84/37/1
f 80/4/3 79/38/30 75/6/5
f 74/39/31 75/6/5 79/38/30
f 75/6/5 74/39/31 70/8/7
f 69/40/32 70/8/7 74/39/31
f 70/8/7 69/40/32 65/10/9
f 64/41/33 65/10/9 69/40/32
f 65/10/9 64/41/33 60/12/11
f 59/42/34 60/12/11 64/41/33
f 60/12/11 59/42/34 40/14/12
f 43/43/12 40/14/12 59/42/34
s 0
f 40/14/12 43/43/12 29/16/12
s 1
f 30/44/35 29/16/12 43/43/12
f 29/16/12 30/44/35 10/18/13
f 15/45/36 10/18/13 30/44/35
f 42/32/25 56/46/37 39/47/38
f 55/48/39 39/47/38 56/46/37
f 39/47/38 55/48/39 37/49/40
f 53/50/41 37/49/40 55/48/39
f 37/49/40 53/50/41 31/51/42
f 46/52/43 31/51/42 53/50/41
f 31/51/42 46/52/43 45/53/44
f 54/54/44 45/53/44 46/52/43
f 61/11/10 38/13/12 47/55/45
f 32/56/46 47/55/45 38/13/12
f 47/55/45 32/56/46 48/57/47
f 33/58/48 48/57/47 32/56/46
f 48/57/47 33/58/48 49/59/49
f 34/60/50 49/59/49 33/58/48
f 49/59/49 34/60/50 50/61/51
f 35/62/52 50/61/51 34/60/50
f 50/61/51 35/62/52 52/63/53
f 36/64/54 52/63/53 35/62/52
f 52/63/53 36/64/54 51/65/55
f 41/66/56 51/65/55 36/64/54
f 14/67/57 27/68/58 2/69/59
f 17/70/60 2/69/59 27/68/58
f 2/69/59 17/70/60 3/71/61
f 18/72/62 3/71/61 17/70/60
f 3/71/61 18/72/62 4/73/63
f 19/74/64 4/73/63 18/72/62
f 4/73/63 19/74/64 5/75/65
f 20/76/66 5/75/65 19/74/64
f 5/75/65 20/76/66 12/77/67
f 22/78/68 12/77/67 20/76/66
f 12/77/67 22/78/68 7/79/12
f 24/80/12 7/79/12 22/78/68
s 0
f 7/79/12 24/80/12 8/81/12
f 26/15/12 8/81/12 24/80/12
f 8/81/12 26/15/12 9/17/12
s 1
f 27/68/58 41/66/56 17/70/60
f 36/64/54 17/70/60 41/66/56
f 17/70/60 36/64/54 18/72/62
f 35/62/52 18/72/62 36/64/54
f 18/72/62 35/62/52 19/74/64
f 34/60/50 19/74/64 35/62/52
f 19/74/64 34/60/50 20/76/66
f 33/58/48 20/76/66 34/60/50
f 20/76/66 33/58/48 22/78/68
f 32/56/46 22/78/68 33/58/48
f 22/78/68 32/56/46 24/80/12
f 38/13/12 24/80/12 32/56/46
s 0
f 24/80/12 38/13/12 26/15/12
s 1
f 13/36/29 23/82/69 6/83/70
f 21/84/71 6/83/70 23/82/69
f 6/83/70 21/84/71 1/85/44
f 16/86/44 1/85/44 21/84/71
f 13/36/29 25/34/27 23/82/69
f 39/47/38 23/82/69 25/34/27
f 23/82/69 39/47/38 37/49/40
f 21/84/71 31/51/42 16/86/44
f 45/53/44 16/86/44 31/51/42
f 23/82/69 37/49/40 21/84/71
f 31/51/42 21/84/71 37/49/40
f 42/32/25 57/30/23 56/46/37
f 25/34/27 42/32/25 39/47/38
usemtl material2
f 545/87/72 575/88/73 544/89/74
f 580/90/75 544/89/74 575/88/73
f 544/89/74 580/90/75 547/91/76
f 563/92/77 547/91/76 580/90/75
f 547/91/76 563/92/77 552/93/78
f 564/94/79 552/93/78 563/92/77
f 552/93/78 564/94/79 556/95/80
f 570/96/81 556/95/80 564/94/79
f 556/95/80 570/96/81 551/97/82
f 571/98/83 551/97/82 570/96/81
f 551/97/82 571/98/83 548/99/84
f 567/100/85 548/99/84 571/98/83
f 548/99/84 567/100/85 550/101/86
f 565/102/87 550/101/86 567/100/85
f 550/101/86 565/102/87 553/103/88
f 574/104/89 553/103/88 565/102/87
f 553/103/88 574/104/89 557/105/90
f 576/106/91 557/105/90 574/104/89
f 557/105/90 576/106/91 554/107/92
f 555/108/93 554/107/92 576/106/91
f 554/107/92 555/108/93 536/109/94
f 560/110/95 536/109/94 555/108/93
f 536/109/94 560/110/95 534/111/96
f 561/112/97 534/111/96 560/110/95
f 534/111/96 561/112/97 533/113/98
f 562/114/99 533/113/98 561/112/97
f 533/113/98 562/114/99 535/115/100
f 559/116/101 535/115/100 562/114/99
f 535/115/100 559/116/101 541/117/102
f 558/118/103 541/117/102 559/116/101
f 541/117/102 558/118/103 549/119/104
f 566/120/105 549/119/104 558/118/103
f 549/119/104 566/120/105 577/121/106
f 576/106/91 573/122/107 555/108/93
f 572/123/108 555/108/93 573/122/107
f 555/108/93 572/123/108 560/110/95
f 561/112/97 560/110/95 572/123/108
f 561/112/97 568/124/109 562/114/99
f 579/125/110 562/114/99 568/124/109
f 562/114/99 579/125/110 559/116/101
f 578/126/111 559/116/101 579/125/110
f 559/116/101 578/126/111 558/118/103
f 569/127/112 558/118/103 578/126/111
f 558/118/103 569/127/112 566/120/105
f 538/128/113 544/89/74 529/129/114
f 547/91/76 529/129/114 544/89/74
f 529/129/114 547/91/76 528/130/115
f 552/93/78 528/130/115 547/91/76
f 528/130/115 552/93/78 556/95/80
f 519/131/116 529/129/114 524/132/117
f 520/133/118 524/132/117 529/129/114
f 524/132/117 520/133/118 489/134/119
f 484/135/120 489/134/119 520/133/118
f 489/134/119 484/135/120 382/136/121
f 375/137/122 382/136/121 484/135/120
f 382/136/121 375/137/122 368/138/123
f 353/139/124 368/138/123 375/137/122
f 368/138/123 353/139/124 340/140/125
f 328/141/126 340/140/125 353/139/124
f 488/142/127 400/143/128 483/144/129
f 358/145/130 483/144/129 400/143/128
f 483/144/129 358/145/130 334/146/131
f 341/147/132 334/146/131 358/145/130
f 334/146/131 341/147/132 327/148/133
f 519/131/116 524/132/117 482/149/134
f 489/134/119 482/149/134 524/132/117
f 489/134/119 382/136/121 401/150/135
f 368/138/123 401/150/135 382/136/121
f 363/151/136 365/152/137 348/153/138
f 313/154/139 348/153/138 365/152/137
f 396/155/140 389/156/141 364/157/142
f 371/158/143 364/157/142 389/156/141
f 364/157/142 371/158/143 292/159/144
f 322/160/145 292/159/144 371/158/143
f 292/159/144 322/160/145 258/161/146
f 285/162/147 258/161/146 322/160/145
f 258/161/146 285/162/147 271/163/148
f 284/164/149 271/163/148 285/162/147
f 260/165/150 224/166/151 293/167/152
f 234/168/153 293/167/152 224/166/151
f 293/167/152 234/168/153 315/169/154
f 245/170/155 315/169/154 234/168/153
f 259/171/156 252/172/157 222/173/158
f 219/174/159 222/173/158 252/172/157
f 276/175/160 236/176/161 251/177/162
f 217/178/163 251/177/162 236/176/161
f 274/179/164 270/180/165 290/181/166
f 297/182/167 290/181/166 270/180/165
f 290/181/166 297/182/167 338/183/168
f 330/184/169 338/183/168 297/182/167
f 338/183/168 330/184/169 337/185/170
f 336/186/171 337/185/170 330/184/169
f 337/185/170 336/186/171 414/187/172
f 385/188/173 414/187/172 336/186/171
f 414/187/172 385/188/173 416/189/174
f 354/190/175 416/189/174 385/188/173
f 416/189/174 354/190/175 418/191/176
f 351/192/177 418/191/176 354/190/175
f 418/191/176 351/192/177 387/193/178
f 346/194/179 387/193/178 351/192/177
f 387/193/178 346/194/179 388/195/180
f 316/196/181 351/192/177 318/197/182
f 354/190/175 318/197/182 351/192/177
f 318/197/182 354/190/175 325/198/183
f 349/199/184 325/198/183 354/190/175
f 325/198/183 349/199/184 321/200/185
f 319/201/186 321/200/185 349/199/184
f 321/200/185 319/201/186 303/202/187
f 298/203/188 303/202/187 319/201/186
f 303/202/187 298/203/188 289/204/189
f 297/182/167 289/204/189 298/203/188
f 289/204/189 297/182/167 283/205/190
f 270/180/165 283/205/190 297/182/167
f 289/204/189 287/206/191 281/207/192
f 279/208/193 281/207/192 287/206/191
f 281/207/192 279/208/193 272/209/194
f 265/210/195 272/209/194 279/208/193
f 272/209/194 265/210/195 266/211/196
f 253/212/197 266/211/196 265/210/195
f 266/211/196 253/212/197 230/213/198
f 263/214/199 318/197/182 273/215/200
f 325/198/183 273/215/200 318/197/182
f 273/215/200 325/198/183 309/216/201
f 306/217/202 309/216/201 325/198/183
f 309/216/201 306/217/202 272/209/194
f 281/207/192 272/209/194 306/217/202
f 227/218/203 273/215/200 247/219/204
f 309/216/201 247/219/204 273/215/200
f 247/219/204 309/216/201 266/211/196
f 272/209/194 266/211/196 309/216/201
f 216/220/205 247/219/204 230/213/198
f 266/211/196 230/213/198 247/219/204
f 215/221/206 229/222/207 228/223/208
f 246/224/209 228/223/208 229/222/207
f 228/223/208 246/224/209 277/225/210
f 294/226/211 277/225/210 246/224/209
f 277/225/210 294/226/211 339/227/212
f 344/228/213 339/227/212 294/226/211
f 339/227/212 344/228/213 383/229/214
f 384/230/215 383/229/214 344/228/213
f 383/229/214 384/230/215 431/231/216
f 425/232/217 431/231/216 384/230/215
f 431/231/216 425/232/217 478/233/218
f 475/234/219 478/233/218 425/232/217
f 478/233/218 475/234/219 507/235/220
f 500/236/221 507/235/220 475/234/219
f 507/235/220 500/236/221 508/237/222
f 505/238/223 508/237/222 500/236/221
f 508/237/222 505/238/223 506/239/224
f 499/240/225 506/239/224 505/238/223
f 506/239/224 499/240/225 486/241/226
f 480/242/227 486/241/226 499/240/225
f 486/241/226 480/242/227 472/243/228
f 467/244/229 472/243/228 480/242/227
f 472/243/228 467/244/229 426/245/230
f 422/246/231 426/245/230 467/244/229
f 426/245/230 422/246/231 388/195/180
f 387/193/178 388/195/180 422/246/231
f 229/222/207 254/247/232 246/224/209
f 261/248/233 246/224/209 254/247/232
f 246/224/209 261/248/233 294/226/211
f 304/249/234 294/226/211 261/248/233
f 294/226/211 304/249/234 344/228/213
f 345/250/235 344/228/213 304/249/234
f 344/228/213 345/250/235 384/230/215
f 381/251/236 384/230/215 345/250/235
f 384/230/215 381/251/236 425/232/217
f 419/252/237 425/232/217 381/251/236
f 425/232/217 419/252/237 475/234/219
f 466/253/238 475/234/219 419/252/237
f 475/234/219 466/253/238 500/236/221
f 479/254/239 500/236/221 466/253/238
f 500/236/221 479/254/239 505/238/223
f 485/255/240 505/238/223 479/254/239
f 505/238/223 485/255/240 499/240/225
f 480/242/227 499/240/225 485/255/240
f 254/247/232 264/256/241 261/248/233
f 268/257/242 261/248/233 264/256/241
f 261/248/233 268/257/242 280/258/243
f 311/259/244 280/258/243 268/257/242
f 280/258/243 311/259/244 326/260/245
f 320/261/246 326/260/245 311/259/244
f 326/260/245 320/261/246 350/262/247
f 322/160/145 350/262/247 320/261/246
f 350/262/247 322/160/145 372/263/248
f 371/158/143 372/263/248 322/160/145
f 372/263/248 371/158/143 399/264/249
f 389/156/141 399/264/249 371/158/143
f 399/264/249 389/156/141 447/265/250
f 437/266/251 447/265/250 389/156/141
f 447/265/250 437/266/251 462/267/252
f 455/268/253 462/267/252 437/266/251
f 462/267/252 455/268/253 460/269/254
f 452/270/255 460/269/254 455/268/253
f 460/269/254 452/270/255 421/271/256
f 417/272/257 421/271/256 452/270/255
f 421/271/256 417/272/257 415/273/258
f 402/274/259 415/273/258 417/272/257
f 415/273/258 402/274/259 414/187/172
f 370/275/260 414/187/172 402/274/259
f 414/187/172 370/275/260 337/185/170
f 338/183/168 337/185/170 370/275/260
f 264/256/241 278/276/261 268/257/242
f 311/259/244 268/257/242 278/276/261
f 93/277/262 120/278/263 94/279/264
f 124/280/265 94/279/264 120/278/263
f 94/279/264 124/280/265 105/281/266
f 106/282/267 105/281/266 124/280/265
f 105/281/266 106/282/267 95/283/268
f 123/284/269 95/283/268 106/282/267
f 95/283/268 123/284/269 96/285/270
f 108/286/271 96/285/270 123/284/269
f 96/285/270 108/286/271 102/287/272
f 107/288/273 102/287/272 108/286/271
f 102/287/272 107/288/273 89/289/274
f 109/290/275 89/289/274 107/288/273
f 89/289/274 109/290/275 90/291/276
f 112/292/277 90/291/276 109/290/275
f 90/291/276 112/292/277 104/293/278
f 113/294/279 104/293/278 112/292/277
f 104/293/278 113/294/279 91/295/280
f 110/296/281 91/295/280 113/294/279
f 91/295/280 110/296/281 92/297/282
f 114/298/283 92/297/282 110/296/281
f 92/297/282 114/298/283 103/299/284
f 117/300/285 103/299/284 114/298/283
f 103/299/284 117/300/285 99/301/286
f 118/302/287 99/301/286 117/300/285
f 99/301/286 118/302/287 97/303/288
f 116/304/289 97/303/288 118/302/287
f 97/303/288 116/304/289 98/305/290
f 111/306/291 98/305/290 116/304/289
f 98/305/290 111/306/291 100/307/292
f 115/308/293 100/307/292 111/306/291
f 100/307/292 115/308/293 101/309/294
f 119/310/295 101/309/294 115/308/293
f 101/309/294 119/310/295 88/311/296
f 122/312/297 88/311/296 119/310/295
f 88/311/296 122/312/297 87/313/262
f 121/314/298 87/313/262 122/312/297
f 187/315/299 208/316/300 203/317/301
f 220/318/302 203/317/301 208/316/300
f 203/317/301 220/318/302 199/319/303
f 205/320/304 199/319/303 220/318/302
f 199/319/303 205/320/304 178/321/305
f 179/322/306 178/321/305 205/320/304
f 178/321/305 179/322/306 162/323/307
f 160/324/308 162/323/307 179/322/306
f 162/323/307 160/324/308 126/325/309
f 125/326/310 126/325/309 160/324/308
f 126/325/309 125/326/310 107/288/273
f 109/290/275 107/288/273 125/326/310
f 120/278/263 139/327/311 124/280/265
f 142/328/312 124/280/265 139/327/311
f 124/280/265 142/328/312 144/329/313
f 167/330/314 144/329/313 142/328/312
f 144/329/313 167/330/314 166/331/315
f 184/332/316 166/331/315 167/330/314
f 166/331/315 184/332/316 181/333/317
f 203/317/301 181/333/317 184/332/316
f 181/333/317 203/317/301 199/319/303
f 139/327/311 165/334/318 142/328/312
f 167/330/314 142/328/312 165/334/318
f 165/334/318 182/335/319 167/330/314
f 187/315/299 167/330/314 182/335/319
f 167/330/314 187/315/299 184/332/316
f 203/317/301 184/332/316 187/315/299
f 182/335/319 201/336/320 187/315/299
f 208/316/300 187/315/299 201/336/320
f 124/280/265 144/329/313 106/282/267
f 128/337/321 106/282/267 144/329/313
f 106/282/267 128/337/321 123/284/269
f 141/338/322 123/284/269 128/337/321
f 123/284/269 141/338/322 108/286/271
f 126/325/309 108/286/271 141/338/322
f 108/286/271 126/325/309 107/288/273
f 126/325/309 141/338/322 162/323/307
f 159/339/323 162/323/307 141/338/322
f 162/323/307 159/339/323 178/321/305
f 181/333/317 178/321/305 159/339/323
f 178/321/305 181/333/317 199/319/303
f 144/329/313 166/331/315 128/337/321
f 159/339/323 128/337/321 166/331/315
f 128/337/321 159/339/323 141/338/322
f 327/148/133 240/340/324 334/146/131
f 257/341/325 334/146/131 240/340/324
f 334/146/131 257/341/325 324/342/326
f 255/343/327 324/342/326 257/341/325
f 324/342/326 255/343/327 299/344/328
f 248/345/329 299/344/328 255/343/327
f 299/344/328 248/345/329 275/346/164
f 235/347/330 275/346/164 248/345/329
f 324/342/326 393/348/331 334/146/131
f 405/349/332 334/146/131 393/348/331
f 334/146/131 405/349/332 483/144/129
f 502/350/333 483/144/129 405/349/332
f 483/144/129 502/350/333 518/351/334
f 525/352/335 518/351/334 502/350/333
f 518/351/334 525/352/335 537/353/113
f 531/354/336 537/353/113 525/352/335
f 537/353/113 531/354/336 546/355/72
f 549/119/104 546/355/72 531/354/336
f 546/355/72 549/119/104 577/121/106
f 393/348/331 420/356/337 405/349/332
f 463/357/338 405/349/332 420/356/337
f 405/349/332 463/357/338 490/358/339
f 491/359/340 490/358/339 463/357/338
f 490/358/339 491/359/340 526/360/341
f 523/361/342 526/360/341 491/359/340
f 526/360/341 523/361/342 534/111/96
f 536/109/94 534/111/96 523/361/342
f 261/248/233 280/258/243 304/249/234
f 317/362/343 304/249/234 280/258/243
f 304/249/234 317/362/343 345/250/235
f 335/363/344 345/250/235 317/362/343
f 345/250/235 335/363/344 355/364/345
f 360/365/346 355/364/345 335/363/344
f 355/364/345 360/365/346 369/366/347
f 377/367/348 369/366/347 360/365/346
f 369/366/347 377/367/348 379/368/349
f 369/366/347 381/251/236 355/364/345
f 345/250/235 355/364/345 381/251/236
f 372/263/248 360/365/346 350/262/247
f 326/260/245 350/262/247 360/365/346
f 280/258/243 326/260/245 317/362/343
f 335/363/344 317/362/343 326/260/245
f 284/164/149 307/369/350 286/370/351
f 312/371/352 286/370/351 307/369/350
f 286/370/351 312/371/352 278/276/261
f 311/259/244 278/276/261 312/371/352
f 297/182/167 298/203/188 330/184/169
f 319/201/186 330/184/169 298/203/188
f 330/184/169 319/201/186 336/186/171
f 349/199/184 336/186/171 319/201/186
f 336/186/171 349/199/184 385/188/173
f 354/190/175 385/188/173 349/199/184
f 323/372/353 338/183/168 386/373/354
f 370/275/260 386/373/354 338/183/168
f 386/373/354 370/275/260 402/274/259
f 325/198/183 321/200/185 306/217/202
f 303/202/187 306/217/202 321/200/185
f 306/217/202 303/202/187 281/207/192
f 289/204/189 281/207/192 303/202/187
f 307/369/350 320/261/246 312/371/352
f 311/259/244 312/371/352 320/261/246
f 376/367/355 403/374/356 380/368/357
f 391/375/358 380/368/357 403/374/356
f 380/368/357 391/375/358 381/251/236
f 419/252/237 381/251/236 391/375/358
f 402/274/259 417/272/257 386/373/354
f 423/376/359 386/373/354 417/272/257
f 386/373/354 423/376/359 404/377/360
f 434/378/361 404/377/360 423/376/359
f 404/377/360 434/378/361 412/379/362
f 404/377/360 412/379/362 386/373/354
f 392/380/363 386/373/354 412/379/362
f 386/373/354 392/380/363 323/372/353
f 387/193/178 422/246/231 418/191/176
f 454/381/364 418/191/176 422/246/231
f 418/191/176 454/381/364 432/382/365
f 444/383/366 432/382/365 454/381/364
f 432/382/365 444/383/366 414/187/172
f 442/384/367 414/187/172 444/383/366
f 414/187/172 442/384/367 415/273/258
f 421/271/256 415/273/258 442/384/367
f 405/349/332 490/358/339 502/350/333
f 522/385/368 502/350/333 490/358/339
f 502/350/333 522/385/368 521/386/369
f 535/115/100 521/386/369 522/385/368
f 521/386/369 535/115/100 541/117/102
f 463/357/338 420/356/337 411/387/370
f 393/348/331 411/387/370 420/356/337
f 411/387/370 435/388/371 463/357/338
f 470/389/372 463/357/338 435/388/371
f 463/357/338 470/389/372 491/359/340
f 493/390/373 491/359/340 470/389/372
f 491/359/340 493/390/373 523/361/342
f 517/391/374 523/361/342 493/390/373
f 523/361/342 517/391/374 536/109/94
f 516/392/375 536/109/94 517/391/374
f 536/109/94 516/392/375 543/393/376
f 527/394/377 543/393/376 516/392/375
f 543/393/376 527/394/377 512/395/378
f 492/396/379 512/395/378 527/394/377
f 512/395/378 492/396/379 498/397/380
f 464/398/381 498/397/380 492/396/379
f 498/397/380 464/398/381 468/399/382
f 436/400/383 468/399/382 464/398/381
f 468/399/382 436/400/383 443/401/384
f 413/402/385 443/401/384 436/400/383
f 443/401/384 413/402/385 409/403/386
f 366/404/387 409/403/386 413/402/385
f 409/403/386 366/404/387 407/405/388
f 414/187/172 416/189/174 432/382/365
f 418/191/176 432/382/365 416/189/174
f 421/271/256 442/384/367 460/269/254
f 469/406/389 460/269/254 442/384/367
f 460/269/254 469/406/389 462/267/252
f 473/407/390 462/267/252 469/406/389
f 462/267/252 473/407/390 447/265/250
f 461/408/391 447/265/250 473/407/390
f 447/265/250 461/408/391 399/264/249
f 403/374/356 399/264/249 461/408/391
f 399/264/249 403/374/356 372/263/248
f 376/367/355 372/263/248 403/374/356
f 422/246/231 467/244/229 454/381/364
f 474/409/392 454/381/364 467/244/229
f 454/381/364 474/409/392 459/410/393
f 477/411/394 459/410/393 474/409/392
f 459/410/393 477/411/394 469/406/389
f 473/407/390 469/406/389 477/411/394
f 451/412/395 458/413/396 423/376/359
f 434/378/361 423/376/359 458/413/396
f 458/413/396 451/412/395 449/414/397
f 450/415/398 449/414/397 451/412/395
f 449/414/397 450/415/398 439/416/399
f 433/417/400 439/416/399 450/415/398
f 439/416/399 433/417/400 389/156/141
f 437/266/251 389/156/141 433/417/400
f 423/376/359 417/272/257 451/412/395
f 452/270/255 451/412/395 417/272/257
f 451/412/395 452/270/255 450/415/398
f 455/268/253 450/415/398 452/270/255
f 450/415/398 455/268/253 433/417/400
f 437/266/251 433/417/400 455/268/253
f 469/406/389 442/384/367 459/410/393
f 444/383/366 459/410/393 442/384/367
f 459/410/393 444/383/366 454/381/364
f 448/418/401 471/419/402 457/420/403
f 470/389/372 457/420/403 471/419/402
f 457/420/403 470/389/372 435/388/371
f 471/419/402 438/421/404 494/422/405
f 429/423/406 494/422/405 438/421/404
f 494/422/405 429/423/406 427/424/407
f 394/425/408 427/424/407 429/423/406
f 427/424/407 394/425/408 424/426/409
f 413/402/385 424/426/409 394/425/408
f 424/426/409 413/402/385 436/400/383
f 436/400/383 464/398/381 424/426/409
f 492/396/379 424/426/409 464/398/381
f 424/426/409 492/396/379 487/427/410
f 516/392/375 487/427/410 492/396/379
f 487/427/410 516/392/375 517/391/374
f 427/424/407 487/427/410 494/422/405
f 517/391/374 494/422/405 487/427/410
f 494/422/405 517/391/374 493/390/373
f 467/244/229 480/242/227 474/409/392
f 485/255/240 474/409/392 480/242/227
f 474/409/392 485/255/240 477/411/394
f 476/428/411 477/411/394 485/255/240
f 477/411/394 476/428/411 473/407/390
f 461/408/391 473/407/390 476/428/411
f 494/422/405 493/390/373 471/419/402
f 470/389/372 471/419/402 493/390/373
f 476/428/411 479/254/239 465/429/412
f 466/253/238 465/429/412 479/254/239
f 465/429/412 466/253/238 428/430/413
f 410/431/414 428/430/413 466/253/238
f 428/430/413 410/431/414 403/374/356
f 391/375/358 403/374/356 410/431/414
f 391/375/358 410/431/414 419/252/237
f 466/253/238 419/252/237 410/431/414
f 461/408/391 465/429/412 403/374/356
f 428/430/413 403/374/356 465/429/412
f 490/358/339 526/360/341 522/385/368
f 533/113/98 522/385/368 526/360/341
f 522/385/368 533/113/98 535/115/100
f 525/352/335 521/386/369 531/354/336
f 541/117/102 531/354/336 521/386/369
f 531/354/336 541/117/102 549/119/104
f 529/129/114 528/130/115 520/133/118
f 514/432/415 520/133/118 528/130/115
f 520/133/118 514/432/415 503/433/416
f 481/434/417 503/433/416 514/432/415
f 503/433/416 481/434/417 373/435/418
f 374/436/419 373/435/418 481/434/417
f 373/435/418 374/436/419 352/437/420
f 342/438/421 352/437/420 374/436/419
f 352/437/420 342/438/421 301/439/422
f 269/440/423 301/439/422 342/438/421
f 301/439/422 269/440/423 241/441/424
f 232/442/425 241/441/424 269/440/423
f 241/441/424 232/442/425 208/316/300
f 220/318/302 208/316/300 232/442/425
f 301/439/422 328/141/126 352/437/420
f 353/139/124 352/437/420 328/141/126
f 352/437/420 353/139/124 373/435/418
f 375/137/122 373/435/418 353/139/124
f 373/435/418 375/137/122 503/433/416
f 484/135/120 503/433/416 375/137/122
f 503/433/416 484/135/120 520/133/118
f 550/101/86 553/103/88 530/443/426
f 539/444/427 530/443/426 553/103/88
f 530/443/426 539/444/427 515/445/428
f 513/446/429 515/445/428 539/444/427
f 515/445/428 513/446/429 501/447/430
f 504/448/431 501/447/430 513/446/429
f 501/447/430 504/448/431 453/449/432
f 443/401/384 453/449/432 504/448/431
f 453/449/432 443/401/384 409/403/386
f 409/403/386 407/405/388 453/449/432
f 456/450/433 453/449/432 407/405/388
f 453/449/432 456/450/433 501/447/430
f 497/451/434 501/447/430 456/450/433
f 501/447/430 497/451/434 515/445/428
f 510/452/435 515/445/428 497/451/434
f 515/445/428 510/452/435 530/443/426
f 511/453/436 530/443/426 510/452/435
f 530/443/426 511/453/436 542/454/437
f 540/455/438 542/454/437 511/453/436
f 542/454/437 540/455/438 548/99/84
f 551/97/82 548/99/84 540/455/438
f 468/399/382 504/448/431 498/397/380
f 509/456/439 498/397/380 504/448/431
f 498/397/380 509/456/439 512/395/378
f 532/457/440 512/395/378 509/456/439
f 512/395/378 532/457/440 543/393/376
f 554/107/92 543/393/376 532/457/440
f 543/393/376 554/107/92 536/109/94
f 446/458/441 456/450/433 445/458/442
f 407/405/388 445/458/442 456/450/433
f 456/450/433 495/459/443 497/451/434
f 510/452/435 497/451/434 495/459/443
f 509/456/439 513/446/429 532/457/440
f 539/444/427 532/457/440 513/446/429
f 532/457/440 539/444/427 557/105/90
f 553/103/88 557/105/90 539/444/427
f 514/432/415 511/453/436 481/434/417
f 496/460/444 481/434/417 511/453/436
f 481/434/417 496/460/444 374/436/419
f 406/461/445 374/436/419 496/460/444
f 374/436/419 406/461/445 378/462/446
f 408/405/447 378/462/446 406/461/445
f 378/462/446 408/405/447 366/404/387
f 408/405/447 406/461/445 445/458/442
f 496/460/444 445/458/442 406/461/445
f 445/458/442 496/460/444 495/459/443
f 510/452/435 495/459/443 496/460/444
f 374/436/419 378/462/446 342/438/421
f 356/463/448 342/438/421 378/462/446
f 342/438/421 356/463/448 333/464/449
f 332/465/450 333/464/449 356/463/448
f 333/464/449 332/465/450 288/466/451
f 296/467/452 288/466/451 332/465/450
f 288/466/451 296/467/452 238/468/453
f 243/469/454 238/468/453 296/467/452
f 238/468/453 243/469/454 214/470/455
f 212/471/456 214/470/455 243/469/454
f 214/470/455 212/471/456 192/472/457
f 191/473/458 192/472/457 212/471/456
f 192/472/457 191/473/458 174/474/459
f 173/475/460 174/474/459 191/473/458
f 174/474/459 173/475/460 154/476/461
f 146/477/462 154/476/461 173/475/460
f 154/476/461 146/477/462 132/478/463
f 155/479/464 132/478/463 146/477/462
f 132/478/463 155/479/464 135/480/465
f 157/481/466 135/480/465 155/479/464
f 135/480/465 157/481/466 136/482/467
f 163/483/468 136/482/467 157/481/466
f 136/482/467 163/483/468 134/484/469
f 158/485/470 134/484/469 163/483/468
f 134/484/469 158/485/470 151/486/471
f 169/487/472 151/486/471 158/485/470
f 151/486/471 169/487/472 147/488/473
f 149/489/474 147/488/473 169/487/472
f 147/488/473 149/489/474 137/490/475
f 140/491/476 137/490/475 149/489/474
f 137/490/475 140/491/476 122/312/297
f 121/314/298 122/312/297 140/491/476
f 122/312/297 119/310/295 137/490/475
f 133/492/477 137/490/475 119/310/295
f 137/490/475 133/492/477 151/486/471
f 134/484/469 151/486/471 133/492/477
f 138/493/311 140/491/476 164/494/478
f 156/495/479 164/494/478 140/491/476
f 164/494/478 156/495/479 185/496/480
f 188/497/481 185/496/480 156/495/479
f 185/496/480 188/497/481 210/498/482
f 211/499/483 210/498/482 188/497/481
f 210/498/482 211/499/483 248/345/329
f 235/347/330 248/345/329 211/499/483
f 183/500/319 185/496/480 202/501/484
f 210/498/482 202/501/484 185/496/480
f 202/501/484 210/498/482 255/343/327
f 248/345/329 255/343/327 210/498/482
f 173/475/460 195/502/485 171/503/486
f 175/504/487 171/503/486 195/502/485
f 171/503/486 175/504/487 163/483/468
f 158/485/470 163/483/468 175/504/487
f 155/479/464 171/503/486 157/481/466
f 163/483/468 157/481/466 171/503/486
f 173/475/460 171/503/486 146/477/462
f 155/479/464 146/477/462 171/503/486
f 195/502/485 231/505/488 244/506/489
f 310/507/490 244/506/489 231/505/488
f 244/506/489 310/507/490 314/508/139
f 347/509/491 314/508/139 310/507/490
f 244/506/489 233/510/492 195/502/485
f 198/511/493 195/502/485 233/510/492
f 195/502/485 198/511/493 175/504/487
f 176/512/494 175/504/487 198/511/493
f 175/504/487 176/512/494 158/485/470
f 169/487/472 158/485/470 176/512/494
f 233/510/492 223/513/495 198/511/493
f 200/514/496 198/511/493 223/513/495
f 198/511/493 200/514/496 176/512/494
f 197/515/497 176/512/494 200/514/496
f 176/512/494 197/515/497 169/487/472
f 188/497/481 169/487/472 197/515/497
f 169/487/472 188/497/481 149/489/474
f 152/516/498 149/489/474 188/497/481
f 149/489/474 152/516/498 140/491/476
f 156/495/479 140/491/476 152/516/498
f 223/513/495 218/517/499 200/514/496
f 235/347/330 200/514/496 218/517/499
f 200/514/496 235/347/330 197/515/497
f 211/499/483 197/515/497 235/347/330
f 197/515/497 211/499/483 188/497/481
f 202/501/484 257/341/325 209/518/500
f 240/340/324 209/518/500 257/341/325
f 231/505/488 305/519/501 310/507/490
f 331/520/502 310/507/490 305/519/501
f 310/507/490 331/520/502 343/521/503
f 357/522/504 343/521/503 331/520/502
f 343/521/503 357/522/504 361/523/505
f 366/404/387 361/523/505 357/522/504
f 361/523/505 366/404/387 413/402/385
f 331/520/502 305/519/501 295/524/506
f 242/525/507 295/524/506 305/519/501
f 295/524/506 242/525/507 243/469/454
f 212/471/456 243/469/454 242/525/507
f 243/469/454 296/467/452 295/524/506
f 332/465/450 295/524/506 296/467/452
f 295/524/506 332/465/450 331/520/502
f 366/404/387 331/520/502 332/465/450
f 331/520/502 366/404/387 357/522/504
f 347/509/491 343/521/503 362/526/508
f 361/523/505 362/526/508 343/521/503
f 362/526/508 361/523/505 394/425/408
f 413/402/385 394/425/408 361/523/505
f 378/462/446 366/404/387 356/463/448
f 332/465/450 356/463/448 366/404/387
f 445/458/442 495/459/443 446/458/441
f 456/450/433 446/458/441 495/459/443
f 530/443/426 542/454/437 550/101/86
f 548/99/84 550/101/86 542/454/437
f 556/95/80 540/455/438 528/130/115
f 514/432/415 528/130/115 540/455/438
f 125/326/310 127/527/509 109/290/275
f 112/292/277 109/290/275 127/527/509
f 113/294/279 131/528/510 110/296/281
f 129/529/511 110/296/281 131/528/510
f 110/296/281 129/529/511 114/298/283
f 132/478/463 114/298/283 129/529/511
f 114/298/283 132/478/463 117/300/285
f 135/480/465 117/300/285 132/478/463
f 117/300/285 135/480/465 118/302/287
f 136/482/467 118/302/287 135/480/465
f 118/302/287 136/482/467 116/304/289
f 134/484/469 116/304/289 136/482/467
f 116/304/289 134/484/469 111/306/291
f 133/492/477 111/306/291 134/484/469
f 111/306/291 133/492/477 115/308/293
f 119/310/295 115/308/293 133/492/477
f 132/478/463 129/529/511 154/476/461
f 143/530/512 154/476/461 129/529/511
f 154/476/461 143/530/512 150/531/513
f 148/532/514 150/531/513 143/530/512
f 150/531/513 148/532/514 168/533/515
f 177/534/516 168/533/515 148/532/514
f 168/533/515 177/534/516 193/535/517
f 194/536/518 193/535/517 177/534/516
f 193/535/517 194/536/518 213/537/519
f 196/538/520 213/537/519 194/536/518
f 213/537/519 196/538/520 288/466/451
f 308/539/521 288/466/451 196/538/520
f 288/466/451 308/539/521 333/464/449
f 342/438/421 333/464/449 308/539/521
f 143/530/512 129/529/511 148/532/514
f 131/528/510 148/532/514 129/529/511
f 148/532/514 131/528/510 145/540/522
f 130/541/523 145/540/522 131/528/510
f 145/540/522 130/541/523 153/542/524
f 127/527/509 153/542/524 130/541/523
f 153/542/524 127/527/509 161/543/525
f 125/326/310 161/543/525 127/527/509
f 161/543/525 125/326/310 160/324/308
f 112/292/277 130/541/523 113/294/279
f 131/528/510 113/294/279 130/541/523
f 148/532/514 145/540/522 177/534/516
f 180/544/526 177/534/516 145/540/522
f 177/534/516 180/544/526 194/536/518
f 186/545/527 194/536/518 180/544/526
f 194/536/518 186/545/527 196/538/520
f 190/546/528 196/538/520 186/545/527
f 196/538/520 190/546/528 204/547/529
f 189/548/530 204/547/529 190/546/528
f 204/547/529 189/548/530 207/549/531
f 179/322/306 207/549/531 189/548/530
f 207/549/531 179/322/306 205/320/304
f 186/545/527 180/544/526 153/542/524
f 145/540/522 153/542/524 180/544/526
f 186/545/527 153/542/524 190/546/528
f 161/543/525 190/546/528 153/542/524
f 190/546/528 161/543/525 189/548/530
f 160/324/308 189/548/530 161/543/525
f 189/548/530 160/324/308 179/322/306
f 196/538/520 204/547/529 308/539/521
f 237/550/532 308/539/521 204/547/529
f 308/539/521 237/550/532 282/551/533
f 267/552/534 282/551/533 237/550/532
f 282/551/533 267/552/534 342/438/421
f 262/553/535 342/438/421 267/552/534
f 342/438/421 262/553/535 269/440/423
f 256/554/536 269/440/423 262/553/535
f 269/440/423 256/554/536 232/442/425
f 220/318/302 232/442/425 256/554/536
f 220/318/302 221/555/537 205/320/304
f 225/556/538 205/320/304 221/555/537
f 205/320/304 225/556/538 226/557/539
f 267/552/534 226/557/539 225/556/538
f 226/557/539 267/552/534 237/550/532
f 205/320/304 226/557/539 207/549/531
f 237/550/532 207/549/531 226/557/539
f 207/549/531 237/550/532 204/547/529
f 288/466/451 238/468/453 213/537/519
f 214/470/455 213/537/519 238/468/453
f 213/537/519 214/470/455 193/535/517
f 192/472/457 193/535/517 214/470/455
f 193/535/517 192/472/457 170/558/540
f 172/559/541 170/558/540 192/472/457
f 170/558/540 172/559/541 150/531/513
f 154/476/461 150/531/513 172/559/541
f 150/531/513 168/533/515 170/558/540
f 193/535/517 170/558/540 168/533/515
f 154/476/461 172/559/541 174/474/459
f 192/472/457 174/474/459 172/559/541
f 221/555/537 256/554/536 225/556/538
f 262/553/535 225/556/538 256/554/536
f 225/556/538 262/553/535 267/552/534
f 212/471/456 206/560/542 191/473/458
f 195/502/485 191/473/458 206/560/542
f 191/473/458 195/502/485 173/475/460
f 212/471/456 242/525/507 206/560/542
f 231/505/488 206/560/542 242/525/507
f 206/560/542 231/505/488 195/502/485
f 322/160/145 307/369/350 285/162/147
f 284/164/149 285/162/147 307/369/350
f 338/183/168 300/561/543 290/181/166
f 274/179/164 290/181/166 300/561/543
f 561/112/97 572/123/108 568/124/109
f 540/455/438 556/95/80 551/97/82
f 532/457/440 557/105/90 554/107/92
f 526/360/341 534/111/96 533/113/98
f 521/386/369 525/352/335 502/350/333
f 514/432/415 540/455/438 511/453/436
f 504/448/431 513/446/429 509/456/439
f 496/460/444 511/453/436 510/452/435
f 492/396/379 527/394/377 516/392/375
f 476/428/411 485/255/240 479/254/239
f 461/408/391 476/428/411 465/429/412
f 443/401/384 504/448/431 468/399/382
f 438/421/404 471/419/402 448/418/401
f 424/426/409 487/427/410 427/424/407
f 369/366/347 379/368/349 381/251/236
f 360/365/346 372/263/248 377/367/348
f 358/145/130 400/143/128 367/562/544
f 346/194/179 351/192/177 316/196/181
f 343/521/503 347/509/491 310/507/490
f 326/260/245 360/365/346 335/363/344
f 316/196/181 318/197/182 263/214/199
f 313/154/139 365/152/137 291/563/545
f 307/369/350 322/160/145 320/261/246
f 300/561/543 338/183/168 323/372/353
f 287/206/191 289/204/189 283/205/190
f 282/551/533 342/438/421 308/539/521
f 270/180/165 274/179/164 249/564/546
f 263/214/199 273/215/200 227/218/203
f 258/161/146 271/163/148 250/565/547
f 255/343/327 257/341/325 202/501/484
f 242/525/507 305/519/501 231/505/488
f 227/218/203 247/219/204 216/220/205
f 220/318/302 256/554/536 221/555/537
f 166/331/315 181/333/317 159/339/323
f 164/494/478 185/496/480 183/500/319
f 152/516/498 188/497/481 156/495/479
f 137/490/475 151/486/471 147/488/473
f 127/527/509 130/541/523 112/292/277
f 121/314/298 140/491/476 138/493/311
f 239/566/548 329/567/549 302/441/550
f 340/140/125 359/568/551 368/138/123
f 363/151/136 398/569/552 365/152/137
f 390/570/553 395/571/554 441/572/555
f 397/573/556 430/574/557 440/575/555
f 519/131/116 538/128/113 529/129/114
f 538/128/113 545/87/72 544/89/74
f 545/87/72 581/576/558 575/88/73
