# Source-author permission confirmed by the user on 2026-07-25.
# Normalized to metres and Z-up; source UVs/material assignments retained.
# Blender 4.2.0
# www.blender.org
mtllib rv_mod_col_cliff_stones.mtl
o rv_mod_col_cliff_stones
v -0.049303 0.033055 0.032279
v -1.077904 -1.205111 0.032279
v -1.077904 -1.205111 0.032279
v 3.326441 -0.593156 0.032279
v 2.431498 -2.789932 0.032279
v 1.165558 -3.316143 0.032279
v -1.077904 -1.205111 0.032279
v 2.431498 -2.789932 0.032279
v 2.972066 -1.444223 0.032279
v -0.316369 -2.649262 0.032279
v -0.049303 0.033055 0.032279
v 1.542819 0.114934 0.032279
v -0.316369 -2.649262 0.032279
v 1.165558 -3.316143 0.032279
v 3.037229 -0.001083 0.032279
v 2.242221 0.423849 0.032279
v 2.972066 -1.444223 0.032279
v 2.001771 0.465470 0.032279
v 2.242221 0.423849 0.032279
v 3.037229 -0.001083 0.032279
v 3.326441 -0.593156 0.032279
v 1.542819 0.114934 0.032279
v 2.001771 0.465470 0.032279
v 3.336658 -0.786663 0.032279
v 3.336658 -0.786663 0.032279
v 2.770803 -1.161451 1.691461
v 2.807264 -1.005765 1.691461
v 2.807264 -1.005765 1.691461
v 2.807264 -1.005765 1.691461
v 2.770803 -1.161451 1.691461
v 2.807264 -1.005765 1.691461
v 0.627793 -0.735773 1.859836
v 1.545646 -0.718666 1.859836
v 1.911854 -0.445590 1.859836
v 2.109610 -0.424329 1.859836
v 1.545646 -0.718666 1.859836
v 2.564744 -0.659080 1.859836
v 2.109610 -0.424329 1.859836
v 2.109610 -0.424329 1.859836
v 2.564744 -0.659080 1.859836
v 0.627793 -0.735773 1.859836
v 0.627793 -0.735773 1.859836
v 2.564744 -0.659080 1.859836
v 1.545646 -0.718666 1.859836
v 1.911854 -0.445590 1.859836
v 1.911854 -0.445590 1.859836
v 1.545646 -0.718666 1.859836
v 1.911854 -0.445590 1.859836
v 2.109610 -0.424329 1.859836
v 2.564744 -0.659080 1.859836
v 0.627793 -0.735773 1.859836
v 2.754160 -0.973636 2.734762
v 2.754160 -0.973636 2.734762
v 2.754160 -0.973636 2.734762
v 2.147449 -0.467992 2.903136
v 2.147449 -0.467992 2.903136
v 2.147449 -0.467992 2.903136
v 2.564744 -0.659080 2.947770
v 2.564744 -0.659080 2.947770
v 2.564744 -0.659080 2.947770
v 2.564744 -0.659080 2.947770
v 2.722452 -1.109027 3.021429
v 2.722452 -1.109027 3.021429
v 2.722452 -1.109027 3.021429
v 1.975471 -0.486481 3.189803
v 1.975471 -0.486481 3.189803
v 1.975471 -0.486481 3.189803
v 1.975471 -0.486481 3.189803
v 1.545646 -0.718666 3.213770
v 2.487096 -1.503285 3.213770
v 2.487096 -1.503285 3.213770
v 1.545646 -0.718666 3.213770
v 1.545646 -0.718666 3.213770
v 1.545646 -0.718666 3.213770
v 2.487096 -1.503285 3.213770
v 2.487096 -1.503285 3.213770
v 2.487096 -1.503285 3.213770
v 1.545646 -0.718666 3.213770
v 2.459664 -0.744094 3.302080
v 2.459664 -0.744094 3.302080
v 2.459664 -0.744094 3.302080
v 2.459664 -0.744094 3.302080
v 2.140331 -1.047299 3.470455
v 0.039366 -1.561904 3.470455
v 0.627793 -0.735773 3.470455
v 0.039366 -1.561904 3.470455
v 2.140331 -1.047299 3.470455
v 0.627793 -0.735773 3.470455
v 0.627793 -0.735773 3.470455
v 0.039366 -1.561904 3.470455
v 2.140331 -1.047299 3.470455
v 0.039366 -1.561904 3.470455
v 0.627793 -0.735773 3.470455
v 0.627793 -0.735773 3.470455
v 2.140331 -1.047299 3.470455
v 0.276623 -1.500660 3.785210
v 0.276623 -1.500660 3.785210
v 0.276623 -1.500660 3.785210
v 0.276623 -1.500660 3.785210
v 0.276623 -1.500660 3.785210
v 0.276623 -1.500660 3.785210
v 0.651584 -0.926194 4.074270
v 0.651584 -0.926194 4.074270
v 0.651584 -0.926194 4.074270
v 0.999881 -2.385891 4.462135
v 0.999881 -2.385891 4.462135
v 0.999881 -2.385891 4.462135
v 0.999881 -2.385891 4.462135
v 0.999881 -2.385891 4.462135
v 1.545646 -0.718666 4.496753
v 1.545646 -0.718666 4.496753
v 2.487096 -1.503285 4.496753
v 1.545646 -0.718666 4.496753
v 2.140331 -1.047299 4.496753
v 2.140331 -1.047299 4.496753
v 1.545646 -0.718666 4.496753
v 2.487096 -1.503285 4.496753
v 2.140331 -1.047299 4.496753
v 2.487096 -1.503285 4.496753
v 2.140331 -1.047299 4.496753
v 2.487096 -1.503285 4.496753
v 2.091953 -2.522318 4.530541
v 2.091953 -2.522318 4.530541
v 2.091953 -2.522318 4.530541
v 2.091953 -2.522318 4.530541
v 2.091953 -2.522318 4.530541
v 1.395164 -2.692669 4.693896
v 1.395164 -2.692669 4.693896
v 1.395164 -2.692669 4.693896
v 1.395164 -2.692669 4.693896
v 0.766242 -1.826626 5.041365
v 0.766242 -1.826626 5.041365
v 0.876764 -2.114305 5.041365
v 0.805124 -1.202292 5.041365
v 0.805124 -1.202292 5.041365
v 0.766242 -1.826626 5.041365
v 0.805124 -1.202292 5.041365
v 0.805124 -1.202292 5.041365
v 0.876764 -2.114305 5.041365
v 0.876764 -2.114305 5.041365
v 0.876764 -2.114305 5.041365
v 2.084576 -1.492857 5.179767
v 2.084576 -1.492857 5.179767
v 1.932147 -1.244969 5.179767
v 2.084576 -1.492857 5.179767
v 1.932147 -1.244969 5.179767
v 1.932147 -1.244969 5.179767
v 1.790520 -2.161166 5.188465
v 1.312973 -2.239573 5.188465
v 1.312973 -2.239573 5.188465
v 1.790520 -2.161166 5.188465
v 1.312973 -2.239573 5.188465
v 1.790520 -2.161166 5.188465
v 1.312973 -2.239573 5.188465
v 1.790520 -2.161166 5.188465
v 1.412473 -1.098660 5.277042
v 1.412473 -1.098660 5.277042
v 1.412473 -1.098660 5.277042
v 1.412473 -1.098660 5.277042
v 1.379010 -1.610875 5.363301
v 1.379010 -1.610875 5.363301
v 1.379010 -1.610875 5.363301
v -2.150737 0.680905 0.050701
v -4.564463 0.715226 0.050701
v -3.334618 -0.699022 0.050701
v -4.529051 0.045151 0.050701
v -3.280554 1.383830 0.050701
v -2.150737 0.680905 0.050701
v -3.713172 1.584383 0.050701
v -3.713172 1.584383 0.050701
v -4.564463 0.715226 0.050701
v -4.529051 0.045151 0.050701
v -3.334618 -0.699022 0.050701
v -3.334618 -0.699022 0.050701
v -2.370848 -0.429539 0.116074
v -2.370848 -0.429539 0.116074
v -4.505193 0.122869 1.971228
v -4.505193 0.122869 1.971228
v -4.285698 -0.005521 2.033139
v -4.285698 -0.005521 2.033139
v -4.517694 -1.437674 2.070738
v -4.517694 -1.437674 2.070738
v -4.517694 -1.437674 2.070738
v -4.517694 -1.437674 2.070738
v -4.517694 -1.437674 2.070738
v -3.698071 -0.424464 2.145159
v -3.698071 -0.424464 2.145159
v -5.102394 -0.623089 2.293379
v -5.102394 -0.623089 2.293379
v -5.102394 -0.623089 2.293379
v -5.102394 -0.623089 2.293379
v -3.993201 -1.582814 2.409004
v -3.993201 -1.582814 2.409004
v -3.993201 -1.582814 2.409004
v -3.993201 -1.582814 2.409004
v -4.876323 -0.372008 2.534821
v -4.876323 -0.372008 2.534821
v -4.876323 -0.372008 2.534821
v -4.876323 -0.372008 2.534821
v -4.876323 -0.372008 2.534821
v -4.876323 -0.372008 2.534821
v -4.759270 -1.893220 2.667310
v -4.759270 -1.893220 2.667310
v -4.759270 -1.893220 2.667310
v -4.759270 -1.893220 2.667310
v -4.629187 -0.456068 2.807589
v -4.629187 -0.456068 2.807589
v -4.629187 -0.456068 2.807589
v -4.260727 -0.781333 2.868776
v -4.260727 -0.781333 2.868776
v -4.260727 -0.781333 2.868776
v -4.472656 -1.923670 2.874369
v -4.472656 -1.923670 2.874369
v -4.472656 -1.923670 2.874369
v -4.472656 -1.923670 2.874369
v -4.859886 -1.684590 3.101943
v -4.859886 -1.684590 3.101943
v -4.859886 -1.684590 3.101943
v -4.859886 -1.684590 3.101943
v -5.025970 -0.650641 3.197814
v -5.025970 -0.650641 3.197814
v -5.025970 -0.650641 3.197814
v -5.025970 -0.650641 3.197814
v -5.102682 -0.791541 3.212008
v -5.102682 -0.791541 3.212008
v -5.102682 -0.791541 3.212008
v -5.102682 -0.791541 3.212008
v -5.102682 -0.791541 3.212008
v -4.750145 -1.117234 3.260092
v -4.750145 -1.117234 3.260092
v -4.750145 -1.117234 3.260092
v -4.750145 -1.117234 3.260092
v -4.750145 -1.117234 3.260092
v 2.815326 1.149715 0.104653
v 2.815326 1.149715 0.104653
v 2.195942 2.251765 0.104653
v 2.195942 2.251765 0.104653
v 4.618083 1.487840 0.118178
v 4.618083 1.487840 0.118178
v 4.194255 2.679491 0.118178
v 4.194255 2.679491 0.118178
v 2.141341 3.209573 0.118178
v 3.846152 3.676092 0.118178
v 4.618083 1.487840 0.118178
v 2.141341 3.209573 0.118178
v 2.462752 3.645323 0.118178
v 3.307662 3.887302 0.118178
v 2.462752 3.645323 0.118178
v 3.846152 3.676092 0.118178
v 3.307662 3.887302 0.118178
v 2.629713 3.296200 1.264047
v 2.629713 3.296200 1.264047
v 2.629713 3.296200 1.264047
v 2.629713 3.296200 1.264047
v 3.253610 3.472550 1.514653
v 3.253610 3.472550 1.514653
v 3.667054 3.318527 1.526939
v 3.667054 3.318527 1.526939
v 3.667054 3.318527 1.526939
v 2.705388 2.925958 2.138282
v 2.705388 2.925958 2.138282
v 2.705388 2.925958 2.138282
v 2.705388 2.925958 2.138282
v 3.293575 3.088620 2.228419
v 3.293575 3.088620 2.228419
v 3.293575 3.088620 2.228419
v 3.293575 3.088620 2.228419
v 3.293575 3.088620 2.228419
v 3.293575 3.088620 2.228419
v 2.603968 2.448632 2.229438
v 2.603968 2.448632 2.229438
v 2.603968 2.448632 2.229438
v 2.603968 2.448632 2.229438
v 2.603968 2.448632 2.229438
v 3.691561 2.699594 2.254457
v 3.691561 2.699594 2.254457
v 3.691561 2.699594 2.254457
v 3.691561 2.699594 2.254457
v 3.691561 2.699594 2.254457
v 2.901906 2.977911 2.333345
v 2.901906 2.977911 2.333345
v 2.901906 2.977911 2.333345
v 2.901906 2.977911 2.333345
v 3.466547 2.640257 2.391308
v 3.466547 2.640257 2.391308
v 3.466547 2.640257 2.391308
v 3.466547 2.640257 2.391308
v 3.466547 2.640257 2.391308
v 3.035809 2.589516 2.425095
v 3.035809 2.589516 2.425095
v 3.035809 2.589516 2.425095
v 3.035809 2.589516 2.425095
v 3.699038 2.572825 2.434342
v 3.699038 2.572825 2.434342
v 3.699038 2.572825 2.434342
v 3.786055 2.035713 2.472719
v 3.786055 2.035713 2.472719
v 2.835146 1.707226 2.477865
v 2.835146 1.707226 2.477865
v 2.835146 1.707226 2.477865
v 2.835146 1.707226 2.477865
v 2.826030 2.387870 2.590596
v 2.826030 2.387870 2.590596
v 2.826030 2.387870 2.590596
v 2.826030 2.387870 2.590596
v 2.826030 2.387870 2.590596
v 3.737590 2.144351 2.614123
v 3.737590 2.144351 2.614123
v 3.737590 2.144351 2.614123
v 3.737590 2.144351 2.614123
v 3.737590 2.144351 2.614123
v 3.157610 1.820258 2.621586
v 3.157610 1.820258 2.621586
v 3.157610 1.820258 2.621586
v 2.880769 1.902908 2.657713
v 2.880769 1.902908 2.657713
v 2.880769 1.902908 2.657713
v 2.880769 1.902908 2.657713
v 3.102611 2.426359 2.869181
v 3.102611 2.426359 2.869181
v 3.102611 2.426359 2.869181
v 3.102611 2.426359 2.869181
v 3.139844 1.844443 2.940792
v 3.139844 1.844443 2.940792
v 3.139844 1.844443 2.940792
v 3.139844 1.844443 2.940792
v 3.139844 1.844443 2.940792
v 3.139844 1.844443 2.940792
v 3.265887 2.347647 2.975953
v 3.265887 2.347647 2.975953
v 3.265887 2.347647 2.975953
v 3.265887 2.347647 2.975953
v 3.351133 2.002079 2.993268
v 3.351133 2.002079 2.993268
v 3.351133 2.002079 2.993268
v 3.351133 2.002079 2.993268
v 3.164034 2.045997 3.001334
v 3.164034 2.045997 3.001334
v 3.164034 2.045997 3.001334
v 3.164034 2.045997 3.001334
v 3.164034 2.045997 3.001334
v 2.757371 2.337412 3.019840
v 2.757371 2.337412 3.019840
v 2.757371 2.337412 3.019840
v 2.918998 2.000157 3.037782
v 2.918998 2.000157 3.037782
v 2.918998 2.000157 3.037782
v 2.918998 2.000157 3.037782
v 2.833634 2.361096 3.066494
v 2.833634 2.361096 3.066494
v 2.833634 2.361096 3.066494
v 2.995261 2.023841 3.084437
v 2.995261 2.023841 3.084437
v 2.995261 2.023841 3.084437
v 2.995261 2.023841 3.084437
v 2.238731 3.241667 0.081538
v 1.052885 1.511738 0.081538
v -0.243480 4.239853 0.081538
v -0.155268 1.653292 0.081538
v 2.391463 4.012685 0.081538
v -0.155268 1.653292 0.081538
v 2.391463 4.012685 0.081538
v 0.509885 1.611112 0.081538
v 1.052885 1.511738 0.081538
v 1.317652 4.431027 0.081538
v 0.537151 4.597191 0.081538
v 2.489057 3.627180 0.081538
v 1.317652 4.431027 0.081538
v 2.391463 4.012685 0.081538
v -0.243480 4.239853 0.081538
v 1.052885 1.511738 0.081538
v 2.238731 3.241667 0.081538
v 2.391463 4.012685 0.081538
v 0.537151 4.597191 0.081538
v -0.243480 4.239853 0.081538
v 2.238731 3.241667 0.081538
v 2.489057 3.627180 0.081538
v 1.433124 2.945957 2.597014
v 1.433124 2.945957 2.597014
v 1.433124 2.945957 2.597014
v 1.433124 2.945957 2.597014
v 1.433124 2.945957 2.597014
v 1.433124 2.945957 2.597014
v 1.116705 1.756397 2.611244
v 1.116705 1.756397 2.611244
v 1.116705 1.756397 2.611244
v 1.116705 1.756397 2.611244
v -0.227860 1.917691 2.612145
v -0.227860 1.917691 2.612145
v -0.227860 1.917691 2.612145
v -0.227860 1.917691 2.612145
v 0.697731 1.884439 2.616808
v 0.697731 1.884439 2.616808
v 0.697731 1.884439 2.616808
v 0.106415 3.878222 2.623155
v 0.106415 3.878222 2.623155
v 0.106415 3.878222 2.623155
v 0.106415 3.878222 2.623155
v 0.106415 3.878222 2.623155
v 1.229703 4.179792 2.626016
v 1.229703 4.179792 2.626016
v 1.229703 4.179792 2.626016
v 2.020100 2.941534 2.641595
v 2.020100 2.941534 2.641595
v 2.020100 2.941534 2.641595
v 2.020100 2.941534 2.641595
v 0.266739 4.129395 2.644435
v 0.266739 4.129395 2.644435
v 0.266739 4.129395 2.644435
v 0.266739 4.129395 2.644435
v 1.579146 4.177159 2.652556
v 1.579146 4.177159 2.652556
v 1.579146 4.177159 2.652556
v 1.579146 4.177159 2.652556
v 1.872311 3.857436 2.663368
v 1.872311 3.857436 2.663368
v 1.872311 3.857436 2.663368
v 1.872311 3.857436 2.663368
v 1.814256 4.059435 2.666230
v 1.814256 4.059435 2.666230
v 1.814256 4.059435 2.666230
v 1.814256 4.059435 2.666230
v 0.721656 4.288362 2.698957
v 0.721656 4.288362 2.698957
v 0.721656 4.288362 2.698957
v 0.721656 4.288362 2.698957
v 1.247807 4.005592 2.845189
v 1.247807 4.005592 2.845189
v 1.247807 4.005592 2.845189
v 1.247807 4.005592 2.845189
v 1.438862 3.191132 2.851836
v 1.438862 3.191132 2.851836
v 1.438862 3.191132 2.851836
v 1.438862 3.191132 2.851836
v 1.438862 3.191132 2.851836
v 1.440646 3.562577 2.865371
v 1.440646 3.562577 2.865371
v 1.440646 3.562577 2.865371
v 1.568375 3.775303 2.882780
v 1.568375 3.775303 2.882780
v 1.568375 3.775303 2.882780
v 1.568375 3.775303 2.882780
v 1.568375 3.775303 2.882780
v 1.605389 4.092538 2.897045
v 1.605389 4.092538 2.897045
v 1.605389 4.092538 2.897045
v 1.605389 4.092538 2.897045
v 2.240194 3.185093 2.912697
v 2.240194 3.185093 2.912697
v 2.240194 3.185093 2.912697
v 2.240194 3.185093 2.912697
v 0.768912 4.114721 2.914191
v 0.768912 4.114721 2.914191
v 0.768912 4.114721 2.914191
v 0.768912 4.114721 2.914191
v 0.768912 4.114721 2.914191
v -0.129806 1.966874 2.919679
v -0.129806 1.966874 2.919679
v -0.129806 1.966874 2.919679
v 2.176017 3.694292 2.926232
v 2.176017 3.694292 2.926232
v 2.176017 3.694292 2.926232
v 2.176017 3.694292 2.926232
v 0.943781 2.001111 2.992833
v 0.943781 2.001111 2.992833
v 0.943781 2.001111 2.992833
v 0.943781 2.001111 2.992833
v 1.698492 3.042613 3.044605
v 1.698492 3.042613 3.044605
v 1.698492 3.042613 3.044605
v 0.392687 1.972259 3.070734
v 0.392687 1.972259 3.070734
v 0.392687 1.972259 3.070734
v 1.998481 3.062469 3.261751
v 1.998481 3.062469 3.261751
v 1.998481 3.062469 3.261751
v 1.724958 3.099666 3.344665
v 1.724958 3.099666 3.344665
v 1.724958 3.099666 3.344665
v 1.724958 3.099666 3.344665
v 1.586157 3.233051 3.373595
v 1.586157 3.233051 3.373595
v 1.586157 3.233051 3.373595
v 1.586157 3.233051 3.373595
v 1.586157 3.233051 3.373595
v 2.066562 3.230245 3.433538
v 2.066562 3.230245 3.433538
v 2.066562 3.230245 3.433538
v 2.066562 3.230245 3.433538
v 2.106742 3.514783 3.438435
v 2.106742 3.514783 3.438435
v 2.106742 3.514783 3.438435
v 1.793039 3.267442 3.516452
v 1.793039 3.267442 3.516452
v 1.793039 3.267442 3.516452
v 1.793039 3.267442 3.516452
v 1.787970 3.513975 3.532907
v 1.787970 3.513975 3.532907
v 1.787970 3.513975 3.532907
v 1.787970 3.513975 3.532907
v 4.764100 -4.234505 0.000000
v 4.764100 -4.234505 0.000000
v 4.228205 -4.376928 0.001372
v 3.670955 -4.597191 0.002205
v 3.670955 -4.597191 0.002205
v 5.102682 -3.568810 0.003863
v 5.102682 -3.568810 0.003863
v 3.195362 -4.316479 0.006767
v 3.195362 -4.316479 0.006767
v 2.930957 -4.272096 0.008385
v 2.930957 -4.272096 0.008385
v 5.063399 -2.807555 0.010302
v 5.063399 -2.807555 0.010302
v 2.494735 -3.706721 0.015098
v 2.494735 -3.706721 0.015098
v 4.389328 -1.747181 0.022209
v 4.389328 -1.747181 0.022209
v 1.895398 -2.382999 0.028813
v 1.895398 -2.382999 0.028813
v 3.586952 -1.389081 0.028955
v 3.586952 -1.389081 0.028955
v 3.586952 -1.389081 0.028955
v 4.585260 -4.185638 1.895171
v 4.585260 -4.185638 1.895171
v 4.190319 -4.316512 1.917714
v 3.790417 -4.417096 1.947950
v 3.790417 -4.417096 1.947950
v 4.846301 -3.672399 1.979296
v 4.846301 -3.672399 1.979296
v 4.846301 -3.672399 1.979296
v 3.524720 -4.248066 2.022770
v 3.524720 -4.248066 2.022770
v 3.304281 -4.225561 2.057525
v 3.304281 -4.225561 2.057525
v 4.829584 -3.143733 2.104213
v 4.829584 -3.143733 2.104213
v 4.829584 -3.143733 2.104213
v 3.875670 -4.503558 2.591572
v 3.875670 -4.503558 2.591572
v 3.875670 -4.503558 2.591572
v 3.875670 -4.503558 2.591572
v 3.634348 -4.357498 2.712267
v 3.634348 -4.357498 2.712267
v 3.634348 -4.357498 2.712267
v 3.634348 -4.357498 2.712267
v 3.634348 -4.357498 2.712267
v 2.762073 -3.566797 2.869268
v 2.762073 -3.566797 2.869268
v 2.762073 -3.566797 2.869268
v 2.762073 -3.566797 2.869268
v 3.970623 -4.218865 2.910461
v 3.970623 -4.218865 2.910461
v 3.970623 -4.218865 2.910461
v 4.311611 -4.274006 2.910486
v 4.311611 -4.274006 2.910486
v 4.311611 -4.274006 2.910486
v 4.311611 -4.274006 2.910486
v 4.311611 -4.274006 2.910486
v 4.311611 -4.274006 2.910486
v 4.358084 -3.973571 2.922554
v 4.358084 -3.973571 2.922554
v 3.958085 -4.419963 2.935555
v 3.958085 -4.419963 2.935555
v 3.958085 -4.419963 2.935555
v 4.558022 -3.989868 2.991825
v 4.558022 -3.989868 2.991825
v 4.558022 -3.989868 2.991825
v 4.460593 -3.612168 2.992684
v 4.460593 -3.612168 2.992684
v 3.778940 -4.344401 2.996399
v 3.778940 -4.344401 2.996399
v 3.778940 -4.344401 2.996399
v 4.636969 -3.649697 3.043294
v 4.636969 -3.649697 3.043294
v 4.660419 -2.582116 3.214390
v 4.660419 -2.582116 3.214390
v 4.660419 -2.582116 3.214390
v 4.660419 -2.582116 3.214390
v 2.989408 -3.629539 3.253080
v 2.989408 -3.629539 3.253080
v 2.989408 -3.629539 3.253080
v 4.459877 -2.332964 3.299073
v 4.459877 -2.332964 3.299073
v 4.459877 -2.332964 3.299073
v 4.459877 -2.332964 3.299073
v 4.459877 -2.332964 3.299073
v 3.990826 -2.378763 3.351286
v 3.990826 -2.378763 3.351286
v 3.990826 -2.378763 3.351286
v 2.703865 -3.088224 3.359075
v 2.703865 -3.088224 3.359075
v 2.703865 -3.088224 3.359075
v 2.703865 -3.088224 3.359075
v 2.703865 -3.088224 3.359075
vn -0.3822 0.1777 0.9068
vn -0.4293 0.1040 0.8972
vn -0.4145 -0.0419 0.9091
vn -0.4460 -0.0652 0.8926
vn -0.3667 -0.2133 0.9056
vn -0.3909 -0.1864 0.9014
vn 0.2404 0.0613 0.9687
vn 0.2490 0.0176 0.9684
vn 0.2220 0.1478 0.9638
vn 0.2247 0.1438 0.9638
vn 0.3871 0.8232 0.4153
vn -0.5579 -0.7334 0.3884
vn -0.5580 -0.7334 0.3883
vn -0.5581 -0.7334 0.3882
vn 0.2443 -0.7517 0.6125
vn 0.2445 -0.7517 0.6125
vn 0.2444 -0.7517 0.6125
vn 0.2445 -0.7518 0.6125
vn 0.7455 0.5287 0.4058
vn 0.8018 -0.3147 0.5081
vn 0.8017 -0.3147 0.5081
vn 0.8019 -0.3146 0.5079
vn -0.2960 0.8777 0.3769
vn -0.3237 0.8818 0.3429
vn -0.3509 0.8843 0.3082
vn -0.8632 0.4324 0.2605
vn -0.8639 0.4523 0.2218
vn -0.8639 0.4520 0.2222
vn -0.8629 0.4713 0.1826
vn -0.4702 -0.8671 0.1645
vn -0.4701 -0.8672 0.1645
vn 0.3400 -0.9356 0.0951
vn 0.7960 0.6053 -0.0000
vn 0.4837 0.8752 -0.0000
vn -0.8207 -0.5148 0.2477
vn -0.8208 -0.5148 0.2477
vn -0.1316 0.9861 0.1013
vn -0.1315 0.9861 0.1012
vn -0.0754 0.9959 0.0508
vn -0.0753 0.9959 0.0507
vn -0.5914 0.7846 0.1863
vn -0.5915 0.7844 0.1864
vn -0.0751 0.4286 0.9004
vn -0.0751 0.4285 0.9004
vn -0.0751 0.4284 0.9005
vn -0.0186 0.9998 -0.0000
vn 0.6045 -0.0704 0.7935
vn 0.6046 -0.0704 0.7934
vn 0.6046 -0.0705 0.7934
vn 0.8797 0.3593 0.3113
vn 0.8798 0.3593 0.3113
vn 0.9439 -0.3219 0.0741
vn 0.9397 -0.3374 0.0551
vn 0.9223 -0.3615 0.1364
vn 0.9436 -0.3123 0.1098
vn -0.5352 0.8444 0.0255
vn -0.5351 0.8444 0.0255
vn -0.5352 0.8444 0.0256
vn 0.3811 0.8726 0.3056
vn -0.0770 0.9963 0.0388
vn 0.8405 0.5417 0.0128
vn 0.4382 0.8988 0.0106
vn -0.0360 0.9128 0.4069
vn 0.8370 0.4089 0.3636
vn 0.0416 0.8993 0.4353
vn 0.0419 0.8993 0.4354
vn 0.0417 0.8993 0.4354
vn -0.5661 0.7491 0.3441
vn -0.5662 0.7491 0.3440
vn 0.4269 0.8090 0.4040
vn 0.9821 -0.1823 0.0485
vn 0.9404 -0.3196 0.1165
vn 0.9682 -0.2369 0.0804
vn 0.9438 -0.3221 0.0740
vn 0.9529 -0.0717 0.2946
vn 0.9529 -0.0715 0.2946
vn 0.9529 -0.0718 0.2946
vn 0.8594 -0.4765 0.1855
vn 0.9223 -0.3616 0.1364
vn 0.2668 -0.1049 0.9580
vn -0.6729 0.5590 0.4845
vn 0.9439 -0.3220 0.0740
vn 0.9324 -0.3615 -0.0000
vn 0.9397 -0.3375 0.0550
vn -0.7282 0.5187 0.4480
vn -0.7726 -0.1618 0.6139
vn -0.8070 -0.5819 0.1013
vn -0.9250 0.0576 0.3755
vn -0.9010 -0.3462 0.2614
vn 0.0447 -0.2720 0.9613
vn 0.7055 -0.1275 0.6972
vn 0.7571 -0.0992 0.6458
vn 0.7840 -0.0957 0.6134
vn 0.8228 -0.0970 0.5599
vn 0.8316 -0.1103 0.5442
vn 0.8293 -0.1324 0.5428
vn -0.0916 0.9252 0.3682
vn -0.1356 0.9056 0.4019
vn -0.1355 0.9056 0.4019
vn -0.1790 0.8828 0.4342
vn 0.4158 0.4605 0.7842
vn 0.4158 0.4606 0.7842
vn 0.4158 0.4607 0.7841
vn 0.1659 -0.8397 -0.5170
vn 0.1659 -0.8397 -0.5171
vn 0.4132 0.6735 0.6129
vn 0.3911 0.6656 0.6356
vn 0.3143 0.6827 0.6596
vn 0.4048 0.6507 0.6425
vn 0.3513 0.6759 0.6479
vn -0.9079 -0.1052 -0.4058
vn 0.1911 0.6718 0.7157
vn 0.2425 0.6887 0.6833
vn 0.2930 0.7028 0.6483
vn -0.7379 0.6596 0.1430
vn -0.7013 0.6748 0.2298
vn -0.6160 -0.6366 -0.4640
vn -0.6159 -0.6367 -0.4639
vn -0.6158 -0.6368 -0.4639
vn -0.7677 0.6384 0.0550
vn -0.9638 -0.0509 -0.2616
vn -0.0277 -0.9335 -0.3576
vn 0.2762 -0.9228 -0.2687
vn -0.3455 -0.4700 0.8122
vn -0.8781 0.4784 0.0028
vn -0.9630 -0.2491 -0.1034
vn -0.3400 -0.8761 0.3418
vn 0.3306 -0.3122 0.8906
vn -0.3106 -0.1990 0.9295
vn -0.0286 0.1156 0.9929
vn -0.4720 -0.1803 0.8630
vn 0.4656 0.3174 0.8261
vn 0.4657 0.3175 0.8260
vn -0.9663 -0.2566 -0.0214
vn -0.9663 -0.2565 -0.0215
vn -0.9663 -0.2564 -0.0216
vn -0.3284 0.9427 0.0583
vn -0.2624 0.9632 0.0584
vn -0.2793 0.9551 0.0993
vn -0.2542 0.9597 0.1197
vn -0.3115 0.9330 0.1804
vn 0.6576 0.2829 0.6983
vn 0.6576 0.2830 0.6982
vn 0.5148 -0.8401 0.1708
vn 0.4338 -0.8769 0.2070
vn 0.4700 -0.8545 0.2212
vn 0.3014 -0.9086 0.2893
vn 0.3014 -0.9085 0.2894
vn 0.2265 -0.9391 0.2585
vn -0.3888 -0.9057 0.1688
vn -0.3887 -0.9058 0.1687
vn -0.3886 -0.9058 0.1686
vn 0.1104 0.8731 0.4749
vn 0.1350 0.8667 0.4801
vn 0.1338 0.8498 0.5099
vn 0.1453 0.8372 0.5272
vn 0.1308 0.8129 0.5675
vn -0.8840 -0.0879 0.4592
vn -0.8839 -0.0877 0.4593
vn -0.8839 -0.0879 0.4593
vn -0.9051 -0.3969 0.1527
vn -0.9050 -0.3970 0.1527
vn -0.9050 -0.3971 0.1526
vn 0.9272 0.2949 0.2308
vn 0.9279 0.3013 0.2193
vn -0.5551 0.1519 0.8178
vn -0.5552 0.1520 0.8178
vn -0.5552 0.1520 0.8177
vn 0.0956 0.3217 0.9420
vn 0.0957 0.3218 0.9420
vn -0.9724 0.0442 0.2290
vn -0.9724 0.0441 0.2290
vn -0.9724 0.0440 0.2290
vn 0.3230 0.8759 0.3584
vn 0.3412 0.8986 0.2758
vn -0.3588 0.8567 0.3707
vn -0.3587 0.8567 0.3707
vn -0.3073 0.9075 0.2863
vn -0.7806 0.5533 0.2908
vn -0.7805 0.5534 0.2908
vn 0.9285 0.3077 0.2079
vn 0.9285 0.3078 0.2079
vn 0.9279 0.3014 0.2193
vn 0.9273 0.2948 0.2309
vn 0.9413 -0.0187 0.3370
vn -0.4057 0.7953 0.4505
vn -0.5584 0.7454 0.3640
vn -0.1767 0.9302 0.3218
vn 0.3023 0.8464 0.4384
vn 0.5814 0.6293 0.5158
vn 0.3784 0.4415 0.8136
vn -0.4449 0.7974 0.4077
vn -0.0159 0.6442 0.7647
vn -0.1001 -0.6605 0.7441
vn 0.4700 -0.8545 0.2210
vn 0.5391 -0.8050 0.2475
vn 0.5149 -0.8401 0.1709
vn -0.4545 0.2260 0.8616
vn 0.4526 -0.3059 0.8376
vn -0.1978 -0.7049 0.6812
vn -0.0255 -0.2848 0.9583
vn 0.0580 0.0642 0.9962
vn 0.2832 -0.0572 0.9574
vn 0.2833 -0.0573 0.9573
vn 0.2831 -0.0571 0.9574
vn 0.2832 -0.0571 0.9574
vn 0.0997 0.9346 0.3416
vn 0.0995 0.9345 0.3417
vn 0.0931 0.9129 0.3973
vn 0.0861 0.8880 0.4517
vn 0.9725 0.0239 0.2317
vn 0.9725 0.0240 0.2318
vn 0.9805 0.1306 0.1469
vn 0.9828 0.0731 0.1695
vn 0.7380 -0.6051 0.2985
vn 0.6884 -0.6860 0.2357
vn 0.6883 -0.6860 0.2357
vn 0.6297 -0.7580 0.1698
vn 0.1046 -0.7319 0.6734
vn -0.8065 0.3861 0.4477
vn -0.7852 0.4354 0.4403
vn -0.8254 0.3356 0.4539
vn -0.8065 0.3861 0.4478
vn -0.6224 -0.7506 0.2220
vn -0.6223 -0.7506 0.2220
vn -0.0725 -0.9791 0.1898
vn -0.0729 -0.9791 0.1896
vn -0.0485 -0.9771 0.2074
vn -0.0244 -0.9741 0.2248
vn 0.0851 -0.9660 0.2441
vn 0.0241 -0.9782 0.2062
vn -0.0572 -0.9857 0.1583
vn -0.0370 -0.9852 0.1671
vn -0.0422 -0.9897 0.1369
vn 0.9805 0.1307 0.1468
vn 0.9829 0.0731 0.1692
vn 0.9645 0.2442 0.1004
vn 0.9776 0.1832 0.1033
vn -0.2769 0.1183 0.9536
vn -0.3971 0.1769 0.9006
vn -0.3659 0.1555 0.9176
vn -0.4540 0.2048 0.8671
vn 0.2541 0.7733 0.5809
vn 0.2541 0.7733 0.5810
vn 0.1448 0.0487 0.9883
vn 0.1447 0.0488 0.9883
vn 0.0045 0.0129 0.9999
vn 0.1382 0.0439 0.9894
vn 0.0049 0.0157 0.9999
vn 0.1318 0.0389 0.9905
vn 0.8033 -0.5954 -0.0123
vn 0.6597 0.0018 0.7515
vn 0.6597 0.0019 0.7516
vn 0.6596 0.0020 0.7516
vn 0.8621 -0.2659 0.4313
vn 0.8622 -0.2659 0.4312
vn 0.8623 -0.2659 0.4310
vn -0.1568 0.8560 0.4927
vn -0.1567 0.8559 0.4928
vn -0.1566 0.8559 0.4929
vn 0.4015 0.9020 0.1590
vn 0.3778 0.9239 0.0602
vn -0.3872 0.9134 0.1259
vn -0.3872 0.9133 0.1259
vn 0.1071 0.9892 0.1004
vn 0.1072 0.9892 0.1001
vn 0.2130 0.9718 0.1015
vn 0.2129 0.9718 0.1015
vn -0.0474 -0.9932 0.1065
vn -0.0574 -0.9857 0.1582
vn -0.1383 -0.9844 0.1088
vn -0.2281 -0.9674 0.1103
vn -0.2280 -0.9674 0.1103
vn -0.9800 0.1078 0.1672
vn -0.9800 0.1077 0.1672
vn -0.9970 0.0538 0.0555
vn -0.9970 0.0537 0.0556
vn -0.1294 -0.0183 0.9914
vn -0.0000 0.9952 0.0983
vn 0.0014 -0.9932 -0.1163
vn 0.9664 -0.2571 0.0005
vn 0.9414 0.2676 0.2054
vn 0.3786 0.9162 0.1312
vn -0.8350 0.5170 0.1885
vn 0.8092 -0.5547 0.1939
vn -0.6806 -0.5202 0.5159
vn -0.2577 -0.8622 0.4361
vn -0.9800 0.1078 0.1675
vn -0.9476 0.1600 0.2765
vn -0.4568 0.2185 0.8623
vn -0.3213 0.7013 0.6363
vn 0.4015 0.9019 0.1591
vn 0.4209 0.8702 0.2560
vn 0.0043 0.0129 0.9999
vn -0.1294 -0.0182 0.9914
vn -0.1366 -0.0286 0.9902
vn -0.9623 -0.0053 0.2721
vn -0.3998 -0.5715 0.7166
vn -0.5594 -0.0667 0.8262
vn -0.4734 0.8291 0.2975
vn 0.3210 -0.0161 0.9469
vn 0.3448 0.0286 0.9382
vn 0.2791 0.0574 0.9585
vn 0.2574 0.0941 0.9617
vn 0.1435 0.1137 0.9831
vn 0.1435 0.1136 0.9831
vn 0.9320 0.3598 0.0442
vn 0.8879 0.4463 0.1116
vn 0.8314 0.5265 0.1774
vn 0.1205 -0.2312 0.9654
vn 0.1253 -0.2310 0.9648
vn 0.1278 -0.2302 0.9647
vn 0.1314 -0.2297 0.9643
vn 0.1284 -0.2358 0.9633
vn 0.1238 -0.2430 0.9621
vn 0.9833 -0.0496 0.1749
vn 0.9766 -0.1051 0.1878
vn 0.9864 -0.0113 0.1639
vn 0.9492 -0.2492 0.1920
vn 0.9822 -0.0784 0.1708
vn -0.2958 -0.1106 0.9488
vn -0.3081 -0.1032 0.9457
vn -0.2519 -0.0618 0.9658
vn -0.2325 -0.0540 0.9711
vn -0.1296 -0.0198 0.9914
vn -0.6002 -0.7460 0.2884
vn -0.6594 -0.7311 0.1754
vn -0.5738 -0.7510 0.3266
vn -0.6158 -0.7469 0.2508
vn -0.3202 -0.9248 0.2056
vn -0.3497 -0.9015 0.2549
vn -0.3497 -0.9015 0.2548
vn -0.3779 -0.8748 0.3031
vn 0.3894 -0.9207 0.0279
vn 0.3545 -0.9350 -0.0108
vn 0.3646 -0.9309 0.0193
vn 0.3268 -0.9451 0.0061
vn 0.2987 -0.9541 0.0229
vn 0.3008 -0.9525 0.0479
vn 0.2825 -0.9583 0.0435
vn -0.9201 -0.3709 0.1262
vn -0.9201 -0.3709 0.1261
vn -0.6594 -0.7310 0.1752
vn -0.7124 -0.6868 0.1442
vn -0.7443 -0.6554 0.1285
vn -0.7811 -0.6045 0.1560
vn -0.1219 -0.9831 -0.1366
vn -0.1279 -0.9909 -0.0430
vn -0.1327 -0.9898 0.0509
vn -0.5397 -0.8407 -0.0446
vn -0.5396 -0.8407 -0.0446
vn -0.5249 -0.8505 0.0334
vn -0.5249 -0.8505 0.0333
vn -0.5068 -0.8549 0.1110
vn 0.8744 -0.4639 0.1424
vn 0.8847 -0.4569 0.0930
vn 0.8846 -0.4569 0.0930
vn 0.9920 0.0305 0.1228
vn 0.3189 -0.9463 0.0522
vn -0.3012 -0.1444 0.9426
vn 0.8618 -0.4697 0.1914
vn 0.4039 0.9020 0.1526
vn -0.0607 0.9546 0.2917
vn 0.7542 -0.6566 0.0089
vn 0.7213 0.6560 -0.2220
vn 0.3893 -0.9207 0.0281
vn 0.3646 -0.9309 0.0195
vn 0.3862 -0.9133 0.1294
vn -0.7834 -0.4885 0.3842
vn -0.1296 -0.0199 0.9914
vt 0.688052 0.831881
vt 0.580277 0.822762
vt 0.672155 0.739416
vt 0.562973 0.709914
vt 0.652738 0.626035
vt 0.578251 0.655809
vt 0.804839 0.749093
vt 0.781320 0.796654
vt 0.698446 0.936272
vt 0.630756 0.935151
vt 0.659959 0.813276
vt 0.589914 0.833555
vt 0.329522 0.520975
vt 0.261810 0.494044
vt 0.374525 0.430208
vt 0.298657 0.401607
vt 0.387469 0.538507
vt 0.454874 0.435438
vt 0.833486 0.828444
vt 0.888763 0.739868
vt 0.651741 0.773558
vt 0.650598 0.620140
vt 0.787928 0.798495
vt 0.851583 0.656326
vt 0.787950 0.897146
vt 0.793774 0.746782
vt 0.870454 0.719885
vt 0.786426 0.653339
vt 0.922396 0.730400
vt 0.828805 0.697157
vt 0.846097 0.061760
vt 0.554277 0.061760
vt 1.068670 0.706969
vt 1.069354 0.061760
vt 0.617917 0.557176
vt 0.478854 0.557176
vt 0.617917 0.417833
vt 0.478854 0.382982
vt 0.585657 0.686624
vt 0.654637 0.629596
vt 0.340684 0.554915
vt 0.297038 0.061760
vt -0.000460 0.323896
vt -0.000460 0.554915
vt 0.643839 0.896517
vt 0.647658 0.785401
vt 0.810629 0.889367
vt 0.781519 0.798895
vt -0.276377 0.518098
vt -0.276377 0.323896
vt 0.495119 0.856293
vt 0.531182 0.741108
vt 0.646042 0.694610
vt 0.552058 0.666860
vt 1.283880 0.518098
vt 1.287935 0.061760
vt 0.909170 0.592221
vt 0.742811 0.588066
vt 0.909170 0.357478
vt 0.759435 0.357478
vt 0.755386 0.719720
vt 0.663698 0.538364
vt 0.680584 0.357478
vt 0.473517 0.546102
vt 0.372172 0.509171
vt 0.473517 0.357478
vt 0.367260 0.328285
vt -0.200263 0.061760
vt 0.055890 0.061760
vt 0.442289 0.040619
vt 0.534364 0.040619
vt 0.659717 0.040619
vt 0.691623 0.040619
vt 0.769103 0.040619
vt 0.329373 0.328285
vt 0.335953 0.558873
vt 0.225982 0.592221
vt 0.415307 0.040619
vt 0.302527 0.040619
vt 0.740476 0.632450
vt 0.874099 0.418351
vt 0.905390 0.673443
vt 0.108404 0.275268
vt 0.135520 0.329773
vt 0.669461 0.571208
vt 0.694655 0.810210
vt 0.603086 0.805675
vt 0.746414 0.822213
vt 0.468173 0.954193
vt 0.294664 0.908972
vt 0.482360 0.790690
vt 0.314182 0.734717
vt 0.504454 0.560810
vt 0.263657 0.098652
vt 0.572965 0.004261
vt 0.682533 0.905272
vt 0.647914 0.771120
vt 0.703251 0.744545
vt 0.664367 0.548893
vt 0.559431 0.938940
vt 0.532511 0.777046
vt 0.380128 0.704791
vt 0.433273 0.700100
vt 0.355697 0.531156
vt 0.467664 0.518710
vt 0.496742 0.548893
vt 0.424692 -0.007209
vt 0.730103 0.040779
vt 0.672230 0.656257
vt 0.703251 0.467512
vt 0.433273 0.656566
vt 0.467664 0.475177
vt 0.722356 0.548893
vt 0.835759 0.067301
vt 0.454603 0.501248
vt 0.294525 0.380939
vt 0.304823 0.111558
vt 0.086288 0.048974
vt 0.667312 0.483492
vt 0.396443 0.017379
vt 0.719493 0.067987
vt 0.365161 0.508419
vt 0.835703 -0.007465
vt 0.396443 0.060913
vt 0.396443 0.128193
vt 0.148576 -0.005081
vt 0.355697 0.598436
vt 0.385330 0.673080
vt 0.353291 0.376418
vt 0.436767 0.409327
vt 0.682533 0.628239
vt 0.433273 0.933599
vt 0.484501 0.992791
vt 0.672230 0.933290
vt 0.433273 0.767379
vt 0.380128 0.772070
vt 0.484501 0.826571
vt 0.380128 0.938290
vt 0.397640 0.382492
vt 0.348015 0.471234
vt 0.375180 0.375439
vt 0.325555 0.464181
vt 0.438152 0.393548
vt 0.408728 0.498271
vt 0.653772 0.892310
vt 0.534841 0.889258
vt 0.670665 0.764787
vt 0.509175 0.761711
vt 0.775012 0.976685
vt 0.752288 0.985975
vt 0.765512 0.850083
vt 0.679663 0.918195
vt 0.588768 0.757522
vt 0.362485 0.900327
vt 0.366364 0.730135
vt 0.479841 0.888001
vt 0.503170 0.658598
vt 0.769683 0.705149
vt 0.777205 0.636067
vt 1.014763 0.634451
vt 0.714396 0.604963
vt 1.000671 0.603849
vt 1.039939 0.094284
vt 0.714264 0.872312
vt 0.712999 0.771908
vt 0.628024 0.949869
vt 0.518605 0.768522
vt 0.527499 0.708407
vt 0.694447 0.643885
vt 0.548519 0.629360
vt 0.517054 0.551199
vt 0.546284 0.091357
vt 0.758770 0.091357
vt 1.231249 0.595544
vt 1.310561 0.556613
vt 1.237157 0.094284
vt 0.451972 0.593542
vt 0.327296 0.573686
vt 0.376585 0.531471
vt 0.365152 0.550006
vt 0.477899 0.573134
vt 0.318293 0.654657
vt 0.415921 0.694694
vt 0.384243 0.094284
vt 0.177899 0.396506
vt 0.072278 0.399165
vt 0.160417 0.094284
vt 0.063802 0.094284
vt 0.318922 0.342271
vt 0.300249 0.094284
vt -0.082943 0.556613
vt -0.156348 0.094284
vt 0.182011 0.550978
vt 0.530078 0.596484
vt 0.712427 0.782482
vt 0.330705 0.918920
vt 0.459253 0.478067
vt 0.431771 0.339484
vt 0.488530 0.385540
vt 0.618373 0.707224
vt 0.663262 0.660357
vt 0.689131 0.738302
vt 0.730703 0.679818
vt 0.397032 0.744895
vt 0.293514 0.714713
vt 0.471618 0.518302
vt 0.273235 0.538163
vt 0.375164 0.441184
vt 0.465019 0.933908
vt 0.379445 0.942375
vt 0.499747 0.775375
vt 0.356489 0.778374
vt 0.318314 0.901807
vt 0.257805 0.722766
vt 0.677901 0.591849
vt 0.745341 0.611310
vt 0.523142 0.616790
vt 0.623351 0.600691
vt 0.532492 0.556618
vt 0.682142 0.528629
vt 0.598030 0.486472
vt 0.771617 0.491195
vt 0.640275 0.399374
vt 0.570649 0.463049
vt 0.489995 0.437908
vt 0.546901 0.385485
vt 0.410932 0.399146
vt 0.401786 0.352860
vt -0.192785 0.621158
vt -0.323202 0.618495
vt -0.162128 0.061292
vt -0.238018 0.061292
vt 0.434360 0.401255
vt 0.480463 1.048089
vt 0.276285 0.386942
vt 0.283698 0.964137
vt 1.140948 1.003226
vt 1.007265 0.993820
vt 1.158306 0.932723
vt 1.016781 0.922173
vt 0.622717 1.031683
vt 0.593752 0.427928
vt 0.692593 0.906328
vt 0.702150 0.796908
vt -0.396549 0.565139
vt -0.308073 0.061292
vt 0.915437 0.998408
vt 0.912314 1.022964
vt 0.855502 0.941497
vt 0.831683 0.958498
vt 0.122129 0.920463
vt 0.083628 0.782171
vt 0.522378 0.920724
vt 0.460568 0.830560
vt 0.923214 0.928224
vt -0.064586 0.569987
vt 0.001172 0.567296
vt 0.075700 0.061292
vt 0.322593 0.565698
vt 0.213831 0.576428
vt 0.378350 0.061292
vt 0.228554 0.061292
vt 0.089636 0.562073
vt 0.807754 0.559343
vt 0.847739 0.061292
vt 0.966460 0.560260
vt 0.950338 0.061292
vt 1.070840 0.559165
vt 1.058514 0.061292
vt 0.388530 0.561510
vt 0.724730 0.972617
vt 1.599660 0.061292
vt 1.511183 0.565139
vt 1.447068 0.556365
vt -0.109621 0.569424
vt 0.625938 0.368861
vt 0.984851 0.827326
vt 0.958897 0.872915
vt 0.407741 0.844450
vt 0.698592 0.373947
vt 0.542867 0.380074
vt 0.666653 0.335745
vt 1.273291 0.934109
vt 0.422002 0.374927
vt 0.336437 0.412043
vt 0.336743 0.364503
vt -0.113069 0.570613
vt 0.032614 0.084152
vt 0.442357 0.571754
vt 0.329016 0.084132
vt 0.753600 0.995153
vt 0.746632 0.829791
vt 0.891542 0.554596
vt 0.831535 0.553459
vt 0.963196 0.496487
vt 0.862262 0.510632
vt -0.182066 0.562968
vt -0.349928 0.388015
vt -0.100243 0.083165
vt -0.295724 0.081421
vt 1.272113 0.847286
vt 1.259748 0.933532
vt 1.086498 0.631095
vt 1.145676 0.986818
vt 1.013963 0.559756
vt 1.232155 0.550569
vt 1.029353 0.525517
vt 1.125793 0.388015
vt 0.974909 0.517980
vt 1.042584 0.369724
vt 1.122978 0.600275
vt 1.058943 0.531167
vt 0.982043 0.948004
vt 0.999133 0.835535
vt 0.698100 0.951933
vt 0.694119 0.873130
vt 0.653169 0.946868
vt 0.620816 0.858844
vt 0.840729 0.459375
vt 0.830739 0.365134
vt 0.916110 0.506071
vt 0.896393 0.360707
vt 0.956852 0.357406
vt 0.897236 0.080113
vt 0.970019 0.079913
vt 0.569754 0.500035
vt 0.559495 0.082123
vt 0.806551 0.477047
vt 0.746522 0.381179
vt 0.685159 0.081140
vt 0.788139 0.376090
vt 0.730354 0.080903
vt 0.808410 0.080236
vt 1.071316 0.080478
vt 1.179997 0.081421
vt 0.770337 0.681783
vt 1.086939 0.932825
vt 0.998100 0.932825
vt 0.637932 0.602641
vt 0.786278 0.667644
vt 0.672033 0.679077
vt 1.149887 0.932825
s 1
usemtl material1
f 157/1/1 135/2/2 161/3/3
f 131/4/4 161/3/3 135/2/2
f 161/3/3 131/4/4 150/5/5
f 133/6/6 150/5/5 131/4/4
f 160/3/7 142/7/8 158/1/9
f 144/8/10 158/1/9 142/7/8
f 156/9/11 147/10/11 116/11/11
f 115/12/11 116/11/11 147/10/11
f 149/13/12 139/14/13 130/15/13
f 106/16/14 130/15/13 139/14/13
f 152/13/15 127/15/16 148/17/17
f 122/18/18 148/17/17 127/15/16
f 146/8/19 145/7/19 120/19/19
f 112/20/19 120/19/19 145/7/19
f 153/21/20 123/22/21 143/23/22
f 119/24/20 143/23/22 123/22/21
f 159/9/23 111/11/24 138/25/24
f 103/26/25 138/25/24 111/11/24
f 134/25/26 102/26/27 96/27/28
f 94/28/29 96/27/28 102/26/27
f 129/29/30 107/30/30 14/31/31
f 13/32/31 14/31/31 107/30/30
f 128/29/32 6/31/32 126/33/32
f 5/34/32 126/33/32 6/31/32
s 0
f 118/35/33 117/36/33 83/37/33
s 1
f 71/38/33 83/37/33 117/36/33
s 0
f 114/12/34 95/39/34 113/11/34
f 74/40/34 113/11/34 95/39/34
s 1
f 109/30/35 86/41/35 10/32/35
f 7/42/36 10/32/35 86/41/35
f 104/26/37 110/11/38 88/28/39
f 78/40/40 88/28/39 110/11/38
f 42/43/41 2/42/41 93/44/42
f 92/41/42 93/44/42 2/42/41
f 91/45/43 79/46/44 73/47/44
f 65/48/45 73/47/44 79/46/44
f 72/49/40 33/50/46 89/44/40
f 32/43/46 89/44/40 33/50/46
f 87/45/47 75/51/48 81/46/49
f 63/52/49 81/46/49 75/51/48
f 80/46/50 62/52/51 61/53/51
f 53/54/51 61/53/51 62/52/51
f 76/55/52 125/33/53 9/56/54
f 8/34/55 9/56/54 125/33/53
f 69/57/56 67/58/57 47/59/56
f 46/60/58 47/59/56 67/58/57
f 82/46/59 60/53/59 68/48/59
f 56/61/59 68/48/59 60/53/59
f 57/62/60 35/63/60 66/58/60
f 34/60/60 66/58/60 35/63/60
f 58/64/61 54/65/61 37/66/61
f 27/67/61 37/66/61 54/65/61
f 59/64/62 43/66/62 55/62/62
f 38/63/62 55/62/62 43/66/62
f 36/50/63 12/68/63 51/43/63
f 11/69/63 51/43/63 12/68/63
s 0
f 28/67/64 21/70/64 50/66/64
f 20/71/64 50/66/64 21/70/64
s 1
f 49/63/65 19/72/66 48/60/67
f 18/73/66 48/60/67 19/72/66
f 45/60/68 23/73/69 44/59/68
f 22/74/68 44/59/68 23/73/69
f 39/63/70 40/66/70 16/72/70
f 15/71/70 16/72/70 40/66/70
f 31/67/71 52/65/71 26/75/72
f 64/76/73 26/75/72 52/65/71
f 26/75/72 64/76/73 77/77/74
f 30/75/75 25/78/76 29/67/77
f 4/70/76 29/67/77 25/78/76
f 24/78/78 26/75/72 17/79/79
f 77/77/74 17/79/79 26/75/72
f 142/7/8 160/3/7 155/80/80
s 0
f 1/69/81 3/42/81 41/43/81
s 1
f 70/81/82 121/24/83 124/22/84
s 0
f 84/82/85 98/27/85 85/28/85
f 90/83/86 105/16/86 97/84/86
f 99/84/87 108/16/87 140/14/87
f 100/85/88 136/86/88 137/87/88
f 101/85/89 141/88/89 132/86/89
s 1
f 151/80/90 162/3/90 154/5/90
f 230/89/91 214/90/91 209/91/92
f 193/92/93 209/91/92 214/90/91
f 209/91/92 193/92/93 186/93/94
f 176/94/95 186/93/94 193/92/93
f 186/93/94 176/94/95 168/95/96
f 221/96/97 207/97/98 196/98/99
f 180/99/100 196/98/99 207/97/98
f 231/100/101 211/101/102 220/96/102
f 208/97/103 220/96/102 211/101/102
f 213/102/104 204/103/105 192/104/105
f 181/105/105 192/104/105 204/103/105
f 206/97/106 187/106/107 179/99/108
f 163/107/109 179/99/108 187/106/107
f 179/99/108 163/107/109 167/108/110
f 226/109/111 199/110/111 203/111/111
f 184/112/111 203/111/111 199/110/111
f 201/98/112 179/99/108 177/113/113
f 167/108/110 177/113/113 179/99/108
f 177/113/113 167/108/110 169/114/114
f 189/115/115 178/116/115 171/117/116
f 170/118/116 171/117/116 178/116/115
f 182/112/117 190/119/117 173/120/118
f 172/121/119 173/120/118 190/119/117
f 187/106/107 206/97/106 210/101/106
f 178/116/115 189/115/115 197/122/120
s 0
f 164/123/121 166/121/121 188/119/121
f 165/124/122 195/104/122 185/105/122
f 174/125/123 175/126/123 194/127/123
f 183/128/124 198/129/124 191/130/124
f 200/110/125 224/109/125 223/131/125
f 202/132/126 219/133/126 228/134/126
f 205/135/127 212/136/127 216/137/127
f 215/138/128 229/100/128 217/133/128
f 218/133/129 232/100/129 227/134/129
f 222/96/130 225/134/130 233/100/130
f 352/139/131 351/140/131 346/141/131
f 343/142/131 346/141/131 351/140/131
s 1
f 353/139/132 338/143/133 350/140/133
f 321/144/133 350/140/133 338/143/133
f 345/145/134 344/146/135 317/147/135
f 305/148/136 317/147/135 344/146/135
f 342/149/137 349/150/138 303/151/139
f 322/152/140 303/151/139 349/150/138
f 303/151/139 322/152/140 284/153/141
f 335/154/142 307/155/143 330/156/142
f 295/157/143 330/156/142 307/155/143
f 324/158/144 313/159/145 308/160/146
f 298/161/147 308/160/146 313/159/145
f 308/160/146 298/161/147 296/162/148
f 238/163/149 296/162/148 298/161/147
f 347/145/150 315/147/151 323/164/151
f 312/165/152 323/164/151 315/147/151
f 320/152/153 332/166/154 285/153/155
f 294/167/156 285/153/155 332/166/154
f 285/153/155 294/167/156 275/168/157
f 318/169/158 304/170/159 301/161/160
f 274/171/160 301/161/160 304/170/159
f 272/171/161 236/172/162 299/161/162
f 234/173/163 299/161/162 236/172/162
f 293/174/164 244/163/164 276/175/165
f 240/176/165 276/175/165 244/163/164
f 291/177/166 283/178/167 273/171/166
f 262/179/168 273/171/166 283/178/167
f 290/180/169 288/181/170 281/182/170
f 269/183/170 281/182/170 288/181/170
f 263/179/171 242/184/172 270/171/171
f 237/172/173 270/171/171 242/184/172
f 255/185/174 258/186/174 250/187/175
f 249/188/175 250/187/175 258/186/174
f 252/189/176 256/185/177 248/190/178
f 247/187/178 248/190/178 256/185/177
f 251/189/179 246/190/180 261/179/180
f 245/184/180 261/179/180 246/190/180
f 257/186/181 277/191/165 243/188/182
f 241/192/183 243/188/182 277/191/165
f 244/163/164 293/174/164 311/160/184
f 238/163/149 298/161/147 235/173/149
s 0
f 239/163/185 310/160/185 297/162/185
s 1
f 252/189/176 265/193/186 256/185/177
s 0
f 253/189/187 260/179/187 282/178/187
f 254/189/188 280/178/188 267/193/188
s 1
f 255/185/174 266/193/189 258/186/174
s 0
f 259/186/190 268/193/190 279/191/190
f 264/183/191 287/181/191 278/194/191
f 271/171/192 302/170/192 292/177/192
s 1
f 286/153/193 289/195/193 306/151/193
s 0
f 300/161/194 314/159/194 316/169/194
s 1
f 309/155/195 333/154/196 328/196/197
s 0
f 319/144/198 340/143/198 331/197/198
f 325/198/199 337/143/199 354/139/199
f 326/198/200 355/139/200 348/141/200
s 1
f 327/198/201 336/199/201 341/143/201
s 0
f 329/197/202 339/143/202 334/199/202
s 1
f 500/200/203 496/201/204 490/202/205
f 487/203/206 490/202/205 496/201/204
f 497/204/207 492/205/208 442/206/209
f 461/207/209 442/206/209 492/205/208
f 442/206/209 461/207/209 417/208/210
f 491/209/211 489/210/212 460/211/213
f 451/212/214 460/211/213 489/210/212
f 488/210/215 474/213/216 450/212/217
f 406/214/218 450/212/217 474/213/216
f 493/201/219 478/215/219 486/203/219
s 0
f 476/216/219 486/203/219 478/215/219
s 1
f 498/200/220 441/217/221 481/218/222
f 437/219/223 481/218/222 441/217/221
f 477/215/224 485/218/224 468/220/225
f 433/221/224 468/220/225 485/218/224
f 475/216/226 479/215/227 403/222/228
f 469/220/228 403/222/228 479/215/227
f 403/222/228 469/220/228 382/223/229
f 464/224/230 471/225/231 392/226/232
f 457/227/233 392/226/232 471/225/231
f 392/226/232 457/227/233 390/228/234
f 463/229/235 448/230/236 373/231/237
f 367/232/238 373/231/237 448/230/236
f 473/233/239 454/234/240 458/235/241
f 397/236/242 458/235/241 454/234/240
f 456/237/243 427/238/243 423/239/244
f 401/240/243 423/239/244 427/238/243
f 453/234/245 472/233/246 430/241/247
f 467/242/248 430/241/247 472/233/246
f 430/241/247 467/242/248 436/243/249
f 435/244/250 436/243/249 467/242/248
f 449/230/251 405/245/251 377/232/251
f 376/246/251 377/232/251 405/245/251
f 445/247/252 440/248/253 420/249/254
f 415/250/254 420/249/254 440/248/253
f 465/251/255 384/252/256 434/253/257
f 381/254/257 434/253/257 384/252/256
f 446/247/258 414/255/259 428/238/259
f 402/240/260 428/238/259 414/255/259
f 422/256/261 369/231/262 412/257/261
f 368/258/262 412/257/261 369/231/262
f 407/259/263 424/260/263 375/261/263
f 374/262/264 375/261/263 424/260/263
f 400/263/265 365/258/266 425/260/267
f 366/262/268 425/260/267 365/258/266
f 388/264/234 361/265/269 394/266/270
f 363/267/271 394/266/270 361/265/269
f 394/266/270 363/267/271 386/268/272
f 364/269/273 386/268/272 363/267/271
f 391/264/274 395/270/275 359/265/276
f 358/261/277 359/265/276 395/270/275
f 430/241/247 436/243/249 443/271/278
f 365/258/266 400/263/265 411/257/279
s 0
f 356/272/280 404/273/280 380/274/280
f 357/269/281 379/274/281 385/268/281
f 360/231/282 419/256/282 416/275/282
f 362/231/283 418/275/283 462/229/283
f 370/261/284 399/270/284 408/259/284
f 371/269/285 372/272/285 378/274/285
f 383/223/286 470/220/286 431/221/286
f 387/276/287 466/224/287 393/226/287
s 1
f 389/277/288 459/278/289 398/279/288
f 396/280/242 452/281/240 410/282/290
s 0
f 409/283/291 455/237/291 426/239/291
s 1
f 413/255/292 447/247/293 421/249/292
f 429/284/294 439/285/295 444/286/296
s 0
f 432/221/297 482/218/297 438/219/297
f 480/215/298 494/201/298 483/218/298
f 484/218/299 495/201/299 499/200/299
s 1
f 589/287/300 522/288/300 593/289/300
f 519/290/300 593/289/300 522/288/300
f 592/291/301 579/292/302 551/293/303
f 571/294/304 551/293/303 579/292/302
f 551/293/303 571/294/304 559/295/305
f 564/296/306 559/295/305 571/294/304
f 582/297/307 536/298/308 516/299/308
f 513/300/309 516/299/308 536/298/308
f 576/301/310 586/302/311 569/303/312
f 587/304/313 569/303/312 586/302/311
f 569/303/312 587/304/313 561/305/314
f 590/291/314 561/305/314 587/304/313
f 561/305/314 590/291/314 552/293/315
f 575/306/316 573/307/317 535/308/318
f 565/309/319 535/308/318 573/307/317
f 535/308/318 565/309/319 529/310/320
f 574/311/321 568/303/322 566/312/323
f 560/305/324 566/312/323 568/303/322
f 566/312/323 560/305/324 553/293/325
f 581/313/326 547/314/327 572/315/328
f 544/316/329 572/315/328 547/314/327
f 570/315/330 543/316/331 563/317/332
f 538/318/333 563/317/332 543/316/331
f 541/319/334 526/320/335 554/321/336
f 525/322/337 554/321/336 526/320/335
f 554/321/336 525/322/337 524/323/338
f 503/324/339 524/323/338 525/322/337
f 524/323/338 503/324/339 502/325/340
f 591/289/341 518/290/342 549/326/342
f 515/327/342 549/326/342 518/290/342
f 545/328/329 548/326/343 534/329/344
f 514/327/345 534/329/344 548/326/343
f 534/329/344 514/327/345 511/330/346
f 542/328/347 533/329/348 531/331/348
f 510/330/349 531/331/348 533/329/348
f 531/331/348 510/330/349 508/332/349
f 540/319/350 546/328/351 527/320/352
f 532/331/353 527/320/352 546/328/351
f 527/320/352 532/331/353 505/333/354
f 509/332/354 505/333/354 532/331/353
f 530/310/355 523/323/355 506/334/356
f 501/325/357 506/334/356 523/323/355
f 535/308/318 529/310/320 512/335/358
f 507/334/358 512/335/358 529/310/320
f 503/324/339 525/322/337 504/333/359
f 526/320/335 504/333/359 525/322/337
f 568/303/322 574/311/321 577/301/360
f 523/323/355 530/310/355 558/321/361
s 0
f 517/299/362 521/288/362 585/297/362
f 520/288/363 588/287/363 583/297/363
f 528/310/364 567/309/364 555/321/364
f 537/336/365 584/337/365 578/338/365
s 1
f 539/339/366 557/340/367 562/341/368
s 0
f 550/314/369 580/313/369 594/342/369
s 1
f 553/293/325 556/295/370 566/312/323
