# Source-author permission confirmed by the user on 2026-07-25.
# Normalized to metres and Z-up; source UVs/material assignments retained.
# Blender 4.2.0
# www.blender.org
mtllib rv_mod_cit_lego_tunnel.mtl
o rv_mod_cit_lego_tunnel
v -0.707107 4.000000 7.358263
v 0.707107 4.000000 7.358263
v -0.707107 -4.000000 7.358263
v 0.707107 -4.000000 7.358263
v 3.000000 4.000000 0.000000
v 3.000000 -4.000000 0.000000
v 2.000000 4.000000 6.095013
v 2.000000 -4.000000 6.095013
v 0.707107 4.000000 7.358263
v 0.707107 -4.000000 7.358263
v -0.707107 4.000000 7.358263
v -0.707107 -4.000000 7.358263
v -2.000000 4.000000 6.095013
v -2.000000 -4.000000 6.095013
v -3.000000 4.000000 0.000000
v -3.000000 -4.000000 0.000000
v 3.000000 -4.000000 0.000000
v 4.000000 -4.000000 0.000000
v 2.000000 -4.000000 6.095013
v 4.000000 -4.000000 8.000000
v 0.707107 -4.000000 7.358263
v -4.000000 -4.000000 8.000000
v -0.707107 -4.000000 7.358263
v -2.000000 -4.000000 6.095013
v -4.000000 -4.000000 0.000000
v -3.000000 -4.000000 0.000000
v 4.000000 -4.000000 8.000000
v -4.000000 -4.000000 8.000000
v 0.707107 4.000000 7.358263
v 2.000000 4.000000 6.095013
v 3.000000 4.000000 0.000000
v -4.000000 -4.000000 0.000000
v -4.000000 -4.000000 8.000000
v 4.000000 -4.000000 8.000000
v 4.000000 -4.000000 0.000000
v -0.707107 4.000000 7.358263
v -2.000000 4.000000 6.095013
v -3.000000 4.000000 0.000000
v -0.707107 4.000000 7.358263
v -0.707107 4.000000 7.358263
v 0.707107 4.000000 7.358263
v 0.707107 4.000000 7.358263
v -0.707107 -4.000000 7.358263
v -0.707107 -4.000000 7.358263
v -0.707107 -4.000000 7.358263
v 0.707107 -4.000000 7.358263
v 0.707107 -4.000000 7.358263
v 0.707107 -4.000000 7.358263
v 3.000000 4.000000 0.000000
v 3.000000 -4.000000 0.000000
v 2.000000 4.000000 6.095013
v 2.000000 4.000000 6.095013
v 2.000000 4.000000 6.095013
v 2.000000 -4.000000 6.095013
v 2.000000 -4.000000 6.095013
v 2.000000 -4.000000 6.095013
v 0.707107 4.000000 7.358263
v 0.707107 4.000000 7.358263
v 0.707107 4.000000 7.358263
v 0.707107 -4.000000 7.358263
v 0.707107 -4.000000 7.358263
v -0.707107 4.000000 7.358263
v -0.707107 4.000000 7.358263
v -0.707107 -4.000000 7.358263
v -0.707107 -4.000000 7.358263
v -2.000000 4.000000 6.095013
v -2.000000 4.000000 6.095013
v -2.000000 4.000000 6.095013
v -2.000000 -4.000000 6.095013
v -2.000000 -4.000000 6.095013
v -2.000000 -4.000000 6.095013
v -3.000000 4.000000 0.000000
v -3.000000 -4.000000 0.000000
v 3.000000 -4.000000 0.000000
v 4.000000 -4.000000 0.000000
v 2.000000 -4.000000 6.095013
v 2.000000 -4.000000 6.095013
v 2.000000 -4.000000 6.095013
v 4.000000 -4.000000 8.000000
v 4.000000 -4.000000 8.000000
v 4.000000 -4.000000 8.000000
v 0.707107 -4.000000 7.358263
v 0.707107 -4.000000 7.358263
v 0.707107 -4.000000 7.358263
v 0.707107 -4.000000 7.358263
v -4.000000 -4.000000 8.000000
v -4.000000 -4.000000 8.000000
v -4.000000 -4.000000 8.000000
v -4.000000 -4.000000 8.000000
v -0.707107 -4.000000 7.358263
v -0.707107 -4.000000 7.358263
v -2.000000 -4.000000 6.095013
v -2.000000 -4.000000 6.095013
v -2.000000 -4.000000 6.095013
v -4.000000 -4.000000 0.000000
v -3.000000 -4.000000 0.000000
v -4.000000 -4.000000 0.000000
v -4.000000 -4.000000 8.000000
v -4.000000 4.000000 0.000000
v -4.000000 4.000000 8.000000
v 4.000000 4.000000 8.000000
v 4.000000 -4.000000 8.000000
v 4.000000 4.000000 0.000000
v 4.000000 -4.000000 0.000000
v -4.000000 4.000000 0.000000
v -4.000000 4.000000 8.000000
v 4.000000 4.000000 8.000000
v 4.000000 4.000000 0.000000
v -4.000000 4.000000 8.000000
v -4.000000 -4.000000 8.000000
v 4.000000 -4.000000 8.000000
v 4.000000 4.000000 8.000000
v -4.000000 4.000000 0.000000
v -4.000000 4.000000 8.000000
v -4.000000 4.000000 8.000000
v -4.000000 4.000000 8.000000
v 4.000000 4.000000 8.000000
v 4.000000 4.000000 8.000000
v 4.000000 -4.000000 8.000000
v 4.000000 -4.000000 8.000000
v 4.000000 4.000000 0.000000
v -4.000000 -4.000000 8.000000
v 4.000000 4.000000 8.000000
v -3.000000 4.000000 0.000000
v -4.000000 4.000000 8.000000
v -2.000000 4.000000 6.095013
v -0.707107 4.000000 7.358263
v 4.000000 4.000000 8.000000
v 0.707107 4.000000 7.358263
v 2.000000 4.000000 6.095013
v 3.000000 4.000000 0.000000
v 4.000000 4.000000 0.000000
v -4.000000 4.000000 0.000000
v -4.000000 4.000000 8.000000
v 4.000000 4.000000 8.000000
v -4.000000 -4.000000 8.000000
v 4.000000 -4.000000 8.000000
v -4.000000 4.000000 8.000000
v 4.000000 4.000000 8.000000
vn 0.3772 -0.0000 -0.9261
vn -0.3772 -0.0000 -0.9261
vn -0.9868 -0.0000 -0.1619
vn -0.8871 -0.0000 -0.4615
vn -0.8870 -0.0000 -0.4617
vn -0.3774 -0.0000 -0.9260
vn 0.3774 -0.0000 -0.9260
vn 0.8870 -0.0000 -0.4617
vn 0.8871 -0.0000 -0.4615
vn 0.9868 -0.0000 -0.1619
vn -0.0000 -1.0000 -0.0000
vn -0.0000 -0.0000 1.0000
vn -0.3535 0.1464 -0.9239
vn -0.0053 0.0022 -1.0000
vn -0.4370 -0.0000 0.8995
vn 0.2831 -0.1173 -0.9519
vn -0.2594 -0.0000 0.9658
vn 0.2594 -0.0000 0.9658
vn -0.2831 0.1173 -0.9519
vn 0.4370 -0.0000 0.8995
vn 0.0053 -0.0022 -1.0000
vn -0.0000 -0.0000 -0.0000
vn 1.0000 -0.0000 -0.0000
vn 1.0000 0.0001 -0.0000
vn 0.6495 -0.2690 -0.7112
vn -0.8866 -0.0000 0.4625
vn 0.8220 -0.3405 -0.4565
vn -0.8870 0.0003 -0.4617
vn 0.8866 -0.0000 0.4625
vn -0.6495 0.2690 -0.7112
vn 0.8870 -0.0003 -0.4617
vn -0.8220 0.3405 -0.4565
vn -0.1464 -0.3535 -0.9239
vn 0.1464 0.3535 -0.9239
vn 0.0001 -1.0000 -0.0000
vn -0.0001 1.0000 -0.0000
vn -0.3773 -0.0000 0.9261
vn -1.0000 -0.0000 -0.0000
vn -0.0000 1.0000 -0.0000
vn 0.3535 -0.1464 -0.9239
vt 1.000000 0.823730
vt 1.000000 0.999651
vt -0.000000 0.823730
vt -0.000000 0.999651
vt 0.000000 0.000346
vt 1.000000 0.000346
vt 0.000000 0.733895
vt 1.000000 0.733895
vt 0.000000 0.949482
vt 1.000000 0.949482
vt 1.000000 0.735713
vt 0.000000 0.735713
vt 1.000000 0.002164
vt 0.000000 0.002164
vt 0.875000 0.000000
vt 1.000000 0.000000
vt 0.750000 0.761877
vt 1.000000 1.000000
vt 0.588388 0.919783
vt 0.000000 1.000000
vt 0.411612 0.919783
vt 0.250000 0.761877
vt 0.000000 0.000000
vt 0.125000 0.000000
s 1
usemtl material1
f 1/1/1 2/2/2 3/3/1
f 4/4/2 3/3/1 2/2/2
f 5/5/3 6/6/3 7/7/4
f 8/8/4 7/7/4 6/6/3
f 51/7/5 54/8/5 9/9/6
f 10/10/6 9/9/6 54/8/5
f 11/10/7 12/9/7 13/11/8
f 14/12/8 13/11/8 12/9/7
f 66/11/9 69/12/9 15/13/10
f 16/14/10 15/13/10 69/12/9
s 0
f 17/15/11 18/16/11 19/17/11
f 20/18/11 19/17/11 18/16/11
f 76/17/11 79/18/11 21/19/11
f 22/20/11 21/19/11 79/18/11
f 82/19/11 86/20/11 23/21/11
f 24/22/11 23/21/11 86/20/11
f 87/20/11 25/23/11 92/22/11
f 26/24/11 92/22/11 25/23/11
s 1
f 80/18/12 27/20/12 88/20/13
f 28/18/12 88/20/13 27/20/12
f 57/9/12 29/21/14 52/7/15
f 30/22/12 52/7/15 29/21/14
f 53/7/12 30/22/16 49/5/17
f 31/24/12 49/5/17 30/22/16
f 96/24/12 73/14/18 93/22/19
f 70/12/12 93/22/19 73/14/18
f 94/22/12 71/12/20 90/21/21
f 64/9/12 90/21/21 71/12/20
f 32/16/22 95/23/22 33/18/22
f 89/20/22 33/18/22 95/23/22
f 46/4/12 83/19/23 43/3/23
f 91/21/12 44/3/23 84/19/24
f 55/8/12 77/17/25 60/10/26
f 85/19/12 60/10/26 77/17/25
f 50/6/12 74/15/27 56/8/28
f 78/17/12 56/8/28 74/15/27
f 34/20/22 81/18/22 35/23/22
f 75/16/22 35/23/22 81/18/22
f 36/19/12 62/10/29 37/17/30
f 67/11/12 37/17/30 62/10/29
f 37/17/12 68/11/31 38/15/32
f 72/13/12 38/15/32 68/11/31
f 45/3/12 65/9/33 39/1/34
f 63/10/12 39/1/34 65/9/33
f 41/2/12 58/9/11 47/4/35
f 61/10/12 48/4/11 59/9/36
f 29/21/12 42/2/37 36/19/13
f 40/1/12 36/19/13 42/2/37
s 0
usemtl material2
f 97/16/38 98/18/38 99/23/38
f 100/20/38 99/23/38 98/18/38
f 101/18/23 102/20/23 103/16/23
f 104/23/23 103/16/23 102/20/23
s 1
f 105/16/22 113/23/22 106/18/22
f 114/20/22 106/18/22 113/23/22
f 107/20/22 117/18/22 108/23/22
f 121/16/22 108/23/22 117/18/22
f 109/16/12 115/20/11 110/18/12
f 98/18/12 122/18/12 116/20/36
f 111/20/12 119/20/39 112/23/12
f 118/18/12 123/23/12 120/20/35
s 0
usemtl material3
f 124/15/39 125/18/39 126/17/39
f 127/19/39 126/17/39 125/18/39
f 127/19/39 128/20/39 129/21/39
f 130/22/39 129/21/39 128/20/39
f 130/22/39 128/20/39 131/24/39
f 132/23/39 131/24/39 128/20/39
f 127/19/39 125/18/39 128/20/39
f 133/16/39 125/18/39 124/15/39
s 1
f 125/18/12 134/16/12 128/20/40
f 135/23/12 128/20/40 134/16/12
s 0
usemtl material4
f 136/18/12 137/20/12 138/16/12
f 139/23/12 138/16/12 137/20/12
