# Source-author permission confirmed by the user on 2026-07-25.
# Normalized to metres and Z-up; source UVs/material assignments retained.
# Blender 4.2.0
# www.blender.org
mtllib rv_mod_tem_natural_corner.mtl
o rv_mod_tem_natural_corner
v 1.368034 -0.660103 0.000000
v 1.368034 -0.660103 0.000000
v 1.346146 -0.601196 0.146905
v 1.346146 -0.601196 0.146905
v -0.169659 -0.022035 0.000000
v -0.169659 -0.022035 0.000000
v -0.112495 0.004070 0.146905
v 2.094112 1.201345 0.146905
v 0.635473 1.806610 0.146905
v 2.842081 3.003886 0.146905
v 2.899244 3.029990 0.000000
v 1.383440 3.609151 0.146905
v 1.361551 3.668059 0.000000
v 1.361551 3.668059 0.000000
v 0.431623 -2.010987 0.000000
v 0.378773 -1.976986 0.146905
v 0.137793 -0.372300 0.000000
v 0.137793 -0.372300 0.000000
v 0.100046 -0.422545 0.146905
v -1.542156 -2.321426 0.146905
v -1.820883 -0.766985 0.146905
v -3.463085 -2.665866 0.146905
v -3.463085 -2.665866 0.146905
v -3.500832 -2.716111 0.000000
v -3.500832 -2.716111 0.000000
v -3.741812 -1.111425 0.146905
v -3.794662 -1.077424 0.000000
v -3.794662 -1.077424 0.000000
v 4.152491 0.488217 3.325902
v 4.152491 0.488217 3.325902
v 4.025723 0.419561 3.331823
v 4.025723 0.419561 3.331823
v 4.025723 0.419561 3.331823
v 4.025723 0.419561 3.331823
v 4.237909 0.727969 3.339318
v 4.237909 0.727969 3.339318
v 3.888016 0.467646 3.349287
v 3.888016 0.467646 3.349287
v 3.888016 0.467646 3.349287
v 4.182701 0.860169 3.356477
v 4.182701 0.860169 3.356477
v 4.182701 0.860169 3.356477
v 3.832808 0.599845 3.366446
v 3.832808 0.599845 3.366446
v 3.832808 0.599845 3.366446
v 3.832808 0.599845 3.366446
v 4.044994 0.908254 3.373941
v 4.044994 0.908254 3.373941
v 4.044994 0.908254 3.373941
v 3.782942 0.629082 3.375688
v 3.782942 0.629082 3.375688
v 3.782942 0.629082 3.375688
v 4.133394 0.507950 3.375847
v 3.918226 0.839597 3.379861
v 3.918226 0.839597 3.379861
v 3.918226 0.839597 3.379861
v 3.918226 0.839597 3.379861
v 4.021339 0.447263 3.381080
v 4.021339 0.447263 3.381080
v 4.208899 0.719874 3.387706
v 3.860802 0.847617 3.387917
v 3.860802 0.847617 3.387917
v 3.860802 0.847617 3.387917
v 3.899616 0.489767 3.396518
v 3.899616 0.489767 3.396518
v 4.160099 0.836729 3.402873
v 3.850817 0.606622 3.411685
v 4.038376 0.879233 3.418310
v 4.038376 0.879233 3.418310
v 3.926321 0.818545 3.423543
v 3.555183 0.816283 3.478700
v 3.555183 0.816283 3.478700
v 3.555183 0.816283 3.478700
v 3.562088 0.835661 3.479785
v 3.562088 0.835661 3.479785
v 3.562088 0.835661 3.479785
v 3.540770 0.831092 3.501487
v 3.540770 0.831092 3.501487
v 3.540770 0.831092 3.501487
v 3.817719 0.645868 3.513511
v 3.817719 0.645868 3.513511
v 3.822670 0.658429 3.514576
v 3.822670 0.658429 3.514576
v 3.795759 0.616715 3.515095
v 3.795759 0.616715 3.515095
v 3.867865 0.785277 3.521674
v 3.867865 0.785277 3.521674
v 3.871944 0.798069 3.522027
v 3.871944 0.798069 3.522027
v 3.873619 0.835251 3.527323
v 3.873619 0.835251 3.527323
v 3.848948 0.640543 3.538357
v 3.848948 0.640543 3.538357
v 3.848948 0.640543 3.538357
v 3.898659 0.780068 3.546164
v 3.898659 0.780068 3.546164
v 3.898659 0.780068 3.546164
v 4.049074 0.486197 3.624728
v 4.049074 0.486197 3.624728
v 4.049074 0.486197 3.624728
v 4.049074 0.486197 3.624728
v 4.049074 0.486197 3.624728
v 3.695288 0.756039 3.637877
v 3.695288 0.756039 3.637877
v 3.699652 0.766948 3.638850
v 3.699652 0.766948 3.638850
v 3.699652 0.766948 3.638850
v 3.703180 0.778193 3.639117
v 3.703180 0.778193 3.639117
v 4.148457 0.765141 3.640336
v 4.148457 0.765141 3.640336
v 4.148457 0.765141 3.640336
v 4.148457 0.765141 3.640336
v 4.148457 0.765141 3.640336
v 3.852617 0.555266 3.649686
v 3.852617 0.555266 3.649686
v 3.852617 0.555266 3.649686
v 3.852617 0.555266 3.649686
v 3.889000 0.592407 3.662663
v 3.889000 0.592407 3.662663
v 3.889000 0.592407 3.662663
v 3.723068 0.744709 3.663473
v 3.723068 0.744709 3.663473
v 3.727432 0.755617 3.664446
v 3.727432 0.755617 3.664446
v 3.727432 0.755617 3.664446
v 3.727432 0.755617 3.664446
v 3.730961 0.766863 3.664713
v 3.730961 0.766863 3.664713
v 3.951702 0.833374 3.665247
v 3.951702 0.833374 3.665247
v 3.951702 0.833374 3.665247
v 3.951702 0.833374 3.665247
v 3.695045 0.767046 3.666410
v 3.695045 0.767046 3.666410
v 3.695045 0.767046 3.666410
v 3.695045 0.767046 3.666410
v 3.956034 0.780558 3.673191
v 3.956034 0.780558 3.673191
v 3.956034 0.780558 3.673191
v 3.956841 0.647909 3.738847
v 3.956841 0.647909 3.738847
v 3.970501 0.686251 3.740993
v 3.970501 0.686251 3.740993
v 4.029325 0.537569 3.749203
v 4.029325 0.537569 3.749203
v 4.029325 0.537569 3.749203
v 4.016239 0.647668 3.752128
v 4.016239 0.647668 3.752128
v 4.096361 0.725720 3.759731
v 4.096361 0.725720 3.759731
v 4.096361 0.725720 3.759731
v 3.898836 0.583134 3.765753
v 3.898836 0.583134 3.765753
v 3.898836 0.583134 3.765753
v 3.965870 0.771285 3.776281
v 3.965870 0.771285 3.776281
v 3.965870 0.771285 3.776281
v 3.931883 0.650120 3.858240
v 3.931883 0.650120 3.858240
v 3.945543 0.688462 3.860386
v 3.945543 0.688462 3.860386
v 3.955450 0.661766 3.887237
v 3.955450 0.661766 3.887237
v 3.984385 0.650737 3.900111
v 3.984385 0.650737 3.900111
v 4.771109 0.322064 4.569036
v 4.771109 0.322064 4.569036
v 4.778013 0.341442 4.570120
v 4.778013 0.341442 4.570120
v 4.756697 0.336874 4.591822
v 4.756697 0.336874 4.591822
v 1.368034 -0.660103 0.000000
v 1.346146 -0.601196 0.146905
v -0.169659 -0.022035 0.000000
v -0.112495 0.004070 0.146905
v -0.112495 0.004070 0.146905
v 2.094112 1.201345 0.146905
v 2.094112 1.201345 0.146905
v 0.635473 1.806610 0.146905
v 0.635473 1.806610 0.146905
v 2.842081 3.003886 0.146905
v 2.842081 3.003886 0.146905
v 2.899244 3.029990 0.000000
v 1.383440 3.609151 0.146905
v 1.383440 3.609151 0.146905
v 1.361551 3.668059 0.000000
v 0.431623 -2.010987 0.000000
v 0.378773 -1.976986 0.146905
v 0.378773 -1.976986 0.146905
v 0.137793 -0.372300 0.000000
v 0.100046 -0.422545 0.146905
v 0.100046 -0.422545 0.146905
v -1.542156 -2.321426 0.146905
v -1.542156 -2.321426 0.146905
v -1.820883 -0.766985 0.146905
v -1.820883 -0.766985 0.146905
v -3.463085 -2.665866 0.146905
v -3.500832 -2.716111 0.000000
v -3.741812 -1.111425 0.146905
v -3.741812 -1.111425 0.146905
v -3.794662 -1.077424 0.000000
v 4.021339 0.447263 3.381080
v 3.899616 0.489767 3.396518
v 4.133394 0.507950 3.375847
v 3.850817 0.606622 3.411685
v 4.208899 0.719874 3.387706
v 3.926321 0.818545 3.423543
v 4.160099 0.836729 3.402873
v 4.038376 0.879233 3.418310
v 5.269436 6.620297 0.008444
v 4.323330 4.332932 0.083216
v 4.323330 4.332932 0.083216
v 3.713301 2.756906 0.097610
v 3.648914 0.539110 0.097610
v 3.152079 -0.910363 0.097610
v 3.022388 -2.503517 0.097610
v 2.385281 2.714060 0.097610
v 1.947357 1.714672 0.097610
v 1.835833 0.310606 0.097610
v 1.226980 -3.666787 0.097610
v -0.118210 -4.030055 0.097610
v -0.440844 4.134020 0.097610
v -0.440844 4.134020 0.097610
v -0.466902 2.622041 0.097610
v -0.822342 6.620297 0.008444
v -1.047310 1.106194 0.097610
v -1.526314 -3.371419 0.097610
v -2.068069 0.423771 0.097610
v -2.918953 -3.913033 0.097610
v -3.262653 0.580049 0.097610
v -4.611071 0.017231 0.097610
v -4.778557 -3.925855 0.097610
v -6.658234 1.855091 0.011487
v -6.658234 -5.110691 0.011487
v -6.658234 -6.620297 4.270102
v -6.658234 -6.442104 2.927003
v -6.658234 -6.158514 1.497676
v -6.658234 -6.158514 1.497676
v 0.519470 -5.519780 2.068030
v -0.298615 -5.284477 3.138454
v -6.658234 -5.255281 6.433930
v -0.209412 -5.162209 1.886183
v 0.496561 -5.133804 1.073192
v 0.496561 -5.133804 1.073192
v 0.538855 -5.130661 3.107526
v -6.658234 -5.110691 0.011487
v -4.324396 -5.090415 3.020917
v -4.324396 -5.090415 3.020917
v -2.749668 -5.028655 1.885491
v 0.494677 -4.987548 4.351018
v 0.494677 -4.987548 4.351018
v 1.355249 -4.921127 2.101819
v -4.185383 -4.896003 2.063299
v -4.185383 -4.896003 2.063299
v -2.236179 -4.867112 3.221362
v -0.417751 -4.862558 4.429777
v -0.417751 -4.862558 4.429777
v -1.661915 -4.731928 1.878554
v -0.362366 -4.676699 0.992171
v -0.362366 -4.676699 0.992171
v -4.297644 -4.675009 1.109379
v -4.297644 -4.675009 1.109379
v -4.297644 -4.675009 1.109379
v -4.297644 -4.675009 1.109379
v -2.811436 -4.550978 1.013622
v -2.811436 -4.550978 1.013622
v 1.470791 -4.453074 1.053529
v 1.470791 -4.453074 1.053529
v -1.413364 -4.246829 0.934144
v -1.413364 -4.246829 0.934144
v -2.704660 -4.095217 4.619002
v 1.578939 -4.052301 3.573197
v 1.578939 -4.052301 3.573197
v -0.118210 -4.030055 0.097610
v -0.118210 -4.030055 0.097610
v 2.771654 -3.982979 2.116332
v 2.771654 -3.982979 2.116332
v -3.934549 -3.968886 4.820844
v -3.934549 -3.968886 4.820844
v -4.778557 -3.925855 0.097610
v -4.778557 -3.925855 0.097610
v -2.918953 -3.913033 0.097610
v -1.495249 -3.912954 4.585135
v -1.495249 -3.912954 4.585135
v -0.277185 -3.711659 5.520395
v 1.226980 -3.666787 0.097610
v 1.226980 -3.666787 0.097610
v 0.575850 -3.640284 6.065225
v 0.575850 -3.640284 6.065225
v 0.575850 -3.640284 6.065225
v 3.025261 -3.616776 1.153188
v 3.025261 -3.616776 1.153188
v 3.025261 -3.616776 1.153188
v -1.526314 -3.371419 0.097610
v 2.387449 -3.343840 0.351210
v 2.387449 -3.343840 0.351210
v 2.387449 -3.343840 0.351210
v 2.684786 -3.339854 3.450966
v 2.684786 -3.339854 3.450966
v 1.442890 -3.211930 4.836078
v 1.442890 -3.211930 4.836078
v 3.954775 -3.146462 2.151365
v 3.954775 -3.146462 2.151365
v 4.239023 -2.641839 0.892992
v 4.239023 -2.641839 0.892992
v 2.293461 -2.601497 5.838426
v 2.293461 -2.601497 5.838426
v 3.022388 -2.503517 0.097610
v 3.022388 -2.503517 0.097610
v 3.022388 -2.503517 0.097610
v 2.835449 -2.429872 4.906553
v 3.197054 -2.355501 3.638941
v -2.601381 -2.145352 5.095297
v -4.180136 -2.029468 5.416100
v -4.180136 -2.029468 5.416100
v -6.658234 -1.991666 7.081928
v -1.436611 -1.856021 5.335102
v -1.436611 -1.856021 5.335102
v -0.389658 -1.827484 5.791409
v 0.553907 -1.736588 6.258824
v -3.949369 -1.096308 5.398576
v -3.949369 -1.096308 5.398576
v -1.342176 -1.043829 5.521449
v -1.342176 -1.043829 5.521449
v -0.400719 -1.008391 5.885293
v -2.311224 -0.962184 5.232472
v 3.827473 -0.927332 0.810983
v 3.827473 -0.927332 0.810983
v 0.548433 -0.927214 6.201458
v 3.152079 -0.910363 0.097610
v 3.152079 -0.910363 0.097610
v 3.152079 -0.910363 0.097610
v 4.124851 -0.881834 1.811423
v 4.124851 -0.881834 1.811423
v 2.540564 -0.862906 5.735756
v 2.540564 -0.862906 5.735756
v 3.963390 -0.726996 0.850115
v 3.633636 -0.615712 4.676999
v 3.633636 -0.615712 4.676999
v 3.724524 -0.563810 3.264091
v 3.724524 -0.563810 3.264091
v 4.324629 -0.286987 1.895559
v -4.611071 0.017231 0.097610
v -4.611071 0.017231 0.097610
v 4.096033 0.139780 3.098173
v 0.690088 0.189934 5.782949
v 1.787733 0.262642 5.694362
v 4.150368 0.304162 5.266656
v 4.150368 0.304162 5.266656
v 4.156700 0.374780 1.012335
v -2.068069 0.423771 0.097610
v -2.068069 0.423771 0.097610
v 4.400066 0.465983 1.968512
v -3.965834 0.470602 4.956861
v -3.965834 0.470602 4.956861
v 3.648914 0.539110 0.097610
v -3.262653 0.580049 0.097610
v 4.340773 0.603282 2.988872
v -6.658234 0.603994 6.760754
v 4.371923 0.700168 3.568277
v -1.781954 0.806663 4.920828
v -1.781954 0.806663 4.920828
v 4.406393 0.807369 4.209368
v -2.644148 0.841169 4.654735
v -4.423073 0.876715 1.095184
v -4.423073 0.876715 1.095184
v -0.832041 0.981935 5.382704
v -1.047310 1.106194 0.097610
v -3.294027 1.157103 1.082892
v 4.582150 1.164080 2.893987
v -2.415348 1.178548 1.050985
v -2.415348 1.178548 1.050985
v -4.489832 1.243447 2.563651
v -4.489832 1.243447 2.563651
v -4.220448 1.267262 4.280862
v -4.220448 1.267262 4.280862
v 1.485044 1.453243 5.007772
v 3.907543 1.465536 5.068791
v 4.833433 1.483021 2.034232
v -2.979797 1.502877 3.857984
v -1.720158 1.577230 1.135278
v -3.053934 1.596772 2.426344
v 4.769442 1.748759 1.119194
v -1.692459 1.803931 3.416373
v -1.692459 1.803931 3.416373
v -6.658234 1.855091 0.011487
v -2.402784 1.860615 2.069107
v -2.402784 1.860615 2.069107
v -0.675840 2.020566 4.326330
v -1.711084 2.509865 2.054524
v -0.466902 2.622041 0.097610
v -6.658234 2.708187 5.538304
v 3.713301 2.756906 0.097610
v 4.425047 2.782706 3.878291
v 1.535662 2.785159 4.616732
v -6.658234 2.814758 1.392311
v 4.623981 2.907681 1.008121
v 4.859314 2.932700 2.279677
v 3.460627 2.976129 4.678343
v -1.217838 3.192768 1.366874
v -0.408379 3.241966 3.865040
v -6.658234 3.262227 3.409323
v -1.040522 3.383489 2.779788
v -1.245878 3.450103 2.037714
v -0.440844 4.134020 0.097610
v 5.059584 4.321335 2.534129
v 4.710804 4.324421 1.110556
v 4.323330 4.332932 0.083216
v 4.323330 4.332932 0.083216
v 1.468422 4.364735 4.974607
v 5.018219 4.375628 4.112179
v -0.737947 4.578214 4.321282
v 4.160612 4.636796 5.100031
v -1.601625 4.693185 1.291805
v -1.613560 4.778737 3.434492
v -3.295498 6.620297 4.443278
v 6.658234 6.620297 2.341848
v 6.364679 6.620297 5.607756
v 4.202412 6.620297 6.983768
v 0.754873 6.620297 7.100888
v 5.928207 6.620297 0.540009
v 5.269436 6.620297 0.008444
v -2.309645 6.620297 6.139463
v -3.057850 6.620297 1.719996
v 5.928207 6.620297 0.540009
v -0.822342 6.620297 0.008444
vn 0.3657 0.8814 0.2989
vn -0.3657 -0.8814 0.2989
vn 0.8868 -0.3680 0.2797
vn -0.8868 0.3680 0.2797
vn -0.9393 -0.1684 0.2989
vn 0.9393 0.1684 0.2989
vn -0.1695 0.9450 0.2797
vn 0.1695 -0.9450 0.2797
vn 0.1094 0.9455 0.3065
vn 0.1094 0.9455 0.3066
vn 0.6163 -0.1766 -0.7674
vn 0.6163 -0.1767 -0.7674
vn -0.5222 -0.8272 0.2074
vn -0.5222 -0.8273 0.2073
vn -0.2865 -0.8836 0.3703
vn -0.8452 -0.3731 0.3826
vn -0.0058 -0.9998 0.0185
vn -0.5727 0.1590 0.8042
vn 0.3220 0.8242 0.4658
vn -0.4337 0.7822 0.4473
vn 0.6252 0.7715 0.1176
vn 0.6253 0.7715 0.1176
vn -0.4335 0.7823 0.4473
vn -0.9197 0.3388 -0.1985
vn 0.3351 0.9407 0.0526
vn 0.2397 0.9475 0.2118
vn -0.2030 0.6987 0.6860
vn 0.7488 0.3647 0.5535
vn 0.0946 -0.0892 0.9915
vn -0.9374 0.3273 0.1189
vn -0.2029 0.6987 0.6860
vn -0.6222 -0.4780 0.6201
vn 0.8989 -0.3360 0.2813
vn 0.7487 0.3649 0.5535
vn 0.3309 -0.8078 0.4879
vn -0.3352 -0.9407 -0.0526
vn -0.6221 -0.4778 0.6202
vn -0.4191 -0.9015 0.1083
vn 0.3311 -0.8077 0.4879
vn 0.0229 0.9231 0.3838
vn 0.0934 0.9228 0.3739
vn 0.1634 0.9177 0.3622
vn 0.3204 -0.1404 0.9368
vn 0.0362 -0.0687 0.9970
vn 0.4016 -0.1932 0.8952
vn 0.3038 -0.1867 0.9342
vn -0.0549 -0.9655 -0.2546
vn -0.0549 -0.9655 -0.2545
vn -0.5225 -0.8062 0.2775
vn -0.4644 -0.8453 0.2642
vn -0.4643 -0.8453 0.2642
vn -0.6043 -0.7944 -0.0604
vn -0.6042 -0.7946 -0.0604
vn -0.6885 -0.4622 0.5588
vn -0.7907 -0.6115 -0.0294
vn -0.6885 -0.4623 0.5588
vn -0.6742 -0.7267 0.1322
vn 0.0981 -0.9720 0.2137
vn -0.6884 -0.4625 0.5587
vn -0.2619 0.7348 0.6257
vn -0.9033 0.3050 0.3016
vn -0.9033 0.3050 0.3017
vn -0.9377 0.3276 0.1153
vn -0.2028 0.6989 0.6859
vn -0.2621 0.7348 0.6256
vn -0.6221 -0.4780 0.6200
vn -0.6886 -0.4624 0.5587
vn 0.3310 -0.8078 0.4878
vn 0.5755 0.8029 -0.1550
vn 0.5756 0.8029 -0.1550
vn 0.0984 -0.9720 0.2136
vn 0.7282 -0.6390 0.2477
vn 0.3308 -0.8078 0.4879
vn 0.9588 0.0082 0.2839
vn 0.7486 0.3649 0.5536
vn 0.6816 0.6651 0.3052
vn 0.0345 0.9986 0.0400
vn -0.2621 0.7346 0.6258
vn 0.0347 0.9986 0.0399
vn -0.2271 0.9723 0.0550
vn -0.5744 0.2022 -0.7932
vn -0.7287 0.2941 -0.6185
vn -0.8086 0.2916 -0.5111
vn -0.9276 0.3392 -0.1563
vn -0.7928 0.3359 -0.5086
vn -0.5451 0.2848 -0.7886
vn -0.5450 0.2848 -0.7886
vn 0.3938 0.5414 -0.7428
vn 0.5777 0.6755 -0.4582
vn 0.9253 0.0504 -0.3759
vn 0.6989 -0.5850 -0.4115
vn -0.0098 -0.5915 -0.8062
vn 0.0381 -0.8389 -0.5430
vn -0.0097 -0.5916 -0.8062
vn 0.0379 -0.8389 -0.5430
vn -0.4779 -0.3643 -0.7993
vn -0.6078 -0.5492 -0.5736
vn -0.5250 0.0668 -0.8485
vn -0.8594 0.0285 -0.5105
vn -0.4192 0.3636 -0.8319
vn -0.6663 0.5705 -0.4802
vn -0.1126 0.6609 -0.7420
vn -0.1049 0.8628 -0.4946
vn 0.3938 0.5413 -0.7429
vn -0.1127 0.6609 -0.7420
vn 0.5775 0.6757 -0.4583
vn -0.1046 0.8628 -0.4945
vn -0.1246 0.0996 -0.9872
vn -0.2267 0.9721 0.0593
vn -0.2620 0.7347 0.6258
vn -0.0692 0.9714 0.2272
vn 0.6814 0.6652 0.3052
vn -0.5726 0.1590 0.8043
vn 0.7488 0.3649 0.5533
vn -0.5779 -0.7631 0.2894
vn -0.7908 -0.6115 -0.0274
vn -0.7126 0.2897 -0.6390
vn -0.5744 0.2021 -0.7932
vn 0.5445 -0.2881 0.7877
vn 0.4019 -0.1933 0.8951
vn 0.3041 -0.1869 0.9341
vn 0.5761 -0.1995 0.7927
vn 0.3206 -0.1404 0.9367
vn -0.0000 -0.0000 1.0000
vn -0.0096 -0.5916 -0.8062
vn -0.4778 -0.3644 -0.7993
vn -0.0946 0.0892 -0.9915
vn -0.5249 0.0667 -0.8485
vn 0.3939 0.5415 -0.7427
vn -0.1127 0.6609 -0.7419
vn -0.3322 -0.3653 0.8696
vn -0.2490 0.3941 0.8847
vn -0.0922 -0.4197 0.9030
vn -0.1303 0.4274 0.8946
vn 0.0644 -0.4603 0.8854
vn -0.0607 0.4278 0.9018
vn 0.0993 -0.4256 0.8994
vn 0.0264 0.3986 0.9168
vn 0.1783 -0.1529 0.9720
vn 0.0778 0.4561 0.8865
vn -0.2082 0.3892 0.8973
vn 0.4038 0.1008 0.9093
vn -0.5135 0.2285 0.8271
vn 0.3523 0.1350 0.9261
vn -0.3217 0.1645 0.9325
vn 0.2876 -0.0345 0.9571
vn 0.0004 0.0012 1.0000
vn -0.2745 0.0526 0.9601
vn -0.3796 0.0860 0.9211
vn -0.4997 0.0615 0.8640
vn -0.2919 0.2124 0.9326
vn 0.4038 0.1009 0.9093
vn 0.4040 0.1009 0.9092
vn 0.7829 0.4660 0.4122
vn 0.9045 0.3349 0.2641
vn 0.6905 0.7036 -0.1677
vn 0.7939 0.5622 -0.2317
vn 0.4119 0.7497 -0.5179
vn 0.5040 0.5852 -0.6352
vn 0.1032 0.7080 -0.6987
vn 0.0956 0.4966 -0.8627
vn -0.1620 0.6789 -0.7161
vn -0.3171 0.5520 -0.7712
vn -0.6797 0.6390 -0.3601
vn -0.7711 0.5002 -0.3940
vn -0.8181 0.5549 0.1511
vn -0.9081 0.4174 0.0328
vn -0.7609 0.4418 0.4752
vn -0.8670 0.3772 0.3256
vn -0.5135 0.2284 0.8271
vn -0.9094 0.0459 0.4134
vn -0.4998 0.0616 0.8640
vn -0.8864 0.1140 0.4488
vn -0.8724 0.2012 0.4454
vn -0.9569 0.2879 0.0377
vn -0.9607 0.2777 -0.0063
vn -0.9104 0.3887 -0.1419
vn -0.9173 0.3443 -0.2001
vn -0.9559 0.2875 -0.0592
vn -0.8573 0.3611 -0.3670
vn -0.9766 0.1389 -0.1645
vn -0.9761 0.1281 -0.1754
vn -0.5622 -0.2985 -0.7713
vn -0.3322 -0.3652 0.8696
vn -0.6013 -0.7145 0.3576
vn -0.1873 -0.8851 0.4261
vn -0.6310 -0.7742 0.0499
vn -0.2254 -0.9704 0.0867
vn -0.6224 -0.6769 -0.3929
vn -0.2870 -0.8571 -0.4278
vn -0.5500 -0.2619 -0.7930
vn -0.3254 -0.4592 -0.8266
vn -0.3409 -0.1259 -0.9316
vn -0.2746 0.0526 0.9601
vn -0.8588 0.2487 0.4478
vn -0.9813 0.1352 -0.1372
vn 0.9235 -0.1506 0.3529
vn 0.9955 -0.0784 -0.0527
vn 0.8490 -0.5268 0.0403
vn 0.9212 -0.1245 -0.3685
vn 0.5254 -0.7325 -0.4329
vn 0.5791 -0.0112 -0.8152
vn 0.3802 -0.5606 -0.7357
vn 0.1667 -0.0202 -0.9858
vn 0.0349 -0.4244 -0.9048
vn -0.2614 0.0482 -0.9640
vn 0.4089 -0.8901 0.2013
vn 0.6222 -0.5560 0.5511
vn 0.1783 -0.1530 0.9720
vn 0.3305 -0.5173 -0.7894
vn 0.2941 -0.4661 -0.8344
vn 0.3255 -0.0401 -0.9447
vn 0.3463 -0.0669 -0.9358
vn 0.3059 0.2066 -0.9294
vn 0.4336 0.1284 -0.8919
vn 0.2271 0.5125 -0.8282
vn 0.4168 0.4356 -0.7978
vn 0.2818 0.7931 -0.5400
vn 0.1790 0.3470 -0.9206
vn -0.3993 0.8360 -0.3764
vn -0.0924 -0.4196 0.9030
vn -0.1872 -0.8851 0.4261
vn 0.2008 -0.8765 0.4374
vn 0.3175 -0.9445 0.0840
vn -0.2868 -0.8572 -0.4279
vn 0.1578 -0.9320 -0.3263
vn -0.3252 -0.4592 -0.8267
vn 0.0506 -0.5455 -0.8366
vn -0.3407 -0.1259 -0.9317
vn 0.0640 -0.0873 -0.9941
vn -0.3533 0.1208 -0.9277
vn -0.0063 0.2114 -0.9774
vn -0.3672 0.5520 -0.7486
vn -0.0874 0.6598 -0.7463
vn 0.0570 0.9598 -0.2748
vn 0.2268 0.5126 -0.8281
vn 0.2818 0.7932 -0.5399
vn 0.4088 -0.8902 0.2013
vn 0.5253 -0.7326 -0.4328
vn 0.3303 -0.5173 -0.7895
vn 0.3254 -0.0401 -0.9447
vn 0.3058 0.2066 -0.9294
vn -0.3798 0.0860 0.9211
vn -0.8468 0.1190 0.5185
vn -0.3799 0.0860 0.9210
vn -0.2920 0.2125 0.9325
vn -0.8468 0.1187 0.5185
vn -0.8011 0.3649 0.4744
vn -0.9813 0.1350 -0.1373
vn -0.8036 0.5411 -0.2480
vn -0.9173 0.3442 -0.2002
vn -0.8195 0.4162 -0.3940
vn -0.8573 0.3609 -0.3671
vn -0.7473 0.6133 -0.2556
vn -0.4186 0.0233 -0.9079
vn -0.5137 0.3267 -0.7934
vn -0.5383 0.0605 -0.8406
vn -0.3535 0.1207 -0.9276
vn -0.6173 0.4627 -0.6364
vn -0.3675 0.5520 -0.7485
vn -0.5731 0.8074 -0.1404
vn -0.2552 0.9265 -0.2764
vn -0.4922 0.8564 0.1561
vn -0.2539 0.9506 0.1786
vn -0.4518 0.7962 0.4025
vn -0.2260 0.8630 0.4519
vn -0.3889 0.6086 0.6916
vn -0.8011 0.3650 0.4744
vn -0.5082 0.7806 0.3640
vn -0.8035 0.5413 -0.2478
vn -0.5515 0.8185 -0.1607
vn -0.5823 0.6326 -0.5107
vn -0.6035 0.7103 -0.3624
vn -0.6367 0.6788 -0.3660
vn -0.6632 0.7096 -0.2380
vn -0.5081 0.7805 0.3641
vn -0.3889 0.6087 0.6916
vn -0.4400 0.7540 0.4878
vn -0.2082 0.3894 0.8972
vn -0.0340 0.8293 0.5578
vn 0.0775 0.4562 0.8865
vn -0.6630 0.7098 -0.2378
vn -0.6366 0.6790 -0.3658
vn -0.5824 0.6324 -0.5108
vn -0.2257 0.8629 0.4521
vn -0.0608 0.4278 0.9018
vn -0.0962 0.8499 0.5181
vn 0.0264 0.3988 0.9166
vn 0.0460 0.8190 0.5719
vn 0.0777 0.4562 0.8865
vn 0.3231 0.7886 0.5232
vn -0.0338 0.8293 0.5577
vn -0.1304 0.4275 0.8946
vn -0.2490 0.3942 0.8847
vn -0.2260 0.8629 0.4521
vn -0.4517 0.7961 0.4027
vn -0.2550 0.9266 -0.2765
vn -0.2537 0.9507 0.1785
vn -0.1157 0.9717 0.2062
vn -0.2257 0.8630 0.4520
vn -0.0961 0.8500 0.5179
vn -0.8574 0.3609 -0.3670
vn -0.1744 -0.2406 -0.9548
vn -0.2477 -0.0904 -0.9646
vn 0.0004 -0.4177 -0.9086
vn 0.0468 -0.1344 -0.9898
vn 0.1147 0.0549 -0.9919
vn -0.5137 0.3268 -0.7933
vn -0.4186 0.0232 -0.9079
vn -0.9246 0.0564 -0.3767
vn -0.9943 0.0861 -0.0634
vn -0.9630 0.1972 -0.1838
vn -0.9233 0.3742 -0.0866
vn -0.9792 0.2026 -0.0151
vn 0.1971 -0.7943 0.5747
vn -0.4401 0.7541 0.4876
vn -0.5659 0.8236 -0.0386
vn -0.5081 0.7806 0.3639
vn -0.5515 0.8186 -0.1606
vn -0.6034 0.7104 -0.3623
vn -0.3545 0.9184 -0.1755
vn -0.3992 0.8361 -0.3763
vn 0.1277 0.9878 -0.0887
vn 0.3231 0.7887 0.5229
vn 0.0460 0.8192 0.5717
vn 0.2776 0.9371 0.2117
vn 0.0662 0.9660 0.2500
vn -0.1804 0.9813 0.0671
vn -0.0339 0.8294 0.5576
vn 0.1974 -0.7942 0.5746
vn 0.0993 -0.4257 0.8994
vn -0.3799 0.0861 0.9210
vn -0.3993 0.8360 -0.3763
vn -0.3889 0.6085 0.6917
vn -0.2920 0.2126 0.9325
vn 0.3525 0.1351 0.9260
vn -0.5136 0.2285 0.8270
vn -0.7608 0.4417 0.4755
vn -0.3219 0.1646 0.9323
vt 0.189431 0.005283
vt 0.193421 0.047813
vt 0.377730 0.005283
vt 0.373741 0.047813
vt 0.559458 0.005283
vt 0.283581 0.047813
vt 0.547768 0.047813
vt 0.007704 0.005283
vt 0.880422 0.703297
vt 0.880814 0.716982
vt 0.064023 0.703297
vt 0.064415 0.716982
vt 0.880814 0.689612
vt 0.064415 0.689612
vt 0.849206 0.674318
vt 0.827937 0.714977
vt 0.740639 0.674761
vt 0.740464 0.715886
vt 0.844804 0.697959
vt 0.709129 0.708649
vt 0.619499 0.721822
vt 0.619499 0.695476
vt 0.464343 0.721822
vt 0.464343 0.695476
vt 0.314468 0.979422
vt 0.448470 0.987853
vt 0.320765 0.879336
vt 0.503806 0.878291
vt 0.535871 0.983859
vt 0.714147 0.983859
vt 0.535871 0.908151
vt 0.714147 0.908151
vt 0.174053 0.990913
vt 0.174053 0.903760
vt 0.345144 0.990913
vt 0.345144 0.903760
vt 0.174053 0.967173
vt 0.345144 0.967173
vt 0.132772 0.860578
vt 0.386425 0.860578
vt 0.376036 0.694141
vt 0.401192 0.711380
vt 0.394361 0.676644
vt 0.577229 0.710970
vt 0.568912 0.676326
vt 0.727278 0.951075
vt 0.737872 0.976364
vt 0.737872 0.950952
vt 0.748466 0.951075
vt 0.401312 0.711879
vt 0.394481 0.677143
vt 0.569032 0.676826
vt 0.394361 0.676644
vt 0.568912 0.676327
vt 0.674096 0.704127
vt 0.771704 0.704922
vt 0.574344 0.663073
vt 0.773451 0.665064
vt 0.535668 0.916581
vt 0.587482 0.764349
vt 0.647039 0.916581
vt 0.665488 0.764349
vt 0.886436 0.984484
vt 0.652063 0.984484
vt 0.861334 0.890993
vt 0.677166 0.890993
vt 0.861334 0.826094
vt 0.677166 0.826094
vt 0.475922 0.951471
vt 0.508087 0.966833
vt 0.341372 0.951471
vt 0.309208 0.966833
vt 0.308909 0.829480
vt 0.662584 0.764439
vt 0.735471 0.764439
vt 0.726020 0.918649
vt 0.851108 0.764439
vt 0.860560 0.918649
vt 0.923995 0.764439
vt 0.665113 0.783127
vt 0.737872 0.957951
vt 0.727278 0.958073
vt 0.748466 0.958073
vt 0.798507 0.783004
vt 0.810682 0.783127
vt 0.638742 0.833950
vt 0.656960 0.812731
vt 0.575495 0.833950
vt 0.585408 0.812731
vt 0.424505 0.833950
vt 0.414592 0.812731
vt 0.361258 0.833950
vt 0.343040 0.812731
vt 0.570085 0.811191
vt 0.562652 0.841415
vt 0.723205 0.811191
vt 0.730638 0.841415
vt 0.535939 0.764349
vt 0.508386 0.829480
vt 0.677187 0.783004
vt 0.804595 0.774639
vt 0.671150 0.774639
vt 0.019393 0.047813
vt 0.573126 0.067052
vt 0.573126 0.394034
vt 0.033879 0.067052
vt 0.033879 0.394034
vt 0.461629 0.663922
vt 0.533563 0.663922
vt 0.414099 0.588594
vt 0.581093 0.588594
vt 0.414099 0.408761
vt 0.581093 0.408761
vt 0.461629 0.333432
vt 0.533563 0.333432
vt 1.316550 0.443313
vt 1.316550 1.258821
vt 1.101206 0.654227
vt 1.120815 1.115858
vt 0.943331 0.588336
vt 0.903090 1.114357
vt 0.803468 0.606632
vt 0.740038 1.050948
vt 0.683956 0.526738
vt 0.575176 1.128057
vt 0.417679 1.085528
vt 1.590298 1.157469
vt 1.032502 1.134163
vt 1.606830 0.926452
vt 0.958436 0.926452
vt 0.055155 0.148954
vt 0.616001 0.349273
vt 0.282064 0.338500
vt 0.333337 0.455502
vt 0.134116 0.593129
vt 0.235622 0.762824
vt 0.126578 0.333484
vt 0.207470 0.949340
vt 0.346394 0.619881
vt 0.612950 0.172260
vt 0.962269 0.232479
vt 0.409491 0.525368
vt 0.836338 0.540757
vt 0.409491 0.866018
vt 0.804908 0.923849
vt 0.409491 1.189599
vt 0.878577 1.248744
vt 0.409491 1.597012
vt 0.865159 1.695151
vt 0.409491 2.056972
vt 0.765209 2.124653
vt 0.409491 2.474135
vt 0.861157 2.411813
vt 0.409491 2.964665
vt 0.881104 2.748564
vt 0.409491 3.233478
vt 0.879970 3.018640
vt 0.876844 3.209582
vt 1.187585 3.064956
vt 1.280261 3.271888
vt 1.599352 3.024000
vt 1.963612 3.134630
vt 1.930105 2.942371
vt 2.160060 3.012686
vt 2.049946 2.645121
vt 2.308431 2.589569
vt 1.844070 2.519780
vt 2.327499 2.084489
vt 1.804686 2.340601
vt 1.989555 2.097338
vt 1.562889 2.079645
vt -0.001556 0.546808
vt 0.057754 1.020413
vt 0.155753 0.517185
vt 0.225320 1.078360
vt 0.516024 0.530460
vt 0.599733 1.053448
vt 1.249730 0.584356
vt 1.280420 1.153972
vt 1.819710 0.512239
vt 1.707658 1.248984
vt 1.863159 1.255128
vt 1.919573 3.300409
vt 2.268718 3.255309
vt 2.425267 3.093781
vt 1.388411 0.209747
vt 1.266539 0.420144
vt 1.172000 0.544791
vt 1.493386 0.605337
vt 1.196472 0.715333
vt 1.881290 0.896527
vt 1.248465 1.182091
vt 1.634517 1.263206
vt 1.232597 1.708724
vt 1.567405 1.700315
vt 1.162438 2.038446
vt 1.750277 0.682105
vt 1.838518 0.496976
vt 1.890236 0.319643
vt 2.172327 1.169810
vt 2.107935 1.348137
vt 2.484781 1.233898
vt 2.471762 1.380696
vt 2.783165 1.203013
vt 2.772681 1.372591
vt 3.171462 1.095393
vt 3.097510 1.358306
vt 3.520328 1.165152
vt 3.071288 1.547225
vt 3.566247 1.309692
vt 0.057754 0.956814
vt 0.055168 1.426139
vt 0.225320 0.996620
vt 0.213161 1.409342
vt 0.599733 0.979507
vt 0.562875 1.326195
vt 1.280420 1.048560
vt 1.064802 1.439016
vt 1.707658 1.113827
vt 1.656016 1.529523
vt 1.863159 1.118047
vt 1.852607 1.537962
vt 2.024720 1.058894
vt 2.054044 1.463585
vt 2.266833 1.121846
vt 2.284472 1.437111
vt 3.039445 1.762445
vt 2.332090 1.747126
vt 2.565105 2.023327
vt 0.456887 1.668293
vt 0.928075 1.725478
vt 1.615148 1.827434
vt 1.848255 1.786364
vt 2.000856 1.762156
vt 2.338233 3.394449
vt 2.342318 3.284420
vt 2.180769 3.451725
vt 2.758646 3.410013
vt 2.187323 3.284420
vt 2.768390 3.197873
vt 2.320411 3.093781
vt 3.065837 2.907532
vt 2.132954 2.589569
vt 2.599611 2.281390
vt 2.163547 2.084489
vt 2.643448 1.819557
vt 1.913403 1.717608
vt 2.363985 1.456761
vt 2.027766 0.572854
vt 2.024720 1.169015
vt 2.306151 0.727184
vt 2.266833 1.260658
vt 3.222576 0.651523
vt 3.161789 1.115182
vt 3.545159 0.588902
vt 3.484544 1.167057
vt 3.740710 0.607259
vt 3.692338 1.125165
vt 2.698405 3.410013
vt 2.962380 3.382996
vt 2.704479 3.197873
vt 3.062652 3.140215
vt 2.889868 2.907532
vt 3.197188 3.023004
vt 2.960916 2.496630
vt 3.222656 1.733726
vt 2.913919 1.688615
vt 2.834056 1.328782
vt 3.864774 2.905895
vt 3.982836 2.742400
vt 3.745843 2.507428
vt 3.914904 2.487901
vt 3.652291 2.257698
vt 3.818328 2.255540
vt 2.976291 1.328782
vt 3.104427 1.688615
vt 3.179831 2.496630
vt 3.929997 0.959119
vt 3.649412 1.028771
vt 3.950382 1.364622
vt 3.716227 1.454817
vt 4.068053 1.737887
vt 3.785323 1.768116
vt 3.950382 2.103813
vt 3.720549 2.037524
vt 3.929997 1.023768
vt 3.963832 0.643649
vt 3.649412 1.125165
vt 3.697785 0.607259
vt 3.161789 1.021914
vt 3.484544 1.057548
vt 3.550431 1.425573
vt 3.692338 1.028771
vt 3.759153 1.454817
vt 2.004808 1.782419
vt 2.031520 1.549983
vt 2.441939 1.550684
vt 2.739288 1.554840
vt 2.689658 1.675204
vt 2.418314 1.727105
vt 1.233499 2.414973
vt 1.178393 2.820929
vt 1.673638 2.696727
vt 1.879664 2.681717
vt 1.640275 2.879388
vt 0.181844 1.665073
vt 0.002778 1.762643
vt 3.788768 2.507428
vt 3.539056 2.477811
vt 3.907700 2.905895
vt 3.709125 2.840886
vt 2.873314 2.535151
vt 3.150364 2.268539
vt 2.608577 2.257215
vt 3.129583 2.053866
vt 3.763474 2.037524
vt 3.828249 1.768116
vt 3.553575 2.076732
vt 3.594805 1.804794
vt 3.466157 2.263571
vt 3.695216 2.257698
vt 2.010051 0.549055
vt 2.273437 0.438753
vt 2.338233 3.451725
vt 1.342117 1.758141
vt 2.851277 3.038142
vt 1.234944 1.996948
vt 0.409491 0.172951
vt 0.879562 2.758755
vt 0.383510 2.889946
vt 0.511863 2.665416
s 0
usemtl material1
f 14/1/1 12/2/1 11/3/1
f 10/4/1 11/3/1 12/2/1
f 7/4/2 5/3/2 4/2/2
f 2/1/2 4/2/2 5/3/2
f 1/5/3 8/6/3 3/7/3
f 6/5/4 9/6/4 13/8/4
f 27/3/5 24/1/5 26/4/5
f 23/2/5 26/4/5 24/1/5
f 19/2/6 16/4/6 17/1/6
f 15/3/6 17/1/6 16/4/6
f 18/8/7 28/5/7 21/6/7
f 20/6/8 22/7/8 25/5/8
usemtl material2
f 171/9/9 169/10/9 78/11/9
f 75/12/10 78/11/10 169/10/10
f 170/10/11 168/13/11 76/12/11
f 73/14/12 76/12/12 168/13/12
f 172/9/13 79/11/13 167/13/13
f 72/14/14 167/13/14 79/11/14
s 1
f 166/15/15 159/16/16 149/17/17
f 142/18/17 149/17/17 159/16/16
f 164/19/18 165/15/19 161/16/20
f 148/17/21 161/16/20 165/15/19
f 161/16/20 148/17/21 144/18/22
f 163/20/18 162/21/23 160/22/16
f 143/23/24 160/22/16 162/21/23
f 160/22/16 143/23/24 141/24/24
f 158/25/25 150/26/26 140/27/27
f 111/28/28 140/27/27 150/26/26
s 0
f 156/29/29 154/30/29 151/31/29
f 147/32/29 151/31/29 154/30/29
s 1
f 157/33/30 139/34/31 153/35/30
f 121/36/32 153/35/30 139/34/31
f 152/37/33 146/38/33 114/39/34
f 98/40/35 114/39/34 146/38/33
f 155/25/36 120/27/37 145/26/38
f 102/28/39 145/26/38 120/27/37
f 137/41/40 128/42/41 109/43/41
f 97/44/42 109/43/41 128/42/41
f 109/43/41 97/44/42 88/45/42
f 129/46/43 134/47/44 127/48/45
f 123/49/46 127/48/45 134/47/44
f 126/50/47 105/51/47 95/44/47
f 87/52/48 95/44/47 105/51/47
f 122/42/49 103/53/49 94/44/50
f 80/54/51 94/44/50 103/53/49
f 85/55/52 51/56/53 117/57/54
f 46/58/55 117/57/54 51/56/53
f 116/59/56 39/60/57 101/61/39
f 31/62/58 101/61/39 39/60/57
f 115/63/59 130/64/60 84/65/61
f 91/66/62 84/65/61 130/64/60
f 84/65/61 91/66/62 50/67/63
f 61/68/63 50/67/63 91/66/62
f 138/69/64 131/70/65 119/71/66
f 118/72/67 119/71/66 131/70/65
f 119/71/66 118/72/67 100/73/68
f 125/50/69 93/44/70 107/51/69
f 82/52/70 107/51/69 93/44/70
f 34/74/71 30/75/72 99/76/73
f 36/77/74 99/76/73 30/75/72
f 99/76/73 36/77/74 113/78/75
f 41/79/76 113/78/75 36/77/74
f 90/55/77 133/57/78 63/56/79
f 54/58/80 63/56/79 133/57/78
f 89/80/81 106/81/82 108/82/83
f 135/47/84 108/82/83 106/81/82
f 135/47/84 106/81/82 104/83/85
f 83/84/86 104/83/85 106/81/82
f 104/83/85 83/84/86 81/85/87
f 65/86/88 38/87/89 67/88/90
f 45/89/90 67/88/90 38/87/89
f 67/88/90 45/89/90 70/90/91
f 56/91/91 70/90/91 45/89/90
f 70/90/91 56/91/91 68/92/92
f 49/93/93 68/92/92 56/91/91
f 69/90/94 48/91/95 66/92/96
f 40/93/97 66/92/96 48/91/95
f 66/92/96 40/93/97 60/90/98
f 35/91/99 60/90/98 40/93/97
f 60/90/98 35/91/99 53/88/100
f 29/89/101 53/88/100 35/91/99
f 53/88/100 29/89/101 59/86/102
f 32/87/103 59/86/102 29/89/101
f 64/92/104 58/90/105 37/93/106
f 33/91/107 37/93/106 58/90/105
s 0
f 62/94/108 57/95/108 52/96/108
f 44/97/108 52/96/108 57/95/108
s 1
f 55/98/109 132/59/110 47/60/111
f 112/61/28 47/60/111 132/59/110
f 47/60/111 112/61/28 42/62/112
f 159/16/16 166/15/15 164/19/113
f 131/70/65 138/69/64 110/99/114
f 103/53/49 122/42/49 136/41/115
f 39/60/57 116/59/56 43/98/116
s 0
f 71/14/117 77/11/117 74/12/117
s 1
f 86/100/118 106/81/82 89/80/81
f 92/101/119 124/48/120 123/49/121
f 96/102/122 129/46/123 124/48/120
s 0
f 182/103/3 178/6/3 184/8/3
f 173/5/3 184/8/3 178/6/3
f 183/104/124 186/105/124 179/106/124
f 181/107/124 179/106/124 186/105/124
f 179/106/124 181/107/124 174/104/124
f 177/105/124 174/104/124 181/107/124
f 175/5/4 176/7/4 180/6/4
s 1
f 180/6/4 185/103/4 187/8/4
s 0
f 200/105/124 198/104/124 197/107/124
f 195/106/124 197/107/124 198/104/124
f 197/107/124 195/106/124 192/105/124
f 189/104/124 192/105/124 195/106/124
f 199/5/8 188/8/8 194/6/8
f 190/103/8 194/6/8 188/8/8
f 191/8/7 196/6/7 193/103/7
f 196/6/7 202/5/7 201/7/7
s 1
usemtl material3
f 210/108/125 209/109/126 208/110/127
f 207/111/128 208/110/127 209/109/126
f 208/110/127 207/111/128 206/112/127
f 205/113/100 206/112/127 207/111/128
f 206/112/127 205/113/100 204/114/129
f 203/115/130 204/114/129 205/113/100
usemtl material4
f 234/116/131 235/117/132 232/118/133
f 233/119/134 232/118/133 235/117/132
f 232/118/133 233/119/134 231/120/135
f 230/121/136 231/120/135 233/119/134
f 231/120/135 230/121/136 229/122/137
f 228/123/138 229/122/137 230/121/136
f 229/122/137 228/123/138 227/124/139
f 222/125/140 227/124/139 228/123/138
f 227/124/139 222/125/140 221/126/141
f 223/127/142 212/128/143 226/129/144
f 211/130/145 226/129/144 212/128/143
f 213/131/143 225/132/146 218/133/147
f 219/134/124 218/133/147 225/132/146
f 218/133/147 219/134/124 215/135/148
f 216/136/149 215/135/148 219/134/124
f 213/131/143 218/133/147 214/137/150
f 215/135/148 214/137/150 218/133/147
f 221/126/141 217/138/151 227/124/139
f 216/136/149 227/124/139 217/138/151
f 227/124/139 216/136/149 220/139/124
f 219/134/124 220/139/124 216/136/149
f 220/139/124 219/134/124 225/132/146
f 220/139/124 225/132/146 227/124/139
f 213/131/143 224/140/152 225/132/146
usemtl material5
f 406/141/153 425/142/154 415/143/155
f 417/144/156 415/143/155 425/142/154
f 415/143/155 417/144/156 416/145/157
f 424/146/158 416/145/157 417/144/156
f 416/145/157 424/146/158 413/147/159
f 421/148/160 413/147/159 424/146/158
f 413/147/159 421/148/160 411/149/161
f 420/150/162 411/149/161 421/148/160
f 411/149/161 420/150/162 414/151/163
f 419/152/164 414/151/163 420/150/162
f 414/151/163 419/152/164 412/153/165
f 418/154/166 412/153/165 419/152/164
f 412/153/165 418/154/166 407/155/167
f 426/156/168 407/155/167 418/154/166
f 407/155/167 426/156/168 408/157/169
f 410/158/170 408/157/169 426/156/168
f 408/157/169 410/158/170 398/159/171
f 394/160/172 398/159/171 410/158/170
f 398/159/171 394/160/172 384/161/173
f 351/162/174 384/161/173 394/160/172
f 384/161/173 351/162/174 354/163/175
f 343/164/176 354/163/175 351/162/174
f 354/163/175 343/164/176 346/165/177
f 342/166/178 346/165/177 343/164/176
f 346/165/177 342/166/178 361/167/179
f 339/168/180 361/167/179 342/166/178
f 361/167/179 339/168/180 364/169/181
f 350/170/182 364/169/181 339/168/180
f 364/169/181 350/170/182 379/171/183
f 387/172/184 345/173/133 397/174/185
f 366/175/186 397/174/185 345/173/133
f 397/174/185 366/175/186 403/176/187
f 374/177/188 403/176/187 366/175/186
f 403/176/187 374/177/188 393/178/189
f 376/179/190 393/178/189 374/177/188
f 393/178/189 376/179/190 360/180/191
f 356/181/192 360/180/191 376/179/190
f 360/180/191 356/181/192 323/182/193
f 394/160/172 357/183/194 351/162/174
f 338/184/195 351/162/174 357/183/194
f 351/162/174 338/184/195 343/164/176
f 334/185/196 343/164/176 338/184/195
f 343/164/176 334/185/196 342/166/178
f 392/186/146 415/143/155 401/187/197
f 405/188/198 401/187/197 415/143/155
f 401/187/197 405/188/198 391/189/199
f 404/190/200 391/189/199 405/188/198
f 391/189/199 404/190/200 386/191/201
f 402/192/202 386/191/201 404/190/200
f 386/191/201 402/192/202 390/193/203
f 396/194/204 390/193/203 402/192/202
f 390/193/203 396/194/204 378/195/205
f 400/196/206 378/195/205 396/194/204
f 378/195/205 400/196/206 379/171/183
f 364/169/181 379/171/183 400/196/206
f 386/191/201 389/197/207 391/189/199
f 382/198/208 391/189/199 389/197/207
f 391/189/199 382/198/208 401/187/197
f 369/199/209 401/187/197 382/198/208
f 401/187/197 369/199/209 392/186/146
f 386/191/201 390/193/203 363/200/210
f 368/201/211 363/200/210 390/193/203
f 363/200/210 368/201/211 324/202/212
f 326/203/213 324/202/212 368/201/211
f 324/202/212 326/203/213 319/204/214
f 320/205/215 319/204/214 326/203/213
f 319/204/214 320/205/215 285/206/216
f 286/207/217 285/206/216 320/205/215
f 285/206/216 286/207/217 258/208/218
f 289/209/219 258/208/218 286/207/217
f 258/208/218 289/209/219 252/210/220
f 344/211/221 358/212/135 367/213/222
f 370/214/223 367/213/222 358/212/135
f 367/213/222 370/214/223 375/215/188
f 383/216/224 375/215/188 370/214/223
f 375/215/188 383/216/224 377/217/225
f 381/218/226 377/217/225 383/216/224
f 377/217/225 381/218/226 355/219/227
f 365/220/228 355/219/227 381/218/226
f 355/219/227 365/220/228 322/221/229
f 327/222/230 322/221/229 365/220/228
f 322/221/229 327/222/230 316/223/231
f 314/224/232 316/223/231 327/222/230
f 316/223/231 314/224/232 280/225/233
f 272/226/234 280/225/233 314/224/232
f 280/225/233 272/226/234 256/227/235
f 284/228/236 256/227/235 272/226/234
f 256/227/235 284/228/236 257/229/237
f 370/214/223 388/230/238 383/216/224
f 381/218/226 383/216/224 388/230/238
f 381/218/226 385/231/239 365/220/228
f 362/232/240 365/220/228 385/231/239
f 365/220/228 362/232/240 327/222/230
f 325/233/241 327/222/230 362/232/240
f 327/222/230 325/233/241 314/224/232
f 318/234/242 314/224/232 325/233/241
f 314/224/232 318/234/242 272/226/234
f 284/228/236 272/226/234 318/234/242
f 332/235/243 328/236/244 338/184/195
f 334/185/196 338/184/195 328/236/244
f 331/237/245 310/238/246 329/239/247
f 306/240/248 329/239/247 310/238/246
f 329/239/247 306/240/248 335/241/249
f 303/242/250 335/241/249 306/240/248
f 335/241/249 303/242/250 341/243/251
f 313/244/252 341/243/251 303/242/250
f 341/243/251 313/244/252 340/245/253
f 312/246/254 340/245/253 313/244/252
f 340/245/253 312/246/254 336/247/255
f 307/248/256 336/247/255 312/246/254
f 360/180/191 323/182/193 317/249/257
f 315/250/258 317/249/257 323/182/193
f 317/249/257 315/250/258 242/251/259
f 279/252/260 242/251/259 315/250/258
f 242/251/259 279/252/260 236/253/261
f 249/254/262 236/253/261 279/252/260
f 236/253/261 249/254/262 237/255/263
f 254/256/264 237/255/263 249/254/262
f 237/255/263 254/256/264 238/257/265
f 263/258/266 238/257/265 254/256/264
f 311/259/246 296/260/267 305/261/268
f 294/262/269 305/261/268 296/260/267
f 305/261/268 294/262/269 304/263/270
f 278/264/271 304/263/270 294/262/269
f 304/263/270 278/264/271 300/265/272
f 273/266/273 300/265/272 278/264/271
f 300/265/272 273/266/273 302/267/274
f 290/268/275 302/267/274 273/266/273
f 292/269/276 297/270/277 269/271/278
f 288/272/279 269/271/278 297/270/277
f 269/271/278 288/272/279 244/273/280
f 276/274/281 244/273/280 288/272/279
f 291/275/282 307/248/256 301/276/283
f 312/246/254 301/276/283 307/248/256
f 301/276/283 312/246/254 313/244/252
f 301/276/283 313/244/252 299/277/284
f 303/242/250 299/277/284 313/244/252
f 281/278/134 262/279/285 283/280/286
f 266/281/287 283/280/286 262/279/285
f 283/280/286 266/281/287 295/282/288
f 270/283/289 295/282/288 266/281/287
f 295/282/288 270/283/289 275/284/290
f 260/285/291 275/284/290 270/283/289
f 275/284/290 260/285/291 244/273/292
f 282/286/293 247/287/294 265/288/295
f 239/289/296 265/288/295 247/287/294
f 248/290/297 256/227/235 255/291/298
f 250/292/299 255/291/298 256/227/235
f 255/291/298 250/292/299 264/293/300
f 267/294/301 264/293/300 250/292/299
f 339/168/302 348/295/303 349/170/304
f 379/171/183 349/170/304 348/295/303
f 390/193/203 378/195/205 368/201/211
f 347/296/305 368/201/211 378/195/205
f 368/201/211 347/296/305 326/203/213
f 330/297/306 326/203/213 347/296/305
f 326/203/213 330/297/306 320/205/215
f 321/298/307 320/205/215 330/297/306
f 320/205/215 321/298/307 286/207/217
f 289/209/219 286/207/217 321/298/307
f 289/209/219 321/298/307 308/299/308
f 337/300/309 308/299/308 321/298/307
f 347/296/305 348/295/303 330/297/306
f 337/300/309 330/297/306 348/295/303
f 330/297/306 337/300/309 321/298/307
f 347/296/305 378/195/205 348/295/303
f 379/171/183 348/295/303 378/195/205
f 405/188/198 416/145/157 404/190/200
f 413/147/159 404/190/200 416/145/157
f 404/190/200 413/147/159 402/192/202
f 411/149/161 402/192/202 413/147/159
f 402/192/202 411/149/161 396/194/204
f 414/151/163 396/194/204 411/149/161
f 396/194/204 414/151/163 400/196/206
f 412/153/165 400/196/206 414/151/163
f 400/196/206 412/153/165 395/301/310
f 407/155/167 395/301/310 412/153/165
f 395/301/310 407/155/167 399/302/311
f 408/157/169 399/302/311 407/155/167
f 399/302/311 408/157/169 398/159/171
f 364/169/181 395/301/310 361/167/179
f 371/303/312 361/167/179 395/301/310
f 361/167/179 371/303/312 359/304/313
f 380/305/314 359/304/313 371/303/312
f 359/304/313 380/305/314 354/163/175
f 384/161/173 354/163/175 380/305/314
f 354/163/175 346/165/177 359/304/313
f 361/167/179 359/304/313 346/165/177
f 371/303/312 399/302/311 380/305/314
f 398/159/171 380/305/314 399/302/311
f 380/305/314 398/159/171 384/161/173
f 372/306/315 370/214/223 352/307/137
f 358/212/135 352/307/137 370/214/223
f 268/308/316 253/309/317 293/310/318
f 277/311/319 293/310/318 253/309/317
f 277/311/319 253/309/317 274/312/320
f 246/313/321 274/312/320 253/309/317
f 274/312/320 246/313/321 251/314/322
f 241/315/323 251/314/322 246/313/321
f 251/314/322 241/315/323 257/229/237
f 256/227/235 257/229/237 241/315/323
f 261/316/324 271/317/325 243/318/326
f 259/319/327 243/318/326 271/317/325
f 243/318/326 259/319/327 241/315/323
f 256/227/235 241/315/323 259/319/327
f 271/317/325 267/294/301 259/319/327
f 250/292/299 259/319/327 267/294/301
f 259/319/327 250/292/299 256/227/235
f 246/313/321 253/309/317 240/320/328
f 268/308/316 240/320/328 253/309/317
f 240/320/328 268/308/316 245/321/329
f 240/320/328 243/318/326 246/313/321
f 241/315/323 246/313/321 243/318/326
f 240/320/328 245/321/329 243/318/326
f 261/316/324 243/318/326 245/321/329
f 382/198/208 373/322/330 369/199/209
f 353/323/331 369/199/209 373/322/330
f 415/143/155 416/145/157 405/188/198
f 406/141/153 415/143/155 392/186/146
f 395/301/310 399/302/311 371/303/312
f 382/198/208 389/197/207 373/322/330
f 381/218/226 388/230/238 385/231/239
f 370/214/223 372/306/315 388/230/238
f 364/169/181 400/196/206 395/301/310
f 338/184/195 357/183/194 333/324/332
f 337/300/309 348/295/303 339/168/302
f 248/290/297 280/225/233 256/227/235
f 252/210/333 290/268/275 273/266/273
f 287/325/279 298/326/334 309/327/335
f 406/141/153 427/328/336 425/142/154
f 409/329/337 422/330/338 423/331/339
