# Ghost Studio original procedural Rhen Var asset
# Units: metres; up axis: Z
mtllib rv_broken_pillar.mtl
o rv_broken_pillar
v 1.039364 0.430519 0.000000
v 0.430519 1.039364 0.000000
v 0.401818 0.970074 0.450000
v 1.039364 0.430519 0.000000
v 0.401818 0.970074 0.450000
v 0.970074 0.401818 0.450000
v 0.430519 1.039364 0.000000
v -0.430519 1.039364 0.000000
v -0.401818 0.970074 0.450000
v 0.430519 1.039364 0.000000
v -0.401818 0.970074 0.450000
v 0.401818 0.970074 0.450000
v -0.430519 1.039364 0.000000
v -1.039364 0.430519 0.000000
v -0.970074 0.401818 0.450000
v -0.430519 1.039364 0.000000
v -0.970074 0.401818 0.450000
v -0.401818 0.970074 0.450000
v -1.039364 0.430519 0.000000
v -1.039364 -0.430519 0.000000
v -0.970074 -0.401818 0.450000
v -1.039364 0.430519 0.000000
v -0.970074 -0.401818 0.450000
v -0.970074 0.401818 0.450000
v -1.039364 -0.430519 0.000000
v -0.430519 -1.039364 0.000000
v -0.401818 -0.970074 0.450000
v -1.039364 -0.430519 0.000000
v -0.401818 -0.970074 0.450000
v -0.970074 -0.401818 0.450000
v -0.430519 -1.039364 0.000000
v 0.430519 -1.039364 0.000000
v 0.401818 -0.970074 0.450000
v -0.430519 -1.039364 0.000000
v 0.401818 -0.970074 0.450000
v -0.401818 -0.970074 0.450000
v 0.430519 -1.039364 0.000000
v 1.039364 -0.430519 0.000000
v 0.970074 -0.401818 0.450000
v 0.430519 -1.039364 0.000000
v 0.970074 -0.401818 0.450000
v 0.401818 -0.970074 0.450000
v 1.039364 -0.430519 0.000000
v 1.039364 0.430519 0.000000
v 0.970074 0.401818 0.450000
v 1.039364 -0.430519 0.000000
v 0.970074 0.401818 0.450000
v 0.970074 -0.401818 0.450000
v 0.000000 0.000000 0.450000
v 0.970074 0.401818 0.450000
v 0.401818 0.970074 0.450000
v 0.000000 0.000000 0.000000
v 0.430519 1.039364 0.000000
v 1.039364 0.430519 0.000000
v 0.000000 0.000000 0.450000
v 0.401818 0.970074 0.450000
v -0.401818 0.970074 0.450000
v 0.000000 0.000000 0.000000
v -0.430519 1.039364 0.000000
v 0.430519 1.039364 0.000000
v 0.000000 0.000000 0.450000
v -0.401818 0.970074 0.450000
v -0.970074 0.401818 0.450000
v 0.000000 0.000000 0.000000
v -1.039364 0.430519 0.000000
v -0.430519 1.039364 0.000000
v 0.000000 0.000000 0.450000
v -0.970074 0.401818 0.450000
v -0.970074 -0.401818 0.450000
v 0.000000 0.000000 0.000000
v -1.039364 -0.430519 0.000000
v -1.039364 0.430519 0.000000
v 0.000000 0.000000 0.450000
v -0.970074 -0.401818 0.450000
v -0.401818 -0.970074 0.450000
v 0.000000 0.000000 0.000000
v -0.430519 -1.039364 0.000000
v -1.039364 -0.430519 0.000000
v 0.000000 0.000000 0.450000
v -0.401818 -0.970074 0.450000
v 0.401818 -0.970074 0.450000
v 0.000000 0.000000 0.000000
v 0.430519 -1.039364 0.000000
v -0.430519 -1.039364 0.000000
v 0.000000 0.000000 0.450000
v 0.401818 -0.970074 0.450000
v 0.970074 -0.401818 0.450000
v 0.000000 0.000000 0.000000
v 1.039364 -0.430519 0.000000
v 0.430519 -1.039364 0.000000
v 0.000000 0.000000 0.450000
v 0.970074 -0.401818 0.450000
v 0.970074 0.401818 0.450000
v 0.000000 0.000000 0.000000
v 1.039364 0.430519 0.000000
v 1.039364 -0.430519 0.000000
v 0.854589 0.353982 0.450000
v 0.353982 0.854589 0.450000
v 0.315714 0.762201 0.820000
v 0.854589 0.353982 0.450000
v 0.315714 0.762201 0.820000
v 0.762201 0.315714 0.820000
v 0.353982 0.854589 0.450000
v -0.353982 0.854589 0.450000
v -0.315714 0.762201 0.820000
v 0.353982 0.854589 0.450000
v -0.315714 0.762201 0.820000
v 0.315714 0.762201 0.820000
v -0.353982 0.854589 0.450000
v -0.854589 0.353982 0.450000
v -0.762201 0.315714 0.820000
v -0.353982 0.854589 0.450000
v -0.762201 0.315714 0.820000
v -0.315714 0.762201 0.820000
v -0.854589 0.353982 0.450000
v -0.854589 -0.353982 0.450000
v -0.762201 -0.315714 0.820000
v -0.854589 0.353982 0.450000
v -0.762201 -0.315714 0.820000
v -0.762201 0.315714 0.820000
v -0.854589 -0.353982 0.450000
v -0.353982 -0.854589 0.450000
v -0.315714 -0.762201 0.820000
v -0.854589 -0.353982 0.450000
v -0.315714 -0.762201 0.820000
v -0.762201 -0.315714 0.820000
v -0.353982 -0.854589 0.450000
v 0.353982 -0.854589 0.450000
v 0.315714 -0.762201 0.820000
v -0.353982 -0.854589 0.450000
v 0.315714 -0.762201 0.820000
v -0.315714 -0.762201 0.820000
v 0.353982 -0.854589 0.450000
v 0.854589 -0.353982 0.450000
v 0.762201 -0.315714 0.820000
v 0.353982 -0.854589 0.450000
v 0.762201 -0.315714 0.820000
v 0.315714 -0.762201 0.820000
v 0.854589 -0.353982 0.450000
v 0.854589 0.353982 0.450000
v 0.762201 0.315714 0.820000
v 0.854589 -0.353982 0.450000
v 0.762201 0.315714 0.820000
v 0.762201 -0.315714 0.820000
v 0.000000 0.000000 0.820000
v 0.762201 0.315714 0.820000
v 0.315714 0.762201 0.820000
v 0.000000 0.000000 0.450000
v 0.353982 0.854589 0.450000
v 0.854589 0.353982 0.450000
v 0.000000 0.000000 0.820000
v 0.315714 0.762201 0.820000
v -0.315714 0.762201 0.820000
v 0.000000 0.000000 0.450000
v -0.353982 0.854589 0.450000
v 0.353982 0.854589 0.450000
v 0.000000 0.000000 0.820000
v -0.315714 0.762201 0.820000
v -0.762201 0.315714 0.820000
v 0.000000 0.000000 0.450000
v -0.854589 0.353982 0.450000
v -0.353982 0.854589 0.450000
v 0.000000 0.000000 0.820000
v -0.762201 0.315714 0.820000
v -0.762201 -0.315714 0.820000
v 0.000000 0.000000 0.450000
v -0.854589 -0.353982 0.450000
v -0.854589 0.353982 0.450000
v 0.000000 0.000000 0.820000
v -0.762201 -0.315714 0.820000
v -0.315714 -0.762201 0.820000
v 0.000000 0.000000 0.450000
v -0.353982 -0.854589 0.450000
v -0.854589 -0.353982 0.450000
v 0.000000 0.000000 0.820000
v -0.315714 -0.762201 0.820000
v 0.315714 -0.762201 0.820000
v 0.000000 0.000000 0.450000
v 0.353982 -0.854589 0.450000
v -0.353982 -0.854589 0.450000
v 0.000000 0.000000 0.820000
v 0.315714 -0.762201 0.820000
v 0.762201 -0.315714 0.820000
v 0.000000 0.000000 0.450000
v 0.854589 -0.353982 0.450000
v 0.353982 -0.854589 0.450000
v 0.000000 0.000000 0.820000
v 0.762201 -0.315714 0.820000
v 0.762201 0.315714 0.820000
v 0.000000 0.000000 0.450000
v 0.854589 0.353982 0.450000
v 0.854589 -0.353982 0.450000
v 0.655954 0.271705 0.820000
v 0.271705 0.655954 0.820000
v 0.225783 0.545089 4.350000
v 0.655954 0.271705 0.820000
v 0.225783 0.545089 4.350000
v 0.545089 0.225783 4.350000
v 0.271705 0.655954 0.820000
v -0.271705 0.655954 0.820000
v -0.225783 0.545089 4.350000
v 0.271705 0.655954 0.820000
v -0.225783 0.545089 4.350000
v 0.225783 0.545089 4.350000
v -0.271705 0.655954 0.820000
v -0.655954 0.271705 0.820000
v -0.545089 0.225783 4.350000
v -0.271705 0.655954 0.820000
v -0.545089 0.225783 4.350000
v -0.225783 0.545089 4.350000
v -0.655954 0.271705 0.820000
v -0.655954 -0.271705 0.820000
v -0.545089 -0.225783 4.350000
v -0.655954 0.271705 0.820000
v -0.545089 -0.225783 4.350000
v -0.545089 0.225783 4.350000
v -0.655954 -0.271705 0.820000
v -0.271705 -0.655954 0.820000
v -0.225783 -0.545089 4.350000
v -0.655954 -0.271705 0.820000
v -0.225783 -0.545089 4.350000
v -0.545089 -0.225783 4.350000
v -0.271705 -0.655954 0.820000
v 0.271705 -0.655954 0.820000
v 0.225783 -0.545089 4.350000
v -0.271705 -0.655954 0.820000
v 0.225783 -0.545089 4.350000
v -0.225783 -0.545089 4.350000
v 0.271705 -0.655954 0.820000
v 0.655954 -0.271705 0.820000
v 0.545089 -0.225783 4.350000
v 0.271705 -0.655954 0.820000
v 0.545089 -0.225783 4.350000
v 0.225783 -0.545089 4.350000
v 0.655954 -0.271705 0.820000
v 0.655954 0.271705 0.820000
v 0.545089 0.225783 4.350000
v 0.655954 -0.271705 0.820000
v 0.545089 0.225783 4.350000
v 0.545089 -0.225783 4.350000
v 0.000000 0.000000 4.350000
v 0.545089 0.225783 4.350000
v 0.225783 0.545089 4.350000
v 0.000000 0.000000 0.820000
v 0.271705 0.655954 0.820000
v 0.655954 0.271705 0.820000
v 0.000000 0.000000 4.350000
v 0.225783 0.545089 4.350000
v -0.225783 0.545089 4.350000
v 0.000000 0.000000 0.820000
v -0.271705 0.655954 0.820000
v 0.271705 0.655954 0.820000
v 0.000000 0.000000 4.350000
v -0.225783 0.545089 4.350000
v -0.545089 0.225783 4.350000
v 0.000000 0.000000 0.820000
v -0.655954 0.271705 0.820000
v -0.271705 0.655954 0.820000
v 0.000000 0.000000 4.350000
v -0.545089 0.225783 4.350000
v -0.545089 -0.225783 4.350000
v 0.000000 0.000000 0.820000
v -0.655954 -0.271705 0.820000
v -0.655954 0.271705 0.820000
v 0.000000 0.000000 4.350000
v -0.545089 -0.225783 4.350000
v -0.225783 -0.545089 4.350000
v 0.000000 0.000000 0.820000
v -0.271705 -0.655954 0.820000
v -0.655954 -0.271705 0.820000
v 0.000000 0.000000 4.350000
v -0.225783 -0.545089 4.350000
v 0.225783 -0.545089 4.350000
v 0.000000 0.000000 0.820000
v 0.271705 -0.655954 0.820000
v -0.271705 -0.655954 0.820000
v 0.000000 0.000000 4.350000
v 0.225783 -0.545089 4.350000
v 0.545089 -0.225783 4.350000
v 0.000000 0.000000 0.820000
v 0.655954 -0.271705 0.820000
v 0.271705 -0.655954 0.820000
v 0.000000 0.000000 4.350000
v 0.545089 -0.225783 4.350000
v 0.545089 0.225783 4.350000
v 0.000000 0.000000 0.820000
v 0.655954 0.271705 0.820000
v 0.655954 -0.271705 0.820000
v 0.666716 0.257878 4.350000
v 0.213785 0.662642 4.350000
v 0.165339 0.518505 4.750000
v 0.666716 0.257878 4.350000
v 0.165339 0.518505 4.750000
v 0.505037 0.200476 4.750000
v 0.213785 0.662642 4.350000
v -0.385070 0.560893 4.350000
v -0.283802 0.438558 4.750000
v 0.213785 0.662642 4.350000
v -0.283802 0.438558 4.750000
v 0.165339 0.518505 4.750000
v -0.385070 0.560893 4.350000
v -0.678899 0.029249 4.350000
v -0.504174 0.020839 4.750000
v -0.385070 0.560893 4.350000
v -0.504174 0.020839 4.750000
v -0.283802 0.438558 4.750000
v -0.678899 0.029249 4.350000
v -0.446443 -0.531950 4.350000
v -0.329832 -0.420103 4.750000
v -0.678899 0.029249 4.350000
v -0.329832 -0.420103 4.750000
v -0.504174 0.020839 4.750000
v -0.446443 -0.531950 4.350000
v 0.137254 -0.700110 4.350000
v 0.107941 -0.552229 4.750000
v -0.446443 -0.531950 4.350000
v 0.107941 -0.552229 4.750000
v -0.329832 -0.420103 4.750000
v 0.137254 -0.700110 4.350000
v 0.632656 -0.348603 4.350000
v 0.479492 -0.276045 4.750000
v 0.137254 -0.700110 4.350000
v 0.479492 -0.276045 4.750000
v 0.107941 -0.552229 4.750000
v 0.632656 -0.348603 4.350000
v 0.666716 0.257878 4.350000
v 0.505037 0.200476 4.750000
v 0.632656 -0.348603 4.350000
v 0.505037 0.200476 4.750000
v 0.479492 -0.276045 4.750000
v 0.020000 -0.010000 4.750000
v 0.505037 0.200476 4.750000
v 0.165339 0.518505 4.750000
v 0.020000 -0.010000 4.350000
v 0.213785 0.662642 4.350000
v 0.666716 0.257878 4.350000
v 0.020000 -0.010000 4.750000
v 0.165339 0.518505 4.750000
v -0.283802 0.438558 4.750000
v 0.020000 -0.010000 4.350000
v -0.385070 0.560893 4.350000
v 0.213785 0.662642 4.350000
v 0.020000 -0.010000 4.750000
v -0.283802 0.438558 4.750000
v -0.504174 0.020839 4.750000
v 0.020000 -0.010000 4.350000
v -0.678899 0.029249 4.350000
v -0.385070 0.560893 4.350000
v 0.020000 -0.010000 4.750000
v -0.504174 0.020839 4.750000
v -0.329832 -0.420103 4.750000
v 0.020000 -0.010000 4.350000
v -0.446443 -0.531950 4.350000
v -0.678899 0.029249 4.350000
v 0.020000 -0.010000 4.750000
v -0.329832 -0.420103 4.750000
v 0.107941 -0.552229 4.750000
v 0.020000 -0.010000 4.350000
v 0.137254 -0.700110 4.350000
v -0.446443 -0.531950 4.350000
v 0.020000 -0.010000 4.750000
v 0.107941 -0.552229 4.750000
v 0.479492 -0.276045 4.750000
v 0.020000 -0.010000 4.350000
v 0.632656 -0.348603 4.350000
v 0.137254 -0.700110 4.350000
v 0.020000 -0.010000 4.750000
v 0.479492 -0.276045 4.750000
v 0.505037 0.200476 4.750000
v 0.020000 -0.010000 4.350000
v 0.666716 0.257878 4.350000
v 0.632656 -0.348603 4.350000
v -0.357475 0.550000 -0.022897
v -0.455495 0.745895 -0.027352
v -0.323094 0.812248 0.247902
v -0.357475 0.550000 -0.022897
v -0.323094 0.812248 0.247902
v -0.250716 0.550000 0.201689
v -0.455495 0.745895 -0.027352
v -0.650000 0.773632 0.030487
v -0.650000 0.893724 0.276118
v -0.455495 0.745895 -0.027352
v -0.650000 0.893724 0.276118
v -0.323094 0.812248 0.247902
v -0.650000 0.773632 0.030487
v -0.854881 0.735973 0.018891
v -0.931244 0.854826 0.222075
v -0.650000 0.773632 0.030487
v -0.931244 0.854826 0.222075
v -0.650000 0.893724 0.276118
v -0.854881 0.735973 0.018891
v -0.927230 0.550000 -0.035730
v -1.116592 0.550000 0.208856
v -0.854881 0.735973 0.018891
v -1.116592 0.550000 0.208856
v -0.931244 0.854826 0.222075
v -0.927230 0.550000 -0.035730
v -0.891328 0.392114 -0.008976
v -1.000668 0.305523 0.266568
v -0.927230 0.550000 -0.035730
v -1.000668 0.305523 0.266568
v -1.116592 0.550000 0.208856
v -0.891328 0.392114 -0.008976
v -0.650000 0.284510 0.038221
v -0.650000 0.117562 0.263771
v -0.891328 0.392114 -0.008976
v -0.650000 0.117562 0.263771
v -1.000668 0.305523 0.266568
v -0.650000 0.284510 0.038221
v -0.452346 0.357227 -0.001631
v -0.317095 0.292478 0.206836
v -0.650000 0.284510 0.038221
v -0.317095 0.292478 0.206836
v -0.650000 0.117562 0.263771
v -0.452346 0.357227 -0.001631
v -0.357475 0.550000 -0.022897
v -0.250716 0.550000 0.201689
v -0.452346 0.357227 -0.001631
v -0.250716 0.550000 0.201689
v -0.317095 0.292478 0.206836
v -0.250716 0.550000 0.201689
v -0.323094 0.812248 0.247902
v -0.550771 0.616664 0.515890
v -0.250716 0.550000 0.201689
v -0.550771 0.616664 0.515890
v -0.538238 0.550000 0.461498
v -0.323094 0.812248 0.247902
v -0.650000 0.893724 0.276118
v -0.650000 0.655586 0.488542
v -0.323094 0.812248 0.247902
v -0.650000 0.655586 0.488542
v -0.550771 0.616664 0.515890
v -0.650000 0.893724 0.276118
v -0.931244 0.854826 0.222075
v -0.729477 0.633231 0.441739
v -0.650000 0.893724 0.276118
v -0.729477 0.633231 0.441739
v -0.650000 0.655586 0.488542
v -0.931244 0.854826 0.222075
v -1.116592 0.550000 0.208856
v -0.790878 0.550000 0.482075
v -0.931244 0.854826 0.222075
v -0.790878 0.550000 0.482075
v -0.729477 0.633231 0.441739
v -1.116592 0.550000 0.208856
v -1.000668 0.305523 0.266568
v -0.737749 0.474614 0.517685
v -1.116592 0.550000 0.208856
v -0.737749 0.474614 0.517685
v -0.790878 0.550000 0.482075
v -1.000668 0.305523 0.266568
v -0.650000 0.117562 0.263771
v -0.650000 0.433032 0.467467
v -1.000668 0.305523 0.266568
v -0.650000 0.433032 0.467467
v -0.737749 0.474614 0.517685
v -0.650000 0.117562 0.263771
v -0.317095 0.292478 0.206836
v -0.550056 0.483813 0.445793
v -0.650000 0.117562 0.263771
v -0.550056 0.483813 0.445793
v -0.650000 0.433032 0.467467
v -0.317095 0.292478 0.206836
v -0.250716 0.550000 0.201689
v -0.538238 0.550000 0.461498
v -0.317095 0.292478 0.206836
v -0.538238 0.550000 0.461498
v -0.550056 0.483813 0.445793
v -0.650000 0.550000 0.000000
v -0.455495 0.745895 -0.027352
v -0.357475 0.550000 -0.022897
v -0.650000 0.550000 0.518400
v -0.538238 0.550000 0.461498
v -0.550771 0.616664 0.515890
v -0.650000 0.550000 0.000000
v -0.650000 0.773632 0.030487
v -0.455495 0.745895 -0.027352
v -0.650000 0.550000 0.518400
v -0.550771 0.616664 0.515890
v -0.650000 0.655586 0.488542
v -0.650000 0.550000 0.000000
v -0.854881 0.735973 0.018891
v -0.650000 0.773632 0.030487
v -0.650000 0.550000 0.518400
v -0.650000 0.655586 0.488542
v -0.729477 0.633231 0.441739
v -0.650000 0.550000 0.000000
v -0.927230 0.550000 -0.035730
v -0.854881 0.735973 0.018891
v -0.650000 0.550000 0.518400
v -0.729477 0.633231 0.441739
v -0.790878 0.550000 0.482075
v -0.650000 0.550000 0.000000
v -0.891328 0.392114 -0.008976
v -0.927230 0.550000 -0.035730
v -0.650000 0.550000 0.518400
v -0.790878 0.550000 0.482075
v -0.737749 0.474614 0.517685
v -0.650000 0.550000 0.000000
v -0.650000 0.284510 0.038221
v -0.891328 0.392114 -0.008976
v -0.650000 0.550000 0.518400
v -0.737749 0.474614 0.517685
v -0.650000 0.433032 0.467467
v -0.650000 0.550000 0.000000
v -0.452346 0.357227 -0.001631
v -0.650000 0.284510 0.038221
v -0.650000 0.550000 0.518400
v -0.650000 0.433032 0.467467
v -0.550056 0.483813 0.445793
v -0.650000 0.550000 0.000000
v -0.357475 0.550000 -0.022897
v -0.452346 0.357227 -0.001631
v -0.650000 0.550000 0.518400
v -0.550056 0.483813 0.445793
v -0.538238 0.550000 0.461498
v 1.010787 0.250000 0.028984
v 0.898722 0.406632 -0.013104
v 0.962918 0.509288 0.159838
v 1.010787 0.250000 0.028984
v 0.962918 0.509288 0.159838
v 1.151587 0.250000 0.197942
v 0.898722 0.406632 -0.013104
v 0.720000 0.488921 -0.025347
v 0.720000 0.570383 0.190428
v 0.898722 0.406632 -0.013104
v 0.720000 0.570383 0.190428
v 0.962918 0.509288 0.159838
v 0.720000 0.488921 -0.025347
v 0.513831 0.385780 0.020138
v 0.416307 0.457399 0.220044
v 0.720000 0.488921 -0.025347
v 0.416307 0.457399 0.220044
v 0.720000 0.570383 0.190428
v 0.513831 0.385780 0.020138
v 0.469670 0.250000 0.019758
v 0.377998 0.250000 0.181235
v 0.513831 0.385780 0.020138
v 0.377998 0.250000 0.181235
v 0.416307 0.457399 0.220044
v 0.469670 0.250000 0.019758
v 0.553067 0.082306 -0.025621
v 0.439355 0.025568 0.162389
v 0.469670 0.250000 0.019758
v 0.439355 0.025568 0.162389
v 0.377998 0.250000 0.181235
v 0.553067 0.082306 -0.025621
v 0.720000 0.058374 -0.012648
v 0.720000 -0.044901 0.206428
v 0.553067 0.082306 -0.025621
v 0.720000 -0.044901 0.206428
v 0.439355 0.025568 0.162389
v 0.720000 0.058374 -0.012648
v 0.895332 0.090340 0.029131
v 0.960926 -0.011431 0.213052
v 0.720000 0.058374 -0.012648
v 0.960926 -0.011431 0.213052
v 0.720000 -0.044901 0.206428
v 0.895332 0.090340 0.029131
v 1.010787 0.250000 0.028984
v 1.151587 0.250000 0.197942
v 0.895332 0.090340 0.029131
v 1.151587 0.250000 0.197942
v 0.960926 -0.011431 0.213052
v 1.151587 0.250000 0.197942
v 0.962918 0.509288 0.159838
v 0.787453 0.322050 0.360511
v 1.151587 0.250000 0.197942
v 0.787453 0.322050 0.360511
v 0.829296 0.250000 0.359599
v 0.962918 0.509288 0.159838
v 0.720000 0.570383 0.190428
v 0.720000 0.331105 0.405809
v 0.962918 0.509288 0.159838
v 0.720000 0.331105 0.405809
v 0.787453 0.322050 0.360511
v 0.720000 0.570383 0.190428
v 0.416307 0.457399 0.220044
v 0.643448 0.313486 0.392327
v 0.720000 0.570383 0.190428
v 0.643448 0.313486 0.392327
v 0.720000 0.331105 0.405809
v 0.416307 0.457399 0.220044
v 0.377998 0.250000 0.181235
v 0.624117 0.250000 0.350770
v 0.416307 0.457399 0.220044
v 0.624117 0.250000 0.350770
v 0.643448 0.313486 0.392327
v 0.377998 0.250000 0.181235
v 0.439355 0.025568 0.162389
v 0.634887 0.192899 0.375785
v 0.377998 0.250000 0.181235
v 0.634887 0.192899 0.375785
v 0.624117 0.250000 0.350770
v 0.439355 0.025568 0.162389
v 0.720000 -0.044901 0.206428
v 0.720000 0.159350 0.410400
v 0.439355 0.025568 0.162389
v 0.720000 0.159350 0.410400
v 0.634887 0.192899 0.375785
v 0.720000 -0.044901 0.206428
v 0.960926 -0.011431 0.213052
v 0.788193 0.178731 0.375779
v 0.720000 -0.044901 0.206428
v 0.788193 0.178731 0.375779
v 0.720000 0.159350 0.410400
v 0.960926 -0.011431 0.213052
v 1.151587 0.250000 0.197942
v 0.829296 0.250000 0.359599
v 0.960926 -0.011431 0.213052
v 0.829296 0.250000 0.359599
v 0.788193 0.178731 0.375779
v 0.720000 0.250000 0.000000
v 0.898722 0.406632 -0.013104
v 1.010787 0.250000 0.028984
v 0.720000 0.250000 0.410400
v 0.829296 0.250000 0.359599
v 0.787453 0.322050 0.360511
v 0.720000 0.250000 0.000000
v 0.720000 0.488921 -0.025347
v 0.898722 0.406632 -0.013104
v 0.720000 0.250000 0.410400
v 0.787453 0.322050 0.360511
v 0.720000 0.331105 0.405809
v 0.720000 0.250000 0.000000
v 0.513831 0.385780 0.020138
v 0.720000 0.488921 -0.025347
v 0.720000 0.250000 0.410400
v 0.720000 0.331105 0.405809
v 0.643448 0.313486 0.392327
v 0.720000 0.250000 0.000000
v 0.469670 0.250000 0.019758
v 0.513831 0.385780 0.020138
v 0.720000 0.250000 0.410400
v 0.643448 0.313486 0.392327
v 0.624117 0.250000 0.350770
v 0.720000 0.250000 0.000000
v 0.553067 0.082306 -0.025621
v 0.469670 0.250000 0.019758
v 0.720000 0.250000 0.410400
v 0.624117 0.250000 0.350770
v 0.634887 0.192899 0.375785
v 0.720000 0.250000 0.000000
v 0.720000 0.058374 -0.012648
v 0.553067 0.082306 -0.025621
v 0.720000 0.250000 0.410400
v 0.634887 0.192899 0.375785
v 0.720000 0.159350 0.410400
v 0.720000 0.250000 0.000000
v 0.895332 0.090340 0.029131
v 0.720000 0.058374 -0.012648
v 0.720000 0.250000 0.410400
v 0.720000 0.159350 0.410400
v 0.788193 0.178731 0.375779
v 0.720000 0.250000 0.000000
v 1.010787 0.250000 0.028984
v 0.895332 0.090340 0.029131
v 0.720000 0.250000 0.410400
v 0.788193 0.178731 0.375779
v 0.829296 0.250000 0.359599
v 0.526750 -0.720000 -0.023914
v 0.428835 -0.528470 0.005333
v 0.486478 -0.422268 0.172572
v 0.526750 -0.720000 -0.023914
v 0.486478 -0.422268 0.172572
v 0.616566 -0.720000 0.138791
v 0.428835 -0.528470 0.005333
v 0.300000 -0.469064 0.022434
v 0.300000 -0.382027 0.154945
v 0.428835 -0.528470 0.005333
v 0.300000 -0.382027 0.154945
v 0.486478 -0.422268 0.172572
v 0.300000 -0.469064 0.022434
v 0.140097 -0.565683 -0.011558
v 0.078094 -0.469801 0.126056
v 0.300000 -0.469064 0.022434
v 0.078094 -0.469801 0.126056
v 0.300000 -0.382027 0.154945
v 0.140097 -0.565683 -0.011558
v 0.119046 -0.720000 -0.019226
v 0.035657 -0.720000 0.151700
v 0.140097 -0.565683 -0.011558
v 0.035657 -0.720000 0.151700
v 0.078094 -0.469801 0.126056
v 0.119046 -0.720000 -0.019226
v 0.159581 -0.895730 0.016894
v 0.066199 -0.957470 0.173472
v 0.119046 -0.720000 -0.019226
v 0.066199 -0.957470 0.173472
v 0.035657 -0.720000 0.151700
v 0.159581 -0.895730 0.016894
v 0.300000 -0.938960 0.014538
v 0.300000 -1.077026 0.141786
v 0.159581 -0.895730 0.016894
v 0.300000 -1.077026 0.141786
v 0.066199 -0.957470 0.173472
v 0.300000 -0.938960 0.014538
v 0.427152 -0.914066 -0.020928
v 0.487506 -1.016100 0.128807
v 0.300000 -0.938960 0.014538
v 0.487506 -1.016100 0.128807
v 0.300000 -1.077026 0.141786
v 0.427152 -0.914066 -0.020928
v 0.526750 -0.720000 -0.023914
v 0.616566 -0.720000 0.138791
v 0.427152 -0.914066 -0.020928
v 0.616566 -0.720000 0.138791
v 0.487506 -1.016100 0.128807
v 0.616566 -0.720000 0.138791
v 0.486478 -0.422268 0.172572
v 0.355871 -0.643323 0.319058
v 0.616566 -0.720000 0.138791
v 0.355871 -0.643323 0.319058
v 0.378307 -0.720000 0.311801
v 0.486478 -0.422268 0.172572
v 0.300000 -0.382027 0.154945
v 0.300000 -0.629706 0.282910
v 0.486478 -0.422268 0.172572
v 0.300000 -0.629706 0.282910
v 0.355871 -0.643323 0.319058
v 0.300000 -0.382027 0.154945
v 0.078094 -0.469801 0.126056
v 0.245103 -0.641963 0.285684
v 0.300000 -0.382027 0.154945
v 0.245103 -0.641963 0.285684
v 0.300000 -0.629706 0.282910
v 0.078094 -0.469801 0.126056
v 0.035657 -0.720000 0.151700
v 0.220257 -0.720000 0.321063
v 0.078094 -0.469801 0.126056
v 0.220257 -0.720000 0.321063
v 0.245103 -0.641963 0.285684
v 0.035657 -0.720000 0.151700
v 0.066199 -0.957470 0.173472
v 0.232966 -0.783907 0.308470
v 0.035657 -0.720000 0.151700
v 0.232966 -0.783907 0.308470
v 0.220257 -0.720000 0.321063
v 0.066199 -0.957470 0.173472
v 0.300000 -1.077026 0.141786
v 0.300000 -0.831275 0.276586
v 0.066199 -0.957470 0.173472
v 0.300000 -0.831275 0.276586
v 0.232966 -0.783907 0.308470
v 0.300000 -1.077026 0.141786
v 0.487506 -1.016100 0.128807
v 0.356920 -0.795264 0.298027
v 0.300000 -1.077026 0.141786
v 0.356920 -0.795264 0.298027
v 0.300000 -0.831275 0.276586
v 0.487506 -1.016100 0.128807
v 0.616566 -0.720000 0.138791
v 0.378307 -0.720000 0.311801
v 0.487506 -1.016100 0.128807
v 0.378307 -0.720000 0.311801
v 0.356920 -0.795264 0.298027
v 0.300000 -0.720000 0.000000
v 0.428835 -0.528470 0.005333
v 0.526750 -0.720000 -0.023914
v 0.300000 -0.720000 0.324000
v 0.378307 -0.720000 0.311801
v 0.355871 -0.643323 0.319058
v 0.300000 -0.720000 0.000000
v 0.300000 -0.469064 0.022434
v 0.428835 -0.528470 0.005333
v 0.300000 -0.720000 0.324000
v 0.355871 -0.643323 0.319058
v 0.300000 -0.629706 0.282910
v 0.300000 -0.720000 0.000000
v 0.140097 -0.565683 -0.011558
v 0.300000 -0.469064 0.022434
v 0.300000 -0.720000 0.324000
v 0.300000 -0.629706 0.282910
v 0.245103 -0.641963 0.285684
v 0.300000 -0.720000 0.000000
v 0.119046 -0.720000 -0.019226
v 0.140097 -0.565683 -0.011558
v 0.300000 -0.720000 0.324000
v 0.245103 -0.641963 0.285684
v 0.220257 -0.720000 0.321063
v 0.300000 -0.720000 0.000000
v 0.159581 -0.895730 0.016894
v 0.119046 -0.720000 -0.019226
v 0.300000 -0.720000 0.324000
v 0.220257 -0.720000 0.321063
v 0.232966 -0.783907 0.308470
v 0.300000 -0.720000 0.000000
v 0.300000 -0.938960 0.014538
v 0.159581 -0.895730 0.016894
v 0.300000 -0.720000 0.324000
v 0.232966 -0.783907 0.308470
v 0.300000 -0.831275 0.276586
v 0.300000 -0.720000 0.000000
v 0.427152 -0.914066 -0.020928
v 0.300000 -0.938960 0.014538
v 0.300000 -0.720000 0.324000
v 0.300000 -0.831275 0.276586
v 0.356920 -0.795264 0.298027
v 0.300000 -0.720000 0.000000
v 0.526750 -0.720000 -0.023914
v 0.427152 -0.914066 -0.020928
v 0.300000 -0.720000 0.324000
v 0.356920 -0.795264 0.298027
v 0.378307 -0.720000 0.311801
vt 0.000000 0.000000
vt 1.000000 0.000000
vt 1.000000 1.000000
vt 0.000000 0.000000
vt 1.000000 1.000000
vt 0.000000 1.000000
vt 0.000000 0.000000
vt 1.000000 0.000000
vt 1.000000 1.000000
vt 0.000000 0.000000
vt 1.000000 1.000000
vt 0.000000 1.000000
vt 0.000000 0.000000
vt 1.000000 0.000000
vt 1.000000 1.000000
vt 0.000000 0.000000
vt 1.000000 1.000000
vt 0.000000 1.000000
vt 0.000000 0.000000
vt 1.000000 0.000000
vt 1.000000 1.000000
vt 0.000000 0.000000
vt 1.000000 1.000000
vt 0.000000 1.000000
vt 0.000000 0.000000
vt 1.000000 0.000000
vt 1.000000 1.000000
vt 0.000000 0.000000
vt 1.000000 1.000000
vt 0.000000 1.000000
vt 0.000000 0.000000
vt 1.000000 0.000000
vt 1.000000 1.000000
vt 0.000000 0.000000
vt 1.000000 1.000000
vt 0.000000 1.000000
vt 0.000000 0.000000
vt 1.000000 0.000000
vt 1.000000 1.000000
vt 0.000000 0.000000
vt 1.000000 1.000000
vt 0.000000 1.000000
vt 0.000000 0.000000
vt 1.000000 0.000000
vt 1.000000 1.000000
vt 0.000000 0.000000
vt 1.000000 1.000000
vt 0.000000 1.000000
vt 0.000000 0.000000
vt 1.000000 0.000000
vt 1.000000 1.000000
vt 0.000000 0.000000
vt 1.000000 0.000000
vt 1.000000 1.000000
vt 0.000000 0.000000
vt 1.000000 0.000000
vt 1.000000 1.000000
vt 0.000000 0.000000
vt 1.000000 0.000000
vt 1.000000 1.000000
vt 0.000000 0.000000
vt 1.000000 0.000000
vt 1.000000 1.000000
vt 0.000000 0.000000
vt 1.000000 0.000000
vt 1.000000 1.000000
vt 0.000000 0.000000
vt 1.000000 0.000000
vt 1.000000 1.000000
vt 0.000000 0.000000
vt 1.000000 0.000000
vt 1.000000 1.000000
vt 0.000000 0.000000
vt 1.000000 0.000000
vt 1.000000 1.000000
vt 0.000000 0.000000
vt 1.000000 0.000000
vt 1.000000 1.000000
vt 0.000000 0.000000
vt 1.000000 0.000000
vt 1.000000 1.000000
vt 0.000000 0.000000
vt 1.000000 0.000000
vt 1.000000 1.000000
vt 0.000000 0.000000
vt 1.000000 0.000000
vt 1.000000 1.000000
vt 0.000000 0.000000
vt 1.000000 0.000000
vt 1.000000 1.000000
vt 0.000000 0.000000
vt 1.000000 0.000000
vt 1.000000 1.000000
vt 0.000000 0.000000
vt 1.000000 0.000000
vt 1.000000 1.000000
vt 0.000000 0.000000
vt 1.000000 0.000000
vt 1.000000 1.000000
vt 0.000000 0.000000
vt 1.000000 1.000000
vt 0.000000 1.000000
vt 0.000000 0.000000
vt 1.000000 0.000000
vt 1.000000 1.000000
vt 0.000000 0.000000
vt 1.000000 1.000000
vt 0.000000 1.000000
vt 0.000000 0.000000
vt 1.000000 0.000000
vt 1.000000 1.000000
vt 0.000000 0.000000
vt 1.000000 1.000000
vt 0.000000 1.000000
vt 0.000000 0.000000
vt 1.000000 0.000000
vt 1.000000 1.000000
vt 0.000000 0.000000
vt 1.000000 1.000000
vt 0.000000 1.000000
vt 0.000000 0.000000
vt 1.000000 0.000000
vt 1.000000 1.000000
vt 0.000000 0.000000
vt 1.000000 1.000000
vt 0.000000 1.000000
vt 0.000000 0.000000
vt 1.000000 0.000000
vt 1.000000 1.000000
vt 0.000000 0.000000
vt 1.000000 1.000000
vt 0.000000 1.000000
vt 0.000000 0.000000
vt 1.000000 0.000000
vt 1.000000 1.000000
vt 0.000000 0.000000
vt 1.000000 1.000000
vt 0.000000 1.000000
vt 0.000000 0.000000
vt 1.000000 0.000000
vt 1.000000 1.000000
vt 0.000000 0.000000
vt 1.000000 1.000000
vt 0.000000 1.000000
vt 0.000000 0.000000
vt 1.000000 0.000000
vt 1.000000 1.000000
vt 0.000000 0.000000
vt 1.000000 0.000000
vt 1.000000 1.000000
vt 0.000000 0.000000
vt 1.000000 0.000000
vt 1.000000 1.000000
vt 0.000000 0.000000
vt 1.000000 0.000000
vt 1.000000 1.000000
vt 0.000000 0.000000
vt 1.000000 0.000000
vt 1.000000 1.000000
vt 0.000000 0.000000
vt 1.000000 0.000000
vt 1.000000 1.000000
vt 0.000000 0.000000
vt 1.000000 0.000000
vt 1.000000 1.000000
vt 0.000000 0.000000
vt 1.000000 0.000000
vt 1.000000 1.000000
vt 0.000000 0.000000
vt 1.000000 0.000000
vt 1.000000 1.000000
vt 0.000000 0.000000
vt 1.000000 0.000000
vt 1.000000 1.000000
vt 0.000000 0.000000
vt 1.000000 0.000000
vt 1.000000 1.000000
vt 0.000000 0.000000
vt 1.000000 0.000000
vt 1.000000 1.000000
vt 0.000000 0.000000
vt 1.000000 0.000000
vt 1.000000 1.000000
vt 0.000000 0.000000
vt 1.000000 0.000000
vt 1.000000 1.000000
vt 0.000000 0.000000
vt 1.000000 0.000000
vt 1.000000 1.000000
vt 0.000000 0.000000
vt 1.000000 0.000000
vt 1.000000 1.000000
vt 0.000000 0.000000
vt 1.000000 0.000000
vt 1.000000 1.000000
vt 0.000000 0.000000
vt 1.000000 1.000000
vt 0.000000 1.000000
vt 0.000000 0.000000
vt 1.000000 0.000000
vt 1.000000 1.000000
vt 0.000000 0.000000
vt 1.000000 1.000000
vt 0.000000 1.000000
vt 0.000000 0.000000
vt 1.000000 0.000000
vt 1.000000 1.000000
vt 0.000000 0.000000
vt 1.000000 1.000000
vt 0.000000 1.000000
vt 0.000000 0.000000
vt 1.000000 0.000000
vt 1.000000 1.000000
vt 0.000000 0.000000
vt 1.000000 1.000000
vt 0.000000 1.000000
vt 0.000000 0.000000
vt 1.000000 0.000000
vt 1.000000 1.000000
vt 0.000000 0.000000
vt 1.000000 1.000000
vt 0.000000 1.000000
vt 0.000000 0.000000
vt 1.000000 0.000000
vt 1.000000 1.000000
vt 0.000000 0.000000
vt 1.000000 1.000000
vt 0.000000 1.000000
vt 0.000000 0.000000
vt 1.000000 0.000000
vt 1.000000 1.000000
vt 0.000000 0.000000
vt 1.000000 1.000000
vt 0.000000 1.000000
vt 0.000000 0.000000
vt 1.000000 0.000000
vt 1.000000 1.000000
vt 0.000000 0.000000
vt 1.000000 1.000000
vt 0.000000 1.000000
vt 0.000000 0.000000
vt 1.000000 0.000000
vt 1.000000 1.000000
vt 0.000000 0.000000
vt 1.000000 0.000000
vt 1.000000 1.000000
vt 0.000000 0.000000
vt 1.000000 0.000000
vt 1.000000 1.000000
vt 0.000000 0.000000
vt 1.000000 0.000000
vt 1.000000 1.000000
vt 0.000000 0.000000
vt 1.000000 0.000000
vt 1.000000 1.000000
vt 0.000000 0.000000
vt 1.000000 0.000000
vt 1.000000 1.000000
vt 0.000000 0.000000
vt 1.000000 0.000000
vt 1.000000 1.000000
vt 0.000000 0.000000
vt 1.000000 0.000000
vt 1.000000 1.000000
vt 0.000000 0.000000
vt 1.000000 0.000000
vt 1.000000 1.000000
vt 0.000000 0.000000
vt 1.000000 0.000000
vt 1.000000 1.000000
vt 0.000000 0.000000
vt 1.000000 0.000000
vt 1.000000 1.000000
vt 0.000000 0.000000
vt 1.000000 0.000000
vt 1.000000 1.000000
vt 0.000000 0.000000
vt 1.000000 0.000000
vt 1.000000 1.000000
vt 0.000000 0.000000
vt 1.000000 0.000000
vt 1.000000 1.000000
vt 0.000000 0.000000
vt 1.000000 0.000000
vt 1.000000 1.000000
vt 0.000000 0.000000
vt 1.000000 0.000000
vt 1.000000 1.000000
vt 0.000000 0.000000
vt 1.000000 0.000000
vt 1.000000 1.000000
vt 0.000000 0.000000
vt 1.000000 1.000000
vt 0.000000 1.000000
vt 0.000000 0.000000
vt 1.000000 0.000000
vt 1.000000 1.000000
vt 0.000000 0.000000
vt 1.000000 1.000000
vt 0.000000 1.000000
vt 0.000000 0.000000
vt 1.000000 0.000000
vt 1.000000 1.000000
vt 0.000000 0.000000
vt 1.000000 1.000000
vt 0.000000 1.000000
vt 0.000000 0.000000
vt 1.000000 0.000000
vt 1.000000 1.000000
vt 0.000000 0.000000
vt 1.000000 1.000000
vt 0.000000 1.000000
vt 0.000000 0.000000
vt 1.000000 0.000000
vt 1.000000 1.000000
vt 0.000000 0.000000
vt 1.000000 1.000000
vt 0.000000 1.000000
vt 0.000000 0.000000
vt 1.000000 0.000000
vt 1.000000 1.000000
vt 0.000000 0.000000
vt 1.000000 1.000000
vt 0.000000 1.000000
vt 0.000000 0.000000
vt 1.000000 0.000000
vt 1.000000 1.000000
vt 0.000000 0.000000
vt 1.000000 1.000000
vt 0.000000 1.000000
vt 0.000000 0.000000
vt 1.000000 0.000000
vt 1.000000 1.000000
vt 0.000000 0.000000
vt 1.000000 0.000000
vt 1.000000 1.000000
vt 0.000000 0.000000
vt 1.000000 0.000000
vt 1.000000 1.000000
vt 0.000000 0.000000
vt 1.000000 0.000000
vt 1.000000 1.000000
vt 0.000000 0.000000
vt 1.000000 0.000000
vt 1.000000 1.000000
vt 0.000000 0.000000
vt 1.000000 0.000000
vt 1.000000 1.000000
vt 0.000000 0.000000
vt 1.000000 0.000000
vt 1.000000 1.000000
vt 0.000000 0.000000
vt 1.000000 0.000000
vt 1.000000 1.000000
vt 0.000000 0.000000
vt 1.000000 0.000000
vt 1.000000 1.000000
vt 0.000000 0.000000
vt 1.000000 0.000000
vt 1.000000 1.000000
vt 0.000000 0.000000
vt 1.000000 0.000000
vt 1.000000 1.000000
vt 0.000000 0.000000
vt 1.000000 0.000000
vt 1.000000 1.000000
vt 0.000000 0.000000
vt 1.000000 0.000000
vt 1.000000 1.000000
vt 0.000000 0.000000
vt 1.000000 0.000000
vt 1.000000 1.000000
vt 0.000000 0.000000
vt 1.000000 0.000000
vt 1.000000 1.000000
vt 0.000000 0.000000
vt 1.000000 1.000000
vt 0.000000 1.000000
vt 0.000000 0.000000
vt 1.000000 0.000000
vt 1.000000 1.000000
vt 0.000000 0.000000
vt 1.000000 1.000000
vt 0.000000 1.000000
vt 0.000000 0.000000
vt 1.000000 0.000000
vt 1.000000 1.000000
vt 0.000000 0.000000
vt 1.000000 1.000000
vt 0.000000 1.000000
vt 0.000000 0.000000
vt 1.000000 0.000000
vt 1.000000 1.000000
vt 0.000000 0.000000
vt 1.000000 1.000000
vt 0.000000 1.000000
vt 0.000000 0.000000
vt 1.000000 0.000000
vt 1.000000 1.000000
vt 0.000000 0.000000
vt 1.000000 1.000000
vt 0.000000 1.000000
vt 0.000000 0.000000
vt 1.000000 0.000000
vt 1.000000 1.000000
vt 0.000000 0.000000
vt 1.000000 1.000000
vt 0.000000 1.000000
vt 0.000000 0.000000
vt 1.000000 0.000000
vt 1.000000 1.000000
vt 0.000000 0.000000
vt 1.000000 1.000000
vt 0.000000 1.000000
vt 0.000000 0.000000
vt 1.000000 0.000000
vt 1.000000 1.000000
vt 0.000000 0.000000
vt 1.000000 1.000000
vt 0.000000 1.000000
vt 0.000000 0.000000
vt 1.000000 0.000000
vt 1.000000 1.000000
vt 0.000000 0.000000
vt 1.000000 1.000000
vt 0.000000 1.000000
vt 0.000000 0.000000
vt 1.000000 0.000000
vt 1.000000 1.000000
vt 0.000000 0.000000
vt 1.000000 1.000000
vt 0.000000 1.000000
vt 0.000000 0.000000
vt 1.000000 0.000000
vt 1.000000 1.000000
vt 0.000000 0.000000
vt 1.000000 1.000000
vt 0.000000 1.000000
vt 0.000000 0.000000
vt 1.000000 0.000000
vt 1.000000 1.000000
vt 0.000000 0.000000
vt 1.000000 1.000000
vt 0.000000 1.000000
vt 0.000000 0.000000
vt 1.000000 0.000000
vt 1.000000 1.000000
vt 0.000000 0.000000
vt 1.000000 1.000000
vt 0.000000 1.000000
vt 0.000000 0.000000
vt 1.000000 0.000000
vt 1.000000 1.000000
vt 0.000000 0.000000
vt 1.000000 1.000000
vt 0.000000 1.000000
vt 0.000000 0.000000
vt 1.000000 0.000000
vt 1.000000 1.000000
vt 0.000000 0.000000
vt 1.000000 1.000000
vt 0.000000 1.000000
vt 0.000000 0.000000
vt 1.000000 0.000000
vt 1.000000 1.000000
vt 0.000000 0.000000
vt 1.000000 1.000000
vt 0.000000 1.000000
vt 0.000000 0.000000
vt 1.000000 0.000000
vt 1.000000 1.000000
vt 0.000000 0.000000
vt 1.000000 0.000000
vt 1.000000 1.000000
vt 0.000000 0.000000
vt 1.000000 0.000000
vt 1.000000 1.000000
vt 0.000000 0.000000
vt 1.000000 0.000000
vt 1.000000 1.000000
vt 0.000000 0.000000
vt 1.000000 0.000000
vt 1.000000 1.000000
vt 0.000000 0.000000
vt 1.000000 0.000000
vt 1.000000 1.000000
vt 0.000000 0.000000
vt 1.000000 0.000000
vt 1.000000 1.000000
vt 0.000000 0.000000
vt 1.000000 0.000000
vt 1.000000 1.000000
vt 0.000000 0.000000
vt 1.000000 0.000000
vt 1.000000 1.000000
vt 0.000000 0.000000
vt 1.000000 0.000000
vt 1.000000 1.000000
vt 0.000000 0.000000
vt 1.000000 0.000000
vt 1.000000 1.000000
vt 0.000000 0.000000
vt 1.000000 0.000000
vt 1.000000 1.000000
vt 0.000000 0.000000
vt 1.000000 0.000000
vt 1.000000 1.000000
vt 0.000000 0.000000
vt 1.000000 0.000000
vt 1.000000 1.000000
vt 0.000000 0.000000
vt 1.000000 0.000000
vt 1.000000 1.000000
vt 0.000000 0.000000
vt 1.000000 0.000000
vt 1.000000 1.000000
vt 0.000000 0.000000
vt 1.000000 0.000000
vt 1.000000 1.000000
vt 0.000000 0.000000
vt 1.000000 1.000000
vt 0.000000 1.000000
vt 0.000000 0.000000
vt 1.000000 0.000000
vt 1.000000 1.000000
vt 0.000000 0.000000
vt 1.000000 1.000000
vt 0.000000 1.000000
vt 0.000000 0.000000
vt 1.000000 0.000000
vt 1.000000 1.000000
vt 0.000000 0.000000
vt 1.000000 1.000000
vt 0.000000 1.000000
vt 0.000000 0.000000
vt 1.000000 0.000000
vt 1.000000 1.000000
vt 0.000000 0.000000
vt 1.000000 1.000000
vt 0.000000 1.000000
vt 0.000000 0.000000
vt 1.000000 0.000000
vt 1.000000 1.000000
vt 0.000000 0.000000
vt 1.000000 1.000000
vt 0.000000 1.000000
vt 0.000000 0.000000
vt 1.000000 0.000000
vt 1.000000 1.000000
vt 0.000000 0.000000
vt 1.000000 1.000000
vt 0.000000 1.000000
vt 0.000000 0.000000
vt 1.000000 0.000000
vt 1.000000 1.000000
vt 0.000000 0.000000
vt 1.000000 1.000000
vt 0.000000 1.000000
vt 0.000000 0.000000
vt 1.000000 0.000000
vt 1.000000 1.000000
vt 0.000000 0.000000
vt 1.000000 1.000000
vt 0.000000 1.000000
vt 0.000000 0.000000
vt 1.000000 0.000000
vt 1.000000 1.000000
vt 0.000000 0.000000
vt 1.000000 1.000000
vt 0.000000 1.000000
vt 0.000000 0.000000
vt 1.000000 0.000000
vt 1.000000 1.000000
vt 0.000000 0.000000
vt 1.000000 1.000000
vt 0.000000 1.000000
vt 0.000000 0.000000
vt 1.000000 0.000000
vt 1.000000 1.000000
vt 0.000000 0.000000
vt 1.000000 1.000000
vt 0.000000 1.000000
vt 0.000000 0.000000
vt 1.000000 0.000000
vt 1.000000 1.000000
vt 0.000000 0.000000
vt 1.000000 1.000000
vt 0.000000 1.000000
vt 0.000000 0.000000
vt 1.000000 0.000000
vt 1.000000 1.000000
vt 0.000000 0.000000
vt 1.000000 1.000000
vt 0.000000 1.000000
vt 0.000000 0.000000
vt 1.000000 0.000000
vt 1.000000 1.000000
vt 0.000000 0.000000
vt 1.000000 1.000000
vt 0.000000 1.000000
vt 0.000000 0.000000
vt 1.000000 0.000000
vt 1.000000 1.000000
vt 0.000000 0.000000
vt 1.000000 1.000000
vt 0.000000 1.000000
vt 0.000000 0.000000
vt 1.000000 0.000000
vt 1.000000 1.000000
vt 0.000000 0.000000
vt 1.000000 1.000000
vt 0.000000 1.000000
vt 0.000000 0.000000
vt 1.000000 0.000000
vt 1.000000 1.000000
vt 0.000000 0.000000
vt 1.000000 0.000000
vt 1.000000 1.000000
vt 0.000000 0.000000
vt 1.000000 0.000000
vt 1.000000 1.000000
vt 0.000000 0.000000
vt 1.000000 0.000000
vt 1.000000 1.000000
vt 0.000000 0.000000
vt 1.000000 0.000000
vt 1.000000 1.000000
vt 0.000000 0.000000
vt 1.000000 0.000000
vt 1.000000 1.000000
vt 0.000000 0.000000
vt 1.000000 0.000000
vt 1.000000 1.000000
vt 0.000000 0.000000
vt 1.000000 0.000000
vt 1.000000 1.000000
vt 0.000000 0.000000
vt 1.000000 0.000000
vt 1.000000 1.000000
vt 0.000000 0.000000
vt 1.000000 0.000000
vt 1.000000 1.000000
vt 0.000000 0.000000
vt 1.000000 0.000000
vt 1.000000 1.000000
vt 0.000000 0.000000
vt 1.000000 0.000000
vt 1.000000 1.000000
vt 0.000000 0.000000
vt 1.000000 0.000000
vt 1.000000 1.000000
vt 0.000000 0.000000
vt 1.000000 0.000000
vt 1.000000 1.000000
vt 0.000000 0.000000
vt 1.000000 0.000000
vt 1.000000 1.000000
vt 0.000000 0.000000
vt 1.000000 0.000000
vt 1.000000 1.000000
vt 0.000000 0.000000
vt 1.000000 0.000000
vt 1.000000 1.000000
vt 0.000000 0.000000
vt 1.000000 1.000000
vt 0.000000 1.000000
vt 0.000000 0.000000
vt 1.000000 0.000000
vt 1.000000 1.000000
vt 0.000000 0.000000
vt 1.000000 1.000000
vt 0.000000 1.000000
vt 0.000000 0.000000
vt 1.000000 0.000000
vt 1.000000 1.000000
vt 0.000000 0.000000
vt 1.000000 1.000000
vt 0.000000 1.000000
vt 0.000000 0.000000
vt 1.000000 0.000000
vt 1.000000 1.000000
vt 0.000000 0.000000
vt 1.000000 1.000000
vt 0.000000 1.000000
vt 0.000000 0.000000
vt 1.000000 0.000000
vt 1.000000 1.000000
vt 0.000000 0.000000
vt 1.000000 1.000000
vt 0.000000 1.000000
vt 0.000000 0.000000
vt 1.000000 0.000000
vt 1.000000 1.000000
vt 0.000000 0.000000
vt 1.000000 1.000000
vt 0.000000 1.000000
vt 0.000000 0.000000
vt 1.000000 0.000000
vt 1.000000 1.000000
vt 0.000000 0.000000
vt 1.000000 1.000000
vt 0.000000 1.000000
vt 0.000000 0.000000
vt 1.000000 0.000000
vt 1.000000 1.000000
vt 0.000000 0.000000
vt 1.000000 1.000000
vt 0.000000 1.000000
vt 0.000000 0.000000
vt 1.000000 0.000000
vt 1.000000 1.000000
vt 0.000000 0.000000
vt 1.000000 1.000000
vt 0.000000 1.000000
vt 0.000000 0.000000
vt 1.000000 0.000000
vt 1.000000 1.000000
vt 0.000000 0.000000
vt 1.000000 1.000000
vt 0.000000 1.000000
vt 0.000000 0.000000
vt 1.000000 0.000000
vt 1.000000 1.000000
vt 0.000000 0.000000
vt 1.000000 1.000000
vt 0.000000 1.000000
vt 0.000000 0.000000
vt 1.000000 0.000000
vt 1.000000 1.000000
vt 0.000000 0.000000
vt 1.000000 1.000000
vt 0.000000 1.000000
vt 0.000000 0.000000
vt 1.000000 0.000000
vt 1.000000 1.000000
vt 0.000000 0.000000
vt 1.000000 1.000000
vt 0.000000 1.000000
vt 0.000000 0.000000
vt 1.000000 0.000000
vt 1.000000 1.000000
vt 0.000000 0.000000
vt 1.000000 1.000000
vt 0.000000 1.000000
vt 0.000000 0.000000
vt 1.000000 0.000000
vt 1.000000 1.000000
vt 0.000000 0.000000
vt 1.000000 1.000000
vt 0.000000 1.000000
vt 0.000000 0.000000
vt 1.000000 0.000000
vt 1.000000 1.000000
vt 0.000000 0.000000
vt 1.000000 1.000000
vt 0.000000 1.000000
vt 0.000000 0.000000
vt 1.000000 0.000000
vt 1.000000 1.000000
vt 0.000000 0.000000
vt 1.000000 0.000000
vt 1.000000 1.000000
vt 0.000000 0.000000
vt 1.000000 0.000000
vt 1.000000 1.000000
vt 0.000000 0.000000
vt 1.000000 0.000000
vt 1.000000 1.000000
vt 0.000000 0.000000
vt 1.000000 0.000000
vt 1.000000 1.000000
vt 0.000000 0.000000
vt 1.000000 0.000000
vt 1.000000 1.000000
vt 0.000000 0.000000
vt 1.000000 0.000000
vt 1.000000 1.000000
vt 0.000000 0.000000
vt 1.000000 0.000000
vt 1.000000 1.000000
vt 0.000000 0.000000
vt 1.000000 0.000000
vt 1.000000 1.000000
vt 0.000000 0.000000
vt 1.000000 0.000000
vt 1.000000 1.000000
vt 0.000000 0.000000
vt 1.000000 0.000000
vt 1.000000 1.000000
vt 0.000000 0.000000
vt 1.000000 0.000000
vt 1.000000 1.000000
vt 0.000000 0.000000
vt 1.000000 0.000000
vt 1.000000 1.000000
vt 0.000000 0.000000
vt 1.000000 0.000000
vt 1.000000 1.000000
vt 0.000000 0.000000
vt 1.000000 0.000000
vt 1.000000 1.000000
vt 0.000000 0.000000
vt 1.000000 0.000000
vt 1.000000 1.000000
vn 0.6988703 0.6988703 0.1521863
vn 0.6988703 0.6988703 0.1521863
vn 0.6988703 0.6988703 0.1521863
vn 0.6988703 0.6988703 0.1521863
vn 0.6988703 0.6988703 0.1521863
vn 0.6988703 0.6988703 0.1521863
vn 0.0000000 0.9883518 0.1521863
vn 0.0000000 0.9883518 0.1521863
vn 0.0000000 0.9883518 0.1521863
vn 0.0000000 0.9883518 0.1521863
vn 0.0000000 0.9883518 0.1521863
vn 0.0000000 0.9883518 0.1521863
vn -0.6988703 0.6988703 0.1521863
vn -0.6988703 0.6988703 0.1521863
vn -0.6988703 0.6988703 0.1521863
vn -0.6988703 0.6988703 0.1521863
vn -0.6988703 0.6988703 0.1521863
vn -0.6988703 0.6988703 0.1521863
vn -0.9883518 0.0000000 0.1521863
vn -0.9883518 0.0000000 0.1521863
vn -0.9883518 0.0000000 0.1521863
vn -0.9883518 0.0000000 0.1521863
vn -0.9883518 0.0000000 0.1521863
vn -0.9883518 0.0000000 0.1521863
vn -0.6988703 -0.6988703 0.1521863
vn -0.6988703 -0.6988703 0.1521863
vn -0.6988703 -0.6988703 0.1521863
vn -0.6988703 -0.6988703 0.1521863
vn -0.6988703 -0.6988703 0.1521863
vn -0.6988703 -0.6988703 0.1521863
vn -0.0000000 -0.9883518 0.1521863
vn -0.0000000 -0.9883518 0.1521863
vn -0.0000000 -0.9883518 0.1521863
vn -0.0000000 -0.9883518 0.1521863
vn -0.0000000 -0.9883518 0.1521863
vn -0.0000000 -0.9883518 0.1521863
vn 0.6988703 -0.6988703 0.1521863
vn 0.6988703 -0.6988703 0.1521863
vn 0.6988703 -0.6988703 0.1521863
vn 0.6988703 -0.6988703 0.1521863
vn 0.6988703 -0.6988703 0.1521863
vn 0.6988703 -0.6988703 0.1521863
vn 0.9883518 -0.0000000 0.1521863
vn 0.9883518 -0.0000000 0.1521863
vn 0.9883518 -0.0000000 0.1521863
vn 0.9883518 -0.0000000 0.1521863
vn 0.9883518 -0.0000000 0.1521863
vn 0.9883518 -0.0000000 0.1521863
vn 0.0000000 0.0000000 1.0000000
vn 0.0000000 0.0000000 1.0000000
vn 0.0000000 0.0000000 1.0000000
vn 0.0000000 0.0000000 -1.0000000
vn 0.0000000 0.0000000 -1.0000000
vn 0.0000000 0.0000000 -1.0000000
vn 0.0000000 -0.0000000 1.0000000
vn 0.0000000 -0.0000000 1.0000000
vn 0.0000000 -0.0000000 1.0000000
vn 0.0000000 0.0000000 -1.0000000
vn 0.0000000 0.0000000 -1.0000000
vn 0.0000000 0.0000000 -1.0000000
vn 0.0000000 0.0000000 1.0000000
vn 0.0000000 0.0000000 1.0000000
vn 0.0000000 0.0000000 1.0000000
vn 0.0000000 0.0000000 -1.0000000
vn 0.0000000 0.0000000 -1.0000000
vn 0.0000000 0.0000000 -1.0000000
vn 0.0000000 0.0000000 1.0000000
vn 0.0000000 0.0000000 1.0000000
vn 0.0000000 0.0000000 1.0000000
vn -0.0000000 0.0000000 -1.0000000
vn -0.0000000 0.0000000 -1.0000000
vn -0.0000000 0.0000000 -1.0000000
vn 0.0000000 0.0000000 1.0000000
vn 0.0000000 0.0000000 1.0000000
vn 0.0000000 0.0000000 1.0000000
vn 0.0000000 0.0000000 -1.0000000
vn 0.0000000 0.0000000 -1.0000000
vn 0.0000000 0.0000000 -1.0000000
vn 0.0000000 0.0000000 1.0000000
vn 0.0000000 0.0000000 1.0000000
vn 0.0000000 0.0000000 1.0000000
vn 0.0000000 -0.0000000 -1.0000000
vn 0.0000000 -0.0000000 -1.0000000
vn 0.0000000 -0.0000000 -1.0000000
vn 0.0000000 0.0000000 1.0000000
vn 0.0000000 0.0000000 1.0000000
vn 0.0000000 0.0000000 1.0000000
vn 0.0000000 0.0000000 -1.0000000
vn 0.0000000 0.0000000 -1.0000000
vn 0.0000000 0.0000000 -1.0000000
vn -0.0000000 0.0000000 1.0000000
vn -0.0000000 0.0000000 1.0000000
vn -0.0000000 0.0000000 1.0000000
vn 0.0000000 0.0000000 -1.0000000
vn 0.0000000 0.0000000 -1.0000000
vn 0.0000000 0.0000000 -1.0000000
vn 0.6860432 0.6860432 0.2422591
vn 0.6860432 0.6860432 0.2422591
vn 0.6860432 0.6860432 0.2422591
vn 0.6860432 0.6860432 0.2422591
vn 0.6860432 0.6860432 0.2422591
vn 0.6860432 0.6860432 0.2422591
vn 0.0000000 0.9702116 0.2422591
vn 0.0000000 0.9702116 0.2422591
vn 0.0000000 0.9702116 0.2422591
vn 0.0000000 0.9702116 0.2422591
vn 0.0000000 0.9702116 0.2422591
vn 0.0000000 0.9702116 0.2422591
vn -0.6860432 0.6860432 0.2422591
vn -0.6860432 0.6860432 0.2422591
vn -0.6860432 0.6860432 0.2422591
vn -0.6860432 0.6860432 0.2422591
vn -0.6860432 0.6860432 0.2422591
vn -0.6860432 0.6860432 0.2422591
vn -0.9702116 0.0000000 0.2422591
vn -0.9702116 0.0000000 0.2422591
vn -0.9702116 0.0000000 0.2422591
vn -0.9702116 0.0000000 0.2422591
vn -0.9702116 0.0000000 0.2422591
vn -0.9702116 0.0000000 0.2422591
vn -0.6860432 -0.6860432 0.2422591
vn -0.6860432 -0.6860432 0.2422591
vn -0.6860432 -0.6860432 0.2422591
vn -0.6860432 -0.6860432 0.2422591
vn -0.6860432 -0.6860432 0.2422591
vn -0.6860432 -0.6860432 0.2422591
vn -0.0000000 -0.9702116 0.2422591
vn -0.0000000 -0.9702116 0.2422591
vn -0.0000000 -0.9702116 0.2422591
vn -0.0000000 -0.9702116 0.2422591
vn -0.0000000 -0.9702116 0.2422591
vn -0.0000000 -0.9702116 0.2422591
vn 0.6860432 -0.6860432 0.2422591
vn 0.6860432 -0.6860432 0.2422591
vn 0.6860432 -0.6860432 0.2422591
vn 0.6860432 -0.6860432 0.2422591
vn 0.6860432 -0.6860432 0.2422591
vn 0.6860432 -0.6860432 0.2422591
vn 0.9702116 -0.0000000 0.2422591
vn 0.9702116 -0.0000000 0.2422591
vn 0.9702116 -0.0000000 0.2422591
vn 0.9702116 -0.0000000 0.2422591
vn 0.9702116 -0.0000000 0.2422591
vn 0.9702116 -0.0000000 0.2422591
vn 0.0000000 0.0000000 1.0000000
vn 0.0000000 0.0000000 1.0000000
vn 0.0000000 0.0000000 1.0000000
vn 0.0000000 0.0000000 -1.0000000
vn 0.0000000 0.0000000 -1.0000000
vn 0.0000000 0.0000000 -1.0000000
vn 0.0000000 -0.0000000 1.0000000
vn 0.0000000 -0.0000000 1.0000000
vn 0.0000000 -0.0000000 1.0000000
vn 0.0000000 0.0000000 -1.0000000
vn 0.0000000 0.0000000 -1.0000000
vn 0.0000000 0.0000000 -1.0000000
vn 0.0000000 0.0000000 1.0000000
vn 0.0000000 0.0000000 1.0000000
vn 0.0000000 0.0000000 1.0000000
vn 0.0000000 0.0000000 -1.0000000
vn 0.0000000 0.0000000 -1.0000000
vn 0.0000000 0.0000000 -1.0000000
vn 0.0000000 0.0000000 1.0000000
vn 0.0000000 0.0000000 1.0000000
vn 0.0000000 0.0000000 1.0000000
vn -0.0000000 0.0000000 -1.0000000
vn -0.0000000 0.0000000 -1.0000000
vn -0.0000000 0.0000000 -1.0000000
vn 0.0000000 0.0000000 1.0000000
vn 0.0000000 0.0000000 1.0000000
vn 0.0000000 0.0000000 1.0000000
vn 0.0000000 0.0000000 -1.0000000
vn 0.0000000 0.0000000 -1.0000000
vn 0.0000000 0.0000000 -1.0000000
vn 0.0000000 0.0000000 1.0000000
vn 0.0000000 0.0000000 1.0000000
vn 0.0000000 0.0000000 1.0000000
vn 0.0000000 -0.0000000 -1.0000000
vn 0.0000000 -0.0000000 -1.0000000
vn 0.0000000 -0.0000000 -1.0000000
vn 0.0000000 0.0000000 1.0000000
vn 0.0000000 0.0000000 1.0000000
vn 0.0000000 0.0000000 1.0000000
vn 0.0000000 0.0000000 -1.0000000
vn 0.0000000 0.0000000 -1.0000000
vn 0.0000000 0.0000000 -1.0000000
vn -0.0000000 0.0000000 1.0000000
vn -0.0000000 0.0000000 1.0000000
vn -0.0000000 0.0000000 1.0000000
vn 0.0000000 0.0000000 -1.0000000
vn 0.0000000 0.0000000 -1.0000000
vn 0.0000000 0.0000000 -1.0000000
vn 0.7067583 0.7067583 0.0313912
vn 0.7067583 0.7067583 0.0313912
vn 0.7067583 0.7067583 0.0313912
vn 0.7067583 0.7067583 0.0313912
vn 0.7067583 0.7067583 0.0313912
vn 0.7067583 0.7067583 0.0313912
vn 0.0000000 0.9995072 0.0313912
vn 0.0000000 0.9995072 0.0313912
vn 0.0000000 0.9995072 0.0313912
vn 0.0000000 0.9995072 0.0313912
vn 0.0000000 0.9995072 0.0313912
vn 0.0000000 0.9995072 0.0313912
vn -0.7067583 0.7067583 0.0313912
vn -0.7067583 0.7067583 0.0313912
vn -0.7067583 0.7067583 0.0313912
vn -0.7067583 0.7067583 0.0313912
vn -0.7067583 0.7067583 0.0313912
vn -0.7067583 0.7067583 0.0313912
vn -0.9995072 0.0000000 0.0313912
vn -0.9995072 0.0000000 0.0313912
vn -0.9995072 0.0000000 0.0313912
vn -0.9995072 0.0000000 0.0313912
vn -0.9995072 0.0000000 0.0313912
vn -0.9995072 0.0000000 0.0313912
vn -0.7067583 -0.7067583 0.0313912
vn -0.7067583 -0.7067583 0.0313912
vn -0.7067583 -0.7067583 0.0313912
vn -0.7067583 -0.7067583 0.0313912
vn -0.7067583 -0.7067583 0.0313912
vn -0.7067583 -0.7067583 0.0313912
vn -0.0000000 -0.9995072 0.0313912
vn -0.0000000 -0.9995072 0.0313912
vn -0.0000000 -0.9995072 0.0313912
vn -0.0000000 -0.9995072 0.0313912
vn -0.0000000 -0.9995072 0.0313912
vn -0.0000000 -0.9995072 0.0313912
vn 0.7067583 -0.7067583 0.0313912
vn 0.7067583 -0.7067583 0.0313912
vn 0.7067583 -0.7067583 0.0313912
vn 0.7067583 -0.7067583 0.0313912
vn 0.7067583 -0.7067583 0.0313912
vn 0.7067583 -0.7067583 0.0313912
vn 0.9995072 -0.0000000 0.0313912
vn 0.9995072 -0.0000000 0.0313912
vn 0.9995072 -0.0000000 0.0313912
vn 0.9995072 -0.0000000 0.0313912
vn 0.9995072 -0.0000000 0.0313912
vn 0.9995072 -0.0000000 0.0313912
vn 0.0000000 0.0000000 1.0000000
vn 0.0000000 0.0000000 1.0000000
vn 0.0000000 0.0000000 1.0000000
vn 0.0000000 0.0000000 -1.0000000
vn 0.0000000 0.0000000 -1.0000000
vn 0.0000000 0.0000000 -1.0000000
vn 0.0000000 -0.0000000 1.0000000
vn 0.0000000 -0.0000000 1.0000000
vn 0.0000000 -0.0000000 1.0000000
vn 0.0000000 0.0000000 -1.0000000
vn 0.0000000 0.0000000 -1.0000000
vn 0.0000000 0.0000000 -1.0000000
vn 0.0000000 0.0000000 1.0000000
vn 0.0000000 0.0000000 1.0000000
vn 0.0000000 0.0000000 1.0000000
vn 0.0000000 0.0000000 -1.0000000
vn 0.0000000 0.0000000 -1.0000000
vn 0.0000000 0.0000000 -1.0000000
vn 0.0000000 0.0000000 1.0000000
vn 0.0000000 0.0000000 1.0000000
vn 0.0000000 0.0000000 1.0000000
vn -0.0000000 0.0000000 -1.0000000
vn -0.0000000 0.0000000 -1.0000000
vn -0.0000000 0.0000000 -1.0000000
vn 0.0000000 0.0000000 1.0000000
vn 0.0000000 0.0000000 1.0000000
vn 0.0000000 0.0000000 1.0000000
vn 0.0000000 0.0000000 -1.0000000
vn 0.0000000 0.0000000 -1.0000000
vn 0.0000000 0.0000000 -1.0000000
vn 0.0000000 0.0000000 1.0000000
vn 0.0000000 0.0000000 1.0000000
vn 0.0000000 0.0000000 1.0000000
vn 0.0000000 -0.0000000 -1.0000000
vn 0.0000000 -0.0000000 -1.0000000
vn 0.0000000 -0.0000000 -1.0000000
vn 0.0000000 0.0000000 1.0000000
vn 0.0000000 0.0000000 1.0000000
vn 0.0000000 0.0000000 1.0000000
vn 0.0000000 0.0000000 -1.0000000
vn 0.0000000 0.0000000 -1.0000000
vn 0.0000000 0.0000000 -1.0000000
vn -0.0000000 0.0000000 1.0000000
vn -0.0000000 0.0000000 1.0000000
vn -0.0000000 0.0000000 1.0000000
vn 0.0000000 0.0000000 -1.0000000
vn 0.0000000 0.0000000 -1.0000000
vn 0.0000000 0.0000000 -1.0000000
vn 0.6290558 0.7039138 0.3298395
vn 0.6290558 0.7039138 0.3298395
vn 0.6290558 0.7039138 0.3298395
vn 0.6386548 0.6821707 0.3560383
vn 0.6386548 0.6821707 0.3560383
vn 0.6386548 0.6821707 0.3560383
vn -0.1584000 0.9322758 0.3252248
vn -0.1584000 0.9322758 0.3252248
vn -0.1584000 0.9322758 0.3252248
vn -0.1662398 0.9339438 0.3164068
vn -0.1662398 0.9339438 0.3164068
vn -0.1662398 0.9339438 0.3164068
vn -0.8147204 0.4502800 0.3653472
vn -0.8147204 0.4502800 0.3653472
vn -0.8147204 0.4502800 0.3653472
vn -0.8304145 0.4380924 0.3442191
vn -0.8304145 0.4380924 0.3442191
vn -0.8304145 0.4380924 0.3442191
vn -0.8646739 -0.3581597 0.3522226
vn -0.8646739 -0.3581597 0.3522226
vn -0.8646739 -0.3581597 0.3522226
vn -0.8638876 -0.3415688 0.3701743
vn -0.8638876 -0.3415688 0.3701743
vn -0.8638876 -0.3415688 0.3701743
vn -0.2625004 -0.9111592 0.3176200
vn -0.2625004 -0.9111592 0.3176200
vn -0.2625004 -0.9111592 0.3176200
vn -0.2725551 -0.9030571 0.3319661
vn -0.2725551 -0.9030571 0.3319661
vn -0.2725551 -0.9030571 0.3319661
vn 0.5427989 -0.7650035 0.3466108
vn 0.5427989 -0.7650035 0.3466108
vn 0.5427989 -0.7650035 0.3466108
vn 0.5647388 -0.7597465 0.3222658
vn 0.5647388 -0.7597465 0.3222658
vn 0.5647388 -0.7597465 0.3222658
vn 0.9284450 -0.0521404 0.3677925
vn 0.9284450 -0.0521404 0.3677925
vn 0.9284450 -0.0521404 0.3677925
vn 0.9296655 -0.0498358 0.3650184
vn 0.9296655 -0.0498358 0.3650184
vn 0.9296655 -0.0498358 0.3650184
vn 0.0000000 0.0000000 1.0000000
vn 0.0000000 0.0000000 1.0000000
vn 0.0000000 0.0000000 1.0000000
vn 0.0000000 0.0000000 -1.0000000
vn 0.0000000 0.0000000 -1.0000000
vn 0.0000000 0.0000000 -1.0000000
vn 0.0000000 -0.0000000 1.0000000
vn 0.0000000 -0.0000000 1.0000000
vn 0.0000000 -0.0000000 1.0000000
vn 0.0000000 0.0000000 -1.0000000
vn 0.0000000 0.0000000 -1.0000000
vn 0.0000000 0.0000000 -1.0000000
vn 0.0000000 0.0000000 1.0000000
vn 0.0000000 0.0000000 1.0000000
vn 0.0000000 0.0000000 1.0000000
vn 0.0000000 0.0000000 -1.0000000
vn 0.0000000 0.0000000 -1.0000000
vn 0.0000000 0.0000000 -1.0000000
vn 0.0000000 0.0000000 1.0000000
vn 0.0000000 0.0000000 1.0000000
vn 0.0000000 0.0000000 1.0000000
vn -0.0000000 0.0000000 -1.0000000
vn -0.0000000 0.0000000 -1.0000000
vn -0.0000000 0.0000000 -1.0000000
vn 0.0000000 0.0000000 1.0000000
vn 0.0000000 0.0000000 1.0000000
vn 0.0000000 0.0000000 1.0000000
vn 0.0000000 -0.0000000 -1.0000000
vn 0.0000000 -0.0000000 -1.0000000
vn 0.0000000 -0.0000000 -1.0000000
vn 0.0000000 0.0000000 1.0000000
vn 0.0000000 0.0000000 1.0000000
vn 0.0000000 0.0000000 1.0000000
vn 0.0000000 0.0000000 -1.0000000
vn 0.0000000 0.0000000 -1.0000000
vn 0.0000000 0.0000000 -1.0000000
vn -0.0000000 0.0000000 1.0000000
vn -0.0000000 0.0000000 1.0000000
vn -0.0000000 0.0000000 1.0000000
vn 0.0000000 0.0000000 -1.0000000
vn 0.0000000 0.0000000 -1.0000000
vn 0.0000000 0.0000000 -1.0000000
vn 0.7918149 0.3854274 -0.4737878
vn 0.7918149 0.3854274 -0.4737878
vn 0.7918149 0.3854274 -0.4737878
vn 0.8589487 0.3090138 -0.4083106
vn 0.8589487 0.3090138 -0.4083106
vn 0.8589487 0.3090138 -0.4083106
vn -0.0024996 0.8983724 -0.4392274
vn -0.0024996 0.8983724 -0.4392274
vn -0.0024996 0.8983724 -0.4392274
vn 0.2029187 0.9252099 -0.3206409
vn 0.2029187 0.9252099 -0.3206409
vn 0.2029187 0.9252099 -0.3206409
vn -0.1233128 0.8356885 -0.5351809
vn -0.1233128 0.8356885 -0.5351809
vn -0.1233128 0.8356885 -0.5351809
vn -0.0398196 0.8976627 -0.4388804
vn -0.0398196 0.8976627 -0.4388804
vn -0.0398196 0.8976627 -0.4388804
vn -0.7107802 0.4381364 -0.5502982
vn -0.7107802 0.4381364 -0.5502982
vn -0.7107802 0.4381364 -0.5502982
vn -0.7118056 0.4559784 -0.5342438
vn -0.7118056 0.4559784 -0.5342438
vn -0.7118056 0.4559784 -0.5342438
vn -0.8633907 -0.2686856 -0.4270415
vn -0.8633907 -0.2686856 -0.4270415
vn -0.8633907 -0.2686856 -0.4270415
vn -0.7016941 -0.4609665 -0.5432636
vn -0.7016941 -0.4609665 -0.5432636
vn -0.7016941 -0.4609665 -0.5432636
vn -0.2352428 -0.7812157 -0.5782412
vn -0.2352428 -0.7812157 -0.5782412
vn -0.2352428 -0.7812157 -0.5782412
vn -0.4309686 -0.7977605 -0.4217158
vn -0.4309686 -0.7977605 -0.4217158
vn -0.4309686 -0.7977605 -0.4217158
vn 0.2359718 -0.8740953 -0.4245877
vn 0.2359718 -0.8740953 -0.4245877
vn 0.2359718 -0.8740953 -0.4245877
vn 0.3052681 -0.7654053 -0.5665387
vn 0.3052681 -0.7654053 -0.5665387
vn 0.3052681 -0.7654053 -0.5665387
vn 0.8104327 -0.4413422 -0.3852479
vn 0.8104327 -0.4413422 -0.3852479
vn 0.8104327 -0.4413422 -0.3852479
vn 0.7875995 -0.2145561 -0.5776268
vn 0.7875995 -0.2145561 -0.5776268
vn 0.7875995 -0.2145561 -0.5776268
vn 0.7293796 0.0816100 0.6792240
vn 0.7293796 0.0816100 0.6792240
vn 0.7293796 0.0816100 0.6792240
vn 0.6045757 -0.4322509 0.6690645
vn 0.6045757 -0.4322509 0.6690645
vn 0.6045757 -0.4322509 0.6690645
vn 0.2244428 0.6486859 0.7272084
vn 0.2244428 0.6486859 0.7272084
vn 0.2244428 0.6486859 0.7272084
vn 0.1165262 0.7525062 0.6481944
vn 0.1165262 0.7525062 0.6481944
vn 0.1165262 0.7525062 0.6481944
vn -0.2303867 0.5711883 0.7878235
vn -0.2303867 0.5711883 0.7878235
vn -0.2303867 0.5711883 0.7878235
vn -0.5310308 0.5640563 0.6323344
vn -0.5310308 0.5640563 0.6323344
vn -0.5310308 0.5640563 0.6323344
vn -0.6051487 0.3366738 0.7214193
vn -0.6051487 0.3366738 0.7214193
vn -0.6051487 0.3366738 0.7214193
vn -0.2429742 0.5623074 0.7904264
vn -0.2429742 0.5623074 0.7904264
vn -0.2429742 0.5623074 0.7904264
vn -0.6417429 -0.1257043 0.7565478
vn -0.6417429 -0.1257043 0.7565478
vn -0.6417429 -0.1257043 0.7565478
vn -0.6400206 -0.0906519 0.7629914
vn -0.6400206 -0.0906519 0.7629914
vn -0.6400206 -0.0906519 0.7629914
vn -0.2732423 -0.5217975 0.8081250
vn -0.2732423 -0.5217975 0.8081250
vn -0.2732423 -0.5217975 0.8081250
vn -0.0446340 -0.8063789 0.5897126
vn -0.0446340 -0.8063789 0.5897126
vn -0.0446340 -0.8063789 0.5897126
vn 0.3918782 -0.4929890 0.7767840
vn 0.3918782 -0.4929890 0.7767840
vn 0.3918782 -0.4929890 0.7767840
vn 0.4162468 -0.4932145 0.7638574
vn 0.4162468 -0.4932145 0.7638574
vn 0.4162468 -0.4932145 0.7638574
vn 0.6622311 -0.1560504 0.7328699
vn 0.6622311 -0.1560504 0.7328699
vn 0.6622311 -0.1560504 0.7328699
vn 0.5624878 -0.2846229 0.7762714
vn 0.5624878 -0.2846229 0.7762714
vn 0.5624878 -0.2846229 0.7762714
vn -0.0778866 -0.0615998 -0.9950574
vn -0.0778866 -0.0615998 -0.9950574
vn -0.0778866 -0.0615998 -0.9950574
vn 0.3818380 -0.5401359 0.7499687
vn 0.3818380 -0.5401359 0.7499687
vn 0.3818380 -0.5401359 0.7499687
vn -0.2654938 0.1302308 -0.9552764
vn -0.2654938 0.1302308 -0.9552764
vn -0.2654938 0.1302308 -0.9552764
vn -0.1565163 0.2687552 0.9504069
vn -0.1565163 0.2687552 0.9504069
vn -0.1565163 0.2687552 0.9504069
vn 0.0312374 0.1350125 -0.9903514
vn 0.0312374 0.1350125 -0.9903514
vn 0.0312374 0.1350125 -0.9903514
vn -0.5409653 0.2288558 0.8093093
vn -0.5409653 0.2288558 0.8093093
vn -0.5409653 0.2288558 0.8093093
vn 0.1242500 0.2348116 -0.9640671
vn 0.1242500 0.2348116 -0.9640671
vn 0.1242500 0.2348116 -0.9640671
vn -0.2090096 0.5470288 0.8106013
vn -0.2090096 0.5470288 0.8106013
vn -0.2090096 0.5470288 0.8106013
vn 0.1266067 -0.1376717 -0.9823529
vn 0.1266067 -0.1376717 -0.9823529
vn 0.1266067 -0.1376717 -0.9823529
vn -0.2403416 0.2709149 0.9321164
vn -0.2403416 0.2709149 0.9321164
vn -0.2403416 0.2709149 0.9321164
vn 0.1289523 -0.1413036 -0.9815318
vn 0.1289523 -0.1413036 -0.9815318
vn 0.1289523 -0.1413036 -0.9815318
vn 0.3180928 -0.3785016 0.8692258
vn 0.3180928 -0.3785016 0.8692258
vn 0.3180928 -0.3785016 0.8692258
vn -0.1455735 -0.1409754 -0.9792519
vn -0.1455735 -0.1409754 -0.9792519
vn -0.1455735 -0.1409754 -0.9792519
vn 0.3727301 -0.3704690 0.8507791
vn 0.3727301 -0.3704690 0.8507791
vn 0.3727301 -0.3704690 0.8507791
vn -0.0778356 -0.0713942 -0.9944066
vn -0.0778356 -0.0713942 -0.9944066
vn -0.0778356 -0.0713942 -0.9944066
vn 0.4354752 -0.2807008 0.8553177
vn 0.4354752 -0.2807008 0.8553177
vn 0.4354752 -0.2807008 0.8553177
vn 0.7552510 0.4010582 -0.5184093
vn 0.7552510 0.4010582 -0.5184093
vn 0.7552510 0.4010582 -0.5184093
vn 0.6966156 0.4215767 -0.5805168
vn 0.6966156 0.4215767 -0.5805168
vn 0.6966156 0.4215767 -0.5805168
vn 0.4141070 0.8515623 -0.3214920
vn 0.4141070 0.8515623 -0.3214920
vn 0.4141070 0.8515623 -0.3214920
vn 0.1397899 0.8278323 -0.5432793
vn 0.1397899 0.8278323 -0.5432793
vn 0.1397899 0.8278323 -0.5432793
vn -0.4738424 0.7299020 -0.4926626
vn -0.4738424 0.7299020 -0.4926626
vn -0.4738424 0.7299020 -0.4926626
vn -0.3572556 0.8738082 -0.3298905
vn -0.3572556 0.8738082 -0.3298905
vn -0.3572556 0.8738082 -0.3298905
vn -0.8365011 0.2733941 -0.4748911
vn -0.8365011 0.2733941 -0.4748911
vn -0.8365011 0.2733941 -0.4748911
vn -0.8332870 0.2465133 -0.4948374
vn -0.8332870 0.2465133 -0.4948374
vn -0.8332870 0.2465133 -0.4948374
vn -0.7949996 -0.2452246 -0.5548338
vn -0.7949996 -0.2452246 -0.5548338
vn -0.7949996 -0.2452246 -0.5548338
vn -0.8533476 -0.1926166 -0.4844550
vn -0.8533476 -0.1926166 -0.4844550
vn -0.8533476 -0.1926166 -0.4844550
vn -0.0960905 -0.9003452 -0.4244352
vn -0.0960905 -0.9003452 -0.4244352
vn -0.0960905 -0.9003452 -0.4244352
vn -0.1694246 -0.9104867 -0.3772391
vn -0.1694246 -0.9104867 -0.3772391
vn -0.1694246 -0.9104867 -0.3772391
vn 0.2736213 -0.7969255 -0.5385546
vn 0.2736213 -0.7969255 -0.5385546
vn 0.2736213 -0.7969255 -0.5385546
vn 0.1361065 -0.8961134 -0.4224403
vn 0.1361065 -0.8961134 -0.4224403
vn 0.1361065 -0.8961134 -0.4224403
vn 0.6713849 -0.4860166 -0.5594911
vn 0.6713849 -0.4860166 -0.5594911
vn 0.6713849 -0.4860166 -0.5594911
vn 0.6716333 -0.5203050 -0.5274384
vn 0.6716333 -0.5203050 -0.5274384
vn 0.6716333 -0.5203050 -0.5274384
vn 0.4374795 0.4340648 0.7875274
vn 0.4374795 0.4340648 0.7875274
vn 0.4374795 0.4340648 0.7875274
vn 0.4350557 0.2416849 0.8673609
vn 0.4350557 0.2416849 0.8673609
vn 0.4350557 0.2416849 0.8673609
vn 0.2533161 0.6471985 0.7190029
vn 0.2533161 0.6471985 0.7190029
vn 0.2533161 0.6471985 0.7190029
vn 0.5589757 0.3032778 0.7717310
vn 0.5589757 0.3032778 0.7717310
vn 0.5589757 0.3032778 0.7717310
vn -0.1646124 0.6393471 0.7510912
vn -0.1646124 0.6393471 0.7510912
vn -0.1646124 0.6393471 0.7510912
vn -0.2739809 0.6434196 0.7148047
vn -0.2739809 0.6434196 0.7148047
vn -0.2739809 0.6434196 0.7148047
vn -0.5665857 -0.0492572 0.8225292
vn -0.5665857 -0.0492572 0.8225292
vn -0.5665857 -0.0492572 0.8225292
vn -0.6797479 -0.2454493 0.6911566
vn -0.6797479 -0.2454493 0.6911566
vn -0.6797479 -0.2454493 0.6911566
vn -0.6195056 -0.2323311 0.7498234
vn -0.6195056 -0.2323311 0.7498234
vn -0.6195056 -0.2323311 0.7498234
vn -0.5498449 0.2459793 0.7982260
vn -0.5498449 0.2459793 0.7982260
vn -0.5498449 0.2459793 0.7982260
vn -0.2771649 -0.6789401 0.6798676
vn -0.2771649 -0.6789401 0.6798676
vn -0.2771649 -0.6789401 0.6798676
vn -0.4792600 -0.4216378 0.7697606
vn -0.4792600 -0.4216378 0.7697606
vn -0.4792600 -0.4216378 0.7697606
vn 0.0637885 -0.6147655 0.7861262
vn 0.0637885 -0.6147655 0.7861262
vn 0.0637885 -0.6147655 0.7861262
vn 0.4886503 -0.6165151 0.6173573
vn 0.4886503 -0.6165151 0.6173573
vn 0.4886503 -0.6165151 0.6173573
vn 0.4322636 -0.2654400 0.8617945
vn 0.4322636 -0.2654400 0.8617945
vn 0.4322636 -0.2654400 0.8617945
vn 0.5820598 -0.1544497 0.7983431
vn 0.5820598 -0.1544497 0.7983431
vn 0.5820598 -0.1544497 0.7983431
vn 0.0973217 -0.1927366 -0.9764123
vn 0.0973217 -0.1927366 -0.9764123
vn 0.0973217 -0.1927366 -0.9764123
vn 0.4104715 0.2272083 0.8831135
vn 0.4104715 0.2272083 0.8831135
vn 0.4104715 0.2272083 0.8831135
vn 0.0195417 -0.1054775 -0.9942297
vn 0.0195417 -0.1054775 -0.9942297
vn 0.0195417 -0.1054775 -0.9942297
vn 0.5612179 0.0467722 0.8263455
vn 0.5612179 0.0467722 0.8263455
vn 0.5612179 0.0467722 0.8263455
vn -0.1643472 -0.1040632 -0.9808980
vn -0.1643472 -0.1040632 -0.9808980
vn -0.1643472 -0.1040632 -0.9808980
vn -0.1855640 0.0555294 0.9810619
vn -0.1855640 0.0555294 0.9810619
vn -0.1855640 0.0555294 0.9810619
vn -0.0786533 0.0283683 -0.9964983
vn -0.0786533 0.0283683 -0.9964983
vn -0.0786533 0.0283683 -0.9964983
vn -0.4911676 -0.3674273 0.7897794
vn -0.4911676 -0.3674273 0.7897794
vn -0.4911676 -0.3674273 0.7897794
vn -0.0766721 0.2247406 -0.9713975
vn -0.0766721 0.2247406 -0.9713975
vn -0.0766721 0.2247406 -0.9713975
vn -0.5095413 0.2628238 0.8193237
vn -0.5095413 0.2628238 0.8193237
vn -0.5095413 0.2628238 0.8193237
vn 0.0866604 0.0656143 -0.9940748
vn 0.0866604 0.0656143 -0.9940748
vn 0.0866604 0.0656143 -0.9940748
vn -0.3767341 -0.0000000 0.9263215
vn -0.3767341 -0.0000000 0.9263215
vn -0.3767341 -0.0000000 0.9263215
vn 0.2202218 0.0642451 -0.9733319
vn 0.2202218 0.0642451 -0.9733319
vn 0.2202218 0.0642451 -0.9733319
vn 0.4526917 -0.0000000 0.8916671
vn 0.4526917 -0.0000000 0.8916671
vn 0.4526917 -0.0000000 0.8916671
vn 0.0989206 -0.0724515 -0.9924543
vn 0.0989206 -0.0724515 -0.9924543
vn 0.0989206 -0.0724515 -0.9924543
vn 0.4212036 -0.0371905 0.9062033
vn 0.4212036 -0.0371905 0.9062033
vn 0.4212036 -0.0371905 0.9062033
vn 0.7180992 0.4483814 -0.5322477
vn 0.7180992 0.4483814 -0.5322477
vn 0.7180992 0.4483814 -0.5322477
vn 0.8021120 0.4007018 -0.4427802
vn 0.8021120 0.4007018 -0.4427802
vn 0.8021120 0.4007018 -0.4427802
vn 0.2983011 0.7977727 -0.5239991
vn 0.2983011 0.7977727 -0.5239991
vn 0.2983011 0.7977727 -0.5239991
vn 0.2240697 0.7859116 -0.5763122
vn 0.2240697 0.7859116 -0.5763122
vn 0.2240697 0.7859116 -0.5763122
vn -0.2976856 0.7151575 -0.6324026
vn -0.2976856 0.7151575 -0.6324026
vn -0.2976856 0.7151575 -0.6324026
vn -0.2508518 0.8091013 -0.5314400
vn -0.2508518 0.8091013 -0.5314400
vn -0.2508518 0.8091013 -0.5314400
vn -0.8895220 0.1429048 -0.4339687
vn -0.8895220 0.1429048 -0.4339687
vn -0.8895220 0.1429048 -0.4339687
vn -0.8787335 0.1012365 -0.4664532
vn -0.8787335 0.1012365 -0.4664532
vn -0.8787335 0.1012365 -0.4664532
vn -0.7653419 -0.2942019 -0.5724483
vn -0.7653419 -0.2942019 -0.5724483
vn -0.7653419 -0.2942019 -0.5724483
vn -0.8880338 -0.1539374 -0.4332426
vn -0.8880338 -0.1539374 -0.4332426
vn -0.8880338 -0.1539374 -0.4332426
vn -0.2157726 -0.6617483 -0.7180051
vn -0.2157726 -0.6617483 -0.7180051
vn -0.2157726 -0.6617483 -0.7180051
vn -0.4393131 -0.7149566 -0.5439127
vn -0.4393131 -0.7149566 -0.5439127
vn -0.4393131 -0.7149566 -0.5439127
vn 0.0042371 -0.8255730 -0.5642794
vn 0.0042371 -0.8255730 -0.5642794
vn 0.0042371 -0.8255730 -0.5642794
vn 0.1669306 -0.6682035 -0.7250091
vn 0.1669306 -0.6682035 -0.7250091
vn 0.1669306 -0.6682035 -0.7250091
vn 0.7963381 -0.4154559 -0.4395929
vn 0.7963381 -0.4154559 -0.4395929
vn 0.7963381 -0.4154559 -0.4395929
vn 0.7811683 -0.3224569 -0.5346005
vn 0.7811683 -0.3224569 -0.5346005
vn 0.7811683 -0.3224569 -0.5346005
vn 0.5938362 0.1702424 0.7863689
vn 0.5938362 0.1702424 0.7863689
vn 0.5938362 0.1702424 0.7863689
vn 0.5849221 0.0949196 0.8055162
vn 0.5849221 0.0949196 0.8055162
vn 0.5849221 0.0949196 0.8055162
vn 0.0150700 0.4589604 0.8883289
vn 0.0150700 0.4589604 0.8883289
vn 0.0150700 0.4589604 0.8883289
vn -0.2990081 0.6435619 0.7045724
vn -0.2990081 0.6435619 0.7045724
vn -0.2990081 0.6435619 0.7045724
vn -0.2968142 0.4783760 0.8264731
vn -0.2968142 0.4783760 0.8264731
vn -0.2968142 0.4783760 0.8264731
vn -0.0574803 0.4582537 0.8869609
vn -0.0574803 0.4582537 0.8869609
vn -0.0574803 0.4582537 0.8869609
vn -0.6641376 0.1868410 0.7238865
vn -0.6641376 0.1868410 0.7238865
vn -0.6641376 0.1868410 0.7238865
vn -0.3042920 0.4719994 0.8274195
vn -0.3042920 0.4719994 0.8274195
vn -0.3042920 0.4719994 0.8274195
vn -0.6237636 -0.0085684 0.7815661
vn -0.6237636 -0.0085684 0.7815661
vn -0.6237636 -0.0085684 0.7815661
vn -0.6510660 -0.2693057 0.7096390
vn -0.6510660 -0.2693057 0.7096390
vn -0.6510660 -0.2693057 0.7096390
vn -0.1260865 -0.4770857 0.8697652
vn -0.1260865 -0.4770857 0.8697652
vn -0.1260865 -0.4770857 0.8697652
vn -0.0354696 -0.5921123 0.8050745
vn -0.0354696 -0.5921123 0.8050745
vn -0.0354696 -0.5921123 0.8050745
vn 0.2223191 -0.5067756 0.8329182
vn 0.2223191 -0.5067756 0.8329182
vn 0.2223191 -0.5067756 0.8329182
vn -0.0259923 -0.4807613 0.8764662
vn -0.0259923 -0.4807613 0.8764662
vn -0.0259923 -0.4807613 0.8764662
vn 0.5653136 -0.2726507 0.7785128
vn 0.5653136 -0.2726507 0.7785128
vn 0.5653136 -0.2726507 0.7785128
vn 0.5295887 -0.2959789 0.7949417
vn 0.5295887 -0.2959789 0.7949417
vn 0.5295887 -0.2959789 0.7949417
vn -0.1043785 0.0977691 -0.9897203
vn -0.1043785 0.0977691 -0.9897203
vn -0.1043785 0.0977691 -0.9897203
vn 0.1537404 -0.0484181 0.9869243
vn 0.1537404 -0.0484181 0.9869243
vn 0.1537404 -0.0484181 0.9869243
vn -0.0907716 0.0886773 -0.9919157
vn -0.0907716 0.0886773 -0.9919157
vn -0.0907716 0.0886773 -0.9919157
vn -0.4385227 0.3722508 0.8180020
vn -0.4385227 0.3722508 0.8180020
vn -0.4385227 0.3722508 0.8180020
vn 0.1559975 0.0879548 -0.9838337
vn 0.1559975 0.0879548 -0.9838337
vn 0.1559975 0.0879548 -0.9838337
vn -0.0464210 0.4137545 0.9092042
vn -0.0464210 0.4137545 0.9092042
vn -0.0464210 0.4137545 0.9092042
vn 0.1055893 0.0349759 -0.9937945
vn 0.1055893 0.0349759 -0.9937945
vn 0.1055893 0.0349759 -0.9937945
vn -0.0333765 0.4214696 0.9062281
vn -0.0333765 0.4214696 0.9062281
vn -0.0333765 0.4214696 0.9062281
vn 0.1039825 -0.1771727 -0.9786713
vn 0.1039825 -0.1771727 -0.9786713
vn 0.1039825 -0.1771727 -0.9786713
vn -0.0360608 -0.2001001 0.9791116
vn -0.0360608 -0.2001001 0.9791116
vn -0.0360608 -0.2001001 0.9791116
vn -0.0371110 -0.0662039 -0.9971157
vn -0.0371110 -0.0662039 -0.9971157
vn -0.0371110 -0.0662039 -0.9971157
vn 0.1585524 -0.3870356 0.9083307
vn 0.1585524 -0.3870356 0.9083307
vn 0.1585524 -0.3870356 0.9083307
vn -0.2564697 -0.0640337 -0.9644288
vn -0.2564697 -0.0640337 -0.9644288
vn -0.2564697 -0.0640337 -0.9644288
vn -0.0980632 -0.3901047 0.9155337
vn -0.0980632 -0.3901047 0.9155337
vn -0.0980632 -0.3901047 0.9155337
vn -0.1048033 0.0384997 -0.9937475
vn -0.1048033 0.0384997 -0.9937475
vn -0.1048033 0.0384997 -0.9937475
vn 0.1501805 -0.2191158 0.9640716
vn 0.1501805 -0.2191158 0.9640716
vn 0.1501805 -0.2191158 0.9640716
usemtl gr_rvstone_material
s off
f 1/1/1 2/2/2 3/3/3
f 4/4/4 5/5/5 6/6/6
f 7/7/7 8/8/8 9/9/9
f 10/10/10 11/11/11 12/12/12
f 13/13/13 14/14/14 15/15/15
f 16/16/16 17/17/17 18/18/18
f 19/19/19 20/20/20 21/21/21
f 22/22/22 23/23/23 24/24/24
f 25/25/25 26/26/26 27/27/27
f 28/28/28 29/29/29 30/30/30
f 31/31/31 32/32/32 33/33/33
f 34/34/34 35/35/35 36/36/36
f 37/37/37 38/38/38 39/39/39
f 40/40/40 41/41/41 42/42/42
f 43/43/43 44/44/44 45/45/45
f 46/46/46 47/47/47 48/48/48
f 49/49/49 50/50/50 51/51/51
f 52/52/52 53/53/53 54/54/54
f 55/55/55 56/56/56 57/57/57
f 58/58/58 59/59/59 60/60/60
f 61/61/61 62/62/62 63/63/63
f 64/64/64 65/65/65 66/66/66
f 67/67/67 68/68/68 69/69/69
f 70/70/70 71/71/71 72/72/72
f 73/73/73 74/74/74 75/75/75
f 76/76/76 77/77/77 78/78/78
f 79/79/79 80/80/80 81/81/81
f 82/82/82 83/83/83 84/84/84
f 85/85/85 86/86/86 87/87/87
f 88/88/88 89/89/89 90/90/90
f 91/91/91 92/92/92 93/93/93
f 94/94/94 95/95/95 96/96/96
f 97/97/97 98/98/98 99/99/99
f 100/100/100 101/101/101 102/102/102
f 103/103/103 104/104/104 105/105/105
f 106/106/106 107/107/107 108/108/108
f 109/109/109 110/110/110 111/111/111
f 112/112/112 113/113/113 114/114/114
f 115/115/115 116/116/116 117/117/117
f 118/118/118 119/119/119 120/120/120
f 121/121/121 122/122/122 123/123/123
f 124/124/124 125/125/125 126/126/126
f 127/127/127 128/128/128 129/129/129
f 130/130/130 131/131/131 132/132/132
f 133/133/133 134/134/134 135/135/135
f 136/136/136 137/137/137 138/138/138
f 139/139/139 140/140/140 141/141/141
f 142/142/142 143/143/143 144/144/144
f 145/145/145 146/146/146 147/147/147
f 148/148/148 149/149/149 150/150/150
f 151/151/151 152/152/152 153/153/153
f 154/154/154 155/155/155 156/156/156
f 157/157/157 158/158/158 159/159/159
f 160/160/160 161/161/161 162/162/162
f 163/163/163 164/164/164 165/165/165
f 166/166/166 167/167/167 168/168/168
f 169/169/169 170/170/170 171/171/171
f 172/172/172 173/173/173 174/174/174
f 175/175/175 176/176/176 177/177/177
f 178/178/178 179/179/179 180/180/180
f 181/181/181 182/182/182 183/183/183
f 184/184/184 185/185/185 186/186/186
f 187/187/187 188/188/188 189/189/189
f 190/190/190 191/191/191 192/192/192
f 193/193/193 194/194/194 195/195/195
f 196/196/196 197/197/197 198/198/198
f 199/199/199 200/200/200 201/201/201
f 202/202/202 203/203/203 204/204/204
f 205/205/205 206/206/206 207/207/207
f 208/208/208 209/209/209 210/210/210
f 211/211/211 212/212/212 213/213/213
f 214/214/214 215/215/215 216/216/216
f 217/217/217 218/218/218 219/219/219
f 220/220/220 221/221/221 222/222/222
f 223/223/223 224/224/224 225/225/225
f 226/226/226 227/227/227 228/228/228
f 229/229/229 230/230/230 231/231/231
f 232/232/232 233/233/233 234/234/234
f 235/235/235 236/236/236 237/237/237
f 238/238/238 239/239/239 240/240/240
f 241/241/241 242/242/242 243/243/243
f 244/244/244 245/245/245 246/246/246
f 247/247/247 248/248/248 249/249/249
f 250/250/250 251/251/251 252/252/252
f 253/253/253 254/254/254 255/255/255
f 256/256/256 257/257/257 258/258/258
f 259/259/259 260/260/260 261/261/261
f 262/262/262 263/263/263 264/264/264
f 265/265/265 266/266/266 267/267/267
f 268/268/268 269/269/269 270/270/270
f 271/271/271 272/272/272 273/273/273
f 274/274/274 275/275/275 276/276/276
f 277/277/277 278/278/278 279/279/279
f 280/280/280 281/281/281 282/282/282
f 283/283/283 284/284/284 285/285/285
f 286/286/286 287/287/287 288/288/288
f 289/289/289 290/290/290 291/291/291
f 292/292/292 293/293/293 294/294/294
f 295/295/295 296/296/296 297/297/297
f 298/298/298 299/299/299 300/300/300
f 301/301/301 302/302/302 303/303/303
f 304/304/304 305/305/305 306/306/306
f 307/307/307 308/308/308 309/309/309
f 310/310/310 311/311/311 312/312/312
f 313/313/313 314/314/314 315/315/315
f 316/316/316 317/317/317 318/318/318
f 319/319/319 320/320/320 321/321/321
f 322/322/322 323/323/323 324/324/324
f 325/325/325 326/326/326 327/327/327
f 328/328/328 329/329/329 330/330/330
f 331/331/331 332/332/332 333/333/333
f 334/334/334 335/335/335 336/336/336
f 337/337/337 338/338/338 339/339/339
f 340/340/340 341/341/341 342/342/342
f 343/343/343 344/344/344 345/345/345
f 346/346/346 347/347/347 348/348/348
f 349/349/349 350/350/350 351/351/351
f 352/352/352 353/353/353 354/354/354
f 355/355/355 356/356/356 357/357/357
f 358/358/358 359/359/359 360/360/360
f 361/361/361 362/362/362 363/363/363
f 364/364/364 365/365/365 366/366/366
f 367/367/367 368/368/368 369/369/369
f 370/370/370 371/371/371 372/372/372
f 373/373/373 374/374/374 375/375/375
f 376/376/376 377/377/377 378/378/378
f 379/379/379 380/380/380 381/381/381
f 382/382/382 383/383/383 384/384/384
f 385/385/385 386/386/386 387/387/387
f 388/388/388 389/389/389 390/390/390
f 391/391/391 392/392/392 393/393/393
f 394/394/394 395/395/395 396/396/396
f 397/397/397 398/398/398 399/399/399
f 400/400/400 401/401/401 402/402/402
f 403/403/403 404/404/404 405/405/405
f 406/406/406 407/407/407 408/408/408
f 409/409/409 410/410/410 411/411/411
f 412/412/412 413/413/413 414/414/414
f 415/415/415 416/416/416 417/417/417
f 418/418/418 419/419/419 420/420/420
f 421/421/421 422/422/422 423/423/423
f 424/424/424 425/425/425 426/426/426
f 427/427/427 428/428/428 429/429/429
f 430/430/430 431/431/431 432/432/432
f 433/433/433 434/434/434 435/435/435
f 436/436/436 437/437/437 438/438/438
f 439/439/439 440/440/440 441/441/441
f 442/442/442 443/443/443 444/444/444
f 445/445/445 446/446/446 447/447/447
f 448/448/448 449/449/449 450/450/450
f 451/451/451 452/452/452 453/453/453
f 454/454/454 455/455/455 456/456/456
f 457/457/457 458/458/458 459/459/459
f 460/460/460 461/461/461 462/462/462
f 463/463/463 464/464/464 465/465/465
f 466/466/466 467/467/467 468/468/468
f 469/469/469 470/470/470 471/471/471
f 472/472/472 473/473/473 474/474/474
f 475/475/475 476/476/476 477/477/477
f 478/478/478 479/479/479 480/480/480
f 481/481/481 482/482/482 483/483/483
f 484/484/484 485/485/485 486/486/486
f 487/487/487 488/488/488 489/489/489
f 490/490/490 491/491/491 492/492/492
f 493/493/493 494/494/494 495/495/495
f 496/496/496 497/497/497 498/498/498
f 499/499/499 500/500/500 501/501/501
f 502/502/502 503/503/503 504/504/504
f 505/505/505 506/506/506 507/507/507
f 508/508/508 509/509/509 510/510/510
f 511/511/511 512/512/512 513/513/513
f 514/514/514 515/515/515 516/516/516
f 517/517/517 518/518/518 519/519/519
f 520/520/520 521/521/521 522/522/522
f 523/523/523 524/524/524 525/525/525
f 526/526/526 527/527/527 528/528/528
f 529/529/529 530/530/530 531/531/531
f 532/532/532 533/533/533 534/534/534
f 535/535/535 536/536/536 537/537/537
f 538/538/538 539/539/539 540/540/540
f 541/541/541 542/542/542 543/543/543
f 544/544/544 545/545/545 546/546/546
f 547/547/547 548/548/548 549/549/549
f 550/550/550 551/551/551 552/552/552
f 553/553/553 554/554/554 555/555/555
f 556/556/556 557/557/557 558/558/558
f 559/559/559 560/560/560 561/561/561
f 562/562/562 563/563/563 564/564/564
f 565/565/565 566/566/566 567/567/567
f 568/568/568 569/569/569 570/570/570
f 571/571/571 572/572/572 573/573/573
f 574/574/574 575/575/575 576/576/576
f 577/577/577 578/578/578 579/579/579
f 580/580/580 581/581/581 582/582/582
f 583/583/583 584/584/584 585/585/585
f 586/586/586 587/587/587 588/588/588
f 589/589/589 590/590/590 591/591/591
f 592/592/592 593/593/593 594/594/594
f 595/595/595 596/596/596 597/597/597
f 598/598/598 599/599/599 600/600/600
f 601/601/601 602/602/602 603/603/603
f 604/604/604 605/605/605 606/606/606
f 607/607/607 608/608/608 609/609/609
f 610/610/610 611/611/611 612/612/612
f 613/613/613 614/614/614 615/615/615
f 616/616/616 617/617/617 618/618/618
f 619/619/619 620/620/620 621/621/621
f 622/622/622 623/623/623 624/624/624
f 625/625/625 626/626/626 627/627/627
f 628/628/628 629/629/629 630/630/630
f 631/631/631 632/632/632 633/633/633
f 634/634/634 635/635/635 636/636/636
f 637/637/637 638/638/638 639/639/639
f 640/640/640 641/641/641 642/642/642
f 643/643/643 644/644/644 645/645/645
f 646/646/646 647/647/647 648/648/648
f 649/649/649 650/650/650 651/651/651
f 652/652/652 653/653/653 654/654/654
f 655/655/655 656/656/656 657/657/657
f 658/658/658 659/659/659 660/660/660
f 661/661/661 662/662/662 663/663/663
f 664/664/664 665/665/665 666/666/666
f 667/667/667 668/668/668 669/669/669
f 670/670/670 671/671/671 672/672/672
f 673/673/673 674/674/674 675/675/675
f 676/676/676 677/677/677 678/678/678
f 679/679/679 680/680/680 681/681/681
f 682/682/682 683/683/683 684/684/684
f 685/685/685 686/686/686 687/687/687
f 688/688/688 689/689/689 690/690/690
f 691/691/691 692/692/692 693/693/693
f 694/694/694 695/695/695 696/696/696
f 697/697/697 698/698/698 699/699/699
f 700/700/700 701/701/701 702/702/702
f 703/703/703 704/704/704 705/705/705
f 706/706/706 707/707/707 708/708/708
f 709/709/709 710/710/710 711/711/711
f 712/712/712 713/713/713 714/714/714
f 715/715/715 716/716/716 717/717/717
f 718/718/718 719/719/719 720/720/720
f 721/721/721 722/722/722 723/723/723
f 724/724/724 725/725/725 726/726/726
f 727/727/727 728/728/728 729/729/729
f 730/730/730 731/731/731 732/732/732
f 733/733/733 734/734/734 735/735/735
f 736/736/736 737/737/737 738/738/738
f 739/739/739 740/740/740 741/741/741
f 742/742/742 743/743/743 744/744/744
f 745/745/745 746/746/746 747/747/747
f 748/748/748 749/749/749 750/750/750
f 751/751/751 752/752/752 753/753/753
f 754/754/754 755/755/755 756/756/756
f 757/757/757 758/758/758 759/759/759
f 760/760/760 761/761/761 762/762/762
f 763/763/763 764/764/764 765/765/765
f 766/766/766 767/767/767 768/768/768
f 769/769/769 770/770/770 771/771/771
f 772/772/772 773/773/773 774/774/774
f 775/775/775 776/776/776 777/777/777
f 778/778/778 779/779/779 780/780/780
f 781/781/781 782/782/782 783/783/783
f 784/784/784 785/785/785 786/786/786
f 787/787/787 788/788/788 789/789/789
f 790/790/790 791/791/791 792/792/792
f 793/793/793 794/794/794 795/795/795
f 796/796/796 797/797/797 798/798/798
f 799/799/799 800/800/800 801/801/801
f 802/802/802 803/803/803 804/804/804
