# Ghost Studio original procedural Rhen Var asset
# Units: metres; up axis: Z
mtllib rv_snow_drift.mtl
o rv_snow_drift
v 3.800000 0.000000 0.050000
v 3.887521 0.598711 0.106569
v 2.786966 0.508098 0.716732
v 3.800000 0.000000 0.050000
v 2.786966 0.508098 0.716732
v 3.182328 0.000000 0.705885
v 3.887521 0.598711 0.106569
v 3.028748 1.331028 0.130000
v 2.469679 0.993114 0.681791
v 3.887521 0.598711 0.106569
v 2.469679 0.993114 0.681791
v 2.786966 0.508098 0.716732
v 3.028748 1.331028 0.130000
v 2.816551 1.652730 0.106569
v 2.258485 1.253983 0.621530
v 3.028748 1.331028 0.130000
v 2.258485 1.253983 0.621530
v 2.469679 0.993114 0.681791
v 2.816551 1.652730 0.106569
v 1.927927 2.091028 0.050000
v 1.383193 1.773196 0.571249
v 2.816551 1.652730 0.106569
v 1.383193 1.773196 0.571249
v 2.258485 1.253983 0.621530
v 1.927927 2.091028 0.050000
v 0.916618 2.539227 -0.006569
v 0.776531 1.823560 0.560402
v 1.927927 2.091028 0.050000
v 0.776531 1.823560 0.560402
v 1.383193 1.773196 0.571249
v 0.916618 2.539227 -0.006569
v 0.000000 2.274950 -0.030000
v 0.000000 1.819694 0.595343
v 0.916618 2.539227 -0.006569
v 0.000000 1.819694 0.595343
v 0.776531 1.823560 0.560402
v 0.000000 2.274950 -0.030000
v -0.948439 2.454033 -0.006569
v -0.705884 2.006069 0.655604
v 0.000000 2.274950 -0.030000
v -0.705884 2.006069 0.655604
v 0.000000 1.819694 0.595343
v -0.948439 2.454033 -0.006569
v -1.845097 2.184897 0.050000
v -1.567086 1.565116 0.705885
v -0.948439 2.454033 -0.006569
v -1.567086 1.565116 0.705885
v -0.705884 2.006069 0.655604
v -1.845097 2.184897 0.050000
v -2.887447 1.612151 0.106569
v -2.101086 1.347923 0.716732
v -1.845097 2.184897 0.050000
v -2.101086 1.347923 0.716732
v -1.567086 1.565116 0.705885
v -2.887447 1.612151 0.106569
v -3.055219 1.319496 0.130000
v -2.410908 1.017323 0.681791
v -2.887447 1.612151 0.106569
v -2.410908 1.017323 0.681791
v -2.101086 1.347923 0.716732
v -3.055219 1.319496 0.130000
v -3.750894 0.620519 0.106569
v -3.090299 0.458225 0.621530
v -3.055219 1.319496 0.130000
v -3.090299 0.458225 0.621530
v -2.410908 1.017323 0.681791
v -3.750894 0.620519 0.106569
v -3.960019 0.000000 0.050000
v -2.827063 0.000000 0.571249
v -3.750894 0.620519 0.106569
v -2.827063 0.000000 0.571249
v -3.090299 0.458225 0.621530
v -3.960019 0.000000 0.050000
v -3.381880 -0.688227 -0.006569
v -2.813932 -0.503229 0.560402
v -3.960019 0.000000 0.050000
v -2.813932 -0.503229 0.560402
v -2.827063 0.000000 0.571249
v -3.381880 -0.688227 -0.006569
v -3.501004 -1.151484 -0.030000
v -2.744772 -0.893580 0.595343
v -3.381880 -0.688227 -0.006569
v -2.744772 -0.893580 0.595343
v -2.813932 -0.503229 0.560402
v -3.501004 -1.151484 -0.030000
v -2.667154 -1.745306 -0.006569
v -1.936102 -1.462786 0.655604
v -3.501004 -1.151484 -0.030000
v -1.936102 -1.462786 0.655604
v -2.744772 -0.893580 0.595343
v -2.667154 -1.745306 -0.006569
v -1.797608 -2.242618 0.050000
v -1.531520 -1.601463 0.705885
v -2.667154 -1.745306 -0.006569
v -1.531520 -1.601463 0.705885
v -1.936102 -1.462786 0.655604
v -1.797608 -2.242618 0.050000
v -1.062193 -2.191221 0.106569
v -0.791079 -1.790026 0.716732
v -1.797608 -2.242618 0.050000
v -0.791079 -1.790026 0.716732
v -1.531520 -1.601463 0.705885
v -1.062193 -2.191221 0.106569
v -0.000000 -2.589582 0.130000
v -0.000000 -2.066975 0.681791
v -1.062193 -2.191221 0.106569
v -0.000000 -2.066975 0.681791
v -0.791079 -1.790026 0.716732
v -0.000000 -2.589582 0.130000
v 0.976261 -2.384097 0.106569
v 0.821200 -1.724368 0.621530
v -0.000000 -2.589582 0.130000
v 0.821200 -1.724368 0.621530
v -0.000000 -2.066975 0.681791
v 0.976261 -2.384097 0.106569
v 2.021289 -1.994445 0.050000
v 1.453115 -1.687872 0.571249
v 0.976261 -2.384097 0.106569
v 1.453115 -1.687872 0.571249
v 0.821200 -1.724368 0.621530
v 2.021289 -1.994445 0.050000
v 2.475701 -1.880276 -0.006569
v 2.003210 -1.413782 0.560402
v 2.021289 -1.994445 0.050000
v 2.003210 -1.413782 0.560402
v 1.453115 -1.687872 0.571249
v 2.475701 -1.880276 -0.006569
v 3.429518 -1.175485 -0.030000
v 2.769830 -0.885496 0.595343
v 2.475701 -1.880276 -0.006569
v 2.769830 -0.885496 0.595343
v 2.003210 -1.413782 0.560402
v 3.429518 -1.175485 -0.030000
v 3.750842 -0.620527 -0.006569
v 2.684602 -0.527471 0.655604
v 3.429518 -1.175485 -0.030000
v 2.684602 -0.527471 0.655604
v 2.769830 -0.885496 0.595343
v 3.750842 -0.620527 -0.006569
v 3.800000 0.000000 0.050000
v 3.182328 0.000000 0.705885
v 3.750842 -0.620527 -0.006569
v 3.182328 0.000000 0.705885
v 2.684602 -0.527471 0.655604
v 3.182328 0.000000 0.705885
v 2.786966 0.508098 0.716732
v 1.756273 0.358347 1.232997
v 3.182328 0.000000 0.705885
v 1.756273 0.358347 1.232997
v 2.089575 0.000000 1.277844
v 2.786966 0.508098 0.716732
v 2.469679 0.993114 0.681791
v 1.797009 0.606606 1.171809
v 2.786966 0.508098 0.716732
v 1.797009 0.606606 1.171809
v 1.756273 0.358347 1.232997
v 2.469679 0.993114 0.681791
v 2.258485 1.253983 0.621530
v 1.414475 0.889879 1.130122
v 2.469679 0.993114 0.681791
v 1.414475 0.889879 1.130122
v 1.797009 0.606606 1.171809
v 2.258485 1.253983 0.621530
v 1.383193 1.773196 0.571249
v 0.922078 1.182195 1.132357
v 2.258485 1.253983 0.621530
v 0.922078 1.182195 1.132357
v 1.414475 0.889879 1.130122
v 1.383193 1.773196 0.571249
v 0.776531 1.823560 0.560402
v 0.551097 1.142006 1.177204
v 1.383193 1.773196 0.571249
v 0.551097 1.142006 1.177204
v 0.922078 1.182195 1.132357
v 0.776531 1.823560 0.560402
v 0.000000 1.819694 0.595343
v 0.000000 1.324040 1.238392
v 0.776531 1.823560 0.560402
v 0.000000 1.324040 1.238392
v 0.551097 1.142006 1.177204
v 0.000000 1.819694 0.595343
v -0.705884 2.006069 0.655604
v -0.497799 1.264277 1.280079
v 0.000000 1.819694 0.595343
v -0.497799 1.264277 1.280079
v 0.000000 1.324040 1.238392
v -0.705884 2.006069 0.655604
v -1.567086 1.565116 0.705885
v -1.060811 1.027587 1.277844
v -0.705884 2.006069 0.655604
v -1.060811 1.027587 1.277844
v -0.497799 1.264277 1.280079
v -1.567086 1.565116 0.705885
v -2.101086 1.347923 0.716732
v -1.295730 0.971431 1.232997
v -1.567086 1.565116 0.705885
v -1.295730 0.971431 1.232997
v -1.060811 1.027587 1.277844
v -2.101086 1.347923 0.716732
v -2.410908 1.017323 0.681791
v -1.752672 0.621951 1.171809
v -2.101086 1.347923 0.716732
v -1.752672 0.621951 1.171809
v -1.295730 0.971431 1.232997
v -2.410908 1.017323 0.681791
v -3.090299 0.458225 0.621530
v -1.985113 0.317038 1.130122
v -2.410908 1.017323 0.681791
v -1.985113 0.317038 1.130122
v -1.752672 0.621951 1.171809
v -3.090299 0.458225 0.621530
v -2.827063 0.000000 0.571249
v -1.821555 0.000000 1.132357
v -3.090299 0.458225 0.621530
v -1.821555 0.000000 1.132357
v -1.985113 0.317038 1.130122
v -2.827063 0.000000 0.571249
v -2.813932 -0.503229 0.560402
v -2.033234 -0.309535 1.177204
v -2.827063 0.000000 0.571249
v -2.033234 -0.309535 1.177204
v -1.821555 0.000000 1.132357
v -2.813932 -0.503229 0.560402
v -2.744772 -0.893580 0.595343
v -1.694540 -0.643287 1.238392
v -2.813932 -0.503229 0.560402
v -1.694540 -0.643287 1.238392
v -2.033234 -0.309535 1.177204
v -2.744772 -0.893580 0.595343
v -1.936102 -1.462786 0.655604
v -1.324457 -0.950361 1.280079
v -2.744772 -0.893580 0.595343
v -1.324457 -0.950361 1.280079
v -1.694540 -0.643287 1.238392
v -1.936102 -1.462786 0.655604
v -1.531520 -1.601463 0.705885
v -1.067004 -1.021623 1.277844
v -1.936102 -1.462786 0.655604
v -1.067004 -1.021623 1.277844
v -1.324457 -0.950361 1.280079
v -1.531520 -1.601463 0.705885
v -0.791079 -1.790026 0.716732
v -0.482965 -1.303108 1.232997
v -1.531520 -1.601463 0.705885
v -0.482965 -1.303108 1.232997
v -1.067004 -1.021623 1.277844
v -0.791079 -1.790026 0.716732
v -0.000000 -2.066975 0.681791
v -0.000000 -1.280377 1.171809
v -0.791079 -1.790026 0.716732
v -0.000000 -1.280377 1.171809
v -0.482965 -1.303108 1.232997
v -0.000000 -2.066975 0.681791
v 0.821200 -1.724368 0.621530
v 0.543320 -1.158353 1.130122
v -0.000000 -2.066975 0.681791
v 0.543320 -1.158353 1.130122
v -0.000000 -1.280377 1.171809
v 0.821200 -1.724368 0.621530
v 1.453115 -1.687872 0.571249
v 0.909904 -1.198013 1.132357
v 0.821200 -1.724368 0.621530
v 0.909904 -1.198013 1.132357
v 0.543320 -1.158353 1.130122
v 1.453115 -1.687872 0.571249
v 2.003210 -1.413782 0.560402
v 1.458923 -0.862768 1.177204
v 1.453115 -1.687872 0.571249
v 1.458923 -0.862768 1.177204
v 0.909904 -1.198013 1.132357
v 2.003210 -1.413782 0.560402
v 2.769830 -0.885496 0.595343
v 1.744748 -0.624776 1.238392
v 2.003210 -1.413782 0.560402
v 1.744748 -0.624776 1.238392
v 1.458923 -0.862768 1.177204
v 2.769830 -0.885496 0.595343
v 2.684602 -0.527471 0.655604
v 1.774096 -0.354747 1.280079
v 2.769830 -0.885496 0.595343
v 1.774096 -0.354747 1.280079
v 1.744748 -0.624776 1.238392
v 2.684602 -0.527471 0.655604
v 3.182328 0.000000 0.705885
v 2.089575 0.000000 1.277844
v 2.684602 -0.527471 0.655604
v 2.089575 0.000000 1.277844
v 1.774096 -0.354747 1.280079
v 2.089575 0.000000 1.277844
v 1.756273 0.358347 1.232997
v 0.920223 0.170979 1.562422
v 2.089575 0.000000 1.277844
v 0.920223 0.170979 1.562422
v 0.959535 0.000000 1.621731
v 1.756273 0.358347 1.232997
v 1.797009 0.606606 1.171809
v 0.921493 0.295737 1.531242
v 1.756273 0.358347 1.232997
v 0.921493 0.295737 1.531242
v 0.920223 0.170979 1.562422
v 1.797009 0.606606 1.171809
v 1.414475 0.889879 1.130122
v 0.651138 0.483274 1.546456
v 1.797009 0.606606 1.171809
v 0.651138 0.483274 1.546456
v 0.921493 0.295737 1.531242
v 1.414475 0.889879 1.130122
v 0.922078 1.182195 1.132357
v 0.501216 0.543716 1.599152
v 1.414475 0.889879 1.130122
v 0.501216 0.543716 1.599152
v 0.651138 0.483274 1.546456
v 0.922078 1.182195 1.132357
v 0.551097 1.142006 1.177204
v 0.268060 0.586954 1.658461
v 0.922078 1.182195 1.132357
v 0.268060 0.586954 1.658461
v 0.501216 0.543716 1.599152
v 0.551097 1.142006 1.177204
v 0.000000 1.324040 1.238392
v 0.000000 0.692141 1.689641
v 0.551097 1.142006 1.177204
v 0.000000 0.692141 1.689641
v 0.268060 0.586954 1.658461
v 0.000000 1.324040 1.238392
v -0.497799 1.264277 1.280079
v -0.270815 0.580983 1.674427
v 0.000000 1.324040 1.238392
v -0.270815 0.580983 1.674427
v 0.000000 0.692141 1.689641
v -0.497799 1.264277 1.280079
v -1.060811 1.027587 1.277844
v -0.494045 0.551607 1.621731
v -0.497799 1.264277 1.280079
v -0.494045 0.551607 1.621731
v -0.270815 0.580983 1.674427
v -1.060811 1.027587 1.277844
v -1.295730 0.971431 1.232997
v -0.657275 0.478761 1.562422
v -1.060811 1.027587 1.277844
v -0.657275 0.478761 1.562422
v -0.494045 0.551607 1.621731
v -1.295730 0.971431 1.232997
v -1.752672 0.621951 1.171809
v -0.923785 0.295003 1.531242
v -1.295730 0.971431 1.232997
v -0.923785 0.295003 1.531242
v -0.657275 0.478761 1.562422
v -1.752672 0.621951 1.171809
v -1.985113 0.317038 1.130122
v -0.908395 0.173206 1.546456
v -1.752672 0.621951 1.171809
v -0.908395 0.173206 1.546456
v -0.923785 0.295003 1.531242
v -1.985113 0.317038 1.130122
v -1.821555 0.000000 1.132357
v -0.973389 0.000000 1.599152
v -1.985113 0.317038 1.130122
v -0.973389 0.000000 1.599152
v -0.908395 0.173206 1.546456
v -1.821555 0.000000 1.132357
v -2.033234 -0.309535 1.177204
v -1.019291 -0.154361 1.658461
v -1.821555 0.000000 1.132357
v -1.019291 -0.154361 1.658461
v -0.973389 0.000000 1.599152
v -2.033234 -0.309535 1.177204
v -1.694540 -0.643287 1.238392
v -0.789816 -0.345041 1.689641
v -2.033234 -0.309535 1.177204
v -0.789816 -0.345041 1.689641
v -1.019291 -0.154361 1.658461
v -1.694540 -0.643287 1.238392
v -1.324457 -0.950361 1.280079
v -0.723478 -0.434952 1.674427
v -1.694540 -0.643287 1.238392
v -0.723478 -0.434952 1.674427
v -0.789816 -0.345041 1.689641
v -1.324457 -0.950361 1.280079
v -1.067004 -1.021623 1.277844
v -0.508317 -0.536120 1.621731
v -1.324457 -0.950361 1.280079
v -0.508317 -0.536120 1.621731
v -0.723478 -0.434952 1.674427
v -1.067004 -1.021623 1.277844
v -0.482965 -1.303108 1.232997
v -0.236629 -0.664917 1.562422
v -1.067004 -1.021623 1.277844
v -0.236629 -0.664917 1.562422
v -0.508317 -0.536120 1.621731
v -0.482965 -1.303108 1.232997
v -0.000000 -1.280377 1.171809
v -0.000000 -0.594453 1.531242
v -0.482965 -1.303108 1.232997
v -0.000000 -0.594453 1.531242
v -0.236629 -0.664917 1.562422
v -0.000000 -1.280377 1.171809
v 0.543320 -1.158353 1.130122
v 0.250136 -0.629013 1.546456
v -0.000000 -1.280377 1.171809
v 0.250136 -0.629013 1.546456
v -0.000000 -0.594453 1.531242
v 0.543320 -1.158353 1.130122
v 0.909904 -1.198013 1.132357
v 0.473159 -0.575957 1.599152
v 0.543320 -1.158353 1.130122
v 0.473159 -0.575957 1.599152
v 0.250136 -0.629013 1.546456
v 0.909904 -1.198013 1.132357
v 1.458923 -0.862768 1.177204
v 0.753571 -0.417583 1.658461
v 0.909904 -1.198013 1.132357
v 0.753571 -0.417583 1.658461
v 0.473159 -0.575957 1.599152
v 1.458923 -0.862768 1.177204
v 1.744748 -0.624776 1.238392
v 0.801053 -0.340201 1.689641
v 1.458923 -0.862768 1.177204
v 0.801053 -0.340201 1.689641
v 0.753571 -0.417583 1.658461
v 1.744748 -0.624776 1.238392
v 1.774096 -0.354747 1.280079
v 0.961298 -0.163674 1.674427
v 1.744748 -0.624776 1.238392
v 0.961298 -0.163674 1.674427
v 0.801053 -0.340201 1.689641
v 1.774096 -0.354747 1.280079
v 2.089575 0.000000 1.277844
v 0.959535 0.000000 1.621731
v 1.774096 -0.354747 1.280079
v 0.959535 0.000000 1.621731
v 0.961298 -0.163674 1.674427
v 0.350000 -0.180000 1.950000
v 0.959535 0.000000 1.621731
v 0.920223 0.170979 1.562422
v 0.000000 0.000000 0.000000
v 3.887521 0.598711 0.106569
v 3.800000 0.000000 0.050000
v 0.350000 -0.180000 1.950000
v 0.920223 0.170979 1.562422
v 0.921493 0.295737 1.531242
v 0.000000 0.000000 0.000000
v 3.028748 1.331028 0.130000
v 3.887521 0.598711 0.106569
v 0.350000 -0.180000 1.950000
v 0.921493 0.295737 1.531242
v 0.651138 0.483274 1.546456
v 0.000000 0.000000 0.000000
v 2.816551 1.652730 0.106569
v 3.028748 1.331028 0.130000
v 0.350000 -0.180000 1.950000
v 0.651138 0.483274 1.546456
v 0.501216 0.543716 1.599152
v 0.000000 0.000000 0.000000
v 1.927927 2.091028 0.050000
v 2.816551 1.652730 0.106569
v 0.350000 -0.180000 1.950000
v 0.501216 0.543716 1.599152
v 0.268060 0.586954 1.658461
v 0.000000 0.000000 0.000000
v 0.916618 2.539227 -0.006569
v 1.927927 2.091028 0.050000
v 0.350000 -0.180000 1.950000
v 0.268060 0.586954 1.658461
v 0.000000 0.692141 1.689641
v 0.000000 0.000000 0.000000
v 0.000000 2.274950 -0.030000
v 0.916618 2.539227 -0.006569
v 0.350000 -0.180000 1.950000
v 0.000000 0.692141 1.689641
v -0.270815 0.580983 1.674427
v 0.000000 0.000000 0.000000
v -0.948439 2.454033 -0.006569
v 0.000000 2.274950 -0.030000
v 0.350000 -0.180000 1.950000
v -0.270815 0.580983 1.674427
v -0.494045 0.551607 1.621731
v 0.000000 0.000000 0.000000
v -1.845097 2.184897 0.050000
v -0.948439 2.454033 -0.006569
v 0.350000 -0.180000 1.950000
v -0.494045 0.551607 1.621731
v -0.657275 0.478761 1.562422
v 0.000000 0.000000 0.000000
v -2.887447 1.612151 0.106569
v -1.845097 2.184897 0.050000
v 0.350000 -0.180000 1.950000
v -0.657275 0.478761 1.562422
v -0.923785 0.295003 1.531242
v 0.000000 0.000000 0.000000
v -3.055219 1.319496 0.130000
v -2.887447 1.612151 0.106569
v 0.350000 -0.180000 1.950000
v -0.923785 0.295003 1.531242
v -0.908395 0.173206 1.546456
v 0.000000 0.000000 0.000000
v -3.750894 0.620519 0.106569
v -3.055219 1.319496 0.130000
v 0.350000 -0.180000 1.950000
v -0.908395 0.173206 1.546456
v -0.973389 0.000000 1.599152
v 0.000000 0.000000 0.000000
v -3.960019 0.000000 0.050000
v -3.750894 0.620519 0.106569
v 0.350000 -0.180000 1.950000
v -0.973389 0.000000 1.599152
v -1.019291 -0.154361 1.658461
v 0.000000 0.000000 0.000000
v -3.381880 -0.688227 -0.006569
v -3.960019 0.000000 0.050000
v 0.350000 -0.180000 1.950000
v -1.019291 -0.154361 1.658461
v -0.789816 -0.345041 1.689641
v 0.000000 0.000000 0.000000
v -3.501004 -1.151484 -0.030000
v -3.381880 -0.688227 -0.006569
v 0.350000 -0.180000 1.950000
v -0.789816 -0.345041 1.689641
v -0.723478 -0.434952 1.674427
v 0.000000 0.000000 0.000000
v -2.667154 -1.745306 -0.006569
v -3.501004 -1.151484 -0.030000
v 0.350000 -0.180000 1.950000
v -0.723478 -0.434952 1.674427
v -0.508317 -0.536120 1.621731
v 0.000000 0.000000 0.000000
v -1.797608 -2.242618 0.050000
v -2.667154 -1.745306 -0.006569
v 0.350000 -0.180000 1.950000
v -0.508317 -0.536120 1.621731
v -0.236629 -0.664917 1.562422
v 0.000000 0.000000 0.000000
v -1.062193 -2.191221 0.106569
v -1.797608 -2.242618 0.050000
v 0.350000 -0.180000 1.950000
v -0.236629 -0.664917 1.562422
v -0.000000 -0.594453 1.531242
v 0.000000 0.000000 0.000000
v -0.000000 -2.589582 0.130000
v -1.062193 -2.191221 0.106569
v 0.350000 -0.180000 1.950000
v -0.000000 -0.594453 1.531242
v 0.250136 -0.629013 1.546456
v 0.000000 0.000000 0.000000
v 0.976261 -2.384097 0.106569
v -0.000000 -2.589582 0.130000
v 0.350000 -0.180000 1.950000
v 0.250136 -0.629013 1.546456
v 0.473159 -0.575957 1.599152
v 0.000000 0.000000 0.000000
v 2.021289 -1.994445 0.050000
v 0.976261 -2.384097 0.106569
v 0.350000 -0.180000 1.950000
v 0.473159 -0.575957 1.599152
v 0.753571 -0.417583 1.658461
v 0.000000 0.000000 0.000000
v 2.475701 -1.880276 -0.006569
v 2.021289 -1.994445 0.050000
v 0.350000 -0.180000 1.950000
v 0.753571 -0.417583 1.658461
v 0.801053 -0.340201 1.689641
v 0.000000 0.000000 0.000000
v 3.429518 -1.175485 -0.030000
v 2.475701 -1.880276 -0.006569
v 0.350000 -0.180000 1.950000
v 0.801053 -0.340201 1.689641
v 0.961298 -0.163674 1.674427
v 0.000000 0.000000 0.000000
v 3.750842 -0.620527 -0.006569
v 3.429518 -1.175485 -0.030000
v 0.350000 -0.180000 1.950000
v 0.961298 -0.163674 1.674427
v 0.959535 0.000000 1.621731
v 0.000000 0.000000 0.000000
v 3.800000 0.000000 0.050000
v 3.750842 -0.620527 -0.006569
vt 0.000000 0.000000
vt 1.000000 0.000000
vt 1.000000 1.000000
vt 0.000000 0.000000
vt 1.000000 1.000000
vt 0.000000 1.000000
vt 0.000000 0.000000
vt 1.000000 0.000000
vt 1.000000 1.000000
vt 0.000000 0.000000
vt 1.000000 1.000000
vt 0.000000 1.000000
vt 0.000000 0.000000
vt 1.000000 0.000000
vt 1.000000 1.000000
vt 0.000000 0.000000
vt 1.000000 1.000000
vt 0.000000 1.000000
vt 0.000000 0.000000
vt 1.000000 0.000000
vt 1.000000 1.000000
vt 0.000000 0.000000
vt 1.000000 1.000000
vt 0.000000 1.000000
vt 0.000000 0.000000
vt 1.000000 0.000000
vt 1.000000 1.000000
vt 0.000000 0.000000
vt 1.000000 1.000000
vt 0.000000 1.000000
vt 0.000000 0.000000
vt 1.000000 0.000000
vt 1.000000 1.000000
vt 0.000000 0.000000
vt 1.000000 1.000000
vt 0.000000 1.000000
vt 0.000000 0.000000
vt 1.000000 0.000000
vt 1.000000 1.000000
vt 0.000000 0.000000
vt 1.000000 1.000000
vt 0.000000 1.000000
vt 0.000000 0.000000
vt 1.000000 0.000000
vt 1.000000 1.000000
vt 0.000000 0.000000
vt 1.000000 1.000000
vt 0.000000 1.000000
vt 0.000000 0.000000
vt 1.000000 0.000000
vt 1.000000 1.000000
vt 0.000000 0.000000
vt 1.000000 1.000000
vt 0.000000 1.000000
vt 0.000000 0.000000
vt 1.000000 0.000000
vt 1.000000 1.000000
vt 0.000000 0.000000
vt 1.000000 1.000000
vt 0.000000 1.000000
vt 0.000000 0.000000
vt 1.000000 0.000000
vt 1.000000 1.000000
vt 0.000000 0.000000
vt 1.000000 1.000000
vt 0.000000 1.000000
vt 0.000000 0.000000
vt 1.000000 0.000000
vt 1.000000 1.000000
vt 0.000000 0.000000
vt 1.000000 1.000000
vt 0.000000 1.000000
vt 0.000000 0.000000
vt 1.000000 0.000000
vt 1.000000 1.000000
vt 0.000000 0.000000
vt 1.000000 1.000000
vt 0.000000 1.000000
vt 0.000000 0.000000
vt 1.000000 0.000000
vt 1.000000 1.000000
vt 0.000000 0.000000
vt 1.000000 1.000000
vt 0.000000 1.000000
vt 0.000000 0.000000
vt 1.000000 0.000000
vt 1.000000 1.000000
vt 0.000000 0.000000
vt 1.000000 1.000000
vt 0.000000 1.000000
vt 0.000000 0.000000
vt 1.000000 0.000000
vt 1.000000 1.000000
vt 0.000000 0.000000
vt 1.000000 1.000000
vt 0.000000 1.000000
vt 0.000000 0.000000
vt 1.000000 0.000000
vt 1.000000 1.000000
vt 0.000000 0.000000
vt 1.000000 1.000000
vt 0.000000 1.000000
vt 0.000000 0.000000
vt 1.000000 0.000000
vt 1.000000 1.000000
vt 0.000000 0.000000
vt 1.000000 1.000000
vt 0.000000 1.000000
vt 0.000000 0.000000
vt 1.000000 0.000000
vt 1.000000 1.000000
vt 0.000000 0.000000
vt 1.000000 1.000000
vt 0.000000 1.000000
vt 0.000000 0.000000
vt 1.000000 0.000000
vt 1.000000 1.000000
vt 0.000000 0.000000
vt 1.000000 1.000000
vt 0.000000 1.000000
vt 0.000000 0.000000
vt 1.000000 0.000000
vt 1.000000 1.000000
vt 0.000000 0.000000
vt 1.000000 1.000000
vt 0.000000 1.000000
vt 0.000000 0.000000
vt 1.000000 0.000000
vt 1.000000 1.000000
vt 0.000000 0.000000
vt 1.000000 1.000000
vt 0.000000 1.000000
vt 0.000000 0.000000
vt 1.000000 0.000000
vt 1.000000 1.000000
vt 0.000000 0.000000
vt 1.000000 1.000000
vt 0.000000 1.000000
vt 0.000000 0.000000
vt 1.000000 0.000000
vt 1.000000 1.000000
vt 0.000000 0.000000
vt 1.000000 1.000000
vt 0.000000 1.000000
vt 0.000000 0.000000
vt 1.000000 0.000000
vt 1.000000 1.000000
vt 0.000000 0.000000
vt 1.000000 1.000000
vt 0.000000 1.000000
vt 0.000000 0.000000
vt 1.000000 0.000000
vt 1.000000 1.000000
vt 0.000000 0.000000
vt 1.000000 1.000000
vt 0.000000 1.000000
vt 0.000000 0.000000
vt 1.000000 0.000000
vt 1.000000 1.000000
vt 0.000000 0.000000
vt 1.000000 1.000000
vt 0.000000 1.000000
vt 0.000000 0.000000
vt 1.000000 0.000000
vt 1.000000 1.000000
vt 0.000000 0.000000
vt 1.000000 1.000000
vt 0.000000 1.000000
vt 0.000000 0.000000
vt 1.000000 0.000000
vt 1.000000 1.000000
vt 0.000000 0.000000
vt 1.000000 1.000000
vt 0.000000 1.000000
vt 0.000000 0.000000
vt 1.000000 0.000000
vt 1.000000 1.000000
vt 0.000000 0.000000
vt 1.000000 1.000000
vt 0.000000 1.000000
vt 0.000000 0.000000
vt 1.000000 0.000000
vt 1.000000 1.000000
vt 0.000000 0.000000
vt 1.000000 1.000000
vt 0.000000 1.000000
vt 0.000000 0.000000
vt 1.000000 0.000000
vt 1.000000 1.000000
vt 0.000000 0.000000
vt 1.000000 1.000000
vt 0.000000 1.000000
vt 0.000000 0.000000
vt 1.000000 0.000000
vt 1.000000 1.000000
vt 0.000000 0.000000
vt 1.000000 1.000000
vt 0.000000 1.000000
vt 0.000000 0.000000
vt 1.000000 0.000000
vt 1.000000 1.000000
vt 0.000000 0.000000
vt 1.000000 1.000000
vt 0.000000 1.000000
vt 0.000000 0.000000
vt 1.000000 0.000000
vt 1.000000 1.000000
vt 0.000000 0.000000
vt 1.000000 1.000000
vt 0.000000 1.000000
vt 0.000000 0.000000
vt 1.000000 0.000000
vt 1.000000 1.000000
vt 0.000000 0.000000
vt 1.000000 1.000000
vt 0.000000 1.000000
vt 0.000000 0.000000
vt 1.000000 0.000000
vt 1.000000 1.000000
vt 0.000000 0.000000
vt 1.000000 1.000000
vt 0.000000 1.000000
vt 0.000000 0.000000
vt 1.000000 0.000000
vt 1.000000 1.000000
vt 0.000000 0.000000
vt 1.000000 1.000000
vt 0.000000 1.000000
vt 0.000000 0.000000
vt 1.000000 0.000000
vt 1.000000 1.000000
vt 0.000000 0.000000
vt 1.000000 1.000000
vt 0.000000 1.000000
vt 0.000000 0.000000
vt 1.000000 0.000000
vt 1.000000 1.000000
vt 0.000000 0.000000
vt 1.000000 1.000000
vt 0.000000 1.000000
vt 0.000000 0.000000
vt 1.000000 0.000000
vt 1.000000 1.000000
vt 0.000000 0.000000
vt 1.000000 1.000000
vt 0.000000 1.000000
vt 0.000000 0.000000
vt 1.000000 0.000000
vt 1.000000 1.000000
vt 0.000000 0.000000
vt 1.000000 1.000000
vt 0.000000 1.000000
vt 0.000000 0.000000
vt 1.000000 0.000000
vt 1.000000 1.000000
vt 0.000000 0.000000
vt 1.000000 1.000000
vt 0.000000 1.000000
vt 0.000000 0.000000
vt 1.000000 0.000000
vt 1.000000 1.000000
vt 0.000000 0.000000
vt 1.000000 1.000000
vt 0.000000 1.000000
vt 0.000000 0.000000
vt 1.000000 0.000000
vt 1.000000 1.000000
vt 0.000000 0.000000
vt 1.000000 1.000000
vt 0.000000 1.000000
vt 0.000000 0.000000
vt 1.000000 0.000000
vt 1.000000 1.000000
vt 0.000000 0.000000
vt 1.000000 1.000000
vt 0.000000 1.000000
vt 0.000000 0.000000
vt 1.000000 0.000000
vt 1.000000 1.000000
vt 0.000000 0.000000
vt 1.000000 1.000000
vt 0.000000 1.000000
vt 0.000000 0.000000
vt 1.000000 0.000000
vt 1.000000 1.000000
vt 0.000000 0.000000
vt 1.000000 1.000000
vt 0.000000 1.000000
vt 0.000000 0.000000
vt 1.000000 0.000000
vt 1.000000 1.000000
vt 0.000000 0.000000
vt 1.000000 1.000000
vt 0.000000 1.000000
vt 0.000000 0.000000
vt 1.000000 0.000000
vt 1.000000 1.000000
vt 0.000000 0.000000
vt 1.000000 1.000000
vt 0.000000 1.000000
vt 0.000000 0.000000
vt 1.000000 0.000000
vt 1.000000 1.000000
vt 0.000000 0.000000
vt 1.000000 1.000000
vt 0.000000 1.000000
vt 0.000000 0.000000
vt 1.000000 0.000000
vt 1.000000 1.000000
vt 0.000000 0.000000
vt 1.000000 1.000000
vt 0.000000 1.000000
vt 0.000000 0.000000
vt 1.000000 0.000000
vt 1.000000 1.000000
vt 0.000000 0.000000
vt 1.000000 1.000000
vt 0.000000 1.000000
vt 0.000000 0.000000
vt 1.000000 0.000000
vt 1.000000 1.000000
vt 0.000000 0.000000
vt 1.000000 1.000000
vt 0.000000 1.000000
vt 0.000000 0.000000
vt 1.000000 0.000000
vt 1.000000 1.000000
vt 0.000000 0.000000
vt 1.000000 1.000000
vt 0.000000 1.000000
vt 0.000000 0.000000
vt 1.000000 0.000000
vt 1.000000 1.000000
vt 0.000000 0.000000
vt 1.000000 1.000000
vt 0.000000 1.000000
vt 0.000000 0.000000
vt 1.000000 0.000000
vt 1.000000 1.000000
vt 0.000000 0.000000
vt 1.000000 1.000000
vt 0.000000 1.000000
vt 0.000000 0.000000
vt 1.000000 0.000000
vt 1.000000 1.000000
vt 0.000000 0.000000
vt 1.000000 1.000000
vt 0.000000 1.000000
vt 0.000000 0.000000
vt 1.000000 0.000000
vt 1.000000 1.000000
vt 0.000000 0.000000
vt 1.000000 1.000000
vt 0.000000 1.000000
vt 0.000000 0.000000
vt 1.000000 0.000000
vt 1.000000 1.000000
vt 0.000000 0.000000
vt 1.000000 1.000000
vt 0.000000 1.000000
vt 0.000000 0.000000
vt 1.000000 0.000000
vt 1.000000 1.000000
vt 0.000000 0.000000
vt 1.000000 1.000000
vt 0.000000 1.000000
vt 0.000000 0.000000
vt 1.000000 0.000000
vt 1.000000 1.000000
vt 0.000000 0.000000
vt 1.000000 1.000000
vt 0.000000 1.000000
vt 0.000000 0.000000
vt 1.000000 0.000000
vt 1.000000 1.000000
vt 0.000000 0.000000
vt 1.000000 1.000000
vt 0.000000 1.000000
vt 0.000000 0.000000
vt 1.000000 0.000000
vt 1.000000 1.000000
vt 0.000000 0.000000
vt 1.000000 1.000000
vt 0.000000 1.000000
vt 0.000000 0.000000
vt 1.000000 0.000000
vt 1.000000 1.000000
vt 0.000000 0.000000
vt 1.000000 1.000000
vt 0.000000 1.000000
vt 0.000000 0.000000
vt 1.000000 0.000000
vt 1.000000 1.000000
vt 0.000000 0.000000
vt 1.000000 1.000000
vt 0.000000 1.000000
vt 0.000000 0.000000
vt 1.000000 0.000000
vt 1.000000 1.000000
vt 0.000000 0.000000
vt 1.000000 1.000000
vt 0.000000 1.000000
vt 0.000000 0.000000
vt 1.000000 0.000000
vt 1.000000 1.000000
vt 0.000000 0.000000
vt 1.000000 1.000000
vt 0.000000 1.000000
vt 0.000000 0.000000
vt 1.000000 0.000000
vt 1.000000 1.000000
vt 0.000000 0.000000
vt 1.000000 1.000000
vt 0.000000 1.000000
vt 0.000000 0.000000
vt 1.000000 0.000000
vt 1.000000 1.000000
vt 0.000000 0.000000
vt 1.000000 1.000000
vt 0.000000 1.000000
vt 0.000000 0.000000
vt 1.000000 0.000000
vt 1.000000 1.000000
vt 0.000000 0.000000
vt 1.000000 1.000000
vt 0.000000 1.000000
vt 0.000000 0.000000
vt 1.000000 0.000000
vt 1.000000 1.000000
vt 0.000000 0.000000
vt 1.000000 1.000000
vt 0.000000 1.000000
vt 0.000000 0.000000
vt 1.000000 0.000000
vt 1.000000 1.000000
vt 0.000000 0.000000
vt 1.000000 0.000000
vt 1.000000 1.000000
vt 0.000000 0.000000
vt 1.000000 0.000000
vt 1.000000 1.000000
vt 0.000000 0.000000
vt 1.000000 0.000000
vt 1.000000 1.000000
vt 0.000000 0.000000
vt 1.000000 0.000000
vt 1.000000 1.000000
vt 0.000000 0.000000
vt 1.000000 0.000000
vt 1.000000 1.000000
vt 0.000000 0.000000
vt 1.000000 0.000000
vt 1.000000 1.000000
vt 0.000000 0.000000
vt 1.000000 0.000000
vt 1.000000 1.000000
vt 0.000000 0.000000
vt 1.000000 0.000000
vt 1.000000 1.000000
vt 0.000000 0.000000
vt 1.000000 0.000000
vt 1.000000 1.000000
vt 0.000000 0.000000
vt 1.000000 0.000000
vt 1.000000 1.000000
vt 0.000000 0.000000
vt 1.000000 0.000000
vt 1.000000 1.000000
vt 0.000000 0.000000
vt 1.000000 0.000000
vt 1.000000 1.000000
vt 0.000000 0.000000
vt 1.000000 0.000000
vt 1.000000 1.000000
vt 0.000000 0.000000
vt 1.000000 0.000000
vt 1.000000 1.000000
vt 0.000000 0.000000
vt 1.000000 0.000000
vt 1.000000 1.000000
vt 0.000000 0.000000
vt 1.000000 0.000000
vt 1.000000 1.000000
vt 0.000000 0.000000
vt 1.000000 0.000000
vt 1.000000 1.000000
vt 0.000000 0.000000
vt 1.000000 0.000000
vt 1.000000 1.000000
vt 0.000000 0.000000
vt 1.000000 0.000000
vt 1.000000 1.000000
vt 0.000000 0.000000
vt 1.000000 0.000000
vt 1.000000 1.000000
vt 0.000000 0.000000
vt 1.000000 0.000000
vt 1.000000 1.000000
vt 0.000000 0.000000
vt 1.000000 0.000000
vt 1.000000 1.000000
vt 0.000000 0.000000
vt 1.000000 0.000000
vt 1.000000 1.000000
vt 0.000000 0.000000
vt 1.000000 0.000000
vt 1.000000 1.000000
vt 0.000000 0.000000
vt 1.000000 0.000000
vt 1.000000 1.000000
vt 0.000000 0.000000
vt 1.000000 0.000000
vt 1.000000 1.000000
vt 0.000000 0.000000
vt 1.000000 0.000000
vt 1.000000 1.000000
vt 0.000000 0.000000
vt 1.000000 0.000000
vt 1.000000 1.000000
vt 0.000000 0.000000
vt 1.000000 0.000000
vt 1.000000 1.000000
vt 0.000000 0.000000
vt 1.000000 0.000000
vt 1.000000 1.000000
vt 0.000000 0.000000
vt 1.000000 0.000000
vt 1.000000 1.000000
vt 0.000000 0.000000
vt 1.000000 0.000000
vt 1.000000 1.000000
vt 0.000000 0.000000
vt 1.000000 0.000000
vt 1.000000 1.000000
vt 0.000000 0.000000
vt 1.000000 0.000000
vt 1.000000 1.000000
vt 0.000000 0.000000
vt 1.000000 0.000000
vt 1.000000 1.000000
vt 0.000000 0.000000
vt 1.000000 0.000000
vt 1.000000 1.000000
vt 0.000000 0.000000
vt 1.000000 0.000000
vt 1.000000 1.000000
vt 0.000000 0.000000
vt 1.000000 0.000000
vt 1.000000 1.000000
vt 0.000000 0.000000
vt 1.000000 0.000000
vt 1.000000 1.000000
vt 0.000000 0.000000
vt 1.000000 0.000000
vt 1.000000 1.000000
vt 0.000000 0.000000
vt 1.000000 0.000000
vt 1.000000 1.000000
vt 0.000000 0.000000
vt 1.000000 0.000000
vt 1.000000 1.000000
vt 0.000000 0.000000
vt 1.000000 0.000000
vt 1.000000 1.000000
vt 0.000000 0.000000
vt 1.000000 0.000000
vt 1.000000 1.000000
vt 0.000000 0.000000
vt 1.000000 0.000000
vt 1.000000 1.000000
vt 0.000000 0.000000
vt 1.000000 0.000000
vt 1.000000 1.000000
vt 0.000000 0.000000
vt 1.000000 0.000000
vt 1.000000 1.000000
vn 0.4887818 -0.1526085 0.8589546
vn 0.4887818 -0.1526085 0.8589546
vn 0.4887818 -0.1526085 0.8589546
vn 0.6373874 0.4831509 0.6002520
vn 0.6373874 0.4831509 0.6002520
vn 0.6373874 0.4831509 0.6002520
vn 0.4413342 0.4935648 0.7494117
vn 0.4413342 0.4935648 0.7494117
vn 0.4413342 0.4935648 0.7494117
vn 0.4335538 0.3436339 0.8330347
vn 0.4335538 0.3436339 0.8330347
vn 0.4335538 0.3436339 0.8330347
vn 0.4730977 0.3702838 0.7994175
vn 0.4730977 0.3702838 0.7994175
vn 0.4730977 0.3702838 0.7994175
vn 0.4238342 0.5152064 0.7449341
vn 0.4238342 0.5152064 0.7449341
vn 0.4238342 0.5152064 0.7449341
vn 0.2812732 0.6601567 0.6964758
vn 0.2812732 0.6601567 0.6964758
vn 0.2812732 0.6601567 0.6964758
vn 0.2959371 0.5729103 0.7643265
vn 0.2959371 0.5729103 0.7643265
vn 0.2959371 0.5729103 0.7643265
vn 0.2133956 0.5806651 0.7856783
vn 0.2133956 0.5806651 0.7856783
vn 0.2133956 0.5806651 0.7856783
vn 0.0583392 0.8240856 0.5634532
vn 0.0583392 0.8240856 0.5634532
vn 0.0583392 0.8240856 0.5634532
vn -0.2408329 0.7846568 0.5712383
vn -0.2408329 0.7846568 0.5712383
vn -0.2408329 0.7846568 0.5712383
vn 0.0323182 0.6167543 0.7864920
vn 0.0323182 0.6167543 0.7864920
vn 0.0323182 0.6167543 0.7864920
vn 0.1719177 0.8440193 0.5080116
vn 0.1719177 0.8440193 0.5080116
vn 0.1719177 0.8440193 0.5080116
vn 0.2549849 0.7817290 0.5691068
vn 0.2549849 0.7817290 0.5691068
vn 0.2549849 0.7817290 0.5691068
vn -0.1599466 0.6827321 0.7129474
vn -0.1599466 0.6827321 0.7129474
vn -0.1599466 0.6827321 0.7129474
vn -0.3330338 0.7198739 0.6089911
vn -0.3330338 0.7198739 0.6089911
vn -0.3330338 0.7198739 0.6089911
vn -0.3186996 0.6483010 0.6914741
vn -0.3186996 0.6483010 0.6914741
vn -0.3186996 0.6483010 0.6914741
vn -0.2493247 0.6489010 0.7188635
vn -0.2493247 0.6489010 0.7188635
vn -0.2493247 0.6489010 0.7188635
vn -0.5071903 0.3536846 0.7859168
vn -0.5071903 0.3536846 0.7859168
vn -0.5071903 0.3536846 0.7859168
vn -0.4872317 0.3731654 0.7895270
vn -0.4872317 0.3731654 0.7895270
vn -0.4872317 0.3731654 0.7895270
vn -0.4776183 0.4500680 0.7545327
vn -0.4776183 0.4500680 0.7545327
vn -0.4776183 0.4500680 0.7545327
vn -0.4448102 0.4575268 0.7699436
vn -0.4448102 0.4575268 0.7699436
vn -0.4448102 0.4575268 0.7699436
vn -0.4172626 0.0579449 0.9069368
vn -0.4172626 0.0579449 0.9069368
vn -0.4172626 0.0579449 0.9069368
vn -0.6187475 -0.4277554 0.6589210
vn -0.6187475 -0.4277554 0.6589210
vn -0.6187475 -0.4277554 0.6589210
vn -0.5258066 -0.4983577 0.6893236
vn -0.5258066 -0.4983577 0.6893236
vn -0.5258066 -0.4983577 0.6893236
vn -0.4177708 -0.0304741 0.9080412
vn -0.4177708 -0.0304741 0.9080412
vn -0.4177708 -0.0304741 0.9080412
vn -0.6580016 0.1317006 0.7414100
vn -0.6580016 0.1317006 0.7414100
vn -0.6580016 0.1317006 0.7414100
vn -0.6955469 -0.0591379 0.7160428
vn -0.6955469 -0.0591379 0.7160428
vn -0.6955469 -0.0591379 0.7160428
vn -0.4227292 -0.5656608 0.7080451
vn -0.4227292 -0.5656608 0.7080451
vn -0.4227292 -0.5656608 0.7080451
vn -0.4266750 -0.5284763 0.7339354
vn -0.4266750 -0.5284763 0.7339354
vn -0.4266750 -0.5284763 0.7339354
vn -0.3787905 -0.5803055 0.7209461
vn -0.3787905 -0.5803055 0.7209461
vn -0.3787905 -0.5803055 0.7209461
vn -0.3179876 -0.6931882 0.6468184
vn -0.3179876 -0.6931882 0.6468184
vn -0.3179876 -0.6931882 0.6468184
vn 0.0167734 -0.8388483 0.5441068
vn 0.0167734 -0.8388483 0.5441068
vn 0.0167734 -0.8388483 0.5441068
vn -0.1801751 -0.6658556 0.7239981
vn -0.1801751 -0.6658556 0.7239981
vn -0.1801751 -0.6658556 0.7239981
vn -0.2762746 -0.6977874 0.6608821
vn -0.2762746 -0.6977874 0.6608821
vn -0.2762746 -0.6977874 0.6608821
vn -0.2390431 -0.7591827 0.6053924
vn -0.2390431 -0.7591827 0.6053924
vn -0.2390431 -0.7591827 0.6053924
vn 0.1428557 -0.5879164 0.7962076
vn 0.1428557 -0.5879164 0.7962076
vn 0.1428557 -0.5879164 0.7962076
vn 0.3331783 -0.6845625 0.6483567
vn 0.3331783 -0.6845625 0.6483567
vn 0.3331783 -0.6845625 0.6483567
vn 0.2834551 -0.6590807 0.6966103
vn 0.2834551 -0.6590807 0.6966103
vn 0.2834551 -0.6590807 0.6966103
vn 0.0978349 -0.5979669 0.7955274
vn 0.0978349 -0.5979669 0.7955274
vn 0.0978349 -0.5979669 0.7955274
vn 0.2504772 -0.6347475 0.7309971
vn 0.2504772 -0.6347475 0.7309971
vn 0.2504772 -0.6347475 0.7309971
vn 0.3226439 -0.6192100 0.7158770
vn 0.3226439 -0.6192100 0.7158770
vn 0.3226439 -0.6192100 0.7158770
vn 0.4291034 -0.5570823 0.7110060
vn 0.4291034 -0.5570823 0.7110060
vn 0.4291034 -0.5570823 0.7110060
vn 0.3506232 -0.5585249 0.7517402
vn 0.3506232 -0.5585249 0.7517402
vn 0.3506232 -0.5585249 0.7517402
vn 0.4811628 -0.3131669 0.8187850
vn 0.4811628 -0.3131669 0.8187850
vn 0.4811628 -0.3131669 0.8187850
vn 0.6977672 0.0457810 0.7148601
vn 0.6977672 0.0457810 0.7148601
vn 0.6977672 0.0457810 0.7148601
vn 0.7227957 -0.1193124 0.6806842
vn 0.7227957 -0.1193124 0.6806842
vn 0.7227957 -0.1193124 0.6806842
vn 0.4320549 -0.4804437 0.7632185
vn 0.4320549 -0.4804437 0.7632185
vn 0.4320549 -0.4804437 0.7632185
vn 0.3949250 0.2886801 0.8721801
vn 0.3949250 0.2886801 0.8721801
vn 0.3949250 0.2886801 0.8721801
vn 0.4076634 0.4766447 0.7788584
vn 0.4076634 0.4766447 0.7788584
vn 0.4076634 0.4766447 0.7788584
vn 0.4207917 0.3359776 0.8426467
vn 0.4207917 0.3359776 0.8426467
vn 0.4207917 0.3359776 0.8426467
vn 0.4252374 0.1502066 0.8925307
vn 0.4252374 0.1502066 0.8925307
vn 0.4252374 0.1502066 0.8925307
vn 0.3125003 0.4466540 0.8383578
vn 0.3125003 0.4466540 0.8383578
vn 0.3125003 0.4466540 0.8383578
vn 0.2924616 0.5136449 0.8066196
vn 0.2924616 0.5136449 0.8066196
vn 0.2924616 0.5136449 0.8066196
vn 0.2749181 0.5404645 0.7951844
vn 0.2749181 0.5404645 0.7951844
vn 0.2749181 0.5404645 0.7951844
vn 0.2900559 0.4822705 0.8266092
vn 0.2900559 0.4822705 0.8266092
vn 0.2900559 0.4822705 0.8266092
vn 0.0416578 0.6628148 0.7476237
vn 0.0416578 0.6628148 0.7476237
vn 0.0416578 0.6628148 0.7476237
vn 0.0143943 0.6825269 0.7307187
vn 0.0143943 0.6825269 0.7307187
vn 0.0143943 0.6825269 0.7307187
vn 0.0235194 0.7918093 0.6103154
vn 0.0235194 0.7918093 0.6103154
vn 0.0235194 0.7918093 0.6103154
vn 0.2794353 0.5918224 0.7560834
vn 0.2794353 0.5918224 0.7560834
vn 0.2794353 0.5918224 0.7560834
vn 0.2358404 0.6637216 0.7098260
vn 0.2358404 0.6637216 0.7098260
vn 0.2358404 0.6637216 0.7098260
vn -0.0439220 0.7912640 0.6098951
vn -0.0439220 0.7912640 0.6098951
vn -0.0439220 0.7912640 0.6098951
vn -0.2533658 0.5828720 0.7720531
vn -0.2533658 0.5828720 0.7720531
vn -0.2533658 0.5828720 0.7720531
vn -0.2478667 0.5822898 0.7742743
vn -0.2478667 0.5822898 0.7742743
vn -0.2478667 0.5822898 0.7742743
vn -0.2233954 0.5880710 0.7773461
vn -0.2233954 0.5880710 0.7773461
vn -0.2233954 0.5880710 0.7773461
vn -0.2826776 0.5613693 0.7777904
vn -0.2826776 0.5613693 0.7777904
vn -0.2826776 0.5613693 0.7777904
vn -0.4352343 0.3188956 0.8419482
vn -0.4352343 0.3188956 0.8419482
vn -0.4352343 0.3188956 0.8419482
vn -0.3832220 0.3515100 0.8541555
vn -0.3832220 0.3515100 0.8541555
vn -0.3832220 0.3515100 0.8541555
vn -0.3569557 0.3399798 0.8700554
vn -0.3569557 0.3399798 0.8700554
vn -0.3569557 0.3399798 0.8700554
vn -0.4776746 0.2489540 0.8425253
vn -0.4776746 0.2489540 0.8425253
vn -0.4776746 0.2489540 0.8425253
vn -0.4561557 -0.3517448 0.8174335
vn -0.4561557 -0.3517448 0.8174335
vn -0.4561557 -0.3517448 0.8174335
vn -0.4308149 -0.2160794 0.8761896
vn -0.4308149 -0.2160794 0.8761896
vn -0.4308149 -0.2160794 0.8761896
vn -0.6145339 -0.0330251 0.7881988
vn -0.6145339 -0.0330251 0.7881988
vn -0.6145339 -0.0330251 0.7881988
vn -0.4427438 0.4177267 0.7933992
vn -0.4427438 0.4177267 0.7933992
vn -0.4427438 0.4177267 0.7933992
vn -0.5194222 -0.0155511 0.8543762
vn -0.5194222 -0.0155511 0.8543762
vn -0.5194222 -0.0155511 0.8543762
vn -0.5135132 -0.3800715 0.7693178
vn -0.5135132 -0.3800715 0.7693178
vn -0.5135132 -0.3800715 0.7693178
vn -0.3963987 -0.4803319 0.7823997
vn -0.3963987 -0.4803319 0.7823997
vn -0.3963987 -0.4803319 0.7823997
vn -0.4131048 -0.3858901 0.8248838
vn -0.4131048 -0.3858901 0.8248838
vn -0.4131048 -0.3858901 0.8248838
vn -0.2853975 -0.5473863 0.7867125
vn -0.2853975 -0.5473863 0.7867125
vn -0.2853975 -0.5473863 0.7867125
vn -0.1785361 -0.6676672 0.7227347
vn -0.1785361 -0.6676672 0.7227347
vn -0.1785361 -0.6676672 0.7227347
vn -0.1788275 -0.6602508 0.7294447
vn -0.1788275 -0.6602508 0.7294447
vn -0.1788275 -0.6602508 0.7294447
vn -0.2235960 -0.5878014 0.7774924
vn -0.2235960 -0.5878014 0.7774924
vn -0.2235960 -0.5878014 0.7774924
vn -0.1460391 -0.5230834 0.8396763
vn -0.1460391 -0.5230834 0.8396763
vn -0.1460391 -0.5230834 0.8396763
vn 0.1171302 -0.7564187 0.6435148
vn 0.1171302 -0.7564187 0.6435148
vn 0.1171302 -0.7564187 0.6435148
vn 0.2895618 -0.5571649 0.7782809
vn 0.2895618 -0.5571649 0.7782809
vn 0.2895618 -0.5571649 0.7782809
vn 0.1808434 -0.5200341 0.8347815
vn 0.1808434 -0.5200341 0.8347815
vn 0.1808434 -0.5200341 0.8347815
vn 0.0966966 -0.7015222 0.7060570
vn 0.0966966 -0.7015222 0.7060570
vn 0.0966966 -0.7015222 0.7060570
vn -0.0787702 -0.6874100 0.7219853
vn -0.0787702 -0.6874100 0.7219853
vn -0.0787702 -0.6874100 0.7219853
vn 0.2974161 -0.5664947 0.7685229
vn 0.2974161 -0.5664947 0.7685229
vn 0.2974161 -0.5664947 0.7685229
vn 0.2842790 -0.5687986 0.7717859
vn 0.2842790 -0.5687986 0.7717859
vn 0.2842790 -0.5687986 0.7717859
vn 0.3412452 -0.5458112 0.7652724
vn 0.3412452 -0.5458112 0.7652724
vn 0.3412452 -0.5458112 0.7652724
vn 0.3031842 -0.5619819 0.7695815
vn 0.3031842 -0.5619819 0.7695815
vn 0.3031842 -0.5619819 0.7695815
vn 0.5650390 -0.0043618 0.8250527
vn 0.5650390 -0.0043618 0.8250527
vn 0.5650390 -0.0043618 0.8250527
vn 0.4881161 -0.1847368 0.8530035
vn 0.4881161 -0.1847368 0.8530035
vn 0.4881161 -0.1847368 0.8530035
vn 0.4110863 -0.4627719 0.7853981
vn 0.4110863 -0.4627719 0.7853981
vn 0.4110863 -0.4627719 0.7853981
vn 0.4629694 -0.4067602 0.7875312
vn 0.4629694 -0.4067602 0.7875312
vn 0.4629694 -0.4067602 0.7875312
vn 0.2700965 0.3628337 0.8918518
vn 0.2700965 0.3628337 0.8918518
vn 0.2700965 0.3628337 0.8918518
vn 0.2704215 0.3704228 0.8886277
vn 0.2704215 0.3704228 0.8886277
vn 0.2704215 0.3704228 0.8886277
vn 0.3193262 0.1770565 0.9309575
vn 0.3193262 0.1770565 0.9309575
vn 0.3193262 0.1770565 0.9309575
vn 0.3124711 0.2273311 0.9223245
vn 0.3124711 0.2273311 0.9223245
vn 0.3124711 0.2273311 0.9223245
vn 0.2348348 0.4443471 0.8645278
vn 0.2348348 0.4443471 0.8645278
vn 0.2348348 0.4443471 0.8645278
vn 0.2654365 0.3085531 0.9134213
vn 0.2654365 0.3085531 0.9134213
vn 0.2654365 0.3085531 0.9134213
vn 0.2689897 0.4465809 0.8533522
vn 0.2689897 0.4465809 0.8533522
vn 0.2689897 0.4465809 0.8533522
vn 0.3919058 0.1866794 0.9008666
vn 0.3919058 0.1866794 0.9008666
vn 0.3919058 0.1866794 0.9008666
vn 0.0217089 0.6485986 0.7608210
vn 0.0217089 0.6485986 0.7608210
vn 0.0217089 0.6485986 0.7608210
vn 0.2965689 0.4284985 0.8534846
vn 0.2965689 0.4284985 0.8534846
vn 0.2965689 0.4284985 0.8534846
vn 0.2716969 0.5592846 0.7831868
vn 0.2716969 0.5592846 0.7831868
vn 0.2716969 0.5592846 0.7831868
vn 0.3009666 0.5324770 0.7911305
vn 0.3009666 0.5324770 0.7911305
vn 0.3009666 0.5324770 0.7911305
vn 0.0120141 0.5028098 0.8643136
vn 0.0120141 0.5028098 0.8643136
vn 0.0120141 0.5028098 0.8643136
vn -0.2734220 0.5590006 0.7827891
vn -0.2734220 0.5590006 0.7827891
vn -0.2734220 0.5590006 0.7827891
vn -0.1818952 0.4242986 0.8870653
vn -0.1818952 0.4242986 0.8870653
vn -0.1818952 0.4242986 0.8870653
vn -0.2604212 0.4162575 0.8711547
vn -0.2604212 0.4162575 0.8711547
vn -0.2604212 0.4162575 0.8711547
vn -0.2470265 0.2966884 0.9224716
vn -0.2470265 0.2966884 0.9224716
vn -0.2470265 0.2966884 0.9224716
vn -0.4027372 0.1702101 0.8993505
vn -0.4027372 0.1702101 0.8993505
vn -0.4027372 0.1702101 0.8993505
vn -0.3057196 0.2383309 0.9218101
vn -0.3057196 0.2383309 0.9218101
vn -0.3057196 0.2383309 0.9218101
vn -0.2824905 0.2526831 0.9253920
vn -0.2824905 0.2526831 0.9253920
vn -0.2824905 0.2526831 0.9253920
vn -0.3418655 0.1334336 0.9302276
vn -0.3418655 0.1334336 0.9302276
vn -0.3418655 0.1334336 0.9302276
vn -0.3741289 0.0682529 0.9248617
vn -0.3741289 0.0682529 0.9248617
vn -0.3741289 0.0682529 0.9248617
vn -0.4685711 -0.2357324 0.8513938
vn -0.4685711 -0.2357324 0.8513938
vn -0.4685711 -0.2357324 0.8513938
vn -0.2899309 0.3764893 0.8798840
vn -0.2899309 0.3764893 0.8798840
vn -0.2899309 0.3764893 0.8798840
vn -0.4410470 0.4167755 0.7948432
vn -0.4410470 0.4167755 0.7948432
vn -0.4410470 0.4167755 0.7948432
vn -0.4346793 0.4327240 0.7898125
vn -0.4346793 0.4327240 0.7898125
vn -0.4346793 0.4327240 0.7898125
vn -0.3771965 -0.2177469 0.9001717
vn -0.3771965 -0.2177469 0.9001717
vn -0.3771965 -0.2177469 0.9001717
vn -0.3705645 -0.3023518 0.8782171
vn -0.3705645 -0.3023518 0.8782171
vn -0.3705645 -0.3023518 0.8782171
vn -0.3400682 -0.2883335 0.8951075
vn -0.3400682 -0.2883335 0.8951075
vn -0.3400682 -0.2883335 0.8951075
vn -0.3108812 -0.3770105 0.8724769
vn -0.3108812 -0.3770105 0.8724769
vn -0.3108812 -0.3770105 0.8724769
vn -0.1238354 -0.4747096 0.8713872
vn -0.1238354 -0.4747096 0.8713872
vn -0.1238354 -0.4747096 0.8713872
vn -0.0612622 -0.5604766 0.8259013
vn -0.0612622 -0.5604766 0.8259013
vn -0.0612622 -0.5604766 0.8259013
vn -0.1306067 -0.4144820 0.9006368
vn -0.1306067 -0.4144820 0.9006368
vn -0.1306067 -0.4144820 0.9006368
vn -0.0644474 -0.5263557 0.8478185
vn -0.0644474 -0.5263557 0.8478185
vn -0.0644474 -0.5263557 0.8478185
vn 0.1328762 -0.4600323 0.8779033
vn 0.1328762 -0.4600323 0.8779033
vn 0.1328762 -0.4600323 0.8779033
vn 0.2620983 -0.5206053 0.8125728
vn 0.2620983 -0.5206053 0.8125728
vn 0.2620983 -0.5206053 0.8125728
vn 0.1846890 -0.5423404 0.8196078
vn 0.1846890 -0.5423404 0.8196078
vn 0.1846890 -0.5423404 0.8196078
vn -0.1171908 -0.4609498 0.8796542
vn -0.1171908 -0.4609498 0.8796542
vn -0.1171908 -0.4609498 0.8796542
vn -0.0729614 -0.6308747 0.7724466
vn -0.0729614 -0.6308747 0.7724466
vn -0.0729614 -0.6308747 0.7724466
vn -0.0337320 -0.6293344 0.7764022
vn -0.0337320 -0.6293344 0.7764022
vn -0.0337320 -0.6293344 0.7764022
vn 0.2428967 -0.5083088 0.8262103
vn 0.2428967 -0.5083088 0.8262103
vn 0.2428967 -0.5083088 0.8262103
vn 0.1268054 -0.5368697 0.8340811
vn 0.1268054 -0.5368697 0.8340811
vn 0.1268054 -0.5368697 0.8340811
vn 0.2434984 -0.5052896 0.8278834
vn 0.2434984 -0.5052896 0.8278834
vn 0.2434984 -0.5052896 0.8278834
vn 0.2565569 -0.4925203 0.8316263
vn 0.2565569 -0.4925203 0.8316263
vn 0.2565569 -0.4925203 0.8316263
vn 0.3942803 -0.1819177 0.9008046
vn 0.3942803 -0.1819177 0.9008046
vn 0.3942803 -0.1819177 0.9008046
vn 0.3567087 -0.2461364 0.9012080
vn 0.3567087 -0.2461364 0.9012080
vn 0.3567087 -0.2461364 0.9012080
vn 0.2822470 -0.2451612 0.9274873
vn 0.2822470 -0.2451612 0.9274873
vn 0.2822470 -0.2451612 0.9274873
vn 0.4712345 0.2748985 0.8380745
vn 0.4712345 0.2748985 0.8380745
vn 0.4712345 0.2748985 0.8380745
vn 0.3500554 0.3778157 0.8571560
vn 0.3500554 0.3778157 0.8571560
vn 0.3500554 0.3778157 0.8571560
vn 0.0131008 0.0921586 -0.9956582
vn 0.0131008 0.0921586 -0.9956582
vn 0.0131008 0.0921586 -0.9956582
vn 0.4571706 0.2112624 0.8639232
vn 0.4571706 0.2112624 0.8639232
vn 0.4571706 0.2112624 0.8639232
vn 0.0190141 0.0542409 -0.9983468
vn 0.0190141 0.0542409 -0.9983468
vn 0.0190141 0.0542409 -0.9983468
vn 0.3155562 0.3845312 0.8675022
vn 0.3155562 0.3845312 0.8675022
vn 0.3155562 0.3845312 0.8675022
vn 0.0579594 -0.0344398 -0.9977247
vn 0.0579594 -0.0344398 -0.9977247
vn 0.0579594 -0.0344398 -0.9977247
vn 0.4265751 0.3208249 0.8456388
vn 0.4265751 0.3208249 0.8456388
vn 0.4265751 0.3208249 0.8456388
vn 0.0517816 -0.0238699 -0.9983731
vn 0.0517816 -0.0238699 -0.9983731
vn 0.0517816 -0.0238699 -0.9983731
vn 0.2926620 0.3669247 0.8830149
vn 0.2926620 0.3669247 0.8830149
vn 0.2926620 0.3669247 0.8830149
vn 0.0471714 -0.0196115 -0.9986943
vn 0.0471714 -0.0196115 -0.9986943
vn 0.0471714 -0.0196115 -0.9986943
vn 0.2483730 0.3672594 0.8963433
vn 0.2483730 0.3672594 0.8963433
vn 0.2483730 0.3672594 0.8963433
vn 0.0293498 -0.0131803 -0.9994823
vn 0.0293498 -0.0131803 -0.9994823
vn 0.0293498 -0.0131803 -0.9994823
vn -0.1476667 0.2280407 0.9623887
vn -0.1476667 0.2280407 0.9623887
vn -0.1476667 0.2280407 0.9623887
vn -0.0271829 -0.0131811 -0.9995436
vn -0.0271829 -0.0131811 -0.9995436
vn -0.0271829 -0.0131811 -0.9995436
vn -0.2455063 0.1467158 0.9582281
vn -0.2455063 0.1467158 0.9582281
vn -0.2455063 0.1467158 0.9582281
vn -0.0557075 -0.0242016 -0.9981538
vn -0.0557075 -0.0242016 -0.9981538
vn -0.0557075 -0.0242016 -0.9981538
vn -0.3486316 0.0182534 0.9370821
vn -0.3486316 0.0182534 0.9370821
vn -0.3486316 0.0182534 0.9370821
vn -0.0456052 -0.0156548 -0.9988369
vn -0.0456052 -0.0156548 -0.9988369
vn -0.0456052 -0.0156548 -0.9988369
vn -0.2420936 0.1896585 0.9515358
vn -0.2420936 0.1896585 0.9515358
vn -0.2420936 0.1896585 0.9515358
vn -0.0616434 -0.0444946 -0.9971060
vn -0.0616434 -0.0444946 -0.9971060
vn -0.0616434 -0.0444946 -0.9971060
vn -0.2829423 0.0836004 0.9554866
vn -0.2829423 0.0836004 0.9554866
vn -0.2829423 0.0836004 0.9554866
vn -0.0196018 0.0529782 -0.9984033
vn -0.0196018 0.0529782 -0.9984033
vn -0.0196018 0.0529782 -0.9984033
vn -0.1949022 0.3516964 0.9155997
vn -0.1949022 0.3516964 0.9155997
vn -0.1949022 0.3516964 0.9155997
vn -0.0125681 0.0949796 -0.9953999
vn -0.0125681 0.0949796 -0.9953999
vn -0.0125681 0.0949796 -0.9953999
vn -0.1837229 0.3996854 0.8980520
vn -0.1837229 0.3996854 0.8980520
vn -0.1837229 0.3996854 0.8980520
vn -0.0125930 0.0713997 -0.9973683
vn -0.0125930 0.0713997 -0.9973683
vn -0.0125930 0.0713997 -0.9973683
vn -0.2090089 -0.0923390 0.9735444
vn -0.2090089 -0.0923390 0.9735444
vn -0.2090089 -0.0923390 0.9735444
vn -0.0087994 0.0527701 -0.9985679
vn -0.0087994 0.0527701 -0.9985679
vn -0.0087994 0.0527701 -0.9985679
vn -0.1735424 -0.2874337 0.9419474
vn -0.1735424 -0.2874337 0.9419474
vn -0.1735424 -0.2874337 0.9419474
vn 0.0147354 -0.0187559 -0.9997155
vn 0.0147354 -0.0187559 -0.9997155
vn 0.0147354 -0.0187559 -0.9997155
vn -0.0719081 -0.5767782 0.8137298
vn -0.0719081 -0.5767782 0.8137298
vn -0.0719081 -0.5767782 0.8137298
vn 0.0357936 -0.0509431 -0.9980599
vn 0.0357936 -0.0509431 -0.9980599
vn 0.0357936 -0.0509431 -0.9980599
vn -0.0842669 -0.5579312 0.8255979
vn -0.0842669 -0.5579312 0.8255979
vn -0.0842669 -0.5579312 0.8255979
vn 0.0825269 -0.0882827 -0.9926709
vn 0.0825269 -0.0882827 -0.9926709
vn 0.0825269 -0.0882827 -0.9926709
vn 0.3054986 -0.7920279 0.5285474
vn 0.3054986 -0.7920279 0.5285474
vn 0.3054986 -0.7920279 0.5285474
vn 0.0032281 -0.0501378 -0.9987371
vn 0.0032281 -0.0501378 -0.9987371
vn 0.0032281 -0.0501378 -0.9987371
vn -0.1349156 -0.6455668 0.7516923
vn -0.1349156 -0.6455668 0.7516923
vn -0.1349156 -0.6455668 0.7516923
vn -0.0134167 -0.0501335 -0.9986524
vn -0.0134167 -0.0501335 -0.9986524
vn -0.0134167 -0.0501335 -0.9986524
vn -0.0176927 -0.6661610 0.7455981
vn -0.0176927 -0.6661610 0.7455981
vn -0.0176927 -0.6661610 0.7455981
vn -0.0324301 -0.0578810 -0.9977966
vn -0.0324301 -0.0578810 -0.9977966
vn -0.0324301 -0.0578810 -0.9977966
vn 0.1876191 -0.6180756 0.7634014
vn 0.1876191 -0.6180756 0.7634014
vn 0.1876191 -0.6180756 0.7634014
vn -0.0931189 -0.1191535 -0.9884995
vn -0.0931189 -0.1191535 -0.9884995
vn -0.0931189 -0.1191535 -0.9884995
vn 0.2897266 -0.5053073 0.8128487
vn 0.2897266 -0.5053073 0.8128487
vn 0.2897266 -0.5053073 0.8128487
vn -0.0137573 -0.0146211 -0.9997985
vn -0.0137573 -0.0146211 -0.9997985
vn -0.0137573 -0.0146211 -0.9997985
vn 0.3999353 -0.2880568 0.8701006
vn 0.3999353 -0.2880568 0.8701006
vn 0.3999353 -0.2880568 0.8701006
vn 0.0047726 0.0394254 -0.9992111
vn 0.0047726 0.0394254 -0.9992111
vn 0.0047726 0.0394254 -0.9992111
vn 0.3874013 0.2863109 0.8763255
vn 0.3874013 0.2863109 0.8763255
vn 0.3874013 0.2863109 0.8763255
vn 0.0131037 0.0897482 -0.9958783
vn 0.0131037 0.0897482 -0.9958783
vn 0.0131037 0.0897482 -0.9958783
usemtl gr_rvsnow_material
s off
f 1/1/1 2/2/2 3/3/3
f 4/4/4 5/5/5 6/6/6
f 7/7/7 8/8/8 9/9/9
f 10/10/10 11/11/11 12/12/12
f 13/13/13 14/14/14 15/15/15
f 16/16/16 17/17/17 18/18/18
f 19/19/19 20/20/20 21/21/21
f 22/22/22 23/23/23 24/24/24
f 25/25/25 26/26/26 27/27/27
f 28/28/28 29/29/29 30/30/30
f 31/31/31 32/32/32 33/33/33
f 34/34/34 35/35/35 36/36/36
f 37/37/37 38/38/38 39/39/39
f 40/40/40 41/41/41 42/42/42
f 43/43/43 44/44/44 45/45/45
f 46/46/46 47/47/47 48/48/48
f 49/49/49 50/50/50 51/51/51
f 52/52/52 53/53/53 54/54/54
f 55/55/55 56/56/56 57/57/57
f 58/58/58 59/59/59 60/60/60
f 61/61/61 62/62/62 63/63/63
f 64/64/64 65/65/65 66/66/66
f 67/67/67 68/68/68 69/69/69
f 70/70/70 71/71/71 72/72/72
f 73/73/73 74/74/74 75/75/75
f 76/76/76 77/77/77 78/78/78
f 79/79/79 80/80/80 81/81/81
f 82/82/82 83/83/83 84/84/84
f 85/85/85 86/86/86 87/87/87
f 88/88/88 89/89/89 90/90/90
f 91/91/91 92/92/92 93/93/93
f 94/94/94 95/95/95 96/96/96
f 97/97/97 98/98/98 99/99/99
f 100/100/100 101/101/101 102/102/102
f 103/103/103 104/104/104 105/105/105
f 106/106/106 107/107/107 108/108/108
f 109/109/109 110/110/110 111/111/111
f 112/112/112 113/113/113 114/114/114
f 115/115/115 116/116/116 117/117/117
f 118/118/118 119/119/119 120/120/120
f 121/121/121 122/122/122 123/123/123
f 124/124/124 125/125/125 126/126/126
f 127/127/127 128/128/128 129/129/129
f 130/130/130 131/131/131 132/132/132
f 133/133/133 134/134/134 135/135/135
f 136/136/136 137/137/137 138/138/138
f 139/139/139 140/140/140 141/141/141
f 142/142/142 143/143/143 144/144/144
f 145/145/145 146/146/146 147/147/147
f 148/148/148 149/149/149 150/150/150
f 151/151/151 152/152/152 153/153/153
f 154/154/154 155/155/155 156/156/156
f 157/157/157 158/158/158 159/159/159
f 160/160/160 161/161/161 162/162/162
f 163/163/163 164/164/164 165/165/165
f 166/166/166 167/167/167 168/168/168
f 169/169/169 170/170/170 171/171/171
f 172/172/172 173/173/173 174/174/174
f 175/175/175 176/176/176 177/177/177
f 178/178/178 179/179/179 180/180/180
f 181/181/181 182/182/182 183/183/183
f 184/184/184 185/185/185 186/186/186
f 187/187/187 188/188/188 189/189/189
f 190/190/190 191/191/191 192/192/192
f 193/193/193 194/194/194 195/195/195
f 196/196/196 197/197/197 198/198/198
f 199/199/199 200/200/200 201/201/201
f 202/202/202 203/203/203 204/204/204
f 205/205/205 206/206/206 207/207/207
f 208/208/208 209/209/209 210/210/210
f 211/211/211 212/212/212 213/213/213
f 214/214/214 215/215/215 216/216/216
f 217/217/217 218/218/218 219/219/219
f 220/220/220 221/221/221 222/222/222
f 223/223/223 224/224/224 225/225/225
f 226/226/226 227/227/227 228/228/228
f 229/229/229 230/230/230 231/231/231
f 232/232/232 233/233/233 234/234/234
f 235/235/235 236/236/236 237/237/237
f 238/238/238 239/239/239 240/240/240
f 241/241/241 242/242/242 243/243/243
f 244/244/244 245/245/245 246/246/246
f 247/247/247 248/248/248 249/249/249
f 250/250/250 251/251/251 252/252/252
f 253/253/253 254/254/254 255/255/255
f 256/256/256 257/257/257 258/258/258
f 259/259/259 260/260/260 261/261/261
f 262/262/262 263/263/263 264/264/264
f 265/265/265 266/266/266 267/267/267
f 268/268/268 269/269/269 270/270/270
f 271/271/271 272/272/272 273/273/273
f 274/274/274 275/275/275 276/276/276
f 277/277/277 278/278/278 279/279/279
f 280/280/280 281/281/281 282/282/282
f 283/283/283 284/284/284 285/285/285
f 286/286/286 287/287/287 288/288/288
f 289/289/289 290/290/290 291/291/291
f 292/292/292 293/293/293 294/294/294
f 295/295/295 296/296/296 297/297/297
f 298/298/298 299/299/299 300/300/300
f 301/301/301 302/302/302 303/303/303
f 304/304/304 305/305/305 306/306/306
f 307/307/307 308/308/308 309/309/309
f 310/310/310 311/311/311 312/312/312
f 313/313/313 314/314/314 315/315/315
f 316/316/316 317/317/317 318/318/318
f 319/319/319 320/320/320 321/321/321
f 322/322/322 323/323/323 324/324/324
f 325/325/325 326/326/326 327/327/327
f 328/328/328 329/329/329 330/330/330
f 331/331/331 332/332/332 333/333/333
f 334/334/334 335/335/335 336/336/336
f 337/337/337 338/338/338 339/339/339
f 340/340/340 341/341/341 342/342/342
f 343/343/343 344/344/344 345/345/345
f 346/346/346 347/347/347 348/348/348
f 349/349/349 350/350/350 351/351/351
f 352/352/352 353/353/353 354/354/354
f 355/355/355 356/356/356 357/357/357
f 358/358/358 359/359/359 360/360/360
f 361/361/361 362/362/362 363/363/363
f 364/364/364 365/365/365 366/366/366
f 367/367/367 368/368/368 369/369/369
f 370/370/370 371/371/371 372/372/372
f 373/373/373 374/374/374 375/375/375
f 376/376/376 377/377/377 378/378/378
f 379/379/379 380/380/380 381/381/381
f 382/382/382 383/383/383 384/384/384
f 385/385/385 386/386/386 387/387/387
f 388/388/388 389/389/389 390/390/390
f 391/391/391 392/392/392 393/393/393
f 394/394/394 395/395/395 396/396/396
f 397/397/397 398/398/398 399/399/399
f 400/400/400 401/401/401 402/402/402
f 403/403/403 404/404/404 405/405/405
f 406/406/406 407/407/407 408/408/408
f 409/409/409 410/410/410 411/411/411
f 412/412/412 413/413/413 414/414/414
f 415/415/415 416/416/416 417/417/417
f 418/418/418 419/419/419 420/420/420
f 421/421/421 422/422/422 423/423/423
f 424/424/424 425/425/425 426/426/426
f 427/427/427 428/428/428 429/429/429
f 430/430/430 431/431/431 432/432/432
f 433/433/433 434/434/434 435/435/435
f 436/436/436 437/437/437 438/438/438
f 439/439/439 440/440/440 441/441/441
f 442/442/442 443/443/443 444/444/444
f 445/445/445 446/446/446 447/447/447
f 448/448/448 449/449/449 450/450/450
f 451/451/451 452/452/452 453/453/453
f 454/454/454 455/455/455 456/456/456
f 457/457/457 458/458/458 459/459/459
f 460/460/460 461/461/461 462/462/462
f 463/463/463 464/464/464 465/465/465
f 466/466/466 467/467/467 468/468/468
f 469/469/469 470/470/470 471/471/471
f 472/472/472 473/473/473 474/474/474
f 475/475/475 476/476/476 477/477/477
f 478/478/478 479/479/479 480/480/480
f 481/481/481 482/482/482 483/483/483
f 484/484/484 485/485/485 486/486/486
f 487/487/487 488/488/488 489/489/489
f 490/490/490 491/491/491 492/492/492
f 493/493/493 494/494/494 495/495/495
f 496/496/496 497/497/497 498/498/498
f 499/499/499 500/500/500 501/501/501
f 502/502/502 503/503/503 504/504/504
f 505/505/505 506/506/506 507/507/507
f 508/508/508 509/509/509 510/510/510
f 511/511/511 512/512/512 513/513/513
f 514/514/514 515/515/515 516/516/516
f 517/517/517 518/518/518 519/519/519
f 520/520/520 521/521/521 522/522/522
f 523/523/523 524/524/524 525/525/525
f 526/526/526 527/527/527 528/528/528
f 529/529/529 530/530/530 531/531/531
f 532/532/532 533/533/533 534/534/534
f 535/535/535 536/536/536 537/537/537
f 538/538/538 539/539/539 540/540/540
f 541/541/541 542/542/542 543/543/543
f 544/544/544 545/545/545 546/546/546
f 547/547/547 548/548/548 549/549/549
f 550/550/550 551/551/551 552/552/552
f 553/553/553 554/554/554 555/555/555
f 556/556/556 557/557/557 558/558/558
f 559/559/559 560/560/560 561/561/561
f 562/562/562 563/563/563 564/564/564
f 565/565/565 566/566/566 567/567/567
f 568/568/568 569/569/569 570/570/570
f 571/571/571 572/572/572 573/573/573
f 574/574/574 575/575/575 576/576/576
